                                                                        S0000001
,,31HOpen CASCADE IGES processor 7.9,13HFilename.iges,                  G0000001
16HOpen CASCADE 7.9,31HOpen CASCADE IGES processor 7.9,32,308,15,308,15,G0000002
,1.,2,2HMM,1,0.01,15H20261004.214557,1E-07,11.008926,7Hjiayuxu,,11,0,   G0000003
15H20261004.214557,;                                                    G0000004
     186       1       0       0       0       0       0       000000000D0000001
     186       0       0       1       0                               0D0000002
     514       2       0       0       0       0       0       000010000D0000003
     514       0       0       2       1                               0D0000004
     510       4       0       0       0       0       0       000010000D0000005
     510       0       0       1       1                               0D0000006
     190       5       0       0       0       0       0       000010000D0000007
     190       0       0       1       1                               0D0000008
     116       6       0       0       0       0       0       000010400D0000009
     116       0       0       1       0                               0D0000010
     123       7       0       0       0       0       0       000010200D0000011
     123       0       0       1       0                               0D0000012
     123       8       0       0       0       0       0       000010200D0000013
     123       0       0       1       0                               0D0000014
     508       9       0       0       0       0       0       000010000D0000015
     508       0       0       1       1                               0D0000016
     504      10       0       0       0       0       0       000010001D0000017
     504       0       0       5       1                               0D0000018
     100      15       0       0       0       0      21       000010000D0000019
     100       0       0       1       0                               0D0000020
     124      16       0       0       0       0       0       000000000D0000021
     124       0       0       3       0                               0D0000022
     502      19       0       0       0       0       0       000010000D0000023
     502       0       0       7       1                               0D0000024
     100      26       0       0       0       0      27       000010000D0000025
     100       0       0       1       0                               0D0000026
     124      27       0       0       0       0       0       000000000D0000027
     124       0       0       3       0                               0D0000028
     110      30       0       0       0       0       0       000010000D0000029
     110       0       0       1       0                               0D0000030
     100      31       0       0       0       0      33       000010000D0000031
     100       0       0       1       0                               0D0000032
     124      32       0       0       0       0       0       000000000D0000033
     124       0       0       3       0                               0D0000034
     110      35       0       0       0       0       0       000010000D0000035
     110       0       0       1       0                               0D0000036
     100      36       0       0       0       0      39       000010000D0000037
     100       0       0       2       0                               0D0000038
     124      38       0       0       0       0       0       000000000D0000039
     124       0       0       3       0                               0D0000040
     110      41       0       0       0       0       0       000010000D0000041
     110       0       0       1       0                               0D0000042
     100      42       0       0       0       0      45       000010000D0000043
     100       0       0       1       0                               0D0000044
     124      43       0       0       0       0       0       000000000D0000045
     124       0       0       3       0                               0D0000046
     100      46       0       0       0       0      49       000010000D0000047
     100       0       0       2       0                               0D0000048
     124      48       0       0       0       0       0       000000000D0000049
     124       0       0       3       0                               0D0000050
     110      51       0       0       0       0       0       000010000D0000051
     110       0       0       1       0                               0D0000052
     100      52       0       0       0       0      55       000010000D0000053
     100       0       0       1       0                               0D0000054
     124      53       0       0       0       0       0       000000000D0000055
     124       0       0       3       0                               0D0000056
     100      56       0       0       0       0      59       000010000D0000057
     100       0       0       1       0                               0D0000058
     124      57       0       0       0       0       0       000000000D0000059
     124       0       0       3       0                               0D0000060
     110      60       0       0       0       0       0       000010000D0000061
     110       0       0       1       0                               0D0000062
     100      61       0       0       0       0      65       000010000D0000063
     100       0       0       1       0                               0D0000064
     124      62       0       0       0       0       0       000000000D0000065
     124       0       0       3       0                               0D0000066
     100      65       0       0       0       0      69       000010000D0000067
     100       0       0       1       0                               0D0000068
     124      66       0       0       0       0       0       000000000D0000069
     124       0       0       3       0                               0D0000070
     100      69       0       0       0       0      73       000010000D0000071
     100       0       0       2       0                               0D0000072
     124      71       0       0       0       0       0       000000000D0000073
     124       0       0       3       0                               0D0000074
     110      74       0       0       0       0       0       000010000D0000075
     110       0       0       2       0                               0D0000076
     110      76       0       0       0       0       0       000010000D0000077
     110       0       0       1       0                               0D0000078
     100      77       0       0       0       0      81       000010000D0000079
     100       0       0       1       0                               0D0000080
     124      78       0       0       0       0       0       000000000D0000081
     124       0       0       3       0                               0D0000082
     100      81       0       0       0       0      85       000010000D0000083
     100       0       0       2       0                               0D0000084
     124      83       0       0       0       0       0       000000000D0000085
     124       0       0       3       0                               0D0000086
     100      86       0       0       0       0      89       000010000D0000087
     100       0       0       1       0                               0D0000088
     124      87       0       0       0       0       0       000000000D0000089
     124       0       0       3       0                               0D0000090
     110      90       0       0       0       0       0       000010000D0000091
     110       0       0       2       0                               0D0000092
     508      92       0       0       0       0       0       000010000D0000093
     508       0       0       1       1                               0D0000094
     510      93       0       0       0       0       0       000010000D0000095
     510       0       0       1       1                               0D0000096
     194      94       0       0       0       0       0       000010000D0000097
     194       0       0       1       1                               0D0000098
     116      95       0       0       0       0       0       000010400D0000099
     116       0       0       1       0                               0D0000100
     123      96       0       0       0       0       0       000010200D0000101
     123       0       0       1       0                               0D0000102
     123      97       0       0       0       0       0       000010200D0000103
     123       0       0       1       0                               0D0000104
     508      98       0       0       0       0       0       000010000D0000105
     508       0       0       2       1                               0D0000106
     126     100       0       0       0       0       0       000010000D0000107
     126       0       0       2       0                               0D0000108
     110     102       0       0       0       0       0       000010000D0000109
     110       0       0       1       0                               0D0000110
     126     103       0       0       0       0       0       000010000D0000111
     126       0       0       2       0                               0D0000112
     110     105       0       0       0       0       0       000010000D0000113
     110       0       0       1       0                               0D0000114
     510     106       0       0       0       0       0       000010000D0000115
     510       0       0       1       1                               0D0000116
     194     107       0       0       0       0       0       000010000D0000117
     194       0       0       1       1                               0D0000118
     116     108       0       0       0       0       0       000010400D0000119
     116       0       0       1       0                               0D0000120
     123     109       0       0       0       0       0       000010200D0000121
     123       0       0       1       0                               0D0000122
     123     110       0       0       0       0       0       000010200D0000123
     123       0       0       1       0                               0D0000124
     508     111       0       0       0       0       0       000010000D0000125
     508       0       0       2       1                               0D0000126
     110     113       0       0       0       0       0       000010000D0000127
     110       0       0       1       0                               0D0000128
     110     114       0       0       0       0       0       000010000D0000129
     110       0       0       1       0                               0D0000130
     110     115       0       0       0       0       0       000010000D0000131
     110       0       0       1       0                               0D0000132
     110     116       0       0       0       0       0       000010000D0000133
     110       0       0       1       0                               0D0000134
     510     117       0       0       0       0       0       000010000D0000135
     510       0       0       1       1                               0D0000136
     192     118       0       0       0       0       0       000010000D0000137
     192       0       0       1       1                               0D0000138
     116     119       0       0       0       0       0       000010400D0000139
     116       0       0       1       0                               0D0000140
     123     120       0       0       0       0       0       000010200D0000141
     123       0       0       1       0                               0D0000142
     123     121       0       0       0       0       0       000010200D0000143
     123       0       0       1       0                               0D0000144
     508     122       0       0       0       0       0       000010000D0000145
     508       0       0       2       1                               0D0000146
     110     124       0       0       0       0       0       000010000D0000147
     110       0       0       1       0                               0D0000148
     110     125       0       0       0       0       0       000010000D0000149
     110       0       0       1       0                               0D0000150
     110     126       0       0       0       0       0       000010000D0000151
     110       0       0       1       0                               0D0000152
     110     127       0       0       0       0       0       000010000D0000153
     110       0       0       1       0                               0D0000154
     510     128       0       0       0       0       0       000010000D0000155
     510       0       0       1       1                               0D0000156
     190     129       0       0       0       0       0       000010000D0000157
     190       0       0       1       1                               0D0000158
     116     130       0       0       0       0       0       000010400D0000159
     116       0       0       1       0                               0D0000160
     123     131       0       0       0       0       0       000010200D0000161
     123       0       0       1       0                               0D0000162
     123     132       0       0       0       0       0       000010200D0000163
     123       0       0       1       0                               0D0000164
     508     133       0       0       0       0       0       000010000D0000165
     508       0       0       1       1                               0D0000166
     508     134       0       0       0       0       0       000010000D0000167
     508       0       0       1       1                               0D0000168
     510     135       0       0       0       0       0       000010000D0000169
     510       0       0       1       1                               0D0000170
     194     136       0       0       0       0       0       000010000D0000171
     194       0       0       1       1                               0D0000172
     116     137       0       0       0       0       0       000010400D0000173
     116       0       0       1       0                               0D0000174
     123     138       0       0       0       0       0       000010200D0000175
     123       0       0       1       0                               0D0000176
     123     139       0       0       0       0       0       000010200D0000177
     123       0       0       1       0                               0D0000178
     508     140       0       0       0       0       0       000010000D0000179
     508       0       0       2       1                               0D0000180
     126     142       0       0       0       0       0       000010000D0000181
     126       0       0       2       0                               0D0000182
     110     144       0       0       0       0       0       000010000D0000183
     110       0       0       1       0                               0D0000184
     126     145       0       0       0       0       0       000010000D0000185
     126       0       0       3       0                               0D0000186
     110     148       0       0       0       0       0       000010000D0000187
     110       0       0       1       0                               0D0000188
     510     149       0       0       0       0       0       000010000D0000189
     510       0       0       1       1                               0D0000190
     194     150       0       0       0       0       0       000010000D0000191
     194       0       0       1       1                               0D0000192
     116     151       0       0       0       0       0       000010400D0000193
     116       0       0       1       0                               0D0000194
     123     152       0       0       0       0       0       000010200D0000195
     123       0       0       1       0                               0D0000196
     123     153       0       0       0       0       0       000010200D0000197
     123       0       0       1       0                               0D0000198
     508     154       0       0       0       0       0       000010000D0000199
     508       0       0       2       1                               0D0000200
     110     156       0       0       0       0       0       000010000D0000201
     110       0       0       1       0                               0D0000202
     110     157       0       0       0       0       0       000010000D0000203
     110       0       0       1       0                               0D0000204
     110     158       0       0       0       0       0       000010000D0000205
     110       0       0       1       0                               0D0000206
     110     159       0       0       0       0       0       000010000D0000207
     110       0       0       1       0                               0D0000208
     510     160       0       0       0       0       0       000010000D0000209
     510       0       0       1       1                               0D0000210
     190     161       0       0       0       0       0       000010000D0000211
     190       0       0       1       1                               0D0000212
     116     162       0       0       0       0       0       000010400D0000213
     116       0       0       1       0                               0D0000214
     123     163       0       0       0       0       0       000010200D0000215
     123       0       0       1       0                               0D0000216
     123     164       0       0       0       0       0       000010200D0000217
     123       0       0       1       0                               0D0000218
     508     165       0       0       0       0       0       000010000D0000219
     508       0       0       1       1                               0D0000220
     508     166       0       0       0       0       0       000010000D0000221
     508       0       0       1       1                               0D0000222
     510     167       0       0       0       0       0       000010000D0000223
     510       0       0       1       1                               0D0000224
     190     168       0       0       0       0       0       000010000D0000225
     190       0       0       1       1                               0D0000226
     116     169       0       0       0       0       0       000010400D0000227
     116       0       0       1       0                               0D0000228
     123     170       0       0       0       0       0       000010200D0000229
     123       0       0       1       0                               0D0000230
     123     171       0       0       0       0       0       000010200D0000231
     123       0       0       1       0                               0D0000232
     508     172       0       0       0       0       0       000010000D0000233
     508       0       0       1       1                               0D0000234
     508     173       0       0       0       0       0       000010000D0000235
     508       0       0       1       1                               0D0000236
     510     174       0       0       0       0       0       000010000D0000237
     510       0       0       1       1                               0D0000238
     194     175       0       0       0       0       0       000010000D0000239
     194       0       0       1       1                               0D0000240
     116     176       0       0       0       0       0       000010400D0000241
     116       0       0       1       0                               0D0000242
     123     177       0       0       0       0       0       000010200D0000243
     123       0       0       1       0                               0D0000244
     123     178       0       0       0       0       0       000010200D0000245
     123       0       0       1       0                               0D0000246
     508     179       0       0       0       0       0       000010000D0000247
     508       0       0       2       1                               0D0000248
     110     181       0       0       0       0       0       000010000D0000249
     110       0       0       1       0                               0D0000250
     110     182       0       0       0       0       0       000010000D0000251
     110       0       0       1       0                               0D0000252
     110     183       0       0       0       0       0       000010000D0000253
     110       0       0       1       0                               0D0000254
     110     184       0       0       0       0       0       000010000D0000255
     110       0       0       1       0                               0D0000256
     510     185       0       0       0       0       0       000010000D0000257
     510       0       0       1       1                               0D0000258
     192     186       0       0       0       0       0       000010000D0000259
     192       0       0       1       1                               0D0000260
     116     187       0       0       0       0       0       000010400D0000261
     116       0       0       1       0                               0D0000262
     123     188       0       0       0       0       0       000010200D0000263
     123       0       0       1       0                               0D0000264
     123     189       0       0       0       0       0       000010200D0000265
     123       0       0       1       0                               0D0000266
     508     190       0       0       0       0       0       000010000D0000267
     508       0       0       2       1                               0D0000268
     110     192       0       0       0       0       0       000010000D0000269
     110       0       0       1       0                               0D0000270
     110     193       0       0       0       0       0       000010000D0000271
     110       0       0       1       0                               0D0000272
     110     194       0       0       0       0       0       000010000D0000273
     110       0       0       1       0                               0D0000274
     110     195       0       0       0       0       0       000010000D0000275
     110       0       0       1       0                               0D0000276
     510     196       0       0       0       0       0       000010000D0000277
     510       0       0       1       1                               0D0000278
     190     197       0       0       0       0       0       000010000D0000279
     190       0       0       1       1                               0D0000280
     116     198       0       0       0       0       0       000010400D0000281
     116       0       0       1       0                               0D0000282
     123     199       0       0       0       0       0       000010200D0000283
     123       0       0       1       0                               0D0000284
     123     200       0       0       0       0       0       000010200D0000285
     123       0       0       1       0                               0D0000286
     508     201       0       0       0       0       0       000010000D0000287
     508       0       0       1       1                               0D0000288
     508     202       0       0       0       0       0       000010000D0000289
     508       0       0       1       1                               0D0000290
     510     203       0       0       0       0       0       000010000D0000291
     510       0       0       1       1                               0D0000292
     190     204       0       0       0       0       0       000010000D0000293
     190       0       0       1       1                               0D0000294
     116     205       0       0       0       0       0       000010400D0000295
     116       0       0       1       0                               0D0000296
     123     206       0       0       0       0       0       000010200D0000297
     123       0       0       1       0                               0D0000298
     123     207       0       0       0       0       0       000010200D0000299
     123       0       0       1       0                               0D0000300
     508     208       0       0       0       0       0       000010000D0000301
     508       0       0       1       1                               0D0000302
     508     209       0       0       0       0       0       000010000D0000303
     508       0       0       1       1                               0D0000304
     510     210       0       0       0       0       0       000010000D0000305
     510       0       0       1       1                               0D0000306
     194     211       0       0       0       0       0       000010000D0000307
     194       0       0       1       1                               0D0000308
     116     212       0       0       0       0       0       000010400D0000309
     116       0       0       1       0                               0D0000310
     123     213       0       0       0       0       0       000010200D0000311
     123       0       0       1       0                               0D0000312
     123     214       0       0       0       0       0       000010200D0000313
     123       0       0       1       0                               0D0000314
     508     215       0       0       0       0       0       000010000D0000315
     508       0       0       2       1                               0D0000316
     110     217       0       0       0       0       0       000010000D0000317
     110       0       0       1       0                               0D0000318
     110     218       0       0       0       0       0       000010000D0000319
     110       0       0       1       0                               0D0000320
     110     219       0       0       0       0       0       000010000D0000321
     110       0       0       1       0                               0D0000322
     110     220       0       0       0       0       0       000010000D0000323
     110       0       0       1       0                               0D0000324
186,3,1,0;                                                       0000001P0000001
514,14,5,0,95,1,115,0,135,1,155,0,169,1,189,1,209,0,223,1,237,0, 0000003P0000002
257,0,277,1,291,1,305,1;                                         0000003P0000003
510,7,2,1,15,93;                                                 0000005P0000004
190,9,11,13;                                                     0000007P0000005
116,0.,1.554312234E-15,3.5,0;                                    0000009P0000006
123,0.,-4.440892099E-16,-1.;                                     0000011P0000007
123,1.,7.065055611E-17,-3.137514964E-32;                         0000013P0000008
508,1,0,17,1,1,0;                                                0000015P0000009
504,22,19,23,1,23,1,25,23,2,23,2,29,23,1,23,3,31,23,3,23,3,35,   0000017P0000010
23,4,23,2,37,23,4,23,4,41,23,5,23,3,43,23,5,23,5,47,23,6,23,6,   0000017P0000011
51,23,5,23,7,53,23,7,23,7,57,23,8,23,8,61,23,8,23,6,63,23,9,23,  0000017P0000012
9,67,23,10,23,10,71,23,11,23,11,75,23,11,23,9,77,23,10,23,12,79, 0000017P0000013
23,12,23,12,83,23,13,23,13,87,23,14,23,14,91,23,14,23,13;        0000017P0000014
100,0.,0.,0.,10.75,-1.972152263E-31,10.75,-1.972152263E-31;      0000019P0000015
124,1.,7.065055611E-17,0.,0.,7.065055611E-17,-1.,                0000021P0000016
-4.440892099E-16,1.554312234E-15,-3.137514964E-32,               0000021P0000017
4.440892099E-16,-1.,3.5;                                         0000021P0000018
502,14,10.75,2.313805713E-15,3.5,9.25,2.331468352E-15,3.5,11.,   0000023P0000019
2.220446049E-15,3.25,9.000000245,2.164934898E-15,3.25,11.,       0000023P0000020
-2.220446049E-15,-3.25,6.749999755,2.164934898E-15,3.25,10.75,   0000023P0000021
-2.313805713E-15,-3.5,6.5,2.331468352E-15,3.5,9.25,              0000023P0000022
-2.331468352E-15,-3.5,4.,2.331468352E-15,3.5,9.000000245,        0000023P0000023
-2.164934898E-15,-3.25,4.,-2.331468352E-15,-3.5,6.749999755,     0000023P0000024
-2.164934898E-15,-3.25,6.5,-2.331468352E-15,-3.5;                0000023P0000025
100,0.,0.,0.,9.25,1.972152263E-31,9.25,1.972152263E-31;          0000025P0000026
124,1.,8.401687754E-17,-5.473822126E-48,0.,8.401687754E-17,-1.,  0000027P0000027
-4.440892099E-16,1.554312234E-15,-3.731098876E-32,               0000027P0000028
4.440892099E-16,-1.,3.5;                                         0000027P0000029
110,10.75,2.313805713E-15,3.5,11.,2.220446049E-15,3.25;          0000029P0000030
100,0.,0.,0.,11.,1.972152263E-31,11.,1.972152263E-31;            0000031P0000031
124,1.,7.065055611E-17,0.,0.,7.065055611E-17,-1.,                0000033P0000032
-4.440892099E-16,1.443289932E-15,-3.137514964E-32,               0000033P0000033
4.440892099E-16,-1.,3.25;                                        0000033P0000034
110,9.000000245,2.164934898E-15,3.25,9.25,2.331468352E-15,3.5;   0000035P0000035
100,0.,0.,0.,9.000000245,-1.972152263E-31,9.000000245,           0000037P0000036
-1.972152263E-31;                                                0000037P0000037
124,1.,8.018277182E-17,0.,0.,8.018277182E-17,-1.,                0000039P0000038
-4.440892099E-16,1.443289932E-15,-3.560830378E-32,               0000039P0000039
4.440892099E-16,-1.,3.25;                                        0000039P0000040
110,11.,-2.164934898E-15,-3.25,11.,2.164934898E-15,3.25;         0000041P0000041
100,0.,0.,0.,11.,-1.972152263E-31,11.,-1.972152263E-31;          0000043P0000042
124,1.,-7.065055611E-17,5.473822126E-48,0.,-7.065055611E-17,-1., 0000045P0000043
-4.440892099E-16,-1.443289932E-15,3.137514964E-32,               0000045P0000044
4.440892099E-16,-1.,-3.25;                                       0000045P0000045
100,0.,0.,0.,6.749999755,1.972152263E-31,6.749999755,            0000047P0000046
1.972152263E-31;                                                 0000047P0000047
124,1.,1.069103692E-16,-5.473822126E-48,0.,1.069103692E-16,-1.,  0000049P0000048
-4.440892099E-16,1.443289932E-15,-4.747774139E-32,               0000049P0000049
4.440892099E-16,-1.,3.25;                                        0000049P0000050
110,11.,-2.220446049E-15,-3.25,10.75,-2.313805713E-15,-3.5;      0000051P0000051
100,0.,0.,0.,10.75,1.972152263E-31,10.75,1.972152263E-31;        0000053P0000052
124,1.,-7.065055611E-17,5.473822126E-48,0.,-7.065055611E-17,-1., 0000055P0000053
-4.440892099E-16,-1.554312234E-15,3.137514964E-32,               0000055P0000054
4.440892099E-16,-1.,-3.5;                                        0000055P0000055
100,0.,0.,0.,6.5,1.972152263E-31,6.5,1.972152263E-31;            0000057P0000056
124,1.,1.195624796E-16,-1.094764425E-47,0.,1.195624796E-16,-1.,  0000059P0000057
-4.440892099E-16,1.554312234E-15,-5.309640708E-32,               0000059P0000058
4.440892099E-16,-1.,3.5;                                         0000059P0000059
110,6.5,2.331468352E-15,3.5,6.749999755,2.164934898E-15,3.25;    0000061P0000060
100,0.,0.,0.,9.25,-1.972152263E-31,9.25,-1.972152263E-31;        0000063P0000061
124,1.,-8.401687754E-17,5.473822126E-48,0.,-8.401687754E-17,-1., 0000065P0000062
-4.440892099E-16,-1.554312234E-15,3.731098876E-32,               0000065P0000063
4.440892099E-16,-1.,-3.5;                                        0000065P0000064
100,0.,0.,0.,4.,1.972152263E-31,4.,1.972152263E-31;              0000067P0000065
124,1.,1.942890293E-16,-1.094764425E-47,0.,1.942890293E-16,-1.,  0000069P0000066
-4.440892099E-16,1.554312234E-15,-8.628166151E-32,               0000069P0000067
4.440892099E-16,-1.,3.5;                                         0000069P0000068
100,0.,0.,0.,9.000000245,1.972152263E-31,9.000000245,            0000071P0000069
1.972152263E-31;                                                 0000071P0000070
124,1.,-8.018277182E-17,5.473822126E-48,0.,-8.018277182E-17,-1., 0000073P0000071
-4.440892099E-16,-1.443289932E-15,3.560830378E-32,               0000073P0000072
4.440892099E-16,-1.,-3.25;                                       0000073P0000073
110,9.000000245,-2.164934898E-15,-3.25,9.25,-2.331468352E-15,    0000075P0000074
-3.5;                                                            0000075P0000075
110,4.,2.331468352E-15,3.5,4.,-2.331468352E-15,-3.5;             0000077P0000076
100,0.,0.,0.,4.,-1.972152263E-31,4.,-1.972152263E-31;            0000079P0000077
124,1.,-1.942890293E-16,1.094764425E-47,0.,-1.942890293E-16,-1., 0000081P0000078
-4.440892099E-16,-1.554312234E-15,8.628166151E-32,               0000081P0000079
4.440892099E-16,-1.,-3.5;                                        0000081P0000080
100,0.,0.,0.,6.749999755,-1.972152263E-31,6.749999755,           0000083P0000081
-1.972152263E-31;                                                0000083P0000082
124,1.,-1.069103692E-16,5.473822126E-48,0.,-1.069103692E-16,-1., 0000085P0000083
-4.440892099E-16,-1.443289932E-15,4.747774139E-32,               0000085P0000084
4.440892099E-16,-1.,-3.25;                                       0000085P0000085
100,0.,0.,0.,6.5,-1.972152263E-31,6.5,-1.972152263E-31;          0000087P0000086
124,1.,-1.195624796E-16,1.094764425E-47,0.,-1.195624796E-16,-1., 0000089P0000087
-4.440892099E-16,-1.554312234E-15,5.309640708E-32,               0000089P0000088
4.440892099E-16,-1.,-3.5;                                        0000089P0000089
110,6.5,-2.331468352E-15,-3.5,6.749999755,-2.164934898E-15,      0000091P0000090
-3.25;                                                           0000091P0000091
508,1,0,17,2,0,0;                                                0000093P0000092
510,97,1,1,105;                                                  0000095P0000093
194,99,101,11.,45.,103;                                          0000097P0000094
116,0.,1.443289932E-15,3.25,0;                                   0000099P0000095
123,0.,-4.440892099E-16,-1.;                                     0000101P0000096
123,1.,7.065055611E-17,-3.137514964E-32;                         0000103P0000097
508,4,0,17,3,0,1,0,107,0,17,1,1,1,0,109,0,17,3,1,1,0,111,0,17,4, 0000105P0000098
0,1,0,113;                                                       0000105P0000099
126,1,1,1,0,1,0,-0.353553391,-0.353553391,0.,0.,1.,1.,0.,0.,0.,  0000107P0000100
0.,-0.353553391,-0.,-0.353553391,0.,0.,0.,1.;                    0000107P0000101
110,0.,-0.353553391,0.,360.,-0.353553391,0.;                     0000109P0000102
126,1,1,1,0,1,0,-0.353553391,-0.353553391,0.,0.,1.,1.,360.,      0000111P0000103
-0.353553391,-0.,360.,0.,0.,-0.353553391,0.,0.,0.,1.;            0000111P0000104
110,360.,0.,0.,0.,0.,0.;                                         0000113P0000105
510,117,1,1,125;                                                 0000115P0000106
194,119,121,9.000000245,44.999971914,123;                        0000117P0000107
116,0.,1.443289932E-15,3.25,0;                                   0000119P0000108
123,0.,4.440892099E-16,1.;                                       0000121P0000109
123,1.,8.018277182E-17,-3.560830378E-32;                         0000123P0000110
508,4,0,17,5,1,1,0,127,0,17,2,1,1,0,129,0,17,5,0,1,0,131,0,17,6, 0000125P0000111
0,1,0,133;                                                       0000125P0000112
110,360.,0.,0.,360.,0.353553217,0.;                              0000127P0000113
110,360.,0.353553217,0.,0.,0.353553217,0.;                       0000129P0000114
110,-2.37142157E-11,0.353553217,0.,-2.37142157E-11,0.,0.;        0000131P0000115
110,0.,0.,0.,360.,0.,0.;                                         0000133P0000116
510,137,1,1,145;                                                 0000135P0000117
192,139,141,11.,143;                                             0000137P0000118
116,0.,-1.554312234E-15,-3.5,0;                                  0000139P0000119
123,0.,4.440892099E-16,1.;                                       0000141P0000120
123,1.,-7.065055611E-17,3.137514964E-32;                         0000143P0000121
508,4,0,17,4,1,1,0,147,0,17,7,0,1,0,149,0,17,8,0,1,0,151,0,17,7, 0000145P0000122
1,1,0,153;                                                       0000145P0000123
110,360.,6.75,0.,0.,6.75,0.;                                     0000147P0000124
110,0.,6.75,0.,0.,0.25,0.;                                       0000149P0000125
110,0.,0.25,0.,360.,0.25,0.;                                     0000151P0000126
110,360.,0.25,0.,360.,6.75,0.;                                   0000153P0000127
510,157,2,1,165,167;                                             0000155P0000128
190,159,161,163;                                                 0000157P0000129
116,0.,1.443289932E-15,3.25,0;                                   0000159P0000130
123,0.,-4.440892099E-16,-1.;                                     0000161P0000131
123,1.,1.069103692E-16,-4.747774139E-32;                         0000163P0000132
508,1,0,17,6,1,0;                                                0000165P0000133
508,1,0,17,9,0,0;                                                0000167P0000134
510,171,1,1,179;                                                 0000169P0000135
194,173,175,11.,45.,177;                                         0000171P0000136
116,0.,-1.443289932E-15,-3.25,0;                                 0000173P0000137
123,0.,4.440892099E-16,1.;                                       0000175P0000138
123,1.,-7.065055611E-17,3.137514964E-32;                         0000177P0000139
508,4,0,17,10,0,1,0,181,0,17,8,1,1,0,183,0,17,10,1,1,0,185,0,17, 0000179P0000140
11,0,1,0,187;                                                    0000179P0000141
126,1,1,1,0,1,0,0.,0.,0.353553391,0.353553391,1.,1.,360.,        0000181P0000142
-0.353553391,-0.,360.,0.,0.,0.,0.353553391,0.,0.,1.;             0000181P0000143
110,360.,0.,0.,0.,0.,0.;                                         0000183P0000144
126,1,1,1,0,1,0,0.,0.,0.353553391,0.353553391,1.,1.,             0000185P0000145
-2.37142157E-11,0.,0.,-2.37142157E-11,-0.353553391,0.,0.,        0000185P0000146
0.353553391,0.,0.,1.;                                            0000185P0000147
110,0.,-0.353553391,0.,360.,-0.353553391,0.;                     0000187P0000148
510,191,1,1,199;                                                 0000189P0000149
194,193,195,6.5,44.999971914,197;                                0000191P0000150
116,0.,1.554312234E-15,3.5,0;                                    0000193P0000151
123,0.,-4.440892099E-16,-1.;                                     0000195P0000152
123,1.,1.195624796E-16,-5.309640708E-32;                         0000197P0000153
508,4,0,17,12,1,1,0,201,0,17,13,1,1,0,203,0,17,9,0,1,0,205,0,17, 0000199P0000154
13,0,1,0,207;                                                    0000199P0000155
110,0.,0.,0.,360.,0.,0.;                                         0000201P0000156
110,360.,0.,0.,360.,0.353553217,0.;                              0000203P0000157
110,360.,0.353553217,0.,0.,0.353553217,0.;                       0000205P0000158
110,2.37142157E-11,0.353553217,0.,2.37142157E-11,0.,0.;          0000207P0000159
510,211,2,1,219,221;                                             0000209P0000160
190,213,215,217;                                                 0000211P0000161
116,0.,-1.554312234E-15,-3.5,0;                                  0000213P0000162
123,0.,4.440892099E-16,1.;                                       0000215P0000163
123,-1.,8.401687754E-17,-3.731098876E-32;                        0000217P0000164
508,1,0,17,11,0,0;                                               0000219P0000165
508,1,0,17,14,1,0;                                               0000221P0000166
510,225,2,1,233,235;                                             0000223P0000167
190,227,229,231;                                                 0000225P0000168
116,0.,1.554312234E-15,3.5,0;                                    0000227P0000169
123,0.,4.440892099E-16,1.;                                       0000229P0000170
123,-1.,-1.195624796E-16,5.309640708E-32;                        0000231P0000171
508,1,0,17,12,0,0;                                               0000233P0000172
508,1,0,17,15,1,0;                                               0000235P0000173
510,239,1,1,247;                                                 0000237P0000174
194,241,243,9.000000245,44.999971914,245;                        0000239P0000175
116,0.,-1.443289932E-15,-3.25,0;                                 0000241P0000176
123,0.,-4.440892099E-16,-1.;                                     0000243P0000177
123,1.,-8.018277182E-17,3.560830378E-32;                         0000245P0000178
508,4,0,17,16,1,1,0,249,0,17,17,1,1,0,251,0,17,14,0,1,0,253,0,   0000247P0000179
17,17,0,1,0,255;                                                 0000247P0000180
110,0.,0.,0.,360.,0.,0.;                                         0000249P0000181
110,360.,0.,0.,360.,0.353553217,0.;                              0000251P0000182
110,360.,0.353553217,0.,0.,0.353553217,0.;                       0000253P0000183
110,2.37142157E-11,0.353553217,0.,2.37142157E-11,0.,0.;          0000255P0000184
510,259,1,1,267;                                                 0000257P0000185
192,261,263,4.,265;                                              0000259P0000186
116,0.,1.554312234E-15,3.5,0;                                    0000261P0000187
123,0.,-4.440892099E-16,-1.;                                     0000263P0000188
123,1.,1.942890293E-16,-8.628166151E-32;                         0000265P0000189
508,4,0,17,15,1,1,0,269,0,17,18,1,1,0,271,0,17,19,0,1,0,273,0,   0000267P0000190
17,18,0,1,0,275;                                                 0000267P0000191
110,0.,0.,0.,360.,0.,0.;                                         0000269P0000192
110,360.,0.,0.,360.,7.,0.;                                       0000271P0000193
110,360.,7.,0.,0.,7.,0.;                                         0000273P0000194
110,2.37142157E-11,7.,0.,2.37142157E-11,0.,0.;                   0000275P0000195
510,279,2,1,287,289;                                             0000277P0000196
190,281,283,285;                                                 0000279P0000197
116,0.,-1.443289932E-15,-3.25,0;                                 0000281P0000198
123,0.,-4.440892099E-16,-1.;                                     0000283P0000199
123,1.,-1.069103692E-16,4.747774139E-32;                         0000285P0000200
508,1,0,17,16,1,0;                                               0000287P0000201
508,1,0,17,20,0,0;                                               0000289P0000202
510,293,2,1,301,303;                                             0000291P0000203
190,295,297,299;                                                 0000293P0000204
116,0.,-1.554312234E-15,-3.5,0;                                  0000295P0000205
123,0.,-4.440892099E-16,-1.;                                     0000297P0000206
123,1.,-1.942890293E-16,8.628166151E-32;                         0000299P0000207
508,1,0,17,21,1,0;                                               0000301P0000208
508,1,0,17,19,0,0;                                               0000303P0000209
510,307,1,1,315;                                                 0000305P0000210
194,309,311,6.5,44.999971914,313;                                0000307P0000211
116,0.,-1.554312234E-15,-3.5,0;                                  0000309P0000212
123,0.,4.440892099E-16,1.;                                       0000311P0000213
123,1.,-1.195624796E-16,5.309640708E-32;                         0000313P0000214
508,4,0,17,22,1,1,0,317,0,17,20,1,1,0,319,0,17,22,0,1,0,321,0,   0000315P0000215
17,21,0,1,0,323;                                                 0000315P0000216
110,360.,0.,0.,360.,0.353553217,0.;                              0000317P0000217
110,360.,0.353553217,0.,0.,0.353553217,0.;                       0000319P0000218
110,-2.37142157E-11,0.353553217,0.,-2.37142157E-11,0.,0.;        0000321P0000219
110,0.,0.,0.,360.,0.,0.;                                         0000323P0000220
S      1G      4D    324P    220                                        T0000001
