                                                                        S0000001
,,31HOpen CASCADE IGES processor 7.9,13HFilename.iges,                  G0000001
16HOpen CASCADE 7.9,31HOpen CASCADE IGES processor 7.9,32,308,15,308,15,G0000002
,1.,2,2HMM,1,0.01,15H20261004.214557,1E-07,7.973442,7Hjiayuxu,,11,0,    G0000003
15H20261004.214557,;                                                    G0000004
     186       1       0       0       0       0       0       000000000D0000001
     186       0       0       1       0                               0D0000002
     514       2       0       0       0       0       0       000010000D0000003
     514       0       0       2       1                               0D0000004
     510       4       0       0       0       0       0       000010000D0000005
     510       0       0       1       1                               0D0000006
     190       5       0       0       0       0       0       000010000D0000007
     190       0       0       1       1                               0D0000008
     116       6       0       0       0       0       0       000010400D0000009
     116       0       0       1       0                               0D0000010
     123       7       0       0       0       0       0       000010200D0000011
     123       0       0       1       0                               0D0000012
     123       8       0       0       0       0       0       000010200D0000013
     123       0       0       1       0                               0D0000014
     508       9       0       0       0       0       0       000010000D0000015
     508       0       0       1       1                               0D0000016
     504      10       0       0       0       0       0       000010001D0000017
     504       0       0       9       1                               0D0000018
     110      19       0       0       0       0       0       000010000D0000019
     110       0       0       2       0                               0D0000020
     502      21       0       0       0       0       0       000010000D0000021
     502       0       0      17       1                               0D0000022
     110      38       0       0       0       0       0       000010000D0000023
     110       0       0       2       0                               0D0000024
     110      40       0       0       0       0       0       000010000D0000025
     110       0       0       2       0                               0D0000026
     110      42       0       0       0       0       0       000010000D0000027
     110       0       0       2       0                               0D0000028
     100      44       0       0       0       0      31       000010000D0000029
     100       0       0       1       0                               0D0000030
     124      45       0       0       0       0       0       000000000D0000031
     124       0       0       4       0                               0D0000032
     110      49       0       0       0       0       0       000010000D0000033
     110       0       0       2       0                               0D0000034
     100      51       0       0       0       0      37       000010000D0000035
     100       0       0       1       0                               0D0000036
     124      52       0       0       0       0       0       000000000D0000037
     124       0       0       3       0                               0D0000038
     100      55       0       0       0       0      41       000010000D0000039
     100       0       0       1       0                               0D0000040
     124      56       0       0       0       0       0       000000000D0000041
     124       0       0       3       0                               0D0000042
     110      59       0       0       0       0       0       000010000D0000043
     110       0       0       2       0                               0D0000044
     100      61       0       0       0       0      47       000010000D0000045
     100       0       0       1       0                               0D0000046
     124      62       0       0       0       0       0       000000000D0000047
     124       0       0       3       0                               0D0000048
     110      65       0       0       0       0       0       000010000D0000049
     110       0       0       2       0                               0D0000050
     100      67       0       0       0       0      53       000010000D0000051
     100       0       0       1       0                               0D0000052
     124      68       0       0       0       0       0       000000000D0000053
     124       0       0       3       0                               0D0000054
     100      71       0       0       0       0      57       000010000D0000055
     100       0       0       1       0                               0D0000056
     124      72       0       0       0       0       0       000000000D0000057
     124       0       0       3       0                               0D0000058
     100      75       0       0       0       0      61       000010000D0000059
     100       0       0       1       0                               0D0000060
     124      76       0       0       0       0       0       000000000D0000061
     124       0       0       3       0                               0D0000062
     100      79       0       0       0       0      65       000010000D0000063
     100       0       0       1       0                               0D0000064
     124      80       0       0       0       0       0       000000000D0000065
     124       0       0       3       0                               0D0000066
     100      83       0       0       0       0      69       000010000D0000067
     100       0       0       1       0                               0D0000068
     124      84       0       0       0       0       0       000000000D0000069
     124       0       0       3       0                               0D0000070
     110      87       0       0       0       0       0       000010000D0000071
     110       0       0       2       0                               0D0000072
     110      89       0       0       0       0       0       000010000D0000073
     110       0       0       2       0                               0D0000074
     100      91       0       0       0       0      77       000010000D0000075
     100       0       0       1       0                               0D0000076
     124      92       0       0       0       0       0       000000000D0000077
     124       0       0       4       0                               0D0000078
     110      96       0       0       0       0       0       000010000D0000079
     110       0       0       2       0                               0D0000080
     100      98       0       0       0       0      83       000010000D0000081
     100       0       0       1       0                               0D0000082
     124      99       0       0       0       0       0       000000000D0000083
     124       0       0       3       0                               0D0000084
     100     102       0       0       0       0      87       000010000D0000085
     100       0       0       1       0                               0D0000086
     124     103       0       0       0       0       0       000000000D0000087
     124       0       0       4       0                               0D0000088
     110     107       0       0       0       0       0       000010000D0000089
     110       0       0       2       0                               0D0000090
     100     109       0       0       0       0      93       000010000D0000091
     100       0       0       1       0                               0D0000092
     124     110       0       0       0       0       0       000000000D0000093
     124       0       0       4       0                               0D0000094
     110     114       0       0       0       0       0       000010000D0000095
     110       0       0       2       0                               0D0000096
     100     116       0       0       0       0      99       000010000D0000097
     100       0       0       1       0                               0D0000098
     124     117       0       0       0       0       0       000000000D0000099
     124       0       0       4       0                               0D0000100
     100     121       0       0       0       0     103       000010000D0000101
     100       0       0       1       0                               0D0000102
     124     122       0       0       0       0       0       000000000D0000103
     124       0       0       3       0                               0D0000104
     100     125       0       0       0       0     107       000010000D0000105
     100       0       0       1       0                               0D0000106
     124     126       0       0       0       0       0       000000000D0000107
     124       0       0       3       0                               0D0000108
     110     129       0       0       0       0       0       000010000D0000109
     110       0       0       2       0                               0D0000110
     110     131       0       0       0       0       0       000010000D0000111
     110       0       0       2       0                               0D0000112
     110     133       0       0       0       0       0       000010000D0000113
     110       0       0       2       0                               0D0000114
     110     135       0       0       0       0       0       000010000D0000115
     110       0       0       2       0                               0D0000116
     110     137       0       0       0       0       0       000010000D0000117
     110       0       0       2       0                               0D0000118
     110     139       0       0       0       0       0       000010000D0000119
     110       0       0       2       0                               0D0000120
     110     141       0       0       0       0       0       000010000D0000121
     110       0       0       2       0                               0D0000122
     110     143       0       0       0       0       0       000010000D0000123
     110       0       0       2       0                               0D0000124
     510     145       0       0       0       0       0       000010000D0000125
     510       0       0       1       1                               0D0000126
     190     146       0       0       0       0       0       000010000D0000127
     190       0       0       1       1                               0D0000128
     116     147       0       0       0       0       0       000010400D0000129
     116       0       0       1       0                               0D0000130
     123     148       0       0       0       0       0       000010200D0000131
     123       0       0       1       0                               0D0000132
     123     149       0       0       0       0       0       000010200D0000133
     123       0       0       1       0                               0D0000134
     508     150       0       0       0       0       0       000010000D0000135
     508       0       0       2       1                               0D0000136
     508     152       0       0       0       0       0       000010000D0000137
     508       0       0       1       1                               0D0000138
     508     153       0       0       0       0       0       000010000D0000139
     508       0       0       1       1                               0D0000140
     510     154       0       0       0       0       0       000010000D0000141
     510       0       0       1       1                               0D0000142
     192     155       0       0       0       0       0       000010000D0000143
     192       0       0       1       1                               0D0000144
     116     156       0       0       0       0       0       000010400D0000145
     116       0       0       1       0                               0D0000146
     123     157       0       0       0       0       0       000010200D0000147
     123       0       0       1       0                               0D0000148
     123     158       0       0       0       0       0       000010200D0000149
     123       0       0       1       0                               0D0000150
     508     159       0       0       0       0       0       000010000D0000151
     508       0       0       2       1                               0D0000152
     110     161       0       0       0       0       0       000010000D0000153
     110       0       0       1       0                               0D0000154
     110     162       0       0       0       0       0       000010000D0000155
     110       0       0       1       0                               0D0000156
     110     163       0       0       0       0       0       000010000D0000157
     110       0       0       1       0                               0D0000158
     110     164       0       0       0       0       0       000010000D0000159
     110       0       0       1       0                               0D0000160
     510     165       0       0       0       0       0       000010000D0000161
     510       0       0       1       1                               0D0000162
     192     166       0       0       0       0       0       000010000D0000163
     192       0       0       1       1                               0D0000164
     116     167       0       0       0       0       0       000010400D0000165
     116       0       0       1       0                               0D0000166
     123     168       0       0       0       0       0       000010200D0000167
     123       0       0       1       0                               0D0000168
     123     169       0       0       0       0       0       000010200D0000169
     123       0       0       1       0                               0D0000170
     508     170       0       0       0       0       0       000010000D0000171
     508       0       0       2       1                               0D0000172
     110     172       0       0       0       0       0       000010000D0000173
     110       0       0       1       0                               0D0000174
     110     173       0       0       0       0       0       000010000D0000175
     110       0       0       1       0                               0D0000176
     110     174       0       0       0       0       0       000010000D0000177
     110       0       0       1       0                               0D0000178
     110     175       0       0       0       0       0       000010000D0000179
     110       0       0       1       0                               0D0000180
     510     176       0       0       0       0       0       000010000D0000181
     510       0       0       1       1                               0D0000182
     190     177       0       0       0       0       0       000010000D0000183
     190       0       0       1       1                               0D0000184
     116     178       0       0       0       0       0       000010400D0000185
     116       0       0       1       0                               0D0000186
     123     179       0       0       0       0       0       000010200D0000187
     123       0       0       1       0                               0D0000188
     123     180       0       0       0       0       0       000010200D0000189
     123       0       0       1       0                               0D0000190
     508     181       0       0       0       0       0       000010000D0000191
     508       0       0       2       1                               0D0000192
     508     183       0       0       0       0       0       000010000D0000193
     508       0       0       1       1                               0D0000194
     508     184       0       0       0       0       0       000010000D0000195
     508       0       0       1       1                               0D0000196
     510     185       0       0       0       0       0       000010000D0000197
     510       0       0       1       1                               0D0000198
     192     186       0       0       0       0       0       000010000D0000199
     192       0       0       1       1                               0D0000200
     116     187       0       0       0       0       0       000010400D0000201
     116       0       0       1       0                               0D0000202
     123     188       0       0       0       0       0       000010200D0000203
     123       0       0       1       0                               0D0000204
     123     189       0       0       0       0       0       000010200D0000205
     123       0       0       1       0                               0D0000206
     508     190       0       0       0       0       0       000010000D0000207
     508       0       0       2       1                               0D0000208
     110     192       0       0       0       0       0       000010000D0000209
     110       0       0       1       0                               0D0000210
     110     193       0       0       0       0       0       000010000D0000211
     110       0       0       1       0                               0D0000212
     110     194       0       0       0       0       0       000010000D0000213
     110       0       0       1       0                               0D0000214
     110     195       0       0       0       0       0       000010000D0000215
     110       0       0       1       0                               0D0000216
     510     196       0       0       0       0       0       000010000D0000217
     510       0       0       1       1                               0D0000218
     190     197       0       0       0       0       0       000010000D0000219
     190       0       0       1       1                               0D0000220
     116     198       0       0       0       0       0       000010400D0000221
     116       0       0       1       0                               0D0000222
     123     199       0       0       0       0       0       000010200D0000223
     123       0       0       1       0                               0D0000224
     123     200       0       0       0       0       0       000010200D0000225
     123       0       0       1       0                               0D0000226
     508     201       0       0       0       0       0       000010000D0000227
     508       0       0       1       1                               0D0000228
     510     202       0       0       0       0       0       000010000D0000229
     510       0       0       1       1                               0D0000230
     190     203       0       0       0       0       0       000010000D0000231
     190       0       0       1       1                               0D0000232
     116     204       0       0       0       0       0       000010400D0000233
     116       0       0       1       0                               0D0000234
     123     205       0       0       0       0       0       000010200D0000235
     123       0       0       1       0                               0D0000236
     123     206       0       0       0       0       0       000010200D0000237
     123       0       0       1       0                               0D0000238
     508     207       0       0       0       0       0       000010000D0000239
     508       0       0       1       1                               0D0000240
     510     208       0       0       0       0       0       000010000D0000241
     510       0       0       1       1                               0D0000242
     192     209       0       0       0       0       0       000010000D0000243
     192       0       0       1       1                               0D0000244
     116     210       0       0       0       0       0       000010400D0000245
     116       0       0       1       0                               0D0000246
     123     211       0       0       0       0       0       000010200D0000247
     123       0       0       1       0                               0D0000248
     123     212       0       0       0       0       0       000010200D0000249
     123       0       0       1       0                               0D0000250
     508     213       0       0       0       0       0       000010000D0000251
     508       0       0       2       1                               0D0000252
     110     215       0       0       0       0       0       000010000D0000253
     110       0       0       1       0                               0D0000254
     110     216       0       0       0       0       0       000010000D0000255
     110       0       0       1       0                               0D0000256
     110     217       0       0       0       0       0       000010000D0000257
     110       0       0       1       0                               0D0000258
     110     218       0       0       0       0       0       000010000D0000259
     110       0       0       1       0                               0D0000260
     510     219       0       0       0       0       0       000010000D0000261
     510       0       0       1       1                               0D0000262
     192     220       0       0       0       0       0       000010000D0000263
     192       0       0       1       1                               0D0000264
     116     221       0       0       0       0       0       000010400D0000265
     116       0       0       1       0                               0D0000266
     123     222       0       0       0       0       0       000010200D0000267
     123       0       0       1       0                               0D0000268
     123     223       0       0       0       0       0       000010200D0000269
     123       0       0       1       0                               0D0000270
     508     224       0       0       0       0       0       000010000D0000271
     508       0       0       2       1                               0D0000272
     110     226       0       0       0       0       0       000010000D0000273
     110       0       0       1       0                               0D0000274
     110     227       0       0       0       0       0       000010000D0000275
     110       0       0       1       0                               0D0000276
     110     228       0       0       0       0       0       000010000D0000277
     110       0       0       1       0                               0D0000278
     110     229       0       0       0       0       0       000010000D0000279
     110       0       0       1       0                               0D0000280
     510     230       0       0       0       0       0       000010000D0000281
     510       0       0       1       1                               0D0000282
     192     231       0       0       0       0       0       000010000D0000283
     192       0       0       1       1                               0D0000284
     116     232       0       0       0       0       0       000010400D0000285
     116       0       0       1       0                               0D0000286
     123     233       0       0       0       0       0       000010200D0000287
     123       0       0       1       0                               0D0000288
     123     234       0       0       0       0       0       000010200D0000289
     123       0       0       1       0                               0D0000290
     508     235       0       0       0       0       0       000010000D0000291
     508       0       0       2       1                               0D0000292
     110     237       0       0       0       0       0       000010000D0000293
     110       0       0       1       0                               0D0000294
     110     238       0       0       0       0       0       000010000D0000295
     110       0       0       1       0                               0D0000296
     110     239       0       0       0       0       0       000010000D0000297
     110       0       0       1       0                               0D0000298
     110     240       0       0       0       0       0       000010000D0000299
     110       0       0       1       0                               0D0000300
     510     241       0       0       0       0       0       000010000D0000301
     510       0       0       1       1                               0D0000302
     190     242       0       0       0       0       0       000010000D0000303
     190       0       0       1       1                               0D0000304
     116     243       0       0       0       0       0       000010400D0000305
     116       0       0       1       0                               0D0000306
     123     244       0       0       0       0       0       000010200D0000307
     123       0       0       1       0                               0D0000308
     123     245       0       0       0       0       0       000010200D0000309
     123       0       0       1       0                               0D0000310
     508     246       0       0       0       0       0       000010000D0000311
     508       0       0       1       1                               0D0000312
     510     247       0       0       0       0       0       000010000D0000313
     510       0       0       1       1                               0D0000314
     192     248       0       0       0       0       0       000010000D0000315
     192       0       0       1       1                               0D0000316
     116     249       0       0       0       0       0       000010400D0000317
     116       0       0       1       0                               0D0000318
     123     250       0       0       0       0       0       000010200D0000319
     123       0       0       1       0                               0D0000320
     123     251       0       0       0       0       0       000010200D0000321
     123       0       0       1       0                               0D0000322
     508     252       0       0       0       0       0       000010000D0000323
     508       0       0       2       1                               0D0000324
     110     254       0       0       0       0       0       000010000D0000325
     110       0       0       1       0                               0D0000326
     110     255       0       0       0       0       0       000010000D0000327
     110       0       0       1       0                               0D0000328
     110     256       0       0       0       0       0       000010000D0000329
     110       0       0       1       0                               0D0000330
     110     257       0       0       0       0       0       000010000D0000331
     110       0       0       1       0                               0D0000332
     510     258       0       0       0       0       0       000010000D0000333
     510       0       0       1       1                               0D0000334
     192     259       0       0       0       0       0       000010000D0000335
     192       0       0       1       1                               0D0000336
     116     260       0       0       0       0       0       000010400D0000337
     116       0       0       1       0                               0D0000338
     123     261       0       0       0       0       0       000010200D0000339
     123       0       0       1       0                               0D0000340
     123     262       0       0       0       0       0       000010200D0000341
     123       0       0       1       0                               0D0000342
     508     263       0       0       0       0       0       000010000D0000343
     508       0       0       2       1                               0D0000344
     110     265       0       0       0       0       0       000010000D0000345
     110       0       0       1       0                               0D0000346
     110     266       0       0       0       0       0       000010000D0000347
     110       0       0       1       0                               0D0000348
     110     267       0       0       0       0       0       000010000D0000349
     110       0       0       1       0                               0D0000350
     110     268       0       0       0       0       0       000010000D0000351
     110       0       0       1       0                               0D0000352
186,3,1,0;                                                       0000001P0000001
514,14,5,1,125,0,141,1,161,1,181,1,197,1,217,0,229,0,241,1,261,  0000003P0000002
0,281,1,301,1,313,0,333,0;                                       0000003P0000003
510,7,1,1,15;                                                    0000005P0000004
190,9,11,13;                                                     0000007P0000005
116,-4.072780353,-4.386082832E-02,-4.182182341,0;                0000009P0000006
123,-0.999819535,-1.186070263E-02,-1.483983356E-02;              0000011P0000007
123,1.482596228E-02,1.256592305E-03,-0.9998893;                  0000013P0000008
508,4,0,17,1,0,0,0,17,2,1,0,0,17,3,1,0,0,17,4,0,0;               0000015P0000009
504,36,19,21,1,21,2,23,21,1,21,3,25,21,3,21,4,27,21,2,21,4,29,   0000017P0000010
21,1,21,5,33,21,5,21,6,35,21,7,21,6,39,21,7,21,8,43,21,9,21,8,   0000017P0000011
45,21,10,21,9,49,21,10,21,11,51,21,11,21,12,55,21,2,21,12,59,21, 0000017P0000012
13,21,13,63,21,14,21,14,67,21,4,21,15,71,21,12,21,15,73,21,5,21, 0000017P0000013
16,75,21,3,21,16,79,21,16,21,17,81,21,18,21,17,85,21,18,21,19,   0000017P0000014
89,21,20,21,19,91,21,21,21,20,95,21,21,21,22,97,21,22,21,15,101, 0000017P0000015
21,23,21,23,105,21,24,21,24,109,21,11,21,22,111,21,6,21,17,113,  0000017P0000016
21,10,21,21,115,21,7,21,18,117,21,9,21,20,119,21,8,21,19,121,21, 0000017P0000017
13,21,23,123,21,14,21,24;                                        0000017P0000018
110,-4.072780353,-4.386082832E-02,-4.182182341,-4.045784739,     0000019P0000019
-4.157278257E-02,-6.002814586;                                   0000019P0000020
502,24,-4.072780353,-4.386082832E-02,-4.182182341,-4.045784739,  0000021P0000021
-4.157278257E-02,-6.002814586,-4.08465839,0.956068042,           0000021P0000022
-4.181101822,-4.057662777,0.958356087,-6.001734067,4.194984277,  0000021P0000023
5.421836924E-02,-4.059467944,4.22197989,5.6506415E-02,           0000021P0000024
-5.88010019,3.350462261,4.764967513E-02,-7.264443003,            0000021P0000025
0.936881513,1.971436197E-02,-7.944926958,0.886734771,            0000021P0000026
1.546411442E-02,-4.562941386,-0.751059354,-3.964780897E-03,      0000021P0000027
-4.587250366,-0.700912612,2.854666529E-04,-7.969235938,          0000021P0000028
-3.133606691,-2.926981983E-02,-7.360682875,2.595176295,          0000021P0000029
3.775677696E-02,-6.4121864,-2.403921381,-2.154673622E-02,        0000021P0000030
-6.486385567,-3.145484728,0.97065905,-7.359602356,4.18310624,    0000021P0000031
1.054147239,-4.058387425,4.210101853,1.056435285,-5.87901967,    0000021P0000032
3.338584224,1.047578545,-7.263362484,0.925003475,1.019643232,    0000021P0000033
-7.943846439,0.874856734,1.015392984,-4.561860867,-0.762937391,  0000021P0000034
0.995964089,-4.586169846,-0.712790649,1.000214336,-7.968155418,  0000021P0000035
2.583298258,1.037685647,-6.41110588,-2.415799419,0.978382134,    0000021P0000036
-6.485305048;                                                    0000021P0000037
110,-4.072780353,-4.386082832E-02,-4.182182341,-4.08465839,      0000023P0000038
0.956068042,-4.181101822;                                        0000023P0000039
110,-4.08465839,0.956068042,-4.181101822,-4.057662777,           0000025P0000040
0.958356087,-6.001734067;                                        0000025P0000041
110,-4.045784739,-4.157278257E-02,-6.002814586,-4.057662777,     0000027P0000042
0.958356087,-6.001734067;                                        0000027P0000043
100,0.,0.,0.,4.551554369,4.13462847,4.551554369,-4.134628469;    0000029P0000044
124,1.482596228E-02,-0.999819535,-1.187803727E-02,               0000031P0000045
-6.379211268E-03,1.256592305E-03,-1.186070263E-02,0.99992887,    0000031P0000046
-5.40677741E-04,-0.9998893,-1.483983356E-02,1.080519205E-03,     0000031P0000047
0.430225369;                                                     0000031P0000048
110,4.194984277,5.421836924E-02,-4.059467944,4.22197989,         0000033P0000049
5.6506415E-02,-5.88010019;                                       0000033P0000050
100,0.,0.,0.,-1.37125735,-0.607991185,-8.650857808E-13,-1.5;     0000035P0000051
124,-1.482596228E-02,-0.999819535,1.187803727E-02,2.722250587,   0000037P0000052
-1.256592305E-03,-1.186070263E-02,-0.99992887,3.871536104E-02,   0000037P0000053
0.9998893,-1.483983356E-02,-1.080519205E-03,-5.90235994;         0000037P0000054
100,0.,0.,0.,7.313372531,-3.242619655,7.957962396,-0.819044871;  0000039P0000055
124,1.482596228E-02,-0.999819535,-1.187803727E-02,0.,            0000041P0000056
1.256592305E-03,-1.186070263E-02,0.99992887,0.,-0.9998893,       0000041P0000057
-1.483983356E-02,1.080519205E-03,0.;                             0000041P0000058
110,0.886734771,1.546411442E-02,-4.562941386,0.936881513,        0000043P0000059
1.971436197E-02,-7.944926958;                                    0000043P0000060
100,0.,0.,0.,4.575602396,0.819044871,4.575602396,-0.819044871;   0000045P0000061
124,1.482596228E-02,-0.999819535,-1.187803727E-02,0.,            0000047P0000062
1.256592305E-03,-1.186070263E-02,0.99992887,0.,-0.9998893,       0000047P0000063
-1.483983356E-02,1.080519205E-03,0.;                             0000047P0000064
110,-0.751059354,-3.964780897E-03,-4.587250366,-0.700912612,     0000049P0000065
2.854666529E-04,-7.969235938;                                    0000049P0000066
100,0.,0.,0.,7.957962396,0.819044871,7.313372531,3.242619655;    0000051P0000067
124,1.482596228E-02,-0.999819535,-1.187803727E-02,0.,            0000053P0000068
1.256592305E-03,-1.186070263E-02,0.99992887,0.,-0.9998893,       0000053P0000069
-1.483983356E-02,1.080519205E-03,0.;                             0000053P0000070
100,0.,0.,0.,-1.341149414E-13,1.5,-1.37125735,0.607991185;       0000055P0000071
124,-1.482596228E-02,-0.999819535,1.187803727E-02,-2.546055436,  0000057P0000072
-1.256592305E-03,-1.186070263E-02,-0.99992887,-2.378172861E-02,  0000057P0000073
0.9998893,-1.483983356E-02,-1.080519205E-03,-5.980554836;        0000057P0000074
100,0.,0.,0.,0.75,0.,0.75,0.;                                    0000059P0000075
124,1.482596228E-02,-0.999819535,-1.187803727E-02,2.584056823,   0000061P0000076
1.256592305E-03,-1.186070263E-02,0.99992887,3.681433273E-02,     0000061P0000077
-0.9998893,-1.483983356E-02,1.080519205E-03,-5.662269425;        0000061P0000078
100,0.,0.,0.,0.75,-4.440892099E-16,0.75,-4.440892099E-16;        0000063P0000079
124,1.482596228E-02,-0.999819535,-1.187803727E-02,-2.415040853,  0000065P0000080
1.256592305E-03,-1.186070263E-02,0.99992887,-2.248918045E-02,    0000065P0000081
-0.9998893,-1.483983356E-02,1.080519205E-03,-5.736468593;        0000065P0000082
100,0.,0.,0.,-1.358912982E-13,1.5,-1.37125735,0.607991185;       0000067P0000083
124,-1.482596228E-02,-0.999819535,1.187803727E-02,-2.557933474,  0000069P0000084
-1.256592305E-03,-1.186070263E-02,-0.99992887,0.976147141,       0000069P0000085
0.9998893,-1.483983356E-02,-1.080519205E-03,-5.979474317;        0000069P0000086
110,-3.133606691,-2.926981983E-02,-7.360682875,-3.145484728,     0000071P0000087
0.97065905,-7.359602356;                                         0000071P0000088
110,4.194984277,5.421836924E-02,-4.059467944,4.18310624,         0000073P0000089
1.054147239,-4.058387425;                                        0000073P0000090
100,0.,0.,0.,4.551554369,4.13462847,4.551554369,-4.134628469;    0000075P0000091
124,1.482596228E-02,-0.999819535,-1.187803727E-02,               0000077P0000092
-1.825724854E-02,1.256592305E-03,-1.186070263E-02,0.99992887,    0000077P0000093
0.999388192,-0.9998893,-1.483983356E-02,1.080519205E-03,         0000077P0000094
0.431305888;                                                     0000077P0000095
110,4.18310624,1.054147239,-4.058387425,4.210101853,1.056435285, 0000079P0000096
-5.87901967;                                                     0000079P0000097
100,0.,0.,0.,-1.37125735,-0.607991185,-8.659739592E-13,-1.5;     0000081P0000098
124,-1.482596228E-02,-0.999819535,1.187803727E-02,2.71037255,    0000083P0000099
-1.256592305E-03,-1.186070263E-02,-0.99992887,1.038644231,       0000083P0000100
0.9998893,-1.483983356E-02,-1.080519205E-03,-5.901279421;        0000083P0000101
100,0.,0.,0.,7.313372531,-3.242619655,7.957962396,-0.819044871;  0000085P0000102
124,1.482596228E-02,-0.999819535,-1.187803727E-02,               0000087P0000103
-1.187803727E-02,1.256592305E-03,-1.186070263E-02,0.99992887,    0000087P0000104
0.99992887,-0.9998893,-1.483983356E-02,1.080519205E-03,          0000087P0000105
1.080519205E-03;                                                 0000087P0000106
110,0.874856734,1.015392984,-4.561860867,0.925003475,            0000089P0000107
1.019643232,-7.943846439;                                        0000089P0000108
100,0.,0.,0.,4.575602396,0.819044871,4.575602396,-0.819044871;   0000091P0000109
124,1.482596228E-02,-0.999819535,-1.187803727E-02,               0000093P0000110
-1.187803727E-02,1.256592305E-03,-1.186070263E-02,0.99992887,    0000093P0000111
0.99992887,-0.9998893,-1.483983356E-02,1.080519205E-03,          0000093P0000112
1.080519205E-03;                                                 0000093P0000113
110,-0.762937391,0.995964089,-4.586169846,-0.712790649,          0000095P0000114
1.000214336,-7.968155418;                                        0000095P0000115
100,0.,0.,0.,7.957962396,0.819044871,7.313372531,3.242619655;    0000097P0000116
124,1.482596228E-02,-0.999819535,-1.187803727E-02,               0000099P0000117
-1.187803727E-02,1.256592305E-03,-1.186070263E-02,0.99992887,    0000099P0000118
0.99992887,-0.9998893,-1.483983356E-02,1.080519205E-03,          0000099P0000119
1.080519205E-03;                                                 0000099P0000120
100,0.,0.,0.,0.75,0.,0.75,0.;                                    0000101P0000121
124,1.482596228E-02,-0.999819535,-1.187803727E-02,2.572178786,   0000103P0000122
1.256592305E-03,-1.186070263E-02,0.99992887,1.036743203,         0000103P0000123
-0.9998893,-1.483983356E-02,1.080519205E-03,-5.661188906;        0000103P0000124
100,0.,0.,0.,0.75,-4.440892099E-16,0.75,-4.440892099E-16;        0000105P0000125
124,1.482596228E-02,-0.999819535,-1.187803727E-02,-2.42691889,   0000107P0000126
1.256592305E-03,-1.186070263E-02,0.99992887,0.977439689,         0000107P0000127
-0.9998893,-1.483983356E-02,1.080519205E-03,-5.735388073;        0000107P0000128
110,-0.700912612,2.854666529E-04,-7.969235938,-0.712790649,      0000109P0000129
1.000214336,-7.968155418;                                        0000109P0000130
110,4.22197989,5.6506415E-02,-5.88010019,4.210101853,            0000111P0000131
1.056435285,-5.87901967;                                         0000111P0000132
110,-0.751059354,-3.964780897E-03,-4.587250366,-0.762937391,     0000113P0000133
0.995964089,-4.586169846;                                        0000113P0000134
110,3.350462261,4.764967513E-02,-7.264443003,3.338584224,        0000115P0000135
1.047578545,-7.263362484;                                        0000115P0000136
110,0.886734771,1.546411442E-02,-4.562941386,0.874856734,        0000117P0000137
1.015392984,-4.561860867;                                        0000117P0000138
110,0.936881513,1.971436197E-02,-7.944926958,0.925003475,        0000119P0000139
1.019643232,-7.943846439;                                        0000119P0000140
110,2.595176295,3.775677696E-02,-6.4121864,2.583298258,          0000121P0000141
1.037685647,-6.41110588;                                         0000121P0000142
110,-2.403921381,-2.154673622E-02,-6.486385567,-2.415799419,     0000123P0000143
0.978382134,-6.485305048;                                        0000123P0000144
510,127,3,1,135,137,139;                                         0000125P0000145
190,129,131,133;                                                 0000127P0000146
116,-4.072780353,-4.386082832E-02,-4.182182341,0;                0000129P0000147
123,-1.187803727E-02,0.99992887,1.080519205E-03;                 0000131P0000148
123,-0.999819535,-1.186070263E-02,-1.483983356E-02;              0000133P0000149
508,10,0,17,1,0,0,0,17,5,1,0,0,17,6,1,0,0,17,7,0,0,0,17,8,1,0,0, 0000135P0000150
17,9,0,0,0,17,10,0,0,0,17,11,1,0,0,17,12,1,0,0,17,13,0,0;        0000135P0000151
508,1,0,17,14,0,0;                                               0000137P0000152
508,1,0,17,15,0,0;                                               0000139P0000153
510,143,1,1,151;                                                 0000141P0000154
192,145,147,1.5,149;                                             0000143P0000155
116,-2.546055436,-2.378172861E-02,-5.980554836,0;                0000145P0000156
123,-1.187803727E-02,0.99992887,1.080519205E-03;                 0000147P0000157
123,-0.999819535,-1.186070263E-02,-1.483983356E-02;              0000149P0000158
508,4,0,17,4,1,1,0,153,0,17,16,1,1,0,155,0,17,17,0,1,0,157,0,17, 0000151P0000159
13,0,1,0,159;                                                    0000151P0000160
110,360.,-1.665334537E-16,0.,360.,1.,0.;                         0000153P0000161
110,360.,1.,0.,293.911648897,1.,0.;                              0000155P0000162
110,293.911648897,1.,0.,293.911648897,0.,0.;                     0000157P0000163
110,293.911648897,-3.561970852E-17,0.,360.,-3.561970852E-17,0.;  0000159P0000164
510,163,1,1,171;                                                 0000161P0000165
192,165,167,6.14913,169;                                         0000163P0000166
116,-6.379211268E-03,-5.40677741E-04,0.430225369,0;              0000165P0000167
123,1.187803727E-02,-0.99992887,-1.080519205E-03;                0000167P0000168
123,1.482596228E-02,1.256592305E-03,-0.9998893;                  0000169P0000169
508,4,0,17,5,1,1,0,173,0,17,18,1,1,0,175,0,17,19,0,1,0,177,0,17, 0000171P0000170
2,0,1,0,179;                                                     0000171P0000171
110,317.748016601,0.,0.,42.251983398,0.,0.;                      0000173P0000172
110,42.251983398,0.,0.,42.251983398,-1.,0.;                      0000175P0000173
110,42.251983398,-1.,0.,317.748016601,-1.,0.;                    0000177P0000174
110,317.748016601,-1.,0.,317.748016601,0.,0.;                    0000179P0000175
510,183,3,1,191,193,195;                                         0000181P0000176
190,185,187,189;                                                 0000183P0000177
116,-4.08465839,0.956068042,-4.181101822,0;                      0000185P0000178
123,-1.187803727E-02,0.99992887,1.080519205E-03;                 0000187P0000179
123,-0.999819535,-1.186070263E-02,-1.483983356E-02;              0000189P0000180
508,10,0,17,3,0,0,0,17,19,1,0,0,17,20,1,0,0,17,21,0,0,0,17,22,1, 0000191P0000181
0,0,17,23,0,0,0,17,24,0,0,0,17,25,1,0,0,17,26,1,0,0,17,16,0,0;   0000191P0000182
508,1,0,17,27,0,0;                                               0000193P0000183
508,1,0,17,28,0,0;                                               0000195P0000184
510,199,1,1,207;                                                 0000197P0000185
192,201,203,8.,205;                                              0000199P0000186
116,0.,0.,0.,0;                                                  0000201P0000187
123,1.187803727E-02,-0.99992887,-1.080519205E-03;                0000203P0000188
123,1.482596228E-02,1.256592305E-03,-0.9998893;                  0000205P0000189
508,4,0,17,17,1,1,0,209,0,17,26,0,1,0,211,0,17,29,0,1,0,213,0,   0000207P0000190
17,12,1,1,0,215;                                                 0000207P0000191
110,336.088351103,9.860761315E-32,0.,336.088351103,-1.,0.;       0000209P0000192
110,336.088351103,-1.,0.,354.123726911,-1.,0.;                   0000211P0000193
110,354.123726911,-1.,-0.,354.123726911,-1.080615264E-15,-0.;    0000213P0000194
110,354.123726911,0.,0.,336.088351103,0.,0.;                     0000215P0000195
510,219,1,1,227;                                                 0000217P0000196
190,221,223,225;                                                 0000219P0000197
116,4.194984277,5.421836924E-02,-4.059467944,0;                  0000221P0000198
123,-0.999819535,-1.186070263E-02,-1.483983356E-02;              0000223P0000199
123,1.482596228E-02,1.256592305E-03,-0.9998893;                  0000225P0000200
508,4,0,17,6,0,0,0,17,18,1,0,0,17,20,1,0,0,17,30,0,0;            0000227P0000201
510,231,1,1,239;                                                 0000229P0000202
190,233,235,237;                                                 0000231P0000203
116,-0.751059354,-3.964780897E-03,-4.587250366,0;                0000233P0000204
123,-0.999819535,-1.186070263E-02,-1.483983356E-02;              0000235P0000205
123,1.482596228E-02,1.256592305E-03,-0.9998893;                  0000237P0000206
508,4,0,17,31,1,0,0,17,25,1,0,0,17,29,0,0,0,17,11,0,0;           0000239P0000207
510,243,1,1,251;                                                 0000241P0000208
192,245,247,1.5,249;                                             0000243P0000209
116,2.722250587,3.871536104E-02,-5.90235994,0;                   0000245P0000210
123,-1.187803727E-02,0.99992887,1.080519205E-03;                 0000247P0000211
123,0.418807783,5.956209391E-03,-0.908055375;                    0000249P0000212
508,4,0,17,32,1,1,0,253,0,17,21,1,1,0,255,0,17,30,0,1,0,257,0,   0000251P0000213
17,7,0,1,0,259;                                                  0000251P0000214
110,360.,0.,0.,360.,1.,0.;                                       0000253P0000215
110,360.,1.,0.,293.911648897,1.,0.;                              0000255P0000216
110,293.911648897,1.,0.,293.911648897,1.665334537E-16,0.;        0000257P0000217
110,293.911648897,-9.860761315E-32,0.,360.,-9.860761315E-32,0.;  0000259P0000218
510,263,1,1,271;                                                 0000261P0000219
192,265,267,4.64833,269;                                         0000263P0000220
116,0.,0.,0.,0;                                                  0000265P0000221
123,1.187803727E-02,-0.99992887,-1.080519205E-03;                0000267P0000222
123,1.482596228E-02,1.256592305E-03,-0.9998893;                  0000269P0000223
508,4,0,17,10,1,1,0,273,0,17,33,1,1,0,275,0,17,24,0,1,0,277,0,   0000271P0000224
17,31,0,1,0,279;                                                 0000271P0000225
110,349.851387483,0.,0.,10.148612517,0.,0.;                      0000273P0000226
110,10.148612517,0.,0.,10.148612517,-1.,0.;                      0000275P0000227
110,10.148612517,-1.,0.,349.851387483,-1.,0.;                    0000277P0000228
110,349.851387483,-1.,0.,349.851387483,0.,0.;                    0000279P0000229
510,283,1,1,291;                                                 0000281P0000230
192,285,287,8.,289;                                              0000283P0000231
116,0.,0.,0.,0;                                                  0000285P0000232
123,1.187803727E-02,-0.99992887,-1.080519205E-03;                0000287P0000233
123,1.482596228E-02,1.256592305E-03,-0.9998893;                  0000289P0000234
508,4,0,17,34,1,1,0,293,0,17,22,0,1,0,295,0,17,32,0,1,0,297,0,   0000291P0000235
17,8,1,1,0,299;                                                  0000291P0000236
110,5.876273089,0.,0.,5.876273089,-1.,0.;                        0000293P0000237
110,5.876273089,-1.,0.,23.911648897,-1.,0.;                      0000295P0000238
110,23.911648897,-1.,-0.,23.911648897,-9.860761315E-32,-0.;      0000297P0000239
110,23.911648897,0.,0.,5.876273089,0.,0.;                        0000299P0000240
510,303,1,1,311;                                                 0000301P0000241
190,305,307,309;                                                 0000303P0000242
116,0.886734771,1.546411442E-02,-4.562941386,0;                  0000305P0000243
123,-0.999819535,-1.186070263E-02,-1.483983356E-02;              0000307P0000244
123,1.482596228E-02,1.256592305E-03,-0.9998893;                  0000309P0000245
508,4,0,17,33,1,0,0,17,23,1,0,0,17,34,0,0,0,17,9,0,0;            0000311P0000246
510,315,1,1,323;                                                 0000313P0000247
192,317,319,0.75,321;                                            0000315P0000248
116,2.584056823,3.681433273E-02,-5.662269425,0;                  0000317P0000249
123,1.187803727E-02,-0.99992887,-1.080519205E-03;                0000319P0000250
123,1.482596228E-02,1.256592305E-03,-0.9998893;                  0000321P0000251
508,4,0,17,14,1,1,0,325,0,17,35,1,1,0,327,0,17,27,0,1,0,329,0,   0000323P0000252
17,35,0,1,0,331;                                                 0000323P0000253
110,360.,1.776164405E-18,0.,0.,1.776164405E-18,0.;               0000325P0000254
110,-2.37142157E-11,0.,0.,-2.37142157E-11,-1.,0.;                0000327P0000255
110,0.,-1.,0.,360.,-1.,0.;                                       0000329P0000256
110,360.,-1.,0.,360.,0.,0.;                                      0000331P0000257
510,335,1,1,343;                                                 0000333P0000258
192,337,339,0.75,341;                                            0000335P0000259
116,-2.415040853,-2.248918045E-02,-5.736468593,0;                0000337P0000260
123,1.187803727E-02,-0.99992887,-1.080519205E-03;                0000339P0000261
123,1.482596228E-02,1.256592305E-03,-0.9998893;                  0000341P0000262
508,4,0,17,15,1,1,0,345,0,17,36,1,1,0,347,0,17,28,0,1,0,349,0,   0000343P0000263
17,36,0,1,0,351;                                                 0000343P0000264
110,360.,1.776164405E-18,0.,0.,-1.693282547E-18,0.;              0000345P0000265
110,-2.37142157E-11,0.,0.,-2.37142157E-11,-1.,0.;                0000347P0000266
110,0.,-1.,0.,360.,-1.,0.;                                       0000349P0000267
110,360.,-1.,0.,360.,0.,0.;                                      0000351P0000268
S      1G      4D    352P    268                                        T0000001
