                                                                        S0000001
,,31HOpen CASCADE IGES processor 7.9,13HFilename.iges,                  G0000001
16HOpen CASCADE 7.9,31HOpen CASCADE IGES processor 7.9,32,308,15,308,15,G0000002
,1.,2,2HMM,1,0.01,15H20261004.214557,1E-07,3.006167,7Hjiayuxu,,11,0,    G0000003
15H20261004.214557,;                                                    G0000004
     186       1       0       0       0       0       0       000000000D0000001
     186       0       0       1       0                               0D0000002
     514       2       0       0       0       0       0       000010000D0000003
     514       0       0       2       1                               0D0000004
     510       4       0       0       0       0       0       000010000D0000005
     510       0       0       1       1                               0D0000006
     192       5       0       0       0       0       0       000010000D0000007
     192       0       0       1       1                               0D0000008
     116       6       0       0       0       0       0       000010400D0000009
     116       0       0       1       0                               0D0000010
     123       7       0       0       0       0       0       000010200D0000011
     123       0       0       1       0                               0D0000012
     123       8       0       0       0       0       0       000010200D0000013
     123       0       0       1       0                               0D0000014
     508       9       0       0       0       0       0       000010000D0000015
     508       0       0       2       1                               0D0000016
     504      11       0       0       0       0       0       000010001D0000017
     504       0       0       6       1                               0D0000018
     100      17       0       0       0       0      21       000010000D0000019
     100       0       0       1       0                               0D0000020
     124      18       0       0       0       0       0       000000000D0000021
     124       0       0       1       0                               0D0000022
     502      19       0       0       0       0       0       000010000D0000023
     502       0       0       5       1                               0D0000024
     110      24       0       0       0       0       0       000010000D0000025
     110       0       0       1       0                               0D0000026
     100      25       0       0       0       0      29       000010000D0000027
     100       0       0       1       0                               0D0000028
     124      26       0       0       0       0       0       000000000D0000029
     124       0       0       1       0                               0D0000030
     100      27       0       0       0       0       0       000010000D0000031
     100       0       0       1       0                               0D0000032
     110      28       0       0       0       0       0       000010000D0000033
     110       0       0       1       0                               0D0000034
     110      29       0       0       0       0       0       000010000D0000035
     110       0       0       1       0                               0D0000036
     110      30       0       0       0       0       0       000010000D0000037
     110       0       0       1       0                               0D0000038
     110      31       0       0       0       0       0       000010000D0000039
     110       0       0       1       0                               0D0000040
     110      32       0       0       0       0       0       000010000D0000041
     110       0       0       1       0                               0D0000042
     110      33       0       0       0       0       0       000010000D0000043
     110       0       0       1       0                               0D0000044
     110      34       0       0       0       0       0       000010000D0000045
     110       0       0       1       0                               0D0000046
     110      35       0       0       0       0       0       000010000D0000047
     110       0       0       1       0                               0D0000048
     110      36       0       0       0       0       0       000010000D0000049
     110       0       0       1       0                               0D0000050
     110      37       0       0       0       0       0       000010000D0000051
     110       0       0       1       0                               0D0000052
     110      38       0       0       0       0       0       000010000D0000053
     110       0       0       1       0                               0D0000054
     110      39       0       0       0       0       0       000010000D0000055
     110       0       0       1       0                               0D0000056
     110      40       0       0       0       0       0       000010000D0000057
     110       0       0       1       0                               0D0000058
     110      41       0       0       0       0       0       000010000D0000059
     110       0       0       1       0                               0D0000060
     110      42       0       0       0       0       0       000010000D0000061
     110       0       0       1       0                               0D0000062
     110      43       0       0       0       0       0       000010000D0000063
     110       0       0       1       0                               0D0000064
     110      44       0       0       0       0       0       000010000D0000065
     110       0       0       1       0                               0D0000066
     110      45       0       0       0       0       0       000010000D0000067
     110       0       0       1       0                               0D0000068
     110      46       0       0       0       0       0       000010000D0000069
     110       0       0       1       0                               0D0000070
     110      47       0       0       0       0       0       000010000D0000071
     110       0       0       1       0                               0D0000072
     110      48       0       0       0       0       0       000010000D0000073
     110       0       0       1       0                               0D0000074
     110      49       0       0       0       0       0       000010000D0000075
     110       0       0       1       0                               0D0000076
     110      50       0       0       0       0       0       000010000D0000077
     110       0       0       1       0                               0D0000078
     510      51       0       0       0       0       0       000010000D0000079
     510       0       0       1       1                               0D0000080
     194      52       0       0       0       0       0       000010000D0000081
     194       0       0       1       1                               0D0000082
     116      53       0       0       0       0       0       000010400D0000083
     116       0       0       1       0                               0D0000084
     123      54       0       0       0       0       0       000010200D0000085
     123       0       0       1       0                               0D0000086
     123      55       0       0       0       0       0       000010200D0000087
     123       0       0       1       0                               0D0000088
     508      56       0       0       0       0       0       000010000D0000089
     508       0       0       2       1                               0D0000090
     110      58       0       0       0       0       0       000010000D0000091
     110       0       0       1       0                               0D0000092
     126      59       0       0       0       0       0       000010000D0000093
     126       0       0       2       0                               0D0000094
     110      61       0       0       0       0       0       000010000D0000095
     110       0       0       1       0                               0D0000096
     126      62       0       0       0       0       0       000010000D0000097
     126       0       0       3       0                               0D0000098
     510      65       0       0       0       0       0       000010000D0000099
     510       0       0       1       1                               0D0000100
     190      66       0       0       0       0       0       000010000D0000101
     190       0       0       1       1                               0D0000102
     116      67       0       0       0       0       0       000010400D0000103
     116       0       0       1       0                               0D0000104
     123      68       0       0       0       0       0       000010200D0000105
     123       0       0       1       0                               0D0000106
     123      69       0       0       0       0       0       000010200D0000107
     123       0       0       1       0                               0D0000108
     508      70       0       0       0       0       0       000010000D0000109
     508       0       0       1       1                               0D0000110
     508      71       0       0       0       0       0       000010000D0000111
     508       0       0       2       1                               0D0000112
     510      73       0       0       0       0       0       000010000D0000113
     510       0       0       1       1                               0D0000114
     190      74       0       0       0       0       0       000010000D0000115
     190       0       0       1       1                               0D0000116
     116      75       0       0       0       0       0       000010400D0000117
     116       0       0       1       0                               0D0000118
     123      76       0       0       0       0       0       000010200D0000119
     123       0       0       1       0                               0D0000120
     123      77       0       0       0       0       0       000010200D0000121
     123       0       0       1       0                               0D0000122
     508      78       0       0       0       0       0       000010000D0000123
     508       0       0       1       1                               0D0000124
     510      79       0       0       0       0       0       000010000D0000125
     510       0       0       1       1                               0D0000126
     190      80       0       0       0       0       0       000010000D0000127
     190       0       0       1       1                               0D0000128
     116      81       0       0       0       0       0       000010400D0000129
     116       0       0       1       0                               0D0000130
     123      82       0       0       0       0       0       000010200D0000131
     123       0       0       1       0                               0D0000132
     123      83       0       0       0       0       0       000010200D0000133
     123       0       0       1       0                               0D0000134
     508      84       0       0       0       0       0       000010000D0000135
     508       0       0       1       1                               0D0000136
     510      85       0       0       0       0       0       000010000D0000137
     510       0       0       1       1                               0D0000138
     190      86       0       0       0       0       0       000010000D0000139
     190       0       0       1       1                               0D0000140
     116      87       0       0       0       0       0       000010400D0000141
     116       0       0       1       0                               0D0000142
     123      88       0       0       0       0       0       000010200D0000143
     123       0       0       1       0                               0D0000144
     123      89       0       0       0       0       0       000010200D0000145
     123       0       0       1       0                               0D0000146
     508      90       0       0       0       0       0       000010000D0000147
     508       0       0       1       1                               0D0000148
     510      91       0       0       0       0       0       000010000D0000149
     510       0       0       1       1                               0D0000150
     190      92       0       0       0       0       0       000010000D0000151
     190       0       0       1       1                               0D0000152
     116      93       0       0       0       0       0       000010400D0000153
     116       0       0       1       0                               0D0000154
     123      94       0       0       0       0       0       000010200D0000155
     123       0       0       1       0                               0D0000156
     123      95       0       0       0       0       0       000010200D0000157
     123       0       0       1       0                               0D0000158
     508      96       0       0       0       0       0       000010000D0000159
     508       0       0       1       1                               0D0000160
     510      97       0       0       0       0       0       000010000D0000161
     510       0       0       1       1                               0D0000162
     190      98       0       0       0       0       0       000010000D0000163
     190       0       0       1       1                               0D0000164
     116      99       0       0       0       0       0       000010400D0000165
     116       0       0       1       0                               0D0000166
     123     100       0       0       0       0       0       000010200D0000167
     123       0       0       1       0                               0D0000168
     123     101       0       0       0       0       0       000010200D0000169
     123       0       0       1       0                               0D0000170
     508     102       0       0       0       0       0       000010000D0000171
     508       0       0       1       1                               0D0000172
     510     103       0       0       0       0       0       000010000D0000173
     510       0       0       1       1                               0D0000174
     190     104       0       0       0       0       0       000010000D0000175
     190       0       0       1       1                               0D0000176
     116     105       0       0       0       0       0       000010400D0000177
     116       0       0       1       0                               0D0000178
     123     106       0       0       0       0       0       000010200D0000179
     123       0       0       1       0                               0D0000180
     123     107       0       0       0       0       0       000010200D0000181
     123       0       0       1       0                               0D0000182
     508     108       0       0       0       0       0       000010000D0000183
     508       0       0       1       1                               0D0000184
     510     109       0       0       0       0       0       000010000D0000185
     510       0       0       1       1                               0D0000186
     190     110       0       0       0       0       0       000010000D0000187
     190       0       0       1       1                               0D0000188
     116     111       0       0       0       0       0       000010400D0000189
     116       0       0       1       0                               0D0000190
     123     112       0       0       0       0       0       000010200D0000191
     123       0       0       1       0                               0D0000192
     123     113       0       0       0       0       0       000010200D0000193
     123       0       0       1       0                               0D0000194
     508     114       0       0       0       0       0       000010000D0000195
     508       0       0       1       1                               0D0000196
     510     115       0       0       0       0       0       000010000D0000197
     510       0       0       1       1                               0D0000198
     190     116       0       0       0       0       0       000010000D0000199
     190       0       0       1       1                               0D0000200
     116     117       0       0       0       0       0       000010400D0000201
     116       0       0       1       0                               0D0000202
     123     118       0       0       0       0       0       000010200D0000203
     123       0       0       1       0                               0D0000204
     123     119       0       0       0       0       0       000010200D0000205
     123       0       0       1       0                               0D0000206
     508     120       0       0       0       0       0       000010000D0000207
     508       0       0       2       1                               0D0000208
186,3,1,0;                                                       0000001P0000001
514,11,5,1,79,1,99,0,113,1,125,0,137,0,149,0,161,0,173,0,185,0,  0000003P0000002
197,0;                                                           0000003P0000003
510,7,1,1,15;                                                    0000005P0000004
192,9,11,1.5,13;                                                 0000007P0000005
116,0.,0.,0.,0;                                                  0000009P0000006
123,-0.,-0.,-1.;                                                 0000011P0000007
123,1.,0.,0.;                                                    0000013P0000008
508,4,0,17,1,1,1,0,71,0,17,2,1,1,0,73,0,17,3,0,1,0,75,0,17,2,0,  0000015P0000009
1,0,77;                                                          0000015P0000010
504,23,19,23,1,23,1,25,23,1,23,2,27,23,2,23,2,31,23,3,23,3,33,   0000017P0000011
23,1,23,3,35,23,4,23,5,37,23,5,23,6,39,23,6,23,7,41,23,7,23,8,   0000017P0000012
43,23,8,23,9,45,23,9,23,4,47,23,4,23,10,49,23,10,23,11,51,23,5,  0000017P0000013
23,11,53,23,9,23,12,55,23,12,23,10,57,23,8,23,13,59,23,13,23,12, 0000017P0000014
61,23,7,23,14,63,23,14,23,13,65,23,6,23,15,67,23,15,23,14,69,23, 0000017P0000015
11,23,15;                                                        0000017P0000016
100,0.,0.,0.,1.5,0.,1.5,0.;                                      0000019P0000017
124,1.,0.,0.,0.,0.,1.,0.,0.,0.,0.,1.,0.4;                        0000021P0000018
502,15,1.5,0.,0.4,1.5,0.,3.,1.1,0.,0.,0.45,-0.779422863,3.,0.9,  0000023P0000019
1.110223025E-16,3.,0.45,0.779422863,3.,-0.45,0.779422863,3.,     0000023P0000020
-0.9,0.,3.,-0.45,-0.779422863,3.,0.45,-0.779422863,1.,0.9,       0000023P0000021
1.110223025E-16,1.,-0.45,-0.779422863,1.,-0.9,0.,1.,-0.45,       0000023P0000022
0.779422863,1.,0.45,0.779422863,1.;                              0000023P0000023
110,1.5,0.,0.4,1.5,0.,3.;                                        0000025P0000024
100,0.,0.,0.,1.5,0.,1.5,0.;                                      0000027P0000025
124,1.,0.,0.,0.,0.,1.,0.,0.,0.,0.,1.,3.;                         0000029P0000026
100,0.,0.,0.,1.1,0.,1.1,0.;                                      0000031P0000027
110,1.5,0.,0.4,1.1,0.,-1.080159595E-18;                          0000033P0000028
110,0.45,-0.779422863,3.,0.9,-9.990006082E-14,3.;                0000035P0000029
110,0.9,1.110223025E-16,3.,0.45,0.779422863,3.;                  0000037P0000030
110,0.45,0.779422863,3.,-0.45,0.779422863,3.;                    0000039P0000031
110,-0.45,0.779422863,3.,-0.9,9.999620895E-14,3.;                0000041P0000032
110,-0.9,0.,3.,-0.45,-0.779422863,3.;                            0000043P0000033
110,-0.45,-0.779422863,3.,0.45,-0.779422863,3.;                  0000045P0000034
110,0.45,-0.779422863,3.,0.45,-0.779422863,1.;                   0000047P0000035
110,0.45,-0.779422863,1.,0.9,-9.990006082E-14,1.;                0000049P0000036
110,0.9,1.110223025E-16,3.,0.9,1.110223025E-16,1.;               0000051P0000037
110,-0.45,-0.779422863,3.,-0.45,-0.779422863,1.;                 0000053P0000038
110,-0.45,-0.779422863,1.,0.45,-0.779422863,1.;                  0000055P0000039
110,-0.9,0.,3.,-0.9,0.,1.;                                       0000057P0000040
110,-0.9,0.,1.,-0.45,-0.779422863,1.;                            0000059P0000041
110,-0.45,0.779422863,3.,-0.45,0.779422863,1.;                   0000061P0000042
110,-0.45,0.779422863,1.,-0.9,9.999620895E-14,1.;                0000063P0000043
110,0.45,0.779422863,3.,0.45,0.779422863,1.;                     0000065P0000044
110,0.45,0.779422863,1.,-0.45,0.779422863,1.;                    0000067P0000045
110,0.9,1.110223025E-16,1.,0.45,0.779422863,1.;                  0000069P0000046
110,360.,-0.4,0.,0.,-0.4,0.;                                     0000071P0000047
110,-2.37142157E-11,-0.4,0.,-2.37142157E-11,-3.,0.;              0000073P0000048
110,0.,-3.,0.,360.,-3.,0.;                                       0000075P0000049
110,360.,-3.,-0.,360.,-0.4,-0.;                                  0000077P0000050
510,81,1,1,89;                                                   0000079P0000051
194,83,85,1.5,45.,87;                                            0000081P0000052
116,0.,0.,0.4,0;                                                 0000083P0000053
123,0.,0.,1.;                                                    0000085P0000054
123,1.,0.,-0.;                                                   0000087P0000055
508,4,0,17,4,1,1,0,91,0,17,5,0,1,0,93,0,17,1,0,1,0,95,0,17,5,1,  0000089P0000056
1,0,97;                                                          0000089P0000057
110,0.,-0.565685425,0.,360.,-0.565685425,0.;                     0000091P0000058
126,1,1,1,0,1,0,0.,0.,0.565685425,0.565685425,1.,1.,360.,        0000093P0000059
-0.565685425,-0.,360.,0.,0.,0.,0.565685425,0.,0.,1.;             0000093P0000060
110,360.,0.,0.,0.,0.,0.;                                         0000095P0000061
126,1,1,1,0,1,0,0.,0.,0.565685425,0.565685425,1.,1.,             0000097P0000062
2.37142157E-11,0.,0.,2.37142157E-11,-0.565685425,-0.,0.,         0000097P0000063
0.565685425,0.,0.,1.;                                            0000097P0000064
510,101,2,1,109,111;                                             0000099P0000065
190,103,105,107;                                                 0000101P0000066
116,1.5,0.,3.,0;                                                 0000103P0000067
123,0.,0.,-1.;                                                   0000105P0000068
123,-1.,0.,0.;                                                   0000107P0000069
508,1,0,17,3,0,0;                                                0000109P0000070
508,6,0,17,6,1,0,0,17,7,1,0,0,17,8,1,0,0,17,9,1,0,0,17,10,1,0,0, 0000111P0000071
17,11,1,0;                                                       0000111P0000072
510,115,1,1,123;                                                 0000113P0000073
190,117,119,121;                                                 0000115P0000074
116,1.5,0.,0.,0;                                                 0000117P0000075
123,0.,0.,-1.;                                                   0000119P0000076
123,-1.,0.,0.;                                                   0000121P0000077
508,1,0,17,4,0,0;                                                0000123P0000078
510,127,1,1,135;                                                 0000125P0000079
190,129,131,133;                                                 0000127P0000080
116,0.45,-0.779422863,3.,0;                                      0000129P0000081
123,0.866025404,-0.5,0.;                                         0000131P0000082
123,0.5,0.866025404,0.;                                          0000133P0000083
508,4,0,17,12,1,0,0,17,13,1,0,0,17,14,0,0,0,17,6,0,0;            0000135P0000084
510,139,1,1,147;                                                 0000137P0000085
190,141,143,145;                                                 0000139P0000086
116,-0.45,-0.779422863,3.,0;                                     0000141P0000087
123,0.,-1.,0.;                                                   0000143P0000088
123,1.,0.,0.;                                                    0000145P0000089
508,4,0,17,15,1,0,0,17,16,1,0,0,17,12,0,0,0,17,11,0,0;           0000147P0000090
510,151,1,1,159;                                                 0000149P0000091
190,153,155,157;                                                 0000151P0000092
116,-0.9,0.,3.,0;                                                0000153P0000093
123,-0.866025404,-0.5,0.;                                        0000155P0000094
123,0.5,-0.866025404,0.;                                         0000157P0000095
508,4,0,17,17,1,0,0,17,18,1,0,0,17,15,0,0,0,17,10,0,0;           0000159P0000096
510,163,1,1,171;                                                 0000161P0000097
190,165,167,169;                                                 0000163P0000098
116,-0.45,0.779422863,3.,0;                                      0000165P0000099
123,-0.866025404,0.5,0.;                                         0000167P0000100
123,-0.5,-0.866025404,0.;                                        0000169P0000101
508,4,0,17,19,1,0,0,17,20,1,0,0,17,17,0,0,0,17,9,0,0;            0000171P0000102
510,175,1,1,183;                                                 0000173P0000103
190,177,179,181;                                                 0000175P0000104
116,0.45,0.779422863,3.,0;                                       0000177P0000105
123,0.,1.,0.;                                                    0000179P0000106
123,-1.,0.,0.;                                                   0000181P0000107
508,4,0,17,21,1,0,0,17,22,1,0,0,17,19,0,0,0,17,8,0,0;            0000183P0000108
510,187,1,1,195;                                                 0000185P0000109
190,189,191,193;                                                 0000187P0000110
116,0.9,1.110223025E-16,3.,0;                                    0000189P0000111
123,0.866025404,0.5,0.;                                          0000191P0000112
123,-0.5,0.866025404,0.;                                         0000193P0000113
508,4,0,17,14,1,0,0,17,23,1,0,0,17,21,0,0,0,17,7,0,0;            0000195P0000114
510,199,1,1,207;                                                 0000197P0000115
190,201,203,205;                                                 0000199P0000116
116,0.9,1.110223025E-16,1.,0;                                    0000201P0000117
123,0.,0.,-1.;                                                   0000203P0000118
123,-1.,0.,0.;                                                   0000205P0000119
508,6,0,17,23,0,0,0,17,13,0,0,0,17,16,0,0,0,17,18,0,0,0,17,20,0, 0000207P0000120
0,0,17,22,0,0;                                                   0000207P0000121
S      1G      4D    208P    121                                        T0000001
