                                                                        S0000001
,,31HOpen CASCADE IGES processor 7.9,13HFilename.iges,                  G0000001
16HOpen CASCADE 7.9,31HOpen CASCADE IGES processor 7.9,32,308,15,308,15,G0000002
,1.,2,2HMM,1,0.01,15H20261004.214557,1E-07,60.008392,7Hjiayuxu,,11,0,   G0000003
15H20261004.214557,;                                                    G0000004
     186       1       0       0       0       0       0       000000000D0000001
     186       0       0       1       0                               0D0000002
     514       2       0       0       0       0       0       000010000D0000003
     514       0       0       2       1                               0D0000004
     510       4       0       0       0       0       0       000010000D0000005
     510       0       0       1       1                               0D0000006
     190       5       0       0       0       0       0       000010000D0000007
     190       0       0       1       1                               0D0000008
     116       6       0       0       0       0       0       000010400D0000009
     116       0       0       1       0                               0D0000010
     123       7       0       0       0       0       0       000010200D0000011
     123       0       0       1       0                               0D0000012
     123       8       0       0       0       0       0       000010200D0000013
     123       0       0       1       0                               0D0000014
     508       9       0       0       0       0       0       000010000D0000015
     508       0       0       1       1                               0D0000016
     504      10       0       0       0       0       0       000010001D0000017
     504       0       0       7       1                               0D0000018
     110      17       0       0       0       0       0       000010000D0000019
     110       0       0       1       0                               0D0000020
     502      18       0       0       0       0       0       000010000D0000021
     502       0       0       4       1                               0D0000022
     110      22       0       0       0       0       0       000010000D0000023
     110       0       0       1       0                               0D0000024
     110      23       0       0       0       0       0       000010000D0000025
     110       0       0       1       0                               0D0000026
     110      24       0       0       0       0       0       000010000D0000027
     110       0       0       1       0                               0D0000028
     110      25       0       0       0       0       0       000010000D0000029
     110       0       0       1       0                               0D0000030
     110      26       0       0       0       0       0       000010000D0000031
     110       0       0       1       0                               0D0000032
     110      27       0       0       0       0       0       000010000D0000033
     110       0       0       1       0                               0D0000034
     110      28       0       0       0       0       0       000010000D0000035
     110       0       0       1       0                               0D0000036
     110      29       0       0       0       0       0       000010000D0000037
     110       0       0       1       0                               0D0000038
     100      30       0       0       0       0      41       000010000D0000039
     100       0       0       1       0                               0D0000040
     124      31       0       0       0       0       0       000000000D0000041
     124       0       0       1       0                               0D0000042
     100      32       0       0       0       0      45       000010000D0000043
     100       0       0       1       0                               0D0000044
     124      33       0       0       0       0       0       000000000D0000045
     124       0       0       1       0                               0D0000046
     100      34       0       0       0       0      49       000010000D0000047
     100       0       0       1       0                               0D0000048
     124      35       0       0       0       0       0       000000000D0000049
     124       0       0       1       0                               0D0000050
     100      36       0       0       0       0      53       000010000D0000051
     100       0       0       1       0                               0D0000052
     124      37       0       0       0       0       0       000000000D0000053
     124       0       0       1       0                               0D0000054
     100      38       0       0       0       0      57       000010000D0000055
     100       0       0       1       0                               0D0000056
     124      39       0       0       0       0       0       000000000D0000057
     124       0       0       1       0                               0D0000058
     110      40       0       0       0       0       0       000010000D0000059
     110       0       0       1       0                               0D0000060
     110      41       0       0       0       0       0       000010000D0000061
     110       0       0       1       0                               0D0000062
     110      42       0       0       0       0       0       000010000D0000063
     110       0       0       1       0                               0D0000064
     100      43       0       0       0       0      67       000010000D0000065
     100       0       0       1       0                               0D0000066
     124      44       0       0       0       0       0       000000000D0000067
     124       0       0       1       0                               0D0000068
     100      45       0       0       0       0      71       000010000D0000069
     100       0       0       1       0                               0D0000070
     124      46       0       0       0       0       0       000000000D0000071
     124       0       0       1       0                               0D0000072
     100      47       0       0       0       0      75       000010000D0000073
     100       0       0       1       0                               0D0000074
     124      48       0       0       0       0       0       000000000D0000075
     124       0       0       1       0                               0D0000076
     100      49       0       0       0       0      79       000010000D0000077
     100       0       0       1       0                               0D0000078
     124      50       0       0       0       0       0       000000000D0000079
     124       0       0       1       0                               0D0000080
     100      51       0       0       0       0      83       000010000D0000081
     100       0       0       1       0                               0D0000082
     124      52       0       0       0       0       0       000000000D0000083
     124       0       0       1       0                               0D0000084
     110      53       0       0       0       0       0       000010000D0000085
     110       0       0       1       0                               0D0000086
     110      54       0       0       0       0       0       000010000D0000087
     110       0       0       1       0                               0D0000088
     110      55       0       0       0       0       0       000010000D0000089
     110       0       0       1       0                               0D0000090
     110      56       0       0       0       0       0       000010000D0000091
     110       0       0       1       0                               0D0000092
     110      57       0       0       0       0       0       000010000D0000093
     110       0       0       1       0                               0D0000094
     510      58       0       0       0       0       0       000010000D0000095
     510       0       0       1       1                               0D0000096
     190      59       0       0       0       0       0       000010000D0000097
     190       0       0       1       1                               0D0000098
     116      60       0       0       0       0       0       000010400D0000099
     116       0       0       1       0                               0D0000100
     123      61       0       0       0       0       0       000010200D0000101
     123       0       0       1       0                               0D0000102
     123      62       0       0       0       0       0       000010200D0000103
     123       0       0       1       0                               0D0000104
     508      63       0       0       0       0       0       000010000D0000105
     508       0       0       1       1                               0D0000106
     510      64       0       0       0       0       0       000010000D0000107
     510       0       0       1       1                               0D0000108
     190      65       0       0       0       0       0       000010000D0000109
     190       0       0       1       1                               0D0000110
     116      66       0       0       0       0       0       000010400D0000111
     116       0       0       1       0                               0D0000112
     123      67       0       0       0       0       0       000010200D0000113
     123       0       0       1       0                               0D0000114
     123      68       0       0       0       0       0       000010200D0000115
     123       0       0       1       0                               0D0000116
     508      69       0       0       0       0       0       000010000D0000117
     508       0       0       1       1                               0D0000118
     508      70       0       0       0       0       0       000010000D0000119
     508       0       0       1       1                               0D0000120
     508      71       0       0       0       0       0       000010000D0000121
     508       0       0       1       1                               0D0000122
     508      72       0       0       0       0       0       000010000D0000123
     508       0       0       1       1                               0D0000124
     508      73       0       0       0       0       0       000010000D0000125
     508       0       0       1       1                               0D0000126
     508      74       0       0       0       0       0       000010000D0000127
     508       0       0       1       1                               0D0000128
     510      75       0       0       0       0       0       000010000D0000129
     510       0       0       1       1                               0D0000130
     190      76       0       0       0       0       0       000010000D0000131
     190       0       0       1       1                               0D0000132
     116      77       0       0       0       0       0       000010400D0000133
     116       0       0       1       0                               0D0000134
     123      78       0       0       0       0       0       000010200D0000135
     123       0       0       1       0                               0D0000136
     123      79       0       0       0       0       0       000010200D0000137
     123       0       0       1       0                               0D0000138
     508      80       0       0       0       0       0       000010000D0000139
     508       0       0       1       1                               0D0000140
     510      81       0       0       0       0       0       000010000D0000141
     510       0       0       1       1                               0D0000142
     190      82       0       0       0       0       0       000010000D0000143
     190       0       0       1       1                               0D0000144
     116      83       0       0       0       0       0       000010400D0000145
     116       0       0       1       0                               0D0000146
     123      84       0       0       0       0       0       000010200D0000147
     123       0       0       1       0                               0D0000148
     123      85       0       0       0       0       0       000010200D0000149
     123       0       0       1       0                               0D0000150
     508      86       0       0       0       0       0       000010000D0000151
     508       0       0       1       1                               0D0000152
     508      87       0       0       0       0       0       000010000D0000153
     508       0       0       1       1                               0D0000154
     508      88       0       0       0       0       0       000010000D0000155
     508       0       0       1       1                               0D0000156
     508      89       0       0       0       0       0       000010000D0000157
     508       0       0       1       1                               0D0000158
     508      90       0       0       0       0       0       000010000D0000159
     508       0       0       1       1                               0D0000160
     508      91       0       0       0       0       0       000010000D0000161
     508       0       0       1       1                               0D0000162
     510      92       0       0       0       0       0       000010000D0000163
     510       0       0       1       1                               0D0000164
     190      93       0       0       0       0       0       000010000D0000165
     190       0       0       1       1                               0D0000166
     116      94       0       0       0       0       0       000010400D0000167
     116       0       0       1       0                               0D0000168
     123      95       0       0       0       0       0       000010200D0000169
     123       0       0       1       0                               0D0000170
     123      96       0       0       0       0       0       000010200D0000171
     123       0       0       1       0                               0D0000172
     508      97       0       0       0       0       0       000010000D0000173
     508       0       0       1       1                               0D0000174
     510      98       0       0       0       0       0       000010000D0000175
     510       0       0       1       1                               0D0000176
     192      99       0       0       0       0       0       000010000D0000177
     192       0       0       1       1                               0D0000178
     116     100       0       0       0       0       0       000010400D0000179
     116       0       0       1       0                               0D0000180
     123     101       0       0       0       0       0       000010200D0000181
     123       0       0       1       0                               0D0000182
     123     102       0       0       0       0       0       000010200D0000183
     123       0       0       1       0                               0D0000184
     508     103       0       0       0       0       0       000010000D0000185
     508       0       0       2       1                               0D0000186
     110     105       0       0       0       0       0       000010000D0000187
     110       0       0       1       0                               0D0000188
     110     106       0       0       0       0       0       000010000D0000189
     110       0       0       1       0                               0D0000190
     110     107       0       0       0       0       0       000010000D0000191
     110       0       0       1       0                               0D0000192
     110     108       0       0       0       0       0       000010000D0000193
     110       0       0       1       0                               0D0000194
     510     109       0       0       0       0       0       000010000D0000195
     510       0       0       1       1                               0D0000196
     192     110       0       0       0       0       0       000010000D0000197
     192       0       0       1       1                               0D0000198
     116     111       0       0       0       0       0       000010400D0000199
     116       0       0       1       0                               0D0000200
     123     112       0       0       0       0       0       000010200D0000201
     123       0       0       1       0                               0D0000202
     123     113       0       0       0       0       0       000010200D0000203
     123       0       0       1       0                               0D0000204
     508     114       0       0       0       0       0       000010000D0000205
     508       0       0       2       1                               0D0000206
     110     116       0       0       0       0       0       000010000D0000207
     110       0       0       1       0                               0D0000208
     110     117       0       0       0       0       0       000010000D0000209
     110       0       0       1       0                               0D0000210
     110     118       0       0       0       0       0       000010000D0000211
     110       0       0       1       0                               0D0000212
     110     119       0       0       0       0       0       000010000D0000213
     110       0       0       1       0                               0D0000214
     510     120       0       0       0       0       0       000010000D0000215
     510       0       0       1       1                               0D0000216
     192     121       0       0       0       0       0       000010000D0000217
     192       0       0       1       1                               0D0000218
     116     122       0       0       0       0       0       000010400D0000219
     116       0       0       1       0                               0D0000220
     123     123       0       0       0       0       0       000010200D0000221
     123       0       0       1       0                               0D0000222
     123     124       0       0       0       0       0       000010200D0000223
     123       0       0       1       0                               0D0000224
     508     125       0       0       0       0       0       000010000D0000225
     508       0       0       2       1                               0D0000226
     110     127       0       0       0       0       0       000010000D0000227
     110       0       0       1       0                               0D0000228
     110     128       0       0       0       0       0       000010000D0000229
     110       0       0       1       0                               0D0000230
     110     129       0       0       0       0       0       000010000D0000231
     110       0       0       1       0                               0D0000232
     110     130       0       0       0       0       0       000010000D0000233
     110       0       0       1       0                               0D0000234
     510     131       0       0       0       0       0       000010000D0000235
     510       0       0       1       1                               0D0000236
     192     132       0       0       0       0       0       000010000D0000237
     192       0       0       1       1                               0D0000238
     116     133       0       0       0       0       0       000010400D0000239
     116       0       0       1       0                               0D0000240
     123     134       0       0       0       0       0       000010200D0000241
     123       0       0       1       0                               0D0000242
     123     135       0       0       0       0       0       000010200D0000243
     123       0       0       1       0                               0D0000244
     508     136       0       0       0       0       0       000010000D0000245
     508       0       0       2       1                               0D0000246
     110     138       0       0       0       0       0       000010000D0000247
     110       0       0       1       0                               0D0000248
     110     139       0       0       0       0       0       000010000D0000249
     110       0       0       1       0                               0D0000250
     110     140       0       0       0       0       0       000010000D0000251
     110       0       0       1       0                               0D0000252
     110     141       0       0       0       0       0       000010000D0000253
     110       0       0       1       0                               0D0000254
     510     142       0       0       0       0       0       000010000D0000255
     510       0       0       1       1                               0D0000256
     192     143       0       0       0       0       0       000010000D0000257
     192       0       0       1       1                               0D0000258
     116     144       0       0       0       0       0       000010400D0000259
     116       0       0       1       0                               0D0000260
     123     145       0       0       0       0       0       000010200D0000261
     123       0       0       1       0                               0D0000262
     123     146       0       0       0       0       0       000010200D0000263
     123       0       0       1       0                               0D0000264
     508     147       0       0       0       0       0       000010000D0000265
     508       0       0       2       1                               0D0000266
     110     149       0       0       0       0       0       000010000D0000267
     110       0       0       1       0                               0D0000268
     110     150       0       0       0       0       0       000010000D0000269
     110       0       0       1       0                               0D0000270
     110     151       0       0       0       0       0       000010000D0000271
     110       0       0       1       0                               0D0000272
     110     152       0       0       0       0       0       000010000D0000273
     110       0       0       1       0                               0D0000274
186,3,1,0;                                                       0000001P0000001
514,11,5,0,95,0,107,1,129,1,141,0,163,1,175,0,195,0,215,0,235,0, 0000003P0000002
255,0;                                                           0000003P0000003
510,7,1,1,15;                                                    0000005P0000004
190,9,11,13;                                                     0000007P0000005
116,0.,0.,0.,0;                                                  0000009P0000006
123,1.,0.,-0.;                                                   0000011P0000007
123,0.,0.,1.;                                                    0000013P0000008
508,4,0,17,1,0,0,0,17,2,1,0,0,17,3,1,0,0,17,4,0,0;               0000015P0000009
504,27,19,21,1,21,2,23,21,1,21,3,25,21,3,21,4,27,21,2,21,4,29,   0000017P0000010
21,1,21,5,31,21,2,21,6,33,21,5,21,6,35,21,6,21,7,37,21,4,21,7,   0000017P0000011
39,21,8,21,8,43,21,9,21,9,47,21,10,21,10,51,21,11,21,11,55,21,   0000017P0000012
12,21,12,59,21,3,21,13,61,21,13,21,7,63,21,5,21,13,65,21,14,21,  0000017P0000013
14,69,21,15,21,15,73,21,16,21,16,77,21,17,21,17,81,21,18,21,18,  0000017P0000014
85,21,14,21,8,87,21,15,21,9,89,21,16,21,10,91,21,17,21,11,93,21, 0000017P0000015
18,21,12;                                                        0000017P0000016
110,0.,0.,0.,0.,0.,5.;                                           0000019P0000017
502,18,0.,0.,0.,0.,0.,5.,0.,60.,0.,0.,60.,5.,60.,0.,0.,60.,0.,   0000021P0000018
5.,60.,60.,5.,12.5,10.,5.,52.5,10.,5.,12.5,50.,5.,42.,30.,5.,    0000021P0000019
52.5,50.,5.,60.,60.,0.,12.5,10.,0.,52.5,10.,0.,12.5,50.,0.,42.,  0000021P0000020
30.,0.,52.5,50.,0.;                                              0000021P0000021
110,0.,0.,0.,0.,60.,0.;                                          0000023P0000022
110,0.,60.,0.,0.,60.,5.;                                         0000025P0000023
110,0.,0.,5.,0.,60.,5.;                                          0000027P0000024
110,0.,0.,0.,60.,0.,0.;                                          0000029P0000025
110,0.,0.,5.,60.,0.,5.;                                          0000031P0000026
110,60.,0.,0.,60.,0.,5.;                                         0000033P0000027
110,60.,0.,5.,60.,60.,5.;                                        0000035P0000028
110,0.,60.,5.,60.,60.,5.;                                        0000037P0000029
100,0.,0.,0.,2.5,0.,2.5,0.;                                      0000039P0000030
124,1.,0.,0.,10.,0.,1.,0.,10.,0.,0.,1.,5.;                       0000041P0000031
100,0.,0.,0.,2.5,0.,2.5,0.;                                      0000043P0000032
124,1.,0.,0.,50.,0.,1.,0.,10.,0.,0.,1.,5.;                       0000045P0000033
100,0.,0.,0.,2.5,0.,2.5,0.;                                      0000047P0000034
124,1.,0.,0.,10.,0.,1.,0.,50.,0.,0.,1.,5.;                       0000049P0000035
100,0.,0.,0.,12.,0.,12.,0.;                                      0000051P0000036
124,1.,0.,0.,30.,0.,1.,0.,30.,0.,0.,1.,5.;                       0000053P0000037
100,0.,0.,0.,2.5,0.,2.5,0.;                                      0000055P0000038
124,1.,0.,0.,50.,0.,1.,0.,50.,0.,0.,1.,5.;                       0000057P0000039
110,0.,60.,0.,60.,60.,0.;                                        0000059P0000040
110,60.,60.,0.,60.,60.,5.;                                       0000061P0000041
110,60.,0.,0.,60.,60.,0.;                                        0000063P0000042
100,0.,0.,0.,2.5,0.,2.5,0.;                                      0000065P0000043
124,1.,0.,0.,10.,0.,1.,0.,10.,0.,0.,1.,0.;                       0000067P0000044
100,0.,0.,0.,2.5,0.,2.5,0.;                                      0000069P0000045
124,1.,0.,0.,50.,0.,1.,0.,10.,0.,0.,1.,0.;                       0000071P0000046
100,0.,0.,0.,2.5,0.,2.5,0.;                                      0000073P0000047
124,1.,0.,0.,10.,0.,1.,0.,50.,0.,0.,1.,0.;                       0000075P0000048
100,0.,0.,0.,12.,0.,12.,0.;                                      0000077P0000049
124,1.,0.,0.,30.,0.,1.,0.,30.,0.,0.,1.,0.;                       0000079P0000050
100,0.,0.,0.,2.5,0.,2.5,0.;                                      0000081P0000051
124,1.,0.,0.,50.,0.,1.,0.,50.,0.,0.,1.,0.;                       0000083P0000052
110,12.5,10.,0.,12.5,10.,5.;                                     0000085P0000053
110,52.5,10.,0.,52.5,10.,5.;                                     0000087P0000054
110,12.5,50.,0.,12.5,50.,5.;                                     0000089P0000055
110,42.,30.,0.,42.,30.,5.;                                       0000091P0000056
110,52.5,50.,0.,52.5,50.,5.;                                     0000093P0000057
510,97,1,1,105;                                                  0000095P0000058
190,99,101,103;                                                  0000097P0000059
116,0.,0.,0.,0;                                                  0000099P0000060
123,-0.,1.,0.;                                                   0000101P0000061
123,0.,0.,1.;                                                    0000103P0000062
508,4,0,17,5,0,0,0,17,1,1,0,0,17,6,1,0,0,17,7,0,0;               0000105P0000063
510,109,6,1,117,119,121,123,125,127;                             0000107P0000064
190,111,113,115;                                                 0000109P0000065
116,0.,0.,5.,0;                                                  0000111P0000066
123,0.,0.,1.;                                                    0000113P0000067
123,1.,0.,-0.;                                                   0000115P0000068
508,4,0,17,4,0,0,0,17,6,1,0,0,17,8,1,0,0,17,9,0,0;               0000117P0000069
508,1,0,17,10,0,0;                                               0000119P0000070
508,1,0,17,11,0,0;                                               0000121P0000071
508,1,0,17,12,0,0;                                               0000123P0000072
508,1,0,17,13,0,0;                                               0000125P0000073
508,1,0,17,14,0,0;                                               0000127P0000074
510,131,1,1,139;                                                 0000129P0000075
190,133,135,137;                                                 0000131P0000076
116,0.,60.,0.,0;                                                 0000133P0000077
123,-0.,1.,0.;                                                   0000135P0000078
123,0.,0.,1.;                                                    0000137P0000079
508,4,0,17,15,0,0,0,17,3,1,0,0,17,9,1,0,0,17,16,0,0;             0000139P0000080
510,143,6,1,151,153,155,157,159,161;                             0000141P0000081
190,145,147,149;                                                 0000143P0000082
116,0.,0.,0.,0;                                                  0000145P0000083
123,0.,0.,1.;                                                    0000147P0000084
123,1.,0.,-0.;                                                   0000149P0000085
508,4,0,17,2,0,0,0,17,5,1,0,0,17,17,1,0,0,17,15,0,0;             0000151P0000086
508,1,0,17,18,0,0;                                               0000153P0000087
508,1,0,17,19,0,0;                                               0000155P0000088
508,1,0,17,20,0,0;                                               0000157P0000089
508,1,0,17,21,0,0;                                               0000159P0000090
508,1,0,17,22,0,0;                                               0000161P0000091
510,165,1,1,173;                                                 0000163P0000092
190,167,169,171;                                                 0000165P0000093
116,60.,0.,0.,0;                                                 0000167P0000094
123,1.,0.,-0.;                                                   0000169P0000095
123,0.,0.,1.;                                                    0000171P0000096
508,4,0,17,7,0,0,0,17,17,1,0,0,17,16,1,0,0,17,8,0,0;             0000173P0000097
510,177,1,1,185;                                                 0000175P0000098
192,179,181,2.5,183;                                             0000177P0000099
116,10.,10.,-1.,0;                                               0000179P0000100
123,0.,0.,1.;                                                    0000181P0000101
123,1.,0.,-0.;                                                   0000183P0000102
508,4,0,17,10,0,1,0,187,0,17,23,0,1,0,189,0,17,18,1,1,0,191,0,   0000185P0000103
17,23,1,1,0,193;                                                 0000185P0000104
110,360.,6.,0.,0.,6.,0.;                                         0000187P0000105
110,0.,6.,0.,0.,1.,0.;                                           0000189P0000106
110,0.,1.,0.,360.,1.,0.;                                         0000191P0000107
110,360.,1.,0.,360.,6.,0.;                                       0000193P0000108
510,197,1,1,205;                                                 0000195P0000109
192,199,201,2.5,203;                                             0000197P0000110
116,50.,10.,-1.,0;                                               0000199P0000111
123,0.,0.,1.;                                                    0000201P0000112
123,1.,0.,-0.;                                                   0000203P0000113
508,4,0,17,11,0,1,0,207,0,17,24,0,1,0,209,0,17,19,1,1,0,211,0,   0000205P0000114
17,24,1,1,0,213;                                                 0000205P0000115
110,360.,6.,0.,0.,6.,0.;                                         0000207P0000116
110,0.,6.,0.,0.,1.,0.;                                           0000209P0000117
110,0.,1.,0.,360.,1.,0.;                                         0000211P0000118
110,360.,1.,0.,360.,6.,0.;                                       0000213P0000119
510,217,1,1,225;                                                 0000215P0000120
192,219,221,2.5,223;                                             0000217P0000121
116,10.,50.,-1.,0;                                               0000219P0000122
123,0.,0.,1.;                                                    0000221P0000123
123,1.,0.,-0.;                                                   0000223P0000124
508,4,0,17,12,0,1,0,227,0,17,25,0,1,0,229,0,17,20,1,1,0,231,0,   0000225P0000125
17,25,1,1,0,233;                                                 0000225P0000126
110,360.,6.,0.,0.,6.,0.;                                         0000227P0000127
110,0.,6.,0.,0.,1.,0.;                                           0000229P0000128
110,0.,1.,0.,360.,1.,0.;                                         0000231P0000129
110,360.,1.,0.,360.,6.,0.;                                       0000233P0000130
510,237,1,1,245;                                                 0000235P0000131
192,239,241,12.,243;                                             0000237P0000132
116,30.,30.,-1.,0;                                               0000239P0000133
123,0.,0.,1.;                                                    0000241P0000134
123,1.,0.,-0.;                                                   0000243P0000135
508,4,0,17,13,0,1,0,247,0,17,26,0,1,0,249,0,17,21,1,1,0,251,0,   0000245P0000136
17,26,1,1,0,253;                                                 0000245P0000137
110,360.,6.,0.,0.,6.,0.;                                         0000247P0000138
110,0.,6.,0.,0.,1.,0.;                                           0000249P0000139
110,0.,1.,0.,360.,1.,0.;                                         0000251P0000140
110,360.,1.,0.,360.,6.,0.;                                       0000253P0000141
510,257,1,1,265;                                                 0000255P0000142
192,259,261,2.5,263;                                             0000257P0000143
116,50.,50.,-1.,0;                                               0000259P0000144
123,0.,0.,1.;                                                    0000261P0000145
123,1.,0.,-0.;                                                   0000263P0000146
508,4,0,17,14,0,1,0,267,0,17,27,0,1,0,269,0,17,22,1,1,0,271,0,   0000265P0000147
17,27,1,1,0,273;                                                 0000265P0000148
110,360.,6.,0.,0.,6.,0.;                                         0000267P0000149
110,0.,6.,0.,0.,1.,0.;                                           0000269P0000150
110,0.,1.,0.,360.,1.,0.;                                         0000271P0000151
110,360.,1.,0.,360.,6.,0.;                                       0000273P0000152
S      1G      4D    274P    152                                        T0000001
