                                                                        S0000001
,,31HOpen CASCADE IGES processor 7.9,13HFilename.iges,                  G0000001
16HOpen CASCADE 7.9,31HOpen CASCADE IGES processor 7.9,32,308,15,308,15,G0000002
,1.,2,2HMM,1,0.01,15H20261004.214557,1E-07,40.05214,7Hjiayuxu,,11,0,    G0000003
15H20261004.214557,;                                                    G0000004
     186       1       0       0       0       0       0       000000000D0000001
     186       0       0       1       0                               0D0000002
     514       2       0       0       0       0       0       000010000D0000003
     514       0       0       1       1                               0D0000004
     510       3       0       0       0       0       0       000010000D0000005
     510       0       0       1       1                               0D0000006
     194       4       0       0       0       0       0       000010000D0000007
     194       0       0       1       1                               0D0000008
     116       5       0       0       0       0       0       000010400D0000009
     116       0       0       1       0                               0D0000010
     123       6       0       0       0       0       0       000010200D0000011
     123       0       0       1       0                               0D0000012
     123       7       0       0       0       0       0       000010200D0000013
     123       0       0       1       0                               0D0000014
     508       8       0       0       0       0       0       000010000D0000015
     508       0       0       2       1                               0D0000016
     504      10       0       0       0       0       0       000010001D0000017
     504       0       0       2       1                               0D0000018
     100      12       0       0       0       0      21       000010000D0000019
     100       0       0       1       0                               0D0000020
     124      13       0       0       0       0       0       000000000D0000021
     124       0       0       1       0                               0D0000022
     502      14       0       0       0       0       0       000010000D0000023
     502       0       0       3       1                               0D0000024
     110      17       0       0       0       0       0       000010000D0000025
     110       0       0       1       0                               0D0000026
     100      18       0       0       0       0       0       000010000D0000027
     100       0       0       1       0                               0D0000028
     100      19       0       0       0       0      31       000010000D0000029
     100       0       0       1       0                               0D0000030
     124      20       0       0       0       0       0       000000000D0000031
     124       0       0       1       0                               0D0000032
     100      21       0       0       0       0       0       000010000D0000033
     100       0       0       1       0                               0D0000034
     110      22       0       0       0       0       0       000010000D0000035
     110       0       0       2       0                               0D0000036
     110      24       0       0       0       0       0       000010000D0000037
     110       0       0       1       0                               0D0000038
     110      25       0       0       0       0       0       000010000D0000039
     110       0       0       1       0                               0D0000040
     110      26       0       0       0       0       0       000010000D0000041
     110       0       0       1       0                               0D0000042
     110      27       0       0       0       0       0       000010000D0000043
     110       0       0       1       0                               0D0000044
     510      28       0       0       0       0       0       000010000D0000045
     510       0       0       1       1                               0D0000046
     190      29       0       0       0       0       0       000010000D0000047
     190       0       0       1       1                               0D0000048
     116      30       0       0       0       0       0       000010400D0000049
     116       0       0       1       0                               0D0000050
     123      31       0       0       0       0       0       000010200D0000051
     123       0       0       1       0                               0D0000052
     123      32       0       0       0       0       0       000010200D0000053
     123       0       0       1       0                               0D0000054
     508      33       0       0       0       0       0       000010000D0000055
     508       0       0       1       1                               0D0000056
     508      34       0       0       0       0       0       000010000D0000057
     508       0       0       1       1                               0D0000058
     510      35       0       0       0       0       0       000010000D0000059
     510       0       0       1       1                               0D0000060
     190      36       0       0       0       0       0       000010000D0000061
     190       0       0       1       1                               0D0000062
     116      37       0       0       0       0       0       000010400D0000063
     116       0       0       1       0                               0D0000064
     123      38       0       0       0       0       0       000010200D0000065
     123       0       0       1       0                               0D0000066
     123      39       0       0       0       0       0       000010200D0000067
     123       0       0       1       0                               0D0000068
     508      40       0       0       0       0       0       000010000D0000069
     508       0       0       1       1                               0D0000070
     508      41       0       0       0       0       0       000010000D0000071
     508       0       0       1       1                               0D0000072
     510      42       0       0       0       0       0       000010000D0000073
     510       0       0       1       1                               0D0000074
     194      43       0       0       0       0       0       000010000D0000075
     194       0       0       1       1                               0D0000076
     116      44       0       0       0       0       0       000010400D0000077
     116       0       0       1       0                               0D0000078
     123      45       0       0       0       0       0       000010200D0000079
     123       0       0       1       0                               0D0000080
     123      46       0       0       0       0       0       000010200D0000081
     123       0       0       1       0                               0D0000082
     508      47       0       0       0       0       0       000010000D0000083
     508       0       0       2       1                               0D0000084
     110      49       0       0       0       0       0       000010000D0000085
     110       0       0       1       0                               0D0000086
     110      50       0       0       0       0       0       000010000D0000087
     110       0       0       1       0                               0D0000088
     110      51       0       0       0       0       0       000010000D0000089
     110       0       0       1       0                               0D0000090
     110      52       0       0       0       0       0       000010000D0000091
     110       0       0       2       0                               0D0000092
186,3,1,0;                                                       0000001P0000001
514,4,5,1,45,1,59,0,73,0;                                        0000003P0000002
510,7,1,1,15;                                                    0000005P0000003
194,9,11,16.,8.53076561,13;                                      0000007P0000004
116,0.,0.,0.,0;                                                  0000009P0000005
123,-0.,-0.,-1.;                                                 0000011P0000006
123,1.,0.,-0.;                                                   0000013P0000007
508,4,0,17,1,0,1,0,37,0,17,2,0,1,0,39,0,17,3,1,1,0,41,0,17,2,1,  0000015P0000008
1,0,43;                                                          0000015P0000009
504,6,19,23,1,23,1,25,23,2,23,1,27,23,2,23,2,29,23,3,23,3,33,23, 0000017P0000010
4,23,4,35,23,4,23,3;                                             0000017P0000011
100,0.,0.,0.,10.,0.,10.,0.;                                      0000019P0000012
124,1.,0.,0.,0.,0.,1.,0.,0.,0.,0.,1.,40.;                        0000021P0000013
502,4,10.,-2.449293598E-15,40.,16.,-3.918869757E-15,0.,          0000023P0000014
7.142857143,-1.749495427E-15,40.,12.857142857,-3.149091769E-15,  0000023P0000015
-1.055266633E-16;                                                0000023P0000016
110,16.,-3.918869757E-15,0.,10.,-2.449293598E-15,40.;            0000025P0000017
100,0.,0.,0.,16.,0.,16.,0.;                                      0000027P0000018
100,0.,0.,0.,7.142857143,0.,7.142857143,0.;                      0000029P0000019
124,1.,0.,0.,0.,0.,1.,0.,0.,0.,0.,1.,40.;                        0000031P0000020
100,0.,0.,0.,12.857142857,0.,12.857142857,0.;                    0000033P0000021
110,12.857142857,-3.149091769E-15,2.026530149E-14,7.142857143,   0000035P0000022
-1.749495427E-15,40.;                                            0000035P0000023
110,0.,-40.447496832,0.,360.,-40.447496832,0.;                   0000037P0000024
110,360.,-40.447496832,0.,360.,0.,0.;                            0000039P0000025
110,360.,0.,0.,0.,0.,0.;                                         0000041P0000026
110,-2.37142157E-11,0.,0.,-2.37142157E-11,-40.447496832,0.;      0000043P0000027
510,47,2,1,55,57;                                                0000045P0000028
190,49,51,53;                                                    0000047P0000029
116,0.,0.,40.,0;                                                 0000049P0000030
123,0.,0.,1.;                                                    0000051P0000031
123,1.,0.,-0.;                                                   0000053P0000032
508,1,0,17,1,1,0;                                                0000055P0000033
508,1,0,17,4,0,0;                                                0000057P0000034
510,61,2,1,69,71;                                                0000059P0000035
190,63,65,67;                                                    0000061P0000036
116,0.,0.,0.,0;                                                  0000063P0000037
123,0.,0.,1.;                                                    0000065P0000038
123,1.,0.,-0.;                                                   0000067P0000039
508,1,0,17,3,1,0;                                                0000069P0000040
508,1,0,17,5,0,0;                                                0000071P0000041
510,75,1,1,83;                                                   0000073P0000042
194,77,79,13.,8.130102354,81;                                    0000075P0000043
116,0.,0.,-1.,0;                                                 0000077P0000044
123,-0.,-0.,-1.;                                                 0000079P0000045
123,1.,0.,-0.;                                                   0000081P0000046
508,4,0,17,4,0,1,0,85,0,17,6,0,1,0,87,0,17,5,1,1,0,89,0,17,6,1,  0000083P0000047
1,0,91;                                                          0000083P0000048
110,0.,-41.416254327,0.,360.,-41.416254327,0.;                   0000085P0000049
110,360.,-41.416254327,-0.,360.,-1.010152545,-0.;                0000087P0000050
110,360.,-1.010152545,0.,0.,-1.010152545,0.;                     0000089P0000051
110,-2.37142157E-11,-1.010152545,0.,-2.37142157E-11,             0000091P0000052
-41.416254327,0.;                                                0000091P0000053
S      1G      4D     92P     53                                        T0000001
