                                                                        S0000001
,,31HOpen CASCADE IGES processor 7.9,13HFilename.iges,                  G0000001
16HOpen CASCADE 7.9,31HOpen CASCADE IGES processor 7.9,32,308,15,308,15,G0000002
,1.,2,2HMM,1,0.01,15H20261004.214557,1E-07,12.009857,7Hjiayuxu,,11,0,   G0000003
15H20261004.214557,;                                                    G0000004
     186       1       0       0       0       0       0       000000000D0000001
     186       0       0       1       0                               0D0000002
     514       2       0       0       0       0       0       000010000D0000003
     514       0       0       2       1                               0D0000004
     510       4       0       0       0       0       0       000010000D0000005
     510       0       0       1       1                               0D0000006
     192       5       0       0       0       0       0       000010000D0000007
     192       0       0       1       1                               0D0000008
     116       6       0       0       0       0       0       000010400D0000009
     116       0       0       1       0                               0D0000010
     123       7       0       0       0       0       0       000010200D0000011
     123       0       0       1       0                               0D0000012
     123       8       0       0       0       0       0       000010200D0000013
     123       0       0       1       0                               0D0000014
     508       9       0       0       0       0       0       000010000D0000015
     508       0       0       2       1                               0D0000016
     504      11       0       0       0       0       0       000010001D0000017
     504       0       0       7       1                               0D0000018
     100      18       0       0       0       0      21       000010000D0000019
     100       0       0       1       0                               0D0000020
     124      19       0       0       0       0       0       000000000D0000021
     124       0       0       1       0                               0D0000022
     502      20       0       0       0       0       0       000010000D0000023
     502       0       0       6       1                               0D0000024
     110      26       0       0       0       0       0       000010000D0000025
     110       0       0       1       0                               0D0000026
     100      27       0       0       0       0      29       000010000D0000027
     100       0       0       1       0                               0D0000028
     124      28       0       0       0       0       0       000000000D0000029
     124       0       0       1       0                               0D0000030
     110      29       0       0       0       0       0       000010000D0000031
     110       0       0       1       0                               0D0000032
     100      30       0       0       0       0      35       000010000D0000033
     100       0       0       1       0                               0D0000034
     124      31       0       0       0       0       0       000000000D0000035
     124       0       0       1       0                               0D0000036
     110      32       0       0       0       0       0       000010000D0000037
     110       0       0       1       0                               0D0000038
     110      33       0       0       0       0       0       000010000D0000039
     110       0       0       1       0                               0D0000040
     110      34       0       0       0       0       0       000010000D0000041
     110       0       0       1       0                               0D0000042
     110      35       0       0       0       0       0       000010000D0000043
     110       0       0       1       0                               0D0000044
     110      36       0       0       0       0       0       000010000D0000045
     110       0       0       1       0                               0D0000046
     110      37       0       0       0       0       0       000010000D0000047
     110       0       0       1       0                               0D0000048
     110      38       0       0       0       0       0       000010000D0000049
     110       0       0       1       0                               0D0000050
     110      39       0       0       0       0       0       000010000D0000051
     110       0       0       1       0                               0D0000052
     110      40       0       0       0       0       0       000010000D0000053
     110       0       0       1       0                               0D0000054
     110      41       0       0       0       0       0       000010000D0000055
     110       0       0       1       0                               0D0000056
     110      42       0       0       0       0       0       000010000D0000057
     110       0       0       1       0                               0D0000058
     110      43       0       0       0       0       0       000010000D0000059
     110       0       0       1       0                               0D0000060
     110      44       0       0       0       0       0       000010000D0000061
     110       0       0       1       0                               0D0000062
     110      45       0       0       0       0       0       000010000D0000063
     110       0       0       1       0                               0D0000064
     110      46       0       0       0       0       0       000010000D0000065
     110       0       0       1       0                               0D0000066
     110      47       0       0       0       0       0       000010000D0000067
     110       0       0       1       0                               0D0000068
     110      48       0       0       0       0       0       000010000D0000069
     110       0       0       1       0                               0D0000070
     110      49       0       0       0       0       0       000010000D0000071
     110       0       0       1       0                               0D0000072
     100      50       0       0       0       0      75       000010000D0000073
     100       0       0       1       0                               0D0000074
     124      51       0       0       0       0       0       000000000D0000075
     124       0       0       1       0                               0D0000076
     110      52       0       0       0       0       0       000010000D0000077
     110       0       0       1       0                               0D0000078
     100      53       0       0       0       0      81       000010000D0000079
     100       0       0       1       0                               0D0000080
     124      54       0       0       0       0       0       000000000D0000081
     124       0       0       1       0                               0D0000082
     110      55       0       0       0       0       0       000010000D0000083
     110       0       0       1       0                               0D0000084
     110      56       0       0       0       0       0       000010000D0000085
     110       0       0       1       0                               0D0000086
     110      57       0       0       0       0       0       000010000D0000087
     110       0       0       1       0                               0D0000088
     110      58       0       0       0       0       0       000010000D0000089
     110       0       0       1       0                               0D0000090
     110      59       0       0       0       0       0       000010000D0000091
     110       0       0       1       0                               0D0000092
     510      60       0       0       0       0       0       000010000D0000093
     510       0       0       1       1                               0D0000094
     194      61       0       0       0       0       0       000010000D0000095
     194       0       0       1       1                               0D0000096
     116      62       0       0       0       0       0       000010400D0000097
     116       0       0       1       0                               0D0000098
     123      63       0       0       0       0       0       000010200D0000099
     123       0       0       1       0                               0D0000100
     123      64       0       0       0       0       0       000010200D0000101
     123       0       0       1       0                               0D0000102
     508      65       0       0       0       0       0       000010000D0000103
     508       0       0       2       1                               0D0000104
     126      67       0       0       0       0       0       000010000D0000105
     126       0       0       2       0                               0D0000106
     110      69       0       0       0       0       0       000010000D0000107
     110       0       0       1       0                               0D0000108
     126      70       0       0       0       0       0       000010000D0000109
     126       0       0       3       0                               0D0000110
     110      73       0       0       0       0       0       000010000D0000111
     110       0       0       1       0                               0D0000112
     510      74       0       0       0       0       0       000010000D0000113
     510       0       0       1       1                               0D0000114
     190      75       0       0       0       0       0       000010000D0000115
     190       0       0       1       1                               0D0000116
     116      76       0       0       0       0       0       000010400D0000117
     116       0       0       1       0                               0D0000118
     123      77       0       0       0       0       0       000010200D0000119
     123       0       0       1       0                               0D0000120
     123      78       0       0       0       0       0       000010200D0000121
     123       0       0       1       0                               0D0000122
     508      79       0       0       0       0       0       000010000D0000123
     508       0       0       2       1                               0D0000124
     508      81       0       0       0       0       0       000010000D0000125
     508       0       0       1       1                               0D0000126
     510      82       0       0       0       0       0       000010000D0000127
     510       0       0       1       1                               0D0000128
     190      83       0       0       0       0       0       000010000D0000129
     190       0       0       1       1                               0D0000130
     116      84       0       0       0       0       0       000010400D0000131
     116       0       0       1       0                               0D0000132
     123      85       0       0       0       0       0       000010200D0000133
     123       0       0       1       0                               0D0000134
     123      86       0       0       0       0       0       000010200D0000135
     123       0       0       1       0                               0D0000136
     508      87       0       0       0       0       0       000010000D0000137
     508       0       0       1       1                               0D0000138
     510      88       0       0       0       0       0       000010000D0000139
     510       0       0       1       1                               0D0000140
     190      89       0       0       0       0       0       000010000D0000141
     190       0       0       1       1                               0D0000142
     116      90       0       0       0       0       0       000010400D0000143
     116       0       0       1       0                               0D0000144
     123      91       0       0       0       0       0       000010200D0000145
     123       0       0       1       0                               0D0000146
     123      92       0       0       0       0       0       000010200D0000147
     123       0       0       1       0                               0D0000148
     508      93       0       0       0       0       0       000010000D0000149
     508       0       0       1       1                               0D0000150
     510      94       0       0       0       0       0       000010000D0000151
     510       0       0       1       1                               0D0000152
     190      95       0       0       0       0       0       000010000D0000153
     190       0       0       1       1                               0D0000154
     116      96       0       0       0       0       0       000010400D0000155
     116       0       0       1       0                               0D0000156
     123      97       0       0       0       0       0       000010200D0000157
     123       0       0       1       0                               0D0000158
     123      98       0       0       0       0       0       000010200D0000159
     123       0       0       1       0                               0D0000160
     508      99       0       0       0       0       0       000010000D0000161
     508       0       0       1       1                               0D0000162
     510     100       0       0       0       0       0       000010000D0000163
     510       0       0       1       1                               0D0000164
     190     101       0       0       0       0       0       000010000D0000165
     190       0       0       1       1                               0D0000166
     116     102       0       0       0       0       0       000010400D0000167
     116       0       0       1       0                               0D0000168
     123     103       0       0       0       0       0       000010200D0000169
     123       0       0       1       0                               0D0000170
     123     104       0       0       0       0       0       000010200D0000171
     123       0       0       1       0                               0D0000172
     508     105       0       0       0       0       0       000010000D0000173
     508       0       0       1       1                               0D0000174
     510     106       0       0       0       0       0       000010000D0000175
     510       0       0       1       1                               0D0000176
     190     107       0       0       0       0       0       000010000D0000177
     190       0       0       1       1                               0D0000178
     116     108       0       0       0       0       0       000010400D0000179
     116       0       0       1       0                               0D0000180
     123     109       0       0       0       0       0       000010200D0000181
     123       0       0       1       0                               0D0000182
     123     110       0       0       0       0       0       000010200D0000183
     123       0       0       1       0                               0D0000184
     508     111       0       0       0       0       0       000010000D0000185
     508       0       0       1       1                               0D0000186
     510     112       0       0       0       0       0       000010000D0000187
     510       0       0       1       1                               0D0000188
     190     113       0       0       0       0       0       000010000D0000189
     190       0       0       1       1                               0D0000190
     116     114       0       0       0       0       0       000010400D0000191
     116       0       0       1       0                               0D0000192
     123     115       0       0       0       0       0       000010200D0000193
     123       0       0       1       0                               0D0000194
     123     116       0       0       0       0       0       000010200D0000195
     123       0       0       1       0                               0D0000196
     508     117       0       0       0       0       0       000010000D0000197
     508       0       0       1       1                               0D0000198
     510     118       0       0       0       0       0       000010000D0000199
     510       0       0       1       1                               0D0000200
     190     119       0       0       0       0       0       000010000D0000201
     190       0       0       1       1                               0D0000202
     116     120       0       0       0       0       0       000010400D0000203
     116       0       0       1       0                               0D0000204
     123     121       0       0       0       0       0       000010200D0000205
     123       0       0       1       0                               0D0000206
     123     122       0       0       0       0       0       000010200D0000207
     123       0       0       1       0                               0D0000208
     508     123       0       0       0       0       0       000010000D0000209
     508       0       0       1       1                               0D0000210
     510     124       0       0       0       0       0       000010000D0000211
     510       0       0       1       1                               0D0000212
     190     125       0       0       0       0       0       000010000D0000213
     190       0       0       1       1                               0D0000214
     116     126       0       0       0       0       0       000010400D0000215
     116       0       0       1       0                               0D0000216
     123     127       0       0       0       0       0       000010200D0000217
     123       0       0       1       0                               0D0000218
     123     128       0       0       0       0       0       000010200D0000219
     123       0       0       1       0                               0D0000220
     508     129       0       0       0       0       0       000010000D0000221
     508       0       0       2       1                               0D0000222
     508     131       0       0       0       0       0       000010000D0000223
     508       0       0       1       1                               0D0000224
     510     132       0       0       0       0       0       000010000D0000225
     510       0       0       1       1                               0D0000226
     192     133       0       0       0       0       0       000010000D0000227
     192       0       0       1       1                               0D0000228
     116     134       0       0       0       0       0       000010400D0000229
     116       0       0       1       0                               0D0000230
     123     135       0       0       0       0       0       000010200D0000231
     123       0       0       1       0                               0D0000232
     123     136       0       0       0       0       0       000010200D0000233
     123       0       0       1       0                               0D0000234
     508     137       0       0       0       0       0       000010000D0000235
     508       0       0       2       1                               0D0000236
     110     139       0       0       0       0       0       000010000D0000237
     110       0       0       1       0                               0D0000238
     110     140       0       0       0       0       0       000010000D0000239
     110       0       0       1       0                               0D0000240
     110     141       0       0       0       0       0       000010000D0000241
     110       0       0       1       0                               0D0000242
     110     142       0       0       0       0       0       000010000D0000243
     110       0       0       1       0                               0D0000244
     510     143       0       0       0       0       0       000010000D0000245
     510       0       0       1       1                               0D0000246
     194     144       0       0       0       0       0       000010000D0000247
     194       0       0       1       1                               0D0000248
     116     145       0       0       0       0       0       000010400D0000249
     116       0       0       1       0                               0D0000250
     123     146       0       0       0       0       0       000010200D0000251
     123       0       0       1       0                               0D0000252
     123     147       0       0       0       0       0       000010200D0000253
     123       0       0       1       0                               0D0000254
     508     148       0       0       0       0       0       000010000D0000255
     508       0       0       2       1                               0D0000256
     110     150       0       0       0       0       0       000010000D0000257
     110       0       0       1       0                               0D0000258
     126     151       0       0       0       0       0       000010000D0000259
     126       0       0       2       0                               0D0000260
     110     153       0       0       0       0       0       000010000D0000261
     110       0       0       1       0                               0D0000262
     126     154       0       0       0       0       0       000010000D0000263
     126       0       0       3       0                               0D0000264
186,3,1,0;                                                       0000001P0000001
514,13,5,1,93,1,113,0,127,0,139,1,151,1,163,1,175,1,187,1,199,1, 0000003P0000002
211,1,225,0,245,0;                                               0000003P0000003
510,7,1,1,15;                                                    0000005P0000004
192,9,11,1.5,13;                                                 0000007P0000005
116,0.,0.,0.,0;                                                  0000009P0000006
123,0.,0.,1.;                                                    0000011P0000007
123,1.,0.,-0.;                                                   0000013P0000008
508,4,0,17,1,0,1,0,85,0,17,2,0,1,0,87,0,17,3,1,1,0,89,0,17,2,1,  0000015P0000009
1,0,91;                                                          0000015P0000010
504,27,19,23,1,23,1,25,23,2,23,1,27,23,2,23,2,31,23,1,23,3,33,   0000017P0000011
23,3,23,3,37,23,4,23,5,39,23,6,23,4,41,23,7,23,6,43,23,8,23,7,   0000017P0000012
45,23,9,23,8,47,23,5,23,9,49,23,4,23,10,51,23,10,23,11,53,23,5,  0000017P0000013
23,11,55,23,6,23,12,57,23,12,23,10,59,23,11,23,13,61,23,9,23,13, 0000017P0000014
63,23,7,23,14,65,23,14,23,12,67,23,13,23,15,69,23,8,23,15,71,23, 0000017P0000015
15,23,14,73,23,16,23,16,77,23,16,23,17,79,23,17,23,17,83,23,17,  0000017P0000016
23,18;                                                           0000017P0000017
100,0.,0.,0.,1.5,0.,1.5,0.;                                      0000019P0000018
124,1.,0.,0.,0.,0.,-1.,0.,0.,0.,0.,-1.,-5.5;                     0000021P0000019
502,18,1.5,0.,-5.5,1.5,0.,0.,1.,0.,-6.,-2.75,-1.58771324,0.,     0000023P0000020
-2.75,1.58771324,0.,0.,-3.175426481,0.,2.75,-1.58771324,0.,2.75, 0000023P0000021
1.58771324,0.,0.,3.175426481,0.,-2.75,-1.58771324,12.,-2.75,     0000023P0000022
1.58771324,12.,0.,-3.175426481,12.,0.,3.175426481,12.,2.75,      0000023P0000023
-1.58771324,12.,2.75,1.58771324,12.,1.5,0.,12.,1.5,0.,5.,        0000023P0000024
2.220446049E-16,0.,3.5;                                          0000023P0000025
110,1.5,0.,0.,1.5,0.,-5.5;                                       0000025P0000026
100,0.,0.,0.,1.5,0.,1.5,0.;                                      0000027P0000027
124,1.,0.,0.,0.,0.,-1.,0.,0.,0.,0.,-1.,0.;                       0000029P0000028
110,1.5,0.,-5.5,1.,0.,-6.;                                       0000031P0000029
100,0.,0.,0.,1.,0.,1.,0.;                                        0000033P0000030
124,1.,0.,0.,0.,0.,-1.,0.,0.,0.,0.,-1.,-6.;                      0000035P0000031
110,-2.75,-1.58771324,0.,-2.75,1.58771324,0.;                    0000037P0000032
110,0.,-3.175426481,0.,-2.75,-1.58771324,0.;                     0000039P0000033
110,2.75,-1.58771324,0.,1.188693063E-13,-3.175426481,0.;         0000041P0000034
110,2.75,1.58771324,0.,2.75,-1.58771324,0.;                      0000043P0000035
110,0.,3.175426481,0.,2.75,1.58771324,0.;                        0000045P0000036
110,-2.75,1.58771324,0.,-1.188693063E-13,3.175426481,0.;         0000047P0000037
110,-2.75,-1.58771324,0.,-2.75,-1.58771324,12.;                  0000049P0000038
110,-2.75,-1.58771324,12.,-2.75,1.58771324,12.;                  0000051P0000039
110,-2.75,1.58771324,0.,-2.75,1.58771324,12.;                    0000053P0000040
110,0.,-3.175426481,0.,0.,-3.175426481,12.;                      0000055P0000041
110,0.,-3.175426481,12.,-2.75,-1.58771324,12.;                   0000057P0000042
110,-2.75,1.58771324,12.,-1.188693063E-13,3.175426481,12.;       0000059P0000043
110,0.,3.175426481,0.,0.,3.175426481,12.;                        0000061P0000044
110,2.75,-1.58771324,0.,2.75,-1.58771324,12.;                    0000063P0000045
110,2.75,-1.58771324,12.,1.188693063E-13,-3.175426481,12.;       0000065P0000046
110,0.,3.175426481,12.,2.75,1.58771324,12.;                      0000067P0000047
110,2.75,1.58771324,0.,2.75,1.58771324,12.;                      0000069P0000048
110,2.75,1.58771324,12.,2.75,-1.58771324,12.;                    0000071P0000049
100,0.,0.,0.,1.5,0.,1.5,0.;                                      0000073P0000050
124,1.,0.,0.,0.,0.,1.,0.,0.,0.,0.,1.,12.;                        0000075P0000051
110,1.5,0.,12.,1.5,0.,5.;                                        0000077P0000052
100,0.,0.,0.,1.5,0.,1.5,0.;                                      0000079P0000053
124,1.,0.,0.,0.,0.,1.,0.,0.,0.,0.,1.,5.;                         0000081P0000054
110,1.5,0.,5.,3.043960907E-17,0.,3.5;                            0000083P0000055
110,0.,-5.5,0.,360.,-5.5,0.;                                     0000085P0000056
110,360.,-5.5,0.,360.,0.,0.;                                     0000087P0000057
110,360.,0.,0.,0.,0.,0.;                                         0000089P0000058
110,0.,0.,0.,0.,-5.5,0.;                                         0000091P0000059
510,95,1,1,103;                                                  0000093P0000060
194,97,99,1.5,45.,101;                                           0000095P0000061
116,0.,0.,-5.5,0;                                                0000097P0000062
123,0.,0.,1.;                                                    0000099P0000063
123,1.,0.,-0.;                                                   0000101P0000064
508,4,0,17,4,0,1,0,105,0,17,1,1,1,0,107,0,17,4,1,1,0,109,0,17,5, 0000103P0000065
0,1,0,111;                                                       0000103P0000066
126,1,1,1,0,1,0,0.,0.,0.707106781,0.707106781,1.,1.,360.,        0000105P0000067
-0.707106781,-0.,360.,0.,0.,0.,0.707106781,0.,0.,1.;             0000105P0000068
110,360.,0.,0.,0.,0.,0.;                                         0000107P0000069
126,1,1,1,0,1,0,0.,0.,0.707106781,0.707106781,1.,1.,             0000109P0000070
-2.37142157E-11,0.,0.,-2.37142157E-11,-0.707106781,0.,0.,        0000109P0000071
0.707106781,0.,0.,1.;                                            0000109P0000072
110,0.,-0.707106781,0.,360.,-0.707106781,0.;                     0000111P0000073
510,115,2,1,123,125;                                             0000113P0000074
190,117,119,121;                                                 0000115P0000075
116,-2.75,-1.58771324,0.,0;                                      0000117P0000076
123,0.,0.,1.;                                                    0000119P0000077
123,1.,0.,-0.;                                                   0000121P0000078
508,6,0,17,6,0,0,0,17,7,0,0,0,17,8,0,0,0,17,9,0,0,0,17,10,0,0,0, 0000123P0000079
17,11,0,0;                                                       0000123P0000080
508,1,0,17,3,1,0;                                                0000125P0000081
510,129,1,1,137;                                                 0000127P0000082
190,131,133,135;                                                 0000129P0000083
116,1.5,0.,-6.,0;                                                0000131P0000084
123,0.,0.,1.;                                                    0000133P0000085
123,1.,0.,-0.;                                                   0000135P0000086
508,1,0,17,5,0,0;                                                0000137P0000087
510,141,1,1,149;                                                 0000139P0000088
190,143,145,147;                                                 0000141P0000089
116,-2.75,-1.58771324,0.,0;                                      0000143P0000090
123,-1.,0.,0.;                                                   0000145P0000091
123,0.,1.,0.;                                                    0000147P0000092
508,4,0,17,12,1,0,0,17,13,1,0,0,17,14,0,0,0,17,6,0,0;            0000149P0000093
510,153,1,1,161;                                                 0000151P0000094
190,155,157,159;                                                 0000153P0000095
116,0.,-3.175426481,0.,0;                                        0000155P0000096
123,-0.5,-0.866025404,0.;                                        0000157P0000097
123,-0.866025404,0.5,0.;                                         0000159P0000098
508,4,0,17,15,1,0,0,17,16,1,0,0,17,12,0,0,0,17,7,0,0;            0000161P0000099
510,165,1,1,173;                                                 0000163P0000100
190,167,169,171;                                                 0000165P0000101
116,-2.75,1.58771324,0.,0;                                       0000167P0000102
123,-0.5,0.866025404,0.;                                         0000169P0000103
123,0.866025404,0.5,0.;                                          0000171P0000104
508,4,0,17,14,1,0,0,17,17,1,0,0,17,18,0,0,0,17,11,0,0;           0000173P0000105
510,177,1,1,185;                                                 0000175P0000106
190,179,181,183;                                                 0000177P0000107
116,2.75,-1.58771324,0.,0;                                       0000179P0000108
123,0.5,-0.866025404,0.;                                         0000181P0000109
123,-0.866025404,-0.5,0.;                                        0000183P0000110
508,4,0,17,19,1,0,0,17,20,1,0,0,17,15,0,0,0,17,8,0,0;            0000185P0000111
510,189,1,1,197;                                                 0000187P0000112
190,191,193,195;                                                 0000189P0000113
116,0.,3.175426481,0.,0;                                         0000191P0000114
123,0.5,0.866025404,0.;                                          0000193P0000115
123,0.866025404,-0.5,0.;                                         0000195P0000116
508,4,0,17,18,1,0,0,17,21,1,0,0,17,22,0,0,0,17,10,0,0;           0000197P0000117
510,201,1,1,209;                                                 0000199P0000118
190,203,205,207;                                                 0000201P0000119
116,2.75,1.58771324,0.,0;                                        0000203P0000120
123,1.,0.,0.;                                                    0000205P0000121
123,0.,-1.,0.;                                                   0000207P0000122
508,4,0,17,22,1,0,0,17,23,1,0,0,17,19,0,0,0,17,9,0,0;            0000209P0000123
510,213,2,1,221,223;                                             0000211P0000124
190,215,217,219;                                                 0000213P0000125
116,-2.75,-1.58771324,12.,0;                                     0000215P0000126
123,0.,0.,1.;                                                    0000217P0000127
123,1.,0.,-0.;                                                   0000219P0000128
508,6,0,17,13,0,0,0,17,16,0,0,0,17,20,0,0,0,17,23,0,0,0,17,21,0, 0000221P0000129
0,0,17,17,0,0;                                                   0000221P0000130
508,1,0,17,24,0,0;                                               0000223P0000131
510,227,1,1,235;                                                 0000225P0000132
192,229,231,1.5,233;                                             0000227P0000133
116,0.,0.,12.,0;                                                 0000229P0000134
123,0.,0.,1.;                                                    0000231P0000135
123,1.,0.,-0.;                                                   0000233P0000136
508,4,0,17,25,0,1,0,237,0,17,24,0,1,0,239,0,17,25,1,1,0,241,0,   0000235P0000137
17,26,1,1,0,243;                                                 0000235P0000138
110,360.,-7.,0.,360.,0.,0.;                                      0000237P0000139
110,360.,0.,0.,0.,0.,0.;                                         0000239P0000140
110,0.,0.,0.,0.,-7.,0.;                                          0000241P0000141
110,0.,-7.,0.,360.,-7.,0.;                                       0000243P0000142
510,247,1,1,255;                                                 0000245P0000143
194,249,251,1.5,45.,253;                                         0000247P0000144
116,0.,0.,5.,0;                                                  0000249P0000145
123,0.,0.,1.;                                                    0000251P0000146
123,1.,0.,-0.;                                                   0000253P0000147
508,4,1,23,18,1,1,0,257,0,17,27,0,1,0,259,0,17,26,0,1,0,261,0,   0000255P0000148
17,27,1,1,0,263;                                                 0000255P0000149
110,2.37142157E-11,-2.121320344,0.,360.,-2.121320344,0.;         0000257P0000150
126,1,1,1,0,1,0,0.,0.,2.121320344,2.121320344,1.,1.,360.,        0000259P0000151
-2.121320344,-0.,360.,0.,0.,0.,2.121320344,0.,0.,1.;             0000259P0000152
110,360.,0.,0.,0.,0.,0.;                                         0000261P0000153
126,1,1,1,0,1,0,0.,0.,2.121320344,2.121320344,1.,1.,             0000263P0000154
2.37142157E-11,0.,0.,2.37142157E-11,-2.121320344,-0.,0.,         0000263P0000155
2.121320344,0.,0.,1.;                                            0000263P0000156
S      1G      4D    264P    156                                        T0000001
