                                                                        S0000001
,,31HOpen CASCADE IGES processor 7.9,13HFilename.iges,                  G0000001
16HOpen CASCADE 7.9,31HOpen CASCADE IGES processor 7.9,32,308,15,308,15,G0000002
,1.,2,2HMM,1,0.01,15H20261004.214557,1E-07,80.,7Hjiayuxu,,11,0,         G0000003
15H20261004.214557,;                                                    G0000004
     186       1       0       0       0       0       0       000000000D0000001
     186       0       0       1       0                               0D0000002
     514       2       0       0       0       0       0       000010000D0000003
     514       0       0       3       1                               0D0000004
     510       5       0       0       0       0       0       000010000D0000005
     510       0       0       1       1                               0D0000006
     190       6       0       0       0       0       0       000010000D0000007
     190       0       0       1       1                               0D0000008
     116       7       0       0       0       0       0       000010400D0000009
     116       0       0       1       0                               0D0000010
     123       8       0       0       0       0       0       000010200D0000011
     123       0       0       1       0                               0D0000012
     123       9       0       0       0       0       0       000010200D0000013
     123       0       0       1       0                               0D0000014
     508      10       0       0       0       0       0       000010000D0000015
     508       0       0       1       1                               0D0000016
     504      11       0       0       0       0       0       000010001D0000017
     504       0       0      21       1                               0D0000018
     110      32       0       0       0       0       0       000010000D0000019
     110       0       0       1       0                               0D0000020
     502      33       0       0       0       0       0       000010000D0000021
     502       0       0      10       1                               0D0000022
     110      43       0       0       0       0       0       000010000D0000023
     110       0       0       1       0                               0D0000024
     110      44       0       0       0       0       0       000010000D0000025
     110       0       0       1       0                               0D0000026
     110      45       0       0       0       0       0       000010000D0000027
     110       0       0       1       0                               0D0000028
     110      46       0       0       0       0       0       000010000D0000029
     110       0       0       1       0                               0D0000030
     110      47       0       0       0       0       0       000010000D0000031
     110       0       0       1       0                               0D0000032
     110      48       0       0       0       0       0       000010000D0000033
     110       0       0       1       0                               0D0000034
     110      49       0       0       0       0       0       000010000D0000035
     110       0       0       1       0                               0D0000036
     110      50       0       0       0       0       0       000010000D0000037
     110       0       0       1       0                               0D0000038
     110      51       0       0       0       0       0       000010000D0000039
     110       0       0       1       0                               0D0000040
     110      52       0       0       0       0       0       000010000D0000041
     110       0       0       1       0                               0D0000042
     110      53       0       0       0       0       0       000010000D0000043
     110       0       0       1       0                               0D0000044
     110      54       0       0       0       0       0       000010000D0000045
     110       0       0       1       0                               0D0000046
     110      55       0       0       0       0       0       000010000D0000047
     110       0       0       1       0                               0D0000048
     110      56       0       0       0       0       0       000010000D0000049
     110       0       0       1       0                               0D0000050
     110      57       0       0       0       0       0       000010000D0000051
     110       0       0       1       0                               0D0000052
     110      58       0       0       0       0       0       000010000D0000053
     110       0       0       1       0                               0D0000054
     110      59       0       0       0       0       0       000010000D0000055
     110       0       0       1       0                               0D0000056
     110      60       0       0       0       0       0       000010000D0000057
     110       0       0       1       0                               0D0000058
     110      61       0       0       0       0       0       000010000D0000059
     110       0       0       1       0                               0D0000060
     110      62       0       0       0       0       0       000010000D0000061
     110       0       0       1       0                               0D0000062
     110      63       0       0       0       0       0       000010000D0000063
     110       0       0       1       0                               0D0000064
     110      64       0       0       0       0       0       000010000D0000065
     110       0       0       1       0                               0D0000066
     110      65       0       0       0       0       0       000010000D0000067
     110       0       0       1       0                               0D0000068
     110      66       0       0       0       0       0       000010000D0000069
     110       0       0       1       0                               0D0000070
     110      67       0       0       0       0       0       000010000D0000071
     110       0       0       1       0                               0D0000072
     110      68       0       0       0       0       0       000010000D0000073
     110       0       0       1       0                               0D0000074
     110      69       0       0       0       0       0       000010000D0000075
     110       0       0       1       0                               0D0000076
     110      70       0       0       0       0       0       000010000D0000077
     110       0       0       1       0                               0D0000078
     110      71       0       0       0       0       0       000010000D0000079
     110       0       0       1       0                               0D0000080
     110      72       0       0       0       0       0       000010000D0000081
     110       0       0       1       0                               0D0000082
     110      73       0       0       0       0       0       000010000D0000083
     110       0       0       1       0                               0D0000084
     110      74       0       0       0       0       0       000010000D0000085
     110       0       0       1       0                               0D0000086
     110      75       0       0       0       0       0       000010000D0000087
     110       0       0       1       0                               0D0000088
     110      76       0       0       0       0       0       000010000D0000089
     110       0       0       1       0                               0D0000090
     110      77       0       0       0       0       0       000010000D0000091
     110       0       0       1       0                               0D0000092
     110      78       0       0       0       0       0       000010000D0000093
     110       0       0       1       0                               0D0000094
     110      79       0       0       0       0       0       000010000D0000095
     110       0       0       1       0                               0D0000096
     110      80       0       0       0       0       0       000010000D0000097
     110       0       0       1       0                               0D0000098
     110      81       0       0       0       0       0       000010000D0000099
     110       0       0       1       0                               0D0000100
     110      82       0       0       0       0       0       000010000D0000101
     110       0       0       1       0                               0D0000102
     110      83       0       0       0       0       0       000010000D0000103
     110       0       0       1       0                               0D0000104
     110      84       0       0       0       0       0       000010000D0000105
     110       0       0       1       0                               0D0000106
     110      85       0       0       0       0       0       000010000D0000107
     110       0       0       1       0                               0D0000108
     110      86       0       0       0       0       0       000010000D0000109
     110       0       0       1       0                               0D0000110
     110      87       0       0       0       0       0       000010000D0000111
     110       0       0       1       0                               0D0000112
     110      88       0       0       0       0       0       000010000D0000113
     110       0       0       1       0                               0D0000114
     110      89       0       0       0       0       0       000010000D0000115
     110       0       0       1       0                               0D0000116
     110      90       0       0       0       0       0       000010000D0000117
     110       0       0       1       0                               0D0000118
     110      91       0       0       0       0       0       000010000D0000119
     110       0       0       1       0                               0D0000120
     110      92       0       0       0       0       0       000010000D0000121
     110       0       0       1       0                               0D0000122
     110      93       0       0       0       0       0       000010000D0000123
     110       0       0       1       0                               0D0000124
     110      94       0       0       0       0       0       000010000D0000125
     110       0       0       1       0                               0D0000126
     110      95       0       0       0       0       0       000010000D0000127
     110       0       0       1       0                               0D0000128
     110      96       0       0       0       0       0       000010000D0000129
     110       0       0       1       0                               0D0000130
     110      97       0       0       0       0       0       000010000D0000131
     110       0       0       1       0                               0D0000132
     110      98       0       0       0       0       0       000010000D0000133
     110       0       0       1       0                               0D0000134
     110      99       0       0       0       0       0       000010000D0000135
     110       0       0       1       0                               0D0000136
     110     100       0       0       0       0       0       000010000D0000137
     110       0       0       1       0                               0D0000138
     110     101       0       0       0       0       0       000010000D0000139
     110       0       0       1       0                               0D0000140
     110     102       0       0       0       0       0       000010000D0000141
     110       0       0       1       0                               0D0000142
     110     103       0       0       0       0       0       000010000D0000143
     110       0       0       1       0                               0D0000144
     110     104       0       0       0       0       0       000010000D0000145
     110       0       0       1       0                               0D0000146
     110     105       0       0       0       0       0       000010000D0000147
     110       0       0       1       0                               0D0000148
     110     106       0       0       0       0       0       000010000D0000149
     110       0       0       1       0                               0D0000150
     110     107       0       0       0       0       0       000010000D0000151
     110       0       0       1       0                               0D0000152
     110     108       0       0       0       0       0       000010000D0000153
     110       0       0       1       0                               0D0000154
     110     109       0       0       0       0       0       000010000D0000155
     110       0       0       1       0                               0D0000156
     110     110       0       0       0       0       0       000010000D0000157
     110       0       0       1       0                               0D0000158
     110     111       0       0       0       0       0       000010000D0000159
     110       0       0       1       0                               0D0000160
     110     112       0       0       0       0       0       000010000D0000161
     110       0       0       1       0                               0D0000162
     110     113       0       0       0       0       0       000010000D0000163
     110       0       0       1       0                               0D0000164
     110     114       0       0       0       0       0       000010000D0000165
     110       0       0       1       0                               0D0000166
     110     115       0       0       0       0       0       000010000D0000167
     110       0       0       1       0                               0D0000168
     110     116       0       0       0       0       0       000010000D0000169
     110       0       0       1       0                               0D0000170
     110     117       0       0       0       0       0       000010000D0000171
     110       0       0       1       0                               0D0000172
     110     118       0       0       0       0       0       000010000D0000173
     110       0       0       1       0                               0D0000174
     110     119       0       0       0       0       0       000010000D0000175
     110       0       0       1       0                               0D0000176
     110     120       0       0       0       0       0       000010000D0000177
     110       0       0       1       0                               0D0000178
     110     121       0       0       0       0       0       000010000D0000179
     110       0       0       1       0                               0D0000180
     110     122       0       0       0       0       0       000010000D0000181
     110       0       0       1       0                               0D0000182
     110     123       0       0       0       0       0       000010000D0000183
     110       0       0       1       0                               0D0000184
     110     124       0       0       0       0       0       000010000D0000185
     110       0       0       1       0                               0D0000186
     110     125       0       0       0       0       0       000010000D0000187
     110       0       0       1       0                               0D0000188
     510     126       0       0       0       0       0       000010000D0000189
     510       0       0       1       1                               0D0000190
     190     127       0       0       0       0       0       000010000D0000191
     190       0       0       1       1                               0D0000192
     116     128       0       0       0       0       0       000010400D0000193
     116       0       0       1       0                               0D0000194
     123     129       0       0       0       0       0       000010200D0000195
     123       0       0       1       0                               0D0000196
     123     130       0       0       0       0       0       000010200D0000197
     123       0       0       1       0                               0D0000198
     508     131       0       0       0       0       0       000010000D0000199
     508       0       0       1       1                               0D0000200
     510     132       0       0       0       0       0       000010000D0000201
     510       0       0       1       1                               0D0000202
     190     133       0       0       0       0       0       000010000D0000203
     190       0       0       1       1                               0D0000204
     116     134       0       0       0       0       0       000010400D0000205
     116       0       0       1       0                               0D0000206
     123     135       0       0       0       0       0       000010200D0000207
     123       0       0       1       0                               0D0000208
     123     136       0       0       0       0       0       000010200D0000209
     123       0       0       1       0                               0D0000210
     508     137       0       0       0       0       0       000010000D0000211
     508       0       0       1       1                               0D0000212
     508     138       0       0       0       0       0       000010000D0000213
     508       0       0       1       1                               0D0000214
     508     139       0       0       0       0       0       000010000D0000215
     508       0       0       1       1                               0D0000216
     508     140       0       0       0       0       0       000010000D0000217
     508       0       0       1       1                               0D0000218
     508     141       0       0       0       0       0       000010000D0000219
     508       0       0       1       1                               0D0000220
     508     142       0       0       0       0       0       000010000D0000221
     508       0       0       1       1                               0D0000222
     508     143       0       0       0       0       0       000010000D0000223
     508       0       0       1       1                               0D0000224
     510     144       0       0       0       0       0       000010000D0000225
     510       0       0       1       1                               0D0000226
     190     145       0       0       0       0       0       000010000D0000227
     190       0       0       1       1                               0D0000228
     116     146       0       0       0       0       0       000010400D0000229
     116       0       0       1       0                               0D0000230
     123     147       0       0       0       0       0       000010200D0000231
     123       0       0       1       0                               0D0000232
     123     148       0       0       0       0       0       000010200D0000233
     123       0       0       1       0                               0D0000234
     508     149       0       0       0       0       0       000010000D0000235
     508       0       0       1       1                               0D0000236
     510     150       0       0       0       0       0       000010000D0000237
     510       0       0       1       1                               0D0000238
     190     151       0       0       0       0       0       000010000D0000239
     190       0       0       1       1                               0D0000240
     116     152       0       0       0       0       0       000010400D0000241
     116       0       0       1       0                               0D0000242
     123     153       0       0       0       0       0       000010200D0000243
     123       0       0       1       0                               0D0000244
     123     154       0       0       0       0       0       000010200D0000245
     123       0       0       1       0                               0D0000246
     508     155       0       0       0       0       0       000010000D0000247
     508       0       0       1       1                               0D0000248
     508     156       0       0       0       0       0       000010000D0000249
     508       0       0       1       1                               0D0000250
     508     157       0       0       0       0       0       000010000D0000251
     508       0       0       1       1                               0D0000252
     508     158       0       0       0       0       0       000010000D0000253
     508       0       0       1       1                               0D0000254
     508     159       0       0       0       0       0       000010000D0000255
     508       0       0       1       1                               0D0000256
     508     160       0       0       0       0       0       000010000D0000257
     508       0       0       1       1                               0D0000258
     508     161       0       0       0       0       0       000010000D0000259
     508       0       0       1       1                               0D0000260
     510     162       0       0       0       0       0       000010000D0000261
     510       0       0       1       1                               0D0000262
     190     163       0       0       0       0       0       000010000D0000263
     190       0       0       1       1                               0D0000264
     116     164       0       0       0       0       0       000010400D0000265
     116       0       0       1       0                               0D0000266
     123     165       0       0       0       0       0       000010200D0000267
     123       0       0       1       0                               0D0000268
     123     166       0       0       0       0       0       000010200D0000269
     123       0       0       1       0                               0D0000270
     508     167       0       0       0       0       0       000010000D0000271
     508       0       0       1       1                               0D0000272
     510     168       0       0       0       0       0       000010000D0000273
     510       0       0       1       1                               0D0000274
     190     169       0       0       0       0       0       000010000D0000275
     190       0       0       1       1                               0D0000276
     116     170       0       0       0       0       0       000010400D0000277
     116       0       0       1       0                               0D0000278
     123     171       0       0       0       0       0       000010200D0000279
     123       0       0       1       0                               0D0000280
     123     172       0       0       0       0       0       000010200D0000281
     123       0       0       1       0                               0D0000282
     508     173       0       0       0       0       0       000010000D0000283
     508       0       0       1       1                               0D0000284
     510     174       0       0       0       0       0       000010000D0000285
     510       0       0       1       1                               0D0000286
     190     175       0       0       0       0       0       000010000D0000287
     190       0       0       1       1                               0D0000288
     116     176       0       0       0       0       0       000010400D0000289
     116       0       0       1       0                               0D0000290
     123     177       0       0       0       0       0       000010200D0000291
     123       0       0       1       0                               0D0000292
     123     178       0       0       0       0       0       000010200D0000293
     123       0       0       1       0                               0D0000294
     508     179       0       0       0       0       0       000010000D0000295
     508       0       0       1       1                               0D0000296
     510     180       0       0       0       0       0       000010000D0000297
     510       0       0       1       1                               0D0000298
     190     181       0       0       0       0       0       000010000D0000299
     190       0       0       1       1                               0D0000300
     116     182       0       0       0       0       0       000010400D0000301
     116       0       0       1       0                               0D0000302
     123     183       0       0       0       0       0       000010200D0000303
     123       0       0       1       0                               0D0000304
     123     184       0       0       0       0       0       000010200D0000305
     123       0       0       1       0                               0D0000306
     508     185       0       0       0       0       0       000010000D0000307
     508       0       0       1       1                               0D0000308
     510     186       0       0       0       0       0       000010000D0000309
     510       0       0       1       1                               0D0000310
     190     187       0       0       0       0       0       000010000D0000311
     190       0       0       1       1                               0D0000312
     116     188       0       0       0       0       0       000010400D0000313
     116       0       0       1       0                               0D0000314
     123     189       0       0       0       0       0       000010200D0000315
     123       0       0       1       0                               0D0000316
     123     190       0       0       0       0       0       000010200D0000317
     123       0       0       1       0                               0D0000318
     508     191       0       0       0       0       0       000010000D0000319
     508       0       0       1       1                               0D0000320
     510     192       0       0       0       0       0       000010000D0000321
     510       0       0       1       1                               0D0000322
     190     193       0       0       0       0       0       000010000D0000323
     190       0       0       1       1                               0D0000324
     116     194       0       0       0       0       0       000010400D0000325
     116       0       0       1       0                               0D0000326
     123     195       0       0       0       0       0       000010200D0000327
     123       0       0       1       0                               0D0000328
     123     196       0       0       0       0       0       000010200D0000329
     123       0       0       1       0                               0D0000330
     508     197       0       0       0       0       0       000010000D0000331
     508       0       0       1       1                               0D0000332
     510     198       0       0       0       0       0       000010000D0000333
     510       0       0       1       1                               0D0000334
     190     199       0       0       0       0       0       000010000D0000335
     190       0       0       1       1                               0D0000336
     116     200       0       0       0       0       0       000010400D0000337
     116       0       0       1       0                               0D0000338
     123     201       0       0       0       0       0       000010200D0000339
     123       0       0       1       0                               0D0000340
     123     202       0       0       0       0       0       000010200D0000341
     123       0       0       1       0                               0D0000342
     508     203       0       0       0       0       0       000010000D0000343
     508       0       0       1       1                               0D0000344
     510     204       0       0       0       0       0       000010000D0000345
     510       0       0       1       1                               0D0000346
     190     205       0       0       0       0       0       000010000D0000347
     190       0       0       1       1                               0D0000348
     116     206       0       0       0       0       0       000010400D0000349
     116       0       0       1       0                               0D0000350
     123     207       0       0       0       0       0       000010200D0000351
     123       0       0       1       0                               0D0000352
     123     208       0       0       0       0       0       000010200D0000353
     123       0       0       1       0                               0D0000354
     508     209       0       0       0       0       0       000010000D0000355
     508       0       0       1       1                               0D0000356
     510     210       0       0       0       0       0       000010000D0000357
     510       0       0       1       1                               0D0000358
     190     211       0       0       0       0       0       000010000D0000359
     190       0       0       1       1                               0D0000360
     116     212       0       0       0       0       0       000010400D0000361
     116       0       0       1       0                               0D0000362
     123     213       0       0       0       0       0       000010200D0000363
     123       0       0       1       0                               0D0000364
     123     214       0       0       0       0       0       000010200D0000365
     123       0       0       1       0                               0D0000366
     508     215       0       0       0       0       0       000010000D0000367
     508       0       0       1       1                               0D0000368
     510     216       0       0       0       0       0       000010000D0000369
     510       0       0       1       1                               0D0000370
     190     217       0       0       0       0       0       000010000D0000371
     190       0       0       1       1                               0D0000372
     116     218       0       0       0       0       0       000010400D0000373
     116       0       0       1       0                               0D0000374
     123     219       0       0       0       0       0       000010200D0000375
     123       0       0       1       0                               0D0000376
     123     220       0       0       0       0       0       000010200D0000377
     123       0       0       1       0                               0D0000378
     508     221       0       0       0       0       0       000010000D0000379
     508       0       0       1       1                               0D0000380
     510     222       0       0       0       0       0       000010000D0000381
     510       0       0       1       1                               0D0000382
     190     223       0       0       0       0       0       000010000D0000383
     190       0       0       1       1                               0D0000384
     116     224       0       0       0       0       0       000010400D0000385
     116       0       0       1       0                               0D0000386
     123     225       0       0       0       0       0       000010200D0000387
     123       0       0       1       0                               0D0000388
     123     226       0       0       0       0       0       000010200D0000389
     123       0       0       1       0                               0D0000390
     508     227       0       0       0       0       0       000010000D0000391
     508       0       0       1       1                               0D0000392
     510     228       0       0       0       0       0       000010000D0000393
     510       0       0       1       1                               0D0000394
     190     229       0       0       0       0       0       000010000D0000395
     190       0       0       1       1                               0D0000396
     116     230       0       0       0       0       0       000010400D0000397
     116       0       0       1       0                               0D0000398
     123     231       0       0       0       0       0       000010200D0000399
     123       0       0       1       0                               0D0000400
     123     232       0       0       0       0       0       000010200D0000401
     123       0       0       1       0                               0D0000402
     508     233       0       0       0       0       0       000010000D0000403
     508       0       0       1       1                               0D0000404
     510     234       0       0       0       0       0       000010000D0000405
     510       0       0       1       1                               0D0000406
     190     235       0       0       0       0       0       000010000D0000407
     190       0       0       1       1                               0D0000408
     116     236       0       0       0       0       0       000010400D0000409
     116       0       0       1       0                               0D0000410
     123     237       0       0       0       0       0       000010200D0000411
     123       0       0       1       0                               0D0000412
     123     238       0       0       0       0       0       000010200D0000413
     123       0       0       1       0                               0D0000414
     508     239       0       0       0       0       0       000010000D0000415
     508       0       0       1       1                               0D0000416
     510     240       0       0       0       0       0       000010000D0000417
     510       0       0       1       1                               0D0000418
     190     241       0       0       0       0       0       000010000D0000419
     190       0       0       1       1                               0D0000420
     116     242       0       0       0       0       0       000010400D0000421
     116       0       0       1       0                               0D0000422
     123     243       0       0       0       0       0       000010200D0000423
     123       0       0       1       0                               0D0000424
     123     244       0       0       0       0       0       000010200D0000425
     123       0       0       1       0                               0D0000426
     508     245       0       0       0       0       0       000010000D0000427
     508       0       0       1       1                               0D0000428
     510     246       0       0       0       0       0       000010000D0000429
     510       0       0       1       1                               0D0000430
     190     247       0       0       0       0       0       000010000D0000431
     190       0       0       1       1                               0D0000432
     116     248       0       0       0       0       0       000010400D0000433
     116       0       0       1       0                               0D0000434
     123     249       0       0       0       0       0       000010200D0000435
     123       0       0       1       0                               0D0000436
     123     250       0       0       0       0       0       000010200D0000437
     123       0       0       1       0                               0D0000438
     508     251       0       0       0       0       0       000010000D0000439
     508       0       0       1       1                               0D0000440
     510     252       0       0       0       0       0       000010000D0000441
     510       0       0       1       1                               0D0000442
     190     253       0       0       0       0       0       000010000D0000443
     190       0       0       1       1                               0D0000444
     116     254       0       0       0       0       0       000010400D0000445
     116       0       0       1       0                               0D0000446
     123     255       0       0       0       0       0       000010200D0000447
     123       0       0       1       0                               0D0000448
     123     256       0       0       0       0       0       000010200D0000449
     123       0       0       1       0                               0D0000450
     508     257       0       0       0       0       0       000010000D0000451
     508       0       0       1       1                               0D0000452
     510     258       0       0       0       0       0       000010000D0000453
     510       0       0       1       1                               0D0000454
     190     259       0       0       0       0       0       000010000D0000455
     190       0       0       1       1                               0D0000456
     116     260       0       0       0       0       0       000010400D0000457
     116       0       0       1       0                               0D0000458
     123     261       0       0       0       0       0       000010200D0000459
     123       0       0       1       0                               0D0000460
     123     262       0       0       0       0       0       000010200D0000461
     123       0       0       1       0                               0D0000462
     508     263       0       0       0       0       0       000010000D0000463
     508       0       0       1       1                               0D0000464
     510     264       0       0       0       0       0       000010000D0000465
     510       0       0       1       1                               0D0000466
     190     265       0       0       0       0       0       000010000D0000467
     190       0       0       1       1                               0D0000468
     116     266       0       0       0       0       0       000010400D0000469
     116       0       0       1       0                               0D0000470
     123     267       0       0       0       0       0       000010200D0000471
     123       0       0       1       0                               0D0000472
     123     268       0       0       0       0       0       000010200D0000473
     123       0       0       1       0                               0D0000474
     508     269       0       0       0       0       0       000010000D0000475
     508       0       0       1       1                               0D0000476
     510     270       0       0       0       0       0       000010000D0000477
     510       0       0       1       1                               0D0000478
     190     271       0       0       0       0       0       000010000D0000479
     190       0       0       1       1                               0D0000480
     116     272       0       0       0       0       0       000010400D0000481
     116       0       0       1       0                               0D0000482
     123     273       0       0       0       0       0       000010200D0000483
     123       0       0       1       0                               0D0000484
     123     274       0       0       0       0       0       000010200D0000485
     123       0       0       1       0                               0D0000486
     508     275       0       0       0       0       0       000010000D0000487
     508       0       0       1       1                               0D0000488
     510     276       0       0       0       0       0       000010000D0000489
     510       0       0       1       1                               0D0000490
     190     277       0       0       0       0       0       000010000D0000491
     190       0       0       1       1                               0D0000492
     116     278       0       0       0       0       0       000010400D0000493
     116       0       0       1       0                               0D0000494
     123     279       0       0       0       0       0       000010200D0000495
     123       0       0       1       0                               0D0000496
     123     280       0       0       0       0       0       000010200D0000497
     123       0       0       1       0                               0D0000498
     508     281       0       0       0       0       0       000010000D0000499
     508       0       0       1       1                               0D0000500
     510     282       0       0       0       0       0       000010000D0000501
     510       0       0       1       1                               0D0000502
     190     283       0       0       0       0       0       000010000D0000503
     190       0       0       1       1                               0D0000504
     116     284       0       0       0       0       0       000010400D0000505
     116       0       0       1       0                               0D0000506
     123     285       0       0       0       0       0       000010200D0000507
     123       0       0       1       0                               0D0000508
     123     286       0       0       0       0       0       000010200D0000509
     123       0       0       1       0                               0D0000510
     508     287       0       0       0       0       0       000010000D0000511
     508       0       0       1       1                               0D0000512
     510     288       0       0       0       0       0       000010000D0000513
     510       0       0       1       1                               0D0000514
     190     289       0       0       0       0       0       000010000D0000515
     190       0       0       1       1                               0D0000516
     116     290       0       0       0       0       0       000010400D0000517
     116       0       0       1       0                               0D0000518
     123     291       0       0       0       0       0       000010200D0000519
     123       0       0       1       0                               0D0000520
     123     292       0       0       0       0       0       000010200D0000521
     123       0       0       1       0                               0D0000522
     508     293       0       0       0       0       0       000010000D0000523
     508       0       0       1       1                               0D0000524
     510     294       0       0       0       0       0       000010000D0000525
     510       0       0       1       1                               0D0000526
     190     295       0       0       0       0       0       000010000D0000527
     190       0       0       1       1                               0D0000528
     116     296       0       0       0       0       0       000010400D0000529
     116       0       0       1       0                               0D0000530
     123     297       0       0       0       0       0       000010200D0000531
     123       0       0       1       0                               0D0000532
     123     298       0       0       0       0       0       000010200D0000533
     123       0       0       1       0                               0D0000534
     508     299       0       0       0       0       0       000010000D0000535
     508       0       0       1       1                               0D0000536
     510     300       0       0       0       0       0       000010000D0000537
     510       0       0       1       1                               0D0000538
     190     301       0       0       0       0       0       000010000D0000539
     190       0       0       1       1                               0D0000540
     116     302       0       0       0       0       0       000010400D0000541
     116       0       0       1       0                               0D0000542
     123     303       0       0       0       0       0       000010200D0000543
     123       0       0       1       0                               0D0000544
     123     304       0       0       0       0       0       000010200D0000545
     123       0       0       1       0                               0D0000546
     508     305       0       0       0       0       0       000010000D0000547
     508       0       0       1       1                               0D0000548
     510     306       0       0       0       0       0       000010000D0000549
     510       0       0       1       1                               0D0000550
     190     307       0       0       0       0       0       000010000D0000551
     190       0       0       1       1                               0D0000552
     116     308       0       0       0       0       0       000010400D0000553
     116       0       0       1       0                               0D0000554
     123     309       0       0       0       0       0       000010200D0000555
     123       0       0       1       0                               0D0000556
     123     310       0       0       0       0       0       000010200D0000557
     123       0       0       1       0                               0D0000558
     508     311       0       0       0       0       0       000010000D0000559
     508       0       0       1       1                               0D0000560
186,3,1,0;                                                       0000001P0000001
514,30,5,0,189,0,201,1,225,1,237,0,261,1,273,1,285,0,297,1,309,  0000003P0000002
0,321,1,333,0,345,1,357,0,369,1,381,0,393,1,405,0,417,1,429,0,   0000003P0000003
441,1,453,0,465,1,477,0,489,1,501,0,513,1,525,0,537,0,549,1;     0000003P0000004
510,7,1,1,15;                                                    0000005P0000005
190,9,11,13;                                                     0000007P0000006
116,0.,0.,0.,0;                                                  0000009P0000007
123,1.,0.,-0.;                                                   0000011P0000008
123,0.,0.,1.;                                                    0000013P0000009
508,4,0,17,1,0,0,0,17,2,1,0,0,17,3,1,0,0,17,4,0,0;               0000015P0000010
504,84,19,21,1,21,2,23,21,1,21,3,25,21,3,21,4,27,21,2,21,4,29,   0000017P0000011
21,1,21,5,31,21,2,21,6,33,21,5,21,6,35,21,6,21,7,37,21,4,21,7,   0000017P0000012
39,21,8,21,9,41,21,9,21,10,43,21,11,21,10,45,21,8,21,11,47,21,   0000017P0000013
12,21,13,49,21,13,21,14,51,21,15,21,14,53,21,12,21,15,55,21,16,  0000017P0000014
21,17,57,21,17,21,18,59,21,19,21,18,61,21,16,21,19,63,21,20,21,  0000017P0000015
21,65,21,21,21,22,67,21,23,21,22,69,21,20,21,23,71,21,24,21,25,  0000017P0000016
73,21,25,21,26,75,21,27,21,26,77,21,24,21,27,79,21,28,21,29,81,  0000017P0000017
21,29,21,30,83,21,31,21,30,85,21,28,21,31,87,21,3,21,32,89,21,   0000017P0000018
32,21,7,91,21,5,21,32,93,21,33,21,34,95,21,34,21,35,97,21,36,21, 0000017P0000019
35,99,21,33,21,36,101,21,37,21,38,103,21,38,21,39,105,21,40,21,  0000017P0000020
39,107,21,37,21,40,109,21,41,21,42,111,21,42,21,43,113,21,44,21, 0000017P0000021
43,115,21,41,21,44,117,21,45,21,46,119,21,46,21,47,121,21,48,21, 0000017P0000022
47,123,21,45,21,48,125,21,49,21,50,127,21,50,21,51,129,21,52,21, 0000017P0000023
51,131,21,49,21,52,133,21,53,21,54,135,21,54,21,55,137,21,56,21, 0000017P0000024
55,139,21,53,21,56,141,21,33,21,8,143,21,34,21,9,145,21,36,21,   0000017P0000025
11,147,21,35,21,10,149,21,37,21,12,151,21,38,21,13,153,21,40,21, 0000017P0000026
15,155,21,39,21,14,157,21,41,21,16,159,21,42,21,17,161,21,44,21, 0000017P0000027
19,163,21,43,21,18,165,21,45,21,20,167,21,46,21,21,169,21,48,21, 0000017P0000028
23,171,21,47,21,22,173,21,49,21,24,175,21,50,21,25,177,21,52,21, 0000017P0000029
27,179,21,51,21,26,181,21,53,21,28,183,21,54,21,29,185,21,56,21, 0000017P0000030
31,187,21,55,21,30;                                              0000017P0000031
110,0.,0.,0.,0.,0.,3.;                                           0000019P0000032
502,56,0.,0.,0.,0.,0.,3.,0.,60.,0.,0.,60.,3.,80.,0.,0.,80.,0.,   0000021P0000033
3.,80.,60.,3.,66.,10.,3.,14.,10.,3.,14.,13.,3.,66.,13.,3.,66.,   0000021P0000034
17.,3.,14.,17.,3.,14.,20.,3.,66.,20.,3.,66.,24.,3.,14.,24.,3.,   0000021P0000035
14.,27.,3.,66.,27.,3.,66.,31.,3.,14.,31.,3.,14.,34.,3.,66.,34.,  0000021P0000036
3.,66.,38.,3.,14.,38.,3.,14.,41.,3.,66.,41.,3.,66.,45.,3.,14.,   0000021P0000037
45.,3.,14.,48.,3.,66.,48.,3.,80.,60.,0.,66.,10.,0.,14.,10.,0.,   0000021P0000038
14.,13.,0.,66.,13.,0.,66.,17.,0.,14.,17.,0.,14.,20.,0.,66.,20.,  0000021P0000039
0.,66.,24.,0.,14.,24.,0.,14.,27.,0.,66.,27.,0.,66.,31.,0.,14.,   0000021P0000040
31.,0.,14.,34.,0.,66.,34.,0.,66.,38.,0.,14.,38.,0.,14.,41.,0.,   0000021P0000041
66.,41.,0.,66.,45.,0.,14.,45.,0.,14.,48.,0.,66.,48.,0.;          0000021P0000042
110,0.,0.,0.,0.,60.,0.;                                          0000023P0000043
110,0.,60.,0.,0.,60.,3.;                                         0000025P0000044
110,0.,0.,3.,0.,60.,3.;                                          0000027P0000045
110,0.,0.,0.,80.,0.,0.;                                          0000029P0000046
110,0.,0.,3.,80.,0.,3.;                                          0000031P0000047
110,80.,0.,0.,80.,0.,3.;                                         0000033P0000048
110,80.,0.,3.,80.,60.,3.;                                        0000035P0000049
110,0.,60.,3.,80.,60.,3.;                                        0000037P0000050
110,66.,10.,3.,14.,10.,3.;                                       0000039P0000051
110,14.,10.,3.,14.,13.,3.;                                       0000041P0000052
110,66.,13.,3.,14.,13.,3.;                                       0000043P0000053
110,66.,10.,3.,66.,13.,3.;                                       0000045P0000054
110,66.,17.,3.,14.,17.,3.;                                       0000047P0000055
110,14.,17.,3.,14.,20.,3.;                                       0000049P0000056
110,66.,20.,3.,14.,20.,3.;                                       0000051P0000057
110,66.,17.,3.,66.,20.,3.;                                       0000053P0000058
110,66.,24.,3.,14.,24.,3.;                                       0000055P0000059
110,14.,24.,3.,14.,27.,3.;                                       0000057P0000060
110,66.,27.,3.,14.,27.,3.;                                       0000059P0000061
110,66.,24.,3.,66.,27.,3.;                                       0000061P0000062
110,66.,31.,3.,14.,31.,3.;                                       0000063P0000063
110,14.,31.,3.,14.,34.,3.;                                       0000065P0000064
110,66.,34.,3.,14.,34.,3.;                                       0000067P0000065
110,66.,31.,3.,66.,34.,3.;                                       0000069P0000066
110,66.,38.,3.,14.,38.,3.;                                       0000071P0000067
110,14.,38.,3.,14.,41.,3.;                                       0000073P0000068
110,66.,41.,3.,14.,41.,3.;                                       0000075P0000069
110,66.,38.,3.,66.,41.,3.;                                       0000077P0000070
110,66.,45.,3.,14.,45.,3.;                                       0000079P0000071
110,14.,45.,3.,14.,48.,3.;                                       0000081P0000072
110,66.,48.,3.,14.,48.,3.;                                       0000083P0000073
110,66.,45.,3.,66.,48.,3.;                                       0000085P0000074
110,0.,60.,0.,80.,60.,0.;                                        0000087P0000075
110,80.,60.,0.,80.,60.,3.;                                       0000089P0000076
110,80.,0.,0.,80.,60.,0.;                                        0000091P0000077
110,66.,10.,0.,14.,10.,0.;                                       0000093P0000078
110,14.,10.,0.,14.,13.,0.;                                       0000095P0000079
110,66.,13.,0.,14.,13.,0.;                                       0000097P0000080
110,66.,10.,0.,66.,13.,0.;                                       0000099P0000081
110,66.,17.,0.,14.,17.,0.;                                       0000101P0000082
110,14.,17.,0.,14.,20.,0.;                                       0000103P0000083
110,66.,20.,0.,14.,20.,0.;                                       0000105P0000084
110,66.,17.,0.,66.,20.,0.;                                       0000107P0000085
110,66.,24.,0.,14.,24.,0.;                                       0000109P0000086
110,14.,24.,0.,14.,27.,0.;                                       0000111P0000087
110,66.,27.,0.,14.,27.,0.;                                       0000113P0000088
110,66.,24.,0.,66.,27.,0.;                                       0000115P0000089
110,66.,31.,0.,14.,31.,0.;                                       0000117P0000090
110,14.,31.,0.,14.,34.,0.;                                       0000119P0000091
110,66.,34.,0.,14.,34.,0.;                                       0000121P0000092
110,66.,31.,0.,66.,34.,0.;                                       0000123P0000093
110,66.,38.,0.,14.,38.,0.;                                       0000125P0000094
110,14.,38.,0.,14.,41.,0.;                                       0000127P0000095
110,66.,41.,0.,14.,41.,0.;                                       0000129P0000096
110,66.,38.,0.,66.,41.,0.;                                       0000131P0000097
110,66.,45.,0.,14.,45.,0.;                                       0000133P0000098
110,14.,45.,0.,14.,48.,0.;                                       0000135P0000099
110,66.,48.,0.,14.,48.,0.;                                       0000137P0000100
110,66.,45.,0.,66.,48.,0.;                                       0000139P0000101
110,66.,10.,0.,66.,10.,3.;                                       0000141P0000102
110,14.,10.,0.,14.,10.,3.;                                       0000143P0000103
110,66.,13.,0.,66.,13.,3.;                                       0000145P0000104
110,14.,13.,0.,14.,13.,3.;                                       0000147P0000105
110,66.,17.,0.,66.,17.,3.;                                       0000149P0000106
110,14.,17.,0.,14.,17.,3.;                                       0000151P0000107
110,66.,20.,0.,66.,20.,3.;                                       0000153P0000108
110,14.,20.,0.,14.,20.,3.;                                       0000155P0000109
110,66.,24.,0.,66.,24.,3.;                                       0000157P0000110
110,14.,24.,0.,14.,24.,3.;                                       0000159P0000111
110,66.,27.,0.,66.,27.,3.;                                       0000161P0000112
110,14.,27.,0.,14.,27.,3.;                                       0000163P0000113
110,66.,31.,0.,66.,31.,3.;                                       0000165P0000114
110,14.,31.,0.,14.,31.,3.;                                       0000167P0000115
110,66.,34.,0.,66.,34.,3.;                                       0000169P0000116
110,14.,34.,0.,14.,34.,3.;                                       0000171P0000117
110,66.,38.,0.,66.,38.,3.;                                       0000173P0000118
110,14.,38.,0.,14.,38.,3.;                                       0000175P0000119
110,66.,41.,0.,66.,41.,3.;                                       0000177P0000120
110,14.,41.,0.,14.,41.,3.;                                       0000179P0000121
110,66.,45.,0.,66.,45.,3.;                                       0000181P0000122
110,14.,45.,0.,14.,45.,3.;                                       0000183P0000123
110,66.,48.,0.,66.,48.,3.;                                       0000185P0000124
110,14.,48.,0.,14.,48.,3.;                                       0000187P0000125
510,191,1,1,199;                                                 0000189P0000126
190,193,195,197;                                                 0000191P0000127
116,0.,0.,0.,0;                                                  0000193P0000128
123,-0.,1.,0.;                                                   0000195P0000129
123,0.,0.,1.;                                                    0000197P0000130
508,4,0,17,5,0,0,0,17,1,1,0,0,17,6,1,0,0,17,7,0,0;               0000199P0000131
510,203,7,1,211,213,215,217,219,221,223;                         0000201P0000132
190,205,207,209;                                                 0000203P0000133
116,0.,0.,3.,0;                                                  0000205P0000134
123,0.,0.,1.;                                                    0000207P0000135
123,1.,0.,-0.;                                                   0000209P0000136
508,4,0,17,4,0,0,0,17,6,1,0,0,17,8,1,0,0,17,9,0,0;               0000211P0000137
508,4,0,17,10,1,0,0,17,11,1,0,0,17,12,0,0,0,17,13,0,0;           0000213P0000138
508,4,0,17,14,1,0,0,17,15,1,0,0,17,16,0,0,0,17,17,0,0;           0000215P0000139
508,4,0,17,18,1,0,0,17,19,1,0,0,17,20,0,0,0,17,21,0,0;           0000217P0000140
508,4,0,17,22,1,0,0,17,23,1,0,0,17,24,0,0,0,17,25,0,0;           0000219P0000141
508,4,0,17,26,1,0,0,17,27,1,0,0,17,28,0,0,0,17,29,0,0;           0000221P0000142
508,4,0,17,30,1,0,0,17,31,1,0,0,17,32,0,0,0,17,33,0,0;           0000223P0000143
510,227,1,1,235;                                                 0000225P0000144
190,229,231,233;                                                 0000227P0000145
116,0.,60.,0.,0;                                                 0000229P0000146
123,-0.,1.,0.;                                                   0000231P0000147
123,0.,0.,1.;                                                    0000233P0000148
508,4,0,17,34,0,0,0,17,3,1,0,0,17,9,1,0,0,17,35,0,0;             0000235P0000149
510,239,7,1,247,249,251,253,255,257,259;                         0000237P0000150
190,241,243,245;                                                 0000239P0000151
116,0.,0.,0.,0;                                                  0000241P0000152
123,0.,0.,1.;                                                    0000243P0000153
123,1.,0.,-0.;                                                   0000245P0000154
508,4,0,17,2,0,0,0,17,5,1,0,0,17,36,1,0,0,17,34,0,0;             0000247P0000155
508,4,0,17,37,1,0,0,17,38,1,0,0,17,39,0,0,0,17,40,0,0;           0000249P0000156
508,4,0,17,41,1,0,0,17,42,1,0,0,17,43,0,0,0,17,44,0,0;           0000251P0000157
508,4,0,17,45,1,0,0,17,46,1,0,0,17,47,0,0,0,17,48,0,0;           0000253P0000158
508,4,0,17,49,1,0,0,17,50,1,0,0,17,51,0,0,0,17,52,0,0;           0000255P0000159
508,4,0,17,53,1,0,0,17,54,1,0,0,17,55,0,0,0,17,56,0,0;           0000257P0000160
508,4,0,17,57,1,0,0,17,58,1,0,0,17,59,0,0,0,17,60,0,0;           0000259P0000161
510,263,1,1,271;                                                 0000261P0000162
190,265,267,269;                                                 0000263P0000163
116,80.,0.,0.,0;                                                 0000265P0000164
123,1.,0.,-0.;                                                   0000267P0000165
123,0.,0.,1.;                                                    0000269P0000166
508,4,0,17,7,0,0,0,17,36,1,0,0,17,35,1,0,0,17,8,0,0;             0000271P0000167
510,275,1,1,283;                                                 0000273P0000168
190,277,279,281;                                                 0000275P0000169
116,14.,10.,-1.,0;                                               0000277P0000170
123,-0.,1.,0.;                                                   0000279P0000171
123,0.,0.,1.;                                                    0000281P0000172
508,4,0,17,61,0,0,0,17,37,1,0,0,17,62,1,0,0,17,10,0,0;           0000283P0000173
510,287,1,1,295;                                                 0000285P0000174
190,289,291,293;                                                 0000287P0000175
116,66.,10.,-1.,0;                                               0000289P0000176
123,1.,0.,-0.;                                                   0000291P0000177
123,0.,0.,1.;                                                    0000293P0000178
508,4,0,17,61,0,0,0,17,40,1,0,0,17,63,1,0,0,17,13,0,0;           0000295P0000179
510,299,1,1,307;                                                 0000297P0000180
190,301,303,305;                                                 0000299P0000181
116,14.,10.,-1.,0;                                               0000301P0000182
123,1.,0.,-0.;                                                   0000303P0000183
123,0.,0.,1.;                                                    0000305P0000184
508,4,0,17,62,0,0,0,17,38,1,0,0,17,64,1,0,0,17,11,0,0;           0000307P0000185
510,311,1,1,319;                                                 0000309P0000186
190,313,315,317;                                                 0000311P0000187
116,14.,13.,-1.,0;                                               0000313P0000188
123,-0.,1.,0.;                                                   0000315P0000189
123,0.,0.,1.;                                                    0000317P0000190
508,4,0,17,63,0,0,0,17,39,1,0,0,17,64,1,0,0,17,12,0,0;           0000319P0000191
510,323,1,1,331;                                                 0000321P0000192
190,325,327,329;                                                 0000323P0000193
116,14.,17.,-1.,0;                                               0000325P0000194
123,-0.,1.,0.;                                                   0000327P0000195
123,0.,0.,1.;                                                    0000329P0000196
508,4,0,17,65,0,0,0,17,41,1,0,0,17,66,1,0,0,17,14,0,0;           0000331P0000197
510,335,1,1,343;                                                 0000333P0000198
190,337,339,341;                                                 0000335P0000199
116,66.,17.,-1.,0;                                               0000337P0000200
123,1.,0.,-0.;                                                   0000339P0000201
123,0.,0.,1.;                                                    0000341P0000202
508,4,0,17,65,0,0,0,17,44,1,0,0,17,67,1,0,0,17,17,0,0;           0000343P0000203
510,347,1,1,355;                                                 0000345P0000204
190,349,351,353;                                                 0000347P0000205
116,14.,17.,-1.,0;                                               0000349P0000206
123,1.,0.,-0.;                                                   0000351P0000207
123,0.,0.,1.;                                                    0000353P0000208
508,4,0,17,66,0,0,0,17,42,1,0,0,17,68,1,0,0,17,15,0,0;           0000355P0000209
510,359,1,1,367;                                                 0000357P0000210
190,361,363,365;                                                 0000359P0000211
116,14.,20.,-1.,0;                                               0000361P0000212
123,-0.,1.,0.;                                                   0000363P0000213
123,0.,0.,1.;                                                    0000365P0000214
508,4,0,17,67,0,0,0,17,43,1,0,0,17,68,1,0,0,17,16,0,0;           0000367P0000215
510,371,1,1,379;                                                 0000369P0000216
190,373,375,377;                                                 0000371P0000217
116,14.,24.,-1.,0;                                               0000373P0000218
123,-0.,1.,0.;                                                   0000375P0000219
123,0.,0.,1.;                                                    0000377P0000220
508,4,0,17,69,0,0,0,17,45,1,0,0,17,70,1,0,0,17,18,0,0;           0000379P0000221
510,383,1,1,391;                                                 0000381P0000222
190,385,387,389;                                                 0000383P0000223
116,66.,24.,-1.,0;                                               0000385P0000224
123,1.,0.,-0.;                                                   0000387P0000225
123,0.,0.,1.;                                                    0000389P0000226
508,4,0,17,69,0,0,0,17,48,1,0,0,17,71,1,0,0,17,21,0,0;           0000391P0000227
510,395,1,1,403;                                                 0000393P0000228
190,397,399,401;                                                 0000395P0000229
116,14.,24.,-1.,0;                                               0000397P0000230
123,1.,0.,-0.;                                                   0000399P0000231
123,0.,0.,1.;                                                    0000401P0000232
508,4,0,17,70,0,0,0,17,46,1,0,0,17,72,1,0,0,17,19,0,0;           0000403P0000233
510,407,1,1,415;                                                 0000405P0000234
190,409,411,413;                                                 0000407P0000235
116,14.,27.,-1.,0;                                               0000409P0000236
123,-0.,1.,0.;                                                   0000411P0000237
123,0.,0.,1.;                                                    0000413P0000238
508,4,0,17,71,0,0,0,17,47,1,0,0,17,72,1,0,0,17,20,0,0;           0000415P0000239
510,419,1,1,427;                                                 0000417P0000240
190,421,423,425;                                                 0000419P0000241
116,14.,31.,-1.,0;                                               0000421P0000242
123,-0.,1.,0.;                                                   0000423P0000243
123,0.,0.,1.;                                                    0000425P0000244
508,4,0,17,73,0,0,0,17,49,1,0,0,17,74,1,0,0,17,22,0,0;           0000427P0000245
510,431,1,1,439;                                                 0000429P0000246
190,433,435,437;                                                 0000431P0000247
116,66.,31.,-1.,0;                                               0000433P0000248
123,1.,0.,-0.;                                                   0000435P0000249
123,0.,0.,1.;                                                    0000437P0000250
508,4,0,17,73,0,0,0,17,52,1,0,0,17,75,1,0,0,17,25,0,0;           0000439P0000251
510,443,1,1,451;                                                 0000441P0000252
190,445,447,449;                                                 0000443P0000253
116,14.,31.,-1.,0;                                               0000445P0000254
123,1.,0.,-0.;                                                   0000447P0000255
123,0.,0.,1.;                                                    0000449P0000256
508,4,0,17,74,0,0,0,17,50,1,0,0,17,76,1,0,0,17,23,0,0;           0000451P0000257
510,455,1,1,463;                                                 0000453P0000258
190,457,459,461;                                                 0000455P0000259
116,14.,34.,-1.,0;                                               0000457P0000260
123,-0.,1.,0.;                                                   0000459P0000261
123,0.,0.,1.;                                                    0000461P0000262
508,4,0,17,75,0,0,0,17,51,1,0,0,17,76,1,0,0,17,24,0,0;           0000463P0000263
510,467,1,1,475;                                                 0000465P0000264
190,469,471,473;                                                 0000467P0000265
116,14.,38.,-1.,0;                                               0000469P0000266
123,-0.,1.,0.;                                                   0000471P0000267
123,0.,0.,1.;                                                    0000473P0000268
508,4,0,17,77,0,0,0,17,53,1,0,0,17,78,1,0,0,17,26,0,0;           0000475P0000269
510,479,1,1,487;                                                 0000477P0000270
190,481,483,485;                                                 0000479P0000271
116,66.,38.,-1.,0;                                               0000481P0000272
123,1.,0.,-0.;                                                   0000483P0000273
123,0.,0.,1.;                                                    0000485P0000274
508,4,0,17,77,0,0,0,17,56,1,0,0,17,79,1,0,0,17,29,0,0;           0000487P0000275
510,491,1,1,499;                                                 0000489P0000276
190,493,495,497;                                                 0000491P0000277
116,14.,38.,-1.,0;                                               0000493P0000278
123,1.,0.,-0.;                                                   0000495P0000279
123,0.,0.,1.;                                                    0000497P0000280
508,4,0,17,78,0,0,0,17,54,1,0,0,17,80,1,0,0,17,27,0,0;           0000499P0000281
510,503,1,1,511;                                                 0000501P0000282
190,505,507,509;                                                 0000503P0000283
116,14.,41.,-1.,0;                                               0000505P0000284
123,-0.,1.,0.;                                                   0000507P0000285
123,0.,0.,1.;                                                    0000509P0000286
508,4,0,17,79,0,0,0,17,55,1,0,0,17,80,1,0,0,17,28,0,0;           0000511P0000287
510,515,1,1,523;                                                 0000513P0000288
190,517,519,521;                                                 0000515P0000289
116,14.,45.,-1.,0;                                               0000517P0000290
123,-0.,1.,0.;                                                   0000519P0000291
123,0.,0.,1.;                                                    0000521P0000292
508,4,0,17,81,0,0,0,17,57,1,0,0,17,82,1,0,0,17,30,0,0;           0000523P0000293
510,527,1,1,535;                                                 0000525P0000294
190,529,531,533;                                                 0000527P0000295
116,66.,45.,-1.,0;                                               0000529P0000296
123,1.,0.,-0.;                                                   0000531P0000297
123,0.,0.,1.;                                                    0000533P0000298
508,4,0,17,81,0,0,0,17,60,1,0,0,17,83,1,0,0,17,33,0,0;           0000535P0000299
510,539,1,1,547;                                                 0000537P0000300
190,541,543,545;                                                 0000539P0000301
116,14.,48.,-1.,0;                                               0000541P0000302
123,-0.,1.,0.;                                                   0000543P0000303
123,0.,0.,1.;                                                    0000545P0000304
508,4,0,17,83,0,0,0,17,59,1,0,0,17,84,1,0,0,17,32,0,0;           0000547P0000305
510,551,1,1,559;                                                 0000549P0000306
190,553,555,557;                                                 0000551P0000307
116,14.,45.,-1.,0;                                               0000553P0000308
123,1.,0.,-0.;                                                   0000555P0000309
123,0.,0.,1.;                                                    0000557P0000310
508,4,0,17,82,0,0,0,17,58,1,0,0,17,84,1,0,0,17,31,0,0;           0000559P0000311
S      1G      4D    560P    311                                        T0000001
