                                                                        S0000001
,,31HOpen CASCADE IGES processor 7.9,13HFilename.iges,                  G0000001
16HOpen CASCADE 7.9,31HOpen CASCADE IGES processor 7.9,32,308,15,308,15,G0000002
,1.,2,2HMM,1,0.01,15H20261004.214557,1E-07,16.011566,7Hjiayuxu,,11,0,   G0000003
15H20261004.214557,;                                                    G0000004
     186       1       0       0       0       0       0       000000000D0000001
     186       0       0       1       0                               0D0000002
     514       2       0       0       0       0       0       000010000D0000003
     514       0       0       2       1                               0D0000004
     510       4       0       0       0       0       0       000010000D0000005
     510       0       0       1       1                               0D0000006
     194       5       0       0       0       0       0       000010000D0000007
     194       0       0       1       1                               0D0000008
     116       6       0       0       0       0       0       000010400D0000009
     116       0       0       1       0                               0D0000010
     123       7       0       0       0       0       0       000010200D0000011
     123       0       0       1       0                               0D0000012
     123       8       0       0       0       0       0       000010200D0000013
     123       0       0       1       0                               0D0000014
     508       9       0       0       0       0       0       000010000D0000015
     508       0       0       2       1                               0D0000016
     504      11       0       0       0       0       0       000010001D0000017
     504       0       0       7       1                               0D0000018
     110      18       0       0       0       0       0       000010000D0000019
     110       0       0       1       0                               0D0000020
     502      19       0       0       0       0       0       000010000D0000021
     502       0       0       7       1                               0D0000022
     100      26       0       0       0       0      25       000010000D0000023
     100       0       0       1       0                               0D0000024
     124      27       0       0       0       0       0       000000000D0000025
     124       0       0       1       0                               0D0000026
     100      28       0       0       0       0      29       000010000D0000027
     100       0       0       1       0                               0D0000028
     124      29       0       0       0       0       0       000000000D0000029
     124       0       0       1       0                               0D0000030
     100      30       0       0       0       0      33       000010000D0000031
     100       0       0       1       0                               0D0000032
     124      31       0       0       0       0       0       000000000D0000033
     124       0       0       1       0                               0D0000034
     110      32       0       0       0       0       0       000010000D0000035
     110       0       0       1       0                               0D0000036
     100      33       0       0       0       0      39       000010000D0000037
     100       0       0       1       0                               0D0000038
     124      34       0       0       0       0       0       000000000D0000039
     124       0       0       1       0                               0D0000040
     110      35       0       0       0       0       0       000010000D0000041
     110       0       0       1       0                               0D0000042
     100      36       0       0       0       0      45       000010000D0000043
     100       0       0       1       0                               0D0000044
     124      37       0       0       0       0       0       000000000D0000045
     124       0       0       1       0                               0D0000046
     110      38       0       0       0       0       0       000010000D0000047
     110       0       0       1       0                               0D0000048
     100      39       0       0       0       0      51       000010000D0000049
     100       0       0       1       0                               0D0000050
     124      40       0       0       0       0       0       000000000D0000051
     124       0       0       1       0                               0D0000052
     100      41       0       0       0       0      55       000010000D0000053
     100       0       0       1       0                               0D0000054
     124      42       0       0       0       0       0       000000000D0000055
     124       0       0       1       0                               0D0000056
     100      43       0       0       0       0      59       000010000D0000057
     100       0       0       1       0                               0D0000058
     124      44       0       0       0       0       0       000000000D0000059
     124       0       0       1       0                               0D0000060
     110      45       0       0       0       0       0       000010000D0000061
     110       0       0       1       0                               0D0000062
     110      46       0       0       0       0       0       000010000D0000063
     110       0       0       1       0                               0D0000064
     110      47       0       0       0       0       0       000010000D0000065
     110       0       0       1       0                               0D0000066
     110      48       0       0       0       0       0       000010000D0000067
     110       0       0       1       0                               0D0000068
     110      49       0       0       0       0       0       000010000D0000069
     110       0       0       1       0                               0D0000070
     110      50       0       0       0       0       0       000010000D0000071
     110       0       0       1       0                               0D0000072
     110      51       0       0       0       0       0       000010000D0000073
     110       0       0       2       0                               0D0000074
     110      53       0       0       0       0       0       000010000D0000075
     110       0       0       1       0                               0D0000076
     110      54       0       0       0       0       0       000010000D0000077
     110       0       0       1       0                               0D0000078
     110      55       0       0       0       0       0       000010000D0000079
     110       0       0       1       0                               0D0000080
     110      56       0       0       0       0       0       000010000D0000081
     110       0       0       1       0                               0D0000082
     110      57       0       0       0       0       0       000010000D0000083
     110       0       0       1       0                               0D0000084
     110      58       0       0       0       0       0       000010000D0000085
     110       0       0       2       0                               0D0000086
     110      60       0       0       0       0       0       000010000D0000087
     110       0       0       1       0                               0D0000088
     110      61       0       0       0       0       0       000010000D0000089
     110       0       0       1       0                               0D0000090
     110      62       0       0       0       0       0       000010000D0000091
     110       0       0       1       0                               0D0000092
     110      63       0       0       0       0       0       000010000D0000093
     110       0       0       1       0                               0D0000094
     110      64       0       0       0       0       0       000010000D0000095
     110       0       0       1       0                               0D0000096
     110      65       0       0       0       0       0       000010000D0000097
     110       0       0       1       0                               0D0000098
     110      66       0       0       0       0       0       000010000D0000099
     110       0       0       1       0                               0D0000100
     110      67       0       0       0       0       0       000010000D0000101
     110       0       0       1       0                               0D0000102
     110      68       0       0       0       0       0       000010000D0000103
     110       0       0       1       0                               0D0000104
     510      69       0       0       0       0       0       000010000D0000105
     510       0       0       1       1                               0D0000106
     190      70       0       0       0       0       0       000010000D0000107
     190       0       0       1       1                               0D0000108
     116      71       0       0       0       0       0       000010400D0000109
     116       0       0       1       0                               0D0000110
     123      72       0       0       0       0       0       000010200D0000111
     123       0       0       1       0                               0D0000112
     123      73       0       0       0       0       0       000010200D0000113
     123       0       0       1       0                               0D0000114
     508      74       0       0       0       0       0       000010000D0000115
     508       0       0       1       1                               0D0000116
     508      75       0       0       0       0       0       000010000D0000117
     508       0       0       1       1                               0D0000118
     510      76       0       0       0       0       0       000010000D0000119
     510       0       0       1       1                               0D0000120
     192      77       0       0       0       0       0       000010000D0000121
     192       0       0       1       1                               0D0000122
     116      78       0       0       0       0       0       000010400D0000123
     116       0       0       1       0                               0D0000124
     123      79       0       0       0       0       0       000010200D0000125
     123       0       0       1       0                               0D0000126
     123      80       0       0       0       0       0       000010200D0000127
     123       0       0       1       0                               0D0000128
     508      81       0       0       0       0       0       000010000D0000129
     508       0       0       2       1                               0D0000130
     110      83       0       0       0       0       0       000010000D0000131
     110       0       0       1       0                               0D0000132
     110      84       0       0       0       0       0       000010000D0000133
     110       0       0       1       0                               0D0000134
     110      85       0       0       0       0       0       000010000D0000135
     110       0       0       1       0                               0D0000136
     110      86       0       0       0       0       0       000010000D0000137
     110       0       0       1       0                               0D0000138
     510      87       0       0       0       0       0       000010000D0000139
     510       0       0       1       1                               0D0000140
     192      88       0       0       0       0       0       000010000D0000141
     192       0       0       1       1                               0D0000142
     116      89       0       0       0       0       0       000010400D0000143
     116       0       0       1       0                               0D0000144
     123      90       0       0       0       0       0       000010200D0000145
     123       0       0       1       0                               0D0000146
     123      91       0       0       0       0       0       000010200D0000147
     123       0       0       1       0                               0D0000148
     508      92       0       0       0       0       0       000010000D0000149
     508       0       0       2       1                               0D0000150
     110      94       0       0       0       0       0       000010000D0000151
     110       0       0       1       0                               0D0000152
     110      95       0       0       0       0       0       000010000D0000153
     110       0       0       1       0                               0D0000154
     110      96       0       0       0       0       0       000010000D0000155
     110       0       0       1       0                               0D0000156
     110      97       0       0       0       0       0       000010000D0000157
     110       0       0       1       0                               0D0000158
     510      98       0       0       0       0       0       000010000D0000159
     510       0       0       1       1                               0D0000160
     194      99       0       0       0       0       0       000010000D0000161
     194       0       0       1       1                               0D0000162
     116     100       0       0       0       0       0       000010400D0000163
     116       0       0       1       0                               0D0000164
     123     101       0       0       0       0       0       000010200D0000165
     123       0       0       1       0                               0D0000166
     123     102       0       0       0       0       0       000010200D0000167
     123       0       0       1       0                               0D0000168
     508     103       0       0       0       0       0       000010000D0000169
     508       0       0       2       1                               0D0000170
     110     105       0       0       0       0       0       000010000D0000171
     110       0       0       1       0                               0D0000172
     110     106       0       0       0       0       0       000010000D0000173
     110       0       0       1       0                               0D0000174
     110     107       0       0       0       0       0       000010000D0000175
     110       0       0       1       0                               0D0000176
     110     108       0       0       0       0       0       000010000D0000177
     110       0       0       1       0                               0D0000178
     510     109       0       0       0       0       0       000010000D0000179
     510       0       0       1       1                               0D0000180
     198     110       0       0       0       0       0       000010000D0000181
     198       0       0       1       1                               0D0000182
     116     111       0       0       0       0       0       000010400D0000183
     116       0       0       1       0                               0D0000184
     123     112       0       0       0       0       0       000010200D0000185
     123       0       0       1       0                               0D0000186
     123     113       0       0       0       0       0       000010200D0000187
     123       0       0       1       0                               0D0000188
     508     114       0       0       0       0       0       000010000D0000189
     508       0       0       2       1                               0D0000190
     110     116       0       0       0       0       0       000010000D0000191
     110       0       0       1       0                               0D0000192
     110     117       0       0       0       0       0       000010000D0000193
     110       0       0       1       0                               0D0000194
     110     118       0       0       0       0       0       000010000D0000195
     110       0       0       1       0                               0D0000196
     110     119       0       0       0       0       0       000010000D0000197
     110       0       0       1       0                               0D0000198
     510     120       0       0       0       0       0       000010000D0000199
     510       0       0       1       1                               0D0000200
     190     121       0       0       0       0       0       000010000D0000201
     190       0       0       1       1                               0D0000202
     116     122       0       0       0       0       0       000010400D0000203
     116       0       0       1       0                               0D0000204
     123     123       0       0       0       0       0       000010200D0000205
     123       0       0       1       0                               0D0000206
     123     124       0       0       0       0       0       000010200D0000207
     123       0       0       1       0                               0D0000208
     508     125       0       0       0       0       0       000010000D0000209
     508       0       0       1       1                               0D0000210
     510     126       0       0       0       0       0       000010000D0000211
     510       0       0       1       1                               0D0000212
     190     127       0       0       0       0       0       000010000D0000213
     190       0       0       1       1                               0D0000214
     116     128       0       0       0       0       0       000010400D0000215
     116       0       0       1       0                               0D0000216
     123     129       0       0       0       0       0       000010200D0000217
     123       0       0       1       0                               0D0000218
     123     130       0       0       0       0       0       000010200D0000219
     123       0       0       1       0                               0D0000220
     508     131       0       0       0       0       0       000010000D0000221
     508       0       0       1       1                               0D0000222
     508     132       0       0       0       0       0       000010000D0000223
     508       0       0       2       1                               0D0000224
     510     134       0       0       0       0       0       000010000D0000225
     510       0       0       1       1                               0D0000226
     190     135       0       0       0       0       0       000010000D0000227
     190       0       0       1       1                               0D0000228
     116     136       0       0       0       0       0       000010400D0000229
     116       0       0       1       0                               0D0000230
     123     137       0       0       0       0       0       000010200D0000231
     123       0       0       1       0                               0D0000232
     123     138       0       0       0       0       0       000010200D0000233
     123       0       0       1       0                               0D0000234
     508     139       0       0       0       0       0       000010000D0000235
     508       0       0       1       1                               0D0000236
     510     140       0       0       0       0       0       000010000D0000237
     510       0       0       1       1                               0D0000238
     190     141       0       0       0       0       0       000010000D0000239
     190       0       0       1       1                               0D0000240
     116     142       0       0       0       0       0       000010400D0000241
     116       0       0       1       0                               0D0000242
     123     143       0       0       0       0       0       000010200D0000243
     123       0       0       1       0                               0D0000244
     123     144       0       0       0       0       0       000010200D0000245
     123       0       0       1       0                               0D0000246
     508     145       0       0       0       0       0       000010000D0000247
     508       0       0       1       1                               0D0000248
     510     146       0       0       0       0       0       000010000D0000249
     510       0       0       1       1                               0D0000250
     190     147       0       0       0       0       0       000010000D0000251
     190       0       0       1       1                               0D0000252
     116     148       0       0       0       0       0       000010400D0000253
     116       0       0       1       0                               0D0000254
     123     149       0       0       0       0       0       000010200D0000255
     123       0       0       1       0                               0D0000256
     123     150       0       0       0       0       0       000010200D0000257
     123       0       0       1       0                               0D0000258
     508     151       0       0       0       0       0       000010000D0000259
     508       0       0       1       1                               0D0000260
     510     152       0       0       0       0       0       000010000D0000261
     510       0       0       1       1                               0D0000262
     190     153       0       0       0       0       0       000010000D0000263
     190       0       0       1       1                               0D0000264
     116     154       0       0       0       0       0       000010400D0000265
     116       0       0       1       0                               0D0000266
     123     155       0       0       0       0       0       000010200D0000267
     123       0       0       1       0                               0D0000268
     123     156       0       0       0       0       0       000010200D0000269
     123       0       0       1       0                               0D0000270
     508     157       0       0       0       0       0       000010000D0000271
     508       0       0       1       1                               0D0000272
     510     158       0       0       0       0       0       000010000D0000273
     510       0       0       1       1                               0D0000274
     190     159       0       0       0       0       0       000010000D0000275
     190       0       0       1       1                               0D0000276
     116     160       0       0       0       0       0       000010400D0000277
     116       0       0       1       0                               0D0000278
     123     161       0       0       0       0       0       000010200D0000279
     123       0       0       1       0                               0D0000280
     123     162       0       0       0       0       0       000010200D0000281
     123       0       0       1       0                               0D0000282
     508     163       0       0       0       0       0       000010000D0000283
     508       0       0       1       1                               0D0000284
     510     164       0       0       0       0       0       000010000D0000285
     510       0       0       1       1                               0D0000286
     190     165       0       0       0       0       0       000010000D0000287
     190       0       0       1       1                               0D0000288
     116     166       0       0       0       0       0       000010400D0000289
     116       0       0       1       0                               0D0000290
     123     167       0       0       0       0       0       000010200D0000291
     123       0       0       1       0                               0D0000292
     123     168       0       0       0       0       0       000010200D0000293
     123       0       0       1       0                               0D0000294
     508     169       0       0       0       0       0       000010000D0000295
     508       0       0       1       1                               0D0000296
     510     170       0       0       0       0       0       000010000D0000297
     510       0       0       1       1                               0D0000298
     190     171       0       0       0       0       0       000010000D0000299
     190       0       0       1       1                               0D0000300
     116     172       0       0       0       0       0       000010400D0000301
     116       0       0       1       0                               0D0000302
     123     173       0       0       0       0       0       000010200D0000303
     123       0       0       1       0                               0D0000304
     123     174       0       0       0       0       0       000010200D0000305
     123       0       0       1       0                               0D0000306
     508     175       0       0       0       0       0       000010000D0000307
     508       0       0       2       1                               0D0000308
186,3,1,0;                                                       0000001P0000001
514,15,5,1,105,0,119,1,139,1,159,1,179,1,199,0,211,1,225,0,237,  0000003P0000002
0,249,0,261,0,273,0,285,0,297,0;                                 0000003P0000003
510,7,1,1,15;                                                    0000005P0000004
194,9,11,2.499,0.28647651,13;                                    0000007P0000005
116,0.,0.,0.,0;                                                  0000009P0000006
123,-0.,-0.,-1.;                                                 0000011P0000007
123,0.,1.,-0.;                                                   0000013P0000008
508,4,0,17,1,1,1,0,97,0,17,2,1,1,0,99,0,17,1,0,1,0,101,0,17,3,0, 0000015P0000009
1,0,103;                                                         0000015P0000010
504,30,19,21,1,21,2,23,21,2,21,2,27,21,1,21,1,31,21,3,21,3,35,   0000017P0000011
21,2,21,4,37,21,4,21,4,41,21,3,21,5,43,21,5,21,5,47,21,4,21,6,   0000017P0000012
49,21,6,21,6,53,21,5,21,7,57,21,7,21,7,61,21,8,21,9,63,21,10,21, 0000017P0000013
8,65,21,11,21,10,67,21,12,21,11,69,21,13,21,12,71,21,9,21,13,73, 0000017P0000014
21,8,21,14,75,21,14,21,15,77,21,9,21,15,79,21,15,21,16,81,21,13, 0000017P0000015
21,16,83,21,16,21,17,85,21,12,21,17,87,21,17,21,18,89,21,11,21,  0000017P0000016
18,91,21,18,21,19,93,21,10,21,19,95,21,19,21,14;                 0000017P0000017
110,0.,2.499,0.,0.,2.5,-0.2;                                     0000019P0000018
502,19,0.,2.499,0.,0.,2.5,-0.2,0.,4.25,0.,0.,2.5,-15.2,0.,4.25,  0000021P0000019
4.97229,0.,1.7,-16.,0.,4.22229,5.,2.344042093,7.944584195E-16,   0000021P0000020
5.,1.172021046,2.03,5.,1.172021046,-2.03,5.,-1.172021046,-2.03,  0000021P0000021
5.,-2.344042093,-8.881784197E-16,5.,-1.172021046,2.03,5.,        0000021P0000022
2.344042093,7.944584195E-16,0.94,1.172021046,2.03,0.94,          0000021P0000023
-1.172021046,2.03,0.94,-2.344042093,-8.881784197E-16,0.94,       0000021P0000024
-1.172021046,-2.03,0.94,1.172021046,-2.03,0.94;                  0000021P0000025
100,0.,0.,0.,2.5,0.,2.5,0.;                                      0000023P0000026
124,0.,-1.,0.,0.,1.,0.,0.,0.,0.,0.,1.,-0.2;                      0000025P0000027
100,0.,0.,0.,2.499,0.,2.499,0.;                                  0000027P0000028
124,0.,-1.,0.,0.,1.,0.,0.,0.,0.,0.,1.,0.;                        0000029P0000029
100,0.,0.,0.,4.25,0.,4.25,0.;                                    0000031P0000030
124,0.,-1.,0.,0.,1.,0.,0.,0.,0.,0.,1.,0.;                        0000033P0000031
110,0.,2.5,-0.2,0.,2.5,-15.2;                                    0000035P0000032
100,0.,0.,0.,2.5,0.,2.5,0.;                                      0000037P0000033
124,0.,-1.,0.,0.,1.,0.,0.,0.,0.,0.,1.,-15.2;                     0000039P0000034
110,0.,4.25,0.,0.,4.25,4.97229;                                  0000041P0000035
100,0.,0.,0.,4.25,0.,4.25,0.;                                    0000043P0000036
124,0.,-1.,0.,0.,1.,0.,0.,0.,0.,0.,1.,4.97229;                   0000045P0000037
110,0.,2.5,-15.2,0.,1.7,-16.;                                    0000047P0000038
100,0.,0.,0.,1.7,0.,1.7,0.;                                      0000049P0000039
124,0.,-1.,0.,0.,1.,0.,0.,0.,0.,0.,1.,-16.;                      0000051P0000040
100,0.,0.,0.,2.771E-02,0.,0.,2.771E-02;                          0000053P0000041
124,0.,0.,1.,0.,1.,0.,0.,4.22229,0.,1.,0.,4.97229;               0000055P0000042
100,0.,0.,0.,4.22229,0.,4.22229,0.;                              0000057P0000043
124,0.,-1.,0.,0.,1.,0.,0.,0.,0.,0.,1.,5.;                        0000059P0000044
110,2.344042093,7.710284195E-16,5.,1.172021046,2.03,5.;          0000061P0000045
110,1.172021046,-2.03,5.,2.344042093,-2.30214615E-13,5.;         0000063P0000046
110,-1.172021046,-2.03,5.,1.172021046,-2.03,5.;                  0000065P0000047
110,-2.344042093,-8.881784197E-16,5.,-1.172021046,-2.03,5.;      0000067P0000048
110,-1.172021046,2.03,5.,-2.344042093,2.30214615E-13,5.;         0000069P0000049
110,1.172021046,2.03,5.,-1.172021046,2.03,5.;                    0000071P0000050
110,2.344042093,7.944584195E-16,5.,2.344042093,7.944584195E-16,  0000073P0000051
0.94;                                                            0000073P0000052
110,2.344042093,7.710284195E-16,0.94,1.172021046,2.03,0.94;      0000075P0000053
110,1.172021046,2.03,5.,1.172021046,2.03,0.94;                   0000077P0000054
110,1.172021046,2.03,0.94,-1.172021046,2.03,0.94;                0000079P0000055
110,-1.172021046,2.03,5.,-1.172021046,2.03,0.94;                 0000081P0000056
110,-1.172021046,2.03,0.94,-2.344042093,2.30214615E-13,0.94;     0000083P0000057
110,-2.344042093,-8.881784197E-16,5.,-2.344042093,               0000085P0000058
-8.881784197E-16,0.94;                                           0000085P0000059
110,-2.344042093,-8.881784197E-16,0.94,-1.172021046,-2.03,0.94;  0000087P0000060
110,-1.172021046,-2.03,5.,-1.172021046,-2.03,0.94;               0000089P0000061
110,-1.172021046,-2.03,0.94,1.172021046,-2.03,0.94;              0000091P0000062
110,1.172021046,-2.03,5.,1.172021046,-2.03,0.94;                 0000093P0000063
110,1.172021046,-2.03,0.94,2.344042093,-2.30214615E-13,0.94;     0000095P0000064
110,360.,0.,0.,360.,0.2000025,0.;                                0000097P0000065
110,360.,0.2000025,0.,0.,0.2000025,0.;                           0000099P0000066
110,-2.37142157E-11,0.2000025,0.,-2.37142157E-11,0.,0.;          0000101P0000067
110,0.,0.,0.,360.,0.,0.;                                         0000103P0000068
510,107,2,1,115,117;                                             0000105P0000069
190,109,111,113;                                                 0000107P0000070
116,0.,0.,0.,0;                                                  0000109P0000071
123,0.,0.,1.;                                                    0000111P0000072
123,0.,1.,0.;                                                    0000113P0000073
508,1,0,17,4,1,0;                                                0000115P0000074
508,1,0,17,3,0,0;                                                0000117P0000075
510,121,1,1,129;                                                 0000119P0000076
192,123,125,2.5,127;                                             0000121P0000077
116,0.,0.,-0.2,0;                                                0000123P0000078
123,-0.,-0.,-1.;                                                 0000125P0000079
123,0.,1.,-0.;                                                   0000127P0000080
508,4,0,17,5,1,1,0,131,0,17,6,1,1,0,133,0,17,5,0,1,0,135,0,17,2, 0000129P0000081
0,1,0,137;                                                       0000129P0000082
110,360.,0.,0.,360.,15.,0.;                                      0000131P0000083
110,360.,15.,0.,0.,15.,0.;                                       0000133P0000084
110,-2.37142157E-11,15.,0.,-2.37142157E-11,0.,0.;                0000135P0000085
110,0.,0.,0.,360.,0.,0.;                                         0000137P0000086
510,141,1,1,149;                                                 0000139P0000087
192,143,145,4.25,147;                                            0000141P0000088
116,0.,0.,0.,0;                                                  0000143P0000089
123,0.,0.,1.;                                                    0000145P0000090
123,0.,1.,0.;                                                    0000147P0000091
508,4,0,17,4,1,1,0,151,0,17,7,1,1,0,153,0,17,8,0,1,0,155,0,17,7, 0000149P0000092
0,1,0,157;                                                       0000149P0000093
110,0.,0.,0.,360.,0.,0.;                                         0000151P0000094
110,360.,0.,0.,360.,4.97229,0.;                                  0000153P0000095
110,360.,4.97229,0.,0.,4.97229,0.;                               0000155P0000096
110,2.37142157E-11,4.97229,0.,2.37142157E-11,0.,0.;              0000157P0000097
510,161,1,1,169;                                                 0000159P0000098
194,163,165,2.5,45.,167;                                         0000161P0000099
116,0.,0.,-15.2,0;                                               0000163P0000100
123,0.,0.,1.;                                                    0000165P0000101
123,0.,1.,0.;                                                    0000167P0000102
508,4,0,17,6,0,1,0,171,0,17,9,1,1,0,173,0,17,10,1,1,0,175,0,17,  0000169P0000103
9,0,1,0,177;                                                     0000169P0000104
110,360.,0.,0.,0.,0.,0.;                                         0000171P0000105
110,0.,0.,0.,0.,-1.13137085,0.;                                  0000173P0000106
110,0.,-1.13137085,0.,360.,-1.13137085,0.;                       0000175P0000107
110,360.,-1.13137085,0.,360.,0.,0.;                              0000177P0000108
510,181,1,1,189;                                                 0000179P0000109
198,183,185,4.22229,2.771E-02,187;                               0000181P0000110
116,0.,0.,4.97229,0;                                             0000183P0000111
123,0.,0.,1.;                                                    0000185P0000112
123,0.,1.,0.;                                                    0000187P0000113
508,4,0,17,8,1,1,0,191,0,17,11,1,1,0,193,0,17,12,0,1,0,195,0,17, 0000189P0000114
11,0,1,0,197;                                                    0000189P0000115
110,0.,360.,0.,-6.382883469E-14,0.,0.;                           0000191P0000116
110,-6.382883469E-14,1.017777498E-13,0.,90.,1.177349585E-13,0.;  0000193P0000117
110,90.,0.,0.,90.,360.,0.;                                       0000195P0000118
110,90.,360.,0.,-4.204585428E-27,360.,0.;                        0000197P0000119
510,201,1,1,209;                                                 0000199P0000120
190,203,205,207;                                                 0000201P0000121
116,0.,0.,-16.,0;                                                0000203P0000122
123,0.,0.,1.;                                                    0000205P0000123
123,0.,1.,0.;                                                    0000207P0000124
508,1,0,17,10,1,0;                                               0000209P0000125
510,213,2,1,221,223;                                             0000211P0000126
190,215,217,219;                                                 0000213P0000127
116,0.,0.,5.,0;                                                  0000215P0000128
123,0.,0.,1.;                                                    0000217P0000129
123,0.,1.,0.;                                                    0000219P0000130
508,1,0,17,12,1,0;                                               0000221P0000131
508,6,0,17,13,0,0,0,17,14,0,0,0,17,15,0,0,0,17,16,0,0,0,17,17,0, 0000223P0000132
0,0,17,18,0,0;                                                   0000223P0000133
510,227,1,1,235;                                                 0000225P0000134
190,229,231,233;                                                 0000227P0000135
116,2.344042093,7.007384194E-16,5.,0;                            0000229P0000136
123,0.866025404,0.5,0.;                                          0000231P0000137
123,-0.5,0.866025404,0.;                                         0000233P0000138
508,4,0,17,19,1,0,0,17,20,1,0,0,17,21,0,0,0,17,13,0,0;           0000235P0000139
510,239,1,1,247;                                                 0000237P0000140
190,241,243,245;                                                 0000239P0000141
116,1.172021046,2.03,5.,0;                                       0000241P0000142
123,-7.578178074E-16,1.,0.;                                      0000243P0000143
123,-1.,-7.578178074E-16,0.;                                     0000245P0000144
508,4,0,17,21,1,0,0,17,22,1,0,0,17,23,0,0,0,17,18,0,0;           0000247P0000145
510,251,1,1,259;                                                 0000249P0000146
190,253,255,257;                                                 0000251P0000147
116,-1.172021046,2.03,5.,0;                                      0000253P0000148
123,-0.866025404,0.5,0.;                                         0000255P0000149
123,-0.5,-0.866025404,0.;                                        0000257P0000150
508,4,0,17,23,1,0,0,17,24,1,0,0,17,25,0,0,0,17,17,0,0;           0000259P0000151
510,263,1,1,271;                                                 0000261P0000152
190,265,267,269;                                                 0000263P0000153
116,-2.344042093,-8.881784197E-16,5.,0;                          0000265P0000154
123,-0.866025404,-0.5,0.;                                        0000267P0000155
123,0.5,-0.866025404,0.;                                         0000269P0000156
508,4,0,17,25,1,0,0,17,26,1,0,0,17,27,0,0,0,17,16,0,0;           0000271P0000157
510,275,1,1,283;                                                 0000273P0000158
190,277,279,281;                                                 0000275P0000159
116,-1.172021046,-2.03,5.,0;                                     0000277P0000160
123,0.,-1.,0.;                                                   0000279P0000161
123,1.,0.,0.;                                                    0000281P0000162
508,4,0,17,27,1,0,0,17,28,1,0,0,17,29,0,0,0,17,15,0,0;           0000283P0000163
510,287,1,1,295;                                                 0000285P0000164
190,289,291,293;                                                 0000287P0000165
116,1.172021046,-2.03,5.,0;                                      0000289P0000166
123,0.866025404,-0.5,0.;                                         0000291P0000167
123,0.5,0.866025404,0.;                                          0000293P0000168
508,4,0,17,29,1,0,0,17,30,1,0,0,17,19,0,0,0,17,14,0,0;           0000295P0000169
510,299,1,1,307;                                                 0000297P0000170
190,301,303,305;                                                 0000299P0000171
116,2.344042093,7.007384194E-16,0.94,0;                          0000301P0000172
123,0.,0.,-1.;                                                   0000303P0000173
123,-1.,0.,0.;                                                   0000305P0000174
508,6,0,17,20,0,0,0,17,30,0,0,0,17,28,0,0,0,17,26,0,0,0,17,24,0, 0000307P0000175
0,0,17,22,0,0;                                                   0000307P0000176
S      1G      4D    308P    176                                        T0000001
