                                                                        S0000001
,,31HOpen CASCADE IGES processor 7.9,13HFilename.iges,                  G0000001
16HOpen CASCADE 7.9,31HOpen CASCADE IGES processor 7.9,32,308,15,308,15,G0000002
,1.,2,2HMM,1,0.01,15H20261004.214557,1E-07,60.008389,7Hjiayuxu,,11,0,   G0000003
15H20261004.214557,;                                                    G0000004
     186       1       0       0       0       0       0       000000000D0000001
     186       0       0       1       0                               0D0000002
     514       2       0       0       0       0       0       000010000D0000003
     514       0       0       3       1                               0D0000004
     510       5       0       0       0       0       0       000010000D0000005
     510       0       0       1       1                               0D0000006
     190       6       0       0       0       0       0       000010000D0000007
     190       0       0       1       1                               0D0000008
     116       7       0       0       0       0       0       000010400D0000009
     116       0       0       1       0                               0D0000010
     123       8       0       0       0       0       0       000010200D0000011
     123       0       0       1       0                               0D0000012
     123       9       0       0       0       0       0       000010200D0000013
     123       0       0       1       0                               0D0000014
     508      10       0       0       0       0       0       000010000D0000015
     508       0       0       1       1                               0D0000016
     504      11       0       0       0       0       0       000010001D0000017
     504       0       0      15       1                               0D0000018
     110      26       0       0       0       0       0       000010000D0000019
     110       0       0       1       0                               0D0000020
     502      27       0       0       0       0       0       000010000D0000021
     502       0       0      12       1                               0D0000022
     110      39       0       0       0       0       0       000010000D0000023
     110       0       0       1       0                               0D0000024
     110      40       0       0       0       0       0       000010000D0000025
     110       0       0       1       0                               0D0000026
     110      41       0       0       0       0       0       000010000D0000027
     110       0       0       1       0                               0D0000028
     110      42       0       0       0       0       0       000010000D0000029
     110       0       0       1       0                               0D0000030
     110      43       0       0       0       0       0       000010000D0000031
     110       0       0       1       0                               0D0000032
     110      44       0       0       0       0       0       000010000D0000033
     110       0       0       1       0                               0D0000034
     110      45       0       0       0       0       0       000010000D0000035
     110       0       0       1       0                               0D0000036
     110      46       0       0       0       0       0       000010000D0000037
     110       0       0       1       0                               0D0000038
     110      47       0       0       0       0       0       000010000D0000039
     110       0       0       1       0                               0D0000040
     110      48       0       0       0       0       0       000010000D0000041
     110       0       0       1       0                               0D0000042
     110      49       0       0       0       0       0       000010000D0000043
     110       0       0       1       0                               0D0000044
     110      50       0       0       0       0       0       000010000D0000045
     110       0       0       1       0                               0D0000046
     100      51       0       0       0       0      49       000010000D0000047
     100       0       0       1       0                               0D0000048
     124      52       0       0       0       0       0       000000000D0000049
     124       0       0       2       0                               0D0000050
     100      54       0       0       0       0      53       000010000D0000051
     100       0       0       1       0                               0D0000052
     124      55       0       0       0       0       0       000000000D0000053
     124       0       0       2       0                               0D0000054
     100      57       0       0       0       0      57       000010000D0000055
     100       0       0       1       0                               0D0000056
     124      58       0       0       0       0       0       000000000D0000057
     124       0       0       2       0                               0D0000058
     100      60       0       0       0       0      61       000010000D0000059
     100       0       0       1       0                               0D0000060
     124      61       0       0       0       0       0       000000000D0000061
     124       0       0       2       0                               0D0000062
     100      63       0       0       0       0      65       000010000D0000063
     100       0       0       1       0                               0D0000064
     124      64       0       0       0       0       0       000000000D0000065
     124       0       0       2       0                               0D0000066
     110      66       0       0       0       0       0       000010000D0000067
     110       0       0       1       0                               0D0000068
     110      67       0       0       0       0       0       000010000D0000069
     110       0       0       1       0                               0D0000070
     110      68       0       0       0       0       0       000010000D0000071
     110       0       0       1       0                               0D0000072
     110      69       0       0       0       0       0       000010000D0000073
     110       0       0       1       0                               0D0000074
     110      70       0       0       0       0       0       000010000D0000075
     110       0       0       1       0                               0D0000076
     110      71       0       0       0       0       0       000010000D0000077
     110       0       0       1       0                               0D0000078
     110      72       0       0       0       0       0       000010000D0000079
     110       0       0       2       0                               0D0000080
     110      74       0       0       0       0       0       000010000D0000081
     110       0       0       2       0                               0D0000082
     110      76       0       0       0       0       0       000010000D0000083
     110       0       0       1       0                               0D0000084
     100      77       0       0       0       0      87       000010000D0000085
     100       0       0       1       0                               0D0000086
     124      78       0       0       0       0       0       000000000D0000087
     124       0       0       3       0                               0D0000088
     100      81       0       0       0       0      91       000010000D0000089
     100       0       0       1       0                               0D0000090
     124      82       0       0       0       0       0       000000000D0000091
     124       0       0       3       0                               0D0000092
     100      85       0       0       0       0      95       000010000D0000093
     100       0       0       1       0                               0D0000094
     124      86       0       0       0       0       0       000000000D0000095
     124       0       0       3       0                               0D0000096
     100      89       0       0       0       0      99       000010000D0000097
     100       0       0       1       0                               0D0000098
     124      90       0       0       0       0       0       000000000D0000099
     124       0       0       3       0                               0D0000100
     100      93       0       0       0       0     103       000010000D0000101
     100       0       0       1       0                               0D0000102
     124      94       0       0       0       0       0       000000000D0000103
     124       0       0       3       0                               0D0000104
     110      97       0       0       0       0       0       000010000D0000105
     110       0       0       1       0                               0D0000106
     110      98       0       0       0       0       0       000010000D0000107
     110       0       0       1       0                               0D0000108
     100      99       0       0       0       0     111       000010000D0000109
     100       0       0       1       0                               0D0000110
     124     100       0       0       0       0       0       000000000D0000111
     124       0       0       2       0                               0D0000112
     110     102       0       0       0       0       0       000010000D0000113
     110       0       0       1       0                               0D0000114
     110     103       0       0       0       0       0       000010000D0000115
     110       0       0       1       0                               0D0000116
     100     104       0       0       0       0     119       000010000D0000117
     100       0       0       1       0                               0D0000118
     124     105       0       0       0       0       0       000000000D0000119
     124       0       0       3       0                               0D0000120
     110     108       0       0       0       0       0       000010000D0000121
     110       0       0       1       0                               0D0000122
     100     109       0       0       0       0     125       000010000D0000123
     100       0       0       1       0                               0D0000124
     124     110       0       0       0       0       0       000000000D0000125
     124       0       0       3       0                               0D0000126
     110     113       0       0       0       0       0       000010000D0000127
     110       0       0       1       0                               0D0000128
     100     114       0       0       0       0     131       000010000D0000129
     100       0       0       1       0                               0D0000130
     124     115       0       0       0       0       0       000000000D0000131
     124       0       0       3       0                               0D0000132
     110     118       0       0       0       0       0       000010000D0000133
     110       0       0       1       0                               0D0000134
     100     119       0       0       0       0     137       000010000D0000135
     100       0       0       1       0                               0D0000136
     124     120       0       0       0       0       0       000000000D0000137
     124       0       0       2       0                               0D0000138
     110     122       0       0       0       0       0       000010000D0000139
     110       0       0       1       0                               0D0000140
     110     123       0       0       0       0       0       000010000D0000141
     110       0       0       1       0                               0D0000142
     100     124       0       0       0       0     145       000010000D0000143
     100       0       0       1       0                               0D0000144
     124     125       0       0       0       0       0       000000000D0000145
     124       0       0       2       0                               0D0000146
     110     127       0       0       0       0       0       000010000D0000147
     110       0       0       1       0                               0D0000148
     100     128       0       0       0       0     151       000010000D0000149
     100       0       0       1       0                               0D0000150
     124     129       0       0       0       0       0       000000000D0000151
     124       0       0       3       0                               0D0000152
     110     132       0       0       0       0       0       000010000D0000153
     110       0       0       1       0                               0D0000154
     100     133       0       0       0       0     157       000010000D0000155
     100       0       0       1       0                               0D0000156
     124     134       0       0       0       0       0       000000000D0000157
     124       0       0       3       0                               0D0000158
     110     137       0       0       0       0       0       000010000D0000159
     110       0       0       1       0                               0D0000160
     100     138       0       0       0       0     163       000010000D0000161
     100       0       0       1       0                               0D0000162
     124     139       0       0       0       0       0       000000000D0000163
     124       0       0       3       0                               0D0000164
     110     142       0       0       0       0       0       000010000D0000165
     110       0       0       1       0                               0D0000166
     100     143       0       0       0       0     169       000010000D0000167
     100       0       0       1       0                               0D0000168
     124     144       0       0       0       0       0       000000000D0000169
     124       0       0       3       0                               0D0000170
     110     147       0       0       0       0       0       000010000D0000171
     110       0       0       1       0                               0D0000172
     110     148       0       0       0       0       0       000010000D0000173
     110       0       0       1       0                               0D0000174
     110     149       0       0       0       0       0       000010000D0000175
     110       0       0       1       0                               0D0000176
     110     150       0       0       0       0       0       000010000D0000177
     110       0       0       1       0                               0D0000178
     110     151       0       0       0       0       0       000010000D0000179
     110       0       0       1       0                               0D0000180
     510     152       0       0       0       0       0       000010000D0000181
     510       0       0       1       1                               0D0000182
     190     153       0       0       0       0       0       000010000D0000183
     190       0       0       1       1                               0D0000184
     116     154       0       0       0       0       0       000010400D0000185
     116       0       0       1       0                               0D0000186
     123     155       0       0       0       0       0       000010200D0000187
     123       0       0       1       0                               0D0000188
     123     156       0       0       0       0       0       000010200D0000189
     123       0       0       1       0                               0D0000190
     508     157       0       0       0       0       0       000010000D0000191
     508       0       0       1       1                               0D0000192
     510     158       0       0       0       0       0       000010000D0000193
     510       0       0       1       1                               0D0000194
     190     159       0       0       0       0       0       000010000D0000195
     190       0       0       1       1                               0D0000196
     116     160       0       0       0       0       0       000010400D0000197
     116       0       0       1       0                               0D0000198
     123     161       0       0       0       0       0       000010200D0000199
     123       0       0       1       0                               0D0000200
     123     162       0       0       0       0       0       000010200D0000201
     123       0       0       1       0                               0D0000202
     508     163       0       0       0       0       0       000010000D0000203
     508       0       0       1       1                               0D0000204
     510     164       0       0       0       0       0       000010000D0000205
     510       0       0       1       1                               0D0000206
     190     165       0       0       0       0       0       000010000D0000207
     190       0       0       1       1                               0D0000208
     116     166       0       0       0       0       0       000010400D0000209
     116       0       0       1       0                               0D0000210
     123     167       0       0       0       0       0       000010200D0000211
     123       0       0       1       0                               0D0000212
     123     168       0       0       0       0       0       000010200D0000213
     123       0       0       1       0                               0D0000214
     508     169       0       0       0       0       0       000010000D0000215
     508       0       0       1       1                               0D0000216
     508     170       0       0       0       0       0       000010000D0000217
     508       0       0       1       1                               0D0000218
     508     171       0       0       0       0       0       000010000D0000219
     508       0       0       1       1                               0D0000220
     508     172       0       0       0       0       0       000010000D0000221
     508       0       0       1       1                               0D0000222
     508     173       0       0       0       0       0       000010000D0000223
     508       0       0       1       1                               0D0000224
     508     174       0       0       0       0       0       000010000D0000225
     508       0       0       1       1                               0D0000226
     510     175       0       0       0       0       0       000010000D0000227
     510       0       0       1       1                               0D0000228
     190     176       0       0       0       0       0       000010000D0000229
     190       0       0       1       1                               0D0000230
     116     177       0       0       0       0       0       000010400D0000231
     116       0       0       1       0                               0D0000232
     123     178       0       0       0       0       0       000010200D0000233
     123       0       0       1       0                               0D0000234
     123     179       0       0       0       0       0       000010200D0000235
     123       0       0       1       0                               0D0000236
     508     180       0       0       0       0       0       000010000D0000237
     508       0       0       1       1                               0D0000238
     510     181       0       0       0       0       0       000010000D0000239
     510       0       0       1       1                               0D0000240
     190     182       0       0       0       0       0       000010000D0000241
     190       0       0       1       1                               0D0000242
     116     183       0       0       0       0       0       000010400D0000243
     116       0       0       1       0                               0D0000244
     123     184       0       0       0       0       0       000010200D0000245
     123       0       0       1       0                               0D0000246
     123     185       0       0       0       0       0       000010200D0000247
     123       0       0       1       0                               0D0000248
     508     186       0       0       0       0       0       000010000D0000249
     508       0       0       1       1                               0D0000250
     510     187       0       0       0       0       0       000010000D0000251
     510       0       0       1       1                               0D0000252
     190     188       0       0       0       0       0       000010000D0000253
     190       0       0       1       1                               0D0000254
     116     189       0       0       0       0       0       000010400D0000255
     116       0       0       1       0                               0D0000256
     123     190       0       0       0       0       0       000010200D0000257
     123       0       0       1       0                               0D0000258
     123     191       0       0       0       0       0       000010200D0000259
     123       0       0       1       0                               0D0000260
     508     192       0       0       0       0       0       000010000D0000261
     508       0       0       1       1                               0D0000262
     510     193       0       0       0       0       0       000010000D0000263
     510       0       0       1       1                               0D0000264
     190     194       0       0       0       0       0       000010000D0000265
     190       0       0       1       1                               0D0000266
     116     195       0       0       0       0       0       000010400D0000267
     116       0       0       1       0                               0D0000268
     123     196       0       0       0       0       0       000010200D0000269
     123       0       0       1       0                               0D0000270
     123     197       0       0       0       0       0       000010200D0000271
     123       0       0       1       0                               0D0000272
     508     198       0       0       0       0       0       000010000D0000273
     508       0       0       2       1                               0D0000274
     508     200       0       0       0       0       0       000010000D0000275
     508       0       0       1       1                               0D0000276
     508     201       0       0       0       0       0       000010000D0000277
     508       0       0       1       1                               0D0000278
     508     202       0       0       0       0       0       000010000D0000279
     508       0       0       1       1                               0D0000280
     508     203       0       0       0       0       0       000010000D0000281
     508       0       0       1       1                               0D0000282
     508     204       0       0       0       0       0       000010000D0000283
     508       0       0       1       1                               0D0000284
     510     205       0       0       0       0       0       000010000D0000285
     510       0       0       1       1                               0D0000286
     190     206       0       0       0       0       0       000010000D0000287
     190       0       0       1       1                               0D0000288
     116     207       0       0       0       0       0       000010400D0000289
     116       0       0       1       0                               0D0000290
     123     208       0       0       0       0       0       000010200D0000291
     123       0       0       1       0                               0D0000292
     123     209       0       0       0       0       0       000010200D0000293
     123       0       0       1       0                               0D0000294
     508     210       0       0       0       0       0       000010000D0000295
     508       0       0       1       1                               0D0000296
     510     211       0       0       0       0       0       000010000D0000297
     510       0       0       1       1                               0D0000298
     194     212       0       0       0       0       0       000010000D0000299
     194       0       0       1       1                               0D0000300
     116     213       0       0       0       0       0       000010400D0000301
     116       0       0       1       0                               0D0000302
     123     214       0       0       0       0       0       000010200D0000303
     123       0       0       1       0                               0D0000304
     123     215       0       0       0       0       0       000010200D0000305
     123       0       0       1       0                               0D0000306
     508     216       0       0       0       0       0       000010000D0000307
     508       0       0       2       1                               0D0000308
     126     218       0       0       0       0       0       000010000D0000309
     126       0       0       2       0                               0D0000310
     126     220       0       0       0       0       0       000010000D0000311
     126       0       0       2       0                               0D0000312
     126     222       0       0       0       0       0       000010000D0000313
     126       0       0       2       0                               0D0000314
     126     224       0       0       0       0       0       000010000D0000315
     126       0       0       2       0                               0D0000316
     510     226       0       0       0       0       0       000010000D0000317
     510       0       0       1       1                               0D0000318
     190     227       0       0       0       0       0       000010000D0000319
     190       0       0       1       1                               0D0000320
     116     228       0       0       0       0       0       000010400D0000321
     116       0       0       1       0                               0D0000322
     123     229       0       0       0       0       0       000010200D0000323
     123       0       0       1       0                               0D0000324
     123     230       0       0       0       0       0       000010200D0000325
     123       0       0       1       0                               0D0000326
     508     231       0       0       0       0       0       000010000D0000327
     508       0       0       1       1                               0D0000328
     510     232       0       0       0       0       0       000010000D0000329
     510       0       0       1       1                               0D0000330
     194     233       0       0       0       0       0       000010000D0000331
     194       0       0       1       1                               0D0000332
     116     234       0       0       0       0       0       000010400D0000333
     116       0       0       1       0                               0D0000334
     123     235       0       0       0       0       0       000010200D0000335
     123       0       0       1       0                               0D0000336
     123     236       0       0       0       0       0       000010200D0000337
     123       0       0       1       0                               0D0000338
     508     237       0       0       0       0       0       000010000D0000339
     508       0       0       2       1                               0D0000340
     126     239       0       0       0       0       0       000010000D0000341
     126       0       0       2       0                               0D0000342
     126     241       0       0       0       0       0       000010000D0000343
     126       0       0       2       0                               0D0000344
     126     243       0       0       0       0       0       000010000D0000345
     126       0       0       2       0                               0D0000346
     126     245       0       0       0       0       0       000010000D0000347
     126       0       0       2       0                               0D0000348
     510     247       0       0       0       0       0       000010000D0000349
     510       0       0       1       1                               0D0000350
     194     248       0       0       0       0       0       000010000D0000351
     194       0       0       1       1                               0D0000352
     116     249       0       0       0       0       0       000010400D0000353
     116       0       0       1       0                               0D0000354
     123     250       0       0       0       0       0       000010200D0000355
     123       0       0       1       0                               0D0000356
     123     251       0       0       0       0       0       000010200D0000357
     123       0       0       1       0                               0D0000358
     508     252       0       0       0       0       0       000010000D0000359
     508       0       0       2       1                               0D0000360
     126     254       0       0       0       0       0       000010000D0000361
     126       0       0       2       0                               0D0000362
     126     256       0       0       0       0       0       000010000D0000363
     126       0       0       2       0                               0D0000364
     126     258       0       0       0       0       0       000010000D0000365
     126       0       0       2       0                               0D0000366
     126     260       0       0       0       0       0       000010000D0000367
     126       0       0       2       0                               0D0000368
     510     262       0       0       0       0       0       000010000D0000369
     510       0       0       1       1                               0D0000370
     194     263       0       0       0       0       0       000010000D0000371
     194       0       0       1       1                               0D0000372
     116     264       0       0       0       0       0       000010400D0000373
     116       0       0       1       0                               0D0000374
     123     265       0       0       0       0       0       000010200D0000375
     123       0       0       1       0                               0D0000376
     123     266       0       0       0       0       0       000010200D0000377
     123       0       0       1       0                               0D0000378
     508     267       0       0       0       0       0       000010000D0000379
     508       0       0       2       1                               0D0000380
     126     269       0       0       0       0       0       000010000D0000381
     126       0       0       2       0                               0D0000382
     126     271       0       0       0       0       0       000010000D0000383
     126       0       0       2       0                               0D0000384
     126     273       0       0       0       0       0       000010000D0000385
     126       0       0       2       0                               0D0000386
     126     275       0       0       0       0       0       000010000D0000387
     126       0       0       2       0                               0D0000388
     510     277       0       0       0       0       0       000010000D0000389
     510       0       0       1       1                               0D0000390
     194     278       0       0       0       0       0       000010000D0000391
     194       0       0       1       1                               0D0000392
     116     279       0       0       0       0       0       000010400D0000393
     116       0       0       1       0                               0D0000394
     123     280       0       0       0       0       0       000010200D0000395
     123       0       0       1       0                               0D0000396
     123     281       0       0       0       0       0       000010200D0000397
     123       0       0       1       0                               0D0000398
     508     282       0       0       0       0       0       000010000D0000399
     508       0       0       2       1                               0D0000400
     126     284       0       0       0       0       0       000010000D0000401
     126       0       0       2       0                               0D0000402
     126     286       0       0       0       0       0       000010000D0000403
     126       0       0       2       0                               0D0000404
     126     288       0       0       0       0       0       000010000D0000405
     126       0       0       2       0                               0D0000406
     126     290       0       0       0       0       0       000010000D0000407
     126       0       0       2       0                               0D0000408
     510     292       0       0       0       0       0       000010000D0000409
     510       0       0       1       1                               0D0000410
     190     293       0       0       0       0       0       000010000D0000411
     190       0       0       1       1                               0D0000412
     116     294       0       0       0       0       0       000010400D0000413
     116       0       0       1       0                               0D0000414
     123     295       0       0       0       0       0       000010200D0000415
     123       0       0       1       0                               0D0000416
     123     296       0       0       0       0       0       000010200D0000417
     123       0       0       1       0                               0D0000418
     508     297       0       0       0       0       0       000010000D0000419
     508       0       0       1       1                               0D0000420
     510     298       0       0       0       0       0       000010000D0000421
     510       0       0       1       1                               0D0000422
     194     299       0       0       0       0       0       000010000D0000423
     194       0       0       1       1                               0D0000424
     116     300       0       0       0       0       0       000010400D0000425
     116       0       0       1       0                               0D0000426
     123     301       0       0       0       0       0       000010200D0000427
     123       0       0       1       0                               0D0000428
     123     302       0       0       0       0       0       000010200D0000429
     123       0       0       1       0                               0D0000430
     508     303       0       0       0       0       0       000010000D0000431
     508       0       0       2       1                               0D0000432
     126     305       0       0       0       0       0       000010000D0000433
     126       0       0       3       0                               0D0000434
     126     308       0       0       0       0       0       000010000D0000435
     126       0       0       2       0                               0D0000436
     126     310       0       0       0       0       0       000010000D0000437
     126       0       0       2       0                               0D0000438
     126     312       0       0       0       0       0       000010000D0000439
     126       0       0       2       0                               0D0000440
     510     314       0       0       0       0       0       000010000D0000441
     510       0       0       1       1                               0D0000442
     194     315       0       0       0       0       0       000010000D0000443
     194       0       0       1       1                               0D0000444
     116     316       0       0       0       0       0       000010400D0000445
     116       0       0       1       0                               0D0000446
     123     317       0       0       0       0       0       000010200D0000447
     123       0       0       1       0                               0D0000448
     123     318       0       0       0       0       0       000010200D0000449
     123       0       0       1       0                               0D0000450
     508     319       0       0       0       0       0       000010000D0000451
     508       0       0       2       1                               0D0000452
     126     321       0       0       0       0       0       000010000D0000453
     126       0       0       3       0                               0D0000454
     126     324       0       0       0       0       0       000010000D0000455
     126       0       0       2       0                               0D0000456
     126     326       0       0       0       0       0       000010000D0000457
     126       0       0       2       0                               0D0000458
     126     328       0       0       0       0       0       000010000D0000459
     126       0       0       2       0                               0D0000460
     510     330       0       0       0       0       0       000010000D0000461
     510       0       0       1       1                               0D0000462
     194     331       0       0       0       0       0       000010000D0000463
     194       0       0       1       1                               0D0000464
     116     332       0       0       0       0       0       000010400D0000465
     116       0       0       1       0                               0D0000466
     123     333       0       0       0       0       0       000010200D0000467
     123       0       0       1       0                               0D0000468
     123     334       0       0       0       0       0       000010200D0000469
     123       0       0       1       0                               0D0000470
     508     335       0       0       0       0       0       000010000D0000471
     508       0       0       2       1                               0D0000472
     126     337       0       0       0       0       0       000010000D0000473
     126       0       0       3       0                               0D0000474
     126     340       0       0       0       0       0       000010000D0000475
     126       0       0       2       0                               0D0000476
     126     342       0       0       0       0       0       000010000D0000477
     126       0       0       2       0                               0D0000478
     126     344       0       0       0       0       0       000010000D0000479
     126       0       0       2       0                               0D0000480
     510     346       0       0       0       0       0       000010000D0000481
     510       0       0       1       1                               0D0000482
     190     347       0       0       0       0       0       000010000D0000483
     190       0       0       1       1                               0D0000484
     116     348       0       0       0       0       0       000010400D0000485
     116       0       0       1       0                               0D0000486
     123     349       0       0       0       0       0       000010200D0000487
     123       0       0       1       0                               0D0000488
     123     350       0       0       0       0       0       000010200D0000489
     123       0       0       1       0                               0D0000490
     508     351       0       0       0       0       0       000010000D0000491
     508       0       0       1       1                               0D0000492
     510     352       0       0       0       0       0       000010000D0000493
     510       0       0       1       1                               0D0000494
     194     353       0       0       0       0       0       000010000D0000495
     194       0       0       1       1                               0D0000496
     116     354       0       0       0       0       0       000010400D0000497
     116       0       0       1       0                               0D0000498
     123     355       0       0       0       0       0       000010200D0000499
     123       0       0       1       0                               0D0000500
     123     356       0       0       0       0       0       000010200D0000501
     123       0       0       1       0                               0D0000502
     508     357       0       0       0       0       0       000010000D0000503
     508       0       0       2       1                               0D0000504
     126     359       0       0       0       0       0       000010000D0000505
     126       0       0       3       0                               0D0000506
     126     362       0       0       0       0       0       000010000D0000507
     126       0       0       2       0                               0D0000508
     126     364       0       0       0       0       0       000010000D0000509
     126       0       0       2       0                               0D0000510
     126     366       0       0       0       0       0       000010000D0000511
     126       0       0       2       0                               0D0000512
     510     368       0       0       0       0       0       000010000D0000513
     510       0       0       1       1                               0D0000514
     194     369       0       0       0       0       0       000010000D0000515
     194       0       0       1       1                               0D0000516
     116     370       0       0       0       0       0       000010400D0000517
     116       0       0       1       0                               0D0000518
     123     371       0       0       0       0       0       000010200D0000519
     123       0       0       1       0                               0D0000520
     123     372       0       0       0       0       0       000010200D0000521
     123       0       0       1       0                               0D0000522
     508     373       0       0       0       0       0       000010000D0000523
     508       0       0       2       1                               0D0000524
     126     375       0       0       0       0       0       000010000D0000525
     126       0       0       3       0                               0D0000526
     126     378       0       0       0       0       0       000010000D0000527
     126       0       0       2       0                               0D0000528
     126     380       0       0       0       0       0       000010000D0000529
     126       0       0       2       0                               0D0000530
     126     382       0       0       0       0       0       000010000D0000531
     126       0       0       2       0                               0D0000532
     510     384       0       0       0       0       0       000010000D0000533
     510       0       0       1       1                               0D0000534
     192     385       0       0       0       0       0       000010000D0000535
     192       0       0       1       1                               0D0000536
     116     386       0       0       0       0       0       000010400D0000537
     116       0       0       1       0                               0D0000538
     123     387       0       0       0       0       0       000010200D0000539
     123       0       0       1       0                               0D0000540
     123     388       0       0       0       0       0       000010200D0000541
     123       0       0       1       0                               0D0000542
     508     389       0       0       0       0       0       000010000D0000543
     508       0       0       2       1                               0D0000544
     126     391       0       0       0       0       0       000010000D0000545
     126       0       0       2       0                               0D0000546
     126     393       0       0       0       0       0       000010000D0000547
     126       0       0       2       0                               0D0000548
     126     395       0       0       0       0       0       000010000D0000549
     126       0       0       2       0                               0D0000550
     126     397       0       0       0       0       0       000010000D0000551
     126       0       0       2       0                               0D0000552
     510     399       0       0       0       0       0       000010000D0000553
     510       0       0       1       1                               0D0000554
     192     400       0       0       0       0       0       000010000D0000555
     192       0       0       1       1                               0D0000556
     116     401       0       0       0       0       0       000010400D0000557
     116       0       0       1       0                               0D0000558
     123     402       0       0       0       0       0       000010200D0000559
     123       0       0       1       0                               0D0000560
     123     403       0       0       0       0       0       000010200D0000561
     123       0       0       1       0                               0D0000562
     508     404       0       0       0       0       0       000010000D0000563
     508       0       0       2       1                               0D0000564
     126     406       0       0       0       0       0       000010000D0000565
     126       0       0       2       0                               0D0000566
     126     408       0       0       0       0       0       000010000D0000567
     126       0       0       2       0                               0D0000568
     126     410       0       0       0       0       0       000010000D0000569
     126       0       0       2       0                               0D0000570
     126     412       0       0       0       0       0       000010000D0000571
     126       0       0       2       0                               0D0000572
     510     414       0       0       0       0       0       000010000D0000573
     510       0       0       1       1                               0D0000574
     192     415       0       0       0       0       0       000010000D0000575
     192       0       0       1       1                               0D0000576
     116     416       0       0       0       0       0       000010400D0000577
     116       0       0       1       0                               0D0000578
     123     417       0       0       0       0       0       000010200D0000579
     123       0       0       1       0                               0D0000580
     123     418       0       0       0       0       0       000010200D0000581
     123       0       0       1       0                               0D0000582
     508     419       0       0       0       0       0       000010000D0000583
     508       0       0       2       1                               0D0000584
     126     421       0       0       0       0       0       000010000D0000585
     126       0       0       2       0                               0D0000586
     126     423       0       0       0       0       0       000010000D0000587
     126       0       0       2       0                               0D0000588
     126     425       0       0       0       0       0       000010000D0000589
     126       0       0       2       0                               0D0000590
     126     427       0       0       0       0       0       000010000D0000591
     126       0       0       2       0                               0D0000592
     510     429       0       0       0       0       0       000010000D0000593
     510       0       0       1       1                               0D0000594
     192     430       0       0       0       0       0       000010000D0000595
     192       0       0       1       1                               0D0000596
     116     431       0       0       0       0       0       000010400D0000597
     116       0       0       1       0                               0D0000598
     123     432       0       0       0       0       0       000010200D0000599
     123       0       0       1       0                               0D0000600
     123     433       0       0       0       0       0       000010200D0000601
     123       0       0       1       0                               0D0000602
     508     434       0       0       0       0       0       000010000D0000603
     508       0       0       2       1                               0D0000604
     126     436       0       0       0       0       0       000010000D0000605
     126       0       0       2       0                               0D0000606
     126     438       0       0       0       0       0       000010000D0000607
     126       0       0       2       0                               0D0000608
     126     440       0       0       0       0       0       000010000D0000609
     126       0       0       2       0                               0D0000610
     126     442       0       0       0       0       0       000010000D0000611
     126       0       0       2       0                               0D0000612
     510     444       0       0       0       0       0       000010000D0000613
     510       0       0       1       1                               0D0000614
     192     445       0       0       0       0       0       000010000D0000615
     192       0       0       1       1                               0D0000616
     116     446       0       0       0       0       0       000010400D0000617
     116       0       0       1       0                               0D0000618
     123     447       0       0       0       0       0       000010200D0000619
     123       0       0       1       0                               0D0000620
     123     448       0       0       0       0       0       000010200D0000621
     123       0       0       1       0                               0D0000622
     508     449       0       0       0       0       0       000010000D0000623
     508       0       0       2       1                               0D0000624
     126     451       0       0       0       0       0       000010000D0000625
     126       0       0       2       0                               0D0000626
     126     453       0       0       0       0       0       000010000D0000627
     126       0       0       2       0                               0D0000628
     126     455       0       0       0       0       0       000010000D0000629
     126       0       0       2       0                               0D0000630
     126     457       0       0       0       0       0       000010000D0000631
     126       0       0       2       0                               0D0000632
186,3,1,0;                                                       0000001P0000001
514,27,5,0,181,1,193,1,205,1,227,0,239,0,251,0,263,0,285,1,297,  0000003P0000002
0,317,0,329,0,349,0,369,0,389,0,409,1,421,0,441,0,461,0,481,1,   0000003P0000003
493,0,513,0,533,0,553,0,573,0,593,0,613,0;                       0000003P0000004
510,7,1,1,15;                                                    0000005P0000005
190,9,11,13;                                                     0000007P0000006
116,10.,3.996802889E-14,60.,0;                                   0000009P0000007
123,0.,-6.661338148E-16,-1.;                                     0000011P0000008
123,-1.,-0.,0.;                                                  0000013P0000009
508,4,0,17,1,1,0,0,17,2,1,0,0,17,3,0,0,0,17,4,0,0;               0000015P0000010
504,60,19,21,1,21,2,23,21,2,21,3,25,21,4,21,3,27,21,1,21,4,29,   0000017P0000011
21,2,21,5,31,21,6,21,5,33,21,1,21,6,35,21,1,21,7,37,21,7,21,8,   0000017P0000012
39,21,4,21,8,41,21,3,21,9,43,21,9,21,10,45,21,10,21,5,47,21,11,  0000017P0000013
21,11,51,21,12,21,12,55,21,13,21,13,59,21,14,21,14,63,21,15,21,  0000017P0000014
15,67,21,16,21,9,69,21,4,21,16,71,21,7,21,17,73,21,6,21,17,75,   0000017P0000015
21,18,21,10,77,21,18,21,6,79,21,8,21,19,81,21,19,21,20,83,21,20, 0000017P0000016
21,17,85,21,21,21,21,89,21,22,21,22,93,21,23,21,23,97,21,24,21,  0000017P0000017
24,101,21,25,21,25,105,21,16,21,19,107,21,26,21,11,109,21,26,21, 0000017P0000018
26,113,21,16,21,18,115,21,27,21,12,117,21,27,21,27,121,21,28,21, 0000017P0000019
13,123,21,28,21,28,127,21,29,21,14,129,21,29,21,29,133,21,30,21, 0000017P0000020
15,135,21,30,21,30,139,21,18,21,20,141,21,31,21,21,143,21,31,21, 0000017P0000021
31,147,21,32,21,22,149,21,32,21,32,153,21,33,21,23,155,21,33,21, 0000017P0000022
33,159,21,34,21,24,161,21,34,21,34,165,21,35,21,25,167,21,35,21, 0000017P0000023
35,171,21,31,21,26,173,21,32,21,27,175,21,33,21,28,177,21,35,21, 0000017P0000024
29,179,21,34,21,30;                                              0000017P0000025
110,10.,-0.5,60.,10.,-4.,60.;                                    0000019P0000026
502,35,10.,-0.5,60.,10.,-4.,60.,-10.,-4.,60.,-10.,-0.5,60.,10.,  0000021P0000027
-4.,2.664535259E-15,10.,-0.5,6.106226635E-16,9.5,                0000021P0000028
3.669287096E-14,59.5,-9.792893219,3.680389327E-14,59.5,-50.,-4., 0000021P0000029
20.,-50.,-4.,2.664535259E-15,-16.75,-4.,10.,3.25,-4.,30.,3.25,   0000021P0000030
-4.,10.,3.25,-4.,50.,-36.75,-4.,10.,-50.,-0.5,20.,9.5,           0000021P0000031
8.326672685E-17,0.5,-50.,-0.5,1.110223025E-16,-49.5,             0000021P0000032
2.160336204E-14,19.792893219,-49.5,-2.664535259E-15,0.5,-16.75,  0000021P0000033
6.77236045E-15,10.,3.25,2.009503675E-14,30.,3.25,6.77236045E-15, 0000021P0000034
10.,-36.75,6.77236045E-15,10.,3.25,3.341771304E-14,50.,-17.25,   0000021P0000035
-3.5,10.,2.75,-3.5,30.,2.75,-3.5,10.,2.75,-3.5,50.,-37.25,-3.5,  0000021P0000036
10.,-17.25,-0.5,10.,2.75,-0.5,30.,2.75,-0.5,10.,-37.25,-0.5,10., 0000021P0000037
2.75,-0.5,50.;                                                   0000021P0000038
110,10.,-4.,60.,-10.,-4.,60.;                                    0000023P0000039
110,-10.,-0.5,60.,-10.,-4.,60.;                                  0000025P0000040
110,10.,-0.5,60.,-10.,-0.5,60.;                                  0000027P0000041
110,10.,-4.,60.,10.,-4.,0.;                                      0000029P0000042
110,10.,-0.5,3.330669074E-16,10.,-4.,2.664535259E-15;            0000031P0000043
110,10.,-0.5,60.,10.,-0.5,0.;                                    0000033P0000044
110,10.,-0.5,60.,9.5,1.29032471E-14,59.5;                        0000035P0000045
110,9.5,3.963496198E-14,59.5,-9.792893219,3.963496198E-14,59.5;  0000037P0000046
110,-10.,-0.5,60.,-9.792893219,1.821366738E-13,59.5;             0000039P0000047
110,-10.,-4.,60.,-50.,-4.,20.;                                   0000041P0000048
110,-50.,-4.,20.,-50.,-4.,3.552713679E-15;                       0000043P0000049
110,-50.,-4.,2.664535259E-15,10.,-4.,2.664535259E-15;            0000045P0000050
100,0.,0.,0.,3.25,0.,3.25,0.;                                    0000047P0000051
124,1.,-6.459479416E-16,-7.395570986E-32,-20.,3.563320566E-31,   0000049P0000052
6.661338148E-16,-1.,-4.,6.459479416E-16,1.,6.661338148E-16,10.;  0000049P0000053
100,0.,0.,0.,3.25,0.,3.25,0.;                                    0000051P0000054
124,1.,-1.069580751E-61,-7.395570986E-32,0.,-7.395570986E-32,    0000053P0000055
6.661338148E-16,-1.,-4.,4.926439914E-47,1.,6.661338148E-16,30.;  0000053P0000056
100,0.,0.,0.,3.25,0.,3.25,0.;                                    0000055P0000057
124,1.,-6.459479416E-16,-7.395570986E-32,0.,3.563320566E-31,     0000057P0000058
6.661338148E-16,-1.,-4.,6.459479416E-16,1.,6.661338148E-16,10.;  0000057P0000059
100,0.,0.,0.,3.25,0.,3.25,0.;                                    0000059P0000060
124,1.,-1.069580751E-61,-7.395570986E-32,0.,-7.395570986E-32,    0000061P0000061
6.661338148E-16,-1.,-4.,4.926439914E-47,1.,6.661338148E-16,50.;  0000061P0000062
100,0.,0.,0.,3.25,0.,3.25,0.;                                    0000063P0000063
124,1.,-6.459479416E-16,-7.395570986E-32,-40.,3.563320566E-31,   0000065P0000064
6.661338148E-16,-1.,-4.,6.459479416E-16,1.,6.661338148E-16,10.;  0000065P0000065
110,-50.,-0.5,20.,-50.,-4.,20.;                                  0000067P0000066
110,-10.,-0.5,60.,-50.,-0.5,20.;                                 0000069P0000067
110,9.5,3.963496198E-14,59.5,9.5,3.330669074E-16,0.5;            0000071P0000068
110,10.,-0.5,2.325696127E-12,9.5,2.32714451E-12,0.5;             0000073P0000069
110,-50.,-0.5,3.330669074E-16,-50.,-4.,2.664535259E-15;          0000075P0000070
110,-50.,-0.5,3.330669074E-16,10.,-0.5,3.330669074E-16;          0000077P0000071
110,-9.792893219,3.963496198E-14,59.5,-49.5,1.318471547E-14,     0000079P0000072
19.792893219;                                                    0000079P0000073
110,-49.5,1.318471547E-14,19.792893219,-49.5,3.330669074E-16,    0000081P0000074
0.5;                                                             0000081P0000075
110,-49.5,3.330669074E-16,0.5,9.5,3.330669074E-16,0.5;           0000083P0000076
100,0.,0.,0.,3.25,0.,3.25,0.;                                    0000085P0000077
124,1.,-1.069580751E-61,-7.395570986E-32,-20.,-7.395570986E-32,  0000087P0000078
6.661338148E-16,-1.,6.661338148E-15,4.926439914E-47,1.,          0000087P0000079
6.661338148E-16,10.;                                             0000087P0000080
100,0.,0.,0.,3.25,0.,3.25,0.;                                    0000089P0000081
124,1.,-2.54781539E-46,-7.395570986E-32,0.,-7.395570986E-32,     0000091P0000082
6.661338148E-16,-1.,1.998401444E-14,3.040459381E-46,1.,          0000091P0000083
6.661338148E-16,30.;                                             0000091P0000084
100,0.,0.,0.,3.25,0.,3.25,0.;                                    0000093P0000085
124,1.,-1.273907695E-46,-7.395570986E-32,0.,-7.395570986E-32,    0000095P0000086
6.661338148E-16,-1.,6.661338148E-15,1.766551686E-46,1.,          0000095P0000087
6.661338148E-16,10.;                                             0000095P0000088
100,0.,0.,0.,3.25,0.,3.25,0.;                                    0000097P0000089
124,1.,2.54781539E-46,-7.395570986E-32,-40.,-7.395570986E-32,    0000099P0000090
6.661338148E-16,-1.,6.661338148E-15,-2.055171398E-46,1.,         0000099P0000091
6.661338148E-16,10.;                                             0000099P0000092
100,0.,0.,0.,3.25,0.,3.25,0.;                                    0000101P0000093
124,1.,-1.069580751E-61,-7.395570986E-32,0.,-7.395570986E-32,    0000103P0000094
6.661338148E-16,-1.,3.330669074E-14,4.926439914E-47,1.,          0000103P0000095
6.661338148E-16,50.;                                             0000103P0000096
110,-50.,-0.5,20.,-49.5,-1.127891728E-12,19.792893219;           0000105P0000097
110,-17.25,-3.5,10.,-16.75,-4.,10.;                              0000107P0000098
100,0.,0.,0.,2.75,0.,2.75,0.;                                    0000109P0000099
124,1.,-6.459479416E-16,-7.395570986E-32,-20.,3.563320566E-31,   0000111P0000100
6.661338148E-16,-1.,-3.5,6.459479416E-16,1.,6.661338148E-16,10.; 0000111P0000101
110,-50.,-0.5,20.,-50.,-0.5,0.;                                  0000113P0000102
110,2.75,-3.5,30.,3.25,-4.,30.;                                  0000115P0000103
100,0.,0.,0.,2.75,0.,2.75,0.;                                    0000117P0000104
124,1.,-1.069580751E-61,-7.395570986E-32,3.697785493E-32,        0000119P0000105
-7.395570986E-32,6.661338148E-16,-1.,-3.5,4.926439914E-47,1.,    0000119P0000106
6.661338148E-16,30.;                                             0000119P0000107
110,2.75,-3.5,10.,3.25,-4.,10.;                                  0000121P0000108
100,0.,0.,0.,2.75,0.,2.75,0.;                                    0000123P0000109
124,1.,-6.459479416E-16,-7.395570986E-32,3.697785493E-32,        0000125P0000110
3.563320566E-31,6.661338148E-16,-1.,-3.5,6.459479416E-16,1.,     0000125P0000111
6.661338148E-16,10.;                                             0000125P0000112
110,2.75,-3.5,50.,3.25,-4.,50.;                                  0000127P0000113
100,0.,0.,0.,2.75,0.,2.75,0.;                                    0000129P0000114
124,1.,-1.069580751E-61,-7.395570986E-32,3.697785493E-32,        0000131P0000115
-7.395570986E-32,6.661338148E-16,-1.,-3.5,4.926439914E-47,1.,    0000131P0000116
6.661338148E-16,50.;                                             0000131P0000117
110,-37.25,-3.5,10.,-36.75,-4.,10.;                              0000133P0000118
100,0.,0.,0.,2.75,0.,2.75,0.;                                    0000135P0000119
124,1.,-6.459479416E-16,-7.395570986E-32,-40.,3.563320566E-31,   0000137P0000120
6.661338148E-16,-1.,-3.5,6.459479416E-16,1.,6.661338148E-16,10.; 0000137P0000121
110,-50.,-0.5,-9.08461402E-16,-49.5,-1.511238416E-15,0.5;        0000139P0000122
110,-17.25,-0.5,10.,-16.75,3.444056873E-15,10.;                  0000141P0000123
100,0.,0.,0.,2.75,0.,2.75,0.;                                    0000143P0000124
124,1.,-1.069580751E-61,-7.395570986E-32,-20.,-7.395570986E-32,  0000145P0000125
6.661338148E-16,-1.,-0.5,4.926439914E-47,1.,6.661338148E-16,10.; 0000145P0000126
110,2.75,-0.5,30.,3.25,1.011694982E-14,30.;                      0000147P0000127
100,0.,0.,0.,2.75,0.,2.75,0.;                                    0000149P0000128
124,1.,-2.54781539E-46,-7.395570986E-32,-3.697785493E-32,        0000151P0000129
-7.395570986E-32,6.661338148E-16,-1.,-0.5,3.040459381E-46,1.,    0000151P0000130
6.661338148E-16,30.;                                             0000151P0000131
110,2.75,-0.5,10.,3.25,3.444056873E-15,10.;                      0000153P0000132
100,0.,0.,0.,2.75,0.,2.75,0.;                                    0000155P0000133
124,1.,-1.273907695E-46,-7.395570986E-32,-3.697785493E-32,       0000157P0000134
-7.395570986E-32,6.661338148E-16,-1.,-0.5,1.766551686E-46,1.,    0000157P0000135
6.661338148E-16,10.;                                             0000157P0000136
110,-37.25,-0.5,10.,-36.75,3.444056873E-15,10.;                  0000159P0000137
100,0.,0.,0.,2.75,0.,2.75,0.;                                    0000161P0000138
124,1.,2.54781539E-46,-7.395570986E-32,-40.,-7.395570986E-32,    0000163P0000139
6.661338148E-16,-1.,-0.5,-2.055171398E-46,1.,6.661338148E-16,    0000163P0000140
10.;                                                             0000163P0000141
110,2.75,-0.5,50.,3.25,1.678984277E-14,50.;                      0000165P0000142
100,0.,0.,0.,2.75,0.,2.75,0.;                                    0000167P0000143
124,1.,-1.069580751E-61,-7.395570986E-32,-3.697785493E-32,       0000169P0000144
-7.395570986E-32,6.661338148E-16,-1.,-0.5,4.926439914E-47,1.,    0000169P0000145
6.661338148E-16,50.;                                             0000169P0000146
110,-17.25,-0.5,10.,-17.25,-3.5,10.;                             0000171P0000147
110,2.75,-0.5,30.,2.75,-3.5,30.;                                 0000173P0000148
110,2.75,-0.5,10.,2.75,-3.5,10.;                                 0000175P0000149
110,2.75,-0.5,50.,2.75,-3.5,50.;                                 0000177P0000150
110,-37.25,-0.5,10.,-37.25,-3.5,10.;                             0000179P0000151
510,183,1,1,191;                                                 0000181P0000152
190,185,187,189;                                                 0000183P0000153
116,10.,3.996802889E-14,60.,0;                                   0000185P0000154
123,1.,0.,0.;                                                    0000187P0000155
123,0.,-6.661338148E-16,-1.;                                     0000189P0000156
508,4,0,17,1,1,0,0,17,5,1,0,0,17,6,0,0,0,17,7,0,0;               0000191P0000157
510,195,1,1,203;                                                 0000193P0000158
190,197,199,201;                                                 0000195P0000159
116,10.,-0.25,59.75,0;                                           0000197P0000160
123,6.956219509E-18,0.707106781,0.707106781;                     0000199P0000161
123,1.,-4.918789986E-18,-4.918789986E-18;                        0000201P0000162
508,4,0,17,8,1,0,0,17,9,1,0,0,17,10,0,0,0,17,4,0,0;              0000203P0000163
510,207,6,1,215,217,219,221,223,225;                             0000205P0000164
190,209,211,213;                                                 0000207P0000165
116,-15.224077499,-4.,25.224077499,0;                            0000209P0000166
123,-7.395570986E-32,-1.,6.661338148E-16;                        0000211P0000167
123,0.,-6.661338148E-16,-1.;                                     0000213P0000168
508,5,0,17,2,1,0,0,17,11,1,0,0,17,12,1,0,0,17,13,1,0,0,17,5,0,0; 0000215P0000169
508,1,0,17,14,0,0;                                               0000217P0000170
508,1,0,17,15,0,0;                                               0000219P0000171
508,1,0,17,16,0,0;                                               0000221P0000172
508,1,0,17,17,0,0;                                               0000223P0000173
508,1,0,17,18,0,0;                                               0000225P0000174
510,229,1,1,237;                                                 0000227P0000175
190,231,233,235;                                                 0000229P0000176
116,-10.,3.996802889E-14,60.,0;                                  0000231P0000177
123,0.707106781,-4.710277376E-16,-0.707106781;                   0000233P0000178
123,-0.707106781,-4.710277376E-16,-0.707106781;                  0000235P0000179
508,4,0,17,3,1,0,0,17,11,1,0,0,17,19,0,0,0,17,20,0,0;            0000237P0000180
510,241,1,1,249;                                                 0000239P0000181
190,243,245,247;                                                 0000241P0000182
116,9.75,-0.25,60.,0;                                            0000243P0000183
123,-0.707106781,-0.707106781,4.700391238E-16;                   0000245P0000184
123,-6.990555553E-19,6.654347592E-16,1.;                         0000247P0000185
508,4,0,17,8,1,0,0,17,21,1,0,0,17,22,0,0,0,17,7,0,0;             0000249P0000186
510,253,1,1,261;                                                 0000251P0000187
190,255,257,259;                                                 0000253P0000188
116,-50.,0.,0.,0;                                                0000255P0000189
123,0.,6.661338148E-16,1.;                                       0000257P0000190
123,1.,0.,-0.;                                                   0000259P0000191
508,4,0,17,23,1,0,0,17,13,1,0,0,17,6,0,0,0,17,24,0,0;            0000261P0000192
510,265,6,1,273,275,277,279,281,283;                             0000263P0000193
190,267,269,271;                                                 0000265P0000194
116,-15.224077499,1.680261097E-14,25.224077499,0;                0000267P0000195
123,-7.395570986E-32,-1.,6.661338148E-16;                        0000269P0000196
123,0.,-6.661338148E-16,-1.;                                     0000271P0000197
508,5,0,17,9,1,0,0,17,25,1,0,0,17,26,1,0,0,17,27,1,0,0,17,21,0,  0000273P0000198
0;                                                               0000273P0000199
508,1,0,17,28,0,0;                                               0000275P0000200
508,1,0,17,29,0,0;                                               0000277P0000201
508,1,0,17,30,0,0;                                               0000279P0000202
508,1,0,17,31,0,0;                                               0000281P0000203
508,1,0,17,32,0,0;                                               0000283P0000204
510,287,1,1,295;                                                 0000285P0000205
190,289,291,293;                                                 0000287P0000206
116,-9.823223305,-0.25,59.823223305,0;                           0000289P0000207
123,-0.5,0.707106781,0.5;                                        0000291P0000208
123,0.707106781,1.387778781E-16,0.707106781;                     0000293P0000209
508,4,0,17,10,1,0,0,17,25,1,0,0,17,33,0,0,0,17,20,0,0;           0000295P0000210
510,299,1,1,307;                                                 0000297P0000211
194,301,303,2.75,45.,305;                                        0000299P0000212
116,-20.,-3.5,10.,0;                                             0000301P0000213
123,-7.395570986E-32,-1.,6.661338148E-16;                        0000303P0000214
123,1.,3.563320566E-31,6.459479416E-16;                          0000305P0000215
508,4,0,17,34,0,1,0,309,0,17,35,1,1,0,311,0,17,34,1,1,0,313,0,   0000307P0000216
17,14,0,1,0,315;                                                 0000307P0000217
126,1,1,1,0,1,0,0.,0.,0.707106781,0.707106781,1.,1.,0.,          0000309P0000218
0.707106781,0.,0.,0.,0.,0.,0.707106781,0.,0.,1.;                 0000309P0000219
126,1,1,1,0,1,0,0.,0.,6.283185307,6.283185307,1.,1.,0.,0.,0.,    0000311P0000220
360.,0.,0.,0.,6.283185307,0.,0.,1.;                              0000311P0000221
126,1,1,1,0,1,0,0.,0.,0.707106781,0.707106781,1.,1.,360.,0.,0.,  0000313P0000222
360.,0.707106781,0.,0.,0.707106781,0.,0.,1.;                     0000313P0000223
126,1,1,1,0,1,0,0.,0.,6.283185307,6.283185307,1.,1.,360.,        0000315P0000224
0.707106781,0.,0.,0.707106781,0.,0.,6.283185307,0.,0.,1.;        0000315P0000225
510,319,1,1,327;                                                 0000317P0000226
190,321,323,325;                                                 0000319P0000227
116,-50.,1.33226763E-14,20.,0;                                   0000321P0000228
123,1.,0.,0.;                                                    0000323P0000229
123,0.,-6.661338148E-16,-1.;                                     0000325P0000230
508,4,0,17,19,1,0,0,17,12,1,0,0,17,23,0,0,0,17,36,0,0;           0000327P0000231
510,331,1,1,339;                                                 0000329P0000232
194,333,335,2.75,45.,337;                                        0000331P0000233
116,3.697785493E-32,-3.5,30.,0;                                  0000333P0000234
123,-7.395570986E-32,-1.,6.661338148E-16;                        0000335P0000235
123,1.,-7.395570986E-32,4.926439914E-47;                         0000337P0000236
508,4,0,17,37,0,1,0,341,0,17,38,1,1,0,343,0,17,37,1,1,0,345,0,   0000339P0000237
17,15,0,1,0,347;                                                 0000339P0000238
126,1,1,1,0,1,0,0.,0.,0.707106781,0.707106781,1.,1.,0.,          0000341P0000239
0.707106781,0.,0.,0.,0.,0.,0.707106781,0.,0.,1.;                 0000341P0000240
126,1,1,1,0,1,0,0.,0.,6.283185307,6.283185307,1.,1.,0.,0.,0.,    0000343P0000241
360.,0.,0.,0.,6.283185307,0.,0.,1.;                              0000343P0000242
126,1,1,1,0,1,0,0.,0.,0.707106781,0.707106781,1.,1.,360.,0.,0.,  0000345P0000243
360.,0.707106781,0.,0.,0.707106781,0.,0.,1.;                     0000345P0000244
126,1,1,1,0,1,0,0.,0.,6.283185307,6.283185307,1.,1.,360.,        0000347P0000245
0.707106781,0.,0.,0.707106781,0.,0.,6.283185307,0.,0.,1.;        0000347P0000246
510,351,1,1,359;                                                 0000349P0000247
194,353,355,2.75,45.,357;                                        0000351P0000248
116,3.697785493E-32,-3.5,10.,0;                                  0000353P0000249
123,-7.395570986E-32,-1.,6.661338148E-16;                        0000355P0000250
123,1.,3.563320566E-31,6.459479416E-16;                          0000357P0000251
508,4,0,17,39,0,1,0,361,0,17,40,1,1,0,363,0,17,39,1,1,0,365,0,   0000359P0000252
17,16,0,1,0,367;                                                 0000359P0000253
126,1,1,1,0,1,0,0.,0.,0.707106781,0.707106781,1.,1.,0.,          0000361P0000254
0.707106781,0.,0.,0.,0.,0.,0.707106781,0.,0.,1.;                 0000361P0000255
126,1,1,1,0,1,0,0.,0.,6.283185307,6.283185307,1.,1.,0.,0.,0.,    0000363P0000256
360.,0.,0.,0.,6.283185307,0.,0.,1.;                              0000363P0000257
126,1,1,1,0,1,0,0.,0.,0.707106781,0.707106781,1.,1.,360.,0.,0.,  0000365P0000258
360.,0.707106781,0.,0.,0.707106781,0.,0.,1.;                     0000365P0000259
126,1,1,1,0,1,0,0.,0.,6.283185307,6.283185307,1.,1.,360.,        0000367P0000260
0.707106781,0.,0.,0.707106781,0.,0.,6.283185307,0.,0.,1.;        0000367P0000261
510,371,1,1,379;                                                 0000369P0000262
194,373,375,2.75,45.,377;                                        0000371P0000263
116,3.697785493E-32,-3.5,50.,0;                                  0000373P0000264
123,-7.395570986E-32,-1.,6.661338148E-16;                        0000375P0000265
123,1.,-7.395570986E-32,4.926439914E-47;                         0000377P0000266
508,4,0,17,41,0,1,0,381,0,17,42,1,1,0,383,0,17,41,1,1,0,385,0,   0000379P0000267
17,17,0,1,0,387;                                                 0000379P0000268
126,1,1,1,0,1,0,0.,0.,0.707106781,0.707106781,1.,1.,0.,          0000381P0000269
0.707106781,0.,0.,0.,0.,0.,0.707106781,0.,0.,1.;                 0000381P0000270
126,1,1,1,0,1,0,0.,0.,6.283185307,6.283185307,1.,1.,0.,0.,0.,    0000383P0000271
360.,0.,0.,0.,6.283185307,0.,0.,1.;                              0000383P0000272
126,1,1,1,0,1,0,0.,0.,0.707106781,0.707106781,1.,1.,360.,0.,0.,  0000385P0000273
360.,0.707106781,0.,0.,0.707106781,0.,0.,1.;                     0000385P0000274
126,1,1,1,0,1,0,0.,0.,6.283185307,6.283185307,1.,1.,360.,        0000387P0000275
0.707106781,0.,0.,0.707106781,0.,0.,6.283185307,0.,0.,1.;        0000387P0000276
510,391,1,1,399;                                                 0000389P0000277
194,393,395,2.75,45.,397;                                        0000391P0000278
116,-40.,-3.5,10.,0;                                             0000393P0000279
123,-7.395570986E-32,-1.,6.661338148E-16;                        0000395P0000280
123,1.,3.563320566E-31,6.459479416E-16;                          0000397P0000281
508,4,0,17,43,0,1,0,401,0,17,44,1,1,0,403,0,17,43,1,1,0,405,0,   0000399P0000282
17,18,0,1,0,407;                                                 0000399P0000283
126,1,1,1,0,1,0,0.,0.,0.707106781,0.707106781,1.,1.,0.,          0000401P0000284
0.707106781,0.,0.,0.,0.,0.,0.707106781,0.,0.,1.;                 0000401P0000285
126,1,1,1,0,1,0,0.,0.,6.283185307,6.283185307,1.,1.,0.,0.,0.,    0000403P0000286
360.,0.,0.,0.,6.283185307,0.,0.,1.;                              0000403P0000287
126,1,1,1,0,1,0,0.,0.,0.707106781,0.707106781,1.,1.,360.,0.,0.,  0000405P0000288
360.,0.707106781,0.,0.,0.707106781,0.,0.,1.;                     0000405P0000289
126,1,1,1,0,1,0,0.,0.,6.283185307,6.283185307,1.,1.,360.,        0000407P0000290
0.707106781,0.,0.,0.707106781,0.,0.,6.283185307,0.,0.,1.;        0000407P0000291
510,411,1,1,419;                                                 0000409P0000292
190,413,415,417;                                                 0000411P0000293
116,-50.,-0.25,0.25,0;                                           0000413P0000294
123,6.956219509E-18,0.707106781,-0.707106781;                    0000415P0000295
123,-1.,4.918789986E-18,-4.918789986E-18;                        0000417P0000296
508,4,0,17,45,1,0,0,17,27,1,0,0,17,22,0,0,0,17,24,0,0;           0000419P0000297
510,423,1,1,431;                                                 0000421P0000298
194,425,427,2.75,45.,429;                                        0000423P0000299
116,-20.,-0.5,10.,0;                                             0000425P0000300
123,7.395570986E-32,1.,-6.661338148E-16;                         0000427P0000301
123,1.,-7.395570986E-32,4.926439914E-47;                         0000429P0000302
508,4,0,17,28,1,1,0,433,0,17,46,0,1,0,435,0,17,47,0,1,0,437,0,   0000431P0000303
17,46,1,1,0,439;                                                 0000431P0000304
126,1,1,1,0,1,0,0.,0.,6.283185307,6.283185307,1.,1.,360.,        0000433P0000305
0.707106781,0.,-2.37142157E-11,0.707106781,0.,0.,6.283185307,0., 0000433P0000306
0.,1.;                                                           0000433P0000307
126,1,1,1,0,1,0,0.,0.,0.707106781,0.707106781,1.,1.,0.,          0000435P0000308
0.707106781,0.,0.,0.,0.,0.,0.707106781,0.,0.,1.;                 0000435P0000309
126,1,1,1,0,1,0,0.,0.,6.283185307,6.283185307,1.,1.,             0000437P0000310
-2.37142157E-11,0.,0.,360.,0.,0.,0.,6.283185307,0.,0.,1.;        0000437P0000311
126,1,1,1,0,1,0,0.,0.,0.707106781,0.707106781,1.,1.,360.,0.,0.,  0000439P0000312
360.,0.707106781,0.,0.,0.707106781,0.,0.,1.;                     0000439P0000313
510,443,1,1,451;                                                 0000441P0000314
194,445,447,2.75,45.,449;                                        0000443P0000315
116,-3.697785493E-32,-0.5,30.,0;                                 0000445P0000316
123,7.395570986E-32,1.,-6.661338148E-16;                         0000447P0000317
123,1.,-7.395570986E-32,3.040459381E-46;                         0000449P0000318
508,4,0,17,29,1,1,0,453,0,17,48,0,1,0,455,0,17,49,0,1,0,457,0,   0000451P0000319
17,48,1,1,0,459;                                                 0000451P0000320
126,1,1,1,0,1,0,0.,0.,6.283185307,6.283185307,1.,1.,360.,        0000453P0000321
0.707106781,0.,-2.37142157E-11,0.707106781,0.,0.,6.283185307,0., 0000453P0000322
0.,1.;                                                           0000453P0000323
126,1,1,1,0,1,0,0.,0.,0.707106781,0.707106781,1.,1.,0.,          0000455P0000324
0.707106781,0.,0.,0.,0.,0.,0.707106781,0.,0.,1.;                 0000455P0000325
126,1,1,1,0,1,0,0.,0.,6.283185307,6.283185307,1.,1.,             0000457P0000326
-2.37142157E-11,0.,0.,360.,0.,0.,0.,6.283185307,0.,0.,1.;        0000457P0000327
126,1,1,1,0,1,0,0.,0.,0.707106781,0.707106781,1.,1.,360.,0.,0.,  0000459P0000328
360.,0.707106781,0.,0.,0.707106781,0.,0.,1.;                     0000459P0000329
510,463,1,1,471;                                                 0000461P0000330
194,465,467,2.75,45.,469;                                        0000463P0000331
116,-3.697785493E-32,-0.5,10.,0;                                 0000465P0000332
123,7.395570986E-32,1.,-6.661338148E-16;                         0000467P0000333
123,1.,-7.395570986E-32,1.766551686E-46;                         0000469P0000334
508,4,0,17,30,1,1,0,473,0,17,50,0,1,0,475,0,17,51,0,1,0,477,0,   0000471P0000335
17,50,1,1,0,479;                                                 0000471P0000336
126,1,1,1,0,1,0,0.,0.,6.283185307,6.283185307,1.,1.,360.,        0000473P0000337
0.707106781,0.,-2.37142157E-11,0.707106781,0.,0.,6.283185307,0., 0000473P0000338
0.,1.;                                                           0000473P0000339
126,1,1,1,0,1,0,0.,0.,0.707106781,0.707106781,1.,1.,0.,          0000475P0000340
0.707106781,0.,0.,0.,0.,0.,0.707106781,0.,0.,1.;                 0000475P0000341
126,1,1,1,0,1,0,0.,0.,6.283185307,6.283185307,1.,1.,             0000477P0000342
-2.37142157E-11,0.,0.,360.,0.,0.,0.,6.283185307,0.,0.,1.;        0000477P0000343
126,1,1,1,0,1,0,0.,0.,0.707106781,0.707106781,1.,1.,360.,0.,0.,  0000479P0000344
360.,0.707106781,0.,0.,0.707106781,0.,0.,1.;                     0000479P0000345
510,483,1,1,491;                                                 0000481P0000346
190,485,487,489;                                                 0000483P0000347
116,-49.75,-0.25,20.,0;                                          0000485P0000348
123,-0.707106781,0.707106781,-4.700391238E-16;                   0000487P0000349
123,6.990555553E-19,6.654347592E-16,1.;                          0000489P0000350
508,4,0,17,33,1,0,0,17,26,1,0,0,17,45,0,0,0,17,36,0,0;           0000491P0000351
510,495,1,1,503;                                                 0000493P0000352
194,497,499,2.75,45.,501;                                        0000495P0000353
116,-40.,-0.5,10.,0;                                             0000497P0000354
123,7.395570986E-32,1.,-6.661338148E-16;                         0000499P0000355
123,1.,-7.395570986E-32,-2.055171398E-46;                        0000501P0000356
508,4,0,17,31,1,1,0,505,0,17,52,0,1,0,507,0,17,53,0,1,0,509,0,   0000503P0000357
17,52,1,1,0,511;                                                 0000503P0000358
126,1,1,1,0,1,0,0.,0.,6.283185307,6.283185307,1.,1.,360.,        0000505P0000359
0.707106781,0.,-2.37142157E-11,0.707106781,0.,0.,6.283185307,0., 0000505P0000360
0.,1.;                                                           0000505P0000361
126,1,1,1,0,1,0,0.,0.,0.707106781,0.707106781,1.,1.,0.,          0000507P0000362
0.707106781,0.,0.,0.,0.,0.,0.707106781,0.,0.,1.;                 0000507P0000363
126,1,1,1,0,1,0,0.,0.,6.283185307,6.283185307,1.,1.,             0000509P0000364
-2.37142157E-11,0.,0.,360.,0.,0.,0.,6.283185307,0.,0.,1.;        0000509P0000365
126,1,1,1,0,1,0,0.,0.,0.707106781,0.707106781,1.,1.,360.,0.,0.,  0000511P0000366
360.,0.707106781,0.,0.,0.707106781,0.,0.,1.;                     0000511P0000367
510,515,1,1,523;                                                 0000513P0000368
194,517,519,2.75,45.,521;                                        0000515P0000369
116,-3.697785493E-32,-0.5,50.,0;                                 0000517P0000370
123,7.395570986E-32,1.,-6.661338148E-16;                         0000519P0000371
123,1.,-7.395570986E-32,4.926439914E-47;                         0000521P0000372
508,4,0,17,32,1,1,0,525,0,17,54,0,1,0,527,0,17,55,0,1,0,529,0,   0000523P0000373
17,54,1,1,0,531;                                                 0000523P0000374
126,1,1,1,0,1,0,0.,0.,6.283185307,6.283185307,1.,1.,360.,        0000525P0000375
0.707106781,0.,-2.37142157E-11,0.707106781,0.,0.,6.283185307,0., 0000525P0000376
0.,1.;                                                           0000525P0000377
126,1,1,1,0,1,0,0.,0.,0.707106781,0.707106781,1.,1.,0.,          0000527P0000378
0.707106781,0.,0.,0.,0.,0.,0.707106781,0.,0.,1.;                 0000527P0000379
126,1,1,1,0,1,0,0.,0.,6.283185307,6.283185307,1.,1.,             0000529P0000380
-2.37142157E-11,0.,0.,360.,0.,0.,0.,6.283185307,0.,0.,1.;        0000529P0000381
126,1,1,1,0,1,0,0.,0.,0.707106781,0.707106781,1.,1.,360.,0.,0.,  0000531P0000382
360.,0.707106781,0.,0.,0.707106781,0.,0.,1.;                     0000531P0000383
510,535,1,1,543;                                                 0000533P0000384
192,537,539,2.75,541;                                            0000535P0000385
116,-20.,6.661338148E-15,10.,0;                                  0000537P0000386
123,0.,1.,-6.661338148E-16;                                      0000539P0000387
123,1.,0.,0.;                                                    0000541P0000388
508,4,0,17,47,1,1,0,545,0,17,56,1,1,0,547,0,17,35,0,1,0,549,0,   0000543P0000389
17,56,0,1,0,551;                                                 0000543P0000390
126,1,1,1,0,1,0,0.,0.,6.283185307,6.283185307,1.,1.,360.,-0.5,   0000545P0000391
-0.,-2.37142157E-11,-0.5,0.,0.,6.283185307,0.,0.,1.;             0000545P0000392
126,1,1,1,0,1,0,0.5,0.5,3.5,3.5,1.,1.,-2.37142157E-11,-0.5,0.,   0000547P0000393
-2.37142157E-11,-3.5,0.,0.5,3.5,0.,0.,1.;                        0000547P0000394
126,1,1,1,0,1,0,0.,0.,6.283185307,6.283185307,1.,1.,             0000549P0000395
-2.37142157E-11,-3.5,0.,360.,-3.5,-0.,0.,6.283185307,0.,0.,1.;   0000549P0000396
126,1,1,1,0,1,0,0.5,0.5,3.5,3.5,1.,1.,360.,-3.5,-0.,360.,-0.5,   0000551P0000397
-0.,0.5,3.5,0.,0.,1.;                                            0000551P0000398
510,555,1,1,563;                                                 0000553P0000399
192,557,559,2.75,561;                                            0000555P0000400
116,0.,1.998401444E-14,30.,0;                                    0000557P0000401
123,0.,1.,-6.661338148E-16;                                      0000559P0000402
123,1.,0.,0.;                                                    0000561P0000403
508,4,0,17,49,1,1,0,565,0,17,57,1,1,0,567,0,17,38,0,1,0,569,0,   0000563P0000404
17,57,0,1,0,571;                                                 0000563P0000405
126,1,1,1,0,1,0,0.,0.,6.283185307,6.283185307,1.,1.,360.,-0.5,   0000565P0000406
-0.,-2.37142157E-11,-0.5,0.,0.,6.283185307,0.,0.,1.;             0000565P0000407
126,1,1,1,0,1,0,0.5,0.5,3.5,3.5,1.,1.,-2.37142157E-11,-0.5,0.,   0000567P0000408
-2.37142157E-11,-3.5,0.,0.5,3.5,0.,0.,1.;                        0000567P0000409
126,1,1,1,0,1,0,0.,0.,6.283185307,6.283185307,1.,1.,             0000569P0000410
-2.37142157E-11,-3.5,0.,360.,-3.5,-0.,0.,6.283185307,0.,0.,1.;   0000569P0000411
126,1,1,1,0,1,0,0.5,0.5,3.5,3.5,1.,1.,360.,-3.5,-0.,360.,-0.5,   0000571P0000412
-0.,0.5,3.5,0.,0.,1.;                                            0000571P0000413
510,575,1,1,583;                                                 0000573P0000414
192,577,579,2.75,581;                                            0000575P0000415
116,0.,6.661338148E-15,10.,0;                                    0000577P0000416
123,0.,1.,-6.661338148E-16;                                      0000579P0000417
123,1.,0.,0.;                                                    0000581P0000418
508,4,0,17,51,1,1,0,585,0,17,58,1,1,0,587,0,17,40,0,1,0,589,0,   0000583P0000419
17,58,0,1,0,591;                                                 0000583P0000420
126,1,1,1,0,1,0,0.,0.,6.283185307,6.283185307,1.,1.,360.,-0.5,   0000585P0000421
-0.,-2.37142157E-11,-0.5,0.,0.,6.283185307,0.,0.,1.;             0000585P0000422
126,1,1,1,0,1,0,0.5,0.5,3.5,3.5,1.,1.,-2.37142157E-11,-0.5,0.,   0000587P0000423
-2.37142157E-11,-3.5,0.,0.5,3.5,0.,0.,1.;                        0000587P0000424
126,1,1,1,0,1,0,0.,0.,6.283185307,6.283185307,1.,1.,             0000589P0000425
-2.37142157E-11,-3.5,0.,360.,-3.5,-0.,0.,6.283185307,0.,0.,1.;   0000589P0000426
126,1,1,1,0,1,0,0.5,0.5,3.5,3.5,1.,1.,360.,-3.5,-0.,360.,-0.5,   0000591P0000427
-0.,0.5,3.5,0.,0.,1.;                                            0000591P0000428
510,595,1,1,603;                                                 0000593P0000429
192,597,599,2.75,601;                                            0000595P0000430
116,0.,3.330669074E-14,50.,0;                                    0000597P0000431
123,0.,1.,-6.661338148E-16;                                      0000599P0000432
123,1.,0.,0.;                                                    0000601P0000433
508,4,0,17,55,1,1,0,605,0,17,59,1,1,0,607,0,17,42,0,1,0,609,0,   0000603P0000434
17,59,0,1,0,611;                                                 0000603P0000435
126,1,1,1,0,1,0,0.,0.,6.283185307,6.283185307,1.,1.,360.,-0.5,   0000605P0000436
-0.,-2.37142157E-11,-0.5,0.,0.,6.283185307,0.,0.,1.;             0000605P0000437
126,1,1,1,0,1,0,0.5,0.5,3.5,3.5,1.,1.,-2.37142157E-11,-0.5,0.,   0000607P0000438
-2.37142157E-11,-3.5,0.,0.5,3.5,0.,0.,1.;                        0000607P0000439
126,1,1,1,0,1,0,0.,0.,6.283185307,6.283185307,1.,1.,             0000609P0000440
-2.37142157E-11,-3.5,0.,360.,-3.5,-0.,0.,6.283185307,0.,0.,1.;   0000609P0000441
126,1,1,1,0,1,0,0.5,0.5,3.5,3.5,1.,1.,360.,-3.5,-0.,360.,-0.5,   0000611P0000442
-0.,0.5,3.5,0.,0.,1.;                                            0000611P0000443
510,615,1,1,623;                                                 0000613P0000444
192,617,619,2.75,621;                                            0000615P0000445
116,-40.,6.661338148E-15,10.,0;                                  0000617P0000446
123,0.,1.,-6.661338148E-16;                                      0000619P0000447
123,1.,0.,0.;                                                    0000621P0000448
508,4,0,17,53,1,1,0,625,0,17,60,1,1,0,627,0,17,44,0,1,0,629,0,   0000623P0000449
17,60,0,1,0,631;                                                 0000623P0000450
126,1,1,1,0,1,0,0.,0.,6.283185307,6.283185307,1.,1.,360.,-0.5,   0000625P0000451
-0.,-2.37142157E-11,-0.5,0.,0.,6.283185307,0.,0.,1.;             0000625P0000452
126,1,1,1,0,1,0,0.5,0.5,3.5,3.5,1.,1.,-2.37142157E-11,-0.5,0.,   0000627P0000453
-2.37142157E-11,-3.5,0.,0.5,3.5,0.,0.,1.;                        0000627P0000454
126,1,1,1,0,1,0,0.,0.,6.283185307,6.283185307,1.,1.,             0000629P0000455
-2.37142157E-11,-3.5,0.,360.,-3.5,-0.,0.,6.283185307,0.,0.,1.;   0000629P0000456
126,1,1,1,0,1,0,0.5,0.5,3.5,3.5,1.,1.,360.,-3.5,-0.,360.,-0.5,   0000631P0000457
-0.,0.5,3.5,0.,0.,1.;                                            0000631P0000458
S      1G      4D    632P    458                                        T0000001
