                                                                        S0000001
,,31HOpen CASCADE IGES processor 7.9,13HFilename.iges,                  G0000001
16HOpen CASCADE 7.9,31HOpen CASCADE IGES processor 7.9,32,308,15,308,15,G0000002
,1.,2,2HMM,1,0.01,15H20261004.214557,1E-07,60.008389,7Hjiayuxu,,11,0,   G0000003
15H20261004.214557,;                                                    G0000004
     186       1       0       0       0       0       0       000000000D0000001
     186       0       0       1       0                               0D0000002
     514       2       0       0       0       0       0       000010000D0000003
     514       0       0       3       1                               0D0000004
     510       5       0       0       0       0       0       000010000D0000005
     510       0       0       1       1                               0D0000006
     192       6       0       0       0       0       0       000010000D0000007
     192       0       0       1       1                               0D0000008
     116       7       0       0       0       0       0       000010400D0000009
     116       0       0       1       0                               0D0000010
     123       8       0       0       0       0       0       000010200D0000011
     123       0       0       1       0                               0D0000012
     123       9       0       0       0       0       0       000010200D0000013
     123       0       0       1       0                               0D0000014
     508      10       0       0       0       0       0       000010000D0000015
     508       0       0       2       1                               0D0000016
     504      12       0       0       0       0       0       000010001D0000017
     504       0       0      13       1                               0D0000018
     100      25       0       0       0       0      21       000010000D0000019
     100       0       0       1       0                               0D0000020
     124      26       0       0       0       0       0       000000000D0000021
     124       0       0       2       0                               0D0000022
     502      28       0       0       0       0       0       000010000D0000023
     502       0       0      10       1                               0D0000024
     110      38       0       0       0       0       0       000010000D0000025
     110       0       0       1       0                               0D0000026
     100      39       0       0       0       0      29       000010000D0000027
     100       0       0       1       0                               0D0000028
     124      40       0       0       0       0       0       000000000D0000029
     124       0       0       2       0                               0D0000030
     100      42       0       0       0       0      33       000010000D0000031
     100       0       0       1       0                               0D0000032
     124      43       0       0       0       0       0       000000000D0000033
     124       0       0       2       0                               0D0000034
     110      45       0       0       0       0       0       000010000D0000035
     110       0       0       1       0                               0D0000036
     110      46       0       0       0       0       0       000010000D0000037
     110       0       0       1       0                               0D0000038
     100      47       0       0       0       0      41       000010000D0000039
     100       0       0       1       0                               0D0000040
     124      48       0       0       0       0       0       000000000D0000041
     124       0       0       2       0                               0D0000042
     110      50       0       0       0       0       0       000010000D0000043
     110       0       0       1       0                               0D0000044
     110      51       0       0       0       0       0       000010000D0000045
     110       0       0       1       0                               0D0000046
     110      52       0       0       0       0       0       000010000D0000047
     110       0       0       1       0                               0D0000048
     110      53       0       0       0       0       0       000010000D0000049
     110       0       0       1       0                               0D0000050
     110      54       0       0       0       0       0       000010000D0000051
     110       0       0       1       0                               0D0000052
     110      55       0       0       0       0       0       000010000D0000053
     110       0       0       1       0                               0D0000054
     100      56       0       0       0       0      57       000010000D0000055
     100       0       0       1       0                               0D0000056
     124      57       0       0       0       0       0       000000000D0000057
     124       0       0       2       0                               0D0000058
     100      59       0       0       0       0      61       000010000D0000059
     100       0       0       1       0                               0D0000060
     124      60       0       0       0       0       0       000000000D0000061
     124       0       0       2       0                               0D0000062
     100      62       0       0       0       0      65       000010000D0000063
     100       0       0       1       0                               0D0000064
     124      63       0       0       0       0       0       000000000D0000065
     124       0       0       2       0                               0D0000066
     100      65       0       0       0       0      69       000010000D0000067
     100       0       0       1       0                               0D0000068
     124      66       0       0       0       0       0       000000000D0000069
     124       0       0       2       0                               0D0000070
     110      68       0       0       0       0       0       000010000D0000071
     110       0       0       1       0                               0D0000072
     110      69       0       0       0       0       0       000010000D0000073
     110       0       0       1       0                               0D0000074
     110      70       0       0       0       0       0       000010000D0000075
     110       0       0       1       0                               0D0000076
     110      71       0       0       0       0       0       000010000D0000077
     110       0       0       1       0                               0D0000078
     110      72       0       0       0       0       0       000010000D0000079
     110       0       0       1       0                               0D0000080
     110      73       0       0       0       0       0       000010000D0000081
     110       0       0       1       0                               0D0000082
     100      74       0       0       0       0      85       000010000D0000083
     100       0       0       1       0                               0D0000084
     124      75       0       0       0       0       0       000000000D0000085
     124       0       0       2       0                               0D0000086
     100      77       0       0       0       0      89       000010000D0000087
     100       0       0       1       0                               0D0000088
     124      78       0       0       0       0       0       000000000D0000089
     124       0       0       2       0                               0D0000090
     100      80       0       0       0       0      93       000010000D0000091
     100       0       0       1       0                               0D0000092
     124      81       0       0       0       0       0       000000000D0000093
     124       0       0       2       0                               0D0000094
     100      83       0       0       0       0      97       000010000D0000095
     100       0       0       1       0                               0D0000096
     124      84       0       0       0       0       0       000000000D0000097
     124       0       0       2       0                               0D0000098
     110      86       0       0       0       0       0       000010000D0000099
     110       0       0       1       0                               0D0000100
     110      87       0       0       0       0       0       000010000D0000101
     110       0       0       1       0                               0D0000102
     110      88       0       0       0       0       0       000010000D0000103
     110       0       0       1       0                               0D0000104
     110      89       0       0       0       0       0       000010000D0000105
     110       0       0       1       0                               0D0000106
     110      90       0       0       0       0       0       000010000D0000107
     110       0       0       1       0                               0D0000108
     110      91       0       0       0       0       0       000010000D0000109
     110       0       0       1       0                               0D0000110
     110      92       0       0       0       0       0       000010000D0000111
     110       0       0       1       0                               0D0000112
     100      93       0       0       0       0     115       000010000D0000113
     100       0       0       1       0                               0D0000114
     124      94       0       0       0       0       0       000000000D0000115
     124       0       0       2       0                               0D0000116
     110      96       0       0       0       0       0       000010000D0000117
     110       0       0       1       0                               0D0000118
     100      97       0       0       0       0     121       000010000D0000119
     100       0       0       1       0                               0D0000120
     124      98       0       0       0       0       0       000000000D0000121
     124       0       0       2       0                               0D0000122
     110     100       0       0       0       0       0       000010000D0000123
     110       0       0       1       0                               0D0000124
     100     101       0       0       0       0     127       000010000D0000125
     100       0       0       1       0                               0D0000126
     124     102       0       0       0       0       0       000000000D0000127
     124       0       0       2       0                               0D0000128
     110     104       0       0       0       0       0       000010000D0000129
     110       0       0       1       0                               0D0000130
     100     105       0       0       0       0     133       000010000D0000131
     100       0       0       1       0                               0D0000132
     124     106       0       0       0       0       0       000000000D0000133
     124       0       0       2       0                               0D0000134
     110     108       0       0       0       0       0       000010000D0000135
     110       0       0       1       0                               0D0000136
     100     109       0       0       0       0     139       000010000D0000137
     100       0       0       1       0                               0D0000138
     124     110       0       0       0       0       0       000000000D0000139
     124       0       0       2       0                               0D0000140
     110     112       0       0       0       0       0       000010000D0000141
     110       0       0       1       0                               0D0000142
     100     113       0       0       0       0     145       000010000D0000143
     100       0       0       1       0                               0D0000144
     124     114       0       0       0       0       0       000000000D0000145
     124       0       0       2       0                               0D0000146
     110     116       0       0       0       0       0       000010000D0000147
     110       0       0       1       0                               0D0000148
     100     117       0       0       0       0     151       000010000D0000149
     100       0       0       1       0                               0D0000150
     124     118       0       0       0       0       0       000000000D0000151
     124       0       0       2       0                               0D0000152
     110     120       0       0       0       0       0       000010000D0000153
     110       0       0       1       0                               0D0000154
     100     121       0       0       0       0     157       000010000D0000155
     100       0       0       1       0                               0D0000156
     124     122       0       0       0       0       0       000000000D0000157
     124       0       0       2       0                               0D0000158
     110     124       0       0       0       0       0       000010000D0000159
     110       0       0       1       0                               0D0000160
     110     125       0       0       0       0       0       000010000D0000161
     110       0       0       1       0                               0D0000162
     110     126       0       0       0       0       0       000010000D0000163
     110       0       0       1       0                               0D0000164
     110     127       0       0       0       0       0       000010000D0000165
     110       0       0       1       0                               0D0000166
     126     128       0       0       0       0       0       000010000D0000167
     126       0       0       2       0                               0D0000168
     126     130       0       0       0       0       0       000010000D0000169
     126       0       0       2       0                               0D0000170
     126     132       0       0       0       0       0       000010000D0000171
     126       0       0       2       0                               0D0000172
     126     134       0       0       0       0       0       000010000D0000173
     126       0       0       2       0                               0D0000174
     510     136       0       0       0       0       0       000010000D0000175
     510       0       0       1       1                               0D0000176
     194     137       0       0       0       0       0       000010000D0000177
     194       0       0       1       1                               0D0000178
     116     138       0       0       0       0       0       000010400D0000179
     116       0       0       1       0                               0D0000180
     123     139       0       0       0       0       0       000010200D0000181
     123       0       0       1       0                               0D0000182
     123     140       0       0       0       0       0       000010200D0000183
     123       0       0       1       0                               0D0000184
     508     141       0       0       0       0       0       000010000D0000185
     508       0       0       2       1                               0D0000186
     126     143       0       0       0       0       0       000010000D0000187
     126       0       0       3       0                               0D0000188
     126     146       0       0       0       0       0       000010000D0000189
     126       0       0       2       0                               0D0000190
     126     148       0       0       0       0       0       000010000D0000191
     126       0       0       2       0                               0D0000192
     126     150       0       0       0       0       0       000010000D0000193
     126       0       0       2       0                               0D0000194
     510     152       0       0       0       0       0       000010000D0000195
     510       0       0       1       1                               0D0000196
     194     153       0       0       0       0       0       000010000D0000197
     194       0       0       1       1                               0D0000198
     116     154       0       0       0       0       0       000010400D0000199
     116       0       0       1       0                               0D0000200
     123     155       0       0       0       0       0       000010200D0000201
     123       0       0       1       0                               0D0000202
     123     156       0       0       0       0       0       000010200D0000203
     123       0       0       1       0                               0D0000204
     508     157       0       0       0       0       0       000010000D0000205
     508       0       0       2       1                               0D0000206
     126     159       0       0       0       0       0       000010000D0000207
     126       0       0       2       0                               0D0000208
     126     161       0       0       0       0       0       000010000D0000209
     126       0       0       2       0                               0D0000210
     126     163       0       0       0       0       0       000010000D0000211
     126       0       0       2       0                               0D0000212
     126     165       0       0       0       0       0       000010000D0000213
     126       0       0       2       0                               0D0000214
     510     167       0       0       0       0       0       000010000D0000215
     510       0       0       1       1                               0D0000216
     190     168       0       0       0       0       0       000010000D0000217
     190       0       0       1       1                               0D0000218
     116     169       0       0       0       0       0       000010400D0000219
     116       0       0       1       0                               0D0000220
     123     170       0       0       0       0       0       000010200D0000221
     123       0       0       1       0                               0D0000222
     123     171       0       0       0       0       0       000010200D0000223
     123       0       0       1       0                               0D0000224
     508     172       0       0       0       0       0       000010000D0000225
     508       0       0       2       1                               0D0000226
     508     174       0       0       0       0       0       000010000D0000227
     508       0       0       1       1                               0D0000228
     508     175       0       0       0       0       0       000010000D0000229
     508       0       0       1       1                               0D0000230
     508     176       0       0       0       0       0       000010000D0000231
     508       0       0       1       1                               0D0000232
     508     177       0       0       0       0       0       000010000D0000233
     508       0       0       1       1                               0D0000234
     508     178       0       0       0       0       0       000010000D0000235
     508       0       0       1       1                               0D0000236
     510     179       0       0       0       0       0       000010000D0000237
     510       0       0       1       1                               0D0000238
     190     180       0       0       0       0       0       000010000D0000239
     190       0       0       1       1                               0D0000240
     116     181       0       0       0       0       0       000010400D0000241
     116       0       0       1       0                               0D0000242
     123     182       0       0       0       0       0       000010200D0000243
     123       0       0       1       0                               0D0000244
     123     183       0       0       0       0       0       000010200D0000245
     123       0       0       1       0                               0D0000246
     508     184       0       0       0       0       0       000010000D0000247
     508       0       0       2       1                               0D0000248
     508     186       0       0       0       0       0       000010000D0000249
     508       0       0       1       1                               0D0000250
     508     187       0       0       0       0       0       000010000D0000251
     508       0       0       1       1                               0D0000252
     508     188       0       0       0       0       0       000010000D0000253
     508       0       0       1       1                               0D0000254
     508     189       0       0       0       0       0       000010000D0000255
     508       0       0       1       1                               0D0000256
     508     190       0       0       0       0       0       000010000D0000257
     508       0       0       1       1                               0D0000258
     510     191       0       0       0       0       0       000010000D0000259
     510       0       0       1       1                               0D0000260
     190     192       0       0       0       0       0       000010000D0000261
     190       0       0       1       1                               0D0000262
     116     193       0       0       0       0       0       000010400D0000263
     116       0       0       1       0                               0D0000264
     123     194       0       0       0       0       0       000010200D0000265
     123       0       0       1       0                               0D0000266
     123     195       0       0       0       0       0       000010200D0000267
     123       0       0       1       0                               0D0000268
     508     196       0       0       0       0       0       000010000D0000269
     508       0       0       1       1                               0D0000270
     510     197       0       0       0       0       0       000010000D0000271
     510       0       0       1       1                               0D0000272
     190     198       0       0       0       0       0       000010000D0000273
     190       0       0       1       1                               0D0000274
     116     199       0       0       0       0       0       000010400D0000275
     116       0       0       1       0                               0D0000276
     123     200       0       0       0       0       0       000010200D0000277
     123       0       0       1       0                               0D0000278
     123     201       0       0       0       0       0       000010200D0000279
     123       0       0       1       0                               0D0000280
     508     202       0       0       0       0       0       000010000D0000281
     508       0       0       1       1                               0D0000282
     510     203       0       0       0       0       0       000010000D0000283
     510       0       0       1       1                               0D0000284
     190     204       0       0       0       0       0       000010000D0000285
     190       0       0       1       1                               0D0000286
     116     205       0       0       0       0       0       000010400D0000287
     116       0       0       1       0                               0D0000288
     123     206       0       0       0       0       0       000010200D0000289
     123       0       0       1       0                               0D0000290
     123     207       0       0       0       0       0       000010200D0000291
     123       0       0       1       0                               0D0000292
     508     208       0       0       0       0       0       000010000D0000293
     508       0       0       1       1                               0D0000294
     510     209       0       0       0       0       0       000010000D0000295
     510       0       0       1       1                               0D0000296
     190     210       0       0       0       0       0       000010000D0000297
     190       0       0       1       1                               0D0000298
     116     211       0       0       0       0       0       000010400D0000299
     116       0       0       1       0                               0D0000300
     123     212       0       0       0       0       0       000010200D0000301
     123       0       0       1       0                               0D0000302
     123     213       0       0       0       0       0       000010200D0000303
     123       0       0       1       0                               0D0000304
     508     214       0       0       0       0       0       000010000D0000305
     508       0       0       1       1                               0D0000306
     510     215       0       0       0       0       0       000010000D0000307
     510       0       0       1       1                               0D0000308
     190     216       0       0       0       0       0       000010000D0000309
     190       0       0       1       1                               0D0000310
     116     217       0       0       0       0       0       000010400D0000311
     116       0       0       1       0                               0D0000312
     123     218       0       0       0       0       0       000010200D0000313
     123       0       0       1       0                               0D0000314
     123     219       0       0       0       0       0       000010200D0000315
     123       0       0       1       0                               0D0000316
     508     220       0       0       0       0       0       000010000D0000317
     508       0       0       1       1                               0D0000318
     510     221       0       0       0       0       0       000010000D0000319
     510       0       0       1       1                               0D0000320
     190     222       0       0       0       0       0       000010000D0000321
     190       0       0       1       1                               0D0000322
     116     223       0       0       0       0       0       000010400D0000323
     116       0       0       1       0                               0D0000324
     123     224       0       0       0       0       0       000010200D0000325
     123       0       0       1       0                               0D0000326
     123     225       0       0       0       0       0       000010200D0000327
     123       0       0       1       0                               0D0000328
     508     226       0       0       0       0       0       000010000D0000329
     508       0       0       1       1                               0D0000330
     510     227       0       0       0       0       0       000010000D0000331
     510       0       0       1       1                               0D0000332
     194     228       0       0       0       0       0       000010000D0000333
     194       0       0       1       1                               0D0000334
     116     229       0       0       0       0       0       000010400D0000335
     116       0       0       1       0                               0D0000336
     123     230       0       0       0       0       0       000010200D0000337
     123       0       0       1       0                               0D0000338
     123     231       0       0       0       0       0       000010200D0000339
     123       0       0       1       0                               0D0000340
     508     232       0       0       0       0       0       000010000D0000341
     508       0       0       2       1                               0D0000342
     126     234       0       0       0       0       0       000010000D0000343
     126       0       0       3       0                               0D0000344
     126     237       0       0       0       0       0       000010000D0000345
     126       0       0       2       0                               0D0000346
     126     239       0       0       0       0       0       000010000D0000347
     126       0       0       2       0                               0D0000348
     126     241       0       0       0       0       0       000010000D0000349
     126       0       0       2       0                               0D0000350
     510     243       0       0       0       0       0       000010000D0000351
     510       0       0       1       1                               0D0000352
     194     244       0       0       0       0       0       000010000D0000353
     194       0       0       1       1                               0D0000354
     116     245       0       0       0       0       0       000010400D0000355
     116       0       0       1       0                               0D0000356
     123     246       0       0       0       0       0       000010200D0000357
     123       0       0       1       0                               0D0000358
     123     247       0       0       0       0       0       000010200D0000359
     123       0       0       1       0                               0D0000360
     508     248       0       0       0       0       0       000010000D0000361
     508       0       0       2       1                               0D0000362
     126     250       0       0       0       0       0       000010000D0000363
     126       0       0       3       0                               0D0000364
     126     253       0       0       0       0       0       000010000D0000365
     126       0       0       2       0                               0D0000366
     126     255       0       0       0       0       0       000010000D0000367
     126       0       0       2       0                               0D0000368
     126     257       0       0       0       0       0       000010000D0000369
     126       0       0       2       0                               0D0000370
     510     259       0       0       0       0       0       000010000D0000371
     510       0       0       1       1                               0D0000372
     194     260       0       0       0       0       0       000010000D0000373
     194       0       0       1       1                               0D0000374
     116     261       0       0       0       0       0       000010400D0000375
     116       0       0       1       0                               0D0000376
     123     262       0       0       0       0       0       000010200D0000377
     123       0       0       1       0                               0D0000378
     123     263       0       0       0       0       0       000010200D0000379
     123       0       0       1       0                               0D0000380
     508     264       0       0       0       0       0       000010000D0000381
     508       0       0       2       1                               0D0000382
     126     266       0       0       0       0       0       000010000D0000383
     126       0       0       3       0                               0D0000384
     126     269       0       0       0       0       0       000010000D0000385
     126       0       0       2       0                               0D0000386
     126     271       0       0       0       0       0       000010000D0000387
     126       0       0       2       0                               0D0000388
     126     273       0       0       0       0       0       000010000D0000389
     126       0       0       2       0                               0D0000390
     510     275       0       0       0       0       0       000010000D0000391
     510       0       0       1       1                               0D0000392
     194     276       0       0       0       0       0       000010000D0000393
     194       0       0       1       1                               0D0000394
     116     277       0       0       0       0       0       000010400D0000395
     116       0       0       1       0                               0D0000396
     123     278       0       0       0       0       0       000010200D0000397
     123       0       0       1       0                               0D0000398
     123     279       0       0       0       0       0       000010200D0000399
     123       0       0       1       0                               0D0000400
     508     280       0       0       0       0       0       000010000D0000401
     508       0       0       2       1                               0D0000402
     126     282       0       0       0       0       0       000010000D0000403
     126       0       0       3       0                               0D0000404
     126     285       0       0       0       0       0       000010000D0000405
     126       0       0       2       0                               0D0000406
     126     287       0       0       0       0       0       000010000D0000407
     126       0       0       2       0                               0D0000408
     126     289       0       0       0       0       0       000010000D0000409
     126       0       0       2       0                               0D0000410
     510     291       0       0       0       0       0       000010000D0000411
     510       0       0       1       1                               0D0000412
     194     292       0       0       0       0       0       000010000D0000413
     194       0       0       1       1                               0D0000414
     116     293       0       0       0       0       0       000010400D0000415
     116       0       0       1       0                               0D0000416
     123     294       0       0       0       0       0       000010200D0000417
     123       0       0       1       0                               0D0000418
     123     295       0       0       0       0       0       000010200D0000419
     123       0       0       1       0                               0D0000420
     508     296       0       0       0       0       0       000010000D0000421
     508       0       0       2       1                               0D0000422
     126     298       0       0       0       0       0       000010000D0000423
     126       0       0       2       0                               0D0000424
     126     300       0       0       0       0       0       000010000D0000425
     126       0       0       2       0                               0D0000426
     126     302       0       0       0       0       0       000010000D0000427
     126       0       0       2       0                               0D0000428
     126     304       0       0       0       0       0       000010000D0000429
     126       0       0       2       0                               0D0000430
     510     306       0       0       0       0       0       000010000D0000431
     510       0       0       1       1                               0D0000432
     194     307       0       0       0       0       0       000010000D0000433
     194       0       0       1       1                               0D0000434
     116     308       0       0       0       0       0       000010400D0000435
     116       0       0       1       0                               0D0000436
     123     309       0       0       0       0       0       000010200D0000437
     123       0       0       1       0                               0D0000438
     123     310       0       0       0       0       0       000010200D0000439
     123       0       0       1       0                               0D0000440
     508     311       0       0       0       0       0       000010000D0000441
     508       0       0       2       1                               0D0000442
     126     313       0       0       0       0       0       000010000D0000443
     126       0       0       2       0                               0D0000444
     126     315       0       0       0       0       0       000010000D0000445
     126       0       0       2       0                               0D0000446
     126     317       0       0       0       0       0       000010000D0000447
     126       0       0       2       0                               0D0000448
     126     319       0       0       0       0       0       000010000D0000449
     126       0       0       2       0                               0D0000450
     510     321       0       0       0       0       0       000010000D0000451
     510       0       0       1       1                               0D0000452
     194     322       0       0       0       0       0       000010000D0000453
     194       0       0       1       1                               0D0000454
     116     323       0       0       0       0       0       000010400D0000455
     116       0       0       1       0                               0D0000456
     123     324       0       0       0       0       0       000010200D0000457
     123       0       0       1       0                               0D0000458
     123     325       0       0       0       0       0       000010200D0000459
     123       0       0       1       0                               0D0000460
     508     326       0       0       0       0       0       000010000D0000461
     508       0       0       2       1                               0D0000462
     126     328       0       0       0       0       0       000010000D0000463
     126       0       0       2       0                               0D0000464
     126     330       0       0       0       0       0       000010000D0000465
     126       0       0       2       0                               0D0000466
     126     332       0       0       0       0       0       000010000D0000467
     126       0       0       2       0                               0D0000468
     126     334       0       0       0       0       0       000010000D0000469
     126       0       0       2       0                               0D0000470
     510     336       0       0       0       0       0       000010000D0000471
     510       0       0       1       1                               0D0000472
     194     337       0       0       0       0       0       000010000D0000473
     194       0       0       1       1                               0D0000474
     116     338       0       0       0       0       0       000010400D0000475
     116       0       0       1       0                               0D0000476
     123     339       0       0       0       0       0       000010200D0000477
     123       0       0       1       0                               0D0000478
     123     340       0       0       0       0       0       000010200D0000479
     123       0       0       1       0                               0D0000480
     508     341       0       0       0       0       0       000010000D0000481
     508       0       0       2       1                               0D0000482
     126     343       0       0       0       0       0       000010000D0000483
     126       0       0       2       0                               0D0000484
     126     345       0       0       0       0       0       000010000D0000485
     126       0       0       2       0                               0D0000486
     126     347       0       0       0       0       0       000010000D0000487
     126       0       0       2       0                               0D0000488
     126     349       0       0       0       0       0       000010000D0000489
     126       0       0       2       0                               0D0000490
     510     351       0       0       0       0       0       000010000D0000491
     510       0       0       1       1                               0D0000492
     192     352       0       0       0       0       0       000010000D0000493
     192       0       0       1       1                               0D0000494
     116     353       0       0       0       0       0       000010400D0000495
     116       0       0       1       0                               0D0000496
     123     354       0       0       0       0       0       000010200D0000497
     123       0       0       1       0                               0D0000498
     123     355       0       0       0       0       0       000010200D0000499
     123       0       0       1       0                               0D0000500
     508     356       0       0       0       0       0       000010000D0000501
     508       0       0       2       1                               0D0000502
     126     358       0       0       0       0       0       000010000D0000503
     126       0       0       2       0                               0D0000504
     126     360       0       0       0       0       0       000010000D0000505
     126       0       0       2       0                               0D0000506
     126     362       0       0       0       0       0       000010000D0000507
     126       0       0       2       0                               0D0000508
     126     364       0       0       0       0       0       000010000D0000509
     126       0       0       2       0                               0D0000510
     510     366       0       0       0       0       0       000010000D0000511
     510       0       0       1       1                               0D0000512
     192     367       0       0       0       0       0       000010000D0000513
     192       0       0       1       1                               0D0000514
     116     368       0       0       0       0       0       000010400D0000515
     116       0       0       1       0                               0D0000516
     123     369       0       0       0       0       0       000010200D0000517
     123       0       0       1       0                               0D0000518
     123     370       0       0       0       0       0       000010200D0000519
     123       0       0       1       0                               0D0000520
     508     371       0       0       0       0       0       000010000D0000521
     508       0       0       2       1                               0D0000522
     126     373       0       0       0       0       0       000010000D0000523
     126       0       0       2       0                               0D0000524
     126     375       0       0       0       0       0       000010000D0000525
     126       0       0       2       0                               0D0000526
     126     377       0       0       0       0       0       000010000D0000527
     126       0       0       2       0                               0D0000528
     126     379       0       0       0       0       0       000010000D0000529
     126       0       0       2       0                               0D0000530
     510     381       0       0       0       0       0       000010000D0000531
     510       0       0       1       1                               0D0000532
     192     382       0       0       0       0       0       000010000D0000533
     192       0       0       1       1                               0D0000534
     116     383       0       0       0       0       0       000010400D0000535
     116       0       0       1       0                               0D0000536
     123     384       0       0       0       0       0       000010200D0000537
     123       0       0       1       0                               0D0000538
     123     385       0       0       0       0       0       000010200D0000539
     123       0       0       1       0                               0D0000540
     508     386       0       0       0       0       0       000010000D0000541
     508       0       0       2       1                               0D0000542
     126     388       0       0       0       0       0       000010000D0000543
     126       0       0       2       0                               0D0000544
     126     390       0       0       0       0       0       000010000D0000545
     126       0       0       2       0                               0D0000546
     126     392       0       0       0       0       0       000010000D0000547
     126       0       0       2       0                               0D0000548
     126     394       0       0       0       0       0       000010000D0000549
     126       0       0       2       0                               0D0000550
     510     396       0       0       0       0       0       000010000D0000551
     510       0       0       1       1                               0D0000552
     192     397       0       0       0       0       0       000010000D0000553
     192       0       0       1       1                               0D0000554
     116     398       0       0       0       0       0       000010400D0000555
     116       0       0       1       0                               0D0000556
     123     399       0       0       0       0       0       000010200D0000557
     123       0       0       1       0                               0D0000558
     123     400       0       0       0       0       0       000010200D0000559
     123       0       0       1       0                               0D0000560
     508     401       0       0       0       0       0       000010000D0000561
     508       0       0       2       1                               0D0000562
     126     403       0       0       0       0       0       000010000D0000563
     126       0       0       2       0                               0D0000564
     126     405       0       0       0       0       0       000010000D0000565
     126       0       0       2       0                               0D0000566
     126     407       0       0       0       0       0       000010000D0000567
     126       0       0       2       0                               0D0000568
     126     409       0       0       0       0       0       000010000D0000569
     126       0       0       2       0                               0D0000570
186,3,1,0;                                                       0000001P0000001
514,23,5,0,175,0,195,0,215,0,237,1,259,0,271,0,283,0,295,0,307,  0000003P0000002
0,319,0,331,0,351,0,371,0,391,0,411,0,431,0,451,0,471,0,491,0,   0000003P0000003
511,0,531,0,551,0;                                               0000003P0000004
510,7,1,1,15;                                                    0000005P0000005
192,9,11,2.75,13;                                                0000007P0000006
116,0.,3.330669074E-14,50.,0;                                    0000009P0000007
123,0.,1.,-6.661338148E-16;                                      0000011P0000008
123,1.,0.,0.;                                                    0000013P0000009
508,4,0,17,1,1,1,0,167,0,17,2,1,1,0,169,0,17,3,0,1,0,171,0,17,2, 0000015P0000010
0,1,0,173;                                                       0000015P0000011
504,53,19,23,1,23,1,25,23,1,23,2,27,23,2,23,2,31,23,3,23,3,35,   0000017P0000012
23,1,23,3,37,23,2,23,4,39,23,4,23,4,43,23,5,23,6,45,23,6,23,7,   0000017P0000013
47,23,7,23,8,49,23,8,23,9,51,23,9,23,10,53,23,10,23,5,55,23,11,  0000017P0000014
23,11,59,23,12,23,12,63,23,13,23,13,67,23,14,23,14,71,23,15,23,  0000017P0000015
16,73,23,16,23,17,75,23,17,23,18,77,23,18,23,19,79,23,19,23,20,  0000017P0000016
81,23,20,23,15,83,23,21,23,21,87,23,22,23,22,91,23,23,23,23,95,  0000017P0000017
23,24,23,24,99,23,5,23,15,101,23,6,23,16,103,23,7,23,17,105,23,  0000017P0000018
8,23,18,107,23,9,23,19,109,23,10,23,20,111,23,25,23,11,113,23,   0000017P0000019
25,23,25,117,23,26,23,12,119,23,26,23,26,123,23,27,23,13,125,23, 0000017P0000020
27,23,27,129,23,28,23,14,131,23,28,23,28,135,23,29,23,21,137,23, 0000017P0000021
29,23,29,141,23,30,23,22,143,23,30,23,30,147,23,31,23,23,149,23, 0000017P0000022
31,23,31,153,23,32,23,24,155,23,32,23,32,159,23,25,23,29,161,23, 0000017P0000023
26,23,30,163,23,27,23,31,165,23,28,23,32;                        0000017P0000024
100,0.,0.,0.,2.75,0.,2.75,0.;                                    0000019P0000025
124,1.,0.,0.,0.,0.,6.661338148E-16,-1.,-0.5,0.,1.,               0000021P0000026
6.661338148E-16,50.;                                             0000021P0000027
502,32,2.75,-0.5,50.,2.75,-3.5,50.,3.25,3.341771304E-14,50.,     0000023P0000028
3.25,-4.,50.,-27.5,0.,0.,27.5,0.,0.,27.5,1.33226763E-14,20.,10., 0000023P0000029
3.996802889E-14,60.,-10.,3.996802889E-14,60.,-27.5,              0000023P0000030
1.33226763E-14,20.,-16.75,6.77236045E-15,10.,3.25,               0000023P0000031
2.009503675E-14,30.,3.25,6.77236045E-15,10.,23.25,               0000023P0000032
6.77236045E-15,10.,-27.5,-4.,2.664535259E-15,27.5,-4.,           0000023P0000033
2.664535259E-15,27.5,-4.,20.,10.,-4.,60.,-10.,-4.,60.,-27.5,-4., 0000023P0000034
20.,-16.75,-4.,10.,3.25,-4.,30.,3.25,-4.,10.,23.25,-4.,10.,      0000023P0000035
-17.25,-0.5,10.,2.75,-0.5,30.,2.75,-0.5,10.,22.75,-0.5,10.,      0000023P0000036
-17.25,-3.5,10.,2.75,-3.5,30.,2.75,-3.5,10.,22.75,-3.5,10.;      0000023P0000037
110,2.75,-0.5,50.,2.75,-3.5,50.;                                 0000025P0000038
100,0.,0.,0.,2.75,0.,2.75,0.;                                    0000027P0000039
124,1.,0.,0.,0.,0.,6.661338148E-16,-1.,-3.5,0.,1.,               0000029P0000040
6.661338148E-16,50.;                                             0000029P0000041
100,0.,0.,0.,3.25,0.,3.25,0.;                                    0000031P0000042
124,1.,0.,0.,0.,0.,6.661338148E-16,-1.,3.330669074E-14,0.,1.,    0000033P0000043
6.661338148E-16,50.;                                             0000033P0000044
110,2.75,-0.5,50.,3.25,1.678984277E-14,50.;                      0000035P0000045
110,2.75,-3.5,50.,3.25,-4.,50.;                                  0000037P0000046
100,0.,0.,0.,3.25,0.,3.25,0.;                                    0000039P0000047
124,1.,0.,0.,0.,0.,6.661338148E-16,-1.,-4.,0.,1.,                0000041P0000048
6.661338148E-16,50.;                                             0000041P0000049
110,-27.5,0.,0.,27.5,0.,0.;                                      0000043P0000050
110,27.5,0.,0.,27.5,1.33226763E-14,20.;                          0000045P0000051
110,27.5,1.33226763E-14,20.,10.,3.996802889E-14,60.;             0000047P0000052
110,10.,3.996802889E-14,60.,-10.,3.996802889E-14,60.;            0000049P0000053
110,-10.,3.996802889E-14,60.,-27.5,1.33226763E-14,20.;           0000051P0000054
110,-27.5,1.33226763E-14,20.,-27.5,-2.001340117E-27,0.;          0000053P0000055
100,0.,0.,0.,3.25,0.,3.25,0.;                                    0000055P0000056
124,1.,0.,0.,-20.,0.,6.661338148E-16,-1.,6.661338148E-15,0.,1.,  0000057P0000057
6.661338148E-16,10.;                                             0000057P0000058
100,0.,0.,0.,3.25,0.,3.25,0.;                                    0000059P0000059
124,1.,0.,0.,0.,0.,6.661338148E-16,-1.,1.998401444E-14,0.,1.,    0000061P0000060
6.661338148E-16,30.;                                             0000061P0000061
100,0.,0.,0.,3.25,0.,3.25,0.;                                    0000063P0000062
124,1.,0.,0.,0.,0.,6.661338148E-16,-1.,6.661338148E-15,0.,1.,    0000065P0000063
6.661338148E-16,10.;                                             0000065P0000064
100,0.,0.,0.,3.25,0.,3.25,0.;                                    0000067P0000065
124,1.,0.,0.,20.,0.,6.661338148E-16,-1.,6.661338148E-15,0.,1.,   0000069P0000066
6.661338148E-16,10.;                                             0000069P0000067
110,-27.5,-4.,2.664535259E-15,27.5,-4.,2.664535259E-15;          0000071P0000068
110,27.5,-4.,2.664535259E-15,27.5,-4.,20.;                       0000073P0000069
110,27.5,-4.,20.,10.,-4.,60.;                                    0000075P0000070
110,10.,-4.,60.,-10.,-4.,60.;                                    0000077P0000071
110,-10.,-4.,60.,-27.5,-4.,20.;                                  0000079P0000072
110,-27.5,-4.,20.,-27.5,-4.,3.552713679E-15;                     0000081P0000073
100,0.,0.,0.,3.25,0.,3.25,0.;                                    0000083P0000074
124,1.,-6.459479416E-16,8.758115402E-47,-20.,4.302877665E-31,    0000085P0000075
6.661338148E-16,-1.,-4.,6.459479416E-16,1.,6.661338148E-16,10.;  0000085P0000076
100,0.,0.,0.,3.25,0.,3.25,0.;                                    0000087P0000077
124,1.,0.,0.,0.,0.,6.661338148E-16,-1.,-4.,0.,1.,                0000089P0000078
6.661338148E-16,30.;                                             0000089P0000079
100,0.,0.,0.,3.25,0.,3.25,0.;                                    0000091P0000080
124,1.,-6.459479416E-16,8.758115402E-47,0.,4.302877665E-31,      0000093P0000081
6.661338148E-16,-1.,-4.,6.459479416E-16,1.,6.661338148E-16,10.;  0000093P0000082
100,0.,0.,0.,3.25,0.,3.25,0.;                                    0000095P0000083
124,1.,-6.459479416E-16,8.758115402E-47,20.,4.302877665E-31,     0000097P0000084
6.661338148E-16,-1.,-4.,6.459479416E-16,1.,6.661338148E-16,10.;  0000097P0000085
110,-27.5,0.,0.,-27.5,-4.,2.664535259E-15;                       0000099P0000086
110,27.5,0.,0.,27.5,-4.,2.664535259E-15;                         0000101P0000087
110,27.5,1.33226763E-14,20.,27.5,-4.,20.;                        0000103P0000088
110,10.,3.996802889E-14,60.,10.,-4.,60.;                         0000105P0000089
110,-10.,3.996802889E-14,60.,-10.,-4.,60.;                       0000107P0000090
110,-27.5,1.33226763E-14,20.,-27.5,-4.,20.;                      0000109P0000091
110,-17.25,-0.5,10.,-16.75,3.444056873E-15,10.;                  0000111P0000092
100,0.,0.,0.,2.75,0.,2.75,0.;                                    0000113P0000093
124,1.,0.,0.,-20.,0.,6.661338148E-16,-1.,-0.5,0.,1.,             0000115P0000094
6.661338148E-16,10.;                                             0000115P0000095
110,2.75,-0.5,30.,3.25,1.011694982E-14,30.;                      0000117P0000096
100,0.,0.,0.,2.75,0.,2.75,0.;                                    0000119P0000097
124,1.,0.,0.,0.,0.,6.661338148E-16,-1.,-0.5,0.,1.,               0000121P0000098
6.661338148E-16,30.;                                             0000121P0000099
110,2.75,-0.5,10.,3.25,3.444056873E-15,10.;                      0000123P0000100
100,0.,0.,0.,2.75,0.,2.75,0.;                                    0000125P0000101
124,1.,0.,0.,0.,0.,6.661338148E-16,-1.,-0.5,0.,1.,               0000127P0000102
6.661338148E-16,10.;                                             0000127P0000103
110,22.75,-0.5,10.,23.25,3.444056873E-15,10.;                    0000129P0000104
100,0.,0.,0.,2.75,0.,2.75,0.;                                    0000131P0000105
124,1.,0.,0.,20.,0.,6.661338148E-16,-1.,-0.5,0.,1.,              0000133P0000106
6.661338148E-16,10.;                                             0000133P0000107
110,-17.25,-3.5,10.,-16.75,-4.,10.;                              0000135P0000108
100,0.,0.,0.,2.75,0.,2.75,0.;                                    0000137P0000109
124,1.,-6.459479416E-16,8.758115402E-47,-20.,4.302877665E-31,    0000139P0000110
6.661338148E-16,-1.,-3.5,6.459479416E-16,1.,6.661338148E-16,10.; 0000139P0000111
110,2.75,-3.5,30.,3.25,-4.,30.;                                  0000141P0000112
100,0.,0.,0.,2.75,0.,2.75,0.;                                    0000143P0000113
124,1.,0.,0.,0.,0.,6.661338148E-16,-1.,-3.5,0.,1.,               0000145P0000114
6.661338148E-16,30.;                                             0000145P0000115
110,2.75,-3.5,10.,3.25,-4.,10.;                                  0000147P0000116
100,0.,0.,0.,2.75,0.,2.75,0.;                                    0000149P0000117
124,1.,-6.459479416E-16,8.758115402E-47,0.,4.302877665E-31,      0000151P0000118
6.661338148E-16,-1.,-3.5,6.459479416E-16,1.,6.661338148E-16,10.; 0000151P0000119
110,22.75,-3.5,10.,23.25,-4.,10.;                                0000153P0000120
100,0.,0.,0.,2.75,0.,2.75,0.;                                    0000155P0000121
124,1.,-6.459479416E-16,8.758115402E-47,20.,4.302877665E-31,     0000157P0000122
6.661338148E-16,-1.,-3.5,6.459479416E-16,1.,6.661338148E-16,10.; 0000157P0000123
110,-17.25,-0.5,10.,-17.25,-3.5,10.;                             0000159P0000124
110,2.75,-0.5,30.,2.75,-3.5,30.;                                 0000161P0000125
110,2.75,-0.5,10.,2.75,-3.5,10.;                                 0000163P0000126
110,22.75,-0.5,10.,22.75,-3.5,10.;                               0000165P0000127
126,1,1,1,0,1,0,0.,0.,6.283185307,6.283185307,1.,1.,360.,-0.5,   0000167P0000128
-0.,-2.37142157E-11,-0.5,0.,0.,6.283185307,0.,0.,1.;             0000167P0000129
126,1,1,1,0,1,0,0.5,0.5,3.5,3.5,1.,1.,-2.37142157E-11,-0.5,0.,   0000169P0000130
-2.37142157E-11,-3.5,0.,0.5,3.5,0.,0.,1.;                        0000169P0000131
126,1,1,1,0,1,0,0.,0.,6.283185307,6.283185307,1.,1.,             0000171P0000132
-2.37142157E-11,-3.5,0.,360.,-3.5,-0.,0.,6.283185307,0.,0.,1.;   0000171P0000133
126,1,1,1,0,1,0,0.5,0.5,3.5,3.5,1.,1.,360.,-3.5,-0.,360.,-0.5,   0000173P0000134
-0.,0.5,3.5,0.,0.,1.;                                            0000173P0000135
510,177,1,1,185;                                                 0000175P0000136
194,179,181,2.75,45.,183;                                        0000177P0000137
116,0.,-0.5,50.,0;                                               0000179P0000138
123,0.,1.,-6.661338148E-16;                                      0000181P0000139
123,1.,0.,0.;                                                    0000183P0000140
508,4,0,17,4,1,1,0,187,0,17,5,0,1,0,189,0,17,1,0,1,0,191,0,17,5, 0000185P0000141
1,1,0,193;                                                       0000185P0000142
126,1,1,1,0,1,0,0.,0.,6.283185307,6.283185307,1.,1.,360.,        0000187P0000143
0.707106781,0.,-2.37142157E-11,0.707106781,0.,0.,6.283185307,0., 0000187P0000144
0.,1.;                                                           0000187P0000145
126,1,1,1,0,1,0,0.,0.,0.707106781,0.707106781,1.,1.,0.,          0000189P0000146
0.707106781,0.,0.,0.,0.,0.,0.707106781,0.,0.,1.;                 0000189P0000147
126,1,1,1,0,1,0,0.,0.,6.283185307,6.283185307,1.,1.,             0000191P0000148
-2.37142157E-11,0.,0.,360.,0.,0.,0.,6.283185307,0.,0.,1.;        0000191P0000149
126,1,1,1,0,1,0,0.,0.,0.707106781,0.707106781,1.,1.,360.,0.,0.,  0000193P0000150
360.,0.707106781,0.,0.,0.707106781,0.,0.,1.;                     0000193P0000151
510,197,1,1,205;                                                 0000195P0000152
194,199,201,2.75,45.,203;                                        0000197P0000153
116,0.,-3.5,50.,0;                                               0000199P0000154
123,0.,-1.,6.661338148E-16;                                      0000201P0000155
123,1.,0.,0.;                                                    0000203P0000156
508,4,0,17,6,0,1,0,207,0,17,3,1,1,0,209,0,17,6,1,1,0,211,0,17,7, 0000205P0000157
0,1,0,213;                                                       0000205P0000158
126,1,1,1,0,1,0,0.,0.,0.707106781,0.707106781,1.,1.,0.,          0000207P0000159
0.707106781,0.,0.,0.,0.,0.,0.707106781,0.,0.,1.;                 0000207P0000160
126,1,1,1,0,1,0,0.,0.,6.283185307,6.283185307,1.,1.,0.,0.,0.,    0000209P0000161
360.,0.,0.,0.,6.283185307,0.,0.,1.;                              0000209P0000162
126,1,1,1,0,1,0,0.,0.,0.707106781,0.707106781,1.,1.,360.,0.,0.,  0000211P0000163
360.,0.707106781,0.,0.,0.707106781,0.,0.,1.;                     0000211P0000164
126,1,1,1,0,1,0,0.,0.,6.283185307,6.283185307,1.,1.,360.,        0000213P0000165
0.707106781,0.,0.,0.707106781,0.,0.,6.283185307,0.,0.,1.;        0000213P0000166
510,217,6,1,225,227,229,231,233,235;                             0000215P0000167
190,219,221,223;                                                 0000217P0000168
116,0.,1.676798438E-14,25.172096062,0;                           0000219P0000169
123,0.,-1.,6.661338148E-16;                                      0000221P0000170
123,0.,-6.661338148E-16,-1.;                                     0000223P0000171
508,6,0,17,8,1,0,0,17,9,1,0,0,17,10,1,0,0,17,11,1,0,0,17,12,1,0, 0000225P0000172
0,17,13,1,0;                                                     0000225P0000173
508,1,0,17,4,0,0;                                                0000227P0000174
508,1,0,17,14,0,0;                                               0000229P0000175
508,1,0,17,15,0,0;                                               0000231P0000176
508,1,0,17,16,0,0;                                               0000233P0000177
508,1,0,17,17,0,0;                                               0000235P0000178
510,239,6,1,247,249,251,253,255,257;                             0000237P0000179
190,241,243,245;                                                 0000239P0000180
116,0.,-4.,25.172096062,0;                                       0000241P0000181
123,0.,-1.,6.661338148E-16;                                      0000243P0000182
123,0.,-6.661338148E-16,-1.;                                     0000245P0000183
508,6,0,17,18,1,0,0,17,19,1,0,0,17,20,1,0,0,17,21,1,0,0,17,22,1, 0000247P0000184
0,0,17,23,1,0;                                                   0000247P0000185
508,1,0,17,7,0,0;                                                0000249P0000186
508,1,0,17,24,0,0;                                               0000251P0000187
508,1,0,17,25,0,0;                                               0000253P0000188
508,1,0,17,26,0,0;                                               0000255P0000189
508,1,0,17,27,0,0;                                               0000257P0000190
510,261,1,1,269;                                                 0000259P0000191
190,263,265,267;                                                 0000261P0000192
116,-27.5,0.,0.,0;                                               0000263P0000193
123,0.,6.661338148E-16,1.;                                       0000265P0000194
123,1.,0.,-0.;                                                   0000267P0000195
508,4,0,17,28,1,0,0,17,18,1,0,0,17,29,0,0,0,17,8,0,0;            0000269P0000196
510,273,1,1,281;                                                 0000271P0000197
190,275,277,279;                                                 0000273P0000198
116,27.5,0.,0.,0;                                                0000275P0000199
123,-1.,0.,0.;                                                   0000277P0000200
123,0.,6.661338148E-16,1.;                                       0000279P0000201
508,4,0,17,29,1,0,0,17,19,1,0,0,17,30,0,0,0,17,9,0,0;            0000281P0000202
510,285,1,1,293;                                                 0000283P0000203
190,287,289,291;                                                 0000285P0000204
116,27.5,1.33226763E-14,20.,0;                                   0000287P0000205
123,-0.916157335,-2.669989789E-16,-0.400818834;                  0000289P0000206
123,-0.400818834,6.102833804E-16,0.916157335;                    0000291P0000207
508,4,0,17,30,1,0,0,17,20,1,0,0,17,31,0,0,0,17,10,0,0;           0000293P0000208
510,297,1,1,305;                                                 0000295P0000209
190,299,301,303;                                                 0000297P0000210
116,10.,3.996802889E-14,60.,0;                                   0000299P0000211
123,0.,-6.661338148E-16,-1.;                                     0000301P0000212
123,-1.,-0.,0.;                                                  0000303P0000213
508,4,0,17,31,1,0,0,17,21,1,0,0,17,32,0,0,0,17,11,0,0;           0000305P0000214
510,309,1,1,317;                                                 0000307P0000215
190,311,313,315;                                                 0000309P0000216
116,-10.,3.996802889E-14,60.,0;                                  0000311P0000217
123,0.916157335,-2.669989789E-16,-0.400818834;                   0000313P0000218
123,-0.400818834,-6.102833804E-16,-0.916157335;                  0000315P0000219
508,4,0,17,32,1,0,0,17,22,1,0,0,17,33,0,0,0,17,12,0,0;           0000317P0000220
510,321,1,1,329;                                                 0000319P0000221
190,323,325,327;                                                 0000321P0000222
116,-27.5,1.33226763E-14,20.,0;                                  0000323P0000223
123,1.,0.,0.;                                                    0000325P0000224
123,0.,-6.661338148E-16,-1.;                                     0000327P0000225
508,4,0,17,33,1,0,0,17,23,1,0,0,17,28,0,0,0,17,13,0,0;           0000329P0000226
510,333,1,1,341;                                                 0000331P0000227
194,335,337,2.75,45.,339;                                        0000333P0000228
116,-20.,-0.5,10.,0;                                             0000335P0000229
123,0.,1.,-6.661338148E-16;                                      0000337P0000230
123,1.,0.,0.;                                                    0000339P0000231
508,4,0,17,14,1,1,0,343,0,17,34,0,1,0,345,0,17,35,0,1,0,347,0,   0000341P0000232
17,34,1,1,0,349;                                                 0000341P0000233
126,1,1,1,0,1,0,0.,0.,6.283185307,6.283185307,1.,1.,360.,        0000343P0000234
0.707106781,0.,-2.37142157E-11,0.707106781,0.,0.,6.283185307,0., 0000343P0000235
0.,1.;                                                           0000343P0000236
126,1,1,1,0,1,0,0.,0.,0.707106781,0.707106781,1.,1.,0.,          0000345P0000237
0.707106781,0.,0.,0.,0.,0.,0.707106781,0.,0.,1.;                 0000345P0000238
126,1,1,1,0,1,0,0.,0.,6.283185307,6.283185307,1.,1.,             0000347P0000239
-2.37142157E-11,0.,0.,360.,0.,0.,0.,6.283185307,0.,0.,1.;        0000347P0000240
126,1,1,1,0,1,0,0.,0.,0.707106781,0.707106781,1.,1.,360.,0.,0.,  0000349P0000241
360.,0.707106781,0.,0.,0.707106781,0.,0.,1.;                     0000349P0000242
510,353,1,1,361;                                                 0000351P0000243
194,355,357,2.75,45.,359;                                        0000353P0000244
116,0.,-0.5,30.,0;                                               0000355P0000245
123,0.,1.,-6.661338148E-16;                                      0000357P0000246
123,1.,0.,0.;                                                    0000359P0000247
508,4,0,17,15,1,1,0,363,0,17,36,0,1,0,365,0,17,37,0,1,0,367,0,   0000361P0000248
17,36,1,1,0,369;                                                 0000361P0000249
126,1,1,1,0,1,0,0.,0.,6.283185307,6.283185307,1.,1.,360.,        0000363P0000250
0.707106781,0.,-2.37142157E-11,0.707106781,0.,0.,6.283185307,0., 0000363P0000251
0.,1.;                                                           0000363P0000252
126,1,1,1,0,1,0,0.,0.,0.707106781,0.707106781,1.,1.,0.,          0000365P0000253
0.707106781,0.,0.,0.,0.,0.,0.707106781,0.,0.,1.;                 0000365P0000254
126,1,1,1,0,1,0,0.,0.,6.283185307,6.283185307,1.,1.,             0000367P0000255
-2.37142157E-11,0.,0.,360.,0.,0.,0.,6.283185307,0.,0.,1.;        0000367P0000256
126,1,1,1,0,1,0,0.,0.,0.707106781,0.707106781,1.,1.,360.,0.,0.,  0000369P0000257
360.,0.707106781,0.,0.,0.707106781,0.,0.,1.;                     0000369P0000258
510,373,1,1,381;                                                 0000371P0000259
194,375,377,2.75,45.,379;                                        0000373P0000260
116,0.,-0.5,10.,0;                                               0000375P0000261
123,0.,1.,-6.661338148E-16;                                      0000377P0000262
123,1.,0.,0.;                                                    0000379P0000263
508,4,0,17,16,1,1,0,383,0,17,38,0,1,0,385,0,17,39,0,1,0,387,0,   0000381P0000264
17,38,1,1,0,389;                                                 0000381P0000265
126,1,1,1,0,1,0,0.,0.,6.283185307,6.283185307,1.,1.,360.,        0000383P0000266
0.707106781,0.,-2.37142157E-11,0.707106781,0.,0.,6.283185307,0., 0000383P0000267
0.,1.;                                                           0000383P0000268
126,1,1,1,0,1,0,0.,0.,0.707106781,0.707106781,1.,1.,0.,          0000385P0000269
0.707106781,0.,0.,0.,0.,0.,0.707106781,0.,0.,1.;                 0000385P0000270
126,1,1,1,0,1,0,0.,0.,6.283185307,6.283185307,1.,1.,             0000387P0000271
-2.37142157E-11,0.,0.,360.,0.,0.,0.,6.283185307,0.,0.,1.;        0000387P0000272
126,1,1,1,0,1,0,0.,0.,0.707106781,0.707106781,1.,1.,360.,0.,0.,  0000389P0000273
360.,0.707106781,0.,0.,0.707106781,0.,0.,1.;                     0000389P0000274
510,393,1,1,401;                                                 0000391P0000275
194,395,397,2.75,45.,399;                                        0000393P0000276
116,20.,-0.5,10.,0;                                              0000395P0000277
123,0.,1.,-6.661338148E-16;                                      0000397P0000278
123,1.,0.,0.;                                                    0000399P0000279
508,4,0,17,17,1,1,0,403,0,17,40,0,1,0,405,0,17,41,0,1,0,407,0,   0000401P0000280
17,40,1,1,0,409;                                                 0000401P0000281
126,1,1,1,0,1,0,0.,0.,6.283185307,6.283185307,1.,1.,360.,        0000403P0000282
0.707106781,0.,-2.37142157E-11,0.707106781,0.,0.,6.283185307,0., 0000403P0000283
0.,1.;                                                           0000403P0000284
126,1,1,1,0,1,0,0.,0.,0.707106781,0.707106781,1.,1.,0.,          0000405P0000285
0.707106781,0.,0.,0.,0.,0.,0.707106781,0.,0.,1.;                 0000405P0000286
126,1,1,1,0,1,0,0.,0.,6.283185307,6.283185307,1.,1.,             0000407P0000287
-2.37142157E-11,0.,0.,360.,0.,0.,0.,6.283185307,0.,0.,1.;        0000407P0000288
126,1,1,1,0,1,0,0.,0.,0.707106781,0.707106781,1.,1.,360.,0.,0.,  0000409P0000289
360.,0.707106781,0.,0.,0.707106781,0.,0.,1.;                     0000409P0000290
510,413,1,1,421;                                                 0000411P0000291
194,415,417,2.75,45.,419;                                        0000413P0000292
116,-20.,-3.5,10.,0;                                             0000415P0000293
123,0.,-1.,6.661338148E-16;                                      0000417P0000294
123,1.,4.302877665E-31,6.459479416E-16;                          0000419P0000295
508,4,0,17,42,0,1,0,423,0,17,43,1,1,0,425,0,17,42,1,1,0,427,0,   0000421P0000296
17,24,0,1,0,429;                                                 0000421P0000297
126,1,1,1,0,1,0,0.,0.,0.707106781,0.707106781,1.,1.,0.,          0000423P0000298
0.707106781,0.,0.,0.,0.,0.,0.707106781,0.,0.,1.;                 0000423P0000299
126,1,1,1,0,1,0,0.,0.,6.283185307,6.283185307,1.,1.,0.,0.,0.,    0000425P0000300
360.,0.,0.,0.,6.283185307,0.,0.,1.;                              0000425P0000301
126,1,1,1,0,1,0,0.,0.,0.707106781,0.707106781,1.,1.,360.,0.,0.,  0000427P0000302
360.,0.707106781,0.,0.,0.707106781,0.,0.,1.;                     0000427P0000303
126,1,1,1,0,1,0,0.,0.,6.283185307,6.283185307,1.,1.,360.,        0000429P0000304
0.707106781,0.,0.,0.707106781,0.,0.,6.283185307,0.,0.,1.;        0000429P0000305
510,433,1,1,441;                                                 0000431P0000306
194,435,437,2.75,45.,439;                                        0000433P0000307
116,0.,-3.5,30.,0;                                               0000435P0000308
123,0.,-1.,6.661338148E-16;                                      0000437P0000309
123,1.,0.,0.;                                                    0000439P0000310
508,4,0,17,44,0,1,0,443,0,17,45,1,1,0,445,0,17,44,1,1,0,447,0,   0000441P0000311
17,25,0,1,0,449;                                                 0000441P0000312
126,1,1,1,0,1,0,0.,0.,0.707106781,0.707106781,1.,1.,0.,          0000443P0000313
0.707106781,0.,0.,0.,0.,0.,0.707106781,0.,0.,1.;                 0000443P0000314
126,1,1,1,0,1,0,0.,0.,6.283185307,6.283185307,1.,1.,0.,0.,0.,    0000445P0000315
360.,0.,0.,0.,6.283185307,0.,0.,1.;                              0000445P0000316
126,1,1,1,0,1,0,0.,0.,0.707106781,0.707106781,1.,1.,360.,0.,0.,  0000447P0000317
360.,0.707106781,0.,0.,0.707106781,0.,0.,1.;                     0000447P0000318
126,1,1,1,0,1,0,0.,0.,6.283185307,6.283185307,1.,1.,360.,        0000449P0000319
0.707106781,0.,0.,0.707106781,0.,0.,6.283185307,0.,0.,1.;        0000449P0000320
510,453,1,1,461;                                                 0000451P0000321
194,455,457,2.75,45.,459;                                        0000453P0000322
116,0.,-3.5,10.,0;                                               0000455P0000323
123,0.,-1.,6.661338148E-16;                                      0000457P0000324
123,1.,4.302877665E-31,6.459479416E-16;                          0000459P0000325
508,4,0,17,46,0,1,0,463,0,17,47,1,1,0,465,0,17,46,1,1,0,467,0,   0000461P0000326
17,26,0,1,0,469;                                                 0000461P0000327
126,1,1,1,0,1,0,0.,0.,0.707106781,0.707106781,1.,1.,0.,          0000463P0000328
0.707106781,0.,0.,0.,0.,0.,0.707106781,0.,0.,1.;                 0000463P0000329
126,1,1,1,0,1,0,0.,0.,6.283185307,6.283185307,1.,1.,0.,0.,0.,    0000465P0000330
360.,0.,0.,0.,6.283185307,0.,0.,1.;                              0000465P0000331
126,1,1,1,0,1,0,0.,0.,0.707106781,0.707106781,1.,1.,360.,0.,0.,  0000467P0000332
360.,0.707106781,0.,0.,0.707106781,0.,0.,1.;                     0000467P0000333
126,1,1,1,0,1,0,0.,0.,6.283185307,6.283185307,1.,1.,360.,        0000469P0000334
0.707106781,0.,0.,0.707106781,0.,0.,6.283185307,0.,0.,1.;        0000469P0000335
510,473,1,1,481;                                                 0000471P0000336
194,475,477,2.75,45.,479;                                        0000473P0000337
116,20.,-3.5,10.,0;                                              0000475P0000338
123,0.,-1.,6.661338148E-16;                                      0000477P0000339
123,1.,4.302877665E-31,6.459479416E-16;                          0000479P0000340
508,4,0,17,48,0,1,0,483,0,17,49,1,1,0,485,0,17,48,1,1,0,487,0,   0000481P0000341
17,27,0,1,0,489;                                                 0000481P0000342
126,1,1,1,0,1,0,0.,0.,0.707106781,0.707106781,1.,1.,0.,          0000483P0000343
0.707106781,0.,0.,0.,0.,0.,0.707106781,0.,0.,1.;                 0000483P0000344
126,1,1,1,0,1,0,0.,0.,6.283185307,6.283185307,1.,1.,0.,0.,0.,    0000485P0000345
360.,0.,0.,0.,6.283185307,0.,0.,1.;                              0000485P0000346
126,1,1,1,0,1,0,0.,0.,0.707106781,0.707106781,1.,1.,360.,0.,0.,  0000487P0000347
360.,0.707106781,0.,0.,0.707106781,0.,0.,1.;                     0000487P0000348
126,1,1,1,0,1,0,0.,0.,6.283185307,6.283185307,1.,1.,360.,        0000489P0000349
0.707106781,0.,0.,0.707106781,0.,0.,6.283185307,0.,0.,1.;        0000489P0000350
510,493,1,1,501;                                                 0000491P0000351
192,495,497,2.75,499;                                            0000493P0000352
116,-20.,6.661338148E-15,10.,0;                                  0000495P0000353
123,0.,1.,-6.661338148E-16;                                      0000497P0000354
123,1.,0.,0.;                                                    0000499P0000355
508,4,0,17,35,1,1,0,503,0,17,50,1,1,0,505,0,17,43,0,1,0,507,0,   0000501P0000356
17,50,0,1,0,509;                                                 0000501P0000357
126,1,1,1,0,1,0,0.,0.,6.283185307,6.283185307,1.,1.,360.,-0.5,   0000503P0000358
-0.,-2.37142157E-11,-0.5,0.,0.,6.283185307,0.,0.,1.;             0000503P0000359
126,1,1,1,0,1,0,0.5,0.5,3.5,3.5,1.,1.,-2.37142157E-11,-0.5,0.,   0000505P0000360
-2.37142157E-11,-3.5,0.,0.5,3.5,0.,0.,1.;                        0000505P0000361
126,1,1,1,0,1,0,0.,0.,6.283185307,6.283185307,1.,1.,             0000507P0000362
-2.37142157E-11,-3.5,0.,360.,-3.5,-0.,0.,6.283185307,0.,0.,1.;   0000507P0000363
126,1,1,1,0,1,0,0.5,0.5,3.5,3.5,1.,1.,360.,-3.5,-0.,360.,-0.5,   0000509P0000364
-0.,0.5,3.5,0.,0.,1.;                                            0000509P0000365
510,513,1,1,521;                                                 0000511P0000366
192,515,517,2.75,519;                                            0000513P0000367
116,0.,1.998401444E-14,30.,0;                                    0000515P0000368
123,0.,1.,-6.661338148E-16;                                      0000517P0000369
123,1.,0.,0.;                                                    0000519P0000370
508,4,0,17,37,1,1,0,523,0,17,51,1,1,0,525,0,17,45,0,1,0,527,0,   0000521P0000371
17,51,0,1,0,529;                                                 0000521P0000372
126,1,1,1,0,1,0,0.,0.,6.283185307,6.283185307,1.,1.,360.,-0.5,   0000523P0000373
-0.,-2.37142157E-11,-0.5,0.,0.,6.283185307,0.,0.,1.;             0000523P0000374
126,1,1,1,0,1,0,0.5,0.5,3.5,3.5,1.,1.,-2.37142157E-11,-0.5,0.,   0000525P0000375
-2.37142157E-11,-3.5,0.,0.5,3.5,0.,0.,1.;                        0000525P0000376
126,1,1,1,0,1,0,0.,0.,6.283185307,6.283185307,1.,1.,             0000527P0000377
-2.37142157E-11,-3.5,0.,360.,-3.5,-0.,0.,6.283185307,0.,0.,1.;   0000527P0000378
126,1,1,1,0,1,0,0.5,0.5,3.5,3.5,1.,1.,360.,-3.5,-0.,360.,-0.5,   0000529P0000379
-0.,0.5,3.5,0.,0.,1.;                                            0000529P0000380
510,533,1,1,541;                                                 0000531P0000381
192,535,537,2.75,539;                                            0000533P0000382
116,0.,6.661338148E-15,10.,0;                                    0000535P0000383
123,0.,1.,-6.661338148E-16;                                      0000537P0000384
123,1.,0.,0.;                                                    0000539P0000385
508,4,0,17,39,1,1,0,543,0,17,52,1,1,0,545,0,17,47,0,1,0,547,0,   0000541P0000386
17,52,0,1,0,549;                                                 0000541P0000387
126,1,1,1,0,1,0,0.,0.,6.283185307,6.283185307,1.,1.,360.,-0.5,   0000543P0000388
-0.,-2.37142157E-11,-0.5,0.,0.,6.283185307,0.,0.,1.;             0000543P0000389
126,1,1,1,0,1,0,0.5,0.5,3.5,3.5,1.,1.,-2.37142157E-11,-0.5,0.,   0000545P0000390
-2.37142157E-11,-3.5,0.,0.5,3.5,0.,0.,1.;                        0000545P0000391
126,1,1,1,0,1,0,0.,0.,6.283185307,6.283185307,1.,1.,             0000547P0000392
-2.37142157E-11,-3.5,0.,360.,-3.5,-0.,0.,6.283185307,0.,0.,1.;   0000547P0000393
126,1,1,1,0,1,0,0.5,0.5,3.5,3.5,1.,1.,360.,-3.5,-0.,360.,-0.5,   0000549P0000394
-0.,0.5,3.5,0.,0.,1.;                                            0000549P0000395
510,553,1,1,561;                                                 0000551P0000396
192,555,557,2.75,559;                                            0000553P0000397
116,20.,6.661338148E-15,10.,0;                                   0000555P0000398
123,0.,1.,-6.661338148E-16;                                      0000557P0000399
123,1.,0.,0.;                                                    0000559P0000400
508,4,0,17,41,1,1,0,563,0,17,53,1,1,0,565,0,17,49,0,1,0,567,0,   0000561P0000401
17,53,0,1,0,569;                                                 0000561P0000402
126,1,1,1,0,1,0,0.,0.,6.283185307,6.283185307,1.,1.,360.,-0.5,   0000563P0000403
-0.,-2.37142157E-11,-0.5,0.,0.,6.283185307,0.,0.,1.;             0000563P0000404
126,1,1,1,0,1,0,0.5,0.5,3.5,3.5,1.,1.,-2.37142157E-11,-0.5,0.,   0000565P0000405
-2.37142157E-11,-3.5,0.,0.5,3.5,0.,0.,1.;                        0000565P0000406
126,1,1,1,0,1,0,0.,0.,6.283185307,6.283185307,1.,1.,             0000567P0000407
-2.37142157E-11,-3.5,0.,360.,-3.5,-0.,0.,6.283185307,0.,0.,1.;   0000567P0000408
126,1,1,1,0,1,0,0.5,0.5,3.5,3.5,1.,1.,360.,-3.5,-0.,360.,-0.5,   0000569P0000409
-0.,0.5,3.5,0.,0.,1.;                                            0000569P0000410
S      1G      4D    570P    410                                        T0000001
