                                                                        S0000001
,,31HOpen CASCADE IGES processor 7.9,13HFilename.iges,                  G0000001
16HOpen CASCADE 7.9,31HOpen CASCADE IGES processor 7.9,32,308,15,308,15,G0000002
,1.,2,2HMM,1,0.01,15H20261004.214557,1E-07,80.,7Hjiayuxu,,11,0,         G0000003
15H20261004.214557,;                                                    G0000004
     186       1       0       0       0       0       0       000000000D0000001
     186       0       0       1       0                               0D0000002
     514       2       0       0       0       0       0       000010000D0000003
     514       0       0       2       1                               0D0000004
     510       4       0       0       0       0       0       000010000D0000005
     510       0       0       1       1                               0D0000006
     190       5       0       0       0       0       0       000010000D0000007
     190       0       0       1       1                               0D0000008
     116       6       0       0       0       0       0       000010400D0000009
     116       0       0       1       0                               0D0000010
     123       7       0       0       0       0       0       000010200D0000011
     123       0       0       1       0                               0D0000012
     123       8       0       0       0       0       0       000010200D0000013
     123       0       0       1       0                               0D0000014
     508       9       0       0       0       0       0       000010000D0000015
     508       0       0       1       1                               0D0000016
     504      10       0       0       0       0       0       000010001D0000017
     504       0       0       6       1                               0D0000018
     110      16       0       0       0       0       0       000010000D0000019
     110       0       0       1       0                               0D0000020
     502      17       0       0       0       0       0       000010000D0000021
     502       0       0       3       1                               0D0000022
     110      20       0       0       0       0       0       000010000D0000023
     110       0       0       1       0                               0D0000024
     110      21       0       0       0       0       0       000010000D0000025
     110       0       0       1       0                               0D0000026
     110      22       0       0       0       0       0       000010000D0000027
     110       0       0       1       0                               0D0000028
     110      23       0       0       0       0       0       000010000D0000029
     110       0       0       1       0                               0D0000030
     110      24       0       0       0       0       0       000010000D0000031
     110       0       0       1       0                               0D0000032
     110      25       0       0       0       0       0       000010000D0000033
     110       0       0       1       0                               0D0000034
     110      26       0       0       0       0       0       000010000D0000035
     110       0       0       1       0                               0D0000036
     110      27       0       0       0       0       0       000010000D0000037
     110       0       0       1       0                               0D0000038
     110      28       0       0       0       0       0       000010000D0000039
     110       0       0       1       0                               0D0000040
     110      29       0       0       0       0       0       000010000D0000041
     110       0       0       1       0                               0D0000042
     110      30       0       0       0       0       0       000010000D0000043
     110       0       0       1       0                               0D0000044
     110      31       0       0       0       0       0       000010000D0000045
     110       0       0       1       0                               0D0000046
     110      32       0       0       0       0       0       000010000D0000047
     110       0       0       1       0                               0D0000048
     110      33       0       0       0       0       0       000010000D0000049
     110       0       0       1       0                               0D0000050
     110      34       0       0       0       0       0       000010000D0000051
     110       0       0       1       0                               0D0000052
     110      35       0       0       0       0       0       000010000D0000053
     110       0       0       1       0                               0D0000054
     110      36       0       0       0       0       0       000010000D0000055
     110       0       0       1       0                               0D0000056
     110      37       0       0       0       0       0       000010000D0000057
     110       0       0       1       0                               0D0000058
     110      38       0       0       0       0       0       000010000D0000059
     110       0       0       1       0                               0D0000060
     110      39       0       0       0       0       0       000010000D0000061
     110       0       0       1       0                               0D0000062
     110      40       0       0       0       0       0       000010000D0000063
     110       0       0       1       0                               0D0000064
     110      41       0       0       0       0       0       000010000D0000065
     110       0       0       1       0                               0D0000066
     110      42       0       0       0       0       0       000010000D0000067
     110       0       0       1       0                               0D0000068
     510      43       0       0       0       0       0       000010000D0000069
     510       0       0       1       1                               0D0000070
     190      44       0       0       0       0       0       000010000D0000071
     190       0       0       1       1                               0D0000072
     116      45       0       0       0       0       0       000010400D0000073
     116       0       0       1       0                               0D0000074
     123      46       0       0       0       0       0       000010200D0000075
     123       0       0       1       0                               0D0000076
     123      47       0       0       0       0       0       000010200D0000077
     123       0       0       1       0                               0D0000078
     508      48       0       0       0       0       0       000010000D0000079
     508       0       0       1       1                               0D0000080
     510      49       0       0       0       0       0       000010000D0000081
     510       0       0       1       1                               0D0000082
     190      50       0       0       0       0       0       000010000D0000083
     190       0       0       1       1                               0D0000084
     116      51       0       0       0       0       0       000010400D0000085
     116       0       0       1       0                               0D0000086
     123      52       0       0       0       0       0       000010200D0000087
     123       0       0       1       0                               0D0000088
     123      53       0       0       0       0       0       000010200D0000089
     123       0       0       1       0                               0D0000090
     508      54       0       0       0       0       0       000010000D0000091
     508       0       0       1       1                               0D0000092
     508      55       0       0       0       0       0       000010000D0000093
     508       0       0       1       1                               0D0000094
     510      56       0       0       0       0       0       000010000D0000095
     510       0       0       1       1                               0D0000096
     190      57       0       0       0       0       0       000010000D0000097
     190       0       0       1       1                               0D0000098
     116      58       0       0       0       0       0       000010400D0000099
     116       0       0       1       0                               0D0000100
     123      59       0       0       0       0       0       000010200D0000101
     123       0       0       1       0                               0D0000102
     123      60       0       0       0       0       0       000010200D0000103
     123       0       0       1       0                               0D0000104
     508      61       0       0       0       0       0       000010000D0000105
     508       0       0       1       1                               0D0000106
     510      62       0       0       0       0       0       000010000D0000107
     510       0       0       1       1                               0D0000108
     190      63       0       0       0       0       0       000010000D0000109
     190       0       0       1       1                               0D0000110
     116      64       0       0       0       0       0       000010400D0000111
     116       0       0       1       0                               0D0000112
     123      65       0       0       0       0       0       000010200D0000113
     123       0       0       1       0                               0D0000114
     123      66       0       0       0       0       0       000010200D0000115
     123       0       0       1       0                               0D0000116
     508      67       0       0       0       0       0       000010000D0000117
     508       0       0       1       1                               0D0000118
     510      68       0       0       0       0       0       000010000D0000119
     510       0       0       1       1                               0D0000120
     190      69       0       0       0       0       0       000010000D0000121
     190       0       0       1       1                               0D0000122
     116      70       0       0       0       0       0       000010400D0000123
     116       0       0       1       0                               0D0000124
     123      71       0       0       0       0       0       000010200D0000125
     123       0       0       1       0                               0D0000126
     123      72       0       0       0       0       0       000010200D0000127
     123       0       0       1       0                               0D0000128
     508      73       0       0       0       0       0       000010000D0000129
     508       0       0       1       1                               0D0000130
     510      74       0       0       0       0       0       000010000D0000131
     510       0       0       1       1                               0D0000132
     190      75       0       0       0       0       0       000010000D0000133
     190       0       0       1       1                               0D0000134
     116      76       0       0       0       0       0       000010400D0000135
     116       0       0       1       0                               0D0000136
     123      77       0       0       0       0       0       000010200D0000137
     123       0       0       1       0                               0D0000138
     123      78       0       0       0       0       0       000010200D0000139
     123       0       0       1       0                               0D0000140
     508      79       0       0       0       0       0       000010000D0000141
     508       0       0       1       1                               0D0000142
     510      80       0       0       0       0       0       000010000D0000143
     510       0       0       1       1                               0D0000144
     190      81       0       0       0       0       0       000010000D0000145
     190       0       0       1       1                               0D0000146
     116      82       0       0       0       0       0       000010400D0000147
     116       0       0       1       0                               0D0000148
     123      83       0       0       0       0       0       000010200D0000149
     123       0       0       1       0                               0D0000150
     123      84       0       0       0       0       0       000010200D0000151
     123       0       0       1       0                               0D0000152
     508      85       0       0       0       0       0       000010000D0000153
     508       0       0       1       1                               0D0000154
     510      86       0       0       0       0       0       000010000D0000155
     510       0       0       1       1                               0D0000156
     190      87       0       0       0       0       0       000010000D0000157
     190       0       0       1       1                               0D0000158
     116      88       0       0       0       0       0       000010400D0000159
     116       0       0       1       0                               0D0000160
     123      89       0       0       0       0       0       000010200D0000161
     123       0       0       1       0                               0D0000162
     123      90       0       0       0       0       0       000010200D0000163
     123       0       0       1       0                               0D0000164
     508      91       0       0       0       0       0       000010000D0000165
     508       0       0       1       1                               0D0000166
     510      92       0       0       0       0       0       000010000D0000167
     510       0       0       1       1                               0D0000168
     190      93       0       0       0       0       0       000010000D0000169
     190       0       0       1       1                               0D0000170
     116      94       0       0       0       0       0       000010400D0000171
     116       0       0       1       0                               0D0000172
     123      95       0       0       0       0       0       000010200D0000173
     123       0       0       1       0                               0D0000174
     123      96       0       0       0       0       0       000010200D0000175
     123       0       0       1       0                               0D0000176
     508      97       0       0       0       0       0       000010000D0000177
     508       0       0       1       1                               0D0000178
     510      98       0       0       0       0       0       000010000D0000179
     510       0       0       1       1                               0D0000180
     190      99       0       0       0       0       0       000010000D0000181
     190       0       0       1       1                               0D0000182
     116     100       0       0       0       0       0       000010400D0000183
     116       0       0       1       0                               0D0000184
     123     101       0       0       0       0       0       000010200D0000185
     123       0       0       1       0                               0D0000186
     123     102       0       0       0       0       0       000010200D0000187
     123       0       0       1       0                               0D0000188
     508     103       0       0       0       0       0       000010000D0000189
     508       0       0       1       1                               0D0000190
186,3,1,0;                                                       0000001P0000001
514,11,5,0,69,0,81,1,95,1,107,0,119,1,131,1,143,0,155,0,167,1,   0000003P0000002
179,1;                                                           0000003P0000003
510,7,1,1,15;                                                    0000005P0000004
190,9,11,13;                                                     0000007P0000005
116,0.,0.,0.,0;                                                  0000009P0000006
123,1.,0.,-0.;                                                   0000011P0000007
123,0.,0.,1.;                                                    0000013P0000008
508,4,0,17,1,0,0,0,17,2,1,0,0,17,3,1,0,0,17,4,0,0;               0000015P0000009
504,24,19,21,1,21,2,23,21,1,21,3,25,21,3,21,4,27,21,2,21,4,29,   0000017P0000010
21,1,21,5,31,21,2,21,6,33,21,5,21,6,35,21,6,21,7,37,21,4,21,7,   0000017P0000011
39,21,8,21,9,41,21,9,21,10,43,21,11,21,10,45,21,8,21,11,47,21,3, 0000017P0000012
21,12,49,21,12,21,7,51,21,5,21,12,53,21,13,21,8,55,21,14,21,13,  0000017P0000013
57,21,14,21,9,59,21,13,21,15,61,21,15,21,11,63,21,16,21,15,65,   0000017P0000014
21,16,21,10,67,21,14,21,16;                                      0000017P0000015
110,0.,0.,0.,0.,0.,24.;                                          0000019P0000016
502,16,0.,0.,0.,0.,0.,24.,0.,60.,0.,0.,60.,24.,80.,0.,0.,80.,0., 0000021P0000017
24.,80.,60.,24.,77.,3.,24.,3.,3.,24.,3.,57.,24.,77.,57.,24.,80., 0000021P0000018
60.,0.,77.,3.,3.,3.,3.,3.,77.,57.,3.,3.,57.,3.;                  0000021P0000019
110,0.,0.,0.,0.,60.,0.;                                          0000023P0000020
110,0.,60.,0.,0.,60.,24.;                                        0000025P0000021
110,0.,0.,24.,0.,60.,24.;                                        0000027P0000022
110,0.,0.,0.,80.,0.,0.;                                          0000029P0000023
110,0.,0.,24.,80.,0.,24.;                                        0000031P0000024
110,80.,0.,0.,80.,0.,24.;                                        0000033P0000025
110,80.,0.,24.,80.,60.,24.;                                      0000035P0000026
110,0.,60.,24.,80.,60.,24.;                                      0000037P0000027
110,77.,3.,24.,3.,3.,24.;                                        0000039P0000028
110,3.,3.,24.,3.,57.,24.;                                        0000041P0000029
110,77.,57.,24.,3.,57.,24.;                                      0000043P0000030
110,77.,3.,24.,77.,57.,24.;                                      0000045P0000031
110,0.,60.,0.,80.,60.,0.;                                        0000047P0000032
110,80.,60.,0.,80.,60.,24.;                                      0000049P0000033
110,80.,0.,0.,80.,60.,0.;                                        0000051P0000034
110,77.,3.,3.,77.,3.,24.;                                        0000053P0000035
110,3.,3.,3.,77.,3.,3.;                                          0000055P0000036
110,3.,3.,3.,3.,3.,24.;                                          0000057P0000037
110,77.,3.,3.,77.,57.,3.;                                        0000059P0000038
110,77.,57.,3.,77.,57.,24.;                                      0000061P0000039
110,3.,57.,3.,77.,57.,3.;                                        0000063P0000040
110,3.,57.,3.,3.,57.,24.;                                        0000065P0000041
110,3.,3.,3.,3.,57.,3.;                                          0000067P0000042
510,71,1,1,79;                                                   0000069P0000043
190,73,75,77;                                                    0000071P0000044
116,0.,0.,0.,0;                                                  0000073P0000045
123,-0.,1.,0.;                                                   0000075P0000046
123,0.,0.,1.;                                                    0000077P0000047
508,4,0,17,5,0,0,0,17,1,1,0,0,17,6,1,0,0,17,7,0,0;               0000079P0000048
510,83,2,1,91,93;                                                0000081P0000049
190,85,87,89;                                                    0000083P0000050
116,0.,0.,24.,0;                                                 0000085P0000051
123,0.,0.,1.;                                                    0000087P0000052
123,1.,0.,-0.;                                                   0000089P0000053
508,4,0,17,4,0,0,0,17,6,1,0,0,17,8,1,0,0,17,9,0,0;               0000091P0000054
508,4,0,17,10,1,0,0,17,11,1,0,0,17,12,0,0,0,17,13,0,0;           0000093P0000055
510,97,1,1,105;                                                  0000095P0000056
190,99,101,103;                                                  0000097P0000057
116,0.,60.,0.,0;                                                 0000099P0000058
123,-0.,1.,0.;                                                   0000101P0000059
123,0.,0.,1.;                                                    0000103P0000060
508,4,0,17,14,0,0,0,17,3,1,0,0,17,9,1,0,0,17,15,0,0;             0000105P0000061
510,109,1,1,117;                                                 0000107P0000062
190,111,113,115;                                                 0000109P0000063
116,0.,0.,0.,0;                                                  0000111P0000064
123,0.,0.,1.;                                                    0000113P0000065
123,1.,0.,-0.;                                                   0000115P0000066
508,4,0,17,2,0,0,0,17,5,1,0,0,17,16,1,0,0,17,14,0,0;             0000117P0000067
510,121,1,1,129;                                                 0000119P0000068
190,123,125,127;                                                 0000121P0000069
116,80.,0.,0.,0;                                                 0000123P0000070
123,1.,0.,-0.;                                                   0000125P0000071
123,0.,0.,1.;                                                    0000127P0000072
508,4,0,17,7,0,0,0,17,16,1,0,0,17,15,1,0,0,17,8,0,0;             0000129P0000073
510,133,1,1,141;                                                 0000131P0000074
190,135,137,139;                                                 0000133P0000075
116,3.,3.,3.,0;                                                  0000135P0000076
123,-0.,1.,0.;                                                   0000137P0000077
123,0.,0.,1.;                                                    0000139P0000078
508,4,0,17,17,0,0,0,17,18,0,0,0,17,19,1,0,0,17,10,0,0;           0000141P0000079
510,145,1,1,153;                                                 0000143P0000080
190,147,149,151;                                                 0000145P0000081
116,77.,3.,3.,0;                                                 0000147P0000082
123,1.,0.,-0.;                                                   0000149P0000083
123,0.,0.,1.;                                                    0000151P0000084
508,4,0,17,17,0,0,0,17,20,1,0,0,17,21,1,0,0,17,13,0,0;           0000153P0000085
510,157,1,1,165;                                                 0000155P0000086
190,159,161,163;                                                 0000157P0000087
116,3.,57.,3.,0;                                                 0000159P0000088
123,-0.,1.,0.;                                                   0000161P0000089
123,0.,0.,1.;                                                    0000163P0000090
508,4,0,17,21,0,0,0,17,22,0,0,0,17,23,1,0,0,17,12,0,0;           0000165P0000091
510,169,1,1,177;                                                 0000167P0000092
190,171,173,175;                                                 0000169P0000093
116,3.,3.,3.,0;                                                  0000171P0000094
123,1.,0.,-0.;                                                   0000173P0000095
123,0.,0.,1.;                                                    0000175P0000096
508,4,0,17,19,0,0,0,17,24,1,0,0,17,23,1,0,0,17,11,0,0;           0000177P0000097
510,181,1,1,189;                                                 0000179P0000098
190,183,185,187;                                                 0000181P0000099
116,3.,3.,3.,0;                                                  0000183P0000100
123,0.,0.,1.;                                                    0000185P0000101
123,1.,0.,-0.;                                                   0000187P0000102
508,4,0,17,24,0,0,0,17,18,1,0,0,17,20,1,0,0,17,22,0,0;           0000189P0000103
S      1G      4D    190P    103                                        T0000001
