                                                                        S0000001
,,31HOpen CASCADE IGES processor 7.9,13HFilename.iges,                  G0000001
16HOpen CASCADE 7.9,31HOpen CASCADE IGES processor 7.9,32,308,15,308,15,G0000002
,1.,2,2HMM,1,0.01,15H20261004.214557,1E-07,36.034255,7Hjiayuxu,,11,0,   G0000003
15H20261004.214557,;                                                    G0000004
     402       1       0       0       0       0       0       000000000D0000001
     402       0       0       1       1                               0D0000002
     186       2       0       0       0       0       0       000020000D0000003
     186       0       0       1       0                               0D0000004
     514       3       0       0       0       0       0       000010000D0000005
     514       0       0       3       1                               0D0000006
     510       6       0       0       0       0       0       000010000D0000007
     510       0       0       1       1                               0D0000008
     190       7       0       0       0       0       0       000010000D0000009
     190       0       0       1       1                               0D0000010
     116       8       0       0       0       0       0       000010400D0000011
     116       0       0       1       0                               0D0000012
     123       9       0       0       0       0       0       000010200D0000013
     123       0       0       1       0                               0D0000014
     123      10       0       0       0       0       0       000010200D0000015
     123       0       0       1       0                               0D0000016
     508      11       0       0       0       0       0       000010000D0000017
     508       0       0       1       1                               0D0000018
     504      12       0       0       0       0       0       000010001D0000019
     504       0       0      10       1                               0D0000020
     100      22       0       0       0       0      23       000010000D0000021
     100       0       0       1       0                               0D0000022
     124      23       0       0       0       0       0       000000000D0000023
     124       0       0       2       0                               0D0000024
     502      25       0       0       0       0       0       000010000D0000025
     502       0       0       9       1                               0D0000026
     100      34       0       0       0       0      29       000010000D0000027
     100       0       0       1       0                               0D0000028
     124      35       0       0       0       0       0       000000000D0000029
     124       0       0       2       0                               0D0000030
     100      37       0       0       0       0      33       000010000D0000031
     100       0       0       1       0                               0D0000032
     124      38       0       0       0       0       0       000000000D0000033
     124       0       0       2       0                               0D0000034
     110      40       0       0       0       0       0       000010000D0000035
     110       0       0       1       0                               0D0000036
     100      41       0       0       0       0      39       000010000D0000037
     100       0       0       1       0                               0D0000038
     124      42       0       0       0       0       0       000000000D0000039
     124       0       0       3       0                               0D0000040
     126      45       0       0       0       0       0       000010000D0000041
     126       0       0       2       0                               0D0000042
     100      47       0       0       0       0      45       000010000D0000043
     100       0       0       1       0                               0D0000044
     124      48       0       0       0       0       0       000000000D0000045
     124       0       0       2       0                               0D0000046
     100      50       0       0       0       0      49       000010000D0000047
     100       0       0       1       0                               0D0000048
     124      51       0       0       0       0       0       000000000D0000049
     124       0       0       2       0                               0D0000050
     100      53       0       0       0       0      53       000010000D0000051
     100       0       0       1       0                               0D0000052
     124      54       0       0       0       0       0       000000000D0000053
     124       0       0       3       0                               0D0000054
     100      57       0       0       0       0      57       000010000D0000055
     100       0       0       1       0                               0D0000056
     124      58       0       0       0       0       0       000000000D0000057
     124       0       0       2       0                               0D0000058
     100      60       0       0       0       0      61       000010000D0000059
     100       0       0       1       0                               0D0000060
     124      61       0       0       0       0       0       000000000D0000061
     124       0       0       2       0                               0D0000062
     100      63       0       0       0       0      65       000010000D0000063
     100       0       0       1       0                               0D0000064
     124      64       0       0       0       0       0       000000000D0000065
     124       0       0       2       0                               0D0000066
     100      66       0       0       0       0      69       000010000D0000067
     100       0       0       1       0                               0D0000068
     124      67       0       0       0       0       0       000000000D0000069
     124       0       0       3       0                               0D0000070
     126      70       0       0       0       0       0       000010000D0000071
     126       0       0       2       0                               0D0000072
     100      72       0       0       0       0      75       000010000D0000073
     100       0       0       1       0                               0D0000074
     124      73       0       0       0       0       0       000000000D0000075
     124       0       0       2       0                               0D0000076
     100      75       0       0       0       0      79       000010000D0000077
     100       0       0       1       0                               0D0000078
     124      76       0       0       0       0       0       000000000D0000079
     124       0       0       3       0                               0D0000080
     100      79       0       0       0       0      83       000010000D0000081
     100       0       0       1       0                               0D0000082
     124      80       0       0       0       0       0       000000000D0000083
     124       0       0       3       0                               0D0000084
     100      83       0       0       0       0      87       000010000D0000085
     100       0       0       1       0                               0D0000086
     124      84       0       0       0       0       0       000000000D0000087
     124       0       0       2       0                               0D0000088
     110      86       0       0       0       0       0       000010000D0000089
     110       0       0       1       0                               0D0000090
     100      87       0       0       0       0      93       000010000D0000091
     100       0       0       1       0                               0D0000092
     124      88       0       0       0       0       0       000000000D0000093
     124       0       0       2       0                               0D0000094
     110      90       0       0       0       0       0       000010000D0000095
     110       0       0       1       0                               0D0000096
     100      91       0       0       0       0      99       000010000D0000097
     100       0       0       1       0                               0D0000098
     124      92       0       0       0       0       0       000000000D0000099
     124       0       0       2       0                               0D0000100
     100      94       0       0       0       0     103       000010000D0000101
     100       0       0       1       0                               0D0000102
     124      95       0       0       0       0       0       000000000D0000103
     124       0       0       2       0                               0D0000104
     100      97       0       0       0       0     107       000010000D0000105
     100       0       0       1       0                               0D0000106
     124      98       0       0       0       0       0       000000000D0000107
     124       0       0       2       0                               0D0000108
     100     100       0       0       0       0     111       000010000D0000109
     100       0       0       1       0                               0D0000110
     124     101       0       0       0       0       0       000000000D0000111
     124       0       0       3       0                               0D0000112
     100     104       0       0       0       0     115       000010000D0000113
     100       0       0       1       0                               0D0000114
     124     105       0       0       0       0       0       000000000D0000115
     124       0       0       2       0                               0D0000116
     100     107       0       0       0       0     119       000010000D0000117
     100       0       0       1       0                               0D0000118
     124     108       0       0       0       0       0       000000000D0000119
     124       0       0       2       0                               0D0000120
     100     110       0       0       0       0     123       000010000D0000121
     100       0       0       1       0                               0D0000122
     124     111       0       0       0       0       0       000000000D0000123
     124       0       0       2       0                               0D0000124
     100     113       0       0       0       0     127       000010000D0000125
     100       0       0       1       0                               0D0000126
     124     114       0       0       0       0       0       000000000D0000127
     124       0       0       2       0                               0D0000128
     110     116       0       0       0       0       0       000010000D0000129
     110       0       0       2       0                               0D0000130
     100     118       0       0       0       0     133       000010000D0000131
     100       0       0       1       0                               0D0000132
     124     119       0       0       0       0       0       000000000D0000133
     124       0       0       3       0                               0D0000134
     100     122       0       0       0       0     137       000010000D0000135
     100       0       0       1       0                               0D0000136
     124     123       0       0       0       0       0       000000000D0000137
     124       0       0       2       0                               0D0000138
     100     125       0       0       0       0     141       000010000D0000139
     100       0       0       1       0                               0D0000140
     124     126       0       0       0       0       0       000000000D0000141
     124       0       0       2       0                               0D0000142
     100     128       0       0       0       0     145       000010000D0000143
     100       0       0       1       0                               0D0000144
     124     129       0       0       0       0       0       000000000D0000145
     124       0       0       2       0                               0D0000146
     100     131       0       0       0       0     149       000010000D0000147
     100       0       0       1       0                               0D0000148
     124     132       0       0       0       0       0       000000000D0000149
     124       0       0       2       0                               0D0000150
     110     134       0       0       0       0       0       000010000D0000151
     110       0       0       1       0                               0D0000152
     100     135       0       0       0       0     155       000010000D0000153
     100       0       0       1       0                               0D0000154
     124     136       0       0       0       0       0       000000000D0000155
     124       0       0       2       0                               0D0000156
     110     138       0       0       0       0       0       000010000D0000157
     110       0       0       1       0                               0D0000158
     100     139       0       0       0       0     161       000010000D0000159
     100       0       0       1       0                               0D0000160
     124     140       0       0       0       0       0       000000000D0000161
     124       0       0       2       0                               0D0000162
     100     142       0       0       0       0     165       000010000D0000163
     100       0       0       1       0                               0D0000164
     124     143       0       0       0       0       0       000000000D0000165
     124       0       0       3       0                               0D0000166
     100     146       0       0       0       0     169       000010000D0000167
     100       0       0       1       0                               0D0000168
     124     147       0       0       0       0       0       000000000D0000169
     124       0       0       2       0                               0D0000170
     508     149       0       0       0       0       0       000010000D0000171
     508       0       0       1       1                               0D0000172
     510     150       0       0       0       0       0       000010000D0000173
     510       0       0       1       1                               0D0000174
     192     151       0       0       0       0       0       000010000D0000175
     192       0       0       1       1                               0D0000176
     116     152       0       0       0       0       0       000010400D0000177
     116       0       0       1       0                               0D0000178
     123     153       0       0       0       0       0       000010200D0000179
     123       0       0       1       0                               0D0000180
     123     154       0       0       0       0       0       000010200D0000181
     123       0       0       1       0                               0D0000182
     508     155       0       0       0       0       0       000010000D0000183
     508       0       0       2       1                               0D0000184
     110     157       0       0       0       0       0       000010000D0000185
     110       0       0       1       0                               0D0000186
     110     158       0       0       0       0       0       000010000D0000187
     110       0       0       1       0                               0D0000188
     110     159       0       0       0       0       0       000010000D0000189
     110       0       0       1       0                               0D0000190
     110     160       0       0       0       0       0       000010000D0000191
     110       0       0       1       0                               0D0000192
     510     161       0       0       0       0       0       000010000D0000193
     510       0       0       1       1                               0D0000194
     192     162       0       0       0       0       0       000010000D0000195
     192       0       0       1       1                               0D0000196
     116     163       0       0       0       0       0       000010400D0000197
     116       0       0       1       0                               0D0000198
     123     164       0       0       0       0       0       000010200D0000199
     123       0       0       1       0                               0D0000200
     123     165       0       0       0       0       0       000010200D0000201
     123       0       0       1       0                               0D0000202
     508     166       0       0       0       0       0       000010000D0000203
     508       0       0       2       1                               0D0000204
     110     168       0       0       0       0       0       000010000D0000205
     110       0       0       1       0                               0D0000206
     126     169       0       0       0       0       0       000010000D0000207
     126       0       0      12       0                               0D0000208
     110     181       0       0       0       0       0       000010000D0000209
     110       0       0       1       0                               0D0000210
     110     182       0       0       0       0       0       000010000D0000211
     110       0       0       1       0                               0D0000212
     110     183       0       0       0       0       0       000010000D0000213
     110       0       0       1       0                               0D0000214
     510     184       0       0       0       0       0       000010000D0000215
     510       0       0       1       1                               0D0000216
     198     185       0       0       0       0       0       000010000D0000217
     198       0       0       1       1                               0D0000218
     116     186       0       0       0       0       0       000010400D0000219
     116       0       0       1       0                               0D0000220
     123     187       0       0       0       0       0       000010200D0000221
     123       0       0       1       0                               0D0000222
     123     188       0       0       0       0       0       000010200D0000223
     123       0       0       1       0                               0D0000224
     508     189       0       0       0       0       0       000010000D0000225
     508       0       0       2       1                               0D0000226
     110     191       0       0       0       0       0       000010000D0000227
     110       0       0       1       0                               0D0000228
     126     192       0       0       0       0       0       000010000D0000229
     126       0       0       2       0                               0D0000230
     110     194       0       0       0       0       0       000010000D0000231
     110       0       0       1       0                               0D0000232
     126     195       0       0       0       0       0       000010000D0000233
     126       0       0       3       0                               0D0000234
     510     198       0       0       0       0       0       000010000D0000235
     510       0       0       1       1                               0D0000236
     198     199       0       0       0       0       0       000010000D0000237
     198       0       0       1       1                               0D0000238
     116     200       0       0       0       0       0       000010400D0000239
     116       0       0       1       0                               0D0000240
     123     201       0       0       0       0       0       000010200D0000241
     123       0       0       1       0                               0D0000242
     123     202       0       0       0       0       0       000010200D0000243
     123       0       0       1       0                               0D0000244
     508     203       0       0       0       0       0       000010000D0000245
     508       0       0       2       1                               0D0000246
     110     205       0       0       0       0       0       000010000D0000247
     110       0       0       1       0                               0D0000248
     110     206       0       0       0       0       0       000010000D0000249
     110       0       0       1       0                               0D0000250
     110     207       0       0       0       0       0       000010000D0000251
     110       0       0       1       0                               0D0000252
     110     208       0       0       0       0       0       000010000D0000253
     110       0       0       1       0                               0D0000254
     110     209       0       0       0       0       0       000010000D0000255
     110       0       0       1       0                               0D0000256
     510     210       0       0       0       0       0       000010000D0000257
     510       0       0       1       1                               0D0000258
     190     211       0       0       0       0       0       000010000D0000259
     190       0       0       1       1                               0D0000260
     116     212       0       0       0       0       0       000010400D0000261
     116       0       0       1       0                               0D0000262
     123     213       0       0       0       0       0       000010200D0000263
     123       0       0       1       0                               0D0000264
     123     214       0       0       0       0       0       000010200D0000265
     123       0       0       1       0                               0D0000266
     508     215       0       0       0       0       0       000010000D0000267
     508       0       0       1       1                               0D0000268
     508     216       0       0       0       0       0       000010000D0000269
     508       0       0       1       1                               0D0000270
     510     217       0       0       0       0       0       000010000D0000271
     510       0       0       1       1                               0D0000272
     192     218       0       0       0       0       0       000010000D0000273
     192       0       0       1       1                               0D0000274
     116     219       0       0       0       0       0       000010400D0000275
     116       0       0       1       0                               0D0000276
     123     220       0       0       0       0       0       000010200D0000277
     123       0       0       1       0                               0D0000278
     123     221       0       0       0       0       0       000010200D0000279
     123       0       0       1       0                               0D0000280
     508     222       0       0       0       0       0       000010000D0000281
     508       0       0       2       1                               0D0000282
     110     224       0       0       0       0       0       000010000D0000283
     110       0       0       1       0                               0D0000284
     126     225       0       0       0       0       0       000010000D0000285
     126       0       0      16       0                               0D0000286
     110     241       0       0       0       0       0       000010000D0000287
     110       0       0       1       0                               0D0000288
     110     242       0       0       0       0       0       000010000D0000289
     110       0       0       1       0                               0D0000290
     110     243       0       0       0       0       0       000010000D0000291
     110       0       0       1       0                               0D0000292
     510     244       0       0       0       0       0       000010000D0000293
     510       0       0       1       1                               0D0000294
     198     245       0       0       0       0       0       000010000D0000295
     198       0       0       1       1                               0D0000296
     116     246       0       0       0       0       0       000010400D0000297
     116       0       0       1       0                               0D0000298
     123     247       0       0       0       0       0       000010200D0000299
     123       0       0       1       0                               0D0000300
     123     248       0       0       0       0       0       000010200D0000301
     123       0       0       1       0                               0D0000302
     508     249       0       0       0       0       0       000010000D0000303
     508       0       0       2       1                               0D0000304
     126     251       0       0       0       0       0       000010000D0000305
     126       0       0       2       0                               0D0000306
     110     253       0       0       0       0       0       000010000D0000307
     110       0       0       1       0                               0D0000308
     126     254       0       0       0       0       0       000010000D0000309
     126       0       0       3       0                               0D0000310
     110     257       0       0       0       0       0       000010000D0000311
     110       0       0       1       0                               0D0000312
     510     258       0       0       0       0       0       000010000D0000313
     510       0       0       1       1                               0D0000314
     190     259       0       0       0       0       0       000010000D0000315
     190       0       0       1       1                               0D0000316
     116     260       0       0       0       0       0       000010400D0000317
     116       0       0       1       0                               0D0000318
     123     261       0       0       0       0       0       000010200D0000319
     123       0       0       1       0                               0D0000320
     123     262       0       0       0       0       0       000010200D0000321
     123       0       0       1       0                               0D0000322
     508     263       0       0       0       0       0       000010000D0000323
     508       0       0       1       1                               0D0000324
     508     264       0       0       0       0       0       000010000D0000325
     508       0       0       1       1                               0D0000326
     510     265       0       0       0       0       0       000010000D0000327
     510       0       0       1       1                               0D0000328
     192     266       0       0       0       0       0       000010000D0000329
     192       0       0       1       1                               0D0000330
     116     267       0       0       0       0       0       000010400D0000331
     116       0       0       1       0                               0D0000332
     123     268       0       0       0       0       0       000010200D0000333
     123       0       0       1       0                               0D0000334
     123     269       0       0       0       0       0       000010200D0000335
     123       0       0       1       0                               0D0000336
     508     270       0       0       0       0       0       000010000D0000337
     508       0       0       2       1                               0D0000338
     110     272       0       0       0       0       0       000010000D0000339
     110       0       0       1       0                               0D0000340
     110     273       0       0       0       0       0       000010000D0000341
     110       0       0       1       0                               0D0000342
     110     274       0       0       0       0       0       000010000D0000343
     110       0       0       1       0                               0D0000344
     110     275       0       0       0       0       0       000010000D0000345
     110       0       0       1       0                               0D0000346
     510     276       0       0       0       0       0       000010000D0000347
     510       0       0       1       1                               0D0000348
     192     277       0       0       0       0       0       000010000D0000349
     192       0       0       1       1                               0D0000350
     116     278       0       0       0       0       0       000010400D0000351
     116       0       0       1       0                               0D0000352
     123     279       0       0       0       0       0       000010200D0000353
     123       0       0       1       0                               0D0000354
     123     280       0       0       0       0       0       000010200D0000355
     123       0       0       1       0                               0D0000356
     508     281       0       0       0       0       0       000010000D0000357
     508       0       0       2       1                               0D0000358
     110     283       0       0       0       0       0       000010000D0000359
     110       0       0       1       0                               0D0000360
     110     284       0       0       0       0       0       000010000D0000361
     110       0       0       1       0                               0D0000362
     110     285       0       0       0       0       0       000010000D0000363
     110       0       0       1       0                               0D0000364
     110     286       0       0       0       0       0       000010000D0000365
     110       0       0       1       0                               0D0000366
     510     287       0       0       0       0       0       000010000D0000367
     510       0       0       1       1                               0D0000368
     198     288       0       0       0       0       0       000010000D0000369
     198       0       0       1       1                               0D0000370
     116     289       0       0       0       0       0       000010400D0000371
     116       0       0       1       0                               0D0000372
     123     290       0       0       0       0       0       000010200D0000373
     123       0       0       1       0                               0D0000374
     123     291       0       0       0       0       0       000010200D0000375
     123       0       0       1       0                               0D0000376
     508     292       0       0       0       0       0       000010000D0000377
     508       0       0       2       1                               0D0000378
     110     294       0       0       0       0       0       000010000D0000379
     110       0       0       1       0                               0D0000380
     126     295       0       0       0       0       0       000010000D0000381
     126       0       0       2       0                               0D0000382
     110     297       0       0       0       0       0       000010000D0000383
     110       0       0       1       0                               0D0000384
     126     298       0       0       0       0       0       000010000D0000385
     126       0       0       3       0                               0D0000386
     510     301       0       0       0       0       0       000010000D0000387
     510       0       0       1       1                               0D0000388
     198     302       0       0       0       0       0       000010000D0000389
     198       0       0       1       1                               0D0000390
     116     303       0       0       0       0       0       000010400D0000391
     116       0       0       1       0                               0D0000392
     123     304       0       0       0       0       0       000010200D0000393
     123       0       0       1       0                               0D0000394
     123     305       0       0       0       0       0       000010200D0000395
     123       0       0       1       0                               0D0000396
     508     306       0       0       0       0       0       000010000D0000397
     508       0       0       2       1                               0D0000398
     110     308       0       0       0       0       0       000010000D0000399
     110       0       0       1       0                               0D0000400
     126     309       0       0       0       0       0       000010000D0000401
     126       0       0       2       0                               0D0000402
     110     311       0       0       0       0       0       000010000D0000403
     110       0       0       1       0                               0D0000404
     126     312       0       0       0       0       0       000010000D0000405
     126       0       0       3       0                               0D0000406
     510     315       0       0       0       0       0       000010000D0000407
     510       0       0       1       1                               0D0000408
     190     316       0       0       0       0       0       000010000D0000409
     190       0       0       1       1                               0D0000410
     116     317       0       0       0       0       0       000010400D0000411
     116       0       0       1       0                               0D0000412
     123     318       0       0       0       0       0       000010200D0000413
     123       0       0       1       0                               0D0000414
     123     319       0       0       0       0       0       000010200D0000415
     123       0       0       1       0                               0D0000416
     508     320       0       0       0       0       0       000010000D0000417
     508       0       0       1       1                               0D0000418
     508     321       0       0       0       0       0       000010000D0000419
     508       0       0       1       1                               0D0000420
     510     322       0       0       0       0       0       000010000D0000421
     510       0       0       1       1                               0D0000422
     190     323       0       0       0       0       0       000010000D0000423
     190       0       0       1       1                               0D0000424
     116     324       0       0       0       0       0       000010400D0000425
     116       0       0       1       0                               0D0000426
     123     325       0       0       0       0       0       000010200D0000427
     123       0       0       1       0                               0D0000428
     123     326       0       0       0       0       0       000010200D0000429
     123       0       0       1       0                               0D0000430
     508     327       0       0       0       0       0       000010000D0000431
     508       0       0       1       1                               0D0000432
     508     328       0       0       0       0       0       000010000D0000433
     508       0       0       1       1                               0D0000434
     510     329       0       0       0       0       0       000010000D0000435
     510       0       0       1       1                               0D0000436
     192     330       0       0       0       0       0       000010000D0000437
     192       0       0       1       1                               0D0000438
     116     331       0       0       0       0       0       000010400D0000439
     116       0       0       1       0                               0D0000440
     123     332       0       0       0       0       0       000010200D0000441
     123       0       0       1       0                               0D0000442
     123     333       0       0       0       0       0       000010200D0000443
     123       0       0       1       0                               0D0000444
     508     334       0       0       0       0       0       000010000D0000445
     508       0       0       2       1                               0D0000446
     110     336       0       0       0       0       0       000010000D0000447
     110       0       0       1       0                               0D0000448
     110     337       0       0       0       0       0       000010000D0000449
     110       0       0       1       0                               0D0000450
     110     338       0       0       0       0       0       000010000D0000451
     110       0       0       1       0                               0D0000452
     110     339       0       0       0       0       0       000010000D0000453
     110       0       0       1       0                               0D0000454
     510     340       0       0       0       0       0       000010000D0000455
     510       0       0       1       1                               0D0000456
     198     341       0       0       0       0       0       000010000D0000457
     198       0       0       1       1                               0D0000458
     116     342       0       0       0       0       0       000010400D0000459
     116       0       0       1       0                               0D0000460
     123     343       0       0       0       0       0       000010200D0000461
     123       0       0       1       0                               0D0000462
     123     344       0       0       0       0       0       000010200D0000463
     123       0       0       1       0                               0D0000464
     508     345       0       0       0       0       0       000010000D0000465
     508       0       0       2       1                               0D0000466
     126     347       0       0       0       0       0       000010000D0000467
     126       0       0       2       0                               0D0000468
     110     349       0       0       0       0       0       000010000D0000469
     110       0       0       1       0                               0D0000470
     126     350       0       0       0       0       0       000010000D0000471
     126       0       0       3       0                               0D0000472
     110     353       0       0       0       0       0       000010000D0000473
     110       0       0       1       0                               0D0000474
     510     354       0       0       0       0       0       000010000D0000475
     510       0       0       1       1                               0D0000476
     198     355       0       0       0       0       0       000010000D0000477
     198       0       0       1       1                               0D0000478
     116     356       0       0       0       0       0       000010400D0000479
     116       0       0       1       0                               0D0000480
     123     357       0       0       0       0       0       000010200D0000481
     123       0       0       1       0                               0D0000482
     123     358       0       0       0       0       0       000010200D0000483
     123       0       0       1       0                               0D0000484
     508     359       0       0       0       0       0       000010000D0000485
     508       0       0       2       1                               0D0000486
     110     361       0       0       0       0       0       000010000D0000487
     110       0       0       1       0                               0D0000488
     110     362       0       0       0       0       0       000010000D0000489
     110       0       0       1       0                               0D0000490
     110     363       0       0       0       0       0       000010000D0000491
     110       0       0       1       0                               0D0000492
     110     364       0       0       0       0       0       000010000D0000493
     110       0       0       1       0                               0D0000494
     110     365       0       0       0       0       0       000010000D0000495
     110       0       0       1       0                               0D0000496
     510     366       0       0       0       0       0       000010000D0000497
     510       0       0       1       1                               0D0000498
     192     367       0       0       0       0       0       000010000D0000499
     192       0       0       1       1                               0D0000500
     116     368       0       0       0       0       0       000010400D0000501
     116       0       0       1       0                               0D0000502
     123     369       0       0       0       0       0       000010200D0000503
     123       0       0       1       0                               0D0000504
     123     370       0       0       0       0       0       000010200D0000505
     123       0       0       1       0                               0D0000506
     508     371       0       0       0       0       0       000010000D0000507
     508       0       0       2       1                               0D0000508
     110     373       0       0       0       0       0       000010000D0000509
     110       0       0       1       0                               0D0000510
     110     374       0       0       0       0       0       000010000D0000511
     110       0       0       1       0                               0D0000512
     110     375       0       0       0       0       0       000010000D0000513
     110       0       0       1       0                               0D0000514
     110     376       0       0       0       0       0       000010000D0000515
     110       0       0       1       0                               0D0000516
     510     377       0       0       0       0       0       000010000D0000517
     510       0       0       1       1                               0D0000518
     192     378       0       0       0       0       0       000010000D0000519
     192       0       0       1       1                               0D0000520
     116     379       0       0       0       0       0       000010400D0000521
     116       0       0       1       0                               0D0000522
     123     380       0       0       0       0       0       000010200D0000523
     123       0       0       1       0                               0D0000524
     123     381       0       0       0       0       0       000010200D0000525
     123       0       0       1       0                               0D0000526
     508     382       0       0       0       0       0       000010000D0000527
     508       0       0       2       1                               0D0000528
     110     384       0       0       0       0       0       000010000D0000529
     110       0       0       1       0                               0D0000530
     110     385       0       0       0       0       0       000010000D0000531
     110       0       0       1       0                               0D0000532
     110     386       0       0       0       0       0       000010000D0000533
     110       0       0       1       0                               0D0000534
     110     387       0       0       0       0       0       000010000D0000535
     110       0       0       1       0                               0D0000536
     110     388       0       0       0       0       0       000010000D0000537
     110       0       0       1       0                               0D0000538
     510     389       0       0       0       0       0       000010000D0000539
     510       0       0       1       1                               0D0000540
     198     390       0       0       0       0       0       000010000D0000541
     198       0       0       1       1                               0D0000542
     116     391       0       0       0       0       0       000010400D0000543
     116       0       0       1       0                               0D0000544
     123     392       0       0       0       0       0       000010200D0000545
     123       0       0       1       0                               0D0000546
     123     393       0       0       0       0       0       000010200D0000547
     123       0       0       1       0                               0D0000548
     508     394       0       0       0       0       0       000010000D0000549
     508       0       0       2       1                               0D0000550
     126     396       0       0       0       0       0       000010000D0000551
     126       0       0       2       0                               0D0000552
     110     398       0       0       0       0       0       000010000D0000553
     110       0       0       1       0                               0D0000554
     126     399       0       0       0       0       0       000010000D0000555
     126       0       0       3       0                               0D0000556
     110     402       0       0       0       0       0       000010000D0000557
     110       0       0       1       0                               0D0000558
     510     403       0       0       0       0       0       000010000D0000559
     510       0       0       1       1                               0D0000560
     190     404       0       0       0       0       0       000010000D0000561
     190       0       0       1       1                               0D0000562
     116     405       0       0       0       0       0       000010400D0000563
     116       0       0       1       0                               0D0000564
     123     406       0       0       0       0       0       000010200D0000565
     123       0       0       1       0                               0D0000566
     123     407       0       0       0       0       0       000010200D0000567
     123       0       0       1       0                               0D0000568
     508     408       0       0       0       0       0       000010000D0000569
     508       0       0       1       1                               0D0000570
     508     409       0       0       0       0       0       000010000D0000571
     508       0       0       1       1                               0D0000572
402,1,3;                                                         0000001P0000001
186,5,1,0;                                                       0000003P0000002
514,22,7,0,173,0,193,0,215,1,235,0,257,1,271,0,293,1,313,0,327,  0000005P0000003
1,347,0,367,1,387,1,407,0,421,0,435,1,455,1,475,1,497,1,517,1,   0000005P0000004
539,1,559,1;                                                     0000005P0000005
510,9,2,1,17,171;                                                0000007P0000006
190,11,13,15;                                                    0000009P0000007
116,-17.,8.,0.,0;                                                0000011P0000008
123,-1.224646799E-16,-1.,0.;                                     0000013P0000009
123,-0.,0.,-1.;                                                  0000015P0000010
508,1,0,19,1,1,0;                                                0000017P0000011
504,41,21,25,1,25,1,27,25,2,25,3,31,25,3,25,2,35,25,4,25,1,37,   0000019P0000012
25,4,25,4,41,25,5,25,3,43,25,5,25,5,47,25,6,25,4,51,25,6,25,6,   0000019P0000013
55,25,5,25,7,59,25,7,25,8,63,25,8,25,7,67,25,9,25,9,71,25,10,25, 0000019P0000014
8,73,25,10,25,10,77,25,11,25,9,81,25,11,25,11,85,25,12,25,12,89, 0000019P0000015
25,13,25,11,91,25,13,25,13,95,25,14,25,12,97,25,14,25,14,101,25, 0000019P0000016
15,25,15,105,25,13,25,15,109,25,16,25,14,113,25,16,25,16,117,25, 0000019P0000017
17,25,17,121,25,18,25,18,125,25,19,25,19,129,25,19,25,17,131,25, 0000019P0000018
18,25,20,135,25,20,25,20,139,25,21,25,22,143,25,22,25,21,147,25, 0000019P0000019
19,25,22,151,25,20,25,23,153,25,23,25,23,157,25,24,25,21,159,25, 0000019P0000020
24,25,24,163,25,23,25,25,167,25,25,25,25;                        0000019P0000021
100,0.,0.,0.,16.,0.,16.,0.;                                      0000021P0000022
124,0.,1.,-1.224646799E-16,-17.,0.,-1.224646799E-16,-1.,8.,-1.,  0000023P0000023
0.,0.,0.;                                                        0000023P0000024
502,25,-17.,8.,-16.,-17.,8.,-14.,-31.,8.,2.174057559E-15,-17.,   0000025P0000025
32.,-16.,-31.,3.796405077E-15,-1.714505519E-15,-17.,33.,-17.,    0000025P0000026
-5.794806522E-15,-31.,0.,-4.746434818E-15,-17.,-14.,-35.,33.,    0000025P0000027
5.995204333E-15,8.,-17.,-14.,-36.,32.,5.773159728E-15,8.,-17.,   0000025P0000028
-16.,-36.,7.,2.220446049E-16,32.,-17.,-16.,-35.,6.,0.,33.,-17.,  0000025P0000029
-17.,-33.,6.,-2.586602128E-15,33.,-17.,-18.,-33.,                0000025P0000030
4.041334437E-15,-1.959434879E-15,32.,-17.,-19.,-4.746434818E-15, 0000025P0000031
-17.,-16.,-7.705070418E-15,-33.,0.,7.,-17.,-19.,6.,-17.,-16.,6., 0000025P0000032
-17.,-18.;                                                       0000025P0000033
100,0.,0.,0.,14.,0.,-2.571758278E-15,-14.;                       0000027P0000034
124,0.,1.,-1.224646799E-16,-17.,0.,-1.224646799E-16,-1.,8.,-1.,  0000029P0000035
0.,0.,0.;                                                        0000029P0000036
100,0.,0.,0.,-2.571758278E-15,-14.,14.,-3.552713679E-15;         0000031P0000037
124,0.,1.,-1.224646799E-16,-17.,0.,-1.224646799E-16,-1.,8.,-1.,  0000033P0000038
0.,0.,0.;                                                        0000033P0000039
110,-17.,32.,-16.,-17.,8.,-16.;                                  0000035P0000040
100,0.,0.,0.,16.,0.,16.,0.;                                      0000037P0000041
124,2.719262147E-32,1.,-1.224646799E-16,-17.,2.220446049E-16,    0000039P0000042
-1.224646799E-16,-1.,32.,-1.,0.,-2.220446049E-16,                0000039P0000043
-4.440892099E-16;                                                0000039P0000044
126,1,1,1,0,1,0,0.,0.,8.,8.,1.,1.,-31.,3.796405077E-15,          0000041P0000045
-3.429011038E-15,-31.,8.,-1.652654198E-15,0.,8.,0.,0.,1.;        0000041P0000046
100,0.,0.,0.,8.572527594E-16,14.,8.572527594E-16,14.;            0000043P0000047
124,0.,-1.,1.224646799E-16,-17.,0.,1.224646799E-16,1.,           0000045P0000048
2.081899559E-15,-1.,0.,0.,0.;                                    0000045P0000049
100,0.,0.,0.,0.,1.,-1.,0.;                                       0000047P0000050
124,2.719262147E-32,1.224646799E-16,1.,-17.,2.220446049E-16,1.,  0000049P0000051
-1.224646799E-16,32.,-1.,2.220446049E-16,0.,-17.;                0000049P0000052
100,0.,0.,0.,17.,0.,17.,0.;                                      0000051P0000053
124,2.719262147E-32,1.,-1.224646799E-16,-17.,2.220446049E-16,    0000053P0000054
-1.224646799E-16,-1.,33.,-1.,0.,-2.220446049E-16,                0000053P0000055
-2.220446049E-16;                                                0000053P0000056
100,0.,0.,0.,30.981115638,1.081884398,-1.081884398,30.981115638; 0000055P0000057
124,-0.999390827,-3.48994967E-02,0.,0.,3.48994967E-02,           0000057P0000058
-0.999390827,0.,0.,0.,0.,1.,0.;                                  0000057P0000059
100,0.,0.,0.,14.,0.,-3.552713679E-15,-14.;                       0000059P0000060
124,-2.334869824E-16,0.,-1.,-3.9692787E-15,-1.,0.,               0000061P0000061
2.334869824E-16,-17.,0.,1.,0.,0.;                                0000061P0000062
100,0.,0.,0.,-3.552713679E-15,-14.,14.,-3.429011038E-15;         0000063P0000063
124,-2.334869824E-16,0.,-1.,-3.9692787E-15,-1.,0.,               0000065P0000064
2.334869824E-16,-17.,0.,1.,0.,0.;                                0000065P0000065
100,0.,0.,0.,18.,7.888609052E-31,18.,7.888609052E-31;            0000067P0000066
124,-1.,-7.193603922E-32,1.224646799E-16,-17.,1.224646799E-16,   0000069P0000067
-2.220446049E-16,1.,33.,-4.474341775E-32,1.,2.220446049E-16,     0000069P0000068
5.995204333E-15;                                                 0000069P0000069
126,1,1,1,0,1,0,-1.,-1.,7.,7.,1.,1.,8.,-17.,-14.,                0000071P0000070
-5.634613237E-15,-17.,-14.,-1.,7.,0.,0.,1.;                      0000071P0000071
100,0.,0.,0.,14.,0.,14.,0.;                                      0000073P0000072
124,-2.220446049E-16,-1.224646799E-16,-1.,8.,2.719262147E-32,    0000075P0000073
-1.,1.224646799E-16,-17.,-1.,0.,2.220446049E-16,2.220446049E-16; 0000075P0000074
100,0.,0.,0.,1.,0.,0.,1.;                                        0000077P0000075
124,-1.,1.224646799E-16,7.193603922E-32,-35.,1.224646799E-16,1., 0000079P0000076
2.220446049E-16,32.,-4.474341775E-32,2.220446049E-16,-1.,        0000079P0000077
5.773159728E-15;                                                 0000079P0000078
100,0.,0.,0.,19.,0.,19.,0.;                                      0000081P0000079
124,-1.,-7.193603922E-32,1.224646799E-16,-17.,1.224646799E-16,   0000083P0000080
-2.220446049E-16,1.,32.,-4.474341775E-32,1.,2.220446049E-16,     0000083P0000081
5.773159728E-15;                                                 0000083P0000082
100,0.,0.,0.,16.,0.,16.,0.;                                      0000085P0000083
124,-2.220446049E-16,-1.224646799E-16,-1.,8.,2.719262147E-32,    0000087P0000084
-1.,1.224646799E-16,-17.,-1.,0.,2.220446049E-16,5.773159728E-15; 0000087P0000085
110,-36.,7.,-4.431613232E-15,-36.,32.,1.119501891E-15;           0000089P0000086
100,0.,0.,0.,19.,0.,19.,0.;                                      0000091P0000087
124,-1.,-2.719262147E-32,1.224646799E-16,-17.,1.224646799E-16,   0000093P0000088
-2.220446049E-16,1.,7.,0.,1.,2.220446049E-16,2.220446049E-16;    0000093P0000089
110,32.,-17.,-16.,8.,-17.,-16.;                                  0000095P0000090
100,0.,0.,0.,16.,0.,16.,0.;                                      0000097P0000091
124,-2.220446049E-16,-1.224646799E-16,-1.,32.,2.719262147E-32,   0000099P0000092
-1.,1.224646799E-16,-17.,-1.,0.,2.220446049E-16,4.440892099E-16; 0000099P0000093
100,0.,0.,0.,18.,1.972152263E-31,18.,1.972152263E-31;            0000101P0000094
124,-1.,-2.719262147E-32,1.224646799E-16,-17.,1.224646799E-16,   0000103P0000095
-2.220446049E-16,1.,6.,0.,1.,2.220446049E-16,0.;                 0000103P0000096
100,0.,0.,0.,1.,0.,0.,1.;                                        0000105P0000097
124,-1.,-1.224646799E-16,-2.719262147E-32,-35.,1.224646799E-16,  0000107P0000098
-1.,-2.220446049E-16,7.,0.,-2.220446049E-16,1.,2.220446049E-16;  0000107P0000099
100,0.,0.,0.,0.,1.,-1.,-7.105427358E-15;                         0000109P0000100
124,-2.220446049E-16,1.,-1.224646799E-16,32.,2.719262147E-32,    0000111P0000101
-1.224646799E-16,-1.,-17.,-1.,-2.220446049E-16,-2.438567362E-48, 0000111P0000102
-17.;                                                            0000111P0000103
100,0.,0.,0.,17.,0.,17.,0.;                                      0000113P0000104
124,-2.220446049E-16,-1.224646799E-16,-1.,33.,2.719262147E-32,   0000115P0000105
-1.,1.224646799E-16,-17.,-1.,0.,2.220446049E-16,2.220446049E-16; 0000115P0000106
100,0.,0.,0.,16.,1.972152263E-31,16.,1.972152263E-31;            0000117P0000107
124,-1.,-2.719262147E-32,1.224646799E-16,-17.,1.224646799E-16,   0000119P0000108
-2.220446049E-16,1.,6.,0.,1.,2.220446049E-16,1.33226763E-15;     0000119P0000109
100,0.,0.,0.,18.,0.,18.,0.;                                      0000121P0000110
124,-2.220446049E-16,-1.224646799E-16,-1.,33.,2.719262147E-32,   0000123P0000111
-1.,1.224646799E-16,-17.,-1.,0.,2.220446049E-16,0.;              0000123P0000112
100,0.,0.,0.,16.,0.,16.,0.;                                      0000125P0000113
124,-1.,0.,-1.224646799E-16,-17.,1.224646799E-16,0.,-1.,         0000127P0000114
2.081899559E-15,0.,-1.,0.,0.;                                    0000127P0000115
110,-33.,4.041334437E-15,-3.918869757E-15,-33.,6.,               0000129P0000116
-2.586602128E-15;                                                0000129P0000117
100,0.,0.,0.,0.,-1.,1.,0.;                                       0000131P0000118
124,-2.220446049E-16,-1.,1.224646799E-16,32.,2.719262147E-32,    0000133P0000119
1.224646799E-16,1.,-17.,-1.,2.220446049E-16,2.438567362E-48,     0000133P0000120
-18.;                                                            0000133P0000121
100,0.,0.,0.,19.,0.,19.,0.;                                      0000135P0000122
124,-2.220446049E-16,-1.224646799E-16,-1.,32.,2.719262147E-32,   0000137P0000123
-1.,1.224646799E-16,-17.,-1.,0.,2.220446049E-16,2.220446049E-16; 0000137P0000124
100,0.,0.,0.,0.,16.,16.,-3.918869757E-15;                        0000139P0000125
124,-2.334869824E-16,0.,1.,-3.9692787E-15,-1.,0.,                0000141P0000126
-2.334869824E-16,-17.,0.,-1.,0.,0.;                              0000141P0000127
100,0.,0.,0.,16.,0.,0.,16.;                                      0000143P0000128
124,-2.334869824E-16,0.,1.,-3.9692787E-15,-1.,0.,                0000145P0000129
-2.334869824E-16,-17.,0.,-1.,0.,0.;                              0000145P0000130
100,0.,0.,0.,33.,3.45126646E-31,2.020667219E-15,33.;             0000147P0000131
124,-1.,-1.224646799E-16,0.,0.,1.224646799E-16,-1.,0.,0.,0.,0.,  0000149P0000132
1.,0.;                                                           0000149P0000133
110,32.,-17.,-19.,7.,-17.,-19.;                                  0000151P0000134
100,0.,0.,0.,19.,0.,19.,0.;                                      0000153P0000135
124,-2.220446049E-16,-1.224646799E-16,-1.,7.,2.719262147E-32,    0000155P0000136
-1.,1.224646799E-16,-17.,-1.,0.,2.220446049E-16,5.773159728E-15; 0000155P0000137
110,6.,-17.,-16.,-4.440892099E-15,-17.,-16.;                     0000157P0000138
100,0.,0.,0.,16.,0.,16.,0.;                                      0000159P0000139
124,-2.220446049E-16,-1.224646799E-16,-1.,6.,2.719262147E-32,    0000161P0000140
-1.,1.224646799E-16,-17.,-1.,0.,2.220446049E-16,0.;              0000161P0000141
100,0.,0.,0.,1.,-8.881784197E-16,0.,1.;                          0000163P0000142
124,-2.220446049E-16,-1.,1.224646799E-16,7.,2.719262147E-32,     0000165P0000143
1.224646799E-16,1.,-17.,-1.,2.220446049E-16,2.438567362E-48,     0000165P0000144
-18.;                                                            0000165P0000145
100,0.,0.,0.,18.,0.,18.,0.;                                      0000167P0000146
124,-2.220446049E-16,-1.224646799E-16,-1.,6.,2.719262147E-32,    0000169P0000147
-1.,1.224646799E-16,-17.,-1.,0.,2.220446049E-16,5.995204333E-15; 0000169P0000148
508,2,0,19,2,0,0,0,19,3,0,0;                                     0000171P0000149
510,175,1,1,183;                                                 0000173P0000150
192,177,179,16.,181;                                             0000175P0000151
116,-17.,34.,0.,0;                                               0000177P0000152
123,-1.224646799E-16,-1.,0.;                                     0000179P0000153
123,-0.,0.,-1.;                                                  0000181P0000154
508,4,0,19,4,1,1,0,185,0,19,1,0,1,0,187,0,19,4,0,1,0,189,0,19,5, 0000183P0000155
1,1,0,191;                                                       0000183P0000156
110,360.,2.,0.,360.,26.,0.;                                      0000185P0000157
110,360.,26.,0.,0.,26.,0.;                                       0000187P0000158
110,2.37142157E-11,26.,0.,2.37142157E-11,2.,0.;                  0000189P0000159
110,0.,2.,0.,360.,2.,0.;                                         0000191P0000160
510,195,1,1,203;                                                 0000193P0000161
192,197,199,14.,201;                                             0000195P0000162
116,-17.,2.081899559E-15,0.,0;                                   0000197P0000163
123,1.224646799E-16,1.,2.220446049E-16;                          0000199P0000164
123,-1.,1.224646799E-16,0.;                                      0000201P0000165
508,5,0,19,3,1,1,0,205,0,19,2,1,1,0,207,0,19,6,0,1,0,209,0,19,7, 0000203P0000166
1,1,0,211,0,19,6,1,1,0,213;                                      0000203P0000167
110,360.,8.,0.,270.,8.,0.;                                       0000205P0000168
126,19,3,0,0,1,0,0.,0.,0.,0.,0.285599332,0.571198664,            0000207P0000169
0.856797996,1.142397329,1.427996661,1.713595993,1.999195325,     0000207P0000170
2.284794657,2.570393989,2.855993321,3.141592654,3.427191986,     0000207P0000171
3.712791318,3.99839065,4.283989982,4.569589314,4.71238898,       0000207P0000172
4.71238898,4.71238898,4.71238898,1.,1.,1.,1.,1.,1.,1.,1.,1.,1.,  0000207P0000173
1.,1.,1.,1.,1.,1.,1.,1.,1.,1.,270.,8.,0.,264.545454545,8.,0.,    0000207P0000174
253.636363636,8.,0.,237.272727273,8.,0.,220.909090909,8.,0.,     0000207P0000175
204.545454545,8.,0.,188.181818182,8.,0.,171.818181818,8.,0.,     0000207P0000176
155.454545455,8.,0.,139.090909091,8.,0.,122.727272727,8.,0.,     0000207P0000177
106.363636364,8.,0.,90.,8.,0.,73.636363636,8.,0.,57.272727273,   0000207P0000178
8.,0.,40.909090909,8.,0.,24.545454545,8.,0.,10.909090909,8.,0.,  0000207P0000179
2.727272727,8.,0.,-1.086513707E-11,8.,0.,0.,4.71238898,0.,0.,1.; 0000207P0000180
110,0.,8.,0.,0.,0.,0.;                                           0000209P0000181
110,-5.928553926E-12,0.,0.,360.,0.,0.;                           0000211P0000182
110,360.,0.,0.,360.,8.,0.;                                       0000213P0000183
510,217,1,1,225;                                                 0000215P0000184
198,219,221,17.,1.,223;                                          0000217P0000185
116,-17.,32.,-4.440892099E-16,0;                                 0000219P0000186
123,1.224646799E-16,1.,2.220446049E-16;                          0000221P0000187
123,2.719262147E-32,2.220446049E-16,-1.;                         0000223P0000188
508,4,0,19,5,1,1,0,227,0,19,8,0,1,0,229,0,19,9,0,1,0,231,0,19,8, 0000225P0000189
1,1,0,233;                                                       0000225P0000190
110,180.,1.017777498E-13,0.,180.,360.,0.;                        0000227P0000191
126,1,1,1,0,1,0,1.570796327,1.570796327,3.141592654,3.141592654, 0000229P0000192
1.,1.,180.,360.,0.,90.,360.,0.,1.570796327,3.141592654,0.,0.,1.; 0000229P0000193
110,90.,360.,0.,90.,1.017777498E-13,0.;                          0000231P0000194
126,1,1,1,0,1,0,1.570796327,1.570796327,3.141592654,3.141592654, 0000233P0000195
1.,1.,90.,2.381599345E-11,0.,180.,2.381599345E-11,0.,            0000233P0000196
1.570796327,3.141592654,0.,0.,1.;                                0000233P0000197
510,237,1,1,245;                                                 0000235P0000198
198,239,241,17.,14.,243;                                         0000237P0000199
116,0.,0.,0.,0;                                                  0000239P0000200
123,0.,-0.,-1.;                                                  0000241P0000201
123,-0.999390827,3.48994967E-02,0.;                              0000243P0000202
508,5,0,19,10,1,1,0,247,0,19,11,1,1,0,249,0,19,12,1,1,0,251,0,   0000245P0000203
19,10,0,1,0,253,0,19,7,0,1,0,255;                                0000245P0000204
110,360.,2.,0.,360.,92.,0.;                                      0000247P0000205
110,360.,92.,0.,90.,92.,0.;                                      0000249P0000206
110,90.,92.,0.,2.353317541E-11,92.,0.;                           0000251P0000207
110,-4.751702138E-14,92.,0.,-6.347423005E-14,2.,0.;              0000253P0000208
110,-2.785327524E-11,2.,0.,360.,2.,0.;                           0000255P0000209
510,259,2,1,267,269;                                             0000257P0000210
190,261,263,265;                                                 0000259P0000211
116,-17.,33.,5.995204333E-15,0;                                  0000261P0000212
123,1.224646799E-16,1.,2.220446049E-16;                          0000263P0000213
123,-1.,1.224646799E-16,0.;                                      0000265P0000214
508,1,0,19,13,1,0;                                               0000267P0000215
508,1,0,19,9,1,0;                                                0000269P0000216
510,273,1,1,281;                                                 0000271P0000217
192,275,277,14.,279;                                             0000273P0000218
116,7.,-17.,0.,0;                                                0000275P0000219
123,-1.,1.224646799E-16,2.220446049E-16;                         0000277P0000220
123,-2.220446049E-16,2.719262147E-32,-1.;                        0000279P0000221
508,5,0,19,14,0,1,0,283,0,19,15,1,1,0,285,0,19,14,1,1,0,287,0,   0000281P0000222
19,11,0,1,0,289,0,19,12,0,1,0,291;                               0000281P0000223
110,0.,7.,-0.,0.,-1.,-0.;                                        0000283P0000224
126,24,3,0,0,1,0,0.,0.,0.,0.,0.285599332,0.571198664,            0000285P0000225
0.856797996,1.142397329,1.427996661,1.713595993,1.999195325,     0000285P0000226
2.284794657,2.570393989,2.855993321,3.141592654,3.427191986,     0000285P0000227
3.712791318,3.99839065,4.283989982,4.569589314,4.855188646,      0000285P0000228
5.140787979,5.426387311,5.711986643,5.997585975,6.283185307,     0000285P0000229
6.283185307,6.283185307,6.283185307,1.,1.,1.,1.,1.,1.,1.,1.,1.,  0000285P0000230
1.,1.,1.,1.,1.,1.,1.,1.,1.,1.,1.,1.,1.,1.,1.,1.,0.,-1.,-0.,      0000285P0000231
5.454545455,-1.,-0.,16.363636364,-1.,-0.,32.727272727,-1.,-0.,   0000285P0000232
49.090909091,-1.,-0.,65.454545455,-1.,-0.,81.818181818,-1.,-0.,  0000285P0000233
98.181818182,-1.,-0.,114.545454545,-1.,-0.,130.909090909,-1.,    0000285P0000234
-0.,147.272727273,-1.,-0.,163.636363636,-1.,-0.,180.,-1.,-0.,    0000285P0000235
196.363636364,-1.,-0.,212.727272727,-1.,-0.,229.090909091,-1.,   0000285P0000236
-0.,245.454545455,-1.,-0.,261.818181818,-1.,-0.,278.181818182,   0000285P0000237
-1.,-0.,294.545454545,-1.,-0.,310.909090909,-1.,-0.,             0000285P0000238
327.272727273,-1.,-0.,343.636363636,-1.,-0.,354.545454545,-1.,   0000285P0000239
-0.,360.,-1.,-0.,0.,6.283185307,0.,0.,1.;                        0000285P0000240
110,360.,-1.,0.,360.,7.,0.;                                      0000287P0000241
110,360.,7.,0.,90.,7.,0.;                                        0000289P0000242
110,90.,7.,0.,-1.776021734E-11,7.,0.;                            0000291P0000243
510,295,1,1,303;                                                 0000293P0000244
198,297,299,18.,1.,301;                                          0000295P0000245
116,-17.,32.,5.773159728E-15,0;                                  0000297P0000246
123,1.224646799E-16,1.,2.220446049E-16;                          0000299P0000247
123,-1.,1.224646799E-16,-4.474341775E-32;                        0000301P0000248
508,4,0,19,16,0,1,0,305,0,19,17,1,1,0,307,0,19,16,1,1,0,309,0,   0000303P0000249
19,13,0,1,0,311;                                                 0000303P0000250
126,1,1,1,0,1,0,0.,0.,1.570796327,1.570796327,1.,1.,90.,360.,0., 0000305P0000251
0.,360.,0.,0.,1.570796327,0.,0.,1.;                              0000305P0000252
110,0.,360.,0.,-6.382883469E-14,0.,0.;                           0000307P0000253
126,1,1,1,0,1,0,0.,0.,1.570796327,1.570796327,1.,1.,             0000309P0000254
-6.382883469E-14,-2.361243796E-11,0.,90.,-2.361243796E-11,-0.,   0000309P0000255
0.,1.570796327,0.,0.,1.;                                         0000309P0000256
110,90.,0.,0.,90.,360.,0.;                                       0000311P0000257
510,315,2,1,323,325;                                             0000313P0000258
190,317,319,321;                                                 0000315P0000259
116,8.,-17.,5.773159728E-15,0;                                   0000317P0000260
123,-1.,1.224646799E-16,2.220446049E-16;                         0000319P0000261
123,-2.220446049E-16,2.719262147E-32,-1.;                        0000321P0000262
508,1,0,19,18,1,0;                                               0000323P0000263
508,1,0,19,15,0,0;                                               0000325P0000264
510,329,1,1,337;                                                 0000327P0000265
192,331,333,19.,335;                                             0000329P0000266
116,-17.,6.,0.,0;                                                0000331P0000267
123,1.224646799E-16,1.,2.220446049E-16;                          0000333P0000268
123,-1.,1.224646799E-16,0.;                                      0000335P0000269
508,4,0,19,19,1,1,0,339,0,19,17,0,1,0,341,0,19,19,0,1,0,343,0,   0000337P0000270
19,20,1,1,0,345;                                                 0000337P0000271
110,360.,1.,0.,360.,26.,0.;                                      0000339P0000272
110,360.,26.,0.,0.,26.,0.;                                       0000341P0000273
110,2.37142157E-11,26.,0.,2.37142157E-11,1.,0.;                  0000343P0000274
110,0.,1.,0.,360.,1.,0.;                                         0000345P0000275
510,349,1,1,357;                                                 0000347P0000276
192,351,353,16.,355;                                             0000349P0000277
116,34.,-17.,0.,0;                                               0000351P0000278
123,-1.,1.224646799E-16,2.220446049E-16;                         0000353P0000279
123,-2.220446049E-16,2.719262147E-32,-1.;                        0000355P0000280
508,4,0,19,21,1,1,0,359,0,19,18,0,1,0,361,0,19,21,0,1,0,363,0,   0000357P0000281
19,22,1,1,0,365;                                                 0000357P0000282
110,360.,2.,0.,360.,26.,0.;                                      0000359P0000283
110,360.,26.,0.,0.,26.,0.;                                       0000361P0000284
110,2.37142157E-11,26.,0.,2.37142157E-11,2.,0.;                  0000363P0000285
110,0.,2.,0.,360.,2.,0.;                                         0000365P0000286
510,369,1,1,377;                                                 0000367P0000287
198,371,373,18.,1.,375;                                          0000369P0000288
116,-17.,7.,2.220446049E-16,0;                                   0000371P0000289
123,-1.224646799E-16,-1.,-2.220446049E-16;                       0000373P0000290
123,-1.,1.224646799E-16,0.;                                      0000375P0000291
508,4,0,19,23,1,1,0,379,0,19,24,0,1,0,381,0,19,20,0,1,0,383,0,   0000377P0000292
19,24,1,1,0,385;                                                 0000377P0000293
110,90.,1.017777498E-13,0.,90.,360.,0.;                          0000379P0000294
126,1,1,1,0,1,0,0.,0.,1.570796327,1.570796327,1.,1.,90.,360.,0., 0000381P0000295
0.,360.,0.,0.,1.570796327,0.,0.,1.;                              0000381P0000296
110,1.459392675E-29,360.,0.,-6.382883469E-14,1.017777498E-13,0.; 0000383P0000297
126,1,1,1,0,1,0,0.,0.,1.570796327,1.570796327,1.,1.,             0000385P0000298
-6.382883469E-14,2.381599345E-11,0.,90.,2.381599345E-11,0.,0.,   0000385P0000299
1.570796327,0.,0.,1.;                                            0000385P0000300
510,389,1,1,397;                                                 0000387P0000301
198,391,393,17.,1.,395;                                          0000389P0000302
116,32.,-17.,4.440892099E-16,0;                                  0000391P0000303
123,1.,-1.224646799E-16,-2.220446049E-16;                        0000393P0000304
123,-2.220446049E-16,2.719262147E-32,-1.;                        0000395P0000305
508,4,0,19,22,1,1,0,399,0,19,25,0,1,0,401,0,19,26,0,1,0,403,0,   0000397P0000306
19,25,1,1,0,405;                                                 0000397P0000307
110,180.,1.017777498E-13,0.,180.,360.,0.;                        0000399P0000308
126,1,1,1,0,1,0,1.570796327,1.570796327,3.141592654,3.141592654, 0000401P0000309
1.,1.,180.,360.,0.,90.,360.,0.,1.570796327,3.141592654,0.,0.,1.; 0000401P0000310
110,90.,360.,0.,90.,1.017777498E-13,0.;                          0000403P0000311
126,1,1,1,0,1,0,1.570796327,1.570796327,3.141592654,3.141592654, 0000405P0000312
1.,1.,90.,2.381599345E-11,0.,180.,2.381599345E-11,0.,            0000405P0000313
1.570796327,3.141592654,0.,0.,1.;                                0000405P0000314
510,409,2,1,417,419;                                             0000407P0000315
190,411,413,415;                                                 0000409P0000316
116,-17.,6.,0.,0;                                                0000411P0000317
123,1.224646799E-16,1.,2.220446049E-16;                          0000413P0000318
123,-1.,1.224646799E-16,0.;                                      0000415P0000319
508,1,0,19,23,1,0;                                               0000417P0000320
508,1,0,19,27,0,0;                                               0000419P0000321
510,423,2,1,431,433;                                             0000421P0000322
190,425,427,429;                                                 0000423P0000323
116,33.,-17.,0.,0;                                               0000425P0000324
123,-1.,1.224646799E-16,2.220446049E-16;                         0000427P0000325
123,-2.220446049E-16,2.719262147E-32,-1.;                        0000429P0000326
508,1,0,19,28,1,0;                                               0000431P0000327
508,1,0,19,26,0,0;                                               0000433P0000328
510,437,1,1,445;                                                 0000435P0000329
192,439,441,16.,443;                                             0000437P0000330
116,-17.,2.081899559E-15,0.,0;                                   0000439P0000331
123,1.224646799E-16,1.,2.220446049E-16;                          0000441P0000332
123,-1.,1.224646799E-16,0.;                                      0000443P0000333
508,4,0,19,29,0,1,0,447,0,19,30,1,1,0,449,0,19,27,0,1,0,451,0,   0000445P0000334
19,30,0,1,0,453;                                                 0000445P0000335
110,2.370370566E-11,0.,0.,360.,0.,0.;                            0000447P0000336
110,360.,1.455327526E-29,0.,360.,6.,0.;                          0000449P0000337
110,360.,6.,0.,0.,6.,0.;                                         0000451P0000338
110,2.37142157E-11,6.,0.,2.37142157E-11,1.455327526E-29,0.;      0000453P0000339
510,457,1,1,465;                                                 0000455P0000340
198,459,461,18.,1.,463;                                          0000457P0000341
116,32.,-17.,2.220446049E-16,0;                                  0000459P0000342
123,-1.,1.224646799E-16,2.220446049E-16;                         0000461P0000343
123,-2.220446049E-16,2.719262147E-32,-1.;                        0000463P0000344
508,4,0,19,31,0,1,0,467,0,19,28,1,1,0,469,0,19,31,1,1,0,471,0,   0000465P0000345
19,32,0,1,0,473;                                                 0000465P0000346
126,1,1,1,0,1,0,4.71238898,4.71238898,6.283185307,6.283185307,   0000467P0000347
1.,1.,360.,360.,0.,270.,360.,0.,4.71238898,6.283185307,0.,0.,1.; 0000467P0000348
110,270.,360.,0.,270.,5.684341886E-14,0.;                        0000469P0000349
126,1,1,1,0,1,0,4.71238898,4.71238898,6.283185307,6.283185307,   0000471P0000350
1.,1.,270.,-2.356154908E-11,-0.,360.,-2.356154908E-11,-0.,       0000471P0000351
4.71238898,6.283185307,0.,0.,1.;                                 0000471P0000352
110,360.,5.684341886E-14,0.,360.,360.,0.;                        0000473P0000353
510,477,1,1,485;                                                 0000475P0000354
198,479,481,17.,16.,483;                                         0000477P0000355
116,0.,0.,0.,0;                                                  0000479P0000356
123,0.,0.,-1.;                                                   0000481P0000357
123,-1.,1.224646799E-16,0.;                                      0000483P0000358
508,5,0,19,33,0,1,0,487,0,19,34,0,1,0,489,0,19,35,0,1,0,491,0,   0000485P0000359
19,29,1,1,0,493,0,19,35,1,1,0,495;                               0000485P0000360
110,360.,90.,0.,90.,90.,0.;                                      0000487P0000361
110,90.,90.,0.,-4.787162602E-14,90.,0.;                          0000489P0000362
110,2.366634408E-11,90.,0.,2.365038687E-11,1.017777498E-13,0.;   0000491P0000363
110,-6.382883469E-14,1.017777498E-13,0.,360.,1.656065845E-13,0.; 0000493P0000364
110,360.,1.526666247E-13,0.,360.,90.,0.;                         0000495P0000365
510,499,1,1,507;                                                 0000497P0000366
192,501,503,19.,505;                                             0000499P0000367
116,33.,-17.,0.,0;                                               0000501P0000368
123,-1.,1.224646799E-16,2.220446049E-16;                         0000503P0000369
123,-2.220446049E-16,2.719262147E-32,-1.;                        0000505P0000370
508,4,0,19,36,1,1,0,509,0,19,37,0,1,0,511,0,19,36,0,1,0,513,0,   0000507P0000371
19,32,1,1,0,515;                                                 0000507P0000372
110,360.,1.,0.,360.,26.,0.;                                      0000509P0000373
110,360.,26.,0.,0.,26.,0.;                                       0000511P0000374
110,2.37142157E-11,26.,0.,2.37142157E-11,1.,0.;                  0000513P0000375
110,0.,1.,0.,360.,1.,0.;                                         0000515P0000376
510,519,1,1,527;                                                 0000517P0000377
192,521,523,16.,525;                                             0000519P0000378
116,6.,-17.,0.,0;                                                0000521P0000379
123,-1.,1.224646799E-16,2.220446049E-16;                         0000523P0000380
123,-2.220446049E-16,2.719262147E-32,-1.;                        0000525P0000381
508,5,0,19,34,1,1,0,529,0,19,38,0,1,0,531,0,19,39,1,1,0,533,0,   0000527P0000382
19,38,1,1,0,535,0,19,33,1,1,0,537;                               0000527P0000383
110,90.,6.,0.,5.925926416E-12,6.,0.;                             0000529P0000384
110,0.,6.,0.,0.,0.,0.;                                           0000531P0000385
110,0.,0.,0.,360.,0.,0.;                                         0000533P0000386
110,360.,0.,0.,360.,6.,0.;                                       0000535P0000387
110,360.,6.,0.,90.,6.,0.;                                        0000537P0000388
510,541,1,1,549;                                                 0000539P0000389
198,543,545,18.,1.,547;                                          0000541P0000390
116,7.,-17.,5.773159728E-15,0;                                   0000543P0000391
123,-1.,1.224646799E-16,2.220446049E-16;                         0000545P0000392
123,-2.220446049E-16,2.719262147E-32,-1.;                        0000547P0000393
508,4,0,19,40,0,1,0,551,0,19,37,1,1,0,553,0,19,40,1,1,0,555,0,   0000549P0000394
19,41,0,1,0,557;                                                 0000549P0000395
126,1,1,1,0,1,0,0.,0.,1.570796327,1.570796327,1.,1.,90.,360.,0., 0000551P0000396
0.,360.,0.,0.,1.570796327,0.,0.,1.;                              0000551P0000397
110,0.,360.,0.,-6.382883469E-14,0.,0.;                           0000553P0000398
126,1,1,1,0,1,0,0.,0.,1.570796327,1.570796327,1.,1.,             0000555P0000399
-6.382883469E-14,-2.361243796E-11,0.,90.,-2.361243796E-11,-0.,   0000555P0000400
0.,1.570796327,0.,0.,1.;                                         0000555P0000401
110,90.,0.,0.,90.,360.,0.;                                       0000557P0000402
510,561,2,1,569,571;                                             0000559P0000403
190,563,565,567;                                                 0000561P0000404
116,6.,-17.,5.995204333E-15,0;                                   0000563P0000405
123,-1.,1.224646799E-16,2.220446049E-16;                         0000565P0000406
123,-2.220446049E-16,2.719262147E-32,-1.;                        0000567P0000407
508,1,0,19,41,1,0;                                               0000569P0000408
508,1,0,19,39,0,0;                                               0000571P0000409
S      1G      4D    572P    409                                        T0000001
