                                                                        S0000001
,,31HOpen CASCADE IGES processor 7.9,13HFilename.iges,                  G0000001
16HOpen CASCADE 7.9,31HOpen CASCADE IGES processor 7.9,32,308,15,308,15,G0000002
,1.,2,2HMM,1,0.01,15H20261004.214557,1E-07,50.004616,7Hjiayuxu,,11,0,   G0000003
15H20261004.214557,;                                                    G0000004
     186       1       0       0       0       0       0       000000000D0000001
     186       0       0       1       0                               0D0000002
     514       2       0       0       0       0       0       000010000D0000003
     514       0       0       2       1                               0D0000004
     510       4       0       0       0       0       0       000010000D0000005
     510       0       0       1       1                               0D0000006
     190       5       0       0       0       0       0       000010000D0000007
     190       0       0       1       1                               0D0000008
     116       6       0       0       0       0       0       000010400D0000009
     116       0       0       1       0                               0D0000010
     123       7       0       0       0       0       0       000010200D0000011
     123       0       0       1       0                               0D0000012
     123       8       0       0       0       0       0       000010200D0000013
     123       0       0       1       0                               0D0000014
     508       9       0       0       0       0       0       000010000D0000015
     508       0       0       1       1                               0D0000016
     504      10       0       0       0       0       0       000010001D0000017
     504       0       0       8       1                               0D0000018
     110      18       0       0       0       0       0       000010000D0000019
     110       0       0       1       0                               0D0000020
     502      19       0       0       0       0       0       000010000D0000021
     502       0       0       5       1                               0D0000022
     110      24       0       0       0       0       0       000010000D0000023
     110       0       0       1       0                               0D0000024
     110      25       0       0       0       0       0       000010000D0000025
     110       0       0       1       0                               0D0000026
     110      26       0       0       0       0       0       000010000D0000027
     110       0       0       1       0                               0D0000028
     110      27       0       0       0       0       0       000010000D0000029
     110       0       0       1       0                               0D0000030
     110      28       0       0       0       0       0       000010000D0000031
     110       0       0       1       0                               0D0000032
     110      29       0       0       0       0       0       000010000D0000033
     110       0       0       1       0                               0D0000034
     100      30       0       0       0       0      37       000010000D0000035
     100       0       0       1       0                               0D0000036
     124      31       0       0       0       0       0       000000000D0000037
     124       0       0       1       0                               0D0000038
     110      32       0       0       0       0       0       000010000D0000039
     110       0       0       1       0                               0D0000040
     110      33       0       0       0       0       0       000010000D0000041
     110       0       0       1       0                               0D0000042
     110      34       0       0       0       0       0       000010000D0000043
     110       0       0       1       0                               0D0000044
     110      35       0       0       0       0       0       000010000D0000045
     110       0       0       1       0                               0D0000046
     110      36       0       0       0       0       0       000010000D0000047
     110       0       0       1       0                               0D0000048
     100      37       0       0       0       0      51       000010000D0000049
     100       0       0       1       0                               0D0000050
     124      38       0       0       0       0       0       000000000D0000051
     124       0       0       1       0                               0D0000052
     110      39       0       0       0       0       0       000010000D0000053
     110       0       0       1       0                               0D0000054
     110      40       0       0       0       0       0       000010000D0000055
     110       0       0       1       0                               0D0000056
     100      41       0       0       0       0      59       000010000D0000057
     100       0       0       1       0                               0D0000058
     124      42       0       0       0       0       0       000000000D0000059
     124       0       0       1       0                               0D0000060
     100      43       0       0       0       0      63       000010000D0000061
     100       0       0       1       0                               0D0000062
     124      44       0       0       0       0       0       000000000D0000063
     124       0       0       1       0                               0D0000064
     110      45       0       0       0       0       0       000010000D0000065
     110       0       0       1       0                               0D0000066
     110      46       0       0       0       0       0       000010000D0000067
     110       0       0       1       0                               0D0000068
     100      47       0       0       0       0      71       000010000D0000069
     100       0       0       1       0                               0D0000070
     124      48       0       0       0       0       0       000000000D0000071
     124       0       0       1       0                               0D0000072
     100      49       0       0       0       0      75       000010000D0000073
     100       0       0       1       0                               0D0000074
     124      50       0       0       0       0       0       000000000D0000075
     124       0       0       1       0                               0D0000076
     110      51       0       0       0       0       0       000010000D0000077
     110       0       0       1       0                               0D0000078
     110      52       0       0       0       0       0       000010000D0000079
     110       0       0       1       0                               0D0000080
     100      53       0       0       0       0      83       000010000D0000081
     100       0       0       1       0                               0D0000082
     124      54       0       0       0       0       0       000000000D0000083
     124       0       0       1       0                               0D0000084
     100      55       0       0       0       0      87       000010000D0000085
     100       0       0       1       0                               0D0000086
     124      56       0       0       0       0       0       000000000D0000087
     124       0       0       1       0                               0D0000088
     110      57       0       0       0       0       0       000010000D0000089
     110       0       0       1       0                               0D0000090
     110      58       0       0       0       0       0       000010000D0000091
     110       0       0       1       0                               0D0000092
     110      59       0       0       0       0       0       000010000D0000093
     110       0       0       1       0                               0D0000094
     100      60       0       0       0       0      97       000010000D0000095
     100       0       0       1       0                               0D0000096
     124      61       0       0       0       0       0       000000000D0000097
     124       0       0       1       0                               0D0000098
     100      62       0       0       0       0     101       000010000D0000099
     100       0       0       1       0                               0D0000100
     124      63       0       0       0       0       0       000000000D0000101
     124       0       0       1       0                               0D0000102
     100      64       0       0       0       0     105       000010000D0000103
     100       0       0       1       0                               0D0000104
     124      65       0       0       0       0       0       000000000D0000105
     124       0       0       1       0                               0D0000106
     100      66       0       0       0       0     109       000010000D0000107
     100       0       0       1       0                               0D0000108
     124      67       0       0       0       0       0       000000000D0000109
     124       0       0       1       0                               0D0000110
     110      68       0       0       0       0       0       000010000D0000111
     110       0       0       1       0                               0D0000112
     510      69       0       0       0       0       0       000010000D0000113
     510       0       0       1       1                               0D0000114
     190      70       0       0       0       0       0       000010000D0000115
     190       0       0       1       1                               0D0000116
     116      71       0       0       0       0       0       000010400D0000117
     116       0       0       1       0                               0D0000118
     123      72       0       0       0       0       0       000010200D0000119
     123       0       0       1       0                               0D0000120
     123      73       0       0       0       0       0       000010200D0000121
     123       0       0       1       0                               0D0000122
     508      74       0       0       0       0       0       000010000D0000123
     508       0       0       2       1                               0D0000124
     510      76       0       0       0       0       0       000010000D0000125
     510       0       0       1       1                               0D0000126
     190      77       0       0       0       0       0       000010000D0000127
     190       0       0       1       1                               0D0000128
     116      78       0       0       0       0       0       000010400D0000129
     116       0       0       1       0                               0D0000130
     123      79       0       0       0       0       0       000010200D0000131
     123       0       0       1       0                               0D0000132
     123      80       0       0       0       0       0       000010200D0000133
     123       0       0       1       0                               0D0000134
     508      81       0       0       0       0       0       000010000D0000135
     508       0       0       1       1                               0D0000136
     510      82       0       0       0       0       0       000010000D0000137
     510       0       0       1       1                               0D0000138
     190      83       0       0       0       0       0       000010000D0000139
     190       0       0       1       1                               0D0000140
     116      84       0       0       0       0       0       000010400D0000141
     116       0       0       1       0                               0D0000142
     123      85       0       0       0       0       0       000010200D0000143
     123       0       0       1       0                               0D0000144
     123      86       0       0       0       0       0       000010200D0000145
     123       0       0       1       0                               0D0000146
     508      87       0       0       0       0       0       000010000D0000147
     508       0       0       2       1                               0D0000148
     510      89       0       0       0       0       0       000010000D0000149
     510       0       0       1       1                               0D0000150
     190      90       0       0       0       0       0       000010000D0000151
     190       0       0       1       1                               0D0000152
     116      91       0       0       0       0       0       000010400D0000153
     116       0       0       1       0                               0D0000154
     123      92       0       0       0       0       0       000010200D0000155
     123       0       0       1       0                               0D0000156
     123      93       0       0       0       0       0       000010200D0000157
     123       0       0       1       0                               0D0000158
     508      94       0       0       0       0       0       000010000D0000159
     508       0       0       1       1                               0D0000160
     508      95       0       0       0       0       0       000010000D0000161
     508       0       0       1       1                               0D0000162
     508      96       0       0       0       0       0       000010000D0000163
     508       0       0       1       1                               0D0000164
     510      97       0       0       0       0       0       000010000D0000165
     510       0       0       1       1                               0D0000166
     190      98       0       0       0       0       0       000010000D0000167
     190       0       0       1       1                               0D0000168
     116      99       0       0       0       0       0       000010400D0000169
     116       0       0       1       0                               0D0000170
     123     100       0       0       0       0       0       000010200D0000171
     123       0       0       1       0                               0D0000172
     123     101       0       0       0       0       0       000010200D0000173
     123       0       0       1       0                               0D0000174
     508     102       0       0       0       0       0       000010000D0000175
     508       0       0       1       1                               0D0000176
     510     103       0       0       0       0       0       000010000D0000177
     510       0       0       1       1                               0D0000178
     190     104       0       0       0       0       0       000010000D0000179
     190       0       0       1       1                               0D0000180
     116     105       0       0       0       0       0       000010400D0000181
     116       0       0       1       0                               0D0000182
     123     106       0       0       0       0       0       000010200D0000183
     123       0       0       1       0                               0D0000184
     123     107       0       0       0       0       0       000010200D0000185
     123       0       0       1       0                               0D0000186
     508     108       0       0       0       0       0       000010000D0000187
     508       0       0       1       1                               0D0000188
     508     109       0       0       0       0       0       000010000D0000189
     508       0       0       1       1                               0D0000190
     508     110       0       0       0       0       0       000010000D0000191
     508       0       0       1       1                               0D0000192
     510     111       0       0       0       0       0       000010000D0000193
     510       0       0       1       1                               0D0000194
     190     112       0       0       0       0       0       000010000D0000195
     190       0       0       1       1                               0D0000196
     116     113       0       0       0       0       0       000010400D0000197
     116       0       0       1       0                               0D0000198
     123     114       0       0       0       0       0       000010200D0000199
     123       0       0       1       0                               0D0000200
     123     115       0       0       0       0       0       000010200D0000201
     123       0       0       1       0                               0D0000202
     508     116       0       0       0       0       0       000010000D0000203
     508       0       0       1       1                               0D0000204
     510     117       0       0       0       0       0       000010000D0000205
     510       0       0       1       1                               0D0000206
     192     118       0       0       0       0       0       000010000D0000207
     192       0       0       1       1                               0D0000208
     116     119       0       0       0       0       0       000010400D0000209
     116       0       0       1       0                               0D0000210
     123     120       0       0       0       0       0       000010200D0000211
     123       0       0       1       0                               0D0000212
     123     121       0       0       0       0       0       000010200D0000213
     123       0       0       1       0                               0D0000214
     508     122       0       0       0       0       0       000010000D0000215
     508       0       0       2       1                               0D0000216
     110     124       0       0       0       0       0       000010000D0000217
     110       0       0       1       0                               0D0000218
     110     125       0       0       0       0       0       000010000D0000219
     110       0       0       1       0                               0D0000220
     126     126       0       0       0       0       0       000010000D0000221
     126       0       0       2       0                               0D0000222
     110     128       0       0       0       0       0       000010000D0000223
     110       0       0       1       0                               0D0000224
     510     129       0       0       0       0       0       000010000D0000225
     510       0       0       1       1                               0D0000226
     190     130       0       0       0       0       0       000010000D0000227
     190       0       0       1       1                               0D0000228
     116     131       0       0       0       0       0       000010400D0000229
     116       0       0       1       0                               0D0000230
     123     132       0       0       0       0       0       000010200D0000231
     123       0       0       1       0                               0D0000232
     123     133       0       0       0       0       0       000010200D0000233
     123       0       0       1       0                               0D0000234
     508     134       0       0       0       0       0       000010000D0000235
     508       0       0       1       1                               0D0000236
     510     135       0       0       0       0       0       000010000D0000237
     510       0       0       1       1                               0D0000238
     192     136       0       0       0       0       0       000010000D0000239
     192       0       0       1       1                               0D0000240
     116     137       0       0       0       0       0       000010400D0000241
     116       0       0       1       0                               0D0000242
     123     138       0       0       0       0       0       000010200D0000243
     123       0       0       1       0                               0D0000244
     123     139       0       0       0       0       0       000010200D0000245
     123       0       0       1       0                               0D0000246
     508     140       0       0       0       0       0       000010000D0000247
     508       0       0       2       1                               0D0000248
     110     142       0       0       0       0       0       000010000D0000249
     110       0       0       1       0                               0D0000250
     110     143       0       0       0       0       0       000010000D0000251
     110       0       0       1       0                               0D0000252
     110     144       0       0       0       0       0       000010000D0000253
     110       0       0       1       0                               0D0000254
     110     145       0       0       0       0       0       000010000D0000255
     110       0       0       1       0                               0D0000256
     510     146       0       0       0       0       0       000010000D0000257
     510       0       0       1       1                               0D0000258
     192     147       0       0       0       0       0       000010000D0000259
     192       0       0       1       1                               0D0000260
     116     148       0       0       0       0       0       000010400D0000261
     116       0       0       1       0                               0D0000262
     123     149       0       0       0       0       0       000010200D0000263
     123       0       0       1       0                               0D0000264
     123     150       0       0       0       0       0       000010200D0000265
     123       0       0       1       0                               0D0000266
     508     151       0       0       0       0       0       000010000D0000267
     508       0       0       2       1                               0D0000268
     110     153       0       0       0       0       0       000010000D0000269
     110       0       0       1       0                               0D0000270
     110     154       0       0       0       0       0       000010000D0000271
     110       0       0       1       0                               0D0000272
     110     155       0       0       0       0       0       000010000D0000273
     110       0       0       1       0                               0D0000274
     110     156       0       0       0       0       0       000010000D0000275
     110       0       0       1       0                               0D0000276
     510     157       0       0       0       0       0       000010000D0000277
     510       0       0       1       1                               0D0000278
     192     158       0       0       0       0       0       000010000D0000279
     192       0       0       1       1                               0D0000280
     116     159       0       0       0       0       0       000010400D0000281
     116       0       0       1       0                               0D0000282
     123     160       0       0       0       0       0       000010200D0000283
     123       0       0       1       0                               0D0000284
     123     161       0       0       0       0       0       000010200D0000285
     123       0       0       1       0                               0D0000286
     508     162       0       0       0       0       0       000010000D0000287
     508       0       0       2       1                               0D0000288
     110     164       0       0       0       0       0       000010000D0000289
     110       0       0       1       0                               0D0000290
     110     165       0       0       0       0       0       000010000D0000291
     110       0       0       1       0                               0D0000292
     110     166       0       0       0       0       0       000010000D0000293
     110       0       0       1       0                               0D0000294
     126     167       0       0       0       0       0       000010000D0000295
     126       0       0       2       0                               0D0000296
     510     169       0       0       0       0       0       000010000D0000297
     510       0       0       1       1                               0D0000298
     190     170       0       0       0       0       0       000010000D0000299
     190       0       0       1       1                               0D0000300
     116     171       0       0       0       0       0       000010400D0000301
     116       0       0       1       0                               0D0000302
     123     172       0       0       0       0       0       000010200D0000303
     123       0       0       1       0                               0D0000304
     123     173       0       0       0       0       0       000010200D0000305
     123       0       0       1       0                               0D0000306
     508     174       0       0       0       0       0       000010000D0000307
     508       0       0       1       1                               0D0000308
     508     175       0       0       0       0       0       000010000D0000309
     508       0       0       1       1                               0D0000310
     510     176       0       0       0       0       0       000010000D0000311
     510       0       0       1       1                               0D0000312
     190     177       0       0       0       0       0       000010000D0000313
     190       0       0       1       1                               0D0000314
     116     178       0       0       0       0       0       000010400D0000315
     116       0       0       1       0                               0D0000316
     123     179       0       0       0       0       0       000010200D0000317
     123       0       0       1       0                               0D0000318
     123     180       0       0       0       0       0       000010200D0000319
     123       0       0       1       0                               0D0000320
     508     181       0       0       0       0       0       000010000D0000321
     508       0       0       1       1                               0D0000322
     508     182       0       0       0       0       0       000010000D0000323
     508       0       0       1       1                               0D0000324
     510     183       0       0       0       0       0       000010000D0000325
     510       0       0       1       1                               0D0000326
     192     184       0       0       0       0       0       000010000D0000327
     192       0       0       1       1                               0D0000328
     116     185       0       0       0       0       0       000010400D0000329
     116       0       0       1       0                               0D0000330
     123     186       0       0       0       0       0       000010200D0000331
     123       0       0       1       0                               0D0000332
     123     187       0       0       0       0       0       000010200D0000333
     123       0       0       1       0                               0D0000334
     508     188       0       0       0       0       0       000010000D0000335
     508       0       0       2       1                               0D0000336
     110     190       0       0       0       0       0       000010000D0000337
     110       0       0       1       0                               0D0000338
     110     191       0       0       0       0       0       000010000D0000339
     110       0       0       1       0                               0D0000340
     110     192       0       0       0       0       0       000010000D0000341
     110       0       0       1       0                               0D0000342
     110     193       0       0       0       0       0       000010000D0000343
     110       0       0       1       0                               0D0000344
186,3,1,0;                                                       0000001P0000001
514,16,5,0,113,0,125,1,137,1,149,0,165,1,177,1,193,0,205,1,225,  0000003P0000002
1,237,0,257,0,277,1,297,0,311,1,325,0;                           0000003P0000003
510,7,1,1,15;                                                    0000005P0000004
190,9,11,13;                                                     0000007P0000005
116,0.,0.,0.,0;                                                  0000009P0000006
123,1.,0.,-0.;                                                   0000011P0000007
123,0.,0.,1.;                                                    0000013P0000008
508,4,0,17,1,0,0,0,17,2,1,0,0,17,3,1,0,0,17,4,0,0;               0000015P0000009
504,34,19,21,1,21,2,23,21,1,21,3,25,21,3,21,4,27,21,2,21,4,29,   0000017P0000010
21,5,21,6,31,21,1,21,5,33,21,2,21,7,35,21,8,21,7,39,21,8,21,6,   0000017P0000011
41,21,4,21,9,43,21,7,21,9,45,21,10,21,11,47,21,3,21,10,49,21,12, 0000017P0000012
21,9,53,21,12,21,11,55,21,5,21,10,57,21,13,21,13,61,21,14,21,14, 0000017P0000013
65,21,6,21,11,67,21,8,21,12,69,21,15,21,15,73,21,16,21,16,77,21, 0000017P0000014
7,21,8,79,21,17,21,18,81,21,9,21,18,85,21,7,21,17,89,21,9,21,12, 0000017P0000015
91,21,13,21,15,93,21,14,21,16,95,21,18,21,12,99,21,17,21,8,103,  0000017P0000016
21,19,21,19,107,21,20,21,20,111,21,19,21,20;                     0000017P0000017
110,0.,0.,0.,0.,0.,4.;                                           0000019P0000018
502,20,0.,0.,0.,0.,0.,4.,0.,35.,0.,0.,35.,4.,50.,0.,0.,50.,0.,   0000021P0000019
4.,2.255437353,0.,4.,13.744562647,0.,4.,2.255437353,35.,4.,50.,  0000021P0000020
35.,0.,50.,35.,4.,13.744562647,35.,4.,40.5,8.,0.,40.5,27.,0.,    0000021P0000021
40.5,8.,4.,40.5,27.,4.,8.,0.,15.,8.,35.,15.,8.,0.,11.5,8.,35.,   0000021P0000022
11.5;                                                            0000021P0000023
110,0.,0.,0.,0.,35.,0.;                                          0000023P0000024
110,0.,35.,0.,0.,35.,4.;                                         0000025P0000025
110,0.,0.,4.,0.,35.,4.;                                          0000027P0000026
110,50.,0.,0.,50.,0.,4.;                                         0000029P0000027
110,0.,0.,0.,50.,0.,0.;                                          0000031P0000028
110,0.,0.,4.,2.255437353,0.,4.;                                  0000033P0000029
100,0.,0.,0.,-4.,5.744562647,-4.,-5.744562647;                   0000035P0000030
124,0.,1.,0.,8.,0.,0.,1.,0.,1.,0.,0.,8.;                         0000037P0000031
110,13.744562647,0.,4.,50.,0.,4.;                                0000039P0000032
110,0.,35.,4.,2.255437353,35.,4.;                                0000041P0000033
110,2.255437353,0.,4.,2.255437353,35.,4.;                        0000043P0000034
110,50.,35.,0.,50.,35.,4.;                                       0000045P0000035
110,0.,35.,0.,50.,35.,0.;                                        0000047P0000036
100,0.,0.,0.,-4.,5.744562647,-4.,-5.744562647;                   0000049P0000037
124,0.,1.,0.,8.,0.,0.,1.,35.,1.,0.,0.,8.;                        0000051P0000038
110,13.744562647,35.,4.,50.,35.,4.;                              0000053P0000039
110,50.,0.,0.,50.,35.,0.;                                        0000055P0000040
100,0.,0.,0.,2.5,0.,2.5,0.;                                      0000057P0000041
124,1.,0.,0.,38.,0.,1.,0.,8.,0.,0.,1.,0.;                        0000059P0000042
100,0.,0.,0.,2.5,0.,2.5,0.;                                      0000061P0000043
124,1.,0.,0.,38.,0.,1.,0.,27.,0.,0.,1.,0.;                       0000063P0000044
110,50.,0.,4.,50.,35.,4.;                                        0000065P0000045
110,13.744562647,0.,4.,13.744562647,35.,4.;                      0000067P0000046
100,0.,0.,0.,2.5,0.,2.5,0.;                                      0000069P0000047
124,1.,0.,0.,38.,0.,1.,0.,8.,0.,0.,1.,4.;                        0000071P0000048
100,0.,0.,0.,2.5,0.,2.5,0.;                                      0000073P0000049
124,1.,0.,0.,38.,0.,1.,0.,27.,0.,0.,1.,4.;                       0000075P0000050
110,2.255437353,0.,4.,13.744562647,0.,4.;                        0000077P0000051
110,8.,0.,15.,8.,35.,15.;                                        0000079P0000052
100,0.,0.,0.,-4.,-5.744562647,7.,-1.776356839E-15;               0000081P0000053
124,0.,1.,0.,8.,0.,0.,1.,35.,1.,0.,0.,8.;                        0000083P0000054
100,0.,0.,0.,-4.,-5.744562647,7.,-1.776356839E-15;               0000085P0000055
124,0.,1.,0.,8.,0.,0.,1.,0.,1.,0.,0.,8.;                         0000087P0000056
110,2.255437353,35.,4.,13.744562647,35.,4.;                      0000089P0000057
110,40.5,8.,0.,40.5,8.,4.;                                       0000091P0000058
110,40.5,27.,0.,40.5,27.,4.;                                     0000093P0000059
100,0.,0.,0.,7.,0.,-4.,5.744562647;                              0000095P0000060
124,0.,1.,0.,8.,0.,0.,1.,35.,1.,0.,0.,8.;                        0000097P0000061
100,0.,0.,0.,7.,0.,-4.,5.744562647;                              0000099P0000062
124,0.,1.,0.,8.,0.,0.,1.,0.,1.,0.,0.,8.;                         0000101P0000063
100,0.,0.,0.,3.5,0.,3.5,0.;                                      0000103P0000064
124,0.,1.,0.,8.,0.,0.,1.,0.,1.,0.,0.,8.;                         0000105P0000065
100,0.,0.,0.,3.5,0.,3.5,0.;                                      0000107P0000066
124,0.,1.,0.,8.,0.,0.,1.,35.,1.,0.,0.,8.;                        0000109P0000067
110,8.,0.,11.5,8.,35.,11.5;                                      0000111P0000068
510,115,1,1,123;                                                 0000113P0000069
190,117,119,121;                                                 0000115P0000070
116,0.,0.,0.,0;                                                  0000117P0000071
123,-0.,1.,0.;                                                   0000119P0000072
123,0.,0.,1.;                                                    0000121P0000073
508,6,0,17,5,0,0,0,17,6,0,0,0,17,1,1,0,0,17,7,1,0,0,17,8,0,0,0,  0000123P0000074
17,9,1,0;                                                        0000123P0000075
510,127,1,1,135;                                                 0000125P0000076
190,129,131,133;                                                 0000127P0000077
116,0.,0.,4.,0;                                                  0000129P0000078
123,0.,0.,1.;                                                    0000131P0000079
123,1.,0.,-0.;                                                   0000133P0000080
508,4,0,17,10,0,0,0,17,4,0,0,0,17,7,1,0,0,17,11,1,0;             0000135P0000081
510,139,1,1,147;                                                 0000137P0000082
190,141,143,145;                                                 0000139P0000083
116,0.,35.,0.,0;                                                 0000141P0000084
123,-0.,1.,0.;                                                   0000143P0000085
123,0.,0.,1.;                                                    0000145P0000086
508,6,0,17,12,0,0,0,17,13,0,0,0,17,3,1,0,0,17,10,1,0,0,17,14,0,  0000147P0000087
0,0,17,15,1,0;                                                   0000147P0000088
510,151,3,1,159,161,163;                                         0000149P0000089
190,153,155,157;                                                 0000151P0000090
116,0.,0.,0.,0;                                                  0000153P0000091
123,0.,0.,1.;                                                    0000155P0000092
123,1.,0.,-0.;                                                   0000157P0000093
508,4,0,17,2,0,0,0,17,6,1,0,0,17,16,1,0,0,17,13,0,0;             0000159P0000094
508,1,0,17,17,0,0;                                               0000161P0000095
508,1,0,17,18,0,0;                                               0000163P0000096
510,167,1,1,175;                                                 0000165P0000097
190,169,171,173;                                                 0000167P0000098
116,50.,0.,0.,0;                                                 0000169P0000099
123,1.,0.,-0.;                                                   0000171P0000100
123,0.,0.,1.;                                                    0000173P0000101
508,4,0,17,5,0,0,0,17,16,1,0,0,17,12,1,0,0,17,19,0,0;            0000175P0000102
510,179,3,1,187,189,191;                                         0000177P0000103
190,181,183,185;                                                 0000179P0000104
116,0.,0.,4.,0;                                                  0000181P0000105
123,0.,0.,1.;                                                    0000183P0000106
123,1.,0.,-0.;                                                   0000185P0000107
508,4,0,17,15,0,0,0,17,20,0,0,0,17,9,1,0,0,17,19,1,0;            0000187P0000108
508,1,0,17,21,0,0;                                               0000189P0000109
508,1,0,17,22,0,0;                                               0000191P0000110
510,195,1,1,203;                                                 0000193P0000111
190,197,199,201;                                                 0000195P0000112
116,0.,0.,0.,0;                                                  0000197P0000113
123,-0.,1.,0.;                                                   0000199P0000114
123,0.,0.,1.;                                                    0000201P0000115
508,2,0,17,23,1,0,0,17,8,1,0;                                    0000203P0000116
510,207,1,1,215;                                                 0000205P0000117
192,209,211,7.,213;                                              0000207P0000118
116,8.,0.,8.,0;                                                  0000209P0000119
123,0.,1.,0.;                                                    0000211P0000120
123,0.,-0.,1.;                                                   0000213P0000121
508,4,0,17,24,1,1,0,217,0,17,25,0,1,0,219,0,17,11,0,1,0,221,0,   0000215P0000122
17,26,1,1,0,223;                                                 0000215P0000123
110,360.,0.,0.,360.,35.,0.;                                      0000217P0000124
110,360.,35.,0.,235.150095421,35.,0.;                            0000219P0000125
126,1,1,1,0,1,0,0.,0.,35.,35.,1.,1.,235.150095421,35.,0.,        0000221P0000126
235.150095421,-9.376886998E-17,0.,0.,35.,0.,0.,1.;               0000221P0000127
110,235.150095421,0.,0.,360.,0.,0.;                              0000223P0000128
510,227,1,1,235;                                                 0000225P0000129
190,229,231,233;                                                 0000227P0000130
116,0.,35.,0.,0;                                                 0000229P0000131
123,-0.,1.,0.;                                                   0000231P0000132
123,0.,0.,1.;                                                    0000233P0000133
508,2,0,17,27,1,0,0,17,14,1,0;                                   0000235P0000134
510,239,1,1,247;                                                 0000237P0000135
192,241,243,2.5,245;                                             0000239P0000136
116,38.,8.,-1.,0;                                                0000241P0000137
123,0.,0.,1.;                                                    0000243P0000138
123,1.,0.,-0.;                                                   0000245P0000139
508,4,0,17,21,0,1,0,249,0,17,28,0,1,0,251,0,17,17,1,1,0,253,0,   0000247P0000140
17,28,1,1,0,255;                                                 0000247P0000141
110,360.,5.,0.,0.,5.,0.;                                         0000249P0000142
110,0.,5.,0.,0.,1.,0.;                                           0000251P0000143
110,0.,1.,0.,360.,1.,0.;                                         0000253P0000144
110,360.,1.,0.,360.,5.,0.;                                       0000255P0000145
510,259,1,1,267;                                                 0000257P0000146
192,261,263,2.5,265;                                             0000259P0000147
116,38.,27.,-1.,0;                                               0000261P0000148
123,0.,0.,1.;                                                    0000263P0000149
123,1.,0.,-0.;                                                   0000265P0000150
508,4,0,17,22,0,1,0,269,0,17,29,0,1,0,271,0,17,18,1,1,0,273,0,   0000267P0000151
17,29,1,1,0,275;                                                 0000267P0000152
110,360.,5.,0.,0.,5.,0.;                                         0000269P0000153
110,0.,5.,0.,0.,1.,0.;                                           0000271P0000154
110,0.,1.,0.,360.,1.,0.;                                         0000273P0000155
110,360.,1.,0.,360.,5.,0.;                                       0000275P0000156
510,279,1,1,287;                                                 0000277P0000157
192,281,283,7.,285;                                              0000279P0000158
116,8.,0.,8.,0;                                                  0000281P0000159
123,0.,1.,0.;                                                    0000283P0000160
123,0.,-0.,1.;                                                   0000285P0000161
508,4,0,17,30,0,1,0,289,0,17,24,0,1,0,291,0,17,31,1,1,0,293,0,   0000287P0000162
17,20,1,1,0,295;                                                 0000287P0000163
110,124.849904579,35.,0.,0.,35.,0.;                              0000289P0000164
110,0.,35.,0.,0.,0.,0.;                                          0000291P0000165
110,0.,0.,0.,124.849904579,0.,0.;                                0000293P0000166
126,1,1,1,0,1,0,0.,0.,35.,35.,1.,1.,124.849904579,               0000295P0000167
8.26711525E-16,0.,124.849904579,35.,0.,0.,35.,0.,0.,1.;          0000295P0000168
510,299,2,1,307,309;                                             0000297P0000169
190,301,303,305;                                                 0000299P0000170
116,8.,0.,8.,0;                                                  0000301P0000171
123,0.,1.,0.;                                                    0000303P0000172
123,0.,-0.,1.;                                                   0000305P0000173
508,3,0,17,26,1,0,0,17,31,1,0,0,17,23,0,0;                       0000307P0000174
508,1,0,17,32,0,0;                                               0000309P0000175
510,313,2,1,321,323;                                             0000311P0000176
190,315,317,319;                                                 0000313P0000177
116,8.,35.,8.,0;                                                 0000315P0000178
123,0.,1.,0.;                                                    0000317P0000179
123,0.,-0.,1.;                                                   0000319P0000180
508,3,0,17,25,1,0,0,17,30,1,0,0,17,27,0,0;                       0000321P0000181
508,1,0,17,33,0,0;                                               0000323P0000182
510,327,1,1,335;                                                 0000325P0000183
192,329,331,3.5,333;                                             0000327P0000184
116,8.,-1.,8.,0;                                                 0000329P0000185
123,0.,1.,0.;                                                    0000331P0000186
123,0.,-0.,1.;                                                   0000333P0000187
508,4,0,17,33,0,1,0,337,0,17,34,0,1,0,339,0,17,32,1,1,0,341,0,   0000335P0000188
17,34,1,1,0,343;                                                 0000335P0000189
110,360.,36.,0.,0.,36.,0.;                                       0000337P0000190
110,0.,36.,0.,0.,1.,0.;                                          0000339P0000191
110,0.,1.,0.,360.,1.,0.;                                         0000341P0000192
110,360.,1.,0.,360.,36.,0.;                                      0000343P0000193
S      1G      4D    344P    193                                        T0000001
