                                                                        S0000001
,,31HOpen CASCADE IGES processor 7.9,13HFilename.iges,                  G0000001
16HOpen CASCADE 7.9,31HOpen CASCADE IGES processor 7.9,32,308,15,308,15,G0000002
,1.,2,2HMM,1,0.01,15H20261004.214557,1E-07,7.505245,7Hjiayuxu,,11,0,    G0000003
15H20261004.214557,;                                                    G0000004
     186       1       0       0       0       0       0       000000000D0000001
     186       0       0       1       0                               0D0000002
     514       2       0       0       0       0       0       000010000D0000003
     514       0       0       1       1                               0D0000004
     510       3       0       0       0       0       0       000010000D0000005
     510       0       0       1       1                               0D0000006
     192       4       0       0       0       0       0       000010000D0000007
     192       0       0       1       1                               0D0000008
     116       5       0       0       0       0       0       000010400D0000009
     116       0       0       1       0                               0D0000010
     123       6       0       0       0       0       0       000010200D0000011
     123       0       0       1       0                               0D0000012
     123       7       0       0       0       0       0       000010200D0000013
     123       0       0       1       0                               0D0000014
     508       8       0       0       0       0       0       000010000D0000015
     508       0       0       2       1                               0D0000016
     504      10       0       0       0       0       0       000010001D0000017
     504       0       0       2       1                               0D0000018
     100      12       0       0       0       0       0       000010000D0000019
     100       0       0       1       0                               0D0000020
     502      13       0       0       0       0       0       000010000D0000021
     502       0       0       1       1                               0D0000022
     110      14       0       0       0       0       0       000010000D0000023
     110       0       0       1       0                               0D0000024
     100      15       0       0       0       0      27       000010000D0000025
     100       0       0       1       0                               0D0000026
     124      16       0       0       0       0       0       000000000D0000027
     124       0       0       1       0                               0D0000028
     100      17       0       0       0       0       0       000010000D0000029
     100       0       0       1       0                               0D0000030
     110      18       0       0       0       0       0       000010000D0000031
     110       0       0       1       0                               0D0000032
     100      19       0       0       0       0      35       000010000D0000033
     100       0       0       1       0                               0D0000034
     124      20       0       0       0       0       0       000000000D0000035
     124       0       0       1       0                               0D0000036
     110      21       0       0       0       0       0       000010000D0000037
     110       0       0       1       0                               0D0000038
     110      22       0       0       0       0       0       000010000D0000039
     110       0       0       1       0                               0D0000040
     110      23       0       0       0       0       0       000010000D0000041
     110       0       0       1       0                               0D0000042
     110      24       0       0       0       0       0       000010000D0000043
     110       0       0       1       0                               0D0000044
     510      25       0       0       0       0       0       000010000D0000045
     510       0       0       1       1                               0D0000046
     192      26       0       0       0       0       0       000010000D0000047
     192       0       0       1       1                               0D0000048
     116      27       0       0       0       0       0       000010400D0000049
     116       0       0       1       0                               0D0000050
     123      28       0       0       0       0       0       000010200D0000051
     123       0       0       1       0                               0D0000052
     123      29       0       0       0       0       0       000010200D0000053
     123       0       0       1       0                               0D0000054
     508      30       0       0       0       0       0       000010000D0000055
     508       0       0       2       1                               0D0000056
     110      32       0       0       0       0       0       000010000D0000057
     110       0       0       1       0                               0D0000058
     110      33       0       0       0       0       0       000010000D0000059
     110       0       0       1       0                               0D0000060
     110      34       0       0       0       0       0       000010000D0000061
     110       0       0       1       0                               0D0000062
     110      35       0       0       0       0       0       000010000D0000063
     110       0       0       1       0                               0D0000064
     510      36       0       0       0       0       0       000010000D0000065
     510       0       0       1       1                               0D0000066
     190      37       0       0       0       0       0       000010000D0000067
     190       0       0       1       1                               0D0000068
     116      38       0       0       0       0       0       000010400D0000069
     116       0       0       1       0                               0D0000070
     123      39       0       0       0       0       0       000010200D0000071
     123       0       0       1       0                               0D0000072
     123      40       0       0       0       0       0       000010200D0000073
     123       0       0       1       0                               0D0000074
     508      41       0       0       0       0       0       000010000D0000075
     508       0       0       1       1                               0D0000076
     508      42       0       0       0       0       0       000010000D0000077
     508       0       0       1       1                               0D0000078
     510      43       0       0       0       0       0       000010000D0000079
     510       0       0       1       1                               0D0000080
     190      44       0       0       0       0       0       000010000D0000081
     190       0       0       1       1                               0D0000082
     116      45       0       0       0       0       0       000010400D0000083
     116       0       0       1       0                               0D0000084
     123      46       0       0       0       0       0       000010200D0000085
     123       0       0       1       0                               0D0000086
     123      47       0       0       0       0       0       000010200D0000087
     123       0       0       1       0                               0D0000088
     508      48       0       0       0       0       0       000010000D0000089
     508       0       0       1       1                               0D0000090
     508      49       0       0       0       0       0       000010000D0000091
     508       0       0       1       1                               0D0000092
186,3,1,0;                                                       0000001P0000001
514,4,5,1,45,0,65,1,79,0;                                        0000003P0000002
510,7,1,1,15;                                                    0000005P0000003
192,9,11,7.5,13;                                                 0000007P0000004
116,0.,0.,0.,0;                                                  0000009P0000005
123,-0.,-0.,-1.;                                                 0000011P0000006
123,1.,0.,0.;                                                    0000013P0000007
508,4,0,17,1,1,1,0,37,0,17,2,1,1,0,39,0,17,3,0,1,0,41,0,17,2,0,  0000015P0000008
1,0,43;                                                          0000015P0000009
504,6,19,21,1,21,1,23,21,1,21,2,25,21,2,21,2,29,21,3,21,3,31,21, 0000017P0000010
3,21,4,33,21,4,21,4;                                             0000017P0000011
100,0.,0.,0.,7.5,0.,7.5,0.;                                      0000019P0000012
502,4,7.5,0.,0.,7.5,0.,1.2,2.65,0.,0.,2.65,0.,1.2;               0000021P0000013
110,7.5,0.,0.,7.5,0.,1.2;                                        0000023P0000014
100,0.,0.,0.,7.5,0.,7.5,0.;                                      0000025P0000015
124,1.,0.,0.,0.,0.,1.,0.,0.,0.,0.,1.,1.2;                        0000027P0000016
100,0.,0.,0.,2.65,0.,2.65,0.;                                    0000029P0000017
110,2.65,0.,0.,2.65,0.,1.2;                                      0000031P0000018
100,0.,0.,0.,2.65,0.,2.65,0.;                                    0000033P0000019
124,1.,0.,0.,0.,0.,1.,0.,0.,0.,0.,1.,1.2;                        0000035P0000020
110,360.,0.,0.,0.,0.,0.;                                         0000037P0000021
110,-2.37142157E-11,0.,0.,-2.37142157E-11,-1.2,0.;               0000039P0000022
110,0.,-1.2,0.,360.,-1.2,0.;                                     0000041P0000023
110,360.,-1.2,0.,360.,0.,0.;                                     0000043P0000024
510,47,1,1,55;                                                   0000045P0000025
192,49,51,2.65,53;                                               0000047P0000026
116,0.,0.,0.,0;                                                  0000049P0000027
123,-0.,-0.,-1.;                                                 0000051P0000028
123,1.,0.,0.;                                                    0000053P0000029
508,4,0,17,4,1,1,0,57,0,17,5,1,1,0,59,0,17,6,0,1,0,61,0,17,5,0,  0000055P0000030
1,0,63;                                                          0000055P0000031
110,360.,0.,0.,0.,0.,0.;                                         0000057P0000032
110,-2.37142157E-11,0.,0.,-2.37142157E-11,-1.2,0.;               0000059P0000033
110,0.,-1.2,0.,360.,-1.2,0.;                                     0000061P0000034
110,360.,-1.2,0.,360.,0.,0.;                                     0000063P0000035
510,67,2,1,75,77;                                                0000065P0000036
190,69,71,73;                                                    0000067P0000037
116,7.5,0.,0.,0;                                                 0000069P0000038
123,0.,0.,-1.;                                                   0000071P0000039
123,-1.,0.,0.;                                                   0000073P0000040
508,1,0,17,1,0,0;                                                0000075P0000041
508,1,0,17,4,1,0;                                                0000077P0000042
510,81,2,1,89,91;                                                0000079P0000043
190,83,85,87;                                                    0000081P0000044
116,7.5,0.,1.2,0;                                                0000083P0000045
123,0.,0.,-1.;                                                   0000085P0000046
123,-1.,0.,0.;                                                   0000087P0000047
508,1,0,17,3,0,0;                                                0000089P0000048
508,1,0,17,6,1,0;                                                0000091P0000049
S      1G      4D     92P     49                                        T0000001
