                                                                        S0000001
,,31HOpen CASCADE IGES processor 7.9,13HFilename.iges,                  G0000001
16HOpen CASCADE 7.9,31HOpen CASCADE IGES processor 7.9,32,308,15,308,15,G0000002
,1.,2,2HMM,1,0.01,15H20261004.214557,1E-07,42.015418,7Hjiayuxu,,11,0,   G0000003
15H20261004.214557,;                                                    G0000004
     186       1       0       0       0       0       0       000000000D0000001
     186       0       0       1       0                               0D0000002
     514       2       0       0       0       0       0       000010000D0000003
     514       0       0       3       1                               0D0000004
     510       5       0       0       0       0       0       000010000D0000005
     510       0       0       1       1                               0D0000006
     190       6       0       0       0       0       0       000010000D0000007
     190       0       0       1       1                               0D0000008
     116       7       0       0       0       0       0       000010400D0000009
     116       0       0       1       0                               0D0000010
     123       8       0       0       0       0       0       000010200D0000011
     123       0       0       1       0                               0D0000012
     123       9       0       0       0       0       0       000010200D0000013
     123       0       0       1       0                               0D0000014
     508      10       0       0       0       0       0       000010000D0000015
     508       0       0       1       1                               0D0000016
     504      11       0       0       0       0       0       000010001D0000017
     504       0       0      15       1                               0D0000018
     110      26       0       0       0       0       0       000010000D0000019
     110       0       0       1       0                               0D0000020
     502      27       0       0       0       0       0       000010000D0000021
     502       0       0      10       1                               0D0000022
     110      37       0       0       0       0       0       000010000D0000023
     110       0       0       1       0                               0D0000024
     110      38       0       0       0       0       0       000010000D0000025
     110       0       0       1       0                               0D0000026
     110      39       0       0       0       0       0       000010000D0000027
     110       0       0       1       0                               0D0000028
     100      40       0       0       0       0      31       000010000D0000029
     100       0       0       1       0                               0D0000030
     124      41       0       0       0       0       0       000000000D0000031
     124       0       0       1       0                               0D0000032
     100      42       0       0       0       0      35       000010000D0000033
     100       0       0       1       0                               0D0000034
     124      43       0       0       0       0       0       000000000D0000035
     124       0       0       1       0                               0D0000036
     110      44       0       0       0       0       0       000010000D0000037
     110       0       0       1       0                               0D0000038
     110      45       0       0       0       0       0       000010000D0000039
     110       0       0       1       0                               0D0000040
     110      46       0       0       0       0       0       000010000D0000041
     110       0       0       1       0                               0D0000042
     110      47       0       0       0       0       0       000010000D0000043
     110       0       0       1       0                               0D0000044
     110      48       0       0       0       0       0       000010000D0000045
     110       0       0       1       0                               0D0000046
     110      49       0       0       0       0       0       000010000D0000047
     110       0       0       1       0                               0D0000048
     110      50       0       0       0       0       0       000010000D0000049
     110       0       0       1       0                               0D0000050
     110      51       0       0       0       0       0       000010000D0000051
     110       0       0       1       0                               0D0000052
     100      52       0       0       0       0      55       000010000D0000053
     100       0       0       1       0                               0D0000054
     124      53       0       0       0       0       0       000000000D0000055
     124       0       0       1       0                               0D0000056
     100      54       0       0       0       0      59       000010000D0000057
     100       0       0       1       0                               0D0000058
     124      55       0       0       0       0       0       000000000D0000059
     124       0       0       1       0                               0D0000060
     110      56       0       0       0       0       0       000010000D0000061
     110       0       0       1       0                               0D0000062
     110      57       0       0       0       0       0       000010000D0000063
     110       0       0       1       0                               0D0000064
     110      58       0       0       0       0       0       000010000D0000065
     110       0       0       1       0                               0D0000066
     110      59       0       0       0       0       0       000010000D0000067
     110       0       0       1       0                               0D0000068
     110      60       0       0       0       0       0       000010000D0000069
     110       0       0       1       0                               0D0000070
     110      61       0       0       0       0       0       000010000D0000071
     110       0       0       1       0                               0D0000072
     110      62       0       0       0       0       0       000010000D0000073
     110       0       0       1       0                               0D0000074
     110      63       0       0       0       0       0       000010000D0000075
     110       0       0       1       0                               0D0000076
     110      64       0       0       0       0       0       000010000D0000077
     110       0       0       1       0                               0D0000078
     100      65       0       0       0       0      81       000010000D0000079
     100       0       0       1       0                               0D0000080
     124      66       0       0       0       0       0       000000000D0000081
     124       0       0       1       0                               0D0000082
     100      67       0       0       0       0      85       000010000D0000083
     100       0       0       1       0                               0D0000084
     124      68       0       0       0       0       0       000000000D0000085
     124       0       0       1       0                               0D0000086
     110      69       0       0       0       0       0       000010000D0000087
     110       0       0       1       0                               0D0000088
     110      70       0       0       0       0       0       000010000D0000089
     110       0       0       1       0                               0D0000090
     110      71       0       0       0       0       0       000010000D0000091
     110       0       0       1       0                               0D0000092
     110      72       0       0       0       0       0       000010000D0000093
     110       0       0       1       0                               0D0000094
     110      73       0       0       0       0       0       000010000D0000095
     110       0       0       1       0                               0D0000096
     110      74       0       0       0       0       0       000010000D0000097
     110       0       0       1       0                               0D0000098
     100      75       0       0       0       0     101       000010000D0000099
     100       0       0       1       0                               0D0000100
     124      76       0       0       0       0       0       000000000D0000101
     124       0       0       1       0                               0D0000102
     110      77       0       0       0       0       0       000010000D0000103
     110       0       0       1       0                               0D0000104
     100      78       0       0       0       0     107       000010000D0000105
     100       0       0       1       0                               0D0000106
     124      79       0       0       0       0       0       000000000D0000107
     124       0       0       2       0                               0D0000108
     110      81       0       0       0       0       0       000010000D0000109
     110       0       0       1       0                               0D0000110
     110      82       0       0       0       0       0       000010000D0000111
     110       0       0       1       0                               0D0000112
     110      83       0       0       0       0       0       000010000D0000113
     110       0       0       1       0                               0D0000114
     100      84       0       0       0       0     117       000010000D0000115
     100       0       0       1       0                               0D0000116
     124      85       0       0       0       0       0       000000000D0000117
     124       0       0       1       0                               0D0000118
     100      86       0       0       0       0     121       000010000D0000119
     100       0       0       1       0                               0D0000120
     124      87       0       0       0       0       0       000000000D0000121
     124       0       0       1       0                               0D0000122
     110      88       0       0       0       0       0       000010000D0000123
     110       0       0       1       0                               0D0000124
     110      89       0       0       0       0       0       000010000D0000125
     110       0       0       1       0                               0D0000126
     100      90       0       0       0       0     129       000010000D0000127
     100       0       0       1       0                               0D0000128
     124      91       0       0       0       0       0       000000000D0000129
     124       0       0       1       0                               0D0000130
     110      92       0       0       0       0       0       000010000D0000131
     110       0       0       1       0                               0D0000132
     100      93       0       0       0       0     135       000010000D0000133
     100       0       0       1       0                               0D0000134
     124      94       0       0       0       0       0       000000000D0000135
     124       0       0       1       0                               0D0000136
     110      95       0       0       0       0       0       000010000D0000137
     110       0       0       1       0                               0D0000138
     110      96       0       0       0       0       0       000010000D0000139
     110       0       0       1       0                               0D0000140
     100      97       0       0       0       0     143       000010000D0000141
     100       0       0       1       0                               0D0000142
     124      98       0       0       0       0       0       000000000D0000143
     124       0       0       2       0                               0D0000144
     110     100       0       0       0       0       0       000010000D0000145
     110       0       0       1       0                               0D0000146
     110     101       0       0       0       0       0       000010000D0000147
     110       0       0       1       0                               0D0000148
     100     102       0       0       0       0     151       000010000D0000149
     100       0       0       1       0                               0D0000150
     124     103       0       0       0       0       0       000000000D0000151
     124       0       0       1       0                               0D0000152
     110     104       0       0       0       0       0       000010000D0000153
     110       0       0       1       0                               0D0000154
     110     105       0       0       0       0       0       000010000D0000155
     110       0       0       1       0                               0D0000156
     100     106       0       0       0       0     159       000010000D0000157
     100       0       0       1       0                               0D0000158
     124     107       0       0       0       0       0       000000000D0000159
     124       0       0       1       0                               0D0000160
     110     108       0       0       0       0       0       000010000D0000161
     110       0       0       1       0                               0D0000162
     110     109       0       0       0       0       0       000010000D0000163
     110       0       0       1       0                               0D0000164
     100     110       0       0       0       0     167       000010000D0000165
     100       0       0       1       0                               0D0000166
     124     111       0       0       0       0       0       000000000D0000167
     124       0       0       1       0                               0D0000168
     110     112       0       0       0       0       0       000010000D0000169
     110       0       0       1       0                               0D0000170
     508     113       0       0       0       0       0       000010000D0000171
     508       0       0       1       1                               0D0000172
     510     114       0       0       0       0       0       000010000D0000173
     510       0       0       1       1                               0D0000174
     194     115       0       0       0       0       0       000010000D0000175
     194       0       0       1       1                               0D0000176
     116     116       0       0       0       0       0       000010400D0000177
     116       0       0       1       0                               0D0000178
     123     117       0       0       0       0       0       000010200D0000179
     123       0       0       1       0                               0D0000180
     123     118       0       0       0       0       0       000010200D0000181
     123       0       0       1       0                               0D0000182
     508     119       0       0       0       0       0       000010000D0000183
     508       0       0       2       1                               0D0000184
     126     121       0       0       0       0       0       000010000D0000185
     126       0       0       2       0                               0D0000186
     126     123       0       0       0       0       0       000010000D0000187
     126       0       0       2       0                               0D0000188
     126     125       0       0       0       0       0       000010000D0000189
     126       0       0       2       0                               0D0000190
     126     127       0       0       0       0       0       000010000D0000191
     126       0       0       3       0                               0D0000192
     510     130       0       0       0       0       0       000010000D0000193
     510       0       0       1       1                               0D0000194
     190     131       0       0       0       0       0       000010000D0000195
     190       0       0       1       1                               0D0000196
     116     132       0       0       0       0       0       000010400D0000197
     116       0       0       1       0                               0D0000198
     123     133       0       0       0       0       0       000010200D0000199
     123       0       0       1       0                               0D0000200
     123     134       0       0       0       0       0       000010200D0000201
     123       0       0       1       0                               0D0000202
     508     135       0       0       0       0       0       000010000D0000203
     508       0       0       1       1                               0D0000204
     510     136       0       0       0       0       0       000010000D0000205
     510       0       0       1       1                               0D0000206
     190     137       0       0       0       0       0       000010000D0000207
     190       0       0       1       1                               0D0000208
     116     138       0       0       0       0       0       000010400D0000209
     116       0       0       1       0                               0D0000210
     123     139       0       0       0       0       0       000010200D0000211
     123       0       0       1       0                               0D0000212
     123     140       0       0       0       0       0       000010200D0000213
     123       0       0       1       0                               0D0000214
     508     141       0       0       0       0       0       000010000D0000215
     508       0       0       3       1                               0D0000216
     510     144       0       0       0       0       0       000010000D0000217
     510       0       0       1       1                               0D0000218
     190     145       0       0       0       0       0       000010000D0000219
     190       0       0       1       1                               0D0000220
     116     146       0       0       0       0       0       000010400D0000221
     116       0       0       1       0                               0D0000222
     123     147       0       0       0       0       0       000010200D0000223
     123       0       0       1       0                               0D0000224
     123     148       0       0       0       0       0       000010200D0000225
     123       0       0       1       0                               0D0000226
     508     149       0       0       0       0       0       000010000D0000227
     508       0       0       3       1                               0D0000228
     510     152       0       0       0       0       0       000010000D0000229
     510       0       0       1       1                               0D0000230
     190     153       0       0       0       0       0       000010000D0000231
     190       0       0       1       1                               0D0000232
     116     154       0       0       0       0       0       000010400D0000233
     116       0       0       1       0                               0D0000234
     123     155       0       0       0       0       0       000010200D0000235
     123       0       0       1       0                               0D0000236
     123     156       0       0       0       0       0       000010200D0000237
     123       0       0       1       0                               0D0000238
     508     157       0       0       0       0       0       000010000D0000239
     508       0       0       1       1                               0D0000240
     508     158       0       0       0       0       0       000010000D0000241
     508       0       0       1       1                               0D0000242
     510     159       0       0       0       0       0       000010000D0000243
     510       0       0       1       1                               0D0000244
     192     160       0       0       0       0       0       000010000D0000245
     192       0       0       1       1                               0D0000246
     116     161       0       0       0       0       0       000010400D0000247
     116       0       0       1       0                               0D0000248
     123     162       0       0       0       0       0       000010200D0000249
     123       0       0       1       0                               0D0000250
     123     163       0       0       0       0       0       000010200D0000251
     123       0       0       1       0                               0D0000252
     508     164       0       0       0       0       0       000010000D0000253
     508       0       0       2       1                               0D0000254
     126     166       0       0       0       0       0       000010000D0000255
     126       0       0       2       0                               0D0000256
     126     168       0       0       0       0       0       000010000D0000257
     126       0       0       2       0                               0D0000258
     126     170       0       0       0       0       0       000010000D0000259
     126       0       0       2       0                               0D0000260
     126     172       0       0       0       0       0       000010000D0000261
     126       0       0       2       0                               0D0000262
     510     174       0       0       0       0       0       000010000D0000263
     510       0       0       1       1                               0D0000264
     190     175       0       0       0       0       0       000010000D0000265
     190       0       0       1       1                               0D0000266
     116     176       0       0       0       0       0       000010400D0000267
     116       0       0       1       0                               0D0000268
     123     177       0       0       0       0       0       000010200D0000269
     123       0       0       1       0                               0D0000270
     123     178       0       0       0       0       0       000010200D0000271
     123       0       0       1       0                               0D0000272
     508     179       0       0       0       0       0       000010000D0000273
     508       0       0       1       1                               0D0000274
     508     180       0       0       0       0       0       000010000D0000275
     508       0       0       1       1                               0D0000276
     510     181       0       0       0       0       0       000010000D0000277
     510       0       0       1       1                               0D0000278
     190     182       0       0       0       0       0       000010000D0000279
     190       0       0       1       1                               0D0000280
     116     183       0       0       0       0       0       000010400D0000281
     116       0       0       1       0                               0D0000282
     123     184       0       0       0       0       0       000010200D0000283
     123       0       0       1       0                               0D0000284
     123     185       0       0       0       0       0       000010200D0000285
     123       0       0       1       0                               0D0000286
     508     186       0       0       0       0       0       000010000D0000287
     508       0       0       1       1                               0D0000288
     508     187       0       0       0       0       0       000010000D0000289
     508       0       0       1       1                               0D0000290
     508     188       0       0       0       0       0       000010000D0000291
     508       0       0       1       1                               0D0000292
     510     189       0       0       0       0       0       000010000D0000293
     510       0       0       1       1                               0D0000294
     190     190       0       0       0       0       0       000010000D0000295
     190       0       0       1       1                               0D0000296
     116     191       0       0       0       0       0       000010400D0000297
     116       0       0       1       0                               0D0000298
     123     192       0       0       0       0       0       000010200D0000299
     123       0       0       1       0                               0D0000300
     123     193       0       0       0       0       0       000010200D0000301
     123       0       0       1       0                               0D0000302
     508     194       0       0       0       0       0       000010000D0000303
     508       0       0       1       1                               0D0000304
     510     195       0       0       0       0       0       000010000D0000305
     510       0       0       1       1                               0D0000306
     190     196       0       0       0       0       0       000010000D0000307
     190       0       0       1       1                               0D0000308
     116     197       0       0       0       0       0       000010400D0000309
     116       0       0       1       0                               0D0000310
     123     198       0       0       0       0       0       000010200D0000311
     123       0       0       1       0                               0D0000312
     123     199       0       0       0       0       0       000010200D0000313
     123       0       0       1       0                               0D0000314
     508     200       0       0       0       0       0       000010000D0000315
     508       0       0       1       1                               0D0000316
     508     201       0       0       0       0       0       000010000D0000317
     508       0       0       1       1                               0D0000318
     510     202       0       0       0       0       0       000010000D0000319
     510       0       0       1       1                               0D0000320
     190     203       0       0       0       0       0       000010000D0000321
     190       0       0       1       1                               0D0000322
     116     204       0       0       0       0       0       000010400D0000323
     116       0       0       1       0                               0D0000324
     123     205       0       0       0       0       0       000010200D0000325
     123       0       0       1       0                               0D0000326
     123     206       0       0       0       0       0       000010200D0000327
     123       0       0       1       0                               0D0000328
     508     207       0       0       0       0       0       000010000D0000329
     508       0       0       1       1                               0D0000330
     508     208       0       0       0       0       0       000010000D0000331
     508       0       0       1       1                               0D0000332
     510     209       0       0       0       0       0       000010000D0000333
     510       0       0       1       1                               0D0000334
     190     210       0       0       0       0       0       000010000D0000335
     190       0       0       1       1                               0D0000336
     116     211       0       0       0       0       0       000010400D0000337
     116       0       0       1       0                               0D0000338
     123     212       0       0       0       0       0       000010200D0000339
     123       0       0       1       0                               0D0000340
     123     213       0       0       0       0       0       000010200D0000341
     123       0       0       1       0                               0D0000342
     508     214       0       0       0       0       0       000010000D0000343
     508       0       0       1       1                               0D0000344
     510     215       0       0       0       0       0       000010000D0000345
     510       0       0       1       1                               0D0000346
     190     216       0       0       0       0       0       000010000D0000347
     190       0       0       1       1                               0D0000348
     116     217       0       0       0       0       0       000010400D0000349
     116       0       0       1       0                               0D0000350
     123     218       0       0       0       0       0       000010200D0000351
     123       0       0       1       0                               0D0000352
     123     219       0       0       0       0       0       000010200D0000353
     123       0       0       1       0                               0D0000354
     508     220       0       0       0       0       0       000010000D0000355
     508       0       0       1       1                               0D0000356
     508     221       0       0       0       0       0       000010000D0000357
     508       0       0       1       1                               0D0000358
     510     222       0       0       0       0       0       000010000D0000359
     510       0       0       1       1                               0D0000360
     192     223       0       0       0       0       0       000010000D0000361
     192       0       0       1       1                               0D0000362
     116     224       0       0       0       0       0       000010400D0000363
     116       0       0       1       0                               0D0000364
     123     225       0       0       0       0       0       000010200D0000365
     123       0       0       1       0                               0D0000366
     123     226       0       0       0       0       0       000010200D0000367
     123       0       0       1       0                               0D0000368
     508     227       0       0       0       0       0       000010000D0000369
     508       0       0       2       1                               0D0000370
     126     229       0       0       0       0       0       000010000D0000371
     126       0       0       2       0                               0D0000372
     126     231       0       0       0       0       0       000010000D0000373
     126       0       0       2       0                               0D0000374
     126     233       0       0       0       0       0       000010000D0000375
     126       0       0       2       0                               0D0000376
     126     235       0       0       0       0       0       000010000D0000377
     126       0       0       2       0                               0D0000378
     510     237       0       0       0       0       0       000010000D0000379
     510       0       0       1       1                               0D0000380
     192     238       0       0       0       0       0       000010000D0000381
     192       0       0       1       1                               0D0000382
     116     239       0       0       0       0       0       000010400D0000383
     116       0       0       1       0                               0D0000384
     123     240       0       0       0       0       0       000010200D0000385
     123       0       0       1       0                               0D0000386
     123     241       0       0       0       0       0       000010200D0000387
     123       0       0       1       0                               0D0000388
     508     242       0       0       0       0       0       000010000D0000389
     508       0       0       2       1                               0D0000390
     126     244       0       0       0       0       0       000010000D0000391
     126       0       0       2       0                               0D0000392
     126     246       0       0       0       0       0       000010000D0000393
     126       0       0       3       0                               0D0000394
     126     249       0       0       0       0       0       000010000D0000395
     126       0       0       2       0                               0D0000396
     126     251       0       0       0       0       0       000010000D0000397
     126       0       0       3       0                               0D0000398
     510     254       0       0       0       0       0       000010000D0000399
     510       0       0       1       1                               0D0000400
     190     255       0       0       0       0       0       000010000D0000401
     190       0       0       1       1                               0D0000402
     116     256       0       0       0       0       0       000010400D0000403
     116       0       0       1       0                               0D0000404
     123     257       0       0       0       0       0       000010200D0000405
     123       0       0       1       0                               0D0000406
     123     258       0       0       0       0       0       000010200D0000407
     123       0       0       1       0                               0D0000408
     508     259       0       0       0       0       0       000010000D0000409
     508       0       0       1       1                               0D0000410
     510     260       0       0       0       0       0       000010000D0000411
     510       0       0       1       1                               0D0000412
     194     261       0       0       0       0       0       000010000D0000413
     194       0       0       1       1                               0D0000414
     116     262       0       0       0       0       0       000010400D0000415
     116       0       0       1       0                               0D0000416
     123     263       0       0       0       0       0       000010200D0000417
     123       0       0       1       0                               0D0000418
     123     264       0       0       0       0       0       000010200D0000419
     123       0       0       1       0                               0D0000420
     508     265       0       0       0       0       0       000010000D0000421
     508       0       0       2       1                               0D0000422
     126     267       0       0       0       0       0       000010000D0000423
     126       0       0       2       0                               0D0000424
     126     269       0       0       0       0       0       000010000D0000425
     126       0       0       2       0                               0D0000426
     126     271       0       0       0       0       0       000010000D0000427
     126       0       0       2       0                               0D0000428
     126     273       0       0       0       0       0       000010000D0000429
     126       0       0       2       0                               0D0000430
     510     275       0       0       0       0       0       000010000D0000431
     510       0       0       1       1                               0D0000432
     192     276       0       0       0       0       0       000010000D0000433
     192       0       0       1       1                               0D0000434
     116     277       0       0       0       0       0       000010400D0000435
     116       0       0       1       0                               0D0000436
     123     278       0       0       0       0       0       000010200D0000437
     123       0       0       1       0                               0D0000438
     123     279       0       0       0       0       0       000010200D0000439
     123       0       0       1       0                               0D0000440
     508     280       0       0       0       0       0       000010000D0000441
     508       0       0       2       1                               0D0000442
     126     282       0       0       0       0       0       000010000D0000443
     126       0       0       2       0                               0D0000444
     126     284       0       0       0       0       0       000010000D0000445
     126       0       0       2       0                               0D0000446
     126     286       0       0       0       0       0       000010000D0000447
     126       0       0       2       0                               0D0000448
     126     288       0       0       0       0       0       000010000D0000449
     126       0       0       2       0                               0D0000450
     510     290       0       0       0       0       0       000010000D0000451
     510       0       0       1       1                               0D0000452
     192     291       0       0       0       0       0       000010000D0000453
     192       0       0       1       1                               0D0000454
     116     292       0       0       0       0       0       000010400D0000455
     116       0       0       1       0                               0D0000456
     123     293       0       0       0       0       0       000010200D0000457
     123       0       0       1       0                               0D0000458
     123     294       0       0       0       0       0       000010200D0000459
     123       0       0       1       0                               0D0000460
     508     295       0       0       0       0       0       000010000D0000461
     508       0       0       2       1                               0D0000462
     126     297       0       0       0       0       0       000010000D0000463
     126       0       0       2       0                               0D0000464
     126     299       0       0       0       0       0       000010000D0000465
     126       0       0       2       0                               0D0000466
     126     301       0       0       0       0       0       000010000D0000467
     126       0       0       2       0                               0D0000468
     126     303       0       0       0       0       0       000010000D0000469
     126       0       0       2       0                               0D0000470
     510     305       0       0       0       0       0       000010000D0000471
     510       0       0       1       1                               0D0000472
     194     306       0       0       0       0       0       000010000D0000473
     194       0       0       1       1                               0D0000474
     116     307       0       0       0       0       0       000010400D0000475
     116       0       0       1       0                               0D0000476
     123     308       0       0       0       0       0       000010200D0000477
     123       0       0       1       0                               0D0000478
     123     309       0       0       0       0       0       000010200D0000479
     123       0       0       1       0                               0D0000480
     508     310       0       0       0       0       0       000010000D0000481
     508       0       0       2       1                               0D0000482
     126     312       0       0       0       0       0       000010000D0000483
     126       0       0       2       0                               0D0000484
     126     314       0       0       0       0       0       000010000D0000485
     126       0       0       2       0                               0D0000486
     126     316       0       0       0       0       0       000010000D0000487
     126       0       0       2       0                               0D0000488
     126     318       0       0       0       0       0       000010000D0000489
     126       0       0       2       0                               0D0000490
     510     320       0       0       0       0       0       000010000D0000491
     510       0       0       1       1                               0D0000492
     194     321       0       0       0       0       0       000010000D0000493
     194       0       0       1       1                               0D0000494
     116     322       0       0       0       0       0       000010400D0000495
     116       0       0       1       0                               0D0000496
     123     323       0       0       0       0       0       000010200D0000497
     123       0       0       1       0                               0D0000498
     123     324       0       0       0       0       0       000010200D0000499
     123       0       0       1       0                               0D0000500
     508     325       0       0       0       0       0       000010000D0000501
     508       0       0       2       1                               0D0000502
     126     327       0       0       0       0       0       000010000D0000503
     126       0       0       2       0                               0D0000504
     126     329       0       0       0       0       0       000010000D0000505
     126       0       0       3       0                               0D0000506
     126     332       0       0       0       0       0       000010000D0000507
     126       0       0       3       0                               0D0000508
     126     335       0       0       0       0       0       000010000D0000509
     126       0       0       2       0                               0D0000510
     510     337       0       0       0       0       0       000010000D0000511
     510       0       0       1       1                               0D0000512
     192     338       0       0       0       0       0       000010000D0000513
     192       0       0       1       1                               0D0000514
     116     339       0       0       0       0       0       000010400D0000515
     116       0       0       1       0                               0D0000516
     123     340       0       0       0       0       0       000010200D0000517
     123       0       0       1       0                               0D0000518
     123     341       0       0       0       0       0       000010200D0000519
     123       0       0       1       0                               0D0000520
     508     342       0       0       0       0       0       000010000D0000521
     508       0       0       2       1                               0D0000522
     126     344       0       0       0       0       0       000010000D0000523
     126       0       0       2       0                               0D0000524
     126     346       0       0       0       0       0       000010000D0000525
     126       0       0       2       0                               0D0000526
     126     348       0       0       0       0       0       000010000D0000527
     126       0       0       2       0                               0D0000528
     126     350       0       0       0       0       0       000010000D0000529
     126       0       0       2       0                               0D0000530
186,3,1,0;                                                       0000001P0000001
514,23,5,0,173,0,193,0,205,1,217,0,229,0,243,0,263,1,277,0,293,  0000003P0000002
0,305,0,319,0,333,0,345,1,359,0,379,0,399,0,411,0,431,0,451,0,   0000003P0000003
471,0,491,0,511,0;                                               0000003P0000004
510,7,2,1,15,171;                                                0000005P0000005
190,9,11,13;                                                     0000007P0000006
116,12.,2.185E-14,32.8,0;                                        0000009P0000007
123,1.,0.,0.;                                                    0000011P0000008
123,0.,-6.7E-16,-1.;                                             0000013P0000009
508,4,0,17,1,1,0,0,17,2,1,0,0,17,3,0,0,0,17,4,0,0;               0000015P0000010
504,59,19,21,1,21,2,23,21,2,21,3,25,21,4,21,3,27,21,1,21,4,29,   0000017P0000011
21,5,21,5,33,21,6,21,6,37,21,5,21,6,39,21,7,21,1,41,21,8,21,7,   0000017P0000012
43,21,8,21,2,45,21,9,21,10,47,21,11,21,9,49,21,4,21,11,51,21,7,  0000017P0000013
21,12,53,21,12,21,13,57,21,13,21,14,61,21,15,21,14,63,21,16,21,  0000017P0000014
15,65,21,17,21,16,67,21,18,21,17,69,21,10,21,18,71,21,19,21,20,  0000017P0000015
73,21,21,21,19,75,21,3,21,21,77,21,8,21,22,79,21,22,21,23,83,21, 0000017P0000016
23,21,24,87,21,25,21,24,89,21,26,21,25,91,21,27,21,26,93,21,28,  0000017P0000017
21,27,95,21,20,21,28,97,21,11,21,21,99,21,29,21,29,103,21,6,21,  0000017P0000018
30,105,21,30,21,30,109,21,12,21,22,111,21,9,21,19,113,21,10,21,  0000017P0000019
20,115,21,31,21,31,119,21,32,21,32,123,21,18,21,28,125,21,17,21, 0000017P0000020
27,127,21,33,21,33,131,21,16,21,26,133,21,34,21,34,137,21,15,21, 0000017P0000021
25,139,21,14,21,24,141,21,35,21,35,145,21,23,21,13,147,21,36,21, 0000017P0000022
29,149,21,36,21,36,153,21,36,21,31,155,21,37,21,32,157,21,37,21, 0000017P0000023
37,161,21,37,21,33,163,21,34,21,38,165,21,38,21,38,169,21,35,21, 0000017P0000024
38;                                                              0000017P0000025
110,12.,8.7E-14,32.8,12.,-14.,32.8;                              0000019P0000026
502,38,12.,8.7E-14,32.8,12.,-14.,32.8,12.,-14.,6.,12.,1.6E-14,   0000021P0000027
6.,12.,-7.,23.8,12.5,-7.,24.3,20.5,8.7E-14,32.8,20.5,-14.,32.8,  0000021P0000028
0.,0.,0.,42.,0.,0.,0.,1.6E-14,6.,20.5,6.4E-14,23.968626967,25.,  0000021P0000029
5.3E-14,20.,21.5,6.4E-14,23.968626967,21.5,8.7E-14,32.8,30.,     0000021P0000030
8.7E-14,32.8,30.,1.6E-14,6.,42.,1.6E-14,6.,0.,-14.,3.7E-14,42.,  0000021P0000031
-14.,3.7E-14,0.,-14.,6.,20.5,-14.,23.968626967,25.,-14.,20.,     0000021P0000032
21.5,-14.,23.968626967,21.5,-14.,32.8,30.,-14.,32.8,30.,-14.,6., 0000021P0000033
42.,-14.,6.,1.25,-7.,6.,20.5,-7.,24.3,2.25,-7.,1.9E-14,34.25,    0000021P0000034
-7.,1.9E-14,33.25,-7.,6.,30.,-7.,23.8,21.5,-7.,24.3,2.25,-7.,5., 0000021P0000035
34.25,-7.,5.,29.5,-7.,24.3;                                      0000021P0000036
110,12.,-14.,32.8,12.,-14.,6.;                                   0000023P0000037
110,12.,1.6E-14,6.,12.,-14.,6.;                                  0000025P0000038
110,12.,7.28E-15,32.8,12.,1.384E-15,6.;                          0000027P0000039
100,0.,0.,0.,4.,8.881784197E-16,4.,8.881784197E-16;              0000029P0000040
124,0.,0.,-1.,12.,-1.74E-15,-1.,0.,-7.,-1.,1.74E-15,0.,27.8;     0000031P0000041
100,0.,0.,0.,3.5,8.881784197E-16,3.5,8.881784197E-16;            0000033P0000042
124,0.,0.,-1.,12.5,-1.74E-15,-1.,0.,-7.,-1.,1.74E-15,0.,27.8;    0000035P0000043
110,12.,-7.,23.8,12.5,-7.,24.3;                                  0000037P0000044
110,20.5,7.28E-15,32.8,12.,7.28E-15,32.8;                        0000039P0000045
110,20.5,-14.,32.8,20.5,8.704148513E-14,32.8;                    0000041P0000046
110,20.5,-14.,32.8,12.,-14.,32.8;                                0000043P0000047
110,0.,0.,0.,42.,0.,0.;                                          0000045P0000048
110,0.,1.33E-15,6.,0.,1.E-17,0.;                                 0000047P0000049
110,12.,1.33E-15,6.,0.,1.33E-15,6.;                              0000049P0000050
110,20.5,8.011E-14,32.8,20.5,5.85614498E-14,23.968626967;        0000051P0000051
100,0.,0.,0.,-0.5,3.968626967,4.,0.;                             0000053P0000052
124,1.,0.,0.,21.,0.,2.22E-15,-1.,3.997E-14,0.,1.,2.22E-15,20.;   0000055P0000053
100,0.,0.,0.,4.,0.,0.5,3.968626967;                              0000057P0000054
124,1.,0.,0.,21.,0.,2.22E-15,-1.,3.997E-14,0.,1.,2.22E-15,20.;   0000059P0000055
110,21.5,8.011E-14,32.8,21.5,5.85614498E-14,23.968626967;        0000061P0000056
110,30.,7.28E-15,32.8,21.5,7.28E-15,32.8;                        0000063P0000057
110,30.,1.33E-15,6.,30.,7.226E-15,32.8;                          0000065P0000058
110,42.,1.33E-15,6.,30.,1.33E-15,6.;                             0000067P0000059
110,42.,0.,0.,42.,1.32E-15,6.;                                   0000069P0000060
110,0.,-14.,1.776356839E-15,42.,-14.,1.776356839E-15;            0000071P0000061
110,0.,-14.,6.,0.,-14.,3.730349363E-14;                          0000073P0000062
110,12.,-14.,6.,0.,-14.,6.;                                      0000075P0000063
110,20.5,-14.,32.8,20.5,-14.,23.968626967;                       0000077P0000064
100,0.,0.,0.,-0.5,3.968626967,4.,0.;                             0000079P0000065
124,1.,0.,0.,21.,0.,2.22E-15,-1.,-14.,0.,1.,2.22E-15,20.;        0000081P0000066
100,0.,0.,0.,4.,0.,0.5,3.968626967;                              0000083P0000067
124,1.,0.,0.,21.,0.,2.22E-15,-1.,-14.,0.,1.,2.22E-15,20.;        0000085P0000068
110,21.5,-14.,32.8,21.5,-14.,23.968626967;                       0000087P0000069
110,30.,-14.,32.8,21.5,-14.,32.8;                                0000089P0000070
110,30.,-14.,6.,30.,-14.,32.8;                                   0000091P0000071
110,42.,-14.,6.,30.,-14.,6.;                                     0000093P0000072
110,42.,-14.,3.7E-14,42.,-14.,6.;                                0000095P0000073
110,0.,1.6E-14,6.,0.,-14.,6.;                                    0000097P0000074
100,0.,0.,0.,3.75,0.,3.75,0.;                                    0000099P0000075
124,-1.,0.,0.,5.,0.,-1.,1.11E-15,-7.,0.,1.11E-15,1.,6.;          0000101P0000076
110,12.5,-7.,24.3,20.5,-7.,24.3;                                 0000103P0000077
100,0.,0.,0.,3.5,-8.881784197E-16,3.5,-8.881784197E-16;          0000105P0000078
124,2.2E-16,-2.926E-31,-1.,20.5,-1.33E-15,-1.,0.,-7.,-1.,        0000107P0000079
1.33E-15,-2.2E-16,27.8;                                          0000107P0000080
110,20.5,6.394884622E-14,23.968626967,20.5,-14.,23.968626967;    0000109P0000081
110,0.,0.,0.,0.,-14.,9.38E-15;                                   0000111P0000082
110,42.,0.,0.,42.,-14.,9.38E-15;                                 0000113P0000083
100,0.,0.,0.,2.75,0.,2.75,0.;                                    0000115P0000084
124,-1.,0.,0.,5.,0.,-1.,1.11E-15,-7.,0.,1.11E-15,1.,7.77E-15;    0000117P0000085
100,0.,0.,0.,2.75,0.,2.75,0.;                                    0000119P0000086
124,-1.,0.,0.,37.,0.,-1.,1.11E-15,-7.,0.,1.11E-15,1.,7.77E-15;   0000121P0000087
110,42.,1.6E-14,6.,42.,-14.,6.;                                  0000123P0000088
110,30.,1.6E-14,6.,30.,-14.,6.;                                  0000125P0000089
100,0.,0.,0.,3.75,0.,3.75,0.;                                    0000127P0000090
124,-1.,0.,0.,37.,0.,-1.,1.11E-15,-7.,0.,1.11E-15,1.,6.;         0000129P0000091
110,30.,8.7E-14,32.8,30.,-14.,32.8;                              0000131P0000092
100,0.,0.,0.,4.,0.,4.,0.;                                        0000133P0000093
124,0.,0.,-1.,30.,-1.49E-15,-1.,0.,-7.,-1.,1.49E-15,0.,27.8;     0000135P0000094
110,21.5,8.7E-14,32.8,21.5,-14.,32.8;                            0000137P0000095
110,21.5,6.394884622E-14,23.968626967,21.5,-14.,23.968626967;    0000139P0000096
100,0.,0.,0.,3.5,-8.881784197E-16,3.5,-8.881784197E-16;          0000141P0000097
124,2.2E-16,-2.926E-31,-1.,21.5,-1.33E-15,-1.,0.,-7.,-1.,        0000143P0000098
1.33E-15,-2.2E-16,27.8;                                          0000143P0000099
110,25.,-14.,20.,25.,5.329070518E-14,20.;                        0000145P0000100
110,2.25,-7.,5.,1.25,-7.,6.;                                     0000147P0000101
100,0.,0.,0.,2.75,0.,2.75,0.;                                    0000149P0000102
124,-1.,0.,0.,5.,0.,-1.,1.11E-15,-7.,0.,1.11E-15,1.,5.;          0000151P0000103
110,2.25,-7.,5.,2.25,-7.,1.865174681E-14;                        0000153P0000104
110,34.25,-7.,5.,34.25,-7.,1.865174681E-14;                      0000155P0000105
100,0.,0.,0.,2.75,0.,2.75,0.;                                    0000157P0000106
124,-1.,0.,0.,37.,0.,-1.,1.11E-15,-7.,0.,1.11E-15,1.,5.;         0000159P0000107
110,34.25,-7.,5.,33.25,-7.,6.;                                   0000161P0000108
110,30.,-7.,23.8,29.5,-7.,24.3;                                  0000163P0000109
100,0.,0.,0.,3.5,0.,3.5,0.;                                      0000165P0000110
124,0.,0.,-1.,29.5,-1.49E-15,-1.,0.,-7.,-1.,1.49E-15,0.,27.8;    0000167P0000111
110,21.5,-7.,24.3,29.5,-7.,24.3;                                 0000169P0000112
508,1,0,17,5,1,0;                                                0000171P0000113
510,175,1,1,183;                                                 0000173P0000114
194,177,179,3.5,45.,181;                                         0000175P0000115
116,12.5,-7.,27.8,0;                                             0000177P0000116
123,-1.,-0.,-0.;                                                 0000179P0000117
123,0.,-1.74E-15,-1.;                                            0000181P0000118
508,4,0,17,6,1,1,0,185,0,17,7,0,1,0,187,0,17,5,0,1,0,189,0,17,7, 0000183P0000119
1,1,0,191;                                                       0000183P0000120
126,1,1,1,0,1,0,0.,0.,6.283185307,6.283185307,1.,1.,0.,0.,0.,    0000185P0000121
360.,0.,0.,0.,6.283185307,0.,0.,1.;                              0000185P0000122
126,1,1,1,0,1,0,-0.707106781,-0.707106781,0.,0.,1.,1.,360.,0.,   0000187P0000123
0.,360.,0.707106781,0.,-0.707106781,0.,0.,0.,1.;                 0000187P0000124
126,1,1,1,0,1,0,0.,0.,6.283185307,6.283185307,1.,1.,360.,        0000189P0000125
0.707106781,0.,0.,0.707106781,0.,0.,6.283185307,0.,0.,1.;        0000189P0000126
126,1,1,1,0,1,0,-0.707106781,-0.707106781,0.,0.,1.,1.,           0000191P0000127
2.37142157E-11,0.707106781,0.,2.37142157E-11,0.,0.,-0.707106781, 0000191P0000128
0.,0.,0.,1.;                                                     0000191P0000129
510,195,1,1,203;                                                 0000193P0000130
190,197,199,201;                                                 0000195P0000131
116,30.,2.185E-14,32.8,0;                                        0000197P0000132
123,0.,-6.7E-16,-1.;                                             0000199P0000133
123,-1.,-0.,0.;                                                  0000201P0000134
508,4,0,17,8,0,0,0,17,9,0,0,0,17,10,1,0,0,17,1,0,0;              0000203P0000135
510,207,1,1,215;                                                 0000205P0000136
190,209,211,213;                                                 0000207P0000137
116,21.,5.37E-15,12.100534759,0;                                 0000209P0000138
123,0.,1.,-4.4E-16;                                              0000211P0000139
123,0.,4.4E-16,1.;                                               0000213P0000140
508,13,0,17,11,0,0,0,17,12,0,0,0,17,13,0,0,0,17,4,0,0,0,17,8,0,  0000215P0000141
0,0,17,14,1,0,0,17,15,1,0,0,17,16,1,0,0,17,17,0,0,0,17,18,0,0,0, 0000215P0000142
17,19,0,0,0,17,20,0,0,0,17,21,0,0;                               0000215P0000143
510,219,1,1,227;                                                 0000217P0000144
190,221,223,225;                                                 0000219P0000145
116,21.,-14.,12.100534759,0;                                     0000221P0000146
123,0.,1.,-4.4E-16;                                              0000223P0000147
123,0.,4.4E-16,1.;                                               0000225P0000148
508,13,0,17,22,0,0,0,17,23,0,0,0,17,24,0,0,0,17,2,0,0,0,17,10,0, 0000227P0000149
0,0,17,25,1,0,0,17,26,1,0,0,17,27,1,0,0,17,28,0,0,0,17,29,0,0,0, 0000227P0000150
17,30,0,0,0,17,31,0,0,0,17,32,0,0;                               0000227P0000151
510,231,2,1,239,241;                                             0000229P0000152
190,233,235,237;                                                 0000231P0000153
116,12.,4.E-15,6.,0;                                             0000233P0000154
123,0.,-6.7E-16,-1.;                                             0000235P0000155
123,-1.,-0.,0.;                                                  0000237P0000156
508,4,0,17,3,1,0,0,17,24,1,0,0,17,33,0,0,0,17,13,0,0;            0000239P0000157
508,1,0,17,34,1,0;                                               0000241P0000158
510,245,1,1,253;                                                 0000243P0000159
192,247,249,3.5,251;                                             0000245P0000160
116,12.,-7.,27.8,0;                                              0000247P0000161
123,-1.,-0.,-2.2E-16;                                            0000249P0000162
123,2.2E-16,-4.4E-16,-1.;                                        0000251P0000163
508,4,0,17,35,0,1,0,255,0,17,6,0,1,0,257,0,17,35,1,1,0,259,0,17, 0000253P0000164
36,1,1,0,261;                                                    0000253P0000165
126,1,1,1,0,1,0,0.5,0.5,8.5,8.5,1.,1.,360.,-8.5,-0.,360.,-0.5,   0000255P0000166
-0.,0.5,8.5,0.,0.,1.;                                            0000255P0000167
126,1,1,1,0,1,0,0.,0.,6.283185307,6.283185307,1.,1.,360.,-0.5,   0000257P0000168
-0.,0.,-0.5,-0.,0.,6.283185307,0.,0.,1.;                         0000257P0000169
126,1,1,1,0,1,0,0.5,0.5,8.5,8.5,1.,1.,0.,-0.5,-0.,0.,-8.5,-0.,   0000259P0000170
0.5,8.5,0.,0.,1.;                                                0000259P0000171
126,1,1,1,0,1,0,0.,0.,6.283185307,6.283185307,1.,1.,0.,-8.5,-0., 0000261P0000172
360.,-8.5,-0.,0.,6.283185307,0.,0.,1.;                           0000261P0000173
510,265,2,1,273,275;                                             0000263P0000174
190,267,269,271;                                                 0000265P0000175
116,20.5,-14.,32.8,0;                                            0000267P0000176
123,1.,0.,0.;                                                    0000269P0000177
123,0.,1.,-2.44E-15;                                             0000271P0000178
508,4,0,17,9,0,0,0,17,25,1,0,0,17,37,0,0,0,17,14,0,0;            0000273P0000179
508,1,0,17,36,1,0;                                               0000275P0000180
510,279,3,1,287,289,291;                                         0000277P0000181
190,281,283,285;                                                 0000279P0000182
116,0.,0.,0.,0;                                                  0000281P0000183
123,0.,6.7E-16,1.;                                               0000283P0000184
123,1.,0.,-0.;                                                   0000285P0000185
508,4,0,17,38,1,0,0,17,22,1,0,0,17,39,0,0,0,17,11,0,0;           0000287P0000186
508,1,0,17,40,0,0;                                               0000289P0000187
508,1,0,17,41,0,0;                                               0000291P0000188
510,295,1,1,303;                                                 0000293P0000189
190,297,299,301;                                                 0000295P0000190
116,42.,0.,0.,0;                                                 0000297P0000191
123,-1.,0.,0.;                                                   0000299P0000192
123,0.,6.7E-16,1.;                                               0000301P0000193
508,4,0,17,39,1,0,0,17,32,1,0,0,17,42,0,0,0,17,21,0,0;           0000303P0000194
510,307,2,1,315,317;                                             0000305P0000195
190,309,311,313;                                                 0000307P0000196
116,42.,4.E-15,6.,0;                                             0000309P0000197
123,0.,-6.7E-16,-1.;                                             0000311P0000198
123,-1.,-0.,0.;                                                  0000313P0000199
508,4,0,17,42,1,0,0,17,31,1,0,0,17,43,0,0,0,17,20,0,0;           0000315P0000200
508,1,0,17,44,1,0;                                               0000317P0000201
510,321,2,1,329,331;                                             0000319P0000202
190,323,325,327;                                                 0000321P0000203
116,30.,4.E-15,6.,0;                                             0000323P0000204
123,-1.,0.,0.;                                                   0000325P0000205
123,0.,6.7E-16,1.;                                               0000327P0000206
508,4,0,17,43,1,0,0,17,30,1,0,0,17,45,0,0,0,17,19,0,0;           0000329P0000207
508,1,0,17,46,0,0;                                               0000331P0000208
510,335,1,1,343;                                                 0000333P0000209
190,337,339,341;                                                 0000335P0000210
116,30.,2.185E-14,32.8,0;                                        0000337P0000211
123,0.,-6.7E-16,-1.;                                             0000339P0000212
123,-1.,-0.,0.;                                                  0000341P0000213
508,4,0,17,18,0,0,0,17,45,1,0,0,17,29,1,0,0,17,47,0,0;           0000343P0000214
510,347,2,1,355,357;                                             0000345P0000215
190,349,351,353;                                                 0000347P0000216
116,21.5,8.011E-14,32.8,0;                                       0000349P0000217
123,-1.,0.,0.;                                                   0000351P0000218
123,0.,-1.,2.44E-15;                                             0000353P0000219
508,4,0,17,47,0,0,0,17,17,1,0,0,17,48,1,0,0,17,28,0,0;           0000355P0000220
508,1,0,17,49,0,0;                                               0000357P0000221
510,361,1,1,369;                                                 0000359P0000222
192,363,365,4.,367;                                              0000361P0000223
116,21.,-14.,20.,0;                                              0000363P0000224
123,0.,-1.,2.22E-15;                                             0000365P0000225
123,1.,0.,0.;                                                    0000367P0000226
508,4,0,17,27,0,1,0,371,0,17,50,1,1,0,373,0,17,16,1,1,0,375,0,   0000369P0000227
17,48,1,1,0,377;                                                 0000369P0000228
126,1,1,1,0,1,0,0.,0.,1.445468496,1.445468496,1.,1.,             0000371P0000229
82.819244219,0.,0.,0.,0.,0.,0.,1.445468496,0.,0.,1.;             0000371P0000230
126,1,1,1,0,1,0,0.,0.,14.,14.,1.,1.,0.,0.,0.,0.,-14.,-0.,0.,14., 0000373P0000231
0.,0.,1.;                                                        0000373P0000232
126,1,1,1,0,1,0,0.,0.,1.445468496,1.445468496,1.,1.,0.,-14.,-0., 0000375P0000233
82.819244219,-14.,-0.,0.,1.445468496,0.,0.,1.;                   0000375P0000234
126,1,1,1,0,1,0,-14.,-14.,3.55E-15,3.55E-15,1.,1.,82.819244219,  0000377P0000235
-14.,-0.,82.819244219,4.36E-15,0.,-14.,3.55E-15,0.,0.,1.;        0000377P0000236
510,381,1,1,389;                                                 0000379P0000237
192,383,385,4.,387;                                              0000381P0000238
116,21.,-14.,20.,0;                                              0000383P0000239
123,0.,-1.,2.22E-15;                                             0000385P0000240
123,1.,0.,0.;                                                    0000387P0000241
508,4,0,17,50,0,1,0,391,0,17,26,0,1,0,393,0,17,37,0,1,0,395,0,   0000389P0000242
17,15,1,1,0,397;                                                 0000389P0000243
126,1,1,1,0,1,0,0.,0.,14.,14.,1.,1.,360.,-14.,-0.,360.,0.,0.,0., 0000391P0000244
14.,0.,0.,1.;                                                    0000391P0000245
126,1,1,1,0,1,0,1.696124158,1.696124158,6.283185307,6.283185307, 0000393P0000246
1.,1.,360.,0.,0.,97.180755781,0.,0.,1.696124158,6.283185307,0.,  0000393P0000247
0.,1.;                                                           0000393P0000248
126,1,1,1,0,1,0,-14.,-14.,3.55E-15,3.55E-15,1.,1.,97.180755781,  0000395P0000249
4.36E-15,0.,97.180755781,-14.,-0.,-14.,3.55E-15,0.,0.,1.;        0000395P0000250
126,1,1,1,0,1,0,1.696124158,1.696124158,6.283185307,6.283185307, 0000397P0000251
1.,1.,97.180755781,-14.,-0.,360.,-14.,-0.,1.696124158,           0000397P0000252
6.283185307,0.,0.,1.;                                            0000397P0000253
510,401,1,1,409;                                                 0000399P0000254
190,403,405,407;                                                 0000401P0000255
116,0.,4.E-15,6.,0;                                              0000403P0000256
123,1.,0.,0.;                                                    0000405P0000257
123,0.,-6.7E-16,-1.;                                             0000407P0000258
508,4,0,17,33,1,0,0,17,23,1,0,0,17,38,0,0,0,17,12,0,0;           0000409P0000259
510,413,1,1,421;                                                 0000411P0000260
194,415,417,2.75,45.,419;                                        0000413P0000261
116,5.,-7.,5.,0;                                                 0000415P0000262
123,0.,1.11E-15,1.;                                              0000417P0000263
123,-1.,0.,0.;                                                   0000419P0000264
508,4,0,17,51,0,1,0,423,0,17,52,1,1,0,425,0,17,51,1,1,0,427,0,   0000421P0000265
17,34,0,1,0,429;                                                 0000421P0000266
126,1,1,1,0,1,0,0.,0.,1.414213562,1.414213562,1.,1.,0.,          0000423P0000267
1.414213562,0.,0.,0.,0.,0.,1.414213562,0.,0.,1.;                 0000423P0000268
126,1,1,1,0,1,0,0.,0.,6.283185307,6.283185307,1.,1.,0.,0.,0.,    0000425P0000269
360.,0.,0.,0.,6.283185307,0.,0.,1.;                              0000425P0000270
126,1,1,1,0,1,0,0.,0.,1.414213562,1.414213562,1.,1.,360.,0.,0.,  0000427P0000271
360.,1.414213562,0.,0.,1.414213562,0.,0.,1.;                     0000427P0000272
126,1,1,1,0,1,0,0.,0.,6.283185307,6.283185307,1.,1.,360.,        0000429P0000273
1.414213562,0.,0.,1.414213562,0.,0.,6.283185307,0.,0.,1.;        0000429P0000274
510,433,1,1,441;                                                 0000431P0000275
192,435,437,2.75,439;                                            0000433P0000276
116,5.,-7.,6.,0;                                                 0000435P0000277
123,0.,1.11E-15,1.;                                              0000437P0000278
123,-1.,0.,0.;                                                   0000439P0000279
508,4,0,17,53,0,1,0,443,0,17,52,0,1,0,445,0,17,53,1,1,0,447,0,   0000441P0000280
17,40,1,1,0,449;                                                 0000441P0000281
126,1,1,1,0,1,0,1.,1.,6.,6.,1.,1.,360.,-6.,-0.,360.,-1.,-0.,1.,  0000443P0000282
6.,0.,0.,1.;                                                     0000443P0000283
126,1,1,1,0,1,0,0.,0.,6.283185307,6.283185307,1.,1.,360.,-1.,    0000445P0000284
-0.,0.,-1.,-0.,0.,6.283185307,0.,0.,1.;                          0000445P0000285
126,1,1,1,0,1,0,1.,1.,6.,6.,1.,1.,0.,-1.,-0.,0.,-6.,-0.,1.,6.,   0000447P0000286
0.,0.,1.;                                                        0000447P0000287
126,1,1,1,0,1,0,0.,0.,6.283185307,6.283185307,1.,1.,0.,-6.,-0.,  0000449P0000288
360.,-6.,-0.,0.,6.283185307,0.,0.,1.;                            0000449P0000289
510,453,1,1,461;                                                 0000451P0000290
192,455,457,2.75,459;                                            0000453P0000291
116,37.,-7.,6.,0;                                                0000455P0000292
123,0.,1.11E-15,1.;                                              0000457P0000293
123,-1.,0.,0.;                                                   0000459P0000294
508,4,0,17,54,0,1,0,463,0,17,55,0,1,0,465,0,17,54,1,1,0,467,0,   0000461P0000295
17,41,1,1,0,469;                                                 0000461P0000296
126,1,1,1,0,1,0,1.,1.,6.,6.,1.,1.,360.,-6.,-0.,360.,-1.,-0.,1.,  0000463P0000297
6.,0.,0.,1.;                                                     0000463P0000298
126,1,1,1,0,1,0,0.,0.,6.283185307,6.283185307,1.,1.,360.,-1.,    0000465P0000299
-0.,0.,-1.,-0.,0.,6.283185307,0.,0.,1.;                          0000465P0000300
126,1,1,1,0,1,0,1.,1.,6.,6.,1.,1.,0.,-1.,-0.,0.,-6.,-0.,1.,6.,   0000467P0000301
0.,0.,1.;                                                        0000467P0000302
126,1,1,1,0,1,0,0.,0.,6.283185307,6.283185307,1.,1.,0.,-6.,-0.,  0000469P0000303
360.,-6.,-0.,0.,6.283185307,0.,0.,1.;                            0000469P0000304
510,473,1,1,481;                                                 0000471P0000305
194,475,477,2.75,45.,479;                                        0000473P0000306
116,37.,-7.,5.,0;                                                0000475P0000307
123,0.,1.11E-15,1.;                                              0000477P0000308
123,-1.,0.,0.;                                                   0000479P0000309
508,4,0,17,56,0,1,0,483,0,17,55,1,1,0,485,0,17,56,1,1,0,487,0,   0000481P0000310
17,44,0,1,0,489;                                                 0000481P0000311
126,1,1,1,0,1,0,0.,0.,1.414213562,1.414213562,1.,1.,0.,          0000483P0000312
1.414213562,0.,0.,0.,0.,0.,1.414213562,0.,0.,1.;                 0000483P0000313
126,1,1,1,0,1,0,0.,0.,6.283185307,6.283185307,1.,1.,0.,0.,0.,    0000485P0000314
360.,0.,0.,0.,6.283185307,0.,0.,1.;                              0000485P0000315
126,1,1,1,0,1,0,0.,0.,1.414213562,1.414213562,1.,1.,360.,0.,0.,  0000487P0000316
360.,1.414213562,0.,0.,1.414213562,0.,0.,1.;                     0000487P0000317
126,1,1,1,0,1,0,0.,0.,6.283185307,6.283185307,1.,1.,360.,        0000489P0000318
1.414213562,0.,0.,1.414213562,0.,0.,6.283185307,0.,0.,1.;        0000489P0000319
510,493,1,1,501;                                                 0000491P0000320
194,495,497,3.5,45.,499;                                         0000493P0000321
116,29.5,-7.,27.8,0;                                             0000495P0000322
123,1.,-0.,-0.;                                                  0000497P0000323
123,-0.,-1.49E-15,-1.;                                           0000499P0000324
508,4,0,17,57,0,1,0,503,0,17,46,1,1,0,505,0,17,57,1,1,0,507,0,   0000501P0000325
17,58,0,1,0,509;                                                 0000501P0000326
126,1,1,1,0,1,0,-0.707106781,-0.707106781,0.,0.,1.,1.,360.,0.,   0000503P0000327
0.,360.,0.707106781,0.,-0.707106781,0.,0.,0.,1.;                 0000503P0000328
126,1,1,1,0,1,0,0.,0.,6.283185307,6.283185307,1.,1.,360.,        0000505P0000329
0.707106781,0.,-2.37142157E-11,0.707106781,0.,0.,6.283185307,0., 0000505P0000330
0.,1.;                                                           0000505P0000331
126,1,1,1,0,1,0,-0.707106781,-0.707106781,0.,0.,1.,1.,           0000507P0000332
-2.37142157E-11,0.707106781,0.,-2.37142157E-11,0.,0.,            0000507P0000333
-0.707106781,0.,0.,0.,1.;                                        0000507P0000334
126,1,1,1,0,1,0,0.,0.,6.283185307,6.283185307,1.,1.,             0000509P0000335
-2.37142157E-11,0.,0.,360.,0.,0.,0.,6.283185307,0.,0.,1.;        0000509P0000336
510,513,1,1,521;                                                 0000511P0000337
192,515,517,3.5,519;                                             0000513P0000338
116,12.,-7.,27.8,0;                                              0000515P0000339
123,-1.,-0.,-2.2E-16;                                            0000517P0000340
123,2.2E-16,-4.4E-16,-1.;                                        0000519P0000341
508,4,0,17,59,0,1,0,523,0,17,49,0,1,0,525,0,17,59,1,1,0,527,0,   0000521P0000342
17,58,1,1,0,529;                                                 0000521P0000343
126,1,1,1,0,1,0,9.5,9.5,17.5,17.5,1.,1.,360.,-17.5,-0.,360.,     0000523P0000344
-9.5,-0.,9.5,17.5,0.,0.,1.;                                      0000523P0000345
126,1,1,1,0,1,0,0.,0.,6.283185307,6.283185307,1.,1.,360.,-9.5,   0000525P0000346
-0.,0.,-9.5,-0.,0.,6.283185307,0.,0.,1.;                         0000525P0000347
126,1,1,1,0,1,0,9.5,9.5,17.5,17.5,1.,1.,0.,-9.5,-0.,0.,-17.5,    0000527P0000348
-0.,9.5,17.5,0.,0.,1.;                                           0000527P0000349
126,1,1,1,0,1,0,0.,0.,6.283185307,6.283185307,1.,1.,0.,-17.5,    0000529P0000350
-0.,360.,-17.5,-0.,0.,6.283185307,0.,0.,1.;                      0000529P0000351
S      1G      4D    530P    351                                        T0000001
