                                                                        S0000001
,,31HOpen CASCADE IGES processor 7.9,13HFilename.iges,                  G0000001
16HOpen CASCADE 7.9,31HOpen CASCADE IGES processor 7.9,32,308,15,308,15,G0000002
,1.,2,2HMM,1,0.01,15H20261004.214557,1E-07,25.012587,7Hjiayuxu,,11,0,   G0000003
15H20261004.214557,;                                                    G0000004
     186       1       0       0       0       0       0       000000000D0000001
     186       0       0       1       0                               0D0000002
     514       2       0       0       0       0       0       000010000D0000003
     514       0       0       1       1                               0D0000004
     510       3       0       0       0       0       0       000010000D0000005
     510       0       0       1       1                               0D0000006
     192       4       0       0       0       0       0       000010000D0000007
     192       0       0       1       1                               0D0000008
     116       5       0       0       0       0       0       000010400D0000009
     116       0       0       1       0                               0D0000010
     123       6       0       0       0       0       0       000010200D0000011
     123       0       0       1       0                               0D0000012
     123       7       0       0       0       0       0       000010200D0000013
     123       0       0       1       0                               0D0000014
     508       8       0       0       0       0       0       000010000D0000015
     508       0       0       2       1                               0D0000016
     504      10       0       0       0       0       0       000010001D0000017
     504       0       0       3       1                               0D0000018
     110      13       0       0       0       0       0       000010000D0000019
     110       0       0       1       0                               0D0000020
     502      14       0       0       0       0       0       000010000D0000021
     502       0       0       4       1                               0D0000022
     100      18       0       0       0       0      25       000010000D0000023
     100       0       0       1       0                               0D0000024
     124      19       0       0       0       0       0       000000000D0000025
     124       0       0       1       0                               0D0000026
     100      20       0       0       0       0      29       000010000D0000027
     100       0       0       1       0                               0D0000028
     124      21       0       0       0       0       0       000000000D0000029
     124       0       0       1       0                               0D0000030
     100      22       0       0       0       0      33       000010000D0000031
     100       0       0       1       0                               0D0000032
     124      23       0       0       0       0       0       000000000D0000033
     124       0       0       1       0                               0D0000034
     100      24       0       0       0       0      37       000010000D0000035
     100       0       0       1       0                               0D0000036
     124      25       0       0       0       0       0       000000000D0000037
     124       0       0       1       0                               0D0000038
     110      26       0       0       0       0       0       000010000D0000039
     110       0       0       1       0                               0D0000040
     100      27       0       0       0       0       0       000010000D0000041
     100       0       0       1       0                               0D0000042
     110      28       0       0       0       0       0       000010000D0000043
     110       0       0       1       0                               0D0000044
     100      29       0       0       0       0       0       000010000D0000045
     100       0       0       1       0                               0D0000046
     100      30       0       0       0       0       0       000010000D0000047
     100       0       0       1       0                               0D0000048
     110      31       0       0       0       0       0       000010000D0000049
     110       0       0       1       0                               0D0000050
     110      32       0       0       0       0       0       000010000D0000051
     110       0       0       1       0                               0D0000052
     110      33       0       0       0       0       0       000010000D0000053
     110       0       0       1       0                               0D0000054
     110      34       0       0       0       0       0       000010000D0000055
     110       0       0       1       0                               0D0000056
     510      35       0       0       0       0       0       000010000D0000057
     510       0       0       1       1                               0D0000058
     190      36       0       0       0       0       0       000010000D0000059
     190       0       0       1       1                               0D0000060
     116      37       0       0       0       0       0       000010400D0000061
     116       0       0       1       0                               0D0000062
     123      38       0       0       0       0       0       000010200D0000063
     123       0       0       1       0                               0D0000064
     123      39       0       0       0       0       0       000010200D0000065
     123       0       0       1       0                               0D0000066
     508      40       0       0       0       0       0       000010000D0000067
     508       0       0       1       1                               0D0000068
     508      41       0       0       0       0       0       000010000D0000069
     508       0       0       1       1                               0D0000070
     510      42       0       0       0       0       0       000010000D0000071
     510       0       0       1       1                               0D0000072
     190      43       0       0       0       0       0       000010000D0000073
     190       0       0       1       1                               0D0000074
     116      44       0       0       0       0       0       000010400D0000075
     116       0       0       1       0                               0D0000076
     123      45       0       0       0       0       0       000010200D0000077
     123       0       0       1       0                               0D0000078
     123      46       0       0       0       0       0       000010200D0000079
     123       0       0       1       0                               0D0000080
     508      47       0       0       0       0       0       000010000D0000081
     508       0       0       1       1                               0D0000082
     508      48       0       0       0       0       0       000010000D0000083
     508       0       0       1       1                               0D0000084
     510      49       0       0       0       0       0       000010000D0000085
     510       0       0       1       1                               0D0000086
     192      50       0       0       0       0       0       000010000D0000087
     192       0       0       1       1                               0D0000088
     116      51       0       0       0       0       0       000010400D0000089
     116       0       0       1       0                               0D0000090
     123      52       0       0       0       0       0       000010200D0000091
     123       0       0       1       0                               0D0000092
     123      53       0       0       0       0       0       000010200D0000093
     123       0       0       1       0                               0D0000094
     508      54       0       0       0       0       0       000010000D0000095
     508       0       0       2       1                               0D0000096
     110      56       0       0       0       0       0       000010000D0000097
     110       0       0       1       0                               0D0000098
     110      57       0       0       0       0       0       000010000D0000099
     110       0       0       1       0                               0D0000100
     110      58       0       0       0       0       0       000010000D0000101
     110       0       0       1       0                               0D0000102
     110      59       0       0       0       0       0       000010000D0000103
     110       0       0       1       0                               0D0000104
     510      60       0       0       0       0       0       000010000D0000105
     510       0       0       1       1                               0D0000106
     192      61       0       0       0       0       0       000010000D0000107
     192       0       0       1       1                               0D0000108
     116      62       0       0       0       0       0       000010400D0000109
     116       0       0       1       0                               0D0000110
     123      63       0       0       0       0       0       000010200D0000111
     123       0       0       1       0                               0D0000112
     123      64       0       0       0       0       0       000010200D0000113
     123       0       0       1       0                               0D0000114
     508      65       0       0       0       0       0       000010000D0000115
     508       0       0       2       1                               0D0000116
     110      67       0       0       0       0       0       000010000D0000117
     110       0       0       1       0                               0D0000118
     110      68       0       0       0       0       0       000010000D0000119
     110       0       0       1       0                               0D0000120
     110      69       0       0       0       0       0       000010000D0000121
     110       0       0       1       0                               0D0000122
     110      70       0       0       0       0       0       000010000D0000123
     110       0       0       1       0                               0D0000124
     510      71       0       0       0       0       0       000010000D0000125
     510       0       0       1       1                               0D0000126
     190      72       0       0       0       0       0       000010000D0000127
     190       0       0       1       1                               0D0000128
     116      73       0       0       0       0       0       000010400D0000129
     116       0       0       1       0                               0D0000130
     123      74       0       0       0       0       0       000010200D0000131
     123       0       0       1       0                               0D0000132
     123      75       0       0       0       0       0       000010200D0000133
     123       0       0       1       0                               0D0000134
     508      76       0       0       0       0       0       000010000D0000135
     508       0       0       1       1                               0D0000136
     508      77       0       0       0       0       0       000010000D0000137
     508       0       0       1       1                               0D0000138
     510      78       0       0       0       0       0       000010000D0000139
     510       0       0       1       1                               0D0000140
     190      79       0       0       0       0       0       000010000D0000141
     190       0       0       1       1                               0D0000142
     116      80       0       0       0       0       0       000010400D0000143
     116       0       0       1       0                               0D0000144
     123      81       0       0       0       0       0       000010200D0000145
     123       0       0       1       0                               0D0000146
     123      82       0       0       0       0       0       000010200D0000147
     123       0       0       1       0                               0D0000148
     508      83       0       0       0       0       0       000010000D0000149
     508       0       0       1       1                               0D0000150
     508      84       0       0       0       0       0       000010000D0000151
     508       0       0       1       1                               0D0000152
186,3,1,0;                                                       0000001P0000001
514,7,5,1,57,1,71,1,85,1,105,0,125,0,139,0;                      0000003P0000002
510,7,1,1,15;                                                    0000005P0000003
192,9,11,12.,13;                                                 0000007P0000004
116,0.,0.,0.,0;                                                  0000009P0000005
123,0.,0.,1.;                                                    0000011P0000006
123,1.,0.,-0.;                                                   0000013P0000007
508,4,0,17,1,1,1,0,49,0,17,2,0,1,0,51,0,17,1,0,1,0,53,0,17,3,1,  0000015P0000008
1,0,55;                                                          0000015P0000009
504,10,19,21,1,21,2,23,21,2,21,2,27,21,1,21,1,31,21,3,21,3,35,   0000017P0000010
21,4,21,4,39,21,5,21,3,41,21,5,21,5,43,21,6,21,4,45,21,6,21,6,   0000017P0000011
47,21,7,21,7;                                                    0000017P0000012
110,12.,-2.939152318E-15,4.,12.,-2.939152318E-15,25.;            0000019P0000013
502,7,12.,-2.939152318E-15,4.,12.,-2.939152318E-15,25.,18.,      0000021P0000014
-4.408728477E-15,4.,7.,-1.714505519E-15,25.,18.,                 0000021P0000015
-4.408728477E-15,0.,7.,-1.714505519E-15,0.,12.,-2.939152318E-15, 0000021P0000016
0.;                                                              0000021P0000017
100,0.,0.,0.,12.,0.,12.,0.;                                      0000023P0000018
124,1.,0.,0.,0.,0.,1.,0.,0.,0.,0.,1.,25.;                        0000025P0000019
100,0.,0.,0.,12.,0.,12.,0.;                                      0000027P0000020
124,1.,0.,0.,0.,0.,1.,0.,0.,0.,0.,1.,4.;                         0000029P0000021
100,0.,0.,0.,18.,0.,18.,0.;                                      0000031P0000022
124,1.,0.,0.,0.,0.,1.,0.,0.,0.,0.,1.,4.;                         0000033P0000023
100,0.,0.,0.,7.,0.,7.,0.;                                        0000035P0000024
124,1.,0.,0.,0.,0.,1.,0.,0.,0.,0.,1.,25.;                        0000037P0000025
110,18.,-4.408728477E-15,0.,18.,-4.408728477E-15,4.;             0000039P0000026
100,0.,0.,0.,18.,0.,18.,0.;                                      0000041P0000027
110,7.,-1.714505519E-15,0.,7.,-1.714505519E-15,25.;              0000043P0000028
100,0.,0.,0.,7.,0.,7.,0.;                                        0000045P0000029
100,0.,0.,0.,12.,0.,12.,0.;                                      0000047P0000030
110,360.,4.,0.,360.,25.,0.;                                      0000049P0000031
110,360.,25.,0.,0.,25.,0.;                                       0000051P0000032
110,2.37142157E-11,25.,0.,2.37142157E-11,4.,0.;                  0000053P0000033
110,0.,4.,0.,360.,4.,0.;                                         0000055P0000034
510,59,2,1,67,69;                                                0000057P0000035
190,61,63,65;                                                    0000059P0000036
116,0.,0.,4.,0;                                                  0000061P0000037
123,0.,0.,1.;                                                    0000063P0000038
123,1.,0.,-0.;                                                   0000065P0000039
508,1,0,17,4,1,0;                                                0000067P0000040
508,1,0,17,3,0,0;                                                0000069P0000041
510,73,2,1,81,83;                                                0000071P0000042
190,75,77,79;                                                    0000073P0000043
116,0.,0.,25.,0;                                                 0000075P0000044
123,0.,0.,1.;                                                    0000077P0000045
123,1.,0.,-0.;                                                   0000079P0000046
508,1,0,17,2,1,0;                                                0000081P0000047
508,1,0,17,5,0,0;                                                0000083P0000048
510,87,1,1,95;                                                   0000085P0000049
192,89,91,18.,93;                                                0000087P0000050
116,0.,0.,0.,0;                                                  0000089P0000051
123,0.,0.,1.;                                                    0000091P0000052
123,1.,0.,-0.;                                                   0000093P0000053
508,4,0,17,4,0,1,0,97,0,17,6,0,1,0,99,0,17,7,1,1,0,101,0,17,6,1, 0000095P0000054
1,0,103;                                                         0000095P0000055
110,360.,4.,0.,0.,4.,0.;                                         0000097P0000056
110,0.,4.,0.,0.,0.,0.;                                           0000099P0000057
110,0.,0.,0.,360.,0.,0.;                                         0000101P0000058
110,360.,0.,0.,360.,4.,0.;                                       0000103P0000059
510,107,1,1,115;                                                 0000105P0000060
192,109,111,7.,113;                                              0000107P0000061
116,0.,0.,-1.,0;                                                 0000109P0000062
123,0.,0.,1.;                                                    0000111P0000063
123,1.,0.,-0.;                                                   0000113P0000064
508,4,0,17,5,0,1,0,117,0,17,8,0,1,0,119,0,17,9,1,1,0,121,0,17,8, 0000115P0000065
1,1,0,123;                                                       0000115P0000066
110,360.,26.,0.,0.,26.,0.;                                       0000117P0000067
110,0.,26.,0.,0.,1.,0.;                                          0000119P0000068
110,0.,1.,0.,360.,1.,0.;                                         0000121P0000069
110,360.,1.,0.,360.,26.,0.;                                      0000123P0000070
510,127,2,1,135,137;                                             0000125P0000071
190,129,131,133;                                                 0000127P0000072
116,0.,0.,0.,0;                                                  0000129P0000073
123,0.,0.,1.;                                                    0000131P0000074
123,1.,0.,-0.;                                                   0000133P0000075
508,1,0,17,7,1,0;                                                0000135P0000076
508,1,0,17,10,0,0;                                               0000137P0000077
510,141,2,1,149,151;                                             0000139P0000078
190,143,145,147;                                                 0000141P0000079
116,0.,0.,0.,0;                                                  0000143P0000080
123,0.,0.,1.;                                                    0000145P0000081
123,1.,0.,-0.;                                                   0000147P0000082
508,1,0,17,10,1,0;                                               0000149P0000083
508,1,0,17,9,0,0;                                                0000151P0000084
S      1G      4D    152P     84                                        T0000001
