                                                                        S0000001
,,31HOpen CASCADE IGES processor 7.9,13HFilename.iges,                  G0000001
16HOpen CASCADE 7.9,31HOpen CASCADE IGES processor 7.9,32,308,15,308,15,G0000002
,1.,2,2HMM,1,0.01,15H20261004.214557,1E-07,9.006532,7Hjiayuxu,,11,0,    G0000003
15H20261004.214557,;                                                    G0000004
     186       1       0       0       0       0       0       000000000D0000001
     186       0       0       1       0                               0D0000002
     514       2       0       0       0       0       0       000010000D0000003
     514       0       0       3       1                               0D0000004
     510       5       0       0       0       0       0       000010000D0000005
     510       0       0       1       1                               0D0000006
     190       6       0       0       0       0       0       000010000D0000007
     190       0       0       1       1                               0D0000008
     116       7       0       0       0       0       0       000010400D0000009
     116       0       0       1       0                               0D0000010
     123       8       0       0       0       0       0       000010200D0000011
     123       0       0       1       0                               0D0000012
     123       9       0       0       0       0       0       000010200D0000013
     123       0       0       1       0                               0D0000014
     508      10       0       0       0       0       0       000010000D0000015
     508       0       0       1       1                               0D0000016
     504      11       0       0       0       0       0       000010001D0000017
     504       0       0       9       1                               0D0000018
     100      20       0       0       0       0      21       000010000D0000019
     100       0       0       1       0                               0D0000020
     124      21       0       0       0       0       0       000000000D0000021
     124       0       0       1       0                               0D0000022
     502      22       0       0       0       0       0       000010000D0000023
     502       0       0       6       1                               0D0000024
     100      28       0       0       0       0      27       000010000D0000025
     100       0       0       1       0                               0D0000026
     124      29       0       0       0       0       0       000000000D0000027
     124       0       0       1       0                               0D0000028
     110      30       0       0       0       0       0       000010000D0000029
     110       0       0       1       0                               0D0000030
     100      31       0       0       0       0      33       000010000D0000031
     100       0       0       1       0                               0D0000032
     124      32       0       0       0       0       0       000000000D0000033
     124       0       0       1       0                               0D0000034
     100      33       0       0       0       0      37       000010000D0000035
     100       0       0       1       0                               0D0000036
     124      34       0       0       0       0       0       000000000D0000037
     124       0       0       1       0                               0D0000038
     100      35       0       0       0       0      41       000010000D0000039
     100       0       0       1       0                               0D0000040
     124      36       0       0       0       0       0       000000000D0000041
     124       0       0       1       0                               0D0000042
     110      37       0       0       0       0       0       000010000D0000043
     110       0       0       1       0                               0D0000044
     100      38       0       0       0       0      47       000010000D0000045
     100       0       0       1       0                               0D0000046
     124      39       0       0       0       0       0       000000000D0000047
     124       0       0       1       0                               0D0000048
     100      40       0       0       0       0      51       000010000D0000049
     100       0       0       1       0                               0D0000050
     124      41       0       0       0       0       0       000000000D0000051
     124       0       0       1       0                               0D0000052
     100      42       0       0       0       0      55       000010000D0000053
     100       0       0       1       0                               0D0000054
     124      43       0       0       0       0       0       000000000D0000055
     124       0       0       1       0                               0D0000056
     110      44       0       0       0       0       0       000010000D0000057
     110       0       0       1       0                               0D0000058
     100      45       0       0       0       0      61       000010000D0000059
     100       0       0       1       0                               0D0000060
     124      46       0       0       0       0       0       000000000D0000061
     124       0       0       1       0                               0D0000062
     100      47       0       0       0       0      65       000010000D0000063
     100       0       0       1       0                               0D0000064
     124      48       0       0       0       0       0       000000000D0000065
     124       0       0       1       0                               0D0000066
     100      49       0       0       0       0      69       000010000D0000067
     100       0       0       1       0                               0D0000068
     124      50       0       0       0       0       0       000000000D0000069
     124       0       0       1       0                               0D0000070
     110      51       0       0       0       0       0       000010000D0000071
     110       0       0       1       0                               0D0000072
     100      52       0       0       0       0      75       000010000D0000073
     100       0       0       1       0                               0D0000074
     124      53       0       0       0       0       0       000000000D0000075
     124       0       0       1       0                               0D0000076
     100      54       0       0       0       0      79       000010000D0000077
     100       0       0       1       0                               0D0000078
     124      55       0       0       0       0       0       000000000D0000079
     124       0       0       1       0                               0D0000080
     100      56       0       0       0       0      83       000010000D0000081
     100       0       0       1       0                               0D0000082
     124      57       0       0       0       0       0       000000000D0000083
     124       0       0       1       0                               0D0000084
     110      58       0       0       0       0       0       000010000D0000085
     110       0       0       1       0                               0D0000086
     100      59       0       0       0       0      89       000010000D0000087
     100       0       0       1       0                               0D0000088
     124      60       0       0       0       0       0       000000000D0000089
     124       0       0       1       0                               0D0000090
     100      61       0       0       0       0       0       000010000D0000091
     100       0       0       1       0                               0D0000092
     100      62       0       0       0       0       0       000010000D0000093
     100       0       0       1       0                               0D0000094
     110      63       0       0       0       0       0       000010000D0000095
     110       0       0       1       0                               0D0000096
     110      64       0       0       0       0       0       000010000D0000097
     110       0       0       1       0                               0D0000098
     100      65       0       0       0       0     101       000010000D0000099
     100       0       0       1       0                               0D0000100
     124      66       0       0       0       0       0       000000000D0000101
     124       0       0       1       0                               0D0000102
     100      67       0       0       0       0       0       000010000D0000103
     100       0       0       1       0                               0D0000104
     100      68       0       0       0       0       0       000010000D0000105
     100       0       0       1       0                               0D0000106
     110      69       0       0       0       0       0       000010000D0000107
     110       0       0       1       0                               0D0000108
     100      70       0       0       0       0     111       000010000D0000109
     100       0       0       1       0                               0D0000110
     124      71       0       0       0       0       0       000000000D0000111
     124       0       0       1       0                               0D0000112
     100      72       0       0       0       0     115       000010000D0000113
     100       0       0       1       0                               0D0000114
     124      73       0       0       0       0       0       000000000D0000115
     124       0       0       1       0                               0D0000116
     110      74       0       0       0       0       0       000010000D0000117
     110       0       0       1       0                               0D0000118
     110      75       0       0       0       0       0       000010000D0000119
     110       0       0       1       0                               0D0000120
     100      76       0       0       0       0     123       000010000D0000121
     100       0       0       1       0                               0D0000122
     124      77       0       0       0       0       0       000000000D0000123
     124       0       0       1       0                               0D0000124
     100      78       0       0       0       0     127       000010000D0000125
     100       0       0       1       0                               0D0000126
     124      79       0       0       0       0       0       000000000D0000127
     124       0       0       1       0                               0D0000128
     110      80       0       0       0       0       0       000010000D0000129
     110       0       0       1       0                               0D0000130
     110      81       0       0       0       0       0       000010000D0000131
     110       0       0       1       0                               0D0000132
     110      82       0       0       0       0       0       000010000D0000133
     110       0       0       1       0                               0D0000134
     110      83       0       0       0       0       0       000010000D0000135
     110       0       0       1       0                               0D0000136
     508      84       0       0       0       0       0       000010000D0000137
     508       0       0       1       1                               0D0000138
     510      85       0       0       0       0       0       000010000D0000139
     510       0       0       1       1                               0D0000140
     194      86       0       0       0       0       0       000010000D0000141
     194       0       0       1       1                               0D0000142
     116      87       0       0       0       0       0       000010400D0000143
     116       0       0       1       0                               0D0000144
     123      88       0       0       0       0       0       000010200D0000145
     123       0       0       1       0                               0D0000146
     123      89       0       0       0       0       0       000010200D0000147
     123       0       0       1       0                               0D0000148
     508      90       0       0       0       0       0       000010000D0000149
     508       0       0       2       1                               0D0000150
     126      92       0       0       0       0       0       000010000D0000151
     126       0       0       2       0                               0D0000152
     110      94       0       0       0       0       0       000010000D0000153
     110       0       0       1       0                               0D0000154
     126      95       0       0       0       0       0       000010000D0000155
     126       0       0       3       0                               0D0000156
     110      98       0       0       0       0       0       000010000D0000157
     110       0       0       1       0                               0D0000158
     510      99       0       0       0       0       0       000010000D0000159
     510       0       0       1       1                               0D0000160
     190     100       0       0       0       0       0       000010000D0000161
     190       0       0       1       1                               0D0000162
     116     101       0       0       0       0       0       000010400D0000163
     116       0       0       1       0                               0D0000164
     123     102       0       0       0       0       0       000010200D0000165
     123       0       0       1       0                               0D0000166
     123     103       0       0       0       0       0       000010200D0000167
     123       0       0       1       0                               0D0000168
     508     104       0       0       0       0       0       000010000D0000169
     508       0       0       1       1                               0D0000170
     508     105       0       0       0       0       0       000010000D0000171
     508       0       0       1       1                               0D0000172
     510     106       0       0       0       0       0       000010000D0000173
     510       0       0       1       1                               0D0000174
     192     107       0       0       0       0       0       000010000D0000175
     192       0       0       1       1                               0D0000176
     116     108       0       0       0       0       0       000010400D0000177
     116       0       0       1       0                               0D0000178
     123     109       0       0       0       0       0       000010200D0000179
     123       0       0       1       0                               0D0000180
     123     110       0       0       0       0       0       000010200D0000181
     123       0       0       1       0                               0D0000182
     508     111       0       0       0       0       0       000010000D0000183
     508       0       0       2       1                               0D0000184
     110     113       0       0       0       0       0       000010000D0000185
     110       0       0       1       0                               0D0000186
     110     114       0       0       0       0       0       000010000D0000187
     110       0       0       1       0                               0D0000188
     110     115       0       0       0       0       0       000010000D0000189
     110       0       0       1       0                               0D0000190
     110     116       0       0       0       0       0       000010000D0000191
     110       0       0       1       0                               0D0000192
     510     117       0       0       0       0       0       000010000D0000193
     510       0       0       1       1                               0D0000194
     190     118       0       0       0       0       0       000010000D0000195
     190       0       0       1       1                               0D0000196
     116     119       0       0       0       0       0       000010400D0000197
     116       0       0       1       0                               0D0000198
     123     120       0       0       0       0       0       000010200D0000199
     123       0       0       1       0                               0D0000200
     123     121       0       0       0       0       0       000010200D0000201
     123       0       0       1       0                               0D0000202
     508     122       0       0       0       0       0       000010000D0000203
     508       0       0       1       1                               0D0000204
     508     123       0       0       0       0       0       000010000D0000205
     508       0       0       1       1                               0D0000206
     510     124       0       0       0       0       0       000010000D0000207
     510       0       0       1       1                               0D0000208
     192     125       0       0       0       0       0       000010000D0000209
     192       0       0       1       1                               0D0000210
     116     126       0       0       0       0       0       000010400D0000211
     116       0       0       1       0                               0D0000212
     123     127       0       0       0       0       0       000010200D0000213
     123       0       0       1       0                               0D0000214
     123     128       0       0       0       0       0       000010200D0000215
     123       0       0       1       0                               0D0000216
     508     129       0       0       0       0       0       000010000D0000217
     508       0       0       2       1                               0D0000218
     110     131       0       0       0       0       0       000010000D0000219
     110       0       0       1       0                               0D0000220
     110     132       0       0       0       0       0       000010000D0000221
     110       0       0       1       0                               0D0000222
     110     133       0       0       0       0       0       000010000D0000223
     110       0       0       1       0                               0D0000224
     110     134       0       0       0       0       0       000010000D0000225
     110       0       0       1       0                               0D0000226
     510     135       0       0       0       0       0       000010000D0000227
     510       0       0       1       1                               0D0000228
     194     136       0       0       0       0       0       000010000D0000229
     194       0       0       1       1                               0D0000230
     116     137       0       0       0       0       0       000010400D0000231
     116       0       0       1       0                               0D0000232
     123     138       0       0       0       0       0       000010200D0000233
     123       0       0       1       0                               0D0000234
     123     139       0       0       0       0       0       000010200D0000235
     123       0       0       1       0                               0D0000236
     508     140       0       0       0       0       0       000010000D0000237
     508       0       0       2       1                               0D0000238
     110     142       0       0       0       0       0       000010000D0000239
     110       0       0       1       0                               0D0000240
     126     143       0       0       0       0       0       000010000D0000241
     126       0       0       2       0                               0D0000242
     110     145       0       0       0       0       0       000010000D0000243
     110       0       0       1       0                               0D0000244
     126     146       0       0       0       0       0       000010000D0000245
     126       0       0       3       0                               0D0000246
     510     149       0       0       0       0       0       000010000D0000247
     510       0       0       1       1                               0D0000248
     190     150       0       0       0       0       0       000010000D0000249
     190       0       0       1       1                               0D0000250
     116     151       0       0       0       0       0       000010400D0000251
     116       0       0       1       0                               0D0000252
     123     152       0       0       0       0       0       000010200D0000253
     123       0       0       1       0                               0D0000254
     123     153       0       0       0       0       0       000010200D0000255
     123       0       0       1       0                               0D0000256
     508     154       0       0       0       0       0       000010000D0000257
     508       0       0       1       1                               0D0000258
     508     155       0       0       0       0       0       000010000D0000259
     508       0       0       1       1                               0D0000260
     510     156       0       0       0       0       0       000010000D0000261
     510       0       0       1       1                               0D0000262
     190     157       0       0       0       0       0       000010000D0000263
     190       0       0       1       1                               0D0000264
     116     158       0       0       0       0       0       000010400D0000265
     116       0       0       1       0                               0D0000266
     123     159       0       0       0       0       0       000010200D0000267
     123       0       0       1       0                               0D0000268
     123     160       0       0       0       0       0       000010200D0000269
     123       0       0       1       0                               0D0000270
     508     161       0       0       0       0       0       000010000D0000271
     508       0       0       1       1                               0D0000272
     508     162       0       0       0       0       0       000010000D0000273
     508       0       0       1       1                               0D0000274
     510     163       0       0       0       0       0       000010000D0000275
     510       0       0       1       1                               0D0000276
     192     164       0       0       0       0       0       000010000D0000277
     192       0       0       1       1                               0D0000278
     116     165       0       0       0       0       0       000010400D0000279
     116       0       0       1       0                               0D0000280
     123     166       0       0       0       0       0       000010200D0000281
     123       0       0       1       0                               0D0000282
     123     167       0       0       0       0       0       000010200D0000283
     123       0       0       1       0                               0D0000284
     508     168       0       0       0       0       0       000010000D0000285
     508       0       0       2       1                               0D0000286
     110     170       0       0       0       0       0       000010000D0000287
     110       0       0       1       0                               0D0000288
     110     171       0       0       0       0       0       000010000D0000289
     110       0       0       1       0                               0D0000290
     110     172       0       0       0       0       0       000010000D0000291
     110       0       0       1       0                               0D0000292
     110     173       0       0       0       0       0       000010000D0000293
     110       0       0       1       0                               0D0000294
     510     174       0       0       0       0       0       000010000D0000295
     510       0       0       1       1                               0D0000296
     190     175       0       0       0       0       0       000010000D0000297
     190       0       0       1       1                               0D0000298
     116     176       0       0       0       0       0       000010400D0000299
     116       0       0       1       0                               0D0000300
     123     177       0       0       0       0       0       000010200D0000301
     123       0       0       1       0                               0D0000302
     123     178       0       0       0       0       0       000010200D0000303
     123       0       0       1       0                               0D0000304
     508     179       0       0       0       0       0       000010000D0000305
     508       0       0       1       1                               0D0000306
     508     180       0       0       0       0       0       000010000D0000307
     508       0       0       1       1                               0D0000308
     510     181       0       0       0       0       0       000010000D0000309
     510       0       0       1       1                               0D0000310
     192     182       0       0       0       0       0       000010000D0000311
     192       0       0       1       1                               0D0000312
     116     183       0       0       0       0       0       000010400D0000313
     116       0       0       1       0                               0D0000314
     123     184       0       0       0       0       0       000010200D0000315
     123       0       0       1       0                               0D0000316
     123     185       0       0       0       0       0       000010200D0000317
     123       0       0       1       0                               0D0000318
     508     186       0       0       0       0       0       000010000D0000319
     508       0       0       2       1                               0D0000320
     110     188       0       0       0       0       0       000010000D0000321
     110       0       0       1       0                               0D0000322
     110     189       0       0       0       0       0       000010000D0000323
     110       0       0       1       0                               0D0000324
     110     190       0       0       0       0       0       000010000D0000325
     110       0       0       1       0                               0D0000326
     110     191       0       0       0       0       0       000010000D0000327
     110       0       0       1       0                               0D0000328
     510     192       0       0       0       0       0       000010000D0000329
     510       0       0       1       1                               0D0000330
     194     193       0       0       0       0       0       000010000D0000331
     194       0       0       1       1                               0D0000332
     116     194       0       0       0       0       0       000010400D0000333
     116       0       0       1       0                               0D0000334
     123     195       0       0       0       0       0       000010200D0000335
     123       0       0       1       0                               0D0000336
     123     196       0       0       0       0       0       000010200D0000337
     123       0       0       1       0                               0D0000338
     508     197       0       0       0       0       0       000010000D0000339
     508       0       0       2       1                               0D0000340
     126     199       0       0       0       0       0       000010000D0000341
     126       0       0       2       0                               0D0000342
     110     201       0       0       0       0       0       000010000D0000343
     110       0       0       1       0                               0D0000344
     126     202       0       0       0       0       0       000010000D0000345
     126       0       0       3       0                               0D0000346
     110     205       0       0       0       0       0       000010000D0000347
     110       0       0       1       0                               0D0000348
     510     206       0       0       0       0       0       000010000D0000349
     510       0       0       1       1                               0D0000350
     190     207       0       0       0       0       0       000010000D0000351
     190       0       0       1       1                               0D0000352
     116     208       0       0       0       0       0       000010400D0000353
     116       0       0       1       0                               0D0000354
     123     209       0       0       0       0       0       000010200D0000355
     123       0       0       1       0                               0D0000356
     123     210       0       0       0       0       0       000010200D0000357
     123       0       0       1       0                               0D0000358
     508     211       0       0       0       0       0       000010000D0000359
     508       0       0       1       1                               0D0000360
     508     212       0       0       0       0       0       000010000D0000361
     508       0       0       1       1                               0D0000362
     510     213       0       0       0       0       0       000010000D0000363
     510       0       0       1       1                               0D0000364
     190     214       0       0       0       0       0       000010000D0000365
     190       0       0       1       1                               0D0000366
     116     215       0       0       0       0       0       000010400D0000367
     116       0       0       1       0                               0D0000368
     123     216       0       0       0       0       0       000010200D0000369
     123       0       0       1       0                               0D0000370
     123     217       0       0       0       0       0       000010200D0000371
     123       0       0       1       0                               0D0000372
     508     218       0       0       0       0       0       000010000D0000373
     508       0       0       1       1                               0D0000374
     508     219       0       0       0       0       0       000010000D0000375
     508       0       0       1       1                               0D0000376
     510     220       0       0       0       0       0       000010000D0000377
     510       0       0       1       1                               0D0000378
     192     221       0       0       0       0       0       000010000D0000379
     192       0       0       1       1                               0D0000380
     116     222       0       0       0       0       0       000010400D0000381
     116       0       0       1       0                               0D0000382
     123     223       0       0       0       0       0       000010200D0000383
     123       0       0       1       0                               0D0000384
     123     224       0       0       0       0       0       000010200D0000385
     123       0       0       1       0                               0D0000386
     508     225       0       0       0       0       0       000010000D0000387
     508       0       0       2       1                               0D0000388
     110     227       0       0       0       0       0       000010000D0000389
     110       0       0       1       0                               0D0000390
     110     228       0       0       0       0       0       000010000D0000391
     110       0       0       1       0                               0D0000392
     110     229       0       0       0       0       0       000010000D0000393
     110       0       0       1       0                               0D0000394
     110     230       0       0       0       0       0       000010000D0000395
     110       0       0       1       0                               0D0000396
     510     231       0       0       0       0       0       000010000D0000397
     510       0       0       1       1                               0D0000398
     190     232       0       0       0       0       0       000010000D0000399
     190       0       0       1       1                               0D0000400
     116     233       0       0       0       0       0       000010400D0000401
     116       0       0       1       0                               0D0000402
     123     234       0       0       0       0       0       000010200D0000403
     123       0       0       1       0                               0D0000404
     123     235       0       0       0       0       0       000010200D0000405
     123       0       0       1       0                               0D0000406
     508     236       0       0       0       0       0       000010000D0000407
     508       0       0       1       1                               0D0000408
     508     237       0       0       0       0       0       000010000D0000409
     508       0       0       1       1                               0D0000410
     510     238       0       0       0       0       0       000010000D0000411
     510       0       0       1       1                               0D0000412
     192     239       0       0       0       0       0       000010000D0000413
     192       0       0       1       1                               0D0000414
     116     240       0       0       0       0       0       000010400D0000415
     116       0       0       1       0                               0D0000416
     123     241       0       0       0       0       0       000010200D0000417
     123       0       0       1       0                               0D0000418
     123     242       0       0       0       0       0       000010200D0000419
     123       0       0       1       0                               0D0000420
     508     243       0       0       0       0       0       000010000D0000421
     508       0       0       2       1                               0D0000422
     110     245       0       0       0       0       0       000010000D0000423
     110       0       0       1       0                               0D0000424
     110     246       0       0       0       0       0       000010000D0000425
     110       0       0       1       0                               0D0000426
     110     247       0       0       0       0       0       000010000D0000427
     110       0       0       1       0                               0D0000428
     110     248       0       0       0       0       0       000010000D0000429
     110       0       0       1       0                               0D0000430
     510     249       0       0       0       0       0       000010000D0000431
     510       0       0       1       1                               0D0000432
     192     250       0       0       0       0       0       000010000D0000433
     192       0       0       1       1                               0D0000434
     116     251       0       0       0       0       0       000010400D0000435
     116       0       0       1       0                               0D0000436
     123     252       0       0       0       0       0       000010200D0000437
     123       0       0       1       0                               0D0000438
     123     253       0       0       0       0       0       000010200D0000439
     123       0       0       1       0                               0D0000440
     508     254       0       0       0       0       0       000010000D0000441
     508       0       0       2       1                               0D0000442
     110     256       0       0       0       0       0       000010000D0000443
     110       0       0       1       0                               0D0000444
     110     257       0       0       0       0       0       000010000D0000445
     110       0       0       1       0                               0D0000446
     110     258       0       0       0       0       0       000010000D0000447
     110       0       0       1       0                               0D0000448
     110     259       0       0       0       0       0       000010000D0000449
     110       0       0       1       0                               0D0000450
     510     260       0       0       0       0       0       000010000D0000451
     510       0       0       1       1                               0D0000452
     192     261       0       0       0       0       0       000010000D0000453
     192       0       0       1       1                               0D0000454
     116     262       0       0       0       0       0       000010400D0000455
     116       0       0       1       0                               0D0000456
     123     263       0       0       0       0       0       000010200D0000457
     123       0       0       1       0                               0D0000458
     123     264       0       0       0       0       0       000010200D0000459
     123       0       0       1       0                               0D0000460
     508     265       0       0       0       0       0       000010000D0000461
     508       0       0       2       1                               0D0000462
     110     267       0       0       0       0       0       000010000D0000463
     110       0       0       1       0                               0D0000464
     110     268       0       0       0       0       0       000010000D0000465
     110       0       0       1       0                               0D0000466
     110     269       0       0       0       0       0       000010000D0000467
     110       0       0       1       0                               0D0000468
     110     270       0       0       0       0       0       000010000D0000469
     110       0       0       1       0                               0D0000470
     510     271       0       0       0       0       0       000010000D0000471
     510       0       0       1       1                               0D0000472
     192     272       0       0       0       0       0       000010000D0000473
     192       0       0       1       1                               0D0000474
     116     273       0       0       0       0       0       000010400D0000475
     116       0       0       1       0                               0D0000476
     123     274       0       0       0       0       0       000010200D0000477
     123       0       0       1       0                               0D0000478
     123     275       0       0       0       0       0       000010200D0000479
     123       0       0       1       0                               0D0000480
     508     276       0       0       0       0       0       000010000D0000481
     508       0       0       2       1                               0D0000482
     110     278       0       0       0       0       0       000010000D0000483
     110       0       0       1       0                               0D0000484
     110     279       0       0       0       0       0       000010000D0000485
     110       0       0       1       0                               0D0000486
     110     280       0       0       0       0       0       000010000D0000487
     110       0       0       1       0                               0D0000488
     110     281       0       0       0       0       0       000010000D0000489
     110       0       0       1       0                               0D0000490
     510     282       0       0       0       0       0       000010000D0000491
     510       0       0       1       1                               0D0000492
     194     283       0       0       0       0       0       000010000D0000493
     194       0       0       1       1                               0D0000494
     116     284       0       0       0       0       0       000010400D0000495
     116       0       0       1       0                               0D0000496
     123     285       0       0       0       0       0       000010200D0000497
     123       0       0       1       0                               0D0000498
     123     286       0       0       0       0       0       000010200D0000499
     123       0       0       1       0                               0D0000500
     508     287       0       0       0       0       0       000010000D0000501
     508       0       0       2       1                               0D0000502
     110     289       0       0       0       0       0       000010000D0000503
     110       0       0       1       0                               0D0000504
     126     290       0       0       0       0       0       000010000D0000505
     126       0       0       2       0                               0D0000506
     110     292       0       0       0       0       0       000010000D0000507
     110       0       0       1       0                               0D0000508
     126     293       0       0       0       0       0       000010000D0000509
     126       0       0       3       0                               0D0000510
     510     296       0       0       0       0       0       000010000D0000511
     510       0       0       1       1                               0D0000512
     192     297       0       0       0       0       0       000010000D0000513
     192       0       0       1       1                               0D0000514
     116     298       0       0       0       0       0       000010400D0000515
     116       0       0       1       0                               0D0000516
     123     299       0       0       0       0       0       000010200D0000517
     123       0       0       1       0                               0D0000518
     123     300       0       0       0       0       0       000010200D0000519
     123       0       0       1       0                               0D0000520
     508     301       0       0       0       0       0       000010000D0000521
     508       0       0       2       1                               0D0000522
     110     303       0       0       0       0       0       000010000D0000523
     110       0       0       1       0                               0D0000524
     110     304       0       0       0       0       0       000010000D0000525
     110       0       0       1       0                               0D0000526
     110     305       0       0       0       0       0       000010000D0000527
     110       0       0       1       0                               0D0000528
     110     306       0       0       0       0       0       000010000D0000529
     110       0       0       1       0                               0D0000530
     510     307       0       0       0       0       0       000010000D0000531
     510       0       0       1       1                               0D0000532
     190     308       0       0       0       0       0       000010000D0000533
     190       0       0       1       1                               0D0000534
     116     309       0       0       0       0       0       000010400D0000535
     116       0       0       1       0                               0D0000536
     123     310       0       0       0       0       0       000010200D0000537
     123       0       0       1       0                               0D0000538
     123     311       0       0       0       0       0       000010200D0000539
     123       0       0       1       0                               0D0000540
     508     312       0       0       0       0       0       000010000D0000541
     508       0       0       1       1                               0D0000542
     508     313       0       0       0       0       0       000010000D0000543
     508       0       0       1       1                               0D0000544
186,3,1,0;                                                       0000001P0000001
514,24,5,1,139,1,159,1,173,1,193,1,207,1,227,1,247,0,261,1,275,  0000003P0000002
1,295,0,309,0,329,1,349,1,363,0,377,0,397,0,411,1,431,1,451,0,   0000003P0000003
471,1,491,1,511,1,531,0;                                         0000003P0000004
510,7,2,1,15,137;                                                0000005P0000005
190,9,11,13;                                                     0000007P0000006
116,0.,0.,1.,0;                                                  0000009P0000007
123,0.,0.,1.;                                                    0000011P0000008
123,1.,0.,-0.;                                                   0000013P0000009
508,1,0,17,1,1,0;                                                0000015P0000010
504,38,19,23,1,23,1,25,23,2,23,2,29,23,3,23,4,31,23,3,23,3,35,   0000017P0000011
23,4,23,4,39,23,5,23,5,43,23,6,23,3,45,23,6,23,6,49,23,7,23,7,   0000017P0000012
53,23,8,23,8,57,23,9,23,10,59,23,10,23,10,63,23,9,23,9,67,23,11, 0000017P0000013
23,11,71,23,6,23,11,73,23,12,23,12,77,23,13,23,13,81,23,14,23,   0000017P0000014
14,85,23,14,23,15,87,23,15,23,15,91,23,16,23,16,93,23,17,23,17,  0000017P0000015
95,23,13,23,8,97,23,10,23,1,99,23,18,23,18,103,23,19,23,19,105,  0000017P0000016
23,20,23,20,107,23,21,23,18,109,23,21,23,21,113,23,22,23,22,117, 0000017P0000017
23,22,23,20,119,23,23,23,17,121,23,23,23,23,125,23,24,23,24,129, 0000017P0000018
23,24,23,19,131,23,2,23,12,133,23,9,23,16,135,23,5,23,7;         0000017P0000019
100,0.,0.,0.,8.9,0.,8.9,0.;                                      0000019P0000020
124,1.,0.,0.,0.,0.,1.,0.,0.,0.,0.,1.,1.;                         0000021P0000021
502,24,8.9,0.,1.,6.125,-2.E-15,1.,9.,0.,8.4,8.9,0.,8.5,4.5,      0000023P0000022
-1.E-15,8.5,9.,0.,7.6,4.5,-1.E-15,8.625,4.,-1.E-15,8.625,9.,0.,  0000023P0000023
0.1,9.,0.,0.9,8.9,0.,7.5,6.125,-2.E-15,7.5,4.,-1.E-15,8.5,3.,    0000023P0000024
-1.E-15,8.5,3.,-1.E-15,8.625,8.9,0.,0.,4.5,-1.E-15,0.,2.5,       0000023P0000025
-1.E-15,8.625,4.,-1.E-15,0.,3.,-1.E-15,0.,2.5,-1.E-15,-0.125,3., 0000023P0000026
-1.E-15,-0.125,4.5,-1.E-15,-0.125,4.,-1.E-15,-0.125;             0000023P0000027
100,0.,0.,0.,6.125,0.,6.125,0.;                                  0000025P0000028
124,1.,0.,0.,0.,0.,1.,0.,0.,0.,0.,1.,1.;                         0000027P0000029
110,9.,0.,8.4,8.9,0.,8.5;                                        0000029P0000030
100,0.,0.,0.,9.,0.,9.,0.;                                        0000031P0000031
124,1.,0.,0.,0.,0.,1.,0.,0.,0.,0.,1.,8.4;                        0000033P0000032
100,0.,0.,0.,8.9,0.,8.9,0.;                                      0000035P0000033
124,1.,0.,0.,0.,0.,1.,0.,0.,0.,0.,1.,8.5;                        0000037P0000034
100,0.,0.,0.,4.5,0.,4.5,0.;                                      0000039P0000035
124,1.,0.,0.,0.,0.,1.,0.,0.,0.,0.,1.,8.5;                        0000041P0000036
110,9.,-2.2E-15,7.6,9.,-2.2E-15,8.4;                             0000043P0000037
100,0.,0.,0.,9.,0.,9.,0.;                                        0000045P0000038
124,1.,0.,0.,0.,0.,1.,0.,0.,0.,0.,1.,7.6;                        0000047P0000039
100,0.,0.,0.,4.5,0.,4.5,0.;                                      0000049P0000040
124,1.,0.,0.,0.,0.,1.,0.,0.,0.,0.,1.,8.625;                      0000051P0000041
100,0.,0.,0.,4.,0.,4.,0.;                                        0000053P0000042
124,1.,0.,0.,0.,0.,1.,0.,0.,0.,0.,1.,8.625;                      0000055P0000043
110,9.,-2.2E-15,0.1,9.,-2.2E-15,0.9;                             0000057P0000044
100,0.,0.,0.,9.,0.,9.,0.;                                        0000059P0000045
124,1.,0.,0.,0.,0.,1.,0.,0.,0.,0.,1.,0.9;                        0000061P0000046
100,0.,0.,0.,9.,0.,9.,0.;                                        0000063P0000047
124,1.,0.,0.,0.,0.,1.,0.,0.,0.,0.,1.,0.1;                        0000065P0000048
100,0.,0.,0.,8.9,0.,8.9,0.;                                      0000067P0000049
124,1.,0.,0.,0.,0.,1.,0.,0.,0.,0.,1.,7.5;                        0000069P0000050
110,9.,0.,7.6,8.9,0.,7.5;                                        0000071P0000051
100,0.,0.,0.,6.125,0.,6.125,0.;                                  0000073P0000052
124,1.,0.,0.,0.,0.,1.,0.,0.,0.,0.,1.,7.5;                        0000075P0000053
100,0.,0.,0.,4.,0.,4.,0.;                                        0000077P0000054
124,1.,0.,0.,0.,0.,1.,0.,0.,0.,0.,1.,8.5;                        0000079P0000055
100,0.,0.,0.,3.,0.,3.,0.;                                        0000081P0000056
124,1.,0.,0.,0.,0.,1.,0.,0.,0.,0.,1.,8.5;                        0000083P0000057
110,3.,-7.3E-16,8.5,3.,-7.3E-16,8.625;                           0000085P0000058
100,0.,0.,0.,3.,0.,3.,0.;                                        0000087P0000059
124,1.,0.,0.,0.,0.,1.,0.,0.,0.,0.,1.,8.625;                      0000089P0000060
100,0.,0.,0.,8.9,0.,8.9,0.;                                      0000091P0000061
100,0.,0.,0.,4.5,0.,4.5,0.;                                      0000093P0000062
110,4.,-9.8E-16,8.5,4.,-9.8E-16,8.625;                           0000095P0000063
110,9.,0.,0.9,8.9,0.,1.;                                         0000097P0000064
100,0.,0.,0.,2.5,0.,2.5,0.;                                      0000099P0000065
124,1.,0.,0.,0.,0.,1.,0.,0.,0.,0.,1.,8.625;                      0000101P0000066
100,0.,0.,0.,4.,0.,4.,0.;                                        0000103P0000067
100,0.,0.,0.,3.,0.,3.,0.;                                        0000105P0000068
110,2.5,-6.1E-16,-0.125,2.5,-6.1E-16,8.625;                      0000107P0000069
100,0.,0.,0.,2.5,0.,2.5,0.;                                      0000109P0000070
124,1.,0.,0.,0.,0.,1.,0.,0.,0.,0.,1.,-0.125;                     0000111P0000071
100,0.,0.,0.,3.,0.,3.,0.;                                        0000113P0000072
124,1.,0.,0.,0.,0.,1.,0.,0.,0.,0.,1.,-0.125;                     0000115P0000073
110,3.,-7.3E-16,-0.125,3.,-7.3E-16,0.;                           0000117P0000074
110,4.5,-1.1E-15,-0.125,4.5,-1.1E-15,0.;                         0000119P0000075
100,0.,0.,0.,4.5,0.,4.5,0.;                                      0000121P0000076
124,1.,0.,0.,0.,0.,1.,0.,0.,0.,0.,1.,-0.125;                     0000123P0000077
100,0.,0.,0.,4.,0.,4.,0.;                                        0000125P0000078
124,1.,0.,0.,0.,0.,1.,0.,0.,0.,0.,1.,-0.125;                     0000127P0000079
110,4.,-9.8E-16,-0.125,4.,-9.8E-16,0.;                           0000129P0000080
110,6.125,-1.5E-15,1.,6.125,-1.5E-15,7.5;                        0000131P0000081
110,9.,0.,0.1,8.9,0.,1.763653617E-16;                            0000133P0000082
110,4.5,-1.1E-15,8.5,4.5,-1.1E-15,8.625;                         0000135P0000083
508,1,0,17,2,0,0;                                                0000137P0000084
510,141,1,1,149;                                                 0000139P0000085
194,143,145,9.,45.,147;                                          0000141P0000086
116,0.,0.,8.4,0;                                                 0000143P0000087
123,-0.,-0.,-1.;                                                 0000145P0000088
123,1.,0.,0.;                                                    0000147P0000089
508,4,0,17,3,0,1,0,151,0,17,4,1,1,0,153,0,17,3,1,1,0,155,0,17,5, 0000149P0000090
0,1,0,157;                                                       0000149P0000091
126,1,1,1,0,1,0,0.,0.,0.141421356,0.141421356,1.,1.,360.,        0000151P0000092
-0.141421356,-0.,360.,0.,0.,0.,0.141421356,0.,0.,1.;             0000151P0000093
110,360.,0.,0.,0.,0.,0.;                                         0000153P0000094
126,1,1,1,0,1,0,0.,0.,0.141421356,0.141421356,1.,1.,             0000155P0000095
-2.37142157E-11,0.,0.,-2.37142157E-11,-0.141421356,0.,0.,        0000155P0000096
0.141421356,0.,0.,1.;                                            0000155P0000097
110,0.,-0.141421356,0.,360.,-0.141421356,0.;                     0000157P0000098
510,161,2,1,169,171;                                             0000159P0000099
190,163,165,167;                                                 0000161P0000100
116,0.,0.,8.5,0;                                                 0000163P0000101
123,0.,0.,1.;                                                    0000165P0000102
123,1.,0.,-0.;                                                   0000167P0000103
508,1,0,17,5,1,0;                                                0000169P0000104
508,1,0,17,6,0,0;                                                0000171P0000105
510,175,1,1,183;                                                 0000173P0000106
192,177,179,9.,181;                                              0000175P0000107
116,0.,0.,7.5,0;                                                 0000177P0000108
123,0.,0.,1.;                                                    0000179P0000109
123,1.,0.,-0.;                                                   0000181P0000110
508,4,0,17,7,1,1,0,185,0,17,4,0,1,0,187,0,17,7,0,1,0,189,0,17,8, 0000183P0000111
1,1,0,191;                                                       0000183P0000112
110,360.,1.E-01,0.,360.,0.9,0.;                                  0000185P0000113
110,360.,0.9,0.,0.,0.9,0.;                                       0000187P0000114
110,2.37142157E-11,0.9,0.,2.37142157E-11,1.E-01,0.;              0000189P0000115
110,0.,0.1,0.,360.,0.1,0.;                                       0000191P0000116
510,195,2,1,203,205;                                             0000193P0000117
190,197,199,201;                                                 0000195P0000118
116,0.,0.,8.625,0;                                               0000197P0000119
123,0.,0.,1.;                                                    0000199P0000120
123,1.,0.,-0.;                                                   0000201P0000121
508,1,0,17,9,1,0;                                                0000203P0000122
508,1,0,17,10,0,0;                                               0000205P0000123
510,209,1,1,217;                                                 0000207P0000124
192,211,213,9.,215;                                              0000209P0000125
116,0.,0.,0.,0;                                                  0000211P0000126
123,0.,0.,1.;                                                    0000213P0000127
123,1.,0.,-0.;                                                   0000215P0000128
508,4,0,17,11,1,1,0,219,0,17,12,0,1,0,221,0,17,11,0,1,0,223,0,   0000217P0000129
17,13,1,1,0,225;                                                 0000217P0000130
110,360.,0.1,0.,360.,0.9,0.;                                     0000219P0000131
110,360.,0.9,0.,0.,0.9,0.;                                       0000221P0000132
110,2.37142157E-11,0.9,0.,2.37142157E-11,0.1,0.;                 0000223P0000133
110,0.,0.1,0.,360.,0.1,0.;                                       0000225P0000134
510,229,1,1,237;                                                 0000227P0000135
194,231,233,9.,45.,235;                                          0000229P0000136
116,0.,0.,7.6,0;                                                 0000231P0000137
123,0.,0.,1.;                                                    0000233P0000138
123,1.,0.,-0.;                                                   0000235P0000139
508,4,0,17,14,1,1,0,239,0,17,15,0,1,0,241,0,17,8,0,1,0,243,0,17, 0000237P0000140
15,1,1,0,245;                                                    0000237P0000141
110,0.,-0.141421356,0.,360.,-0.141421356,0.;                     0000239P0000142
126,1,1,1,0,1,0,0.,0.,0.141421356,0.141421356,1.,1.,360.,        0000241P0000143
-0.141421356,-0.,360.,0.,0.,0.,0.141421356,0.,0.,1.;             0000241P0000144
110,360.,0.,0.,0.,0.,0.;                                         0000243P0000145
126,1,1,1,0,1,0,0.,0.,0.141421356,0.141421356,1.,1.,             0000245P0000146
2.37142157E-11,0.,0.,2.37142157E-11,-0.141421356,-0.,0.,         0000245P0000147
0.141421356,0.,0.,1.;                                            0000245P0000148
510,249,2,1,257,259;                                             0000247P0000149
190,251,253,255;                                                 0000249P0000150
116,0.,0.,7.5,0;                                                 0000251P0000151
123,0.,0.,1.;                                                    0000253P0000152
123,1.,0.,-0.;                                                   0000255P0000153
508,1,0,17,14,1,0;                                               0000257P0000154
508,1,0,17,16,0,0;                                               0000259P0000155
510,263,2,1,271,273;                                             0000261P0000156
190,265,267,269;                                                 0000263P0000157
116,0.,0.,8.5,0;                                                 0000265P0000158
123,0.,0.,1.;                                                    0000267P0000159
123,1.,0.,-0.;                                                   0000269P0000160
508,1,0,17,17,1,0;                                               0000271P0000161
508,1,0,17,18,0,0;                                               0000273P0000162
510,277,1,1,285;                                                 0000275P0000163
192,279,281,3.,283;                                              0000277P0000164
116,0.,0.,-0.125,0;                                              0000279P0000165
123,0.,0.,1.;                                                    0000281P0000166
123,1.,0.,-0.;                                                   0000283P0000167
508,4,0,17,19,1,1,0,287,0,17,20,0,1,0,289,0,17,19,0,1,0,291,0,   0000285P0000168
17,18,1,1,0,293;                                                 0000285P0000169
110,360.,8.625,0.,360.,8.75,0.;                                  0000287P0000170
110,360.,8.75,0.,0.,8.75,0.;                                     0000289P0000171
110,2.37142157E-11,8.75,0.,2.37142157E-11,8.625,0.;              0000291P0000172
110,0.,8.625,0.,360.,8.625,0.;                                   0000293P0000173
510,297,2,1,305,307;                                             0000295P0000174
190,299,301,303;                                                 0000297P0000175
116,0.,0.,0.,0;                                                  0000299P0000176
123,0.,0.,1.;                                                    0000301P0000177
123,1.,0.,-0.;                                                   0000303P0000178
508,1,0,17,21,1,0;                                               0000305P0000179
508,1,0,17,22,0,0;                                               0000307P0000180
510,311,1,1,319;                                                 0000309P0000181
192,313,315,4.,317;                                              0000311P0000182
116,0.,0.,-0.125,0;                                              0000313P0000183
123,0.,0.,1.;                                                    0000315P0000184
123,1.,0.,-0.;                                                   0000317P0000185
508,4,0,17,17,1,1,0,321,0,17,23,1,1,0,323,0,17,10,0,1,0,325,0,   0000319P0000186
17,23,0,1,0,327;                                                 0000319P0000187
110,0.,8.625,0.,360.,8.625,0.;                                   0000321P0000188
110,360.,8.625,0.,360.,8.75,0.;                                  0000323P0000189
110,360.,8.75,0.,0.,8.75,0.;                                     0000325P0000190
110,2.37142157E-11,8.75,0.,2.37142157E-11,8.625,0.;              0000327P0000191
510,331,1,1,339;                                                 0000329P0000192
194,333,335,9.,45.,337;                                          0000331P0000193
116,0.,0.,0.9,0;                                                 0000333P0000194
123,-0.,-0.,-1.;                                                 0000335P0000195
123,1.,0.,0.;                                                    0000337P0000196
508,4,0,17,24,0,1,0,341,0,17,12,1,1,0,343,0,17,24,1,1,0,345,0,   0000339P0000197
17,1,0,1,0,347;                                                  0000339P0000198
126,1,1,1,0,1,0,0.,0.,0.141421356,0.141421356,1.,1.,360.,        0000341P0000199
-0.141421356,-0.,360.,0.,0.,0.,0.141421356,0.,0.,1.;             0000341P0000200
110,360.,0.,0.,0.,0.,0.;                                         0000343P0000201
126,1,1,1,0,1,0,0.,0.,0.141421356,0.141421356,1.,1.,             0000345P0000202
-2.37142157E-11,0.,0.,-2.37142157E-11,-0.141421356,0.,0.,        0000345P0000203
0.141421356,0.,0.,1.;                                            0000345P0000204
110,0.,-0.141421356,0.,360.,-0.141421356,0.;                     0000347P0000205
510,351,2,1,359,361;                                             0000349P0000206
190,353,355,357;                                                 0000351P0000207
116,0.,0.,8.625,0;                                               0000353P0000208
123,0.,0.,1.;                                                    0000355P0000209
123,1.,0.,-0.;                                                   0000357P0000210
508,1,0,17,20,1,0;                                               0000359P0000211
508,1,0,17,25,0,0;                                               0000361P0000212
510,365,2,1,373,375;                                             0000363P0000213
190,367,369,371;                                                 0000365P0000214
116,0.,0.,0.,0;                                                  0000367P0000215
123,0.,0.,1.;                                                    0000369P0000216
123,1.,0.,-0.;                                                   0000371P0000217
508,1,0,17,26,1,0;                                               0000373P0000218
508,1,0,17,27,0,0;                                               0000375P0000219
510,379,1,1,387;                                                 0000377P0000220
192,381,383,2.5,385;                                             0000379P0000221
116,0.,0.,-0.125,0;                                              0000381P0000222
123,0.,0.,1.;                                                    0000383P0000223
123,1.,0.,-0.;                                                   0000385P0000224
508,4,0,17,28,1,1,0,389,0,17,25,0,1,0,391,0,17,28,0,1,0,393,0,   0000387P0000225
17,29,1,1,0,395;                                                 0000387P0000226
110,360.,0.,0.,360.,8.75,0.;                                     0000389P0000227
110,360.,8.75,0.,0.,8.75,0.;                                     0000391P0000228
110,2.37142157E-11,8.75,0.,2.37142157E-11,0.,0.;                 0000393P0000229
110,0.,0.,0.,360.,0.,0.;                                         0000395P0000230
510,399,2,1,407,409;                                             0000397P0000231
190,401,403,405;                                                 0000399P0000232
116,0.,0.,-0.125,0;                                              0000401P0000233
123,0.,0.,1.;                                                    0000403P0000234
123,1.,0.,-0.;                                                   0000405P0000235
508,1,0,17,30,1,0;                                               0000407P0000236
508,1,0,17,29,0,0;                                               0000409P0000237
510,413,1,1,421;                                                 0000411P0000238
192,415,417,3.,419;                                              0000413P0000239
116,0.,0.,-0.125,0;                                              0000415P0000240
123,0.,0.,1.;                                                    0000417P0000241
123,1.,0.,-0.;                                                   0000419P0000242
508,4,0,17,27,0,1,0,423,0,17,31,0,1,0,425,0,17,30,1,1,0,427,0,   0000421P0000243
17,31,1,1,0,429;                                                 0000421P0000244
110,360.,0.125,0.,0.,0.125,0.;                                   0000423P0000245
110,0.,0.125,0.,0.,0.,0.;                                        0000425P0000246
110,0.,0.,0.,360.,0.,0.;                                         0000427P0000247
110,360.,0.,0.,360.,0.125,0.;                                    0000429P0000248
510,433,1,1,441;                                                 0000431P0000249
192,435,437,4.5,439;                                             0000433P0000250
116,0.,0.,-0.125,0;                                              0000435P0000251
123,0.,0.,1.;                                                    0000437P0000252
123,1.,0.,-0.;                                                   0000439P0000253
508,4,0,17,22,0,1,0,443,0,17,32,0,1,0,445,0,17,33,1,1,0,447,0,   0000441P0000254
17,32,1,1,0,449;                                                 0000441P0000255
110,360.,0.125,0.,0.,0.125,0.;                                   0000443P0000256
110,0.,0.125,0.,0.,0.,0.;                                        0000445P0000257
110,0.,0.,0.,360.,0.,0.;                                         0000447P0000258
110,360.,0.,0.,360.,0.125,0.;                                    0000449P0000259
510,453,1,1,461;                                                 0000451P0000260
192,455,457,4.,459;                                              0000453P0000261
116,0.,0.,-0.125,0;                                              0000455P0000262
123,0.,0.,1.;                                                    0000457P0000263
123,1.,0.,-0.;                                                   0000459P0000264
508,4,0,17,34,1,1,0,463,0,17,35,1,1,0,465,0,17,26,0,1,0,467,0,   0000461P0000265
17,35,0,1,0,469;                                                 0000461P0000266
110,0.,0.,0.,360.,0.,0.;                                         0000463P0000267
110,360.,0.,0.,360.,0.125,0.;                                    0000465P0000268
110,360.,0.125,0.,0.,0.125,0.;                                   0000467P0000269
110,2.37142157E-11,0.125,0.,2.37142157E-11,0.,0.;                0000469P0000270
510,473,1,1,481;                                                 0000471P0000271
192,475,477,6.125,479;                                           0000473P0000272
116,0.,0.,1.,0;                                                  0000475P0000273
123,0.,0.,1.;                                                    0000477P0000274
123,1.,0.,-0.;                                                   0000479P0000275
508,4,0,17,36,1,1,0,483,0,17,16,0,1,0,485,0,17,36,0,1,0,487,0,   0000481P0000276
17,2,1,1,0,489;                                                  0000481P0000277
110,360.,0.,0.,360.,6.5,0.;                                      0000483P0000278
110,360.,6.5,0.,0.,6.5,0.;                                       0000485P0000279
110,2.37142157E-11,6.5,0.,2.37142157E-11,0.,0.;                  0000487P0000280
110,0.,0.,0.,360.,0.,0.;                                         0000489P0000281
510,493,1,1,501;                                                 0000491P0000282
194,495,497,9.,45.,499;                                          0000493P0000283
116,0.,0.,0.1,0;                                                 0000495P0000284
123,0.,0.,1.;                                                    0000497P0000285
123,1.,0.,-0.;                                                   0000499P0000286
508,4,0,17,21,1,1,0,503,0,17,37,0,1,0,505,0,17,13,0,1,0,507,0,   0000501P0000287
17,37,1,1,0,509;                                                 0000501P0000288
110,0.,-0.141421356,0.,360.,-0.141421356,0.;                     0000503P0000289
126,1,1,1,0,1,0,0.,0.,0.141421356,0.141421356,1.,1.,360.,        0000505P0000290
-0.141421356,-0.,360.,0.,0.,0.,0.141421356,0.,0.,1.;             0000505P0000291
110,360.,0.,0.,0.,0.,0.;                                         0000507P0000292
126,1,1,1,0,1,0,0.,0.,0.141421356,0.141421356,1.,1.,             0000509P0000293
2.37142157E-11,0.,0.,2.37142157E-11,-0.141421356,-0.,0.,         0000509P0000294
0.141421356,0.,0.,1.;                                            0000509P0000295
510,513,1,1,521;                                                 0000511P0000296
192,515,517,4.5,519;                                             0000513P0000297
116,0.,0.,-0.125,0;                                              0000515P0000298
123,0.,0.,1.;                                                    0000517P0000299
123,1.,0.,-0.;                                                   0000519P0000300
508,4,0,17,38,1,1,0,523,0,17,9,0,1,0,525,0,17,38,0,1,0,527,0,17, 0000521P0000301
6,1,1,0,529;                                                     0000521P0000302
110,360.,8.625,0.,360.,8.75,0.;                                  0000523P0000303
110,360.,8.75,0.,0.,8.75,0.;                                     0000525P0000304
110,2.37142157E-11,8.75,0.,2.37142157E-11,8.625,0.;              0000527P0000305
110,0.,8.625,0.,360.,8.625,0.;                                   0000529P0000306
510,533,2,1,541,543;                                             0000531P0000307
190,535,537,539;                                                 0000533P0000308
116,0.,0.,-0.125,0;                                              0000535P0000309
123,0.,0.,1.;                                                    0000537P0000310
123,1.,0.,-0.;                                                   0000539P0000311
508,1,0,17,33,1,0;                                               0000541P0000312
508,1,0,17,34,0,0;                                               0000543P0000313
S      1G      4D    544P    313                                        T0000001
