                                                                        S0000001
,,31HOpen CASCADE IGES processor 7.9,13HFilename.iges,                  G0000001
16HOpen CASCADE 7.9,31HOpen CASCADE IGES processor 7.9,32,308,15,308,15,G0000002
,1.,2,2HMM,1,0.01,15H20261004.214557,1E-07,47.742965,7Hjiayuxu,,11,0,   G0000003
15H20261004.214557,;                                                    G0000004
     402       1       0       0       0       0       0       000000000D0000001
     402       0       0       1       1                               0D0000002
     186       2       0       0       0       0       0       000020000D0000003
     186       0       0       1       0                               0D0000004
     514       3       0       0       0       0       0       000010000D0000005
     514       0       0       2       1                               0D0000006
     510       5       0       0       0       0       0       000010000D0000007
     510       0       0       1       1                               0D0000008
     190       6       0       0       0       0       0       000010000D0000009
     190       0       0       1       1                               0D0000010
     116       7       0       0       0       0       0       000010400D0000011
     116       0       0       1       0                               0D0000012
     123       8       0       0       0       0       0       000010200D0000013
     123       0       0       1       0                               0D0000014
     123       9       0       0       0       0       0       000010200D0000015
     123       0       0       1       0                               0D0000016
     508      10       0       0       0       0       0       000010000D0000017
     508       0       0       1       1                               0D0000018
     504      11       0       0       0       0       0       000010001D0000019
     504       0       0       9       1                               0D0000020
     100      20       0       0       0       0      23       000010000D0000021
     100       0       0       1       0                               0D0000022
     124      21       0       0       0       0       0       000000000D0000023
     124       0       0       1       0                               0D0000024
     502      22       0       0       0       0       0       000010000D0000025
     502       0       0       7       1                               0D0000026
     100      29       0       0       0       0      29       000010000D0000027
     100       0       0       1       0                               0D0000028
     124      30       0       0       0       0       0       000000000D0000029
     124       0       0       1       0                               0D0000030
     100      31       0       0       0       0      33       000010000D0000031
     100       0       0       1       0                               0D0000032
     124      32       0       0       0       0       0       000000000D0000033
     124       0       0       1       0                               0D0000034
     100      33       0       0       0       0      37       000010000D0000035
     100       0       0       1       0                               0D0000036
     124      34       0       0       0       0       0       000000000D0000037
     124       0       0       1       0                               0D0000038
     110      35       0       0       0       0       0       000010000D0000039
     110       0       0       1       0                               0D0000040
     100      36       0       0       0       0      43       000010000D0000041
     100       0       0       1       0                               0D0000042
     124      37       0       0       0       0       0       000000000D0000043
     124       0       0       1       0                               0D0000044
     110      38       0       0       0       0       0       000010000D0000045
     110       0       0       1       0                               0D0000046
     100      39       0       0       0       0      49       000010000D0000047
     100       0       0       1       0                               0D0000048
     124      40       0       0       0       0       0       000000000D0000049
     124       0       0       1       0                               0D0000050
     100      41       0       0       0       0      53       000010000D0000051
     100       0       0       1       0                               0D0000052
     124      42       0       0       0       0       0       000000000D0000053
     124       0       0       1       0                               0D0000054
     100      43       0       0       0       0      57       000010000D0000055
     100       0       0       1       0                               0D0000056
     124      44       0       0       0       0       0       000000000D0000057
     124       0       0       1       0                               0D0000058
     100      45       0       0       0       0      61       000010000D0000059
     100       0       0       1       0                               0D0000060
     124      46       0       0       0       0       0       000000000D0000061
     124       0       0       1       0                               0D0000062
     100      47       0       0       0       0      65       000010000D0000063
     100       0       0       1       0                               0D0000064
     124      48       0       0       0       0       0       000000000D0000065
     124       0       0       1       0                               0D0000066
     110      49       0       0       0       0       0       000010000D0000067
     110       0       0       1       0                               0D0000068
     100      50       0       0       0       0      71       000010000D0000069
     100       0       0       1       0                               0D0000070
     124      51       0       0       0       0       0       000000000D0000071
     124       0       0       1       0                               0D0000072
     100      52       0       0       0       0      75       000010000D0000073
     100       0       0       1       0                               0D0000074
     124      53       0       0       0       0       0       000000000D0000075
     124       0       0       2       0                               0D0000076
     100      55       0       0       0       0      79       000010000D0000077
     100       0       0       1       0                               0D0000078
     124      56       0       0       0       0       0       000000000D0000079
     124       0       0       3       0                               0D0000080
     100      59       0       0       0       0      83       000010000D0000081
     100       0       0       1       0                               0D0000082
     124      60       0       0       0       0       0       000000000D0000083
     124       0       0       2       0                               0D0000084
     100      62       0       0       0       0      87       000010000D0000085
     100       0       0       1       0                               0D0000086
     124      63       0       0       0       0       0       000000000D0000087
     124       0       0       3       0                               0D0000088
     100      66       0       0       0       0      91       000010000D0000089
     100       0       0       1       0                               0D0000090
     124      67       0       0       0       0       0       000000000D0000091
     124       0       0       1       0                               0D0000092
     100      68       0       0       0       0      95       000010000D0000093
     100       0       0       1       0                               0D0000094
     124      69       0       0       0       0       0       000000000D0000095
     124       0       0       1       0                               0D0000096
     100      70       0       0       0       0      99       000010000D0000097
     100       0       0       1       0                               0D0000098
     124      71       0       0       0       0       0       000000000D0000099
     124       0       0       1       0                               0D0000100
     100      72       0       0       0       0     103       000010000D0000101
     100       0       0       1       0                               0D0000102
     124      73       0       0       0       0       0       000000000D0000103
     124       0       0       1       0                               0D0000104
     100      74       0       0       0       0     107       000010000D0000105
     100       0       0       1       0                               0D0000106
     124      75       0       0       0       0       0       000000000D0000107
     124       0       0       3       0                               0D0000108
     110      78       0       0       0       0       0       000010000D0000109
     110       0       0       1       0                               0D0000110
     100      79       0       0       0       0     113       000010000D0000111
     100       0       0       1       0                               0D0000112
     124      80       0       0       0       0       0       000000000D0000113
     124       0       0       3       0                               0D0000114
     110      83       0       0       0       0       0       000010000D0000115
     110       0       0       1       0                               0D0000116
     100      84       0       0       0       0     119       000010000D0000117
     100       0       0       1       0                               0D0000118
     124      85       0       0       0       0       0       000000000D0000119
     124       0       0       2       0                               0D0000120
     110      87       0       0       0       0       0       000010000D0000121
     110       0       0       1       0                               0D0000122
     100      88       0       0       0       0     125       000010000D0000123
     100       0       0       1       0                               0D0000124
     124      89       0       0       0       0       0       000000000D0000125
     124       0       0       3       0                               0D0000126
     110      92       0       0       0       0       0       000010000D0000127
     110       0       0       1       0                               0D0000128
     100      93       0       0       0       0     131       000010000D0000129
     100       0       0       1       0                               0D0000130
     124      94       0       0       0       0       0       000000000D0000131
     124       0       0       1       0                               0D0000132
     110      95       0       0       0       0       0       000010000D0000133
     110       0       0       1       0                               0D0000134
     100      96       0       0       0       0     137       000010000D0000135
     100       0       0       1       0                               0D0000136
     124      97       0       0       0       0       0       000000000D0000137
     124       0       0       1       0                               0D0000138
     100      98       0       0       0       0     141       000010000D0000139
     100       0       0       1       0                               0D0000140
     124      99       0       0       0       0       0       000000000D0000141
     124       0       0       1       0                               0D0000142
     100     100       0       0       0       0     145       000010000D0000143
     100       0       0       1       0                               0D0000144
     124     101       0       0       0       0       0       000000000D0000145
     124       0       0       1       0                               0D0000146
     100     102       0       0       0       0     149       000010000D0000147
     100       0       0       1       0                               0D0000148
     124     103       0       0       0       0       0       000000000D0000149
     124       0       0       1       0                               0D0000150
     110     104       0       0       0       0       0       000010000D0000151
     110       0       0       1       0                               0D0000152
     508     105       0       0       0       0       0       000010000D0000153
     508       0       0       1       1                               0D0000154
     510     106       0       0       0       0       0       000010000D0000155
     510       0       0       1       1                               0D0000156
     198     107       0       0       0       0       0       000010000D0000157
     198       0       0       1       1                               0D0000158
     116     108       0       0       0       0       0       000010400D0000159
     116       0       0       1       0                               0D0000160
     123     109       0       0       0       0       0       000010200D0000161
     123       0       0       1       0                               0D0000162
     123     110       0       0       0       0       0       000010200D0000163
     123       0       0       1       0                               0D0000164
     508     111       0       0       0       0       0       000010000D0000165
     508       0       0       2       1                               0D0000166
     110     113       0       0       0       0       0       000010000D0000167
     110       0       0       1       0                               0D0000168
     126     114       0       0       0       0       0       000010000D0000169
     126       0       0      16       0                               0D0000170
     110     130       0       0       0       0       0       000010000D0000171
     110       0       0       1       0                               0D0000172
     126     131       0       0       0       0       0       000010000D0000173
     126       0       0      16       0                               0D0000174
     510     147       0       0       0       0       0       000010000D0000175
     510       0       0       1       1                               0D0000176
     194     148       0       0       0       0       0       000010000D0000177
     194       0       0       1       1                               0D0000178
     116     149       0       0       0       0       0       000010400D0000179
     116       0       0       1       0                               0D0000180
     123     150       0       0       0       0       0       000010200D0000181
     123       0       0       1       0                               0D0000182
     123     151       0       0       0       0       0       000010200D0000183
     123       0       0       1       0                               0D0000184
     508     152       0       0       0       0       0       000010000D0000185
     508       0       0       2       1                               0D0000186
     110     154       0       0       0       0       0       000010000D0000187
     110       0       0       1       0                               0D0000188
     110     155       0       0       0       0       0       000010000D0000189
     110       0       0       1       0                               0D0000190
     110     156       0       0       0       0       0       000010000D0000191
     110       0       0       1       0                               0D0000192
     110     157       0       0       0       0       0       000010000D0000193
     110       0       0       1       0                               0D0000194
     510     158       0       0       0       0       0       000010000D0000195
     510       0       0       1       1                               0D0000196
     192     159       0       0       0       0       0       000010000D0000197
     192       0       0       1       1                               0D0000198
     116     160       0       0       0       0       0       000010400D0000199
     116       0       0       1       0                               0D0000200
     123     161       0       0       0       0       0       000010200D0000201
     123       0       0       1       0                               0D0000202
     123     162       0       0       0       0       0       000010200D0000203
     123       0       0       1       0                               0D0000204
     508     163       0       0       0       0       0       000010000D0000205
     508       0       0       2       1                               0D0000206
     110     165       0       0       0       0       0       000010000D0000207
     110       0       0       1       0                               0D0000208
     126     166       0       0       0       0       0       000010000D0000209
     126       0       0      17       0                               0D0000210
     110     183       0       0       0       0       0       000010000D0000211
     110       0       0       1       0                               0D0000212
     126     184       0       0       0       0       0       000010000D0000213
     126       0       0      16       0                               0D0000214
     510     200       0       0       0       0       0       000010000D0000215
     510       0       0       1       1                               0D0000216
     190     201       0       0       0       0       0       000010000D0000217
     190       0       0       1       1                               0D0000218
     116     202       0       0       0       0       0       000010400D0000219
     116       0       0       1       0                               0D0000220
     123     203       0       0       0       0       0       000010200D0000221
     123       0       0       1       0                               0D0000222
     123     204       0       0       0       0       0       000010200D0000223
     123       0       0       1       0                               0D0000224
     508     205       0       0       0       0       0       000010000D0000225
     508       0       0       1       1                               0D0000226
     508     206       0       0       0       0       0       000010000D0000227
     508       0       0       1       1                               0D0000228
     510     207       0       0       0       0       0       000010000D0000229
     510       0       0       1       1                               0D0000230
     198     208       0       0       0       0       0       000010000D0000231
     198       0       0       1       1                               0D0000232
     116     209       0       0       0       0       0       000010400D0000233
     116       0       0       1       0                               0D0000234
     123     210       0       0       0       0       0       000010200D0000235
     123       0       0       1       0                               0D0000236
     123     211       0       0       0       0       0       000010200D0000237
     123       0       0       1       0                               0D0000238
     508     212       0       0       0       0       0       000010000D0000239
     508       0       0       2       1                               0D0000240
     110     214       0       0       0       0       0       000010000D0000241
     110       0       0       1       0                               0D0000242
     126     215       0       0       0       0       0       000010000D0000243
     126       0       0      16       0                               0D0000244
     110     231       0       0       0       0       0       000010000D0000245
     110       0       0       1       0                               0D0000246
     126     232       0       0       0       0       0       000010000D0000247
     126       0       0      16       0                               0D0000248
     510     248       0       0       0       0       0       000010000D0000249
     510       0       0       1       1                               0D0000250
     192     249       0       0       0       0       0       000010000D0000251
     192       0       0       1       1                               0D0000252
     116     250       0       0       0       0       0       000010400D0000253
     116       0       0       1       0                               0D0000254
     123     251       0       0       0       0       0       000010200D0000255
     123       0       0       1       0                               0D0000256
     123     252       0       0       0       0       0       000010200D0000257
     123       0       0       1       0                               0D0000258
     508     253       0       0       0       0       0       000010000D0000259
     508       0       0       2       1                               0D0000260
     110     255       0       0       0       0       0       000010000D0000261
     110       0       0       1       0                               0D0000262
     110     256       0       0       0       0       0       000010000D0000263
     110       0       0       1       0                               0D0000264
     110     257       0       0       0       0       0       000010000D0000265
     110       0       0       1       0                               0D0000266
     110     258       0       0       0       0       0       000010000D0000267
     110       0       0       1       0                               0D0000268
     510     259       0       0       0       0       0       000010000D0000269
     510       0       0       1       1                               0D0000270
     190     260       0       0       0       0       0       000010000D0000271
     190       0       0       1       1                               0D0000272
     116     261       0       0       0       0       0       000010400D0000273
     116       0       0       1       0                               0D0000274
     123     262       0       0       0       0       0       000010200D0000275
     123       0       0       1       0                               0D0000276
     123     263       0       0       0       0       0       000010200D0000277
     123       0       0       1       0                               0D0000278
     508     264       0       0       0       0       0       000010000D0000279
     508       0       0       1       1                               0D0000280
     508     265       0       0       0       0       0       000010000D0000281
     508       0       0       1       1                               0D0000282
     508     266       0       0       0       0       0       000010000D0000283
     508       0       0       1       1                               0D0000284
     508     267       0       0       0       0       0       000010000D0000285
     508       0       0       1       1                               0D0000286
     508     268       0       0       0       0       0       000010000D0000287
     508       0       0       1       1                               0D0000288
     508     269       0       0       0       0       0       000010000D0000289
     508       0       0       1       1                               0D0000290
     510     270       0       0       0       0       0       000010000D0000291
     510       0       0       1       1                               0D0000292
     198     271       0       0       0       0       0       000010000D0000293
     198       0       0       1       1                               0D0000294
     116     272       0       0       0       0       0       000010400D0000295
     116       0       0       1       0                               0D0000296
     123     273       0       0       0       0       0       000010200D0000297
     123       0       0       1       0                               0D0000298
     123     274       0       0       0       0       0       000010200D0000299
     123       0       0       1       0                               0D0000300
     508     275       0       0       0       0       0       000010000D0000301
     508       0       0       2       1                               0D0000302
     110     277       0       0       0       0       0       000010000D0000303
     110       0       0       1       0                               0D0000304
     126     278       0       0       0       0       0       000010000D0000305
     126       0       0      16       0                               0D0000306
     110     294       0       0       0       0       0       000010000D0000307
     110       0       0       1       0                               0D0000308
     126     295       0       0       0       0       0       000010000D0000309
     126       0       0      16       0                               0D0000310
     510     311       0       0       0       0       0       000010000D0000311
     510       0       0       1       1                               0D0000312
     198     312       0       0       0       0       0       000010000D0000313
     198       0       0       1       1                               0D0000314
     116     313       0       0       0       0       0       000010400D0000315
     116       0       0       1       0                               0D0000316
     123     314       0       0       0       0       0       000010200D0000317
     123       0       0       1       0                               0D0000318
     123     315       0       0       0       0       0       000010200D0000319
     123       0       0       1       0                               0D0000320
     508     316       0       0       0       0       0       000010000D0000321
     508       0       0       2       1                               0D0000322
     110     318       0       0       0       0       0       000010000D0000323
     110       0       0       1       0                               0D0000324
     126     319       0       0       0       0       0       000010000D0000325
     126       0       0      16       0                               0D0000326
     110     335       0       0       0       0       0       000010000D0000327
     110       0       0       1       0                               0D0000328
     126     336       0       0       0       0       0       000010000D0000329
     126       0       0      21       0                               0D0000330
     510     357       0       0       0       0       0       000010000D0000331
     510       0       0       1       1                               0D0000332
     192     358       0       0       0       0       0       000010000D0000333
     192       0       0       1       1                               0D0000334
     116     359       0       0       0       0       0       000010400D0000335
     116       0       0       1       0                               0D0000336
     123     360       0       0       0       0       0       000010200D0000337
     123       0       0       1       0                               0D0000338
     123     361       0       0       0       0       0       000010200D0000339
     123       0       0       1       0                               0D0000340
     508     362       0       0       0       0       0       000010000D0000341
     508       0       0       2       1                               0D0000342
     110     364       0       0       0       0       0       000010000D0000343
     110       0       0       1       0                               0D0000344
     110     365       0       0       0       0       0       000010000D0000345
     110       0       0       1       0                               0D0000346
     110     366       0       0       0       0       0       000010000D0000347
     110       0       0       1       0                               0D0000348
     110     367       0       0       0       0       0       000010000D0000349
     110       0       0       1       0                               0D0000350
     510     368       0       0       0       0       0       000010000D0000351
     510       0       0       1       1                               0D0000352
     192     369       0       0       0       0       0       000010000D0000353
     192       0       0       1       1                               0D0000354
     116     370       0       0       0       0       0       000010400D0000355
     116       0       0       1       0                               0D0000356
     123     371       0       0       0       0       0       000010200D0000357
     123       0       0       1       0                               0D0000358
     123     372       0       0       0       0       0       000010200D0000359
     123       0       0       1       0                               0D0000360
     508     373       0       0       0       0       0       000010000D0000361
     508       0       0       2       1                               0D0000362
     110     375       0       0       0       0       0       000010000D0000363
     110       0       0       1       0                               0D0000364
     110     376       0       0       0       0       0       000010000D0000365
     110       0       0       1       0                               0D0000366
     110     377       0       0       0       0       0       000010000D0000367
     110       0       0       1       0                               0D0000368
     110     378       0       0       0       0       0       000010000D0000369
     110       0       0       1       0                               0D0000370
     510     379       0       0       0       0       0       000010000D0000371
     510       0       0       1       1                               0D0000372
     192     380       0       0       0       0       0       000010000D0000373
     192       0       0       1       1                               0D0000374
     116     381       0       0       0       0       0       000010400D0000375
     116       0       0       1       0                               0D0000376
     123     382       0       0       0       0       0       000010200D0000377
     123       0       0       1       0                               0D0000378
     123     383       0       0       0       0       0       000010200D0000379
     123       0       0       1       0                               0D0000380
     508     384       0       0       0       0       0       000010000D0000381
     508       0       0       2       1                               0D0000382
     110     386       0       0       0       0       0       000010000D0000383
     110       0       0       1       0                               0D0000384
     110     387       0       0       0       0       0       000010000D0000385
     110       0       0       1       0                               0D0000386
     110     388       0       0       0       0       0       000010000D0000387
     110       0       0       1       0                               0D0000388
     110     389       0       0       0       0       0       000010000D0000389
     110       0       0       1       0                               0D0000390
     510     390       0       0       0       0       0       000010000D0000391
     510       0       0       1       1                               0D0000392
     192     391       0       0       0       0       0       000010000D0000393
     192       0       0       1       1                               0D0000394
     116     392       0       0       0       0       0       000010400D0000395
     116       0       0       1       0                               0D0000396
     123     393       0       0       0       0       0       000010200D0000397
     123       0       0       1       0                               0D0000398
     123     394       0       0       0       0       0       000010200D0000399
     123       0       0       1       0                               0D0000400
     508     395       0       0       0       0       0       000010000D0000401
     508       0       0       2       1                               0D0000402
     110     397       0       0       0       0       0       000010000D0000403
     110       0       0       1       0                               0D0000404
     110     398       0       0       0       0       0       000010000D0000405
     110       0       0       1       0                               0D0000406
     110     399       0       0       0       0       0       000010000D0000407
     110       0       0       1       0                               0D0000408
     110     400       0       0       0       0       0       000010000D0000409
     110       0       0       1       0                               0D0000410
     510     401       0       0       0       0       0       000010000D0000411
     510       0       0       1       1                               0D0000412
     190     402       0       0       0       0       0       000010000D0000413
     190       0       0       1       1                               0D0000414
     116     403       0       0       0       0       0       000010400D0000415
     116       0       0       1       0                               0D0000416
     123     404       0       0       0       0       0       000010200D0000417
     123       0       0       1       0                               0D0000418
     123     405       0       0       0       0       0       000010200D0000419
     123       0       0       1       0                               0D0000420
     508     406       0       0       0       0       0       000010000D0000421
     508       0       0       1       1                               0D0000422
     508     407       0       0       0       0       0       000010000D0000423
     508       0       0       1       1                               0D0000424
     508     408       0       0       0       0       0       000010000D0000425
     508       0       0       1       1                               0D0000426
     508     409       0       0       0       0       0       000010000D0000427
     508       0       0       1       1                               0D0000428
     508     410       0       0       0       0       0       000010000D0000429
     508       0       0       1       1                               0D0000430
     508     411       0       0       0       0       0       000010000D0000431
     508       0       0       1       1                               0D0000432
     510     412       0       0       0       0       0       000010000D0000433
     510       0       0       1       1                               0D0000434
     192     413       0       0       0       0       0       000010000D0000435
     192       0       0       1       1                               0D0000436
     116     414       0       0       0       0       0       000010400D0000437
     116       0       0       1       0                               0D0000438
     123     415       0       0       0       0       0       000010200D0000439
     123       0       0       1       0                               0D0000440
     123     416       0       0       0       0       0       000010200D0000441
     123       0       0       1       0                               0D0000442
     508     417       0       0       0       0       0       000010000D0000443
     508       0       0       2       1                               0D0000444
     110     419       0       0       0       0       0       000010000D0000445
     110       0       0       1       0                               0D0000446
     126     420       0       0       0       0       0       000010000D0000447
     126       0       0      18       0                               0D0000448
     110     438       0       0       0       0       0       000010000D0000449
     110       0       0       1       0                               0D0000450
     126     439       0       0       0       0       0       000010000D0000451
     126       0       0      16       0                               0D0000452
     510     455       0       0       0       0       0       000010000D0000453
     510       0       0       1       1                               0D0000454
     198     456       0       0       0       0       0       000010000D0000455
     198       0       0       1       1                               0D0000456
     116     457       0       0       0       0       0       000010400D0000457
     116       0       0       1       0                               0D0000458
     123     458       0       0       0       0       0       000010200D0000459
     123       0       0       1       0                               0D0000460
     123     459       0       0       0       0       0       000010200D0000461
     123       0       0       1       0                               0D0000462
     508     460       0       0       0       0       0       000010000D0000463
     508       0       0       2       1                               0D0000464
     110     462       0       0       0       0       0       000010000D0000465
     110       0       0       1       0                               0D0000466
     126     463       0       0       0       0       0       000010000D0000467
     126       0       0      16       0                               0D0000468
     110     479       0       0       0       0       0       000010000D0000469
     110       0       0       1       0                               0D0000470
     126     480       0       0       0       0       0       000010000D0000471
     126       0       0      21       0                               0D0000472
     510     501       0       0       0       0       0       000010000D0000473
     510       0       0       1       1                               0D0000474
     190     502       0       0       0       0       0       000010000D0000475
     190       0       0       1       1                               0D0000476
     116     503       0       0       0       0       0       000010400D0000477
     116       0       0       1       0                               0D0000478
     123     504       0       0       0       0       0       000010200D0000479
     123       0       0       1       0                               0D0000480
     123     505       0       0       0       0       0       000010200D0000481
     123       0       0       1       0                               0D0000482
     508     506       0       0       0       0       0       000010000D0000483
     508       0       0       1       1                               0D0000484
     508     507       0       0       0       0       0       000010000D0000485
     508       0       0       1       1                               0D0000486
     510     508       0       0       0       0       0       000010000D0000487
     510       0       0       1       1                               0D0000488
     192     509       0       0       0       0       0       000010000D0000489
     192       0       0       1       1                               0D0000490
     116     510       0       0       0       0       0       000010400D0000491
     116       0       0       1       0                               0D0000492
     123     511       0       0       0       0       0       000010200D0000493
     123       0       0       1       0                               0D0000494
     123     512       0       0       0       0       0       000010200D0000495
     123       0       0       1       0                               0D0000496
     508     513       0       0       0       0       0       000010000D0000497
     508       0       0       2       1                               0D0000498
     110     515       0       0       0       0       0       000010000D0000499
     110       0       0       1       0                               0D0000500
     110     516       0       0       0       0       0       000010000D0000501
     110       0       0       1       0                               0D0000502
     110     517       0       0       0       0       0       000010000D0000503
     110       0       0       1       0                               0D0000504
     110     518       0       0       0       0       0       000010000D0000505
     110       0       0       1       0                               0D0000506
402,1,3;                                                         0000001P0000001
186,5,1,0;                                                       0000003P0000002
514,19,7,1,155,1,175,0,195,1,215,0,229,0,249,0,269,1,291,1,311,  0000005P0000003
0,331,0,351,0,371,0,391,0,411,0,433,0,453,1,473,1,487,1;         0000005P0000004
510,9,2,1,17,153;                                                0000007P0000005
190,11,13,15;                                                    0000009P0000006
116,0.,0.,0.,0;                                                  0000011P0000007
123,-0.,-1.,-0.;                                                 0000013P0000008
123,1.,0.,0.;                                                    0000015P0000009
508,1,0,19,1,1,0;                                                0000017P0000010
504,37,21,25,1,25,1,27,25,2,25,2,31,25,1,25,3,35,25,3,25,3,39,   0000019P0000011
25,2,25,4,41,25,4,25,4,45,25,3,25,5,47,25,5,25,5,51,25,6,25,6,   0000019P0000012
55,25,7,25,5,59,25,7,25,7,63,25,8,25,8,67,25,8,25,6,69,25,9,25,  0000019P0000013
9,73,25,10,25,10,77,25,11,25,11,81,25,12,25,12,85,25,13,25,13,   0000019P0000014
89,25,14,25,8,93,25,14,25,14,97,25,15,25,9,101,25,15,25,15,105,  0000019P0000015
25,16,25,16,109,25,16,25,10,111,25,17,25,17,115,25,17,25,11,117, 0000019P0000016
25,18,25,18,121,25,18,25,12,123,25,19,25,19,127,25,19,25,13,129, 0000019P0000017
25,20,25,20,133,25,21,25,15,135,25,21,25,21,139,25,22,25,20,143, 0000019P0000018
25,22,25,22,147,25,23,25,23,151,25,22,25,23;                     0000019P0000019
100,0.,0.,0.,21.209745,0.,21.209745,0.;                          0000021P0000020
124,1.,0.,0.,0.,0.,0.,-1.,0.,0.,1.,0.,0.;                        0000023P0000021
502,23,21.209745,0.,0.,13.465731,0.,0.,22.,0.790255,0.,12.5,3.,  0000025P0000022
0.,22.,7.709745,0.,19.,3.,0.,22.790255,8.5,0.,19.,10.5,0.,       0000025P0000023
43.709745,8.5,0.,39.25,8.5,5.472872501E-15,-4.357625372E-15,8.5, 0000025P0000024
39.25,-39.25,8.5,6.661338148E-16,8.715250743E-15,8.5,-39.25,20., 0000025P0000025
11.5,0.,44.5,7.709745,0.,39.25,11.5,4.806738687E-15,             0000025P0000026
-4.357625372E-15,11.5,39.25,-39.25,11.5,0.,8.715250743E-15,11.5, 0000025P0000027
-39.25,46.5,11.5,0.,44.5,0.,0.,47.5,10.5,0.,47.5,0.,0.;          0000025P0000028
100,0.,0.,0.,13.465731,0.,13.465731,0.;                          0000027P0000029
124,1.,0.,0.,0.,0.,0.,-1.,0.,0.,1.,0.,0.;                        0000029P0000030
100,0.,0.,0.,0.,-0.790255,0.790255,-2.220446049E-16;             0000031P0000031
124,1.,0.,0.,21.209745,0.,1.,0.,0.790255,0.,0.,1.,0.;            0000033P0000032
100,0.,0.,0.,22.,0.,22.,0.;                                      0000035P0000033
124,1.,0.,0.,0.,0.,0.,-1.,0.790255,0.,1.,0.,0.;                  0000037P0000034
110,13.465731,0.,0.,12.5,3.,0.;                                  0000039P0000035
100,0.,0.,0.,12.5,0.,12.5,0.;                                    0000041P0000036
124,1.,0.,0.,0.,0.,0.,-1.,3.,0.,1.,0.,0.;                        0000043P0000037
110,22.,0.790255,0.,22.,7.709745,0.;                             0000045P0000038
100,0.,0.,0.,22.,0.,22.,0.;                                      0000047P0000039
124,1.,0.,0.,0.,0.,0.,-1.,7.709745,0.,1.,0.,0.;                  0000049P0000040
100,0.,0.,0.,19.,0.,19.,0.;                                      0000051P0000041
124,1.,0.,0.,0.,0.,0.,-1.,3.,0.,1.,0.,0.;                        0000053P0000042
100,0.,0.,0.,0.,0.790255,-0.790255,0.;                           0000055P0000043
124,1.,0.,0.,22.790255,0.,1.,0.,7.709745,0.,0.,1.,0.;            0000057P0000044
100,0.,0.,0.,22.790255,0.,22.790255,0.;                          0000059P0000045
124,1.,0.,0.,0.,0.,0.,-1.,8.5,0.,1.,0.,0.;                       0000061P0000046
100,0.,0.,0.,19.,0.,19.,0.;                                      0000063P0000047
124,1.,0.,0.,0.,0.,0.,-1.,10.5,0.,1.,0.,0.;                      0000065P0000048
110,19.,10.5,0.,19.,3.,0.;                                       0000067P0000049
100,0.,0.,0.,43.709745,0.,43.709745,0.;                          0000069P0000050
124,1.,0.,0.,0.,0.,0.,-1.,8.5,0.,1.,0.,0.;                       0000071P0000051
100,0.,0.,0.,6.75,3.944304526E-31,6.75,3.944304526E-31;          0000073P0000052
124,1.,1.224646799E-16,0.,32.5,2.719262147E-32,-2.220446049E-16, 0000075P0000053
1.,8.5,1.224646799E-16,-1.,-2.220446049E-16,4.646235912E-15;     0000075P0000054
100,0.,0.,0.,6.75,4.314083075E-32,6.75,4.314083075E-32;          0000077P0000055
124,-1.110223025E-16,1.,4.900928389E-58,-3.60822483E-15,         0000079P0000056
2.220446049E-16,2.465190329E-32,1.,8.5,1.,1.110223025E-16,       0000079P0000057
-2.220446049E-16,32.5;                                           0000079P0000058
100,0.,0.,0.,6.75,0.,6.75,0.;                                    0000081P0000059
124,-1.,0.,0.,-32.5,0.,2.220446049E-16,1.,8.5,0.,1.,             0000083P0000060
-2.220446049E-16,6.661338148E-16;                                0000083P0000061
100,0.,0.,0.,6.75,8.628166151E-32,6.75,8.628166151E-32;          0000085P0000062
124,2.220446049E-16,-1.,9.801856779E-58,7.21644966E-15,          0000087P0000063
-2.220446049E-16,-4.930380658E-32,1.,8.5,-1.,-2.220446049E-16,   0000087P0000064
-2.220446049E-16,-32.5;                                          0000087P0000065
100,0.,0.,0.,0.,1.,-1.,0.;                                       0000089P0000066
124,1.,0.,0.,20.,0.,1.,0.,10.5,0.,0.,1.,0.;                      0000091P0000067
100,0.,0.,0.,20.,0.,20.,0.;                                      0000093P0000068
124,1.,0.,0.,0.,0.,0.,-1.,11.5,0.,1.,0.,0.;                      0000095P0000069
100,0.,0.,0.,0.790255,0.,0.,0.790255;                            0000097P0000070
124,1.,0.,0.,43.709745,0.,1.,0.,7.709745,0.,0.,1.,0.;            0000099P0000071
100,0.,0.,0.,44.5,0.,44.5,0.;                                    0000101P0000072
124,1.,0.,0.,0.,0.,0.,-1.,7.709745,0.,1.,0.,0.;                  0000103P0000073
100,0.,0.,0.,6.75,3.944304526E-31,6.75,3.944304526E-31;          0000105P0000074
124,1.,1.224646799E-16,3.284293276E-47,32.5,2.719262147E-32,     0000107P0000075
-2.220446049E-16,1.,11.5,1.224646799E-16,-1.,-2.220446049E-16,   0000107P0000076
3.980102097E-15;                                                 0000107P0000077
110,39.25,11.5,4.806738687E-15,39.25,8.5,5.472872501E-15;        0000109P0000078
100,0.,0.,0.,6.75,4.314083075E-32,6.75,4.314083075E-32;          0000111P0000079
124,-1.110223025E-16,1.,4.379057701E-47,-3.60822483E-15,         0000113P0000080
2.220446049E-16,2.465190329E-32,1.,11.5,1.,1.110223025E-16,      0000113P0000081
-2.220446049E-16,32.5;                                           0000113P0000082
110,-4.357625372E-15,11.5,39.25,-4.357625372E-15,8.5,39.25;      0000115P0000083
100,0.,0.,0.,6.75,0.,6.75,0.;                                    0000117P0000084
124,-1.,0.,0.,-32.5,0.,2.220446049E-16,1.,11.5,0.,1.,            0000119P0000085
-2.220446049E-16,0.;                                             0000119P0000086
110,-39.25,11.5,0.,-39.25,8.5,6.661338148E-16;                   0000121P0000087
100,0.,0.,0.,6.75,8.628166151E-32,6.75,8.628166151E-32;          0000123P0000088
124,2.220446049E-16,-1.,-1.31371731E-46,7.21644966E-15,          0000125P0000089
-2.220446049E-16,-4.930380658E-32,1.,11.5,-1.,-2.220446049E-16,  0000125P0000090
-2.220446049E-16,-32.5;                                          0000125P0000091
110,8.715250743E-15,11.5,-39.25,8.715250743E-15,8.5,-39.25;      0000127P0000092
100,0.,0.,0.,46.5,0.,46.5,0.;                                    0000129P0000093
124,1.,0.,0.,0.,0.,0.,-1.,11.5,0.,1.,0.,0.;                      0000131P0000094
110,44.5,0.,0.,44.5,7.709745,0.;                                 0000133P0000095
100,0.,0.,0.,44.5,0.,44.5,0.;                                    0000135P0000096
124,1.,0.,0.,0.,0.,0.,-1.,0.,0.,1.,0.,0.;                        0000137P0000097
100,0.,0.,0.,1.,0.,0.,1.;                                        0000139P0000098
124,1.,0.,0.,46.5,0.,1.,0.,10.5,0.,0.,1.,0.;                     0000141P0000099
100,0.,0.,0.,47.5,0.,47.5,0.;                                    0000143P0000100
124,1.,0.,0.,0.,0.,0.,-1.,10.5,0.,1.,0.,0.;                      0000145P0000101
100,0.,0.,0.,47.5,0.,47.5,0.;                                    0000147P0000102
124,1.,0.,0.,0.,0.,0.,-1.,0.,0.,1.,0.,0.;                        0000149P0000103
110,47.5,10.5,0.,47.5,0.,0.;                                     0000151P0000104
508,1,0,19,2,0,0;                                                0000153P0000105
510,157,1,1,165;                                                 0000155P0000106
198,159,161,21.209745,0.790255,163;                              0000157P0000107
116,0.,0.790255,0.,0;                                            0000159P0000108
123,0.,1.,0.;                                                    0000161P0000109
123,1.,0.,0.;                                                    0000163P0000110
508,4,0,19,3,1,1,0,167,0,19,4,1,1,0,169,0,19,3,0,1,0,171,0,19,1, 0000165P0000111
0,1,0,173;                                                       0000165P0000112
110,270.,2.386386508E-11,0.,360.,2.387982229E-11,0.;             0000167P0000113
126,24,3,0,0,1,0,0.,0.,0.,0.,0.285599332,0.571198664,            0000169P0000114
0.856797996,1.142397329,1.427996661,1.713595993,1.999195325,     0000169P0000115
2.284794657,2.570393989,2.855993321,3.141592654,3.427191986,     0000169P0000116
3.712791318,3.99839065,4.283989982,4.569589314,4.855188646,      0000169P0000117
5.140787979,5.426387311,5.711986643,5.997585975,6.283185307,     0000169P0000118
6.283185307,6.283185307,6.283185307,1.,1.,1.,1.,1.,1.,1.,1.,1.,  0000169P0000119
1.,1.,1.,1.,1.,1.,1.,1.,1.,1.,1.,1.,1.,1.,1.,1.,360.,            0000169P0000120
-2.356154908E-11,-0.,360.,5.454545455,0.,360.,16.363636364,0.,   0000169P0000121
360.,32.727272727,0.,360.,49.090909091,0.,360.,65.454545455,0.,  0000169P0000122
360.,81.818181818,0.,360.,98.181818182,0.,360.,114.545454545,0., 0000169P0000123
360.,130.909090909,0.,360.,147.272727273,0.,360.,163.636363636,  0000169P0000124
0.,360.,180.,0.,360.,196.363636364,0.,360.,212.727272727,0.,     0000169P0000125
360.,229.090909091,0.,360.,245.454545455,0.,360.,261.818181818,  0000169P0000126
0.,360.,278.181818182,0.,360.,294.545454545,0.,360.,             0000169P0000127
310.909090909,0.,360.,327.272727273,0.,360.,343.636363636,0.,    0000169P0000128
360.,354.545454545,0.,360.,360.,0.,0.,6.283185307,0.,0.,1.;      0000169P0000129
110,360.,360.,0.,270.,360.,0.;                                   0000171P0000130
126,24,3,0,0,1,0,0.,0.,0.,0.,0.285599332,0.571198664,            0000173P0000131
0.856797996,1.142397329,1.427996661,1.713595993,1.999195325,     0000173P0000132
2.284794657,2.570393989,2.855993321,3.141592654,3.427191986,     0000173P0000133
3.712791318,3.99839065,4.283989982,4.569589314,4.855188646,      0000173P0000134
5.140787979,5.426387311,5.711986643,5.997585975,6.283185307,     0000173P0000135
6.283185307,6.283185307,6.283185307,1.,1.,1.,1.,1.,1.,1.,1.,1.,  0000173P0000136
1.,1.,1.,1.,1.,1.,1.,1.,1.,1.,1.,1.,1.,1.,1.,1.,270.,360.,0.,    0000173P0000137
270.,354.545454545,0.,270.,343.636363636,0.,270.,327.272727273,  0000173P0000138
0.,270.,310.909090909,0.,270.,294.545454545,0.,270.,             0000173P0000139
278.181818182,0.,270.,261.818181818,0.,270.,245.454545455,0.,    0000173P0000140
270.,229.090909091,0.,270.,212.727272727,0.,270.,196.363636364,  0000173P0000141
0.,270.,180.,0.,270.,163.636363636,0.,270.,147.272727273,0.,     0000173P0000142
270.,130.909090909,0.,270.,114.545454545,0.,270.,98.181818182,   0000173P0000143
0.,270.,81.818181818,0.,270.,65.454545455,0.,270.,49.090909091,  0000173P0000144
0.,270.,32.727272727,0.,270.,16.363636364,0.,270.,5.454545455,   0000173P0000145
0.,270.,-2.356154908E-11,-0.,0.,6.283185307,0.,0.,1.;            0000173P0000146
510,177,1,1,185;                                                 0000175P0000147
194,179,181,13.465731,17.843903543,183;                          0000177P0000148
116,0.,0.,0.,0;                                                  0000179P0000149
123,-0.,-1.,-0.;                                                 0000181P0000150
123,1.,0.,0.;                                                    0000183P0000151
508,4,0,19,2,0,1,0,187,0,19,5,1,1,0,189,0,19,6,1,1,0,191,0,19,5, 0000185P0000152
0,1,0,193;                                                       0000185P0000153
110,360.,0.,0.,0.,0.,0.;                                         0000187P0000154
110,0.,0.,0.,0.,-3.151608536,0.;                                 0000189P0000155
110,0.,-3.151608536,0.,360.,-3.151608536,0.;                     0000191P0000156
110,360.,-3.151608536,0.,360.,0.,0.;                             0000193P0000157
510,197,1,1,205;                                                 0000195P0000158
192,199,201,22.,203;                                             0000197P0000159
116,0.,0.790255,0.,0;                                            0000199P0000160
123,0.,1.,0.;                                                    0000201P0000161
123,1.,0.,0.;                                                    0000203P0000162
508,4,0,19,7,1,1,0,207,0,19,8,1,1,0,209,0,19,7,0,1,0,211,0,19,4, 0000205P0000163
0,1,0,213;                                                       0000205P0000164
110,360.,0.,0.,360.,6.91949,0.;                                  0000207P0000165
126,24,3,0,0,1,0,0.,0.,0.,0.,0.285599332,0.571198664,            0000209P0000166
0.856797996,1.142397329,1.427996661,1.713595993,1.999195325,     0000209P0000167
2.284794657,2.570393989,2.855993321,3.141592654,3.427191986,     0000209P0000168
3.712791318,3.99839065,4.283989982,4.569589314,4.855188646,      0000209P0000169
5.140787979,5.426387311,5.711986643,5.997585975,6.283185307,     0000209P0000170
6.283185307,6.283185307,6.283185307,1.,1.,1.,1.,1.,1.,1.,1.,1.,  0000209P0000171
1.,1.,1.,1.,1.,1.,1.,1.,1.,1.,1.,1.,1.,1.,1.,1.,360.,6.91949,0., 0000209P0000172
354.545454545,6.91949,0.,343.636363636,6.91949,0.,327.272727273, 0000209P0000173
6.91949,0.,310.909090909,6.91949,0.,294.545454545,6.91949,0.,    0000209P0000174
278.181818182,6.91949,0.,261.818181818,6.91949,0.,245.454545455, 0000209P0000175
6.91949,0.,229.090909091,6.91949,0.,212.727272727,6.91949,0.,    0000209P0000176
196.363636364,6.91949,0.,180.,6.91949,0.,163.636363636,6.91949,  0000209P0000177
0.,147.272727273,6.91949,0.,130.909090909,6.91949,0.,            0000209P0000178
114.545454545,6.91949,0.,98.181818182,6.91949,0.,81.818181818,   0000209P0000179
6.91949,0.,65.454545455,6.91949,0.,49.090909091,6.91949,0.,      0000209P0000180
32.727272727,6.91949,0.,16.363636364,6.91949,0.,5.454545455,     0000209P0000181
6.91949,0.,0.,6.91949,0.,0.,6.283185307,0.,0.,1.;                0000209P0000182
110,2.37142157E-11,6.91949,0.,2.37142157E-11,0.,0.;              0000211P0000183
126,24,3,0,0,1,0,0.,0.,0.,0.,0.285599332,0.571198664,            0000213P0000184
0.856797996,1.142397329,1.427996661,1.713595993,1.999195325,     0000213P0000185
2.284794657,2.570393989,2.855993321,3.141592654,3.427191986,     0000213P0000186
3.712791318,3.99839065,4.283989982,4.569589314,4.855188646,      0000213P0000187
5.140787979,5.426387311,5.711986643,5.997585975,6.283185307,     0000213P0000188
6.283185307,6.283185307,6.283185307,1.,1.,1.,1.,1.,1.,1.,1.,1.,  0000213P0000189
1.,1.,1.,1.,1.,1.,1.,1.,1.,1.,1.,1.,1.,1.,1.,1.,0.,0.,0.,        0000213P0000190
5.454545455,0.,0.,16.363636364,0.,0.,32.727272727,0.,0.,         0000213P0000191
49.090909091,0.,0.,65.454545455,0.,0.,81.818181818,0.,0.,        0000213P0000192
98.181818182,0.,0.,114.545454545,0.,0.,130.909090909,0.,0.,      0000213P0000193
147.272727273,0.,0.,163.636363636,0.,0.,180.,0.,0.,              0000213P0000194
196.363636364,0.,0.,212.727272727,0.,0.,229.090909091,0.,0.,     0000213P0000195
245.454545455,0.,0.,261.818181818,0.,0.,278.181818182,0.,0.,     0000213P0000196
294.545454545,0.,0.,310.909090909,0.,0.,327.272727273,0.,0.,     0000213P0000197
343.636363636,0.,0.,354.545454545,0.,0.,360.,0.,0.,0.,           0000213P0000198
6.283185307,0.,0.,1.;                                            0000213P0000199
510,217,2,1,225,227;                                             0000215P0000200
190,219,221,223;                                                 0000217P0000201
116,0.,3.,0.,0;                                                  0000219P0000202
123,-0.,-1.,-0.;                                                 0000221P0000203
123,1.,0.,0.;                                                    0000223P0000204
508,1,0,19,9,1,0;                                                0000225P0000205
508,1,0,19,6,0,0;                                                0000227P0000206
510,231,1,1,239;                                                 0000229P0000207
198,233,235,22.790255,0.790255,237;                              0000231P0000208
116,0.,7.709745,0.,0;                                            0000233P0000209
123,0.,1.,0.;                                                    0000235P0000210
123,1.,0.,0.;                                                    0000237P0000211
508,4,0,19,10,1,1,0,241,0,19,8,1,1,0,243,0,19,10,0,1,0,245,0,19, 0000239P0000212
11,0,1,0,247;                                                    0000239P0000213
110,90.,2.383195066E-11,0.,180.,2.384790787E-11,0.;              0000241P0000214
126,24,3,0,0,1,0,0.,0.,0.,0.,0.285599332,0.571198664,            0000243P0000215
0.856797996,1.142397329,1.427996661,1.713595993,1.999195325,     0000243P0000216
2.284794657,2.570393989,2.855993321,3.141592654,3.427191986,     0000243P0000217
3.712791318,3.99839065,4.283989982,4.569589314,4.855188646,      0000243P0000218
5.140787979,5.426387311,5.711986643,5.997585975,6.283185307,     0000243P0000219
6.283185307,6.283185307,6.283185307,1.,1.,1.,1.,1.,1.,1.,1.,1.,  0000243P0000220
1.,1.,1.,1.,1.,1.,1.,1.,1.,1.,1.,1.,1.,1.,1.,1.,180.,            0000243P0000221
-2.361243796E-11,-0.,180.,5.454545455,0.,180.,16.363636364,0.,   0000243P0000222
180.,32.727272727,0.,180.,49.090909091,0.,180.,65.454545455,0.,  0000243P0000223
180.,81.818181818,0.,180.,98.181818182,0.,180.,114.545454545,0., 0000243P0000224
180.,130.909090909,0.,180.,147.272727273,0.,180.,163.636363636,  0000243P0000225
0.,180.,180.,0.,180.,196.363636364,0.,180.,212.727272727,0.,     0000243P0000226
180.,229.090909091,0.,180.,245.454545455,0.,180.,261.818181818,  0000243P0000227
0.,180.,278.181818182,0.,180.,294.545454545,0.,180.,             0000243P0000228
310.909090909,0.,180.,327.272727273,0.,180.,343.636363636,0.,    0000243P0000229
180.,354.545454545,0.,180.,360.,0.,0.,6.283185307,0.,0.,1.;      0000243P0000230
110,180.,360.,0.,90.,360.,0.;                                    0000245P0000231
126,24,3,0,0,1,0,0.,0.,0.,0.,0.285599332,0.571198664,            0000247P0000232
0.856797996,1.142397329,1.427996661,1.713595993,1.999195325,     0000247P0000233
2.284794657,2.570393989,2.855993321,3.141592654,3.427191986,     0000247P0000234
3.712791318,3.99839065,4.283989982,4.569589314,4.855188646,      0000247P0000235
5.140787979,5.426387311,5.711986643,5.997585975,6.283185307,     0000247P0000236
6.283185307,6.283185307,6.283185307,1.,1.,1.,1.,1.,1.,1.,1.,1.,  0000247P0000237
1.,1.,1.,1.,1.,1.,1.,1.,1.,1.,1.,1.,1.,1.,1.,1.,90.,360.,0.,90., 0000247P0000238
354.545454545,0.,90.,343.636363636,0.,90.,327.272727273,0.,90.,  0000247P0000239
310.909090909,0.,90.,294.545454545,0.,90.,278.181818182,0.,90.,  0000247P0000240
261.818181818,0.,90.,245.454545455,0.,90.,229.090909091,0.,90.,  0000247P0000241
212.727272727,0.,90.,196.363636364,0.,90.,180.,0.,90.,           0000247P0000242
163.636363636,0.,90.,147.272727273,0.,90.,130.909090909,0.,90.,  0000247P0000243
114.545454545,0.,90.,98.181818182,0.,90.,81.818181818,0.,90.,    0000247P0000244
65.454545455,0.,90.,49.090909091,0.,90.,32.727272727,0.,90.,     0000247P0000245
16.363636364,0.,90.,5.454545455,0.,90.,-2.361243796E-11,-0.,0.,  0000247P0000246
6.283185307,0.,0.,1.;                                            0000247P0000247
510,251,1,1,259;                                                 0000249P0000248
192,253,255,19.,257;                                             0000251P0000249
116,0.,10.5,0.,0;                                                0000253P0000250
123,-0.,-1.,-0.;                                                 0000255P0000251
123,1.,0.,0.;                                                    0000257P0000252
508,4,0,19,12,1,1,0,261,0,19,13,1,1,0,263,0,19,9,0,1,0,265,0,19, 0000259P0000253
13,0,1,0,267;                                                    0000259P0000254
110,0.,0.,0.,360.,0.,0.;                                         0000261P0000255
110,360.,0.,0.,360.,7.5,0.;                                      0000263P0000256
110,360.,7.5,0.,0.,7.5,0.;                                       0000265P0000257
110,2.37142157E-11,7.5,0.,2.37142157E-11,0.,0.;                  0000267P0000258
510,271,6,1,279,281,283,285,287,289;                             0000269P0000259
190,273,275,277;                                                 0000271P0000260
116,0.,8.5,0.,0;                                                 0000273P0000261
123,-0.,-1.,-0.;                                                 0000275P0000262
123,1.,0.,0.;                                                    0000277P0000263
508,1,0,19,14,1,0;                                               0000279P0000264
508,1,0,19,11,0,0;                                               0000281P0000265
508,1,0,19,15,1,0;                                               0000283P0000266
508,1,0,19,16,1,0;                                               0000285P0000267
508,1,0,19,17,1,0;                                               0000287P0000268
508,1,0,19,18,1,0;                                               0000289P0000269
510,293,1,1,301;                                                 0000291P0000270
198,295,297,20.,1.,299;                                          0000293P0000271
116,0.,10.5,0.,0;                                                0000295P0000272
123,0.,1.,0.;                                                    0000297P0000273
123,1.,0.,0.;                                                    0000299P0000274
508,4,0,19,19,1,1,0,303,0,19,12,1,1,0,305,0,19,19,0,1,0,307,0,   0000301P0000275
19,20,0,1,0,309;                                                 0000301P0000276
110,90.,2.383195066E-11,0.,180.,2.384790787E-11,0.;              0000303P0000277
126,24,3,0,0,1,0,0.,0.,0.,0.,0.285599332,0.571198664,            0000305P0000278
0.856797996,1.142397329,1.427996661,1.713595993,1.999195325,     0000305P0000279
2.284794657,2.570393989,2.855993321,3.141592654,3.427191986,     0000305P0000280
3.712791318,3.99839065,4.283989982,4.569589314,4.855188646,      0000305P0000281
5.140787979,5.426387311,5.711986643,5.997585975,6.283185307,     0000305P0000282
6.283185307,6.283185307,6.283185307,1.,1.,1.,1.,1.,1.,1.,1.,1.,  0000305P0000283
1.,1.,1.,1.,1.,1.,1.,1.,1.,1.,1.,1.,1.,1.,1.,1.,180.,            0000305P0000284
-2.361243796E-11,-0.,180.,5.454545455,0.,180.,16.363636364,0.,   0000305P0000285
180.,32.727272727,0.,180.,49.090909091,0.,180.,65.454545455,0.,  0000305P0000286
180.,81.818181818,0.,180.,98.181818182,0.,180.,114.545454545,0., 0000305P0000287
180.,130.909090909,0.,180.,147.272727273,0.,180.,163.636363636,  0000305P0000288
0.,180.,180.,0.,180.,196.363636364,0.,180.,212.727272727,0.,     0000305P0000289
180.,229.090909091,0.,180.,245.454545455,0.,180.,261.818181818,  0000305P0000290
0.,180.,278.181818182,0.,180.,294.545454545,0.,180.,             0000305P0000291
310.909090909,0.,180.,327.272727273,0.,180.,343.636363636,0.,    0000305P0000292
180.,354.545454545,0.,180.,360.,0.,0.,6.283185307,0.,0.,1.;      0000305P0000293
110,180.,360.,0.,90.,360.,0.;                                    0000307P0000294
126,24,3,0,0,1,0,0.,0.,0.,0.,0.285599332,0.571198664,            0000309P0000295
0.856797996,1.142397329,1.427996661,1.713595993,1.999195325,     0000309P0000296
2.284794657,2.570393989,2.855993321,3.141592654,3.427191986,     0000309P0000297
3.712791318,3.99839065,4.283989982,4.569589314,4.855188646,      0000309P0000298
5.140787979,5.426387311,5.711986643,5.997585975,6.283185307,     0000309P0000299
6.283185307,6.283185307,6.283185307,1.,1.,1.,1.,1.,1.,1.,1.,1.,  0000309P0000300
1.,1.,1.,1.,1.,1.,1.,1.,1.,1.,1.,1.,1.,1.,1.,1.,90.,360.,0.,90., 0000309P0000301
354.545454545,0.,90.,343.636363636,0.,90.,327.272727273,0.,90.,  0000309P0000302
310.909090909,0.,90.,294.545454545,0.,90.,278.181818182,0.,90.,  0000309P0000303
261.818181818,0.,90.,245.454545455,0.,90.,229.090909091,0.,90.,  0000309P0000304
212.727272727,0.,90.,196.363636364,0.,90.,180.,0.,90.,           0000309P0000305
163.636363636,0.,90.,147.272727273,0.,90.,130.909090909,0.,90.,  0000309P0000306
114.545454545,0.,90.,98.181818182,0.,90.,81.818181818,0.,90.,    0000309P0000307
65.454545455,0.,90.,49.090909091,0.,90.,32.727272727,0.,90.,     0000309P0000308
16.363636364,0.,90.,5.454545455,0.,90.,-2.361243796E-11,-0.,0.,  0000309P0000309
6.283185307,0.,0.,1.;                                            0000309P0000310
510,313,1,1,321;                                                 0000311P0000311
198,315,317,43.709745,0.790255,319;                              0000313P0000312
116,0.,7.709745,0.,0;                                            0000315P0000313
123,0.,1.,0.;                                                    0000317P0000314
123,1.,0.,0.;                                                    0000319P0000315
508,4,0,19,21,1,1,0,323,0,19,14,1,1,0,325,0,19,21,0,1,0,327,0,   0000321P0000316
19,22,0,1,0,329;                                                 0000321P0000317
110,-6.742439539E-14,2.381599345E-11,0.,90.,2.383195066E-11,0.;  0000323P0000318
126,24,3,0,0,1,0,0.,0.,0.,0.,0.285599332,0.571198664,            0000325P0000319
0.856797996,1.142397329,1.427996661,1.713595993,1.999195325,     0000325P0000320
2.284794657,2.570393989,2.855993321,3.141592654,3.427191986,     0000325P0000321
3.712791318,3.99839065,4.283989982,4.569589314,4.855188646,      0000325P0000322
5.140787979,5.426387311,5.711986643,5.997585975,6.283185307,     0000325P0000323
6.283185307,6.283185307,6.283185307,1.,1.,1.,1.,1.,1.,1.,1.,1.,  0000325P0000324
1.,1.,1.,1.,1.,1.,1.,1.,1.,1.,1.,1.,1.,1.,1.,1.,90.,             0000325P0000325
-2.361243796E-11,-0.,90.,5.454545455,0.,90.,16.363636364,0.,90., 0000325P0000326
32.727272727,0.,90.,49.090909091,0.,90.,65.454545455,0.,90.,     0000325P0000327
81.818181818,0.,90.,98.181818182,0.,90.,114.545454545,0.,90.,    0000325P0000328
130.909090909,0.,90.,147.272727273,0.,90.,163.636363636,0.,90.,  0000325P0000329
180.,0.,90.,196.363636364,0.,90.,212.727272727,0.,90.,           0000325P0000330
229.090909091,0.,90.,245.454545455,0.,90.,261.818181818,0.,90.,  0000325P0000331
278.181818182,0.,90.,294.545454545,0.,90.,310.909090909,0.,90.,  0000325P0000332
327.272727273,0.,90.,343.636363636,0.,90.,354.545454545,0.,90.,  0000325P0000333
360.,0.,0.,6.283185307,0.,0.,1.;                                 0000325P0000334
110,90.,360.,0.,-3.5955607E-15,360.,0.;                          0000327P0000335
126,24,3,0,0,1,0,0.,0.,0.,0.,0.285599332,0.571198664,            0000329P0000336
0.856797996,1.142397329,1.427996661,1.713595993,1.999195325,     0000329P0000337
2.284794657,2.570393989,2.855993321,3.141592654,3.427191986,     0000329P0000338
3.712791318,3.99839065,4.283989982,4.569589314,4.855188646,      0000329P0000339
5.140787979,5.426387311,5.711986643,5.997585975,6.283185307,     0000329P0000340
6.283185307,6.283185307,6.283185307,1.,1.,1.,1.,1.,1.,1.,1.,1.,  0000329P0000341
1.,1.,1.,1.,1.,1.,1.,1.,1.,1.,1.,1.,1.,1.,1.,1.,0.,360.,0.,      0000329P0000342
2.44773339E-14,354.545454545,0.,2.982884746E-14,343.636363636,   0000329P0000343
0.,-5.858206264E-15,327.272727273,0.,-4.121175042E-14,           0000329P0000344
310.909090909,0.,1.184816159E-13,294.545454545,0.,               0000329P0000345
1.083203295E-13,278.181818182,0.,-1.330940597E-13,261.818181818, 0000329P0000346
0.,4.62733686E-13,245.454545455,0.,1.258870609E-13,              0000329P0000347
229.090909091,0.,1.222621185E-12,212.727272727,0.,               0000329P0000348
4.18372552E-13,196.363636364,0.,6.701422722E-13,180.,0.,         0000329P0000349
1.450981609E-12,163.636363636,0.,1.107017214E-13,147.272727273,  0000329P0000350
0.,1.715658219E-12,130.909090909,0.,-5.569631896E-13,            0000329P0000351
114.545454545,0.,1.090743016E-12,98.181818182,0.,                0000329P0000352
4.191307321E-13,81.818181818,0.,1.850757351E-12,65.454545455,0., 0000329P0000353
8.527458429E-13,49.090909091,0.,-5.832499257E-14,32.727272727,   0000329P0000354
0.,2.918965011E-13,16.363636364,0.,2.081922067E-13,5.454545455,  0000329P0000355
0.,-6.382883469E-14,-2.361243796E-11,0.,0.,6.283185307,0.,0.,1.; 0000329P0000356
510,333,1,1,341;                                                 0000331P0000357
192,335,337,6.75,339;                                            0000333P0000358
116,32.5,11.5,3.980102097E-15,0;                                 0000335P0000359
123,-5.473822126E-48,1.,-2.220446049E-16;                        0000337P0000360
123,1.,2.719262147E-32,1.224646799E-16;                          0000339P0000361
508,4,0,19,23,0,1,0,343,0,19,24,1,1,0,345,0,19,15,1,1,0,347,0,   0000341P0000362
19,24,0,1,0,349;                                                 0000341P0000363
110,360.,0.,0.,0.,0.,0.;                                         0000343P0000364
110,2.37142157E-11,0.,0.,2.37142157E-11,-3.,0.;                  0000345P0000365
110,0.,-3.,0.,360.,-3.,0.;                                       0000347P0000366
110,360.,-3.,0.,360.,0.,0.;                                      0000349P0000367
510,353,1,1,361;                                                 0000351P0000368
192,355,357,6.75,359;                                            0000353P0000369
116,-3.60822483E-15,11.5,32.5,0;                                 0000355P0000370
123,-2.958228395E-31,1.,-2.220446049E-16;                        0000357P0000371
123,-1.110223025E-16,2.220446049E-16,1.;                         0000359P0000372
508,4,0,19,25,0,1,0,363,0,19,26,1,1,0,365,0,19,16,1,1,0,367,0,   0000361P0000373
19,26,0,1,0,369;                                                 0000361P0000374
110,360.,0.,0.,0.,0.,0.;                                         0000363P0000375
110,2.37142157E-11,0.,0.,2.37142157E-11,-3.,0.;                  0000365P0000376
110,0.,-3.,0.,360.,-3.,0.;                                       0000367P0000377
110,360.,-3.,0.,360.,0.,0.;                                      0000369P0000378
510,373,1,1,381;                                                 0000371P0000379
192,375,377,6.75,379;                                            0000373P0000380
116,-32.5,11.5,0.,0;                                             0000375P0000381
123,0.,1.,-2.220446049E-16;                                      0000377P0000382
123,-1.,0.,0.;                                                   0000379P0000383
508,4,0,19,27,0,1,0,383,0,19,28,1,1,0,385,0,19,17,1,1,0,387,0,   0000381P0000384
19,28,0,1,0,389;                                                 0000381P0000385
110,360.,0.,0.,0.,0.,0.;                                         0000383P0000386
110,2.37142157E-11,0.,0.,2.37142157E-11,-3.,0.;                  0000385P0000387
110,0.,-3.,0.,360.,-3.,0.;                                       0000387P0000388
110,360.,-3.,0.,360.,0.,0.;                                      0000389P0000389
510,393,1,1,401;                                                 0000391P0000390
192,395,397,6.75,399;                                            0000393P0000391
116,7.21644966E-15,11.5,-32.5,0;                                 0000395P0000392
123,2.958228395E-31,1.,-2.220446049E-16;                         0000397P0000393
123,2.220446049E-16,-2.220446049E-16,-1.;                        0000399P0000394
508,4,0,19,29,0,1,0,403,0,19,30,1,1,0,405,0,19,18,1,1,0,407,0,   0000401P0000395
19,30,0,1,0,409;                                                 0000401P0000396
110,360.,0.,0.,0.,0.,0.;                                         0000403P0000397
110,2.37142157E-11,0.,0.,2.37142157E-11,-3.,0.;                  0000405P0000398
110,0.,-3.,0.,360.,-3.,0.;                                       0000407P0000399
110,360.,-3.,0.,360.,0.,0.;                                      0000409P0000400
510,413,6,1,421,423,425,427,429,431;                             0000411P0000401
190,415,417,419;                                                 0000413P0000402
116,0.,11.5,0.,0;                                                0000415P0000403
123,-0.,-1.,-0.;                                                 0000417P0000404
123,1.,0.,0.;                                                    0000419P0000405
508,1,0,19,31,1,0;                                               0000421P0000406
508,1,0,19,20,0,0;                                               0000423P0000407
508,1,0,19,25,1,0;                                               0000425P0000408
508,1,0,19,23,1,0;                                               0000427P0000409
508,1,0,19,27,1,0;                                               0000429P0000410
508,1,0,19,29,1,0;                                               0000431P0000411
510,435,1,1,443;                                                 0000433P0000412
192,437,439,44.5,441;                                            0000435P0000413
116,0.,0.,0.,0;                                                  0000437P0000414
123,0.,1.,0.;                                                    0000439P0000415
123,1.,0.,0.;                                                    0000441P0000416
508,4,0,19,32,1,1,0,445,0,19,22,1,1,0,447,0,19,32,0,1,0,449,0,   0000443P0000417
19,33,0,1,0,451;                                                 0000443P0000418
110,360.,0.,0.,360.,7.709745,0.;                                 0000445P0000419
126,24,3,0,0,1,0,0.,0.,0.,0.,0.285599332,0.571198664,            0000447P0000420
0.856797996,1.142397329,1.427996661,1.713595993,1.999195325,     0000447P0000421
2.284794657,2.570393989,2.855993321,3.141592654,3.427191986,     0000447P0000422
3.712791318,3.99839065,4.283989982,4.569589314,4.855188646,      0000447P0000423
5.140787979,5.426387311,5.711986643,5.997585975,6.283185307,     0000447P0000424
6.283185307,6.283185307,6.283185307,1.,1.,1.,1.,1.,1.,1.,1.,1.,  0000447P0000425
1.,1.,1.,1.,1.,1.,1.,1.,1.,1.,1.,1.,1.,1.,1.,1.,360.,7.709745,   0000447P0000426
0.,354.545454545,7.709745,0.,343.636363636,7.709745,0.,          0000447P0000427
327.272727273,7.709745,0.,310.909090909,7.709745,0.,             0000447P0000428
294.545454545,7.709745,0.,278.181818182,7.709745,0.,             0000447P0000429
261.818181818,7.709745,0.,245.454545455,7.709745,0.,             0000447P0000430
229.090909091,7.709745,0.,212.727272727,7.709745,0.,             0000447P0000431
196.363636364,7.709745,0.,180.,7.709745,0.,163.636363636,        0000447P0000432
7.709745,0.,147.272727273,7.709745,0.,130.909090909,7.709745,0., 0000447P0000433
114.545454545,7.709745,0.,98.181818182,7.709745,0.,81.818181818, 0000447P0000434
7.709745,0.,65.454545455,7.709745,0.,49.090909091,7.709745,0.,   0000447P0000435
32.727272727,7.709745,0.,16.363636364,7.709745,0.,5.454545455,   0000447P0000436
7.709745,0.,0.,7.709745,0.,0.,6.283185307,0.,0.,1.;              0000447P0000437
110,2.37142157E-11,7.709745,0.,2.37142157E-11,0.,0.;             0000449P0000438
126,24,3,0,0,1,0,0.,0.,0.,0.,0.285599332,0.571198664,            0000451P0000439
0.856797996,1.142397329,1.427996661,1.713595993,1.999195325,     0000451P0000440
2.284794657,2.570393989,2.855993321,3.141592654,3.427191986,     0000451P0000441
3.712791318,3.99839065,4.283989982,4.569589314,4.855188646,      0000451P0000442
5.140787979,5.426387311,5.711986643,5.997585975,6.283185307,     0000451P0000443
6.283185307,6.283185307,6.283185307,1.,1.,1.,1.,1.,1.,1.,1.,1.,  0000451P0000444
1.,1.,1.,1.,1.,1.,1.,1.,1.,1.,1.,1.,1.,1.,1.,1.,0.,0.,0.,        0000451P0000445
5.454545455,0.,0.,16.363636364,0.,0.,32.727272727,0.,0.,         0000451P0000446
49.090909091,0.,0.,65.454545455,0.,0.,81.818181818,0.,0.,        0000451P0000447
98.181818182,0.,0.,114.545454545,0.,0.,130.909090909,0.,0.,      0000451P0000448
147.272727273,0.,0.,163.636363636,0.,0.,180.,0.,0.,              0000451P0000449
196.363636364,0.,0.,212.727272727,0.,0.,229.090909091,0.,0.,     0000451P0000450
245.454545455,0.,0.,261.818181818,0.,0.,278.181818182,0.,0.,     0000451P0000451
294.545454545,0.,0.,310.909090909,0.,0.,327.272727273,0.,0.,     0000451P0000452
343.636363636,0.,0.,354.545454545,0.,0.,360.,0.,0.,0.,           0000451P0000453
6.283185307,0.,0.,1.;                                            0000451P0000454
510,455,1,1,463;                                                 0000453P0000455
198,457,459,46.5,1.,461;                                         0000455P0000456
116,0.,10.5,0.,0;                                                0000457P0000457
123,0.,1.,0.;                                                    0000459P0000458
123,1.,0.,0.;                                                    0000461P0000459
508,4,0,19,34,1,1,0,465,0,19,31,1,1,0,467,0,19,34,0,1,0,469,0,   0000463P0000460
19,35,0,1,0,471;                                                 0000463P0000461
110,-6.382883469E-14,2.381599345E-11,0.,90.,2.383195066E-11,0.;  0000465P0000462
126,24,3,0,0,1,0,0.,0.,0.,0.,0.285599332,0.571198664,            0000467P0000463
0.856797996,1.142397329,1.427996661,1.713595993,1.999195325,     0000467P0000464
2.284794657,2.570393989,2.855993321,3.141592654,3.427191986,     0000467P0000465
3.712791318,3.99839065,4.283989982,4.569589314,4.855188646,      0000467P0000466
5.140787979,5.426387311,5.711986643,5.997585975,6.283185307,     0000467P0000467
6.283185307,6.283185307,6.283185307,1.,1.,1.,1.,1.,1.,1.,1.,1.,  0000467P0000468
1.,1.,1.,1.,1.,1.,1.,1.,1.,1.,1.,1.,1.,1.,1.,1.,90.,             0000467P0000469
-2.361243796E-11,-0.,90.,5.454545455,0.,90.,16.363636364,0.,90., 0000467P0000470
32.727272727,0.,90.,49.090909091,0.,90.,65.454545455,0.,90.,     0000467P0000471
81.818181818,0.,90.,98.181818182,0.,90.,114.545454545,0.,90.,    0000467P0000472
130.909090909,0.,90.,147.272727273,0.,90.,163.636363636,0.,90.,  0000467P0000473
180.,0.,90.,196.363636364,0.,90.,212.727272727,0.,90.,           0000467P0000474
229.090909091,0.,90.,245.454545455,0.,90.,261.818181818,0.,90.,  0000467P0000475
278.181818182,0.,90.,294.545454545,0.,90.,310.909090909,0.,90.,  0000467P0000476
327.272727273,0.,90.,343.636363636,0.,90.,354.545454545,0.,90.,  0000467P0000477
360.,0.,0.,6.283185307,0.,0.,1.;                                 0000467P0000478
110,90.,360.,0.,-4.204585428E-27,360.,0.;                        0000469P0000479
126,24,3,0,0,1,0,0.,0.,0.,0.,0.285599332,0.571198664,            0000471P0000480
0.856797996,1.142397329,1.427996661,1.713595993,1.999195325,     0000471P0000481
2.284794657,2.570393989,2.855993321,3.141592654,3.427191986,     0000471P0000482
3.712791318,3.99839065,4.283989982,4.569589314,4.855188646,      0000471P0000483
5.140787979,5.426387311,5.711986643,5.997585975,6.283185307,     0000471P0000484
6.283185307,6.283185307,6.283185307,1.,1.,1.,1.,1.,1.,1.,1.,1.,  0000471P0000485
1.,1.,1.,1.,1.,1.,1.,1.,1.,1.,1.,1.,1.,1.,1.,1.,0.,360.,0.,      0000471P0000486
-1.315922983E-14,354.545454545,0.,8.761853695E-15,343.636363636, 0000471P0000487
0.,1.052477894E-13,327.272727273,0.,-2.56521934E-14,             0000471P0000488
310.909090909,0.,5.963736068E-14,294.545454545,0.,               0000471P0000489
9.913785644E-14,278.181818182,0.,1.018840811E-14,261.818181818,  0000471P0000490
0.,3.236958436E-14,245.454545455,0.,2.537280648E-13,             0000471P0000491
229.090909091,0.,8.362880218E-13,212.727272727,0.,               0000471P0000492
2.710312985E-13,196.363636364,0.,6.535073888E-13,180.,0.,        0000471P0000493
9.229769423E-13,163.636363636,0.,4.836890895E-13,147.272727273,  0000471P0000494
0.,8.471300539E-13,130.909090909,0.,-3.374204395E-13,            0000471P0000495
114.545454545,0.,8.330169147E-13,98.181818182,0.,                0000471P0000496
4.289926058E-13,81.818181818,0.,1.477452786E-12,65.454545455,0., 0000471P0000497
5.422693871E-13,49.090909091,0.,-1.606141329E-13,32.727272727,   0000471P0000498
0.,3.054463789E-13,16.363636364,0.,2.320463668E-13,5.454545455,  0000471P0000499
0.,-6.382883469E-14,-2.361243796E-11,0.,0.,6.283185307,0.,0.,1.; 0000471P0000500
510,475,2,1,483,485;                                             0000473P0000501
190,477,479,481;                                                 0000475P0000502
116,0.,0.,0.,0;                                                  0000477P0000503
123,-0.,-1.,-0.;                                                 0000479P0000504
123,1.,0.,0.;                                                    0000481P0000505
508,1,0,19,36,1,0;                                               0000483P0000506
508,1,0,19,33,0,0;                                               0000485P0000507
510,489,1,1,497;                                                 0000487P0000508
192,491,493,47.5,495;                                            0000489P0000509
116,0.,10.5,0.,0;                                                0000491P0000510
123,-0.,-1.,-0.;                                                 0000493P0000511
123,1.,0.,0.;                                                    0000495P0000512
508,4,0,19,35,1,1,0,499,0,19,37,1,1,0,501,0,19,36,0,1,0,503,0,   0000497P0000513
19,37,0,1,0,505;                                                 0000497P0000514
110,0.,0.,0.,360.,0.,0.;                                         0000499P0000515
110,360.,0.,0.,360.,10.5,0.;                                     0000501P0000516
110,360.,10.5,0.,0.,10.5,0.;                                     0000503P0000517
110,2.37142157E-11,10.5,0.,2.37142157E-11,0.,0.;                 0000505P0000518
S      1G      4D    506P    518                                        T0000001
