                                                                        S0000001
,,31HOpen CASCADE IGES processor 7.9,13HFilename.iges,                  G0000001
16HOpen CASCADE 7.9,31HOpen CASCADE IGES processor 7.9,32,308,15,308,15,G0000002
,1.,2,2HMM,1,0.01,15H20261004.214557,1E-07,12.005245,7Hjiayuxu,,11,0,   G0000003
15H20261004.214557,;                                                    G0000004
     186       1       0       0       0       0       0       000000000D0000001
     186       0       0       1       0                               0D0000002
     514       2       0       0       0       0       0       000010000D0000003
     514       0       0       2       1                               0D0000004
     510       4       0       0       0       0       0       000010000D0000005
     510       0       0       1       1                               0D0000006
     192       5       0       0       0       0       0       000010000D0000007
     192       0       0       1       1                               0D0000008
     116       6       0       0       0       0       0       000010400D0000009
     116       0       0       1       0                               0D0000010
     123       7       0       0       0       0       0       000010200D0000011
     123       0       0       1       0                               0D0000012
     123       8       0       0       0       0       0       000010200D0000013
     123       0       0       1       0                               0D0000014
     508       9       0       0       0       0       0       000010000D0000015
     508       0       0       2       1                               0D0000016
     504      11       0       0       0       0       0       000010001D0000017
     504       0       0       7       1                               0D0000018
     110      18       0       0       0       0       0       000010000D0000019
     110       0       0       1       0                               0D0000020
     502      19       0       0       0       0       0       000010000D0000021
     502       0       0       9       1                               0D0000022
     100      28       0       0       0       0      25       000010000D0000023
     100       0       0       1       0                               0D0000024
     124      29       0       0       0       0       0       000000000D0000025
     124       0       0       3       0                               0D0000026
     100      32       0       0       0       0      29       000010000D0000027
     100       0       0       1       0                               0D0000028
     124      33       0       0       0       0       0       000000000D0000029
     124       0       0       3       0                               0D0000030
     100      36       0       0       0       0      33       000010000D0000031
     100       0       0       1       0                               0D0000032
     124      37       0       0       0       0       0       000000000D0000033
     124       0       0       3       0                               0D0000034
     100      40       0       0       0       0      37       000010000D0000035
     100       0       0       1       0                               0D0000036
     124      41       0       0       0       0       0       000000000D0000037
     124       0       0       3       0                               0D0000038
     110      44       0       0       0       0       0       000010000D0000039
     110       0       0       1       0                               0D0000040
     100      45       0       0       0       0      43       000010000D0000041
     100       0       0       1       0                               0D0000042
     124      46       0       0       0       0       0       000000000D0000043
     124       0       0       3       0                               0D0000044
     110      49       0       0       0       0       0       000010000D0000045
     110       0       0       1       0                               0D0000046
     100      50       0       0       0       0      49       000010000D0000047
     100       0       0       1       0                               0D0000048
     124      51       0       0       0       0       0       000000000D0000049
     124       0       0       3       0                               0D0000050
     100      54       0       0       0       0      53       000010000D0000051
     100       0       0       1       0                               0D0000052
     124      55       0       0       0       0       0       000000000D0000053
     124       0       0       3       0                               0D0000054
     110      58       0       0       0       0       0       000010000D0000055
     110       0       0       1       0                               0D0000056
     100      59       0       0       0       0      59       000010000D0000057
     100       0       0       1       0                               0D0000058
     124      60       0       0       0       0       0       000000000D0000059
     124       0       0       3       0                               0D0000060
     100      63       0       0       0       0      63       000010000D0000061
     100       0       0       1       0                               0D0000062
     124      64       0       0       0       0       0       000000000D0000063
     124       0       0       3       0                               0D0000064
     110      67       0       0       0       0       0       000010000D0000065
     110       0       0       1       0                               0D0000066
     100      68       0       0       0       0      69       000010000D0000067
     100       0       0       1       0                               0D0000068
     124      69       0       0       0       0       0       000000000D0000069
     124       0       0       3       0                               0D0000070
     100      72       0       0       0       0      73       000010000D0000071
     100       0       0       1       0                               0D0000072
     124      73       0       0       0       0       0       000000000D0000073
     124       0       0       3       0                               0D0000074
     110      76       0       0       0       0       0       000010000D0000075
     110       0       0       1       0                               0D0000076
     100      77       0       0       0       0      79       000010000D0000077
     100       0       0       1       0                               0D0000078
     124      78       0       0       0       0       0       000000000D0000079
     124       0       0       3       0                               0D0000080
     100      81       0       0       0       0      83       000010000D0000081
     100       0       0       1       0                               0D0000082
     124      82       0       0       0       0       0       000000000D0000083
     124       0       0       3       0                               0D0000084
     110      85       0       0       0       0       0       000010000D0000085
     110       0       0       1       0                               0D0000086
     100      86       0       0       0       0      89       000010000D0000087
     100       0       0       1       0                               0D0000088
     124      87       0       0       0       0       0       000000000D0000089
     124       0       0       3       0                               0D0000090
     100      90       0       0       0       0      93       000010000D0000091
     100       0       0       1       0                               0D0000092
     124      91       0       0       0       0       0       000000000D0000093
     124       0       0       3       0                               0D0000094
     110      94       0       0       0       0       0       000010000D0000095
     110       0       0       1       0                               0D0000096
     100      95       0       0       0       0      99       000010000D0000097
     100       0       0       1       0                               0D0000098
     124      96       0       0       0       0       0       000000000D0000099
     124       0       0       3       0                               0D0000100
     100      99       0       0       0       0     103       000010000D0000101
     100       0       0       1       0                               0D0000102
     124     100       0       0       0       0       0       000000000D0000103
     124       0       0       3       0                               0D0000104
     100     103       0       0       0       0     107       000010000D0000105
     100       0       0       1       0                               0D0000106
     124     104       0       0       0       0       0       000000000D0000107
     124       0       0       3       0                               0D0000108
     110     107       0       0       0       0       0       000010000D0000109
     110       0       0       1       0                               0D0000110
     100     108       0       0       0       0     113       000010000D0000111
     100       0       0       1       0                               0D0000112
     124     109       0       0       0       0       0       000000000D0000113
     124       0       0       3       0                               0D0000114
     110     112       0       0       0       0       0       000010000D0000115
     110       0       0       1       0                               0D0000116
     100     113       0       0       0       0     119       000010000D0000117
     100       0       0       1       0                               0D0000118
     124     114       0       0       0       0       0       000000000D0000119
     124       0       0       3       0                               0D0000120
     110     117       0       0       0       0       0       000010000D0000121
     110       0       0       1       0                               0D0000122
     110     118       0       0       0       0       0       000010000D0000123
     110       0       0       1       0                               0D0000124
     110     119       0       0       0       0       0       000010000D0000125
     110       0       0       1       0                               0D0000126
     110     120       0       0       0       0       0       000010000D0000127
     110       0       0       1       0                               0D0000128
     510     121       0       0       0       0       0       000010000D0000129
     510       0       0       1       1                               0D0000130
     190     122       0       0       0       0       0       000010000D0000131
     190       0       0       1       1                               0D0000132
     116     123       0       0       0       0       0       000010400D0000133
     116       0       0       1       0                               0D0000134
     123     124       0       0       0       0       0       000010200D0000135
     123       0       0       1       0                               0D0000136
     123     125       0       0       0       0       0       000010200D0000137
     123       0       0       1       0                               0D0000138
     508     126       0       0       0       0       0       000010000D0000139
     508       0       0       1       1                               0D0000140
     508     127       0       0       0       0       0       000010000D0000141
     508       0       0       1       1                               0D0000142
     510     128       0       0       0       0       0       000010000D0000143
     510       0       0       1       1                               0D0000144
     192     129       0       0       0       0       0       000010000D0000145
     192       0       0       1       1                               0D0000146
     116     130       0       0       0       0       0       000010400D0000147
     116       0       0       1       0                               0D0000148
     123     131       0       0       0       0       0       000010200D0000149
     123       0       0       1       0                               0D0000150
     123     132       0       0       0       0       0       000010200D0000151
     123       0       0       1       0                               0D0000152
     508     133       0       0       0       0       0       000010000D0000153
     508       0       0       2       1                               0D0000154
     110     135       0       0       0       0       0       000010000D0000155
     110       0       0       1       0                               0D0000156
     110     136       0       0       0       0       0       000010000D0000157
     110       0       0       1       0                               0D0000158
     110     137       0       0       0       0       0       000010000D0000159
     110       0       0       1       0                               0D0000160
     110     138       0       0       0       0       0       000010000D0000161
     110       0       0       1       0                               0D0000162
     510     139       0       0       0       0       0       000010000D0000163
     510       0       0       1       1                               0D0000164
     190     140       0       0       0       0       0       000010000D0000165
     190       0       0       1       1                               0D0000166
     116     141       0       0       0       0       0       000010400D0000167
     116       0       0       1       0                               0D0000168
     123     142       0       0       0       0       0       000010200D0000169
     123       0       0       1       0                               0D0000170
     123     143       0       0       0       0       0       000010200D0000171
     123       0       0       1       0                               0D0000172
     508     144       0       0       0       0       0       000010000D0000173
     508       0       0       1       1                               0D0000174
     508     145       0       0       0       0       0       000010000D0000175
     508       0       0       1       1                               0D0000176
     510     146       0       0       0       0       0       000010000D0000177
     510       0       0       1       1                               0D0000178
     192     147       0       0       0       0       0       000010000D0000179
     192       0       0       1       1                               0D0000180
     116     148       0       0       0       0       0       000010400D0000181
     116       0       0       1       0                               0D0000182
     123     149       0       0       0       0       0       000010200D0000183
     123       0       0       1       0                               0D0000184
     123     150       0       0       0       0       0       000010200D0000185
     123       0       0       1       0                               0D0000186
     508     151       0       0       0       0       0       000010000D0000187
     508       0       0       2       1                               0D0000188
     110     153       0       0       0       0       0       000010000D0000189
     110       0       0       1       0                               0D0000190
     110     154       0       0       0       0       0       000010000D0000191
     110       0       0       1       0                               0D0000192
     110     155       0       0       0       0       0       000010000D0000193
     110       0       0       1       0                               0D0000194
     110     156       0       0       0       0       0       000010000D0000195
     110       0       0       1       0                               0D0000196
     510     157       0       0       0       0       0       000010000D0000197
     510       0       0       1       1                               0D0000198
     190     158       0       0       0       0       0       000010000D0000199
     190       0       0       1       1                               0D0000200
     116     159       0       0       0       0       0       000010400D0000201
     116       0       0       1       0                               0D0000202
     123     160       0       0       0       0       0       000010200D0000203
     123       0       0       1       0                               0D0000204
     123     161       0       0       0       0       0       000010200D0000205
     123       0       0       1       0                               0D0000206
     508     162       0       0       0       0       0       000010000D0000207
     508       0       0       1       1                               0D0000208
     508     163       0       0       0       0       0       000010000D0000209
     508       0       0       1       1                               0D0000210
     510     164       0       0       0       0       0       000010000D0000211
     510       0       0       1       1                               0D0000212
     192     165       0       0       0       0       0       000010000D0000213
     192       0       0       1       1                               0D0000214
     116     166       0       0       0       0       0       000010400D0000215
     116       0       0       1       0                               0D0000216
     123     167       0       0       0       0       0       000010200D0000217
     123       0       0       1       0                               0D0000218
     123     168       0       0       0       0       0       000010200D0000219
     123       0       0       1       0                               0D0000220
     508     169       0       0       0       0       0       000010000D0000221
     508       0       0       2       1                               0D0000222
     110     171       0       0       0       0       0       000010000D0000223
     110       0       0       1       0                               0D0000224
     110     172       0       0       0       0       0       000010000D0000225
     110       0       0       1       0                               0D0000226
     110     173       0       0       0       0       0       000010000D0000227
     110       0       0       1       0                               0D0000228
     110     174       0       0       0       0       0       000010000D0000229
     110       0       0       1       0                               0D0000230
     510     175       0       0       0       0       0       000010000D0000231
     510       0       0       1       1                               0D0000232
     190     176       0       0       0       0       0       000010000D0000233
     190       0       0       1       1                               0D0000234
     116     177       0       0       0       0       0       000010400D0000235
     116       0       0       1       0                               0D0000236
     123     178       0       0       0       0       0       000010200D0000237
     123       0       0       1       0                               0D0000238
     123     179       0       0       0       0       0       000010200D0000239
     123       0       0       1       0                               0D0000240
     508     180       0       0       0       0       0       000010000D0000241
     508       0       0       1       1                               0D0000242
     508     181       0       0       0       0       0       000010000D0000243
     508       0       0       1       1                               0D0000244
     510     182       0       0       0       0       0       000010000D0000245
     510       0       0       1       1                               0D0000246
     192     183       0       0       0       0       0       000010000D0000247
     192       0       0       1       1                               0D0000248
     116     184       0       0       0       0       0       000010400D0000249
     116       0       0       1       0                               0D0000250
     123     185       0       0       0       0       0       000010200D0000251
     123       0       0       1       0                               0D0000252
     123     186       0       0       0       0       0       000010200D0000253
     123       0       0       1       0                               0D0000254
     508     187       0       0       0       0       0       000010000D0000255
     508       0       0       2       1                               0D0000256
     110     189       0       0       0       0       0       000010000D0000257
     110       0       0       1       0                               0D0000258
     110     190       0       0       0       0       0       000010000D0000259
     110       0       0       1       0                               0D0000260
     110     191       0       0       0       0       0       000010000D0000261
     110       0       0       1       0                               0D0000262
     110     192       0       0       0       0       0       000010000D0000263
     110       0       0       1       0                               0D0000264
     510     193       0       0       0       0       0       000010000D0000265
     510       0       0       1       1                               0D0000266
     190     194       0       0       0       0       0       000010000D0000267
     190       0       0       1       1                               0D0000268
     116     195       0       0       0       0       0       000010400D0000269
     116       0       0       1       0                               0D0000270
     123     196       0       0       0       0       0       000010200D0000271
     123       0       0       1       0                               0D0000272
     123     197       0       0       0       0       0       000010200D0000273
     123       0       0       1       0                               0D0000274
     508     198       0       0       0       0       0       000010000D0000275
     508       0       0       1       1                               0D0000276
     508     199       0       0       0       0       0       000010000D0000277
     508       0       0       1       1                               0D0000278
     510     200       0       0       0       0       0       000010000D0000279
     510       0       0       1       1                               0D0000280
     192     201       0       0       0       0       0       000010000D0000281
     192       0       0       1       1                               0D0000282
     116     202       0       0       0       0       0       000010400D0000283
     116       0       0       1       0                               0D0000284
     123     203       0       0       0       0       0       000010200D0000285
     123       0       0       1       0                               0D0000286
     123     204       0       0       0       0       0       000010200D0000287
     123       0       0       1       0                               0D0000288
     508     205       0       0       0       0       0       000010000D0000289
     508       0       0       2       1                               0D0000290
     110     207       0       0       0       0       0       000010000D0000291
     110       0       0       1       0                               0D0000292
     110     208       0       0       0       0       0       000010000D0000293
     110       0       0       1       0                               0D0000294
     110     209       0       0       0       0       0       000010000D0000295
     110       0       0       1       0                               0D0000296
     110     210       0       0       0       0       0       000010000D0000297
     110       0       0       1       0                               0D0000298
     510     211       0       0       0       0       0       000010000D0000299
     510       0       0       1       1                               0D0000300
     190     212       0       0       0       0       0       000010000D0000301
     190       0       0       1       1                               0D0000302
     116     213       0       0       0       0       0       000010400D0000303
     116       0       0       1       0                               0D0000304
     123     214       0       0       0       0       0       000010200D0000305
     123       0       0       1       0                               0D0000306
     123     215       0       0       0       0       0       000010200D0000307
     123       0       0       1       0                               0D0000308
     508     216       0       0       0       0       0       000010000D0000309
     508       0       0       1       1                               0D0000310
     508     217       0       0       0       0       0       000010000D0000311
     508       0       0       1       1                               0D0000312
     510     218       0       0       0       0       0       000010000D0000313
     510       0       0       1       1                               0D0000314
     192     219       0       0       0       0       0       000010000D0000315
     192       0       0       1       1                               0D0000316
     116     220       0       0       0       0       0       000010400D0000317
     116       0       0       1       0                               0D0000318
     123     221       0       0       0       0       0       000010200D0000319
     123       0       0       1       0                               0D0000320
     123     222       0       0       0       0       0       000010200D0000321
     123       0       0       1       0                               0D0000322
     508     223       0       0       0       0       0       000010000D0000323
     508       0       0       2       1                               0D0000324
     110     225       0       0       0       0       0       000010000D0000325
     110       0       0       1       0                               0D0000326
     110     226       0       0       0       0       0       000010000D0000327
     110       0       0       1       0                               0D0000328
     110     227       0       0       0       0       0       000010000D0000329
     110       0       0       1       0                               0D0000330
     110     228       0       0       0       0       0       000010000D0000331
     110       0       0       1       0                               0D0000332
     510     229       0       0       0       0       0       000010000D0000333
     510       0       0       1       1                               0D0000334
     190     230       0       0       0       0       0       000010000D0000335
     190       0       0       1       1                               0D0000336
     116     231       0       0       0       0       0       000010400D0000337
     116       0       0       1       0                               0D0000338
     123     232       0       0       0       0       0       000010200D0000339
     123       0       0       1       0                               0D0000340
     123     233       0       0       0       0       0       000010200D0000341
     123       0       0       1       0                               0D0000342
     508     234       0       0       0       0       0       000010000D0000343
     508       0       0       1       1                               0D0000344
     508     235       0       0       0       0       0       000010000D0000345
     508       0       0       1       1                               0D0000346
     510     236       0       0       0       0       0       000010000D0000347
     510       0       0       1       1                               0D0000348
     192     237       0       0       0       0       0       000010000D0000349
     192       0       0       1       1                               0D0000350
     116     238       0       0       0       0       0       000010400D0000351
     116       0       0       1       0                               0D0000352
     123     239       0       0       0       0       0       000010200D0000353
     123       0       0       1       0                               0D0000354
     123     240       0       0       0       0       0       000010200D0000355
     123       0       0       1       0                               0D0000356
     508     241       0       0       0       0       0       000010000D0000357
     508       0       0       2       1                               0D0000358
     110     243       0       0       0       0       0       000010000D0000359
     110       0       0       1       0                               0D0000360
     110     244       0       0       0       0       0       000010000D0000361
     110       0       0       1       0                               0D0000362
     110     245       0       0       0       0       0       000010000D0000363
     110       0       0       1       0                               0D0000364
     110     246       0       0       0       0       0       000010000D0000365
     110       0       0       1       0                               0D0000366
     510     247       0       0       0       0       0       000010000D0000367
     510       0       0       1       1                               0D0000368
     190     248       0       0       0       0       0       000010000D0000369
     190       0       0       1       1                               0D0000370
     116     249       0       0       0       0       0       000010400D0000371
     116       0       0       1       0                               0D0000372
     123     250       0       0       0       0       0       000010200D0000373
     123       0       0       1       0                               0D0000374
     123     251       0       0       0       0       0       000010200D0000375
     123       0       0       1       0                               0D0000376
     508     252       0       0       0       0       0       000010000D0000377
     508       0       0       1       1                               0D0000378
     508     253       0       0       0       0       0       000010000D0000379
     508       0       0       1       1                               0D0000380
     510     254       0       0       0       0       0       000010000D0000381
     510       0       0       1       1                               0D0000382
     192     255       0       0       0       0       0       000010000D0000383
     192       0       0       1       1                               0D0000384
     116     256       0       0       0       0       0       000010400D0000385
     116       0       0       1       0                               0D0000386
     123     257       0       0       0       0       0       000010200D0000387
     123       0       0       1       0                               0D0000388
     123     258       0       0       0       0       0       000010200D0000389
     123       0       0       1       0                               0D0000390
     508     259       0       0       0       0       0       000010000D0000391
     508       0       0       2       1                               0D0000392
     110     261       0       0       0       0       0       000010000D0000393
     110       0       0       1       0                               0D0000394
     110     262       0       0       0       0       0       000010000D0000395
     110       0       0       1       0                               0D0000396
     110     263       0       0       0       0       0       000010000D0000397
     110       0       0       1       0                               0D0000398
     110     264       0       0       0       0       0       000010000D0000399
     110       0       0       1       0                               0D0000400
     510     265       0       0       0       0       0       000010000D0000401
     510       0       0       1       1                               0D0000402
     190     266       0       0       0       0       0       000010000D0000403
     190       0       0       1       1                               0D0000404
     116     267       0       0       0       0       0       000010400D0000405
     116       0       0       1       0                               0D0000406
     123     268       0       0       0       0       0       000010200D0000407
     123       0       0       1       0                               0D0000408
     123     269       0       0       0       0       0       000010200D0000409
     123       0       0       1       0                               0D0000410
     508     270       0       0       0       0       0       000010000D0000411
     508       0       0       1       1                               0D0000412
     508     271       0       0       0       0       0       000010000D0000413
     508       0       0       1       1                               0D0000414
     510     272       0       0       0       0       0       000010000D0000415
     510       0       0       1       1                               0D0000416
     192     273       0       0       0       0       0       000010000D0000417
     192       0       0       1       1                               0D0000418
     116     274       0       0       0       0       0       000010400D0000419
     116       0       0       1       0                               0D0000420
     123     275       0       0       0       0       0       000010200D0000421
     123       0       0       1       0                               0D0000422
     123     276       0       0       0       0       0       000010200D0000423
     123       0       0       1       0                               0D0000424
     508     277       0       0       0       0       0       000010000D0000425
     508       0       0       2       1                               0D0000426
     110     279       0       0       0       0       0       000010000D0000427
     110       0       0       1       0                               0D0000428
     110     280       0       0       0       0       0       000010000D0000429
     110       0       0       1       0                               0D0000430
     110     281       0       0       0       0       0       000010000D0000431
     110       0       0       1       0                               0D0000432
     110     282       0       0       0       0       0       000010000D0000433
     110       0       0       1       0                               0D0000434
     510     283       0       0       0       0       0       000010000D0000435
     510       0       0       1       1                               0D0000436
     190     284       0       0       0       0       0       000010000D0000437
     190       0       0       1       1                               0D0000438
     116     285       0       0       0       0       0       000010400D0000439
     116       0       0       1       0                               0D0000440
     123     286       0       0       0       0       0       000010200D0000441
     123       0       0       1       0                               0D0000442
     123     287       0       0       0       0       0       000010200D0000443
     123       0       0       1       0                               0D0000444
     508     288       0       0       0       0       0       000010000D0000445
     508       0       0       1       1                               0D0000446
     508     289       0       0       0       0       0       000010000D0000447
     508       0       0       1       1                               0D0000448
186,3,1,0;                                                       0000001P0000001
514,20,5,1,129,0,143,1,163,1,177,1,197,0,211,1,231,1,245,1,265,  0000003P0000002
0,279,0,299,0,313,1,333,0,347,0,367,1,381,1,401,1,415,0,435,1;   0000003P0000003
510,7,1,1,15;                                                    0000005P0000004
192,9,11,7.5,13;                                                 0000007P0000005
116,0.,-7.993605777E-15,-12.,0;                                  0000009P0000006
123,0.,6.661338148E-16,1.;                                       0000011P0000007
123,1.,-3.552713679E-16,2.366582716E-31;                         0000013P0000008
508,4,0,17,1,1,1,0,121,0,17,2,1,1,0,123,0,17,1,0,1,0,125,0,17,3, 0000015P0000009
0,1,0,127;                                                       0000015P0000010
504,30,19,21,1,21,2,23,21,2,21,2,27,21,1,21,1,31,21,3,21,3,35,   0000017P0000011
21,4,21,4,39,21,4,21,3,41,21,5,21,5,45,21,5,21,6,47,21,6,21,6,   0000017P0000012
51,21,7,21,7,55,21,7,21,8,57,21,8,21,8,61,21,9,21,9,65,21,9,21,  0000017P0000013
10,67,21,10,21,10,71,21,11,21,11,75,21,11,21,12,77,21,12,21,12,  0000017P0000014
81,21,13,21,13,85,21,13,21,14,87,21,14,21,14,91,21,15,21,15,95,  0000017P0000015
21,15,21,16,97,21,16,21,16,101,21,17,21,17,105,21,18,21,18,109,  0000017P0000016
21,18,21,17,111,21,19,21,19,115,21,20,21,19,117,21,20,21,20;     0000017P0000017
110,7.5,-1.065814104E-14,-12.,7.5,-7.727152251E-15,-8.7;         0000019P0000018
502,20,7.5,-1.065814104E-14,-12.,7.5,-7.727152251E-15,-8.7,7.15, 0000021P0000019
-7.727152251E-15,-8.7,7.15,-6.75015599E-15,-7.6,7.5,             0000021P0000020
-6.75015599E-15,-7.6,7.5,6.75015599E-15,7.6,7.15,6.75015599E-15, 0000021P0000021
7.6,7.15,7.727152251E-15,8.7,7.5,7.727152251E-15,8.7,7.5,        0000021P0000022
1.065814104E-14,12.,6.2,1.065814104E-14,12.,6.2,9.414691249E-15, 0000021P0000023
10.6,4.6,9.414691249E-15,10.6,4.6,1.003641614E-14,11.3,4.,       0000021P0000024
1.003641614E-14,11.3,4.,-1.003641614E-14,-11.3,4.6,              0000021P0000025
-1.003641614E-14,-11.3,4.6,-9.414691249E-15,-10.6,6.2,           0000021P0000026
-9.414691249E-15,-10.6,6.2,-1.065814104E-14,-12.;                0000021P0000027
100,0.,0.,0.,7.5,0.,7.5,0.;                                      0000023P0000028
124,1.,-2.575717417E-16,0.,0.,-2.575717417E-16,-1.,              0000025P0000029
-6.661338148E-16,-5.795364189E-15,1.715772469E-31,               0000025P0000030
6.661338148E-16,-1.,-8.7;                                        0000025P0000031
100,0.,0.,0.,7.5,0.,7.5,0.;                                      0000027P0000032
124,1.,-3.552713679E-16,-4.379057701E-47,0.,-3.552713679E-16,    0000029P0000033
-1.,-6.661338148E-16,-7.993605777E-15,2.366582716E-31,           0000029P0000034
6.661338148E-16,-1.,-12.;                                        0000029P0000035
100,0.,0.,0.,7.15,0.,7.15,0.;                                    0000031P0000036
124,1.,-2.701801487E-16,2.189528851E-47,0.,-2.701801487E-16,-1., 0000033P0000037
-6.661338148E-16,-5.795364189E-15,1.799761331E-31,               0000033P0000038
6.661338148E-16,-1.,-8.7;                                        0000033P0000039
100,0.,0.,0.,7.15,0.,7.15,0.;                                    0000035P0000040
124,1.,-2.360194402E-16,0.,0.,-2.360194402E-16,-1.,              0000037P0000041
-6.661338148E-16,-5.062616992E-15,1.572205301E-31,               0000037P0000042
6.661338148E-16,-1.,-7.6;                                        0000037P0000043
110,7.15,-6.75015599E-15,-7.6,7.15,-7.727152251E-15,-8.7;        0000039P0000044
100,0.,0.,0.,7.5,0.,7.5,0.;                                      0000041P0000045
124,1.,-2.250051997E-16,0.,0.,-2.250051997E-16,-1.,              0000043P0000046
-6.661338148E-16,-5.062616992E-15,1.49883572E-31,                0000043P0000047
6.661338148E-16,-1.,-7.6;                                        0000043P0000048
110,7.5,-6.75015599E-15,-7.6,7.5,6.75015599E-15,7.6;             0000045P0000049
100,0.,0.,0.,7.5,0.,7.5,0.;                                      0000047P0000050
124,1.,2.250051997E-16,2.189528851E-47,0.,2.250051997E-16,-1.,   0000049P0000051
-6.661338148E-16,5.062616992E-15,-1.49883572E-31,                0000049P0000052
6.661338148E-16,-1.,7.6;                                         0000049P0000053
100,0.,0.,0.,7.15,0.,7.15,0.;                                    0000051P0000054
124,1.,2.360194402E-16,0.,0.,2.360194402E-16,-1.,                0000053P0000055
-6.661338148E-16,5.062616992E-15,-1.572205301E-31,               0000053P0000056
6.661338148E-16,-1.,7.6;                                         0000053P0000057
110,7.15,6.75015599E-15,7.6,7.15,7.727152251E-15,8.7;            0000055P0000058
100,0.,0.,0.,7.15,0.,7.15,0.;                                    0000057P0000059
124,1.,2.701801487E-16,0.,0.,2.701801487E-16,-1.,                0000059P0000060
-6.661338148E-16,5.795364189E-15,-1.799761331E-31,               0000059P0000061
6.661338148E-16,-1.,8.7;                                         0000059P0000062
100,0.,0.,0.,7.5,0.,7.5,0.;                                      0000061P0000063
124,1.,2.575717417E-16,-2.189528851E-47,0.,2.575717417E-16,-1.,  0000063P0000064
-6.661338148E-16,5.795364189E-15,-1.715772469E-31,               0000063P0000065
6.661338148E-16,-1.,8.7;                                         0000063P0000066
110,7.5,7.727152251E-15,8.7,7.5,1.065814104E-14,12.;             0000065P0000067
100,0.,0.,0.,7.5,0.,7.5,0.;                                      0000067P0000068
124,1.,3.552713679E-16,4.379057701E-47,0.,3.552713679E-16,-1.,   0000069P0000069
-6.661338148E-16,7.993605777E-15,-2.366582716E-31,               0000069P0000070
6.661338148E-16,-1.,12.;                                         0000069P0000071
100,0.,0.,0.,6.2,0.,6.2,0.;                                      0000071P0000072
124,1.,4.297637515E-16,0.,0.,4.297637515E-16,-1.,                0000073P0000073
-6.661338148E-16,7.993605777E-15,-2.862801672E-31,               0000073P0000074
6.661338148E-16,-1.,12.;                                         0000073P0000075
110,6.2,1.065814104E-14,12.,6.2,9.414691249E-15,10.6;            0000075P0000076
100,0.,0.,0.,6.2,7.888609052E-31,6.2,7.888609052E-31;            0000077P0000077
124,1.,3.796246471E-16,-4.379057701E-47,0.,3.796246471E-16,-1.,  0000079P0000078
-6.661338148E-16,7.061018437E-15,-2.528808144E-31,               0000079P0000079
6.661338148E-16,-1.,10.6;                                        0000079P0000080
100,0.,0.,0.,4.6,-7.888609052E-31,4.6,-7.888609052E-31;          0000081P0000081
124,1.,5.116680027E-16,0.,0.,5.116680027E-16,-1.,                0000083P0000082
-6.661338148E-16,7.061018437E-15,-3.408393585E-31,               0000083P0000083
6.661338148E-16,-1.,10.6;                                        0000083P0000084
110,4.6,9.414691249E-15,10.6,4.6,1.003641614E-14,11.3;           0000085P0000085
100,0.,0.,0.,4.6,0.,4.6,0.;                                      0000087P0000086
124,1.,5.454573991E-16,0.,0.,5.454573991E-16,-1.,                0000089P0000087
-6.661338148E-16,7.527312107E-15,-3.63347618E-31,                0000089P0000088
6.661338148E-16,-1.,11.3;                                        0000089P0000089
100,0.,0.,0.,4.,0.,4.,0.;                                        0000091P0000090
124,1.,6.272760089E-16,0.,0.,6.272760089E-16,-1.,                0000093P0000091
-6.661338148E-16,7.527312107E-15,-4.178497607E-31,               0000093P0000092
6.661338148E-16,-1.,11.3;                                        0000093P0000093
110,4.,1.003641614E-14,11.3,4.,-1.003641614E-14,-11.3;           0000095P0000094
100,0.,0.,0.,4.,0.,4.,0.;                                        0000097P0000095
124,1.,-6.272760089E-16,0.,0.,-6.272760089E-16,-1.,              0000099P0000096
-6.661338148E-16,-7.527312107E-15,4.178497607E-31,               0000099P0000097
6.661338148E-16,-1.,-11.3;                                       0000099P0000098
100,0.,0.,0.,4.6,0.,4.6,0.;                                      0000101P0000099
124,1.,-5.454573991E-16,0.,0.,-5.454573991E-16,-1.,              0000103P0000100
-6.661338148E-16,-7.527312107E-15,3.63347618E-31,                0000103P0000101
6.661338148E-16,-1.,-11.3;                                       0000103P0000102
100,0.,0.,0.,4.6,7.888609052E-31,4.6,7.888609052E-31;            0000105P0000103
124,1.,-5.116680027E-16,0.,0.,-5.116680027E-16,-1.,              0000107P0000104
-6.661338148E-16,-7.061018437E-15,3.408393585E-31,               0000107P0000105
6.661338148E-16,-1.,-10.6;                                       0000107P0000106
110,4.6,-9.414691249E-15,-10.6,4.6,-1.003641614E-14,-11.3;       0000109P0000107
100,0.,0.,0.,6.2,-7.888609052E-31,6.2,-7.888609052E-31;          0000111P0000108
124,1.,-3.796246471E-16,4.379057701E-47,0.,-3.796246471E-16,-1., 0000113P0000109
-6.661338148E-16,-7.061018437E-15,2.528808144E-31,               0000113P0000110
6.661338148E-16,-1.,-10.6;                                       0000113P0000111
110,6.2,-1.065814104E-14,-12.,6.2,-9.414691249E-15,-10.6;        0000115P0000112
100,0.,0.,0.,6.2,0.,6.2,0.;                                      0000117P0000113
124,1.,-4.297637515E-16,0.,0.,-4.297637515E-16,-1.,              0000119P0000114
-6.661338148E-16,-7.993605777E-15,2.862801672E-31,               0000119P0000115
6.661338148E-16,-1.,-12.;                                        0000119P0000116
110,360.,0.,0.,360.,3.3,0.;                                      0000121P0000117
110,360.,3.3,0.,0.,3.3,0.;                                       0000123P0000118
110,-2.37142157E-11,3.3,0.,-2.37142157E-11,0.,0.;                0000125P0000119
110,0.,0.,0.,360.,0.,0.;                                         0000127P0000120
510,131,2,1,139,141;                                             0000129P0000121
190,133,135,137;                                                 0000131P0000122
116,0.,-5.795364189E-15,-8.7,0;                                  0000133P0000123
123,-0.,-6.661338148E-16,-1.;                                    0000135P0000124
123,1.,-2.701801487E-16,1.799761331E-31;                         0000137P0000125
508,1,0,17,2,1,0;                                                0000139P0000126
508,1,0,17,4,0,0;                                                0000141P0000127
510,145,1,1,153;                                                 0000143P0000128
192,147,149,7.15,151;                                            0000145P0000129
116,0.,-5.062616992E-15,-7.6,0;                                  0000147P0000130
123,-0.,-6.661338148E-16,-1.;                                    0000149P0000131
123,1.,-2.360194402E-16,1.572205301E-31;                         0000151P0000132
508,4,0,17,5,1,1,0,155,0,17,6,1,1,0,157,0,17,4,0,1,0,159,0,17,6, 0000153P0000133
0,1,0,161;                                                       0000153P0000134
110,0.,0.,0.,360.,0.,0.;                                         0000155P0000135
110,360.,0.,0.,360.,1.1,0.;                                      0000157P0000136
110,360.,1.1,0.,0.,1.1,0.;                                       0000159P0000137
110,2.37142157E-11,1.1,0.,2.37142157E-11,0.,0.;                  0000161P0000138
510,165,2,1,173,175;                                             0000163P0000139
190,167,169,171;                                                 0000165P0000140
116,0.,-5.062616992E-15,-7.6,0;                                  0000167P0000141
123,-0.,-6.661338148E-16,-1.;                                    0000169P0000142
123,1.,-2.250051997E-16,1.49883572E-31;                          0000171P0000143
508,1,0,17,7,1,0;                                                0000173P0000144
508,1,0,17,5,0,0;                                                0000175P0000145
510,179,1,1,187;                                                 0000177P0000146
192,181,183,7.5,185;                                             0000179P0000147
116,0.,-5.062616992E-15,-7.6,0;                                  0000181P0000148
123,0.,6.661338148E-16,1.;                                       0000183P0000149
123,1.,-2.250051997E-16,1.49883572E-31;                          0000185P0000150
508,4,0,17,8,1,1,0,189,0,17,9,1,1,0,191,0,17,8,0,1,0,193,0,17,7, 0000187P0000151
0,1,0,195;                                                       0000187P0000152
110,360.,0.,0.,360.,15.2,0.;                                     0000189P0000153
110,360.,15.2,0.,0.,15.2,0.;                                     0000191P0000154
110,-2.37142157E-11,15.2,0.,-2.37142157E-11,0.,0.;               0000193P0000155
110,0.,0.,0.,360.,0.,0.;                                         0000195P0000156
510,199,2,1,207,209;                                             0000197P0000157
190,201,203,205;                                                 0000199P0000158
116,0.,5.062616992E-15,7.6,0;                                    0000201P0000159
123,-0.,-6.661338148E-16,-1.;                                    0000203P0000160
123,1.,2.250051997E-16,-1.49883572E-31;                          0000205P0000161
508,1,0,17,9,1,0;                                                0000207P0000162
508,1,0,17,10,0,0;                                               0000209P0000163
510,213,1,1,221;                                                 0000211P0000164
192,215,217,7.15,219;                                            0000213P0000165
116,0.,5.062616992E-15,7.6,0;                                    0000215P0000166
123,0.,6.661338148E-16,1.;                                       0000217P0000167
123,1.,2.360194402E-16,-1.572205301E-31;                         0000219P0000168
508,4,0,17,11,1,1,0,223,0,17,12,1,1,0,225,0,17,11,0,1,0,227,0,   0000221P0000169
17,10,0,1,0,229;                                                 0000221P0000170
110,360.,0.,0.,360.,1.1,0.;                                      0000223P0000171
110,360.,1.1,0.,0.,1.1,0.;                                       0000225P0000172
110,-2.37142157E-11,1.1,0.,-2.37142157E-11,0.,0.;                0000227P0000173
110,0.,0.,0.,360.,0.,0.;                                         0000229P0000174
510,233,2,1,241,243;                                             0000231P0000175
190,235,237,239;                                                 0000233P0000176
116,0.,5.795364189E-15,8.7,0;                                    0000235P0000177
123,-0.,-6.661338148E-16,-1.;                                    0000237P0000178
123,1.,2.701801487E-16,-1.799761331E-31;                         0000239P0000179
508,1,0,17,13,1,0;                                               0000241P0000180
508,1,0,17,12,0,0;                                               0000243P0000181
510,247,1,1,255;                                                 0000245P0000182
192,249,251,7.5,253;                                             0000247P0000183
116,0.,5.795364189E-15,8.7,0;                                    0000249P0000184
123,0.,6.661338148E-16,1.;                                       0000251P0000185
123,1.,2.575717417E-16,-1.715772469E-31;                         0000253P0000186
508,4,0,17,14,1,1,0,257,0,17,15,1,1,0,259,0,17,14,0,1,0,261,0,   0000255P0000187
17,13,0,1,0,263;                                                 0000255P0000188
110,360.,0.,0.,360.,3.3,0.;                                      0000257P0000189
110,360.,3.3,0.,0.,3.3,0.;                                       0000259P0000190
110,-2.37142157E-11,3.3,0.,-2.37142157E-11,0.,0.;                0000261P0000191
110,0.,0.,0.,360.,0.,0.;                                         0000263P0000192
510,267,2,1,275,277;                                             0000265P0000193
190,269,271,273;                                                 0000267P0000194
116,0.,7.993605777E-15,12.,0;                                    0000269P0000195
123,-0.,-6.661338148E-16,-1.;                                    0000271P0000196
123,1.,3.552713679E-16,-2.366582716E-31;                         0000273P0000197
508,1,0,17,15,1,0;                                               0000275P0000198
508,1,0,17,16,0,0;                                               0000277P0000199
510,281,1,1,289;                                                 0000279P0000200
192,283,285,6.2,287;                                             0000281P0000201
116,0.,7.993605777E-15,12.,0;                                    0000283P0000202
123,-0.,-6.661338148E-16,-1.;                                    0000285P0000203
123,1.,4.297637515E-16,-2.862801672E-31;                         0000287P0000204
508,4,0,17,16,1,1,0,291,0,17,17,1,1,0,293,0,17,18,0,1,0,295,0,   0000289P0000205
17,17,0,1,0,297;                                                 0000289P0000206
110,0.,0.,0.,360.,0.,0.;                                         0000291P0000207
110,360.,0.,0.,360.,1.4,0.;                                      0000293P0000208
110,360.,1.4,0.,0.,1.4,0.;                                       0000295P0000209
110,2.37142157E-11,1.4,0.,2.37142157E-11,0.,0.;                  0000297P0000210
510,301,2,1,309,311;                                             0000299P0000211
190,303,305,307;                                                 0000301P0000212
116,0.,7.061018437E-15,10.6,0;                                   0000303P0000213
123,-0.,-6.661338148E-16,-1.;                                    0000305P0000214
123,1.,3.796246471E-16,-2.528808144E-31;                         0000307P0000215
508,1,0,17,18,1,0;                                               0000309P0000216
508,1,0,17,19,0,0;                                               0000311P0000217
510,315,1,1,323;                                                 0000313P0000218
192,317,319,4.6,321;                                             0000315P0000219
116,0.,7.061018437E-15,10.6,0;                                   0000317P0000220
123,0.,6.661338148E-16,1.;                                       0000319P0000221
123,1.,5.116680027E-16,-3.408393585E-31;                         0000321P0000222
508,4,0,17,20,1,1,0,325,0,17,21,1,1,0,327,0,17,20,0,1,0,329,0,   0000323P0000223
17,19,0,1,0,331;                                                 0000323P0000224
110,360.,0.,0.,360.,0.7,0.;                                      0000325P0000225
110,360.,0.7,0.,0.,0.7,0.;                                       0000327P0000226
110,-2.37142157E-11,0.7,0.,-2.37142157E-11,0.,0.;                0000329P0000227
110,0.,0.,0.,360.,0.,0.;                                         0000331P0000228
510,335,2,1,343,345;                                             0000333P0000229
190,337,339,341;                                                 0000335P0000230
116,0.,7.527312107E-15,11.3,0;                                   0000337P0000231
123,-0.,-6.661338148E-16,-1.;                                    0000339P0000232
123,1.,5.454573991E-16,-3.63347618E-31;                          0000341P0000233
508,1,0,17,21,1,0;                                               0000343P0000234
508,1,0,17,22,0,0;                                               0000345P0000235
510,349,1,1,357;                                                 0000347P0000236
192,351,353,4.,355;                                              0000349P0000237
116,0.,7.527312107E-15,11.3,0;                                   0000351P0000238
123,-0.,-6.661338148E-16,-1.;                                    0000353P0000239
123,1.,6.272760089E-16,-4.178497607E-31;                         0000355P0000240
508,4,0,17,22,1,1,0,359,0,17,23,1,1,0,361,0,17,24,0,1,0,363,0,   0000357P0000241
17,23,0,1,0,365;                                                 0000357P0000242
110,0.,0.,0.,360.,0.,0.;                                         0000359P0000243
110,360.,0.,0.,360.,22.6,0.;                                     0000361P0000244
110,360.,22.6,0.,0.,22.6,0.;                                     0000363P0000245
110,2.37142157E-11,22.6,0.,2.37142157E-11,0.,0.;                 0000365P0000246
510,369,2,1,377,379;                                             0000367P0000247
190,371,373,375;                                                 0000369P0000248
116,0.,-7.527312107E-15,-11.3,0;                                 0000371P0000249
123,-0.,-6.661338148E-16,-1.;                                    0000373P0000250
123,1.,-5.454573991E-16,3.63347618E-31;                          0000375P0000251
508,1,0,17,25,1,0;                                               0000377P0000252
508,1,0,17,24,0,0;                                               0000379P0000253
510,383,1,1,391;                                                 0000381P0000254
192,385,387,4.6,389;                                             0000383P0000255
116,0.,-7.061018437E-15,-10.6,0;                                 0000385P0000256
123,-0.,-6.661338148E-16,-1.;                                    0000387P0000257
123,1.,-5.116680027E-16,3.408393585E-31;                         0000389P0000258
508,4,0,17,26,1,1,0,393,0,17,27,1,1,0,395,0,17,25,0,1,0,397,0,   0000391P0000259
17,27,0,1,0,399;                                                 0000391P0000260
110,0.,0.,0.,360.,0.,0.;                                         0000393P0000261
110,360.,0.,0.,360.,0.7,0.;                                      0000395P0000262
110,360.,0.7,0.,0.,0.7,0.;                                       0000397P0000263
110,2.37142157E-11,0.7,0.,2.37142157E-11,0.,0.;                  0000399P0000264
510,403,2,1,411,413;                                             0000401P0000265
190,405,407,409;                                                 0000403P0000266
116,0.,-7.061018437E-15,-10.6,0;                                 0000405P0000267
123,-0.,-6.661338148E-16,-1.;                                    0000407P0000268
123,1.,-3.796246471E-16,2.528808144E-31;                         0000409P0000269
508,1,0,17,28,1,0;                                               0000411P0000270
508,1,0,17,26,0,0;                                               0000413P0000271
510,417,1,1,425;                                                 0000415P0000272
192,419,421,6.2,423;                                             0000417P0000273
116,0.,-7.993605777E-15,-12.,0;                                  0000419P0000274
123,0.,6.661338148E-16,1.;                                       0000421P0000275
123,1.,-4.297637515E-16,2.862801672E-31;                         0000423P0000276
508,4,0,17,29,1,1,0,427,0,17,28,1,1,0,429,0,17,29,0,1,0,431,0,   0000425P0000277
17,30,0,1,0,433;                                                 0000425P0000278
110,360.,0.,0.,360.,1.4,0.;                                      0000427P0000279
110,360.,1.4,0.,0.,1.4,0.;                                       0000429P0000280
110,-2.37142157E-11,1.4,0.,-2.37142157E-11,0.,0.;                0000431P0000281
110,0.,0.,0.,360.,0.,0.;                                         0000433P0000282
510,437,2,1,445,447;                                             0000435P0000283
190,439,441,443;                                                 0000437P0000284
116,0.,-7.993605777E-15,-12.,0;                                  0000439P0000285
123,-0.,-6.661338148E-16,-1.;                                    0000441P0000286
123,1.,-3.552713679E-16,2.366582716E-31;                         0000443P0000287
508,1,0,17,3,1,0;                                                0000445P0000288
508,1,0,17,30,0,0;                                               0000447P0000289
S      1G      4D    448P    289                                        T0000001
