                                                                        S0000001
,,31HOpen CASCADE IGES processor 7.9,13HFilename.iges,                  G0000001
16HOpen CASCADE 7.9,31HOpen CASCADE IGES processor 7.9,32,308,15,308,15,G0000002
,1.,2,2HMM,1,0.01,15H20261004.214557,1E-07,4.630852,7Hjiayuxu,,11,0,    G0000003
15H20261004.214557,;                                                    G0000004
     186       1       0       0       0       0       0       000000000D0000001
     186       0       0       1       0                               0D0000002
     514       2       0       0       0       0       0       000010000D0000003
     514       0       0       3       1                               0D0000004
     510       5       0       0       0       0       0       000010000D0000005
     510       0       0       1       1                               0D0000006
     190       6       0       0       0       0       0       000010000D0000007
     190       0       0       1       1                               0D0000008
     116       7       0       0       0       0       0       000010400D0000009
     116       0       0       1       0                               0D0000010
     123       8       0       0       0       0       0       000010200D0000011
     123       0       0       1       0                               0D0000012
     123       9       0       0       0       0       0       000010200D0000013
     123       0       0       1       0                               0D0000014
     508      10       0       0       0       0       0       000010000D0000015
     508       0       0       2       1                               0D0000016
     504      12       0       0       0       0       0       000010001D0000017
     504       0       0      12       1                               0D0000018
     100      24       0       0       0       0      21       000010000D0000019
     100       0       0       1       0                               0D0000020
     124      25       0       0       0       0       0       000000000D0000021
     124       0       0       2       0                               0D0000022
     502      27       0       0       0       0       0       000010000D0000023
     502       0       0      13       1                               0D0000024
     100      40       0       0       0       0      27       000010000D0000025
     100       0       0       1       0                               0D0000026
     124      41       0       0       0       0       0       000000000D0000027
     124       0       0       2       0                               0D0000028
     100      43       0       0       0       0      31       000010000D0000029
     100       0       0       1       0                               0D0000030
     124      44       0       0       0       0       0       000000000D0000031
     124       0       0       2       0                               0D0000032
     100      46       0       0       0       0      35       000010000D0000033
     100       0       0       1       0                               0D0000034
     124      47       0       0       0       0       0       000000000D0000035
     124       0       0       2       0                               0D0000036
     100      49       0       0       0       0      39       000010000D0000037
     100       0       0       1       0                               0D0000038
     124      50       0       0       0       0       0       000000000D0000039
     124       0       0       2       0                               0D0000040
     100      52       0       0       0       0      43       000010000D0000041
     100       0       0       1       0                               0D0000042
     124      53       0       0       0       0       0       000000000D0000043
     124       0       0       2       0                               0D0000044
     100      55       0       0       0       0      47       000010000D0000045
     100       0       0       1       0                               0D0000046
     124      56       0       0       0       0       0       000000000D0000047
     124       0       0       2       0                               0D0000048
     100      58       0       0       0       0      51       000010000D0000049
     100       0       0       1       0                               0D0000050
     124      59       0       0       0       0       0       000000000D0000051
     124       0       0       2       0                               0D0000052
     110      61       0       0       0       0       0       000010000D0000053
     110       0       0       1       0                               0D0000054
     104      62       0       0       0       0      57       000010000D0000055
     104       0       0       2       2                               0D0000056
     124      64       0       0       0       0       0       000000000D0000057
     124       0       0       3       0                               0D0000058
     104      67       0       0       0       0      61       000010000D0000059
     104       0       0       2       2                               0D0000060
     124      69       0       0       0       0       0       000000000D0000061
     124       0       0       2       0                               0D0000062
     104      71       0       0       0       0      65       000010000D0000063
     104       0       0       2       2                               0D0000064
     124      73       0       0       0       0       0       000000000D0000065
     124       0       0       3       0                               0D0000066
     104      76       0       0       0       0      69       000010000D0000067
     104       0       0       2       2                               0D0000068
     124      78       0       0       0       0       0       000000000D0000069
     124       0       0       2       0                               0D0000070
     104      80       0       0       0       0      73       000010000D0000071
     104       0       0       2       2                               0D0000072
     124      82       0       0       0       0       0       000000000D0000073
     124       0       0       3       0                               0D0000074
     104      85       0       0       0       0      77       000010000D0000075
     104       0       0       2       2                               0D0000076
     124      87       0       0       0       0       0       000000000D0000077
     124       0       0       3       0                               0D0000078
     104      90       0       0       0       0      81       000010000D0000079
     104       0       0       2       2                               0D0000080
     124      92       0       0       0       0       0       000000000D0000081
     124       0       0       3       0                               0D0000082
     104      95       0       0       0       0      85       000010000D0000083
     104       0       0       2       2                               0D0000084
     124      97       0       0       0       0       0       000000000D0000085
     124       0       0       3       0                               0D0000086
     104     100       0       0       0       0      89       000010000D0000087
     104       0       0       2       2                               0D0000088
     124     102       0       0       0       0       0       000000000D0000089
     124       0       0       2       0                               0D0000090
     104     104       0       0       0       0      93       000010000D0000091
     104       0       0       2       2                               0D0000092
     124     106       0       0       0       0       0       000000000D0000093
     124       0       0       3       0                               0D0000094
     104     109       0       0       0       0      97       000010000D0000095
     104       0       0       2       2                               0D0000096
     124     111       0       0       0       0       0       000000000D0000097
     124       0       0       2       0                               0D0000098
     104     113       0       0       0       0     101       000010000D0000099
     104       0       0       2       2                               0D0000100
     124     115       0       0       0       0       0       000000000D0000101
     124       0       0       3       0                               0D0000102
     110     118       0       0       0       0       0       000010000D0000103
     110       0       0       1       0                               0D0000104
     100     119       0       0       0       0     107       000010000D0000105
     100       0       0       1       0                               0D0000106
     124     120       0       0       0       0       0       000000000D0000107
     124       0       0       2       0                               0D0000108
     110     122       0       0       0       0       0       000010000D0000109
     110       0       0       1       0                               0D0000110
     104     123       0       0       0       0     113       000010000D0000111
     104       0       0       2       2                               0D0000112
     124     125       0       0       0       0       0       000000000D0000113
     124       0       0       2       0                               0D0000114
     104     127       0       0       0       0     117       000010000D0000115
     104       0       0       2       2                               0D0000116
     124     129       0       0       0       0       0       000000000D0000117
     124       0       0       2       0                               0D0000118
     110     131       0       0       0       0       0       000010000D0000119
     110       0       0       1       0                               0D0000120
     110     132       0       0       0       0       0       000010000D0000121
     110       0       0       1       0                               0D0000122
     104     133       0       0       0       0     125       000010000D0000123
     104       0       0       2       2                               0D0000124
     124     135       0       0       0       0       0       000000000D0000125
     124       0       0       3       0                               0D0000126
     104     138       0       0       0       0     129       000010000D0000127
     104       0       0       2       2                               0D0000128
     124     140       0       0       0       0       0       000000000D0000129
     124       0       0       3       0                               0D0000130
     104     143       0       0       0       0     133       000010000D0000131
     104       0       0       2       2                               0D0000132
     124     145       0       0       0       0       0       000000000D0000133
     124       0       0       3       0                               0D0000134
     104     148       0       0       0       0     137       000010000D0000135
     104       0       0       2       2                               0D0000136
     124     150       0       0       0       0       0       000000000D0000137
     124       0       0       3       0                               0D0000138
     110     153       0       0       0       0       0       000010000D0000139
     110       0       0       2       0                               0D0000140
     110     155       0       0       0       0       0       000010000D0000141
     110       0       0       1       0                               0D0000142
     104     156       0       0       0       0     145       000010000D0000143
     104       0       0       2       2                               0D0000144
     124     158       0       0       0       0       0       000000000D0000145
     124       0       0       3       0                               0D0000146
     104     161       0       0       0       0     149       000010000D0000147
     104       0       0       2       2                               0D0000148
     124     163       0       0       0       0       0       000000000D0000149
     124       0       0       3       0                               0D0000150
     104     166       0       0       0       0     153       000010000D0000151
     104       0       0       2       2                               0D0000152
     124     168       0       0       0       0       0       000000000D0000153
     124       0       0       3       0                               0D0000154
     104     171       0       0       0       0     157       000010000D0000155
     104       0       0       2       2                               0D0000156
     124     173       0       0       0       0       0       000000000D0000157
     124       0       0       3       0                               0D0000158
     110     176       0       0       0       0       0       000010000D0000159
     110       0       0       1       0                               0D0000160
     104     177       0       0       0       0     163       000010000D0000161
     104       0       0       2       2                               0D0000162
     124     179       0       0       0       0       0       000000000D0000163
     124       0       0       2       0                               0D0000164
     104     181       0       0       0       0     167       000010000D0000165
     104       0       0       2       2                               0D0000166
     124     183       0       0       0       0       0       000000000D0000167
     124       0       0       2       0                               0D0000168
     100     185       0       0       0       0     171       000010000D0000169
     100       0       0       1       0                               0D0000170
     124     186       0       0       0       0       0       000000000D0000171
     124       0       0       2       0                               0D0000172
     110     188       0       0       0       0       0       000010000D0000173
     110       0       0       2       0                               0D0000174
     100     190       0       0       0       0       0       000010000D0000175
     100       0       0       1       0                               0D0000176
     100     191       0       0       0       0       0       000010000D0000177
     100       0       0       1       0                               0D0000178
     100     192       0       0       0       0       0       000010000D0000179
     100       0       0       1       0                               0D0000180
     100     193       0       0       0       0       0       000010000D0000181
     100       0       0       1       0                               0D0000182
     100     194       0       0       0       0       0       000010000D0000183
     100       0       0       1       0                               0D0000184
     100     195       0       0       0       0       0       000010000D0000185
     100       0       0       1       0                               0D0000186
     508     196       0       0       0       0       0       000010000D0000187
     508       0       0       1       1                               0D0000188
     510     197       0       0       0       0       0       000010000D0000189
     510       0       0       1       1                               0D0000190
     194     198       0       0       0       0       0       000010000D0000191
     194       0       0       1       1                               0D0000192
     116     199       0       0       0       0       0       000010400D0000193
     116       0       0       1       0                               0D0000194
     123     200       0       0       0       0       0       000010200D0000195
     123       0       0       1       0                               0D0000196
     123     201       0       0       0       0       0       000010200D0000197
     123       0       0       1       0                               0D0000198
     508     202       0       0       0       0       0       000010000D0000199
     508       0       0       2       1                               0D0000200
     110     204       0       0       0       0       0       000010000D0000201
     110       0       0       1       0                               0D0000202
     126     205       0       0       0       0       0       000010000D0000203
     126       0       0       2       0                               0D0000204
     110     207       0       0       0       0       0       000010000D0000205
     110       0       0       1       0                               0D0000206
     126     208       0       0       0       0       0       000010000D0000207
     126       0       0       3       0                               0D0000208
     510     211       0       0       0       0       0       000010000D0000209
     510       0       0       1       1                               0D0000210
     194     212       0       0       0       0       0       000010000D0000211
     194       0       0       1       1                               0D0000212
     116     213       0       0       0       0       0       000010400D0000213
     116       0       0       1       0                               0D0000214
     123     214       0       0       0       0       0       000010200D0000215
     123       0       0       1       0                               0D0000216
     123     215       0       0       0       0       0       000010200D0000217
     123       0       0       1       0                               0D0000218
     508     216       0       0       0       0       0       000010000D0000219
     508       0       0       1       1                               0D0000220
     126     217       0       0       0       0       0       000010000D0000221
     126       0       0      11       0                               0D0000222
     110     228       0       0       0       0       0       000010000D0000223
     110       0       0       1       0                               0D0000224
     126     229       0       0       0       0       0       000010000D0000225
     126       0       0      11       0                               0D0000226
     510     240       0       0       0       0       0       000010000D0000227
     510       0       0       1       1                               0D0000228
     194     241       0       0       0       0       0       000010000D0000229
     194       0       0       1       1                               0D0000230
     116     242       0       0       0       0       0       000010400D0000231
     116       0       0       1       0                               0D0000232
     123     243       0       0       0       0       0       000010200D0000233
     123       0       0       1       0                               0D0000234
     123     244       0       0       0       0       0       000010200D0000235
     123       0       0       1       0                               0D0000236
     508     245       0       0       0       0       0       000010000D0000237
     508       0       0       1       1                               0D0000238
     126     246       0       0       0       0       0       000010000D0000239
     126       0       0      11       0                               0D0000240
     126     257       0       0       0       0       0       000010000D0000241
     126       0       0      11       0                               0D0000242
     110     268       0       0       0       0       0       000010000D0000243
     110       0       0       1       0                               0D0000244
     510     269       0       0       0       0       0       000010000D0000245
     510       0       0       1       1                               0D0000246
     194     270       0       0       0       0       0       000010000D0000247
     194       0       0       1       1                               0D0000248
     116     271       0       0       0       0       0       000010400D0000249
     116       0       0       1       0                               0D0000250
     123     272       0       0       0       0       0       000010200D0000251
     123       0       0       1       0                               0D0000252
     123     273       0       0       0       0       0       000010200D0000253
     123       0       0       1       0                               0D0000254
     508     274       0       0       0       0       0       000010000D0000255
     508       0       0       1       1                               0D0000256
     126     275       0       0       0       0       0       000010000D0000257
     126       0       0      11       0                               0D0000258
     110     286       0       0       0       0       0       000010000D0000259
     110       0       0       1       0                               0D0000260
     126     287       0       0       0       0       0       000010000D0000261
     126       0       0      11       0                               0D0000262
     510     298       0       0       0       0       0       000010000D0000263
     510       0       0       1       1                               0D0000264
     194     299       0       0       0       0       0       000010000D0000265
     194       0       0       1       1                               0D0000266
     116     300       0       0       0       0       0       000010400D0000267
     116       0       0       1       0                               0D0000268
     123     301       0       0       0       0       0       000010200D0000269
     123       0       0       1       0                               0D0000270
     123     302       0       0       0       0       0       000010200D0000271
     123       0       0       1       0                               0D0000272
     508     303       0       0       0       0       0       000010000D0000273
     508       0       0       1       1                               0D0000274
     126     304       0       0       0       0       0       000010000D0000275
     126       0       0      11       0                               0D0000276
     126     315       0       0       0       0       0       000010000D0000277
     126       0       0      11       0                               0D0000278
     110     326       0       0       0       0       0       000010000D0000279
     110       0       0       1       0                               0D0000280
     510     327       0       0       0       0       0       000010000D0000281
     510       0       0       1       1                               0D0000282
     194     328       0       0       0       0       0       000010000D0000283
     194       0       0       1       1                               0D0000284
     116     329       0       0       0       0       0       000010400D0000285
     116       0       0       1       0                               0D0000286
     123     330       0       0       0       0       0       000010200D0000287
     123       0       0       1       0                               0D0000288
     123     331       0       0       0       0       0       000010200D0000289
     123       0       0       1       0                               0D0000290
     508     332       0       0       0       0       0       000010000D0000291
     508       0       0       1       1                               0D0000292
     126     333       0       0       0       0       0       000010000D0000293
     126       0       0      10       0                               0D0000294
     110     343       0       0       0       0       0       000010000D0000295
     110       0       0       1       0                               0D0000296
     126     344       0       0       0       0       0       000010000D0000297
     126       0       0      11       0                               0D0000298
     510     355       0       0       0       0       0       000010000D0000299
     510       0       0       1       1                               0D0000300
     194     356       0       0       0       0       0       000010000D0000301
     194       0       0       1       1                               0D0000302
     116     357       0       0       0       0       0       000010400D0000303
     116       0       0       1       0                               0D0000304
     123     358       0       0       0       0       0       000010200D0000305
     123       0       0       1       0                               0D0000306
     123     359       0       0       0       0       0       000010200D0000307
     123       0       0       1       0                               0D0000308
     508     360       0       0       0       0       0       000010000D0000309
     508       0       0       1       1                               0D0000310
     126     361       0       0       0       0       0       000010000D0000311
     126       0       0      11       0                               0D0000312
     126     372       0       0       0       0       0       000010000D0000313
     126       0       0      11       0                               0D0000314
     110     383       0       0       0       0       0       000010000D0000315
     110       0       0       1       0                               0D0000316
     510     384       0       0       0       0       0       000010000D0000317
     510       0       0       1       1                               0D0000318
     192     385       0       0       0       0       0       000010000D0000319
     192       0       0       1       1                               0D0000320
     116     386       0       0       0       0       0       000010400D0000321
     116       0       0       1       0                               0D0000322
     123     387       0       0       0       0       0       000010200D0000323
     123       0       0       1       0                               0D0000324
     123     388       0       0       0       0       0       000010200D0000325
     123       0       0       1       0                               0D0000326
     508     389       0       0       0       0       0       000010000D0000327
     508       0       0       2       1                               0D0000328
     110     391       0       0       0       0       0       000010000D0000329
     110       0       0       1       0                               0D0000330
     110     392       0       0       0       0       0       000010000D0000331
     110       0       0       1       0                               0D0000332
     110     393       0       0       0       0       0       000010000D0000333
     110       0       0       1       0                               0D0000334
     110     394       0       0       0       0       0       000010000D0000335
     110       0       0       1       0                               0D0000336
     510     395       0       0       0       0       0       000010000D0000337
     510       0       0       1       1                               0D0000338
     190     396       0       0       0       0       0       000010000D0000339
     190       0       0       1       1                               0D0000340
     116     397       0       0       0       0       0       000010400D0000341
     116       0       0       1       0                               0D0000342
     123     398       0       0       0       0       0       000010200D0000343
     123       0       0       1       0                               0D0000344
     123     399       0       0       0       0       0       000010200D0000345
     123       0       0       1       0                               0D0000346
     508     400       0       0       0       0       0       000010000D0000347
     508       0       0       2       1                               0D0000348
     510     402       0       0       0       0       0       000010000D0000349
     510       0       0       1       1                               0D0000350
     190     403       0       0       0       0       0       000010000D0000351
     190       0       0       1       1                               0D0000352
     116     404       0       0       0       0       0       000010400D0000353
     116       0       0       1       0                               0D0000354
     123     405       0       0       0       0       0       000010200D0000355
     123       0       0       1       0                               0D0000356
     123     406       0       0       0       0       0       000010200D0000357
     123       0       0       1       0                               0D0000358
     508     407       0       0       0       0       0       000010000D0000359
     508       0       0       2       1                               0D0000360
     510     409       0       0       0       0       0       000010000D0000361
     510       0       0       1       1                               0D0000362
     190     410       0       0       0       0       0       000010000D0000363
     190       0       0       1       1                               0D0000364
     116     411       0       0       0       0       0       000010400D0000365
     116       0       0       1       0                               0D0000366
     123     412       0       0       0       0       0       000010200D0000367
     123       0       0       1       0                               0D0000368
     123     413       0       0       0       0       0       000010200D0000369
     123       0       0       1       0                               0D0000370
     508     414       0       0       0       0       0       000010000D0000371
     508       0       0       2       1                               0D0000372
     510     416       0       0       0       0       0       000010000D0000373
     510       0       0       1       1                               0D0000374
     190     417       0       0       0       0       0       000010000D0000375
     190       0       0       1       1                               0D0000376
     116     418       0       0       0       0       0       000010400D0000377
     116       0       0       1       0                               0D0000378
     123     419       0       0       0       0       0       000010200D0000379
     123       0       0       1       0                               0D0000380
     123     420       0       0       0       0       0       000010200D0000381
     123       0       0       1       0                               0D0000382
     508     421       0       0       0       0       0       000010000D0000383
     508       0       0       2       1                               0D0000384
     510     423       0       0       0       0       0       000010000D0000385
     510       0       0       1       1                               0D0000386
     190     424       0       0       0       0       0       000010000D0000387
     190       0       0       1       1                               0D0000388
     116     425       0       0       0       0       0       000010400D0000389
     116       0       0       1       0                               0D0000390
     123     426       0       0       0       0       0       000010200D0000391
     123       0       0       1       0                               0D0000392
     123     427       0       0       0       0       0       000010200D0000393
     123       0       0       1       0                               0D0000394
     508     428       0       0       0       0       0       000010000D0000395
     508       0       0       2       1                               0D0000396
     510     430       0       0       0       0       0       000010000D0000397
     510       0       0       1       1                               0D0000398
     190     431       0       0       0       0       0       000010000D0000399
     190       0       0       1       1                               0D0000400
     116     432       0       0       0       0       0       000010400D0000401
     116       0       0       1       0                               0D0000402
     123     433       0       0       0       0       0       000010200D0000403
     123       0       0       1       0                               0D0000404
     123     434       0       0       0       0       0       000010200D0000405
     123       0       0       1       0                               0D0000406
     508     435       0       0       0       0       0       000010000D0000407
     508       0       0       2       1                               0D0000408
     510     437       0       0       0       0       0       000010000D0000409
     510       0       0       1       1                               0D0000410
     194     438       0       0       0       0       0       000010000D0000411
     194       0       0       1       1                               0D0000412
     116     439       0       0       0       0       0       000010400D0000413
     116       0       0       1       0                               0D0000414
     123     440       0       0       0       0       0       000010200D0000415
     123       0       0       1       0                               0D0000416
     123     441       0       0       0       0       0       000010200D0000417
     123       0       0       1       0                               0D0000418
     508     442       0       0       0       0       0       000010000D0000419
     508       0       0       2       1                               0D0000420
     110     444       0       0       0       0       0       000010000D0000421
     110       0       0       1       0                               0D0000422
     126     445       0       0       0       0       0       000010000D0000423
     126       0       0       2       0                               0D0000424
     110     447       0       0       0       0       0       000010000D0000425
     110       0       0       1       0                               0D0000426
     126     448       0       0       0       0       0       000010000D0000427
     126       0       0       2       0                               0D0000428
     510     450       0       0       0       0       0       000010000D0000429
     510       0       0       1       1                               0D0000430
     194     451       0       0       0       0       0       000010000D0000431
     194       0       0       1       1                               0D0000432
     116     452       0       0       0       0       0       000010400D0000433
     116       0       0       1       0                               0D0000434
     123     453       0       0       0       0       0       000010200D0000435
     123       0       0       1       0                               0D0000436
     123     454       0       0       0       0       0       000010200D0000437
     123       0       0       1       0                               0D0000438
     508     455       0       0       0       0       0       000010000D0000439
     508       0       0       1       1                               0D0000440
     126     456       0       0       0       0       0       000010000D0000441
     126       0       0      11       0                               0D0000442
     126     467       0       0       0       0       0       000010000D0000443
     126       0       0      11       0                               0D0000444
     110     478       0       0       0       0       0       000010000D0000445
     110       0       0       1       0                               0D0000446
     510     479       0       0       0       0       0       000010000D0000447
     510       0       0       1       1                               0D0000448
     194     480       0       0       0       0       0       000010000D0000449
     194       0       0       1       1                               0D0000450
     116     481       0       0       0       0       0       000010400D0000451
     116       0       0       1       0                               0D0000452
     123     482       0       0       0       0       0       000010200D0000453
     123       0       0       1       0                               0D0000454
     123     483       0       0       0       0       0       000010200D0000455
     123       0       0       1       0                               0D0000456
     508     484       0       0       0       0       0       000010000D0000457
     508       0       0       1       1                               0D0000458
     110     485       0       0       0       0       0       000010000D0000459
     110       0       0       1       0                               0D0000460
     126     486       0       0       0       0       0       000010000D0000461
     126       0       0      11       0                               0D0000462
     126     497       0       0       0       0       0       000010000D0000463
     126       0       0      10       0                               0D0000464
     510     507       0       0       0       0       0       000010000D0000465
     510       0       0       1       1                               0D0000466
     194     508       0       0       0       0       0       000010000D0000467
     194       0       0       1       1                               0D0000468
     116     509       0       0       0       0       0       000010400D0000469
     116       0       0       1       0                               0D0000470
     123     510       0       0       0       0       0       000010200D0000471
     123       0       0       1       0                               0D0000472
     123     511       0       0       0       0       0       000010200D0000473
     123       0       0       1       0                               0D0000474
     508     512       0       0       0       0       0       000010000D0000475
     508       0       0       1       1                               0D0000476
     110     513       0       0       0       0       0       000010000D0000477
     110       0       0       1       0                               0D0000478
     126     514       0       0       0       0       0       000010000D0000479
     126       0       0      11       0                               0D0000480
     126     525       0       0       0       0       0       000010000D0000481
     126       0       0      11       0                               0D0000482
     510     536       0       0       0       0       0       000010000D0000483
     510       0       0       1       1                               0D0000484
     194     537       0       0       0       0       0       000010000D0000485
     194       0       0       1       1                               0D0000486
     116     538       0       0       0       0       0       000010400D0000487
     116       0       0       1       0                               0D0000488
     123     539       0       0       0       0       0       000010200D0000489
     123       0       0       1       0                               0D0000490
     123     540       0       0       0       0       0       000010200D0000491
     123       0       0       1       0                               0D0000492
     508     541       0       0       0       0       0       000010000D0000493
     508       0       0       1       1                               0D0000494
     126     542       0       0       0       0       0       000010000D0000495
     126       0       0      11       0                               0D0000496
     126     553       0       0       0       0       0       000010000D0000497
     126       0       0      11       0                               0D0000498
     110     564       0       0       0       0       0       000010000D0000499
     110       0       0       1       0                               0D0000500
     510     565       0       0       0       0       0       000010000D0000501
     510       0       0       1       1                               0D0000502
     194     566       0       0       0       0       0       000010000D0000503
     194       0       0       1       1                               0D0000504
     116     567       0       0       0       0       0       000010400D0000505
     116       0       0       1       0                               0D0000506
     123     568       0       0       0       0       0       000010200D0000507
     123       0       0       1       0                               0D0000508
     123     569       0       0       0       0       0       000010200D0000509
     123       0       0       1       0                               0D0000510
     508     570       0       0       0       0       0       000010000D0000511
     508       0       0       1       1                               0D0000512
     110     571       0       0       0       0       0       000010000D0000513
     110       0       0       1       0                               0D0000514
     126     572       0       0       0       0       0       000010000D0000515
     126       0       0      11       0                               0D0000516
     126     583       0       0       0       0       0       000010000D0000517
     126       0       0      10       0                               0D0000518
     510     593       0       0       0       0       0       000010000D0000519
     510       0       0       1       1                               0D0000520
     194     594       0       0       0       0       0       000010000D0000521
     194       0       0       1       1                               0D0000522
     116     595       0       0       0       0       0       000010400D0000523
     116       0       0       1       0                               0D0000524
     123     596       0       0       0       0       0       000010200D0000525
     123       0       0       1       0                               0D0000526
     123     597       0       0       0       0       0       000010200D0000527
     123       0       0       1       0                               0D0000528
     508     598       0       0       0       0       0       000010000D0000529
     508       0       0       1       1                               0D0000530
     126     599       0       0       0       0       0       000010000D0000531
     126       0       0      11       0                               0D0000532
     126     610       0       0       0       0       0       000010000D0000533
     126       0       0      10       0                               0D0000534
     110     620       0       0       0       0       0       000010000D0000535
     110       0       0       1       0                               0D0000536
     510     621       0       0       0       0       0       000010000D0000537
     510       0       0       1       1                               0D0000538
     190     622       0       0       0       0       0       000010000D0000539
     190       0       0       1       1                               0D0000540
     116     623       0       0       0       0       0       000010400D0000541
     116       0       0       1       0                               0D0000542
     123     624       0       0       0       0       0       000010200D0000543
     123       0       0       1       0                               0D0000544
     123     625       0       0       0       0       0       000010200D0000545
     123       0       0       1       0                               0D0000546
     508     626       0       0       0       0       0       000010000D0000547
     508       0       0       2       1                               0D0000548
     508     628       0       0       0       0       0       000010000D0000549
     508       0       0       1       1                               0D0000550
186,3,1,0;                                                       0000001P0000001
514,23,5,1,189,0,209,1,227,1,245,1,263,1,281,1,299,1,317,0,337,  0000003P0000002
0,349,0,361,0,373,0,385,0,397,0,409,0,429,1,447,1,465,1,483,1,   0000003P0000003
501,1,519,1,537,0;                                               0000003P0000004
510,7,2,1,15,187;                                                0000005P0000005
190,9,11,13;                                                     0000007P0000006
116,0.,5.329070518E-15,4.,0;                                     0000009P0000007
123,0.,1.33226763E-15,1.;                                        0000011P0000008
123,1.,2.220446049E-16,-2.958228395E-31;                         0000013P0000009
508,6,0,17,1,1,0,0,17,2,1,0,0,17,3,1,0,0,17,4,1,0,0,17,5,1,0,0,  0000015P0000010
17,6,1,0;                                                        0000015P0000011
504,49,19,23,1,23,2,25,23,2,23,3,29,23,3,23,4,33,23,4,23,5,37,   0000017P0000012
23,5,23,6,41,23,6,23,1,45,23,7,23,7,49,23,8,23,8,53,23,7,23,8,   0000017P0000013
55,23,2,23,9,59,23,9,23,1,63,23,10,23,6,67,23,1,23,10,71,23,3,   0000017P0000014
23,11,75,23,11,23,2,79,23,12,23,5,83,23,6,23,12,87,23,4,23,13,   0000017P0000015
91,23,13,23,3,95,23,14,23,4,99,23,5,23,14,103,23,8,23,15,105,23, 0000017P0000016
15,23,15,109,23,9,23,16,111,23,17,23,16,115,23,18,23,17,119,23,  0000017P0000017
10,23,18,121,23,11,23,19,123,23,20,23,19,127,23,16,23,20,131,23, 0000017P0000018
21,23,18,135,23,22,23,21,139,23,12,23,22,141,23,13,23,23,143,23, 0000017P0000019
24,23,23,147,23,19,23,24,151,23,25,23,22,155,23,26,23,25,159,23, 0000017P0000020
14,23,26,161,23,27,23,26,165,23,23,23,27,169,23,28,23,28,173,23, 0000017P0000021
15,23,28,175,23,21,23,17,177,23,17,23,20,179,23,20,23,24,181,23, 0000017P0000022
25,23,21,183,23,24,23,27,185,23,27,23,25;                        0000017P0000023
100,0.,0.,0.,4.,0.,2.,3.464101615;                               0000019P0000024
124,1.,-2.220446049E-16,0.,0.,2.220446049E-16,1.,1.33226763E-15, 0000021P0000025
5.329070518E-15,-2.958228395E-31,-1.33226763E-15,1.,4.;          0000021P0000026
502,28,4.,6.217248938E-15,4.,2.,3.464101615,4.,-2.,3.464101615,  0000023P0000027
4.,-4.,6.018089088E-15,4.,-2.,-3.464101615,4.,2.,-3.464101615,   0000023P0000028
4.,-2.7,5.329070518E-15,4.,-2.5,5.062616992E-15,3.8,4.,          0000023P0000029
2.309401077,3.642734511,4.,-2.309401077,3.642734511,0.,          0000023P0000030
4.618802154,3.642734511,-4.440892099E-16,-4.618802154,           0000023P0000031
3.642734511,-4.,2.309401077,3.642734511,-4.,-2.309401077,        0000023P0000032
3.642734511,-2.5,2.664535259E-16,0.2,4.,2.309401077,0.357265489, 0000023P0000033
4.,0.,0.,4.,-2.309401077,0.357265489,0.,4.618802154,0.357265489, 0000023P0000034
2.,3.464101615,-4.615110447E-15,2.,-3.464101615,4.615110447E-15, 0000023P0000035
-4.440892099E-16,-4.618802154,0.357265489,-4.,2.309401077,       0000023P0000036
0.357265489,-2.,3.464101615,-4.615110447E-15,-2.,-3.464101615,   0000023P0000037
4.615110447E-15,-4.,-2.309401077,0.357265489,-4.,                0000023P0000038
4.898587197E-16,-6.526229153E-31,-2.7,0.,0.;                     0000023P0000039
100,0.,0.,0.,2.,3.464101615,-2.,3.464101615;                     0000025P0000040
124,1.,-2.220446049E-16,0.,0.,2.220446049E-16,1.,1.33226763E-15, 0000027P0000041
5.329070518E-15,-2.958228395E-31,-1.33226763E-15,1.,4.;          0000027P0000042
100,0.,0.,0.,-2.,3.464101615,-4.,4.898587197E-16;                0000029P0000043
124,1.,-2.220446049E-16,0.,0.,2.220446049E-16,1.,1.33226763E-15, 0000031P0000044
5.329070518E-15,-2.958228395E-31,-1.33226763E-15,1.,4.;          0000031P0000045
100,0.,0.,0.,-4.,4.898587197E-16,-2.,-3.464101615;               0000033P0000046
124,1.,-2.220446049E-16,0.,0.,2.220446049E-16,1.,1.33226763E-15, 0000035P0000047
5.329070518E-15,-2.958228395E-31,-1.33226763E-15,1.,4.;          0000035P0000048
100,0.,0.,0.,-2.,-3.464101615,2.,-3.464101615;                   0000037P0000049
124,1.,-2.220446049E-16,0.,0.,2.220446049E-16,1.,1.33226763E-15, 0000039P0000050
5.329070518E-15,-2.958228395E-31,-1.33226763E-15,1.,4.;          0000039P0000051
100,0.,0.,0.,2.,-3.464101615,4.,-9.797174393E-16;                0000041P0000052
124,1.,-2.220446049E-16,0.,0.,2.220446049E-16,1.,1.33226763E-15, 0000043P0000053
5.329070518E-15,-2.958228395E-31,-1.33226763E-15,1.,4.;          0000043P0000054
100,0.,0.,0.,2.7,0.,2.7,0.;                                      0000045P0000055
124,-1.,0.,0.,0.,0.,-1.,1.33226763E-15,5.329070518E-15,0.,       0000047P0000056
1.33226763E-15,1.,4.;                                            0000047P0000057
100,0.,0.,0.,2.5,0.,2.5,0.;                                      0000049P0000058
124,-1.,0.,0.,0.,0.,-1.,1.33226763E-15,5.062616992E-15,0.,       0000051P0000059
1.33226763E-15,1.,3.8;                                           0000051P0000060
110,-2.7,5.329070518E-15,4.,-2.5,5.062616992E-15,3.8;            0000053P0000061
104,0.187500106,0.,-6.25E-02,-0.,0.,-1.,0.,2.309400426,          0000055P0000062
-1.774220571E-15,2.666665915,2.309401077;                        0000055P0000063
124,-3.045710159E-28,0.866025404,-0.5,2.,-1.33226763E-15,-0.5,   0000057P0000064
-0.866025404,3.464101615,-1.,6.661338148E-16,1.153777612E-15,    0000057P0000065
6.309400426;                                                     0000057P0000066
104,0.187500106,0.,-6.25E-02,-0.,0.,-1.,0.,2.666665915,          0000059P0000067
-2.309401077,2.309400426,-4.440892099E-16;                       0000059P0000068
124,0.,0.,-1.,4.,-1.33226763E-15,-1.,0.,8.405809949E-15,-1.,     0000061P0000069
1.33226763E-15,0.,6.309400426;                                   0000061P0000070
104,0.187500106,0.,-6.25E-02,-0.,0.,-1.,0.,2.666665915,          0000063P0000071
-2.309401077,2.309400426,-1.581924303E-15;                       0000063P0000072
124,3.045710159E-28,-0.866025404,-0.5,2.,-1.33226763E-15,-0.5,   0000065P0000073
0.866025404,-3.464101615,-1.,6.661338148E-16,-1.153777612E-15,   0000065P0000074
6.309400426;                                                     0000065P0000075
104,0.187500106,0.,-6.25E-02,-0.,0.,-1.,0.,2.309400426,          0000067P0000076
-4.440892099E-16,2.666665915,2.309401077;                        0000067P0000077
124,0.,0.,-1.,4.,-1.33226763E-15,-1.,0.,8.405809949E-15,-1.,     0000069P0000078
1.33226763E-15,0.,6.309400426;                                   0000069P0000079
104,0.187500106,0.,-6.25E-02,-0.,0.,-1.,0.,2.309400426,          0000071P0000080
1.774220571E-15,2.666665915,2.309401077;                         0000071P0000081
124,3.045710159E-28,0.866025404,0.5,-2.,-1.33226763E-15,0.5,     0000073P0000082
-0.866025404,3.464101615,-1.,-6.661338148E-16,1.153777612E-15,   0000073P0000083
6.309400426;                                                     0000073P0000084
104,0.187500106,0.,-6.25E-02,-0.,0.,-1.,0.,2.666665915,          0000075P0000085
-2.309401077,2.309400426,-1.774220571E-15;                       0000075P0000086
124,-3.045710159E-28,0.866025404,-0.5,2.,-1.33226763E-15,-0.5,   0000077P0000087
-0.866025404,3.464101615,-1.,6.661338148E-16,1.153777612E-15,    0000077P0000088
6.309400426;                                                     0000077P0000089
104,0.187500106,0.,-6.25E-02,-0.,0.,-1.,0.,2.666665915,          0000079P0000090
-2.309401077,2.309400426,1.581924303E-15;                        0000079P0000091
124,-3.045710159E-28,-0.866025404,0.5,-2.,-1.33226763E-15,0.5,   0000081P0000092
0.866025404,-3.464101615,-1.,-6.661338148E-16,-1.153777612E-15,  0000081P0000093
6.309400426;                                                     0000081P0000094
104,0.187500106,0.,-6.25E-02,-0.,0.,-1.,0.,2.309400426,          0000083P0000095
-1.581924303E-15,2.666665915,2.309401077;                        0000083P0000096
124,3.045710159E-28,-0.866025404,-0.5,2.,-1.33226763E-15,-0.5,   0000085P0000097
0.866025404,-3.464101615,-1.,6.661338148E-16,-1.153777612E-15,   0000085P0000098
6.309400426;                                                     0000085P0000099
104,0.187500106,0.,-6.25E-02,-0.,0.,-1.,0.,2.309400426,          0000087P0000100
2.788504521E-32,2.666665915,2.309401077;                         0000087P0000101
124,0.,0.,1.,-4.,-1.33226763E-15,1.,0.,8.405809949E-15,-1.,      0000089P0000102
-1.33226763E-15,0.,6.309400426;                                  0000089P0000103
104,0.187500106,0.,-6.25E-02,-0.,0.,-1.,0.,2.666665915,          0000091P0000104
-2.309401077,2.309400426,1.774220571E-15;                        0000091P0000105
124,3.045710159E-28,0.866025404,0.5,-2.,-1.33226763E-15,0.5,     0000093P0000106
-0.866025404,3.464101615,-1.,-6.661338148E-16,1.153777612E-15,   0000093P0000107
6.309400426;                                                     0000093P0000108
104,0.187500106,0.,-6.25E-02,-0.,0.,-1.,0.,2.666665915,          0000095P0000109
-2.309401077,2.309400426,2.788504521E-32;                        0000095P0000110
124,0.,0.,1.,-4.,-1.33226763E-15,1.,0.,8.405809949E-15,-1.,      0000097P0000111
-1.33226763E-15,0.,6.309400426;                                  0000097P0000112
104,0.187500106,0.,-6.25E-02,-0.,0.,-1.,0.,2.309400426,          0000099P0000113
1.581924303E-15,2.666665915,2.309401077;                         0000099P0000114
124,-3.045710159E-28,-0.866025404,0.5,-2.,-1.33226763E-15,0.5,   0000101P0000115
0.866025404,-3.464101615,-1.,-6.661338148E-16,-1.153777612E-15,  0000101P0000116
6.309400426;                                                     0000101P0000117
110,-2.5,5.062616992E-15,3.8,-2.5,2.664535259E-16,0.2;           0000103P0000118
100,0.,0.,0.,2.5,0.,2.5,0.;                                      0000105P0000119
124,-1.,0.,0.,0.,0.,-1.,1.33226763E-15,2.664535259E-16,0.,       0000107P0000120
1.33226763E-15,1.,0.2;                                           0000107P0000121
110,4.,2.309401077,3.642734511,4.,2.309401077,0.357265489;       0000109P0000122
104,0.187500106,0.,-6.25E-02,-0.,0.,-1.,0.,2.309400426,          0000111P0000123
-2.788504521E-32,2.666665915,2.309401077;                        0000111P0000124
124,0.,0.,-1.,4.,1.33226763E-15,1.,0.,-3.076739431E-15,1.,       0000113P0000125
-1.33226763E-15,0.,-2.309400426;                                 0000113P0000126
104,0.187500106,0.,-6.25E-02,-0.,0.,-1.,0.,2.666665915,          0000115P0000127
-2.309401077,2.309400426,-2.788504521E-32;                       0000115P0000128
124,0.,0.,-1.,4.,1.33226763E-15,1.,0.,-3.076739431E-15,1.,       0000117P0000129
-1.33226763E-15,0.,-2.309400426;                                 0000117P0000130
110,4.,-2.309401077,3.642734511,4.,-2.309401077,0.357265489;     0000119P0000131
110,0.,4.618802154,3.642734511,0.,4.618802154,0.357265489;       0000121P0000132
104,0.187500106,0.,-6.25E-02,-0.,0.,-1.,0.,2.309400426,          0000123P0000133
-1.581924303E-15,2.666665915,2.309401077;                        0000123P0000134
124,3.045710159E-28,-0.866025404,-0.5,2.,1.33226763E-15,0.5,     0000125P0000135
-0.866025404,3.464101615,1.,-6.661338148E-16,1.153777612E-15,    0000125P0000136
-2.309400426;                                                    0000125P0000137
104,0.187500106,0.,-6.25E-02,-0.,0.,-1.,0.,2.666665915,          0000127P0000138
-2.309401077,2.309400426,-1.581924303E-15;                       0000127P0000139
124,3.045710159E-28,-0.866025404,-0.5,2.,1.33226763E-15,0.5,     0000129P0000140
-0.866025404,3.464101615,1.,-6.661338148E-16,1.153777612E-15,    0000129P0000141
-2.309400426;                                                    0000129P0000142
104,0.187500106,0.,-6.25E-02,-0.,0.,-1.,0.,2.309400426,          0000131P0000143
-1.774220571E-15,2.666665915,2.309401077;                        0000131P0000144
124,-3.045710159E-28,0.866025404,-0.5,2.,1.33226763E-15,0.5,     0000133P0000145
0.866025404,-3.464101615,1.,-6.661338148E-16,-1.153777612E-15,   0000133P0000146
-2.309400426;                                                    0000133P0000147
104,0.187500106,0.,-6.25E-02,-0.,0.,-1.,0.,2.666665915,          0000135P0000148
-2.309401077,2.309400426,-1.774220571E-15;                       0000135P0000149
124,-3.045710159E-28,0.866025404,-0.5,2.,1.33226763E-15,0.5,     0000137P0000150
0.866025404,-3.464101615,1.,-6.661338148E-16,-1.153777612E-15,   0000137P0000151
-2.309400426;                                                    0000137P0000152
110,-4.440892099E-16,-4.618802154,3.642734511,-4.440892099E-16,  0000139P0000153
-4.618802154,0.357265489;                                        0000139P0000154
110,-4.,2.309401077,3.642734511,-4.,2.309401077,0.357265489;     0000141P0000155
104,0.187500106,0.,-6.25E-02,-0.,0.,-1.,0.,2.309400426,          0000143P0000156
1.581924303E-15,2.666665915,2.309401077;                         0000143P0000157
124,-3.045710159E-28,-0.866025404,0.5,-2.,1.33226763E-15,-0.5,   0000145P0000158
-0.866025404,3.464101615,1.,6.661338148E-16,1.153777612E-15,     0000145P0000159
-2.309400426;                                                    0000145P0000160
104,0.187500106,0.,-6.25E-02,-0.,0.,-1.,0.,2.666665915,          0000147P0000161
-2.309401077,2.309400426,1.581924303E-15;                        0000147P0000162
124,-3.045710159E-28,-0.866025404,0.5,-2.,1.33226763E-15,-0.5,   0000149P0000163
-0.866025404,3.464101615,1.,6.661338148E-16,1.153777612E-15,     0000149P0000164
-2.309400426;                                                    0000149P0000165
104,0.187500106,0.,-6.25E-02,-0.,0.,-1.,0.,2.309400426,          0000151P0000166
1.774220571E-15,2.666665915,2.309401077;                         0000151P0000167
124,3.045710159E-28,0.866025404,0.5,-2.,1.33226763E-15,-0.5,     0000153P0000168
0.866025404,-3.464101615,1.,6.661338148E-16,-1.153777612E-15,    0000153P0000169
-2.309400426;                                                    0000153P0000170
104,0.187500106,0.,-6.25E-02,-0.,0.,-1.,0.,2.666665915,          0000155P0000171
-2.309401077,2.309400426,1.774220571E-15;                        0000155P0000172
124,3.045710159E-28,0.866025404,0.5,-2.,1.33226763E-15,-0.5,     0000157P0000173
0.866025404,-3.464101615,1.,6.661338148E-16,-1.153777612E-15,    0000157P0000174
-2.309400426;                                                    0000157P0000175
110,-4.,-2.309401077,3.642734511,-4.,-2.309401077,0.357265489;   0000159P0000176
104,0.187500106,0.,-6.25E-02,-0.,0.,-1.,0.,2.309400426,          0000161P0000177
2.788504521E-32,2.666665915,2.309401077;                         0000161P0000178
124,0.,0.,1.,-4.,1.33226763E-15,-1.,0.,-3.076739431E-15,1.,      0000163P0000179
1.33226763E-15,0.,-2.309400426;                                  0000163P0000180
104,0.187500106,0.,-6.25E-02,-0.,0.,-1.,0.,2.666665915,          0000165P0000181
-2.309401077,2.309400426,2.788504521E-32;                        0000165P0000182
124,0.,0.,1.,-4.,1.33226763E-15,-1.,0.,-3.076739431E-15,1.,      0000167P0000183
1.33226763E-15,0.,-2.309400426;                                  0000167P0000184
100,0.,0.,0.,2.7,0.,2.7,0.;                                      0000169P0000185
124,-1.,0.,0.,0.,0.,-1.,1.33226763E-15,0.,0.,1.33226763E-15,1.,  0000171P0000186
0.;                                                              0000171P0000187
110,-2.5,2.664535259E-16,0.2,-2.7,1.2282748E-28,                 0000173P0000188
-1.182970142E-16;                                                0000173P0000189
100,0.,0.,0.,2.,-3.464101615,4.,-9.797174393E-16;                0000175P0000190
100,0.,0.,0.,4.,0.,2.,3.464101615;                               0000177P0000191
100,0.,0.,0.,2.,3.464101615,-2.,3.464101615;                     0000179P0000192
100,0.,0.,0.,-2.,-3.464101615,2.,-3.464101615;                   0000181P0000193
100,0.,0.,0.,-2.,3.464101615,-4.,4.898587197E-16;                0000183P0000194
100,0.,0.,0.,-4.,4.898587197E-16,-2.,-3.464101615;               0000185P0000195
508,1,0,17,7,0,0;                                                0000187P0000196
510,191,1,1,199;                                                 0000189P0000197
194,193,195,2.5,45.,197;                                         0000191P0000198
116,0.,5.062616992E-15,3.8,0;                                    0000193P0000199
123,0.,1.33226763E-15,1.;                                        0000195P0000200
123,-1.,0.,0.;                                                   0000197P0000201
508,4,0,17,8,1,1,0,201,0,17,9,0,1,0,203,0,17,7,0,1,0,205,0,17,9, 0000199P0000202
1,1,0,207;                                                       0000199P0000203
110,0.,0.,0.,360.,0.,0.;                                         0000201P0000204
126,1,1,1,0,1,0,-0.282842712,-0.282842712,0.,0.,1.,1.,360.,0.,   0000203P0000205
0.,360.,0.282842712,0.,-0.282842712,0.,0.,0.,1.;                 0000203P0000206
110,360.,0.282842712,0.,0.,0.282842712,0.;                       0000205P0000207
126,1,1,1,0,1,0,-0.282842712,-0.282842712,0.,0.,1.,1.,           0000207P0000208
2.37142157E-11,0.282842712,0.,2.37142157E-11,0.,0.,-0.282842712, 0000207P0000209
0.,0.,0.,1.;                                                     0000207P0000210
510,211,1,1,219;                                                 0000209P0000211
194,213,215,4.,60.000006991,217;                                 0000211P0000212
116,0.,5.329070518E-15,4.,0;                                     0000213P0000213
123,0.,-1.33226763E-15,-1.;                                      0000215P0000214
123,1.,2.220446049E-16,-2.958228395E-31;                         0000217P0000215
508,3,0,17,10,0,1,0,221,0,17,1,0,1,0,223,0,17,11,0,1,0,225;      0000219P0000216
126,8,8,1,0,1,0,-4.440892099E-16,-4.440892099E-16,               0000221P0000217
-4.440892099E-16,-4.440892099E-16,-4.440892099E-16,              0000221P0000218
-4.440892099E-16,-4.440892099E-16,-4.440892099E-16,              0000221P0000219
-4.440892099E-16,0.549306144,0.549306144,0.549306144,            0000221P0000220
0.549306144,0.549306144,0.549306144,0.549306144,0.549306144,     0000221P0000221
0.549306144,1.,1.,1.,1.,1.,1.,1.,1.,1.,330.,0.714531129,0.,      0000221P0000222
326.592956084,0.531429096,0.,323.052232944,0.377063942,0.,       0000221P0000223
319.390068761,0.250120219,0.,315.623409477,0.149571515,0.,       0000221P0000224
311.774082826,7.466060588E-02,0.,307.868231407,2.488687193E-02,  0000221P0000225
0.,303.93411598,3.294012809E-09,0.,300.000000538,                0000221P0000226
-2.08212044E-16,-0.,-4.440892099E-16,0.549306144,-0.,-0.,1.;     0000221P0000227
110,300.,0.,0.,360.,0.,0.;                                       0000223P0000228
126,8,8,1,0,1,0,-0.549824558,-0.549824558,-0.549824558,          0000225P0000229
-0.549824558,-0.549824558,-0.549824558,-0.549824558,             0000225P0000230
-0.549824558,-0.549824558,-5.184139658E-04,-5.184139658E-04,     0000225P0000231
-5.184139658E-04,-5.184139658E-04,-5.184139658E-04,              0000225P0000232
-5.184139658E-04,-5.184139658E-04,-5.184139658E-04,              0000225P0000233
-5.184139658E-04,1.,1.,1.,1.,1.,1.,1.,1.,1.,360.,                0000225P0000234
-2.309401939E-18,-0.,356.065884491,3.171420972E-10,0.,           0000225P0000235
352.131768994,2.488686683E-02,0.,348.225917503,7.466059948E-02,  0000225P0000236
0.,344.376590781,0.149571508,0.,340.609931427,0.250120212,0.,    0000225P0000237
336.947767177,0.377063936,0.,333.407043974,0.531429093,0.,330.,  0000225P0000238
0.714531129,0.,-0.549824558,-5.184139658E-04,-0.,-0.,1.;         0000225P0000239
510,229,1,1,237;                                                 0000227P0000240
194,231,233,4.,60.000006991,235;                                 0000229P0000241
116,0.,5.329070518E-15,4.,0;                                     0000231P0000242
123,0.,-1.33226763E-15,-1.;                                      0000233P0000243
123,1.,2.220446049E-16,-2.958228395E-31;                         0000235P0000244
508,3,0,17,12,0,1,0,239,0,17,13,0,1,0,241,0,17,6,0,1,0,243;      0000237P0000245
126,8,8,1,0,1,0,-0.549306144,-0.549306144,-0.549306144,          0000239P0000246
-0.549306144,-0.549306144,-0.549306144,-0.549306144,             0000239P0000247
-0.549306144,-0.549306144,-4.440892099E-16,-4.440892099E-16,     0000239P0000248
-4.440892099E-16,-4.440892099E-16,-4.440892099E-16,              0000239P0000249
-4.440892099E-16,-4.440892099E-16,-4.440892099E-16,              0000239P0000250
-4.440892099E-16,1.,1.,1.,1.,1.,1.,1.,1.,1.,60.000000843,        0000239P0000251
9.973677051E-16,0.,56.065885228,-4.348112351E-09,-0.,            0000239P0000252
52.131769622,2.488685883E-02,0.,48.225918016,7.466058945E-02,0., 0000239P0000253
44.376591188,0.149571498,0.,40.609931719,0.250120202,0.,         0000239P0000254
36.947767368,0.377063928,0.,33.407044065,0.531429088,0.,30.,     0000239P0000255
0.714531129,0.,-0.549306144,-4.440892099E-16,-0.,-0.,1.;         0000239P0000256
126,8,8,1,0,1,0,5.18413966E-04,5.18413966E-04,5.18413966E-04,    0000241P0000257
5.18413966E-04,5.18413966E-04,5.18413966E-04,5.18413966E-04,     0000241P0000258
5.18413966E-04,5.18413966E-04,0.549824558,0.549824558,           0000241P0000259
0.549824558,0.549824558,0.549824558,0.549824558,0.549824558,     0000241P0000260
0.549824558,0.549824558,1.,1.,1.,1.,1.,1.,1.,1.,1.,30.,          0000241P0000261
0.714531129,0.,26.592956026,0.531429093,0.,23.052232823,         0000241P0000262
0.377063936,0.,19.390068572,0.250120212,0.,15.623409221,         0000241P0000263
0.149571508,0.,11.774082497,7.466059948E-02,0.,7.868231007,      0000241P0000264
2.488686683E-02,0.,3.934115509,3.171420537E-10,0.,               0000241P0000265
-2.37142157E-11,-2.309401306E-18,0.,5.18413966E-04,0.549824558,  0000241P0000266
-0.,-0.,1.;                                                      0000241P0000267
110,0.,0.,0.,60.,0.,0.;                                          0000243P0000268
510,247,1,1,255;                                                 0000245P0000269
194,249,251,4.,60.000006991,253;                                 0000247P0000270
116,0.,5.329070518E-15,4.,0;                                     0000249P0000271
123,0.,-1.33226763E-15,-1.;                                      0000251P0000272
123,1.,2.220446049E-16,-2.958228395E-31;                         0000253P0000273
508,3,0,17,14,0,1,0,257,0,17,2,0,1,0,259,0,17,15,0,1,0,261;      0000255P0000274
126,8,8,1,0,1,0,4.440892099E-16,4.440892099E-16,4.440892099E-16, 0000257P0000275
4.440892099E-16,4.440892099E-16,4.440892099E-16,4.440892099E-16, 0000257P0000276
4.440892099E-16,4.440892099E-16,0.549306144,0.549306144,         0000257P0000277
0.549306144,0.549306144,0.549306144,0.549306144,0.549306144,     0000257P0000278
0.549306144,0.549306144,1.,1.,1.,1.,1.,1.,1.,1.,1.,270.,         0000257P0000279
0.714531129,0.,266.592956117,0.531429098,0.,263.052233013,       0000257P0000280
0.377063944,0.,259.390068868,0.250120223,0.,255.623409623,       0000257P0000281
0.149571519,0.,251.774083013,7.466060951E-02,0.,247.868231634,   0000257P0000282
2.488687483E-02,0.,243.934116247,4.982393068E-09,0.,             0000257P0000283
240.000000843,1.527613517E-15,0.,4.440892099E-16,0.549306144,    0000257P0000284
-0.,-0.,1.;                                                      0000257P0000285
110,240.,0.,0.,300.,0.,0.;                                       0000259P0000286
126,8,8,1,0,1,0,-0.549306144,-0.549306144,-0.549306144,          0000261P0000287
-0.549306144,-0.549306144,-0.549306144,-0.549306144,             0000261P0000288
-0.549306144,-0.549306144,-4.440892099E-16,-4.440892099E-16,     0000261P0000289
-4.440892099E-16,-4.440892099E-16,-4.440892099E-16,              0000261P0000290
-4.440892099E-16,-4.440892099E-16,-4.440892099E-16,              0000261P0000291
-4.440892099E-16,1.,1.,1.,1.,1.,1.,1.,1.,1.,300.000000538,       0000261P0000292
6.476823596E-16,0.,296.065884961,-2.659728419E-09,-0.,           0000261P0000293
292.131769394,2.488686173E-02,0.,288.225917831,7.466059308E-02,  0000261P0000294
0.,284.376591038,0.149571501,0.,280.609931614,0.250120206,0.,    0000261P0000295
276.947767298,0.377063931,0.,273.407044032,0.53142909,0.,270.,   0000261P0000296
0.714531129,0.,-0.549306144,-4.440892099E-16,-0.,-0.,1.;         0000261P0000297
510,265,1,1,273;                                                 0000263P0000298
194,267,269,4.,60.000006991,271;                                 0000265P0000299
116,0.,5.329070518E-15,4.,0;                                     0000267P0000300
123,0.,-1.33226763E-15,-1.;                                      0000269P0000301
123,1.,2.220446049E-16,-2.958228395E-31;                         0000271P0000302
508,3,0,17,16,0,1,0,275,0,17,17,0,1,0,277,0,17,5,0,1,0,279;      0000273P0000303
126,8,8,1,0,1,0,-0.549306144,-0.549306144,-0.549306144,          0000275P0000304
-0.549306144,-0.549306144,-0.549306144,-0.549306144,             0000275P0000305
-0.549306144,-0.549306144,4.440892099E-16,4.440892099E-16,       0000275P0000306
4.440892099E-16,4.440892099E-16,4.440892099E-16,4.440892099E-16, 0000275P0000307
4.440892099E-16,4.440892099E-16,4.440892099E-16,1.,1.,1.,1.,1.,  0000275P0000308
1.,1.,1.,1.,120.000000125,1.702867334E-16,0.,116.0658846,        0000275P0000309
-3.727951413E-10,-0.,112.131769087,2.488686565E-02,0.,           0000275P0000310
108.22591758,7.4660598E-02,0.,104.37659084,0.149571507,0.,       0000275P0000311
100.609931471,0.250120211,0.,96.947767205,0.377063935,0.,        0000275P0000312
93.407043987,0.531429092,0.,90.,0.714531129,0.,-0.549306144,     0000275P0000313
4.440892099E-16,-0.,-0.,1.;                                      0000275P0000314
126,8,8,1,0,1,0,-4.440892099E-16,-4.440892099E-16,               0000277P0000315
-4.440892099E-16,-4.440892099E-16,-4.440892099E-16,              0000277P0000316
-4.440892099E-16,-4.440892099E-16,-4.440892099E-16,              0000277P0000317
-4.440892099E-16,0.549306144,0.549306144,0.549306144,            0000277P0000318
0.549306144,0.549306144,0.549306144,0.549306144,0.549306144,     0000277P0000319
0.549306144,1.,1.,1.,1.,1.,1.,1.,1.,1.,90.,0.714531129,0.,       0000277P0000320
86.592956117,0.531429098,0.,83.052233013,0.377063944,0.,         0000277P0000321
79.390068867,0.250120223,0.,75.623409625,0.149571519,0.,         0000277P0000322
71.774083012,7.466060951E-02,0.,67.868231634,2.488687483E-02,0., 0000277P0000323
63.934116247,4.982398058E-09,0.,60.000000843,8.614797609E-16,0., 0000277P0000324
-4.440892099E-16,0.549306144,-0.,-0.,1.;                         0000277P0000325
110,60.,0.,0.,120.,0.,0.;                                        0000279P0000326
510,283,1,1,291;                                                 0000281P0000327
194,285,287,4.,60.000006991,289;                                 0000283P0000328
116,0.,5.329070518E-15,4.,0;                                     0000285P0000329
123,0.,-1.33226763E-15,-1.;                                      0000287P0000330
123,1.,2.220446049E-16,-2.958228395E-31;                         0000289P0000331
508,3,0,17,18,0,1,0,293,0,17,3,0,1,0,295,0,17,19,0,1,0,297;      0000291P0000332
126,8,8,1,0,1,0,5.184139658E-04,5.184139658E-04,5.184139658E-04, 0000293P0000333
5.184139658E-04,5.184139658E-04,5.184139658E-04,5.184139658E-04, 0000293P0000334
5.184139658E-04,5.184139658E-04,0.549824558,0.549824558,         0000293P0000335
0.549824558,0.549824558,0.549824558,0.549824558,0.549824558,     0000293P0000336
0.549824558,0.549824558,1.,1.,1.,1.,1.,1.,1.,1.,1.,210.,         0000293P0000337
0.714531129,0.,206.592956026,0.531429093,0.,203.052232823,       0000293P0000338
0.377063936,0.,199.390068573,0.250120212,0.,195.62340922,        0000293P0000339
0.149571508,0.,191.774082498,7.466059948E-02,0.,187.868231006,   0000293P0000340
2.488686683E-02,0.,183.934115509,3.171438079E-10,0.,180.,        0000293P0000341
3.822831431E-16,0.,5.184139658E-04,0.549824558,-0.,-0.,1.;       0000293P0000342
110,180.,0.,0.,240.,0.,0.;                                       0000295P0000343
126,8,8,1,0,1,0,-0.549306144,-0.549306144,-0.549306144,          0000297P0000344
-0.549306144,-0.549306144,-0.549306144,-0.549306144,             0000297P0000345
-0.549306144,-0.549306144,4.440892099E-16,4.440892099E-16,       0000297P0000346
4.440892099E-16,4.440892099E-16,4.440892099E-16,4.440892099E-16, 0000297P0000347
4.440892099E-16,4.440892099E-16,4.440892099E-16,1.,1.,1.,1.,1.,  0000297P0000348
1.,1.,1.,1.,240.000000843,6.722716151E-16,0.,236.065885228,      0000297P0000349
-4.348107035E-09,-0.,232.131769621,2.488685883E-02,0.,           0000297P0000350
228.225918019,7.466058945E-02,0.,224.376591183,0.149571498,0.,   0000297P0000351
220.609931722,0.250120202,0.,216.947767367,0.377063928,0.,       0000297P0000352
213.407044065,0.531429088,0.,210.,0.714531129,0.,-0.549306144,   0000297P0000353
4.440892099E-16,-0.,-0.,1.;                                      0000297P0000354
510,301,1,1,309;                                                 0000299P0000355
194,303,305,4.,60.000006991,307;                                 0000301P0000356
116,0.,5.329070518E-15,4.,0;                                     0000303P0000357
123,0.,-1.33226763E-15,-1.;                                      0000305P0000358
123,1.,2.220446049E-16,-2.958228395E-31;                         0000307P0000359
508,3,0,17,20,0,1,0,311,0,17,21,0,1,0,313,0,17,4,0,1,0,315;      0000309P0000360
126,8,8,1,0,1,0,-0.549824558,-0.549824558,-0.549824558,          0000311P0000361
-0.549824558,-0.549824558,-0.549824558,-0.549824558,             0000311P0000362
-0.549824558,-0.549824558,-5.18413966E-04,-5.18413966E-04,       0000311P0000363
-5.18413966E-04,-5.18413966E-04,-5.18413966E-04,-5.18413966E-04, 0000311P0000364
-5.18413966E-04,-5.18413966E-04,-5.18413966E-04,1.,1.,1.,1.,1.,  0000311P0000365
1.,1.,1.,1.,180.,3.822831848E-16,0.,176.065884491,               0000311P0000366
3.171409486E-10,0.,172.131768994,2.488686683E-02,0.,             0000311P0000367
168.225917503,7.466059948E-02,0.,164.37659078,0.149571508,0.,    0000311P0000368
160.609931427,0.250120212,0.,156.947767177,0.377063936,0.,       0000311P0000369
153.407043974,0.531429093,0.,150.,0.714531129,0.,-0.549824558,   0000311P0000370
-5.18413966E-04,-0.,-0.,1.;                                      0000311P0000371
126,8,8,1,0,1,0,4.440892099E-16,4.440892099E-16,4.440892099E-16, 0000313P0000372
4.440892099E-16,4.440892099E-16,4.440892099E-16,4.440892099E-16, 0000313P0000373
4.440892099E-16,4.440892099E-16,0.549306144,0.549306144,         0000313P0000374
0.549306144,0.549306144,0.549306144,0.549306144,0.549306144,     0000313P0000375
0.549306144,0.549306144,1.,1.,1.,1.,1.,1.,1.,1.,1.,150.,         0000313P0000376
0.714531129,0.,146.59295604,0.531429093,0.,143.052232851,        0000313P0000377
0.377063937,0.,139.390068617,0.250120214,0.,135.62340928,        0000313P0000378
0.14957151,0.,131.774082574,7.466060097E-02,0.,127.868231099,    0000313P0000379
2.488686801E-02,0.,123.934115618,1.00707957E-09,0.,              0000313P0000380
120.000000125,1.501904761E-16,0.,4.440892099E-16,0.549306144,    0000313P0000381
-0.,-0.,1.;                                                      0000313P0000382
110,120.,0.,0.,180.,0.,0.;                                       0000315P0000383
510,319,1,1,327;                                                 0000317P0000384
192,321,323,2.5,325;                                             0000319P0000385
116,0.,5.329070518E-15,4.,0;                                     0000321P0000386
123,0.,1.33226763E-15,1.;                                        0000323P0000387
123,-1.,0.,0.;                                                   0000325P0000388
508,4,0,17,22,0,1,0,329,0,17,8,0,1,0,331,0,17,22,1,1,0,333,0,17, 0000327P0000389
23,1,1,0,335;                                                    0000327P0000390
110,360.,-3.8,-0.,360.,-0.2,-0.;                                 0000329P0000391
110,360.,-0.2,-0.,0.,-0.2,-0.;                                   0000331P0000392
110,0.,-0.2,-0.,0.,-3.8,-0.;                                     0000333P0000393
110,0.,-3.8,0.,360.,-3.8,0.;                                     0000335P0000394
510,339,1,1,347;                                                 0000337P0000395
190,341,343,345;                                                 0000339P0000396
116,4.,2.309401077,4.,0;                                         0000341P0000397
123,-1.,0.,0.;                                                   0000343P0000398
123,0.,-1.,1.33226763E-15;                                       0000345P0000399
508,6,0,17,11,0,0,0,17,24,1,0,0,17,25,0,0,0,17,26,0,0,0,17,27,0, 0000347P0000400
0,0,17,13,0,0;                                                   0000347P0000401
510,351,1,1,359;                                                 0000349P0000402
190,353,355,357;                                                 0000351P0000403
116,0.,4.618802154,4.,0;                                         0000353P0000404
123,-0.5,-0.866025404,1.153777612E-15;                           0000355P0000405
123,0.866025404,-0.5,6.661338148E-16;                            0000357P0000406
508,6,0,17,15,0,0,0,17,28,1,0,0,17,29,0,0,0,17,30,0,0,0,17,24,0, 0000359P0000407
0,0,17,10,0,0;                                                   0000359P0000408
510,363,1,1,371;                                                 0000361P0000409
190,365,367,369;                                                 0000363P0000410
116,4.,-2.309401077,4.,0;                                        0000365P0000411
123,-0.5,0.866025404,-1.153777612E-15;                           0000367P0000412
123,-0.866025404,-0.5,6.661338148E-16;                           0000369P0000413
508,6,0,17,12,0,0,0,17,27,1,0,0,17,31,0,0,0,17,32,0,0,0,17,33,0, 0000371P0000414
0,0,17,17,0,0;                                                   0000371P0000415
510,375,1,1,383;                                                 0000373P0000416
190,377,379,381;                                                 0000375P0000417
116,-4.,2.309401077,4.,0;                                        0000377P0000418
123,0.5,-0.866025404,1.153777612E-15;                            0000379P0000419
123,0.866025404,0.5,-6.661338148E-16;                            0000381P0000420
508,6,0,17,19,0,0,0,17,34,1,0,0,17,35,0,0,0,17,36,0,0,0,17,28,0, 0000383P0000421
0,0,17,14,0,0;                                                   0000383P0000422
510,387,1,1,395;                                                 0000385P0000423
190,389,391,393;                                                 0000387P0000424
116,-4.440892099E-16,-4.618802154,4.,0;                          0000389P0000425
123,0.5,0.866025404,-1.153777612E-15;                            0000391P0000426
123,-0.866025404,0.5,-6.661338148E-16;                           0000393P0000427
508,6,0,17,16,0,0,0,17,33,1,0,0,17,37,0,0,0,17,38,0,0,0,17,39,0, 0000395P0000428
0,0,17,21,0,0;                                                   0000395P0000429
510,399,1,1,407;                                                 0000397P0000430
190,401,403,405;                                                 0000399P0000431
116,-4.,-2.309401077,4.,0;                                       0000401P0000432
123,1.,0.,0.;                                                    0000403P0000433
123,0.,1.,-1.33226763E-15;                                       0000405P0000434
508,6,0,17,20,0,0,0,17,39,1,0,0,17,40,0,0,0,17,41,0,0,0,17,34,0, 0000407P0000435
0,0,17,18,0,0;                                                   0000407P0000436
510,411,1,1,419;                                                 0000409P0000437
194,413,415,2.5,45.,417;                                         0000411P0000438
116,0.,2.664535259E-16,0.2,0;                                    0000413P0000439
123,-0.,-1.33226763E-15,-1.;                                     0000415P0000440
123,-1.,0.,0.;                                                   0000417P0000441
508,4,0,17,42,1,1,0,421,0,17,43,0,1,0,423,0,17,23,0,1,0,425,0,   0000419P0000442
17,43,1,1,0,427;                                                 0000419P0000443
110,360.,0.282842712,0.,0.,0.282842712,0.;                       0000421P0000444
126,1,1,1,0,1,0,0.,0.,0.282842712,0.282842712,1.,1.,0.,          0000423P0000445
0.282842712,0.,0.,0.,0.,0.,0.282842712,0.,0.,1.;                 0000423P0000446
110,0.,0.,0.,360.,0.,0.;                                         0000425P0000447
126,1,1,1,0,1,0,0.,0.,0.282842712,0.282842712,1.,1.,360.,0.,0.,  0000427P0000448
360.,0.282842712,0.,0.,0.282842712,0.,0.,1.;                     0000427P0000449
510,431,1,1,439;                                                 0000429P0000450
194,433,435,4.62,60.000006991,437;                               0000431P0000451
116,0.,4.768946119E-16,0.357957066,0;                            0000433P0000452
123,0.,1.33226763E-15,1.;                                        0000435P0000453
123,1.,1.720399033E-17,-2.292031941E-32;                         0000437P0000454
508,3,0,17,26,0,1,0,441,0,17,31,0,1,0,443,0,17,44,1,1,0,445;     0000439P0000455
126,8,8,1,0,1,0,-0.549824558,-0.549824558,-0.549824558,          0000441P0000456
-0.549824558,-0.549824558,-0.549824558,-0.549824558,             0000441P0000457
-0.549824558,-0.549824558,-5.184139658E-04,-5.184139658E-04,     0000441P0000458
-5.184139658E-04,-5.184139658E-04,-5.184139658E-04,              0000441P0000459
-5.184139658E-04,-5.184139658E-04,-5.184139658E-04,              0000441P0000460
-5.184139658E-04,1.,1.,1.,1.,1.,1.,1.,1.,1.,360.,-0.715914283,   0000441P0000461
-0.,356.065884491,-0.715914283,-0.,352.131768994,-0.691027417,   0000441P0000462
-0.,348.225917502,-0.641253684,-0.,344.37659078,-0.566342775,    0000441P0000463
-0.,340.609931427,-0.465794071,-0.,336.947767177,-0.338850347,   0000441P0000464
-0.,333.407043974,-0.184485191,-0.,330.,-1.383153894E-03,0.,     0000441P0000465
-0.549824558,-5.184139658E-04,-0.,-0.,1.;                        0000441P0000466
126,8,8,1,0,1,0,-4.440892099E-16,-4.440892099E-16,               0000443P0000467
-4.440892099E-16,-4.440892099E-16,-4.440892099E-16,              0000443P0000468
-4.440892099E-16,-4.440892099E-16,-4.440892099E-16,              0000443P0000469
-4.440892099E-16,0.549306144,0.549306144,0.549306144,            0000443P0000470
0.549306144,0.549306144,0.549306144,0.549306144,0.549306144,     0000443P0000471
0.549306144,1.,1.,1.,1.,1.,1.,1.,1.,1.,330.,-1.38315388E-03,-0., 0000443P0000472
326.59295604,-0.18448519,-0.,323.052232851,-0.338850346,-0.,     0000443P0000473
319.390068616,-0.46579407,-0.,315.62340928,-0.566342773,-0.,     0000443P0000474
311.774082573,-0.641253682,-0.,307.868231099,-0.691027415,-0.,   0000443P0000475
303.934115618,-0.715914282,-0.,300.000000125,-0.715914283,-0.,   0000443P0000476
-4.440892099E-16,0.549306144,-0.,-0.,1.;                         0000443P0000477
110,300.,-0.715914283,0.,360.,-0.715914283,0.;                   0000445P0000478
510,449,1,1,457;                                                 0000447P0000479
194,451,453,4.62,60.000006991,455;                               0000449P0000480
116,0.,4.768946119E-16,0.357957066,0;                            0000451P0000481
123,0.,1.33226763E-15,1.;                                        0000453P0000482
123,1.,1.720399033E-17,-2.292031941E-32;                         0000455P0000483
508,3,0,17,45,1,1,0,459,0,17,30,0,1,0,461,0,17,25,0,1,0,463;     0000457P0000484
110,0.,-0.715914283,0.,60.,-0.715914283,0.;                      0000459P0000485
126,8,8,1,0,1,0,-0.549306144,-0.549306144,-0.549306144,          0000461P0000486
-0.549306144,-0.549306144,-0.549306144,-0.549306144,             0000461P0000487
-0.549306144,-0.549306144,-4.440892099E-16,-4.440892099E-16,     0000461P0000488
-4.440892099E-16,-4.440892099E-16,-4.440892099E-16,              0000461P0000489
-4.440892099E-16,-4.440892099E-16,-4.440892099E-16,              0000461P0000490
-4.440892099E-16,1.,1.,1.,1.,1.,1.,1.,1.,1.,60.000000473,        0000461P0000491
-0.715914283,-0.,56.065884905,-0.715914286,-0.,52.131769346,     0000461P0000492
-0.691027421,-0.,48.225917792,-0.64125369,-0.,44.376591007,      0000461P0000493
-0.566342781,-0.,40.609931592,-0.465794077,-0.,36.947767284,     0000461P0000494
-0.338850352,-0.,33.407044025,-0.184485193,-0.,30.,              0000461P0000495
-1.383153879E-03,-0.,-0.549306144,-4.440892099E-16,-0.,-0.,1.;   0000461P0000496
126,8,8,1,0,1,0,5.184139658E-04,5.184139658E-04,5.184139658E-04, 0000463P0000497
5.184139658E-04,5.184139658E-04,5.184139658E-04,5.184139658E-04, 0000463P0000498
5.184139658E-04,5.184139658E-04,0.549824558,0.549824558,         0000463P0000499
0.549824558,0.549824558,0.549824558,0.549824558,0.549824558,     0000463P0000500
0.549824558,0.549824558,1.,1.,1.,1.,1.,1.,1.,1.,1.,30.,          0000463P0000501
-1.383153894E-03,0.,26.592956026,-0.184485191,0.,23.052232823,   0000463P0000502
-0.338850347,0.,19.390068573,-0.465794071,0.,15.623409219,       0000463P0000503
-0.566342775,0.,11.774082497,-0.641253684,0.,7.868231006,        0000463P0000504
-0.691027417,0.,3.934115509,-0.715914283,0.,-1.494760885E-15,    0000463P0000505
-0.715914283,0.,5.184139658E-04,0.549824558,-0.,-0.,1.;          0000463P0000506
510,467,1,1,475;                                                 0000465P0000507
194,469,471,4.62,60.000006991,473;                               0000467P0000508
116,0.,4.768946119E-16,0.357957066,0;                            0000469P0000509
123,0.,1.33226763E-15,1.;                                        0000471P0000510
123,1.,1.720399033E-17,-2.292031941E-32;                         0000473P0000511
508,3,0,17,46,1,1,0,477,0,17,36,0,1,0,479,0,17,29,0,1,0,481;     0000475P0000512
110,60.,-0.715914283,0.,120.,-0.715914283,0.;                    0000477P0000513
126,8,8,1,0,1,0,-0.549306144,-0.549306144,-0.549306144,          0000479P0000514
-0.549306144,-0.549306144,-0.549306144,-0.549306144,             0000479P0000515
-0.549306144,-0.549306144,4.440892099E-16,4.440892099E-16,       0000479P0000516
4.440892099E-16,4.440892099E-16,4.440892099E-16,4.440892099E-16, 0000479P0000517
4.440892099E-16,4.440892099E-16,4.440892099E-16,1.,1.,1.,1.,1.,  0000479P0000518
1.,1.,1.,1.,120.000000125,-0.715914283,-0.,116.0658846,          0000479P0000519
-0.715914284,-0.,112.131769086,-0.691027418,-0.,108.22591758,    0000479P0000520
-0.641253685,-0.,104.376590839,-0.566342777,-0.,100.609931471,   0000479P0000521
-0.465794073,-0.,96.947767205,-0.338850348,-0.,93.407043987,     0000479P0000522
-0.184485191,-0.,90.,-1.383153878E-03,-0.,-0.549306144,          0000479P0000523
4.440892099E-16,-0.,-0.,1.;                                      0000479P0000524
126,8,8,1,0,1,0,-4.440892099E-16,-4.440892099E-16,               0000481P0000525
-4.440892099E-16,-4.440892099E-16,-4.440892099E-16,              0000481P0000526
-4.440892099E-16,-4.440892099E-16,-4.440892099E-16,              0000481P0000527
-4.440892099E-16,0.549306144,0.549306144,0.549306144,            0000481P0000528
0.549306144,0.549306144,0.549306144,0.549306144,0.549306144,     0000481P0000529
0.549306144,1.,1.,1.,1.,1.,1.,1.,1.,1.,90.,-1.383153879E-03,-0., 0000481P0000530
86.592956077,-0.184485188,-0.,83.052232929,-0.338850342,-0.,     0000481P0000531
79.390068739,-0.465794065,-0.,75.623409446,-0.566342769,-0.,     0000481P0000532
71.774082787,-0.641253678,-0.,67.868231359,-0.691027412,-0.,     0000481P0000533
63.934115923,-0.71591428,-0.,60.000000473,-0.715914283,-0.,      0000481P0000534
-4.440892099E-16,0.549306144,-0.,-0.,1.;                         0000481P0000535
510,485,1,1,493;                                                 0000483P0000536
194,487,489,4.62,60.000006991,491;                               0000485P0000537
116,0.,4.768946119E-16,0.357957066,0;                            0000487P0000538
123,0.,1.33226763E-15,1.;                                        0000489P0000539
123,1.,1.720399033E-17,-2.292031941E-32;                         0000491P0000540
508,3,0,17,32,0,1,0,495,0,17,37,0,1,0,497,0,17,47,1,1,0,499;     0000493P0000541
126,8,8,1,0,1,0,-0.549306144,-0.549306144,-0.549306144,          0000495P0000542
-0.549306144,-0.549306144,-0.549306144,-0.549306144,             0000495P0000543
-0.549306144,-0.549306144,-4.440892099E-16,-4.440892099E-16,     0000495P0000544
-4.440892099E-16,-4.440892099E-16,-4.440892099E-16,              0000495P0000545
-4.440892099E-16,-4.440892099E-16,-4.440892099E-16,              0000495P0000546
-4.440892099E-16,1.,1.,1.,1.,1.,1.,1.,1.,1.,300.000000125,       0000495P0000547
-0.715914283,-0.,296.0658846,-0.715914284,-0.,292.131769086,     0000495P0000548
-0.691027418,-0.,288.225917579,-0.641253685,-0.,284.376590839,   0000495P0000549
-0.566342777,-0.,280.60993147,-0.465794073,-0.,276.947767205,    0000495P0000550
-0.338850348,-0.,273.407043987,-0.184485191,-0.,270.,            0000495P0000551
-1.38315388E-03,-0.,-0.549306144,-4.440892099E-16,-0.,-0.,1.;    0000495P0000552
126,8,8,1,0,1,0,4.440892099E-16,4.440892099E-16,4.440892099E-16, 0000497P0000553
4.440892099E-16,4.440892099E-16,4.440892099E-16,4.440892099E-16, 0000497P0000554
4.440892099E-16,4.440892099E-16,0.549306144,0.549306144,         0000497P0000555
0.549306144,0.549306144,0.549306144,0.549306144,0.549306144,     0000497P0000556
0.549306144,0.549306144,1.,1.,1.,1.,1.,1.,1.,1.,1.,270.,         0000497P0000557
-1.383153879E-03,-0.,266.592956117,-0.184485186,-0.,             0000497P0000558
263.052233013,-0.338850339,-0.,259.390068866,-0.465794061,-0.,   0000497P0000559
255.623409624,-0.566342764,-0.,251.774083012,-0.641253674,-0.,   0000497P0000560
247.868231634,-0.691027409,-0.,243.934116247,-0.715914278,-0.,   0000497P0000561
240.000000843,-0.715914283,-0.,4.440892099E-16,0.549306144,-0.,  0000497P0000562
-0.,1.;                                                          0000497P0000563
110,240.,-0.715914283,0.,300.,-0.715914283,0.;                   0000499P0000564
510,503,1,1,511;                                                 0000501P0000565
194,505,507,4.62,60.000006991,509;                               0000503P0000566
116,0.,4.768946119E-16,0.357957066,0;                            0000505P0000567
123,0.,1.33226763E-15,1.;                                        0000507P0000568
123,1.,1.720399033E-17,-2.292031941E-32;                         0000509P0000569
508,3,0,17,48,1,1,0,513,0,17,41,0,1,0,515,0,17,35,0,1,0,517;     0000511P0000570
110,120.,-0.715914283,0.,180.,-0.715914283,0.;                   0000513P0000571
126,8,8,1,0,1,0,-0.549824558,-0.549824558,-0.549824558,          0000515P0000572
-0.549824558,-0.549824558,-0.549824558,-0.549824558,             0000515P0000573
-0.549824558,-0.549824558,-5.184139658E-04,-5.184139658E-04,     0000515P0000574
-5.184139658E-04,-5.184139658E-04,-5.184139658E-04,              0000515P0000575
-5.184139658E-04,-5.184139658E-04,-5.184139658E-04,              0000515P0000576
-5.184139658E-04,1.,1.,1.,1.,1.,1.,1.,1.,1.,180.,-0.715914283,   0000515P0000577
-0.,176.065884491,-0.715914283,-0.,172.131768994,-0.691027417,   0000515P0000578
-0.,168.225917502,-0.641253684,-0.,164.376590781,-0.566342775,   0000515P0000579
-0.,160.609931427,-0.465794071,-0.,156.947767178,-0.338850347,   0000515P0000580
-0.,153.407043974,-0.184485191,-0.,150.,-1.383153894E-03,0.,     0000515P0000581
-0.549824558,-5.184139658E-04,-0.,-0.,1.;                        0000515P0000582
126,8,8,1,0,1,0,4.440892099E-16,4.440892099E-16,4.440892099E-16, 0000517P0000583
4.440892099E-16,4.440892099E-16,4.440892099E-16,4.440892099E-16, 0000517P0000584
4.440892099E-16,4.440892099E-16,0.549306144,0.549306144,         0000517P0000585
0.549306144,0.549306144,0.549306144,0.549306144,0.549306144,     0000517P0000586
0.549306144,0.549306144,1.,1.,1.,1.,1.,1.,1.,1.,1.,150.,         0000517P0000587
-1.38315388E-03,-0.,146.59295604,-0.18448519,-0.,143.052232851,  0000517P0000588
-0.338850346,-0.,139.390068617,-0.46579407,-0.,135.623409279,    0000517P0000589
-0.566342773,-0.,131.774082573,-0.641253682,-0.,127.868231099,   0000517P0000590
-0.691027415,-0.,123.934115618,-0.715914282,-0.,120.000000125,   0000517P0000591
-0.715914283,-0.,4.440892099E-16,0.549306144,-0.,-0.,1.;         0000517P0000592
510,521,1,1,529;                                                 0000519P0000593
194,523,525,4.62,60.000006991,527;                               0000521P0000594
116,0.,4.768946119E-16,0.357957066,0;                            0000523P0000595
123,0.,1.33226763E-15,1.;                                        0000525P0000596
123,1.,1.720399033E-17,-2.292031941E-32;                         0000527P0000597
508,3,0,17,38,0,1,0,531,0,17,40,0,1,0,533,0,17,49,1,1,0,535;     0000529P0000598
126,8,8,1,0,1,0,-0.549306144,-0.549306144,-0.549306144,          0000531P0000599
-0.549306144,-0.549306144,-0.549306144,-0.549306144,             0000531P0000600
-0.549306144,-0.549306144,4.440892099E-16,4.440892099E-16,       0000531P0000601
4.440892099E-16,4.440892099E-16,4.440892099E-16,4.440892099E-16, 0000531P0000602
4.440892099E-16,4.440892099E-16,4.440892099E-16,1.,1.,1.,1.,1.,  0000531P0000603
1.,1.,1.,1.,240.000000843,-0.715914283,-0.,236.065885228,        0000531P0000604
-0.715914288,-0.,232.131769622,-0.691027425,-0.,228.225918016,   0000531P0000605
-0.641253694,-0.,224.376591185,-0.566342786,-0.,220.609931719,   0000531P0000606
-0.465794081,-0.,216.947767367,-0.338850355,-0.,213.407044065,   0000531P0000607
-0.184485196,-0.,210.,-1.383153879E-03,-0.,-0.549306144,         0000531P0000608
4.440892099E-16,-0.,-0.,1.;                                      0000531P0000609
126,8,8,1,0,1,0,5.184139658E-04,5.184139658E-04,5.184139658E-04, 0000533P0000610
5.184139658E-04,5.184139658E-04,5.184139658E-04,5.184139658E-04, 0000533P0000611
5.184139658E-04,5.184139658E-04,0.549824558,0.549824558,         0000533P0000612
0.549824558,0.549824558,0.549824558,0.549824558,0.549824558,     0000533P0000613
0.549824558,0.549824558,1.,1.,1.,1.,1.,1.,1.,1.,1.,210.,         0000533P0000614
-1.383153894E-03,-0.,206.592956026,-0.184485191,-0.,             0000533P0000615
203.052232822,-0.338850347,-0.,199.390068573,-0.465794071,-0.,   0000533P0000616
195.623409218,-0.566342775,-0.,191.774082497,-0.641253684,-0.,   0000533P0000617
187.868231006,-0.691027417,-0.,183.934115509,-0.715914283,-0.,   0000533P0000618
180.,-0.715914283,-0.,5.184139658E-04,0.549824558,-0.,-0.,1.;    0000533P0000619
110,180.,-0.715914283,0.,240.,-0.715914283,0.;                   0000535P0000620
510,539,2,1,547,549;                                             0000537P0000621
190,541,543,545;                                                 0000539P0000622
116,0.,0.,0.,0;                                                  0000541P0000623
123,0.,1.33226763E-15,1.;                                        0000543P0000624
123,1.,0.,-0.;                                                   0000545P0000625
508,6,0,17,45,1,0,0,17,46,1,0,0,17,48,1,0,0,17,49,1,0,0,17,47,1, 0000547P0000626
0,0,17,44,1,0;                                                   0000547P0000627
508,1,0,17,42,0,0;                                               0000549P0000628
S      1G      4D    550P    628                                        T0000001
